<?xml version="1.0" encoding="utf-8"?>
<!-- Generator: Adobe Illustrator 21.0.0, SVG Export Plug-In . SVG Version: 6.00 Build 0)  -->
<svg version="1.1" id="Ebene_1" xmlns="http://www.w3.org/2000/svg" xmlns:xlink="http://www.w3.org/1999/xlink" x="0px" y="0px"
	 viewBox="0 0 208.1 208.1" style="enable-background:new 0 0 208.1 208.1;" xml:space="preserve">
<style type="text/css">
	.st0{fill:#25B3C4;}
	.st1{fill:#E74158;}
	.st2{clip-path:url(#SVGID_2_);fill:#FFFFFF;}
	.st3{clip-path:url(#SVGID_2_);fill:#1D1D1B;}
</style>
<polygon class="st0" points="1,-0.2 1,208 209.2,-0.2 "/>
<polygon class="st1" points="209.2,-0.2 1,208 209.2,208 "/>
<g>
	<defs>
		<rect id="SVGID_1_" x="1" y="-0.2" width="208.2" height="208.2"/>
	</defs>
	<clipPath id="SVGID_2_">
		<use xlink:href="#SVGID_1_"  style="overflow:visible;"/>
	</clipPath>
	<path class="st2" d="M43.7,165.2c-0.1-0.1-0.2-0.2-0.3-0.3c-1.8-1.8-3.8-3.5-6.5-3.5c-1.7,0-3.5,0.8-4.9,2.2l-4.9,4.9l6.7,6.7
		l2.3-2.3l-4.6-4.6l2.6-2.6c0.7-0.7,1.6-1.1,2.5-1.1c1.8,0,3.3,1.5,4.5,2.6c0.1,0.1,0.2,0.2,0.3,0.3L43.7,165.2z M55.2,153.7l-9-4.3
		l-2.5,2.5l4.3,9l2.3-2.3l-2.5-5.1l5.1,2.5L55.2,153.7z M58.9,143.7c-0.5-0.5-0.6-0.9-0.6-1.5c0-1.1,0.6-2,1.4-2.8
		c0.7-0.7,1.8-1.3,2.6-1.3c0.6,0,1.3,0.3,1.8,0.7l2.4-2.4c-1.1-1-2.5-1.5-4-1.4c-1.7,0.1-3.4,0.9-4.8,2.3c-1.5,1.5-2.4,3.4-2.4,5.1
		c0,1.3,0.4,2.6,1.4,3.6c1.5,1.5,3.2,1.8,4.8,1.3l7.3-7.3c-1.4-0.1-2.9,0.4-4.1,1.3c-0.9,0.7-2.1,1.8-3.1,2.4
		C60.7,144.4,59.7,144.6,58.9,143.7 M76.4,123.4l6.5-6.5l-2.1-2.1l-8.8,8.8l6.7,6.7l8.1-8.1l-1.2-1.2l-5.8,5.8L76.4,123.4z
		 M91.5,114.2l-3-3l6.7-6.7l-2.1-2.1l-9,9l6.7,6.7l8.2-8.2l-1.6-1.6L91.5,114.2z M109.6,93.3c-1.1-1-2.5-1.5-4-1.4
		c-1.7,0.1-3.4,0.9-4.8,2.3c-1.5,1.5-2.4,3.4-2.4,5.1c0,1.3,0.4,2.6,1.4,3.6c1.5,1.5,3.2,1.8,4.8,1.3l7.3-7.3
		c-1.4-0.1-2.9,0.4-4.1,1.3c-0.9,0.7-2.1,1.8-3.1,2.4c-0.9,0.6-1.8,0.7-2.7-0.1c-0.5-0.5-0.6-0.9-0.6-1.5c0-1.1,0.6-2,1.4-2.8
		c0.7-0.7,1.8-1.3,2.6-1.3c0.6,0,1.3,0.3,1.8,0.7L109.6,93.3z M116.3,83.6l3.8-3.8l-2.1-2.1l-9.8,9.8l2.2,2.1l3.8-3.8l4.5,4.5
		l2.3-2.3L116.3,83.6z M130.1,78.8l-6.7-6.7l-2.3,2.3l6.7,6.7L130.1,78.8z M137.8,71.1l-8.8-4.6l-2.5,2.5l8.9,4.5L137.8,71.1z
		 M142,66.9l-4.5-8.9l-2.3,2.3l4.6,8.8L142,66.9z M154.5,54.4l-9-4.3l-2.5,2.5l4.3,9l2.3-2.3l-2.5-5.1l5.1,2.5L154.5,54.4z
		 M162,46.9l-6.7-6.7l-2.3,2.3l6.7,6.7L162,46.9z"/>
	<path class="st3" d="M159.7,49.2l6,6l8.2-8.2l-2.2-2.2l-5.9,5.9l-3.8-3.8L159.7,49.2z M147.3,61.7l3.9,8.1l2.3-2.3l-1.6-3.3
		l5.1-5.1l3.3,1.6l2.4-2.4l-8.1-3.9l-2.4,2.4l2,1l-3.6,3.6l-1-2L147.3,61.7z M135.4,73.5l8,4L146,75l-4-8l-2.2,2.2l2.1,4l-4-2.1
		L135.4,73.5z M127.8,81.1l6,6l2.3-2.3l-6-6L127.8,81.1z M118.5,90.4l6,6l2.3-2.3l-6-6L118.5,90.4z M104.6,108.3
		c1.2,1.2,2.8,1.7,4.3,1.6c2-0.1,3.8-1.1,5.1-2.5c1.6-1.6,2.7-3.4,2.7-5.4c0-1.3-0.4-2.5-1.6-3.7c-0.9-0.9-2-1.4-3-1.5l-7.3,7.3
		c0.7-0.2,1.3-0.5,1.9-1c1-0.7,2.1-1.8,3.2-2.5c0.9-0.6,2.1-0.9,3,0c0.6,0.6,0.7,1.1,0.7,1.7c0,1-0.6,2-1.5,2.9
		c-0.7,0.7-1.7,1.5-2.8,1.5c-0.8,0-1.6-0.3-2.2-0.9L104.6,108.3z M90.8,118.1l6,6l9-9l-2.1-2.1l-6.7,6.7l-3.5-3.5l5.9-5.9l-0.5-0.5
		L90.8,118.1z M78.6,130.3l6,6L87,134l-5.1-5.1l5.8-5.8l-0.9-0.9L78.6,130.3z M61.4,151.5c1.2,1.2,2.8,1.7,4.3,1.6
		c2-0.1,3.8-1.1,5.1-2.5c1.6-1.6,2.7-3.4,2.7-5.4c0-1.3-0.4-2.5-1.6-3.7c-0.9-0.9-2-1.4-3-1.5l-7.3,7.3c0.7-0.2,1.3-0.5,1.9-1
		c1-0.7,2.1-1.8,3.2-2.5c0.9-0.6,2.1-0.9,3,0c0.6,0.6,0.7,1.1,0.7,1.7c0,1-0.6,2-1.5,2.9c-0.7,0.7-1.7,1.5-2.8,1.5
		c-0.8,0-1.6-0.3-2.2-0.9L61.4,151.5z M48,160.9l3.9,8.1l2.3-2.3l-1.6-3.3l5.1-5.1l3.3,1.6l2.4-2.4l-8.1-3.9l-2.4,2.4l2,1l-3.6,3.6
		l-1-2L48,160.9z M33.7,175.2l6,6l4.9-4.9c1.5-1.5,2.2-3.2,2.2-4.9c0-2.5-1.5-4.5-3.2-6.1l-2.3,2.3c1.1,1.1,2.3,2.5,2.3,4.1
		c0,0.9-0.3,1.8-1.1,2.5l-2.6,2.6l-3.9-3.9L33.7,175.2z"/>
</g>
</svg>
