<?xml version="1.0" encoding="utf-8"?>
<!-- Generator: Adobe Illustrator 16.0.0, SVG Export Plug-In . SVG Version: 6.00 Build 0)  -->
<!DOCTYPE svg PUBLIC "-//W3C//DTD SVG 1.1//EN" "http://www.w3.org/Graphics/SVG/1.1/DTD/svg11.dtd">
<svg version="1.1" id="Ebene_1" xmlns="http://www.w3.org/2000/svg" xmlns:xlink="http://www.w3.org/1999/xlink" x="0px" y="0px"
	 width="612px" height="612px" viewBox="0 0 612 612" enable-background="new 0 0 612 612" xml:space="preserve">
<polygon fill="#FBE27C" points="0,0 0,612 612,612 "/>
<polygon fill="#25B3C4" points="0,0 612,612 612,0 "/>
<g>
	<g>
		<defs>
			<rect id="SVGID_1_" x="0" width="612" height="612"/>
		</defs>
		<clipPath id="SVGID_2_">
			<use xlink:href="#SVGID_1_"  overflow="visible"/>
		</clipPath>
		<path clip-path="url(#SVGID_2_)" fill="#FFFFFF" d="M259.944,260.064l33.155,33.156C290.326,272,279.837,260.908,259.944,260.064
			 M336.865,258.376h-23.632v54.979l23.632,23.631V258.376z M456.588,444.291h-12.177v0.241l12.177,12.177V444.291z
			 M175.425,142.631l21.823-43.525h-19.532l-19.531,45.574c-0.724,1.567-1.567,4.461-2.653,8.319V98.986h-19.652v36.773
			l26.887,26.887l0.121-0.241l0.12,0.362l25.922,25.922L175.425,142.631z M226.666,226.667h42.44V208.22h-30.504V98.986h-19.532
			V218.95L226.666,226.667z M302.503,145.163v-13.021c0-10.007,2.652-14.95,10.489-14.95c7.596,0,10.248,4.943,10.248,14.95v13.021
			H302.503z M347.836,189.773v-9.525h-24.475v8.802c0,11.815-0.724,17.844-10.489,17.844c-8.319,0-10.248-5.908-10.248-17.844
			v-23.993h45.333v-32.553c0-24.716-12.539-37.497-33.759-37.497c-20.858,0-36.05,14.951-36.05,37.497v57.27
			c0,25.199,13.504,39.426,34.241,39.426C335.78,229.199,347.836,215.936,347.836,189.773 M384.49,258.376h-23.632v102.603
			l22.426,22.426c0.724-3.858,1.206-8.078,1.206-12.659V258.376z M364.596,226.667h20.014V98.986h-20.014V226.667z M475.638,258.376
			h-71.496v21.702h23.992v128.404h23.149V279.958h24.234v-21.582H475.638z M457.673,226.667h18.447V98.986h-18.447v72.702
			c0,2.17,0.482,8.078,2.171,17.121c-1.93-7.958-3.376-12.418-3.738-13.504l-24.957-76.319h-17.724v127.681h18.206v-66.673
			c0-2.653-0.724-8.681-2.17-17.724c1.446,6.149,3.014,10.61,4.099,13.865L457.673,226.667z"/>
	</g>
	<g>
		<defs>
			<rect id="SVGID_3_" x="0" width="612" height="612"/>
		</defs>
		<clipPath id="SVGID_4_">
			<use xlink:href="#SVGID_3_"  overflow="visible"/>
		</clipPath>
		<path clip-path="url(#SVGID_4_)" fill="#1D1D1B" d="M218.95,226.667h7.716l-7.716-7.716V226.667z M179.405,226.667h20.376
			l-10.972-37.858l-25.922-25.922L179.405,226.667z M444.411,444.532v79.333h31.227v-11.454h-19.05v-55.702L444.411,444.532z
			 M404.624,503.369c0-8.561,3.857-13.384,13.503-19.652v20.014c-2.17,4.582-5.907,7.113-9.042,7.113
			C406.312,510.965,404.624,508.313,404.624,503.369 M389.794,507.106c0,11.092,4.702,17.12,12.659,17.12
			c5.546,0,11.454-3.255,16.156-9.766c0.121,3.376,0.482,6.39,1.326,8.802h14.468c-0.723-3.256-1.326-10.73-1.326-22.185v-33.035
			c0-16.036-5.907-24.234-19.29-24.234c-12.178,0-21.702,8.922-21.702,22.185c0,0.724,0.12,1.326,0.12,2.05h14.589v-4.341
			c0-3.858,2.411-6.511,6.511-6.511c3.255,0,4.943,2.532,4.943,7.113v8.319C398.716,482.993,389.794,491.313,389.794,507.106
			 M355.192,444.291h-11.937l14.227,79.574h12.901l14.106-79.574h-12.057l-7.114,47.142c-0.603,3.979-1.085,9.887-1.326,18.085
			v-1.446c0-6.873-0.724-12.298-1.326-16.519L355.192,444.291z M330.596,444.291h-12.539v79.574h12.539V444.291z M313.234,313.234
			V369.9c0,27.489,12.78,41.717,35.688,41.717c18.567,0,30.744-9.887,34.361-28.334l-22.426-22.425v13.744
			c0,9.163-4.702,14.228-11.695,14.228c-6.992,0-12.298-5.064-12.298-14.228v-37.737L313.234,313.234z M306.844,444.291h-37.858
			v11.454h12.78v68.12h12.298v-68.12h12.9v-11.454H306.844z M234.142,501.802l-11.695,1.809
			c0.604,13.985,8.319,21.942,20.256,21.942c10.972,0,19.05-8.077,19.05-19.894c0-11.092-5.306-17-13.745-25.198
			c-6.993-6.752-12.298-11.574-12.298-18.809c0-4.461,2.652-7.354,6.511-7.354c4.461,0,6.27,3.015,6.752,9.887l11.936-1.688
			c-0.844-12.418-8.198-19.772-18.326-19.772c-10.368,0-19.05,8.439-19.05,19.894c0,10.489,6.27,17,15.192,25.922
			c6.51,6.511,11.092,10.61,11.092,17.241c0,4.581-3.015,7.716-7.596,7.716C237.156,513.737,234.624,509.879,234.142,501.802
			 M240.411,372.313c0-16.277,7.234-25.199,25.561-37.015v37.858c-4.22,8.681-11.213,13.503-17.121,13.503
			C243.425,386.659,240.411,381.596,240.411,372.313 M212.32,379.426c0,20.979,8.922,32.191,23.872,32.191
			c10.368,0,21.581-6.149,30.503-18.447c0.241,6.391,0.845,12.057,2.532,16.518h27.248c-1.446-6.148-2.531-20.135-2.531-41.716
			v-62.213c0-4.461-0.241-8.681-0.724-12.418l-33.156-33.156c-0.844,0-1.688-0.121-2.532-0.121
			c-23.028,0-40.992,16.879-40.992,41.716c0,1.447,0.241,2.532,0.241,3.979h27.489v-8.078c0-7.234,4.461-12.298,12.298-12.298
			c6.148,0,9.283,4.823,9.283,13.504v15.674C229.198,333.972,212.32,349.646,212.32,379.426 M189.05,465.993
			c0-6.27,1.688-9.284,6.51-9.284c4.702,0,6.391,3.015,6.391,9.284v8.078h-13.021v-8.078H189.05z M173.738,466.113v35.688
			c0,15.674,8.439,24.596,21.341,24.596c14.709,0,22.184-8.199,22.184-24.596v-5.908H201.95v5.546
			c0,7.354-0.482,11.093-6.511,11.093c-5.185,0-6.39-3.617-6.39-11.093v-14.95h28.212v-20.376c0-15.433-7.837-23.39-21.099-23.39
			C183.262,442.724,173.738,452.007,173.738,466.113 M167.829,444.291h-31.95v79.574h12.298v-35.688h14.228v-11.454h-14.228v-20.979
			h19.773v-11.454H167.829z M158.787,258.376h-22.908v150.106h58.958V386.78h-35.93V258.376H158.787z M135.759,135.879v90.787
			h19.772v-49.673l7.114-14.227L135.759,135.879z"/>
	</g>
	<g>
		<defs>
			<rect id="SVGID_5_" x="0" width="612" height="612"/>
		</defs>
		<clipPath id="SVGID_6_">
			<use xlink:href="#SVGID_5_"  overflow="visible"/>
		</clipPath>
	</g>
	<g>
		<defs>
			<rect id="SVGID_7_" x="0" width="612" height="612"/>
		</defs>
		<clipPath id="SVGID_8_">
			<use xlink:href="#SVGID_7_"  overflow="visible"/>
		</clipPath>
		<path clip-path="url(#SVGID_8_)" fill="#1D1D1B" d="M476.482,566.787v-10.248h-7.837v2.894h4.461c0,1.446-0.24,2.652-1.205,3.617
			c-0.603,0.603-1.567,1.085-2.773,1.085c-1.085,0-2.291-0.361-3.014-1.206c-1.326-1.326-1.447-3.737-1.447-5.546
			s0.121-4.1,1.447-5.426c0.723-0.844,2.05-1.326,3.135-1.326c1.326,0,2.29,0.362,3.014,1.085c0.362,0.482,0.724,0.965,0.844,1.688
			h3.497c-0.121-1.688-0.844-2.894-1.688-3.737c-1.326-1.327-3.255-2.171-5.546-2.171c-2.05,0-4.22,0.724-5.546,2.171
			c-2.05,2.049-2.411,4.461-2.411,7.596s0.482,5.546,2.411,7.596c1.447,1.567,3.376,2.17,5.546,2.05c2.411,0,4.22-1.327,4.702-2.412
			l0.362,2.05h2.049V566.787z M451.766,566.787v-10.248h-7.837v2.894h4.461c0,1.446-0.241,2.652-1.206,3.617
			c-0.603,0.603-1.567,1.085-2.772,1.085c-1.085,0-2.291-0.361-3.015-1.206c-1.326-1.326-1.446-3.737-1.446-5.546
			s0.12-4.1,1.446-5.426c0.724-0.844,1.93-1.326,3.135-1.326c1.326,0,2.291,0.362,3.015,1.085c0.361,0.482,0.724,0.965,0.844,1.688
			h3.496c-0.12-1.688-0.844-2.894-1.688-3.737c-1.326-1.327-3.256-2.171-5.546-2.171c-2.05,0-4.22,0.724-5.547,2.171
			c-2.049,2.049-2.411,4.461-2.411,7.596s0.482,5.546,2.411,7.596c1.447,1.567,3.376,2.17,5.547,2.05
			c2.411,0,4.22-1.327,4.702-2.412l0.361,2.05h2.05V566.787z M426.929,559.553v-11.574h-3.376v11.574
			c0,2.653-1.206,4.461-3.979,4.461c-2.773,0-3.979-1.808-3.979-4.461v-11.574h-3.376v11.574c0,4.461,2.531,7.596,7.354,7.596
			C424.397,567.148,426.929,564.014,426.929,559.553 M399.681,553.766c0,1.809-1.085,2.773-3.015,2.773h-4.581v-5.667h4.461
			C398.475,550.872,399.681,552.198,399.681,553.766 M403.057,566.787l-3.497-7.716c2.05-0.724,3.497-2.773,3.497-5.306
			c0-3.014-2.05-5.787-6.511-5.787h-7.958v18.809h3.497v-7.113h4.22l3.135,7.113H403.057z M375.326,561.241
			c0,1.929-1.688,2.532-3.376,2.532h-4.22v-5.185h4.34C373.879,558.468,375.326,559.191,375.326,561.241 M374.964,553.283
			c0,1.809-1.326,2.291-2.894,2.291h-4.34v-4.702h4.22C373.518,550.872,374.964,551.476,374.964,553.283 M378.823,561.241
			c0-1.809-0.965-3.376-2.652-4.22c1.567-0.724,2.291-2.411,2.291-3.979s-0.845-3.135-2.171-4.1
			c-1.326-0.844-2.894-1.085-4.34-1.085h-7.476v18.809h7.476c1.809,0,3.496-0.121,5.063-1.326
			C378.22,564.496,378.823,562.929,378.823,561.241 M342.894,566.426v-3.858h-4.1v4.1h1.929c0,1.446-0.241,2.29-1.809,3.014
			l0.965,1.567C342.17,570.283,342.894,568.717,342.894,566.426 M328.064,566.787v-18.809h-3.376v12.66l-8.078-12.78h-3.617v18.809
			h3.376v-12.901l8.198,12.901h3.497V566.787z M303.227,566.787v-3.135H293.22v-5.185h8.801v-3.135h-8.801v-4.34h10.007v-3.135
			h-13.383v18.809h13.383V566.787z M280.922,566.787l-6.752-11.695l6.028-7.113h-4.1l-7.475,8.681v-8.681h-3.376v18.809h3.376
			v-5.063l3.255-3.738l5.064,8.923h3.979V566.787z M254.156,547.979h-3.496v18.809h3.496V547.979z M239.688,566.787v-18.809h-3.376
			v12.66l-8.078-12.78h-3.616v18.809h3.375v-12.901l8.199,12.901h3.496V566.787z M213.525,547.979h-3.496v18.809h3.496V547.979z
			 M197.007,553.766c0,1.809-1.085,2.773-3.015,2.773h-4.581v-5.667h4.461C195.801,550.872,197.007,552.198,197.007,553.766
			 M200.383,566.787l-3.496-7.716c2.049-0.724,3.496-2.773,3.496-5.306c0-3.014-2.05-5.787-6.511-5.787h-7.957v18.809h3.496v-7.113
			h4.22l3.135,7.113H200.383z M162.766,566.787v-18.809h-3.376v12.66l-8.078-12.78h-3.617v18.809h3.376v-12.901l8.199,12.901h3.496
			V566.787z M136.724,547.979h-3.497v18.809h3.497V547.979z"/>
	</g>
</g>
<g>
	<path fill="#FFFFFF" d="M147.79,67.925v2.944h-10.1c0.109-1.113,0.438-2.167,0.984-3.164c0.547-0.996,1.627-2.318,3.24-3.964
		c1.299-1.331,2.095-2.233,2.389-2.707c0.396-0.654,0.595-1.301,0.595-1.94c0-0.707-0.173-1.25-0.518-1.63
		c-0.346-0.38-0.822-0.57-1.431-0.57c-0.602,0-1.08,0.199-1.436,0.598c-0.355,0.399-0.561,1.061-0.615,1.985l-2.871-0.316
		c0.171-1.744,0.708-2.996,1.61-3.756c0.902-0.759,2.03-1.139,3.384-1.139c1.483,0,2.649,0.44,3.497,1.32
		c0.848,0.879,1.271,1.974,1.271,3.282c0,0.744-0.122,1.453-0.364,2.126s-0.627,1.378-1.153,2.115
		c-0.349,0.489-0.978,1.192-1.887,2.109s-1.485,1.526-1.728,1.827c-0.243,0.301-0.439,0.594-0.59,0.88H147.79z"/>
	<path fill="#FFFFFF" d="M158.558,57.503v-2.944h9.854v2.301c-0.813,0.88-1.641,2.143-2.481,3.79
		c-0.841,1.647-1.481,3.397-1.923,5.25c-0.44,1.854-0.658,3.51-0.651,4.969h-2.779c0.048-2.286,0.477-4.617,1.287-6.993
		c0.81-2.376,1.892-4.5,3.245-6.373H158.558z"/>
	<path fill="#FFFFFF" d="M179.673,70.869V67.7h2.881v3.169H179.673z"/>
	<path fill="#FFFFFF" d="M208.654,66.459V63.29h5.66v3.169H208.654z"/>
	<path fill="#FFFFFF" d="M248.565,67.925v2.944h-10.1c0.109-1.113,0.438-2.167,0.984-3.164c0.547-0.996,1.627-2.318,3.24-3.964
		c1.299-1.331,2.095-2.233,2.389-2.707c0.396-0.654,0.595-1.301,0.595-1.94c0-0.707-0.173-1.25-0.518-1.63
		c-0.346-0.38-0.822-0.57-1.431-0.57c-0.602,0-1.08,0.199-1.436,0.598c-0.355,0.399-0.561,1.061-0.615,1.985l-2.871-0.316
		c0.171-1.744,0.708-2.996,1.61-3.756c0.902-0.759,2.03-1.139,3.384-1.139c1.483,0,2.649,0.44,3.497,1.32
		c0.848,0.879,1.271,1.974,1.271,3.282c0,0.744-0.122,1.453-0.364,2.126s-0.627,1.378-1.153,2.115
		c-0.349,0.489-0.978,1.192-1.887,2.109s-1.485,1.526-1.728,1.827c-0.243,0.301-0.439,0.594-0.59,0.88H248.565z"/>
	<path fill="#FFFFFF" d="M261.805,61.947c-0.745-0.346-1.287-0.821-1.625-1.427c-0.339-0.605-0.508-1.269-0.508-1.991
		c0-1.233,0.391-2.252,1.174-3.057c0.783-0.804,1.896-1.207,3.338-1.207c1.429,0,2.538,0.402,3.327,1.207
		c0.79,0.805,1.185,1.824,1.185,3.057c0,0.767-0.181,1.449-0.543,2.047c-0.362,0.598-0.872,1.055-1.528,1.371
		c0.834,0.369,1.468,0.906,1.902,1.613c0.434,0.707,0.651,1.523,0.651,2.448c0,1.526-0.443,2.767-1.328,3.722
		c-0.886,0.955-2.063,1.433-3.533,1.433c-1.367,0-2.505-0.395-3.415-1.185c-1.073-0.932-1.61-2.21-1.61-3.835
		c0-0.895,0.202-1.716,0.605-2.464S260.937,62.354,261.805,61.947z M262.133,65.838c0,0.873,0.203,1.553,0.61,2.042
		c0.406,0.489,0.914,0.733,1.522,0.733c0.595,0,1.087-0.235,1.477-0.705c0.39-0.47,0.584-1.148,0.584-2.036
		c0-0.774-0.198-1.397-0.595-1.867c-0.396-0.47-0.899-0.705-1.507-0.705c-0.704,0-1.229,0.267-1.574,0.801
		C262.305,64.636,262.133,65.214,262.133,65.838z M262.4,58.755c0,0.631,0.162,1.124,0.487,1.478c0.324,0.354,0.757,0.53,1.297,0.53
		c0.547,0,0.984-0.178,1.313-0.536c0.328-0.357,0.492-0.852,0.492-1.483c0-0.594-0.163-1.07-0.487-1.427
		c-0.325-0.357-0.753-0.536-1.287-0.536c-0.554,0-0.995,0.181-1.323,0.542S262.4,58.161,262.4,58.755z"/>
	<path fill="#FFFFFF" d="M280.448,70.869V67.7h2.881v3.169H280.448z"/>
	<path fill="#FFFFFF" d="M315.201,54.333h3.025v10.467c0,1.369-0.109,2.421-0.328,3.158c-0.295,0.963-0.828,1.735-1.6,2.318
		c-0.773,0.583-1.791,0.875-3.055,0.875c-1.484,0-2.626-0.457-3.426-1.371s-1.203-2.254-1.21-4.021l2.86-0.361
		c0.035,0.948,0.161,1.617,0.38,2.008c0.328,0.594,0.827,0.891,1.497,0.891c0.678,0,1.154-0.212,1.436-0.637
		c0.279-0.425,0.42-1.307,0.42-2.645V54.333z"/>
	<path fill="#FFFFFF" d="M330.256,54.333h3.035v8.956c0,1.421,0.037,2.342,0.112,2.763c0.13,0.677,0.439,1.22,0.928,1.63
		c0.489,0.41,1.157,0.615,2.005,0.615c0.861,0,1.511-0.193,1.948-0.581s0.7-0.863,0.79-1.427c0.088-0.564,0.133-1.5,0.133-2.808
		v-9.148h3.035v8.685c0,1.985-0.082,3.388-0.246,4.208c-0.164,0.819-0.467,1.511-0.907,2.075c-0.441,0.564-1.03,1.013-1.769,1.348
		c-0.738,0.334-1.703,0.502-2.893,0.502c-1.436,0-2.523-0.183-3.266-0.547c-0.741-0.365-1.328-0.838-1.758-1.421
		c-0.432-0.583-0.715-1.194-0.852-1.833c-0.198-0.948-0.297-2.346-0.297-4.196V54.333z"/>
	<path fill="#FFFFFF" d="M354.344,70.869v-16.4h3.035v13.614h7.547v2.786H354.344z"/>
	<path fill="#FFFFFF" d="M375.818,70.869V54.333h3.035v16.536H375.818z"/>
	<path fill="#FFFFFF" d="M414.314,67.925v2.944h-10.1c0.108-1.113,0.437-2.167,0.984-3.164c0.546-0.996,1.626-2.318,3.24-3.964
		c1.298-1.331,2.095-2.233,2.389-2.707c0.396-0.654,0.595-1.301,0.595-1.94c0-0.707-0.173-1.25-0.518-1.63
		c-0.346-0.38-0.822-0.57-1.431-0.57c-0.602,0-1.08,0.199-1.436,0.598c-0.355,0.399-0.561,1.061-0.615,1.985l-2.871-0.316
		c0.171-1.744,0.707-2.996,1.609-3.756c0.902-0.759,2.031-1.139,3.385-1.139c1.482,0,2.648,0.44,3.496,1.32
		c0.848,0.879,1.271,1.974,1.271,3.282c0,0.744-0.121,1.453-0.364,2.126c-0.242,0.673-0.627,1.378-1.153,2.115
		c-0.349,0.489-0.978,1.192-1.887,2.109s-1.485,1.526-1.728,1.827c-0.243,0.301-0.439,0.594-0.59,0.88H414.314z"/>
	<path fill="#FFFFFF" d="M429.952,54.266c1.456,0,2.595,0.571,3.415,1.714c0.977,1.354,1.466,3.598,1.466,6.734
		c0,3.128-0.492,5.376-1.477,6.745c-0.813,1.128-1.948,1.692-3.404,1.692c-1.463,0-2.643-0.619-3.538-1.855
		c-0.896-1.237-1.343-3.442-1.343-6.616c0-3.113,0.492-5.354,1.477-6.722C427.362,54.83,428.496,54.266,429.952,54.266z
		 M429.952,56.894c-0.349,0-0.66,0.123-0.933,0.367c-0.274,0.244-0.486,0.682-0.637,1.314c-0.198,0.82-0.297,2.2-0.297,4.14
		s0.089,3.273,0.267,3.999s0.401,1.208,0.672,1.449c0.27,0.241,0.579,0.361,0.928,0.361s0.659-0.122,0.933-0.367
		c0.273-0.244,0.485-0.682,0.637-1.314c0.197-0.812,0.297-2.188,0.297-4.128s-0.089-3.273-0.267-3.999s-0.401-1.211-0.672-1.455
		C430.611,57.017,430.301,56.894,429.952,56.894z"/>
	<path fill="#FFFFFF" d="M452.954,70.869h-2.882V58.924c-1.053,1.083-2.293,1.884-3.722,2.402v-2.876
		c0.752-0.271,1.569-0.784,2.45-1.54c0.883-0.756,1.487-1.637,1.815-2.645h2.338V70.869z"/>
	<path fill="#FFFFFF" d="M468.552,61.947c-0.745-0.346-1.287-0.821-1.625-1.427c-0.339-0.605-0.508-1.269-0.508-1.991
		c0-1.233,0.392-2.252,1.174-3.057c0.783-0.804,1.896-1.207,3.338-1.207c1.429,0,2.538,0.402,3.327,1.207
		c0.79,0.805,1.185,1.824,1.185,3.057c0,0.767-0.182,1.449-0.543,2.047c-0.363,0.598-0.872,1.055-1.528,1.371
		c0.834,0.369,1.468,0.906,1.902,1.613c0.434,0.707,0.651,1.523,0.651,2.448c0,1.526-0.443,2.767-1.328,3.722
		c-0.886,0.955-2.063,1.433-3.533,1.433c-1.367,0-2.505-0.395-3.414-1.185c-1.073-0.932-1.609-2.21-1.609-3.835
		c0-0.895,0.201-1.716,0.604-2.464S467.684,62.354,468.552,61.947z M468.88,65.838c0,0.873,0.203,1.553,0.61,2.042
		c0.406,0.489,0.914,0.733,1.522,0.733c0.595,0,1.087-0.235,1.477-0.705c0.39-0.47,0.584-1.148,0.584-2.036
		c0-0.774-0.198-1.397-0.594-1.867c-0.397-0.47-0.899-0.705-1.508-0.705c-0.704,0-1.229,0.267-1.574,0.801
		C469.053,64.636,468.88,65.214,468.88,65.838z M469.147,58.755c0,0.631,0.162,1.124,0.487,1.478c0.324,0.354,0.757,0.53,1.297,0.53
		c0.547,0,0.984-0.178,1.313-0.536c0.328-0.357,0.492-0.852,0.492-1.483c0-0.594-0.162-1.07-0.487-1.427
		c-0.324-0.357-0.753-0.536-1.286-0.536c-0.555,0-0.995,0.181-1.323,0.542S469.147,58.161,469.147,58.755z"/>
</g>
</svg>
