<?xml version="1.0" encoding="utf-8"?>
<!-- Generator: Adobe Illustrator 15.1.0, SVG Export Plug-In . SVG Version: 6.00 Build 0)  -->
<!DOCTYPE svg PUBLIC "-//W3C//DTD SVG 1.1//EN" "http://www.w3.org/Graphics/SVG/1.1/DTD/svg11.dtd">
<svg version="1.1" id="Ebene_1" xmlns="http://www.w3.org/2000/svg" xmlns:xlink="http://www.w3.org/1999/xlink" x="0px" y="0px"
	 viewBox="0 332.445 595.279 177" enable-background="new 0 332.445 595.279 177"
	 xml:space="preserve">
<g>
	<g>
		<defs>
			<rect id="SVGID_1_" x="0" y="336.932" width="595.279" height="168.027"/>
		</defs>
		<clipPath id="SVGID_2_">
			<use xlink:href="#SVGID_1_"  overflow="visible"/>
		</clipPath>
		<path clip-path="url(#SVGID_2_)" fill="#F0F2DC" d="M16.581,437.526c9.396,0,16.582-7.185,16.582-16.581
			s-7.186-16.582-16.582-16.582C7.186,404.363,0,411.549,0,420.945C0,429.789,7.186,437.526,16.581,437.526 M578.698,437.526
			c9.396,0,16.581-7.185,16.581-16.581s-7.185-16.582-16.581-16.582s-16.582,7.186-16.582,16.582
			C562.116,429.789,569.302,437.526,578.698,437.526 M413.435,437.526c9.396,0,16.582-7.185,16.582-16.581
			s-7.186-16.582-16.582-16.582s-16.581,7.186-16.581,16.582C396.854,429.789,404.038,437.526,413.435,437.526 M180.74,437.526
			c9.396,0,16.582-7.185,16.582-16.581s-7.186-16.582-16.582-16.582s-16.581,7.186-16.581,16.582
			C164.158,429.789,171.896,437.526,180.74,437.526 M82.356,437.526c9.396,0,16.581-7.185,16.581-16.581
			s-7.186-16.582-16.581-16.582c-9.396,0-16.582,7.186-16.582,16.582C65.774,429.789,72.959,437.526,82.356,437.526 M82.356,503.301
			h11.054v-23.768l19.898,23.768h15.476l-23.767-26.531l22.109-23.214h-14.371l-19.346,20.45v-20.45H82.356V503.301z
			 M175.765,454.108h-11.054v29.847c0,6.08-4.422,10.502-9.949,10.502c-6.08,0-9.949-4.422-9.949-10.502v-29.847h-11.055v30.399
			c0,11.607,7.186,20.451,21.004,20.451c13.817,0,21.003-8.844,21.003-20.451V454.108z M187.925,503.301h11.055v-19.898h5.527
			l10.501,19.898h13.266l-12.713-21.004c7.186-1.105,10.502-6.633,10.502-13.817c0-11.607-8.291-14.924-18.792-14.924h-19.346
			V503.301z M198.98,462.952h7.186c3.868,0,8.29,0.553,8.29,5.527c0,5.526-4.975,5.526-9.396,5.526h-6.08V462.952z M233.248,503.301
			h12.16l3.868-10.502h19.346l4.422,10.502h12.16l-21.557-49.745h-8.844L233.248,503.301z M265.306,483.955h-12.16l6.08-15.476
			L265.306,483.955z M296.811,503.301h11.055v-39.796h14.37v-9.396h-39.242v9.396h14.37v39.796H296.811z M328.316,478.428
			c0,16.029,11.055,25.979,26.531,25.979c15.476,0,26.53-9.949,26.53-25.979c0-16.028-11.055-25.978-26.53-25.978
			C339.37,452.45,328.316,462.952,328.316,478.428 M339.37,478.428c0-9.396,6.08-16.028,15.477-16.028
			c9.396,0,15.476,6.633,15.476,16.028c0,9.396-6.08,16.029-15.476,16.029C345.45,494.457,339.37,487.824,339.37,478.428
			 M392.432,503.301h11.054v-19.898h5.527l10.502,19.898h13.266l-12.713-21.004c7.186-1.105,10.502-6.633,10.502-13.817
			c0-11.607-8.291-14.924-18.793-14.924h-19.345V503.301z M403.486,462.952h7.186c3.869,0,8.291,0.553,8.291,5.527
			c0,5.526-4.975,5.526-9.396,5.526h-6.08V462.952z M442.729,503.301h11.055v-49.745h-11.055V503.301z M509.609,454.108h-11.055
			v29.847c0,6.08-4.422,10.502-9.949,10.502c-6.08,0-9.949-4.422-9.949-10.502v-29.847h-11.054v30.399
			c0,11.607,7.186,20.451,21.003,20.451c13.818,0,21.004-8.844,21.004-20.451V454.108z M522.873,503.301h11.055v-38.138l0,0
			l12.713,38.138h8.291l13.265-38.138l0,0v38.138h11.055v-49.745h-16.582l-12.159,32.61l0,0l-11.607-32.058h-16.582v49.192H522.873z
			 M80.145,387.782h12.159l3.869-10.501h19.346l4.422,10.501H132.1l-21.556-49.745H101.7L80.145,387.782z M111.65,367.884H99.49
			l6.08-15.476L111.65,367.884z M137.627,387.782h12.16l3.869-10.501h19.345l4.422,10.501h12.16l-21.556-49.745h-8.844
			L137.627,387.782z M169.685,367.884h-12.159l6.08-15.476L169.685,367.884z M197.874,387.782h11.054v-19.898h5.527l10.502,19.898
			h12.713l-12.713-21.003c7.186-1.105,10.502-6.632,10.502-13.818c0-11.607-8.291-14.923-18.793-14.923h-19.345v49.745H197.874z
			 M208.928,347.433h7.186c3.869,0,8.291,0.553,8.291,5.527c0,5.527-4.975,5.527-9.396,5.527h-6.633v-11.055H208.928z
			 M292.389,358.488h-19.345v9.949h8.844v8.291c-2.211,1.105-5.527,2.211-10.502,2.211c-9.396,0-15.477-6.633-15.477-16.029
			c0-9.396,6.08-16.029,15.477-16.029c5.527,0,8.844,1.658,12.16,4.975l7.737-8.291c-4.974-4.974-11.606-6.632-19.897-6.632
			c-15.477,0-26.53,9.949-26.53,25.978c0,16.029,11.054,25.978,26.53,25.978c7.186,0,14.371-1.658,21.003-4.975V358.488
			L292.389,358.488z M298.469,387.782h12.16l3.869-10.501h19.345l4.422,10.501h12.16l-21.557-49.745h-8.844L298.469,387.782z
			 M330.527,367.884h-12.16l6.08-15.476L330.527,367.884z M397.958,338.037h-11.054v29.847c0,6.08-4.422,10.502-9.949,10.502
			c-6.08,0-9.949-4.422-9.949-10.502v-29.847h-11.055v30.399c0,11.607,7.186,20.451,21.004,20.451s21.003-8.843,21.003-20.451
			V338.037z M411.224,387.782h34.821v-9.949h-23.767v-10.502h21.556v-9.949h-21.556v-9.396h22.661v-9.949h-33.716V387.782z
			 M458.205,387.782h11.055v-19.898h5.527l10.501,19.898h13.266l-12.713-21.003c7.186-1.105,10.502-6.632,10.502-13.818
			c0-11.607-8.291-14.923-18.792-14.923h-19.346V387.782z M469.26,347.433h7.186c3.868,0,8.29,0.553,8.29,5.527
			c0,5.527-4.975,5.527-9.396,5.527h-6.633v-11.055H469.26z"/>
	</g>
</g>
</svg>
