<?xml version="1.0" encoding="utf-8"?>
<!-- Generator: Adobe Illustrator 15.1.0, SVG Export Plug-In . SVG Version: 6.00 Build 0)  -->
<!DOCTYPE svg PUBLIC "-//W3C//DTD SVG 1.1//EN" "http://www.w3.org/Graphics/SVG/1.1/DTD/svg11.dtd">
<svg version="1.1" id="Ebene_1" xmlns="http://www.w3.org/2000/svg" xmlns:xlink="http://www.w3.org/1999/xlink" x="0px" y="0px"
	 viewBox="0 374.445 595.279 194" enable-background="new 0 374.445 595.279 194"
	 xml:space="preserve">
<polygon fill="#F0F2DC" points="44.213,530.088 35.533,539.378 35.533,561.938 10.14,561.938 10.14,447.594 35.533,447.594 
	35.533,514 61.089,483.084 90.412,483.084 61.718,514.467 91.201,561.938 62.972,561.938 "/>
<path fill="#F0F2DC" d="M143.712,531.811v-6.313l-13.559,2.207c-9.292,1.755-13.559,5.055-13.559,10.886
	c0,5.522,4.412,9.161,11.046,9.161C137.253,547.751,143.712,541.277,143.712,531.811 M91.054,540.488
	c0-7.407,2.674-13.236,8.036-17.035c5.202-3.623,12.77-6.152,24.751-7.713l19.08-2.689v-2.689c0-8.984-3.767-12.931-11.658-12.931
	c-7.728,0-12.156,4.106-12.609,11.675H93.567c1.273-17.504,15.459-27.906,37.842-27.906c25.393,0,36.76,9.936,36.76,32.641v26.166
	c0,9.324,0.774,17.037,2.207,21.933h-24.605c-0.789-3.785-1.095-8.053-1.271-12.463c-3.928,8.839-14.026,14.347-26.329,14.347
	C101.924,563.822,91.054,554.514,91.054,540.488"/>
<path fill="#F0F2DC" d="M180.634,483.084h24.299v15.135c5.523-11.512,14.186-17.18,26.167-17.18
	c17.019,0,25.699,10.885,25.699,32.012v48.888h-25.232v-45.41c0-10.886-3.769-16.103-11.819-16.103
	c-8.841,0-13.72,6.779-13.72,18.937v42.576h-25.394V483.084z"/>
<path fill="#F0F2DC" d="M318.149,531.811v-6.313l-13.557,2.207c-9.309,1.755-13.576,5.055-13.576,10.886
	c0,5.522,4.428,9.161,11.046,9.161C311.676,547.751,318.149,541.277,318.149,531.811 M265.479,540.488
	c0-7.407,2.689-13.236,8.051-17.035c5.185-3.623,12.753-6.152,24.749-7.713l19.066-2.689v-2.689c0-8.984-3.769-12.931-11.658-12.931
	c-7.729,0-12.143,4.106-12.608,11.675h-25.072c1.257-17.504,15.442-27.906,37.841-27.906c25.396,0,36.748,9.936,36.748,32.641
	v26.166c0,9.324,0.771,17.037,2.204,21.933h-24.588c-0.807-3.785-1.111-8.053-1.271-12.463
	c-3.945,8.839-14.041,14.347-26.344,14.347C276.363,563.822,265.479,554.514,265.479,540.488"/>
<polygon fill="#F0F2DC" points="379.855,561.938 354.461,561.938 354.461,452.715 379.855,448.061 "/>
<polygon fill="#F0F2DC" points="465.021,490.088 464.682,489.557 464.587,489.396 464.715,489.251 465.15,488.801 485.117,467.866 
	485.47,430.943 429.208,492.891 427.793,494.468 427.374,494.919 427.374,494.291 427.374,492.165 427.357,438.914 402.335,443.471 
	402.432,562.163 427.357,562.163 427.357,528.879 427.357,528.541 427.357,528.444 427.422,528.381 427.631,528.154 
	445.571,509.379 446.309,508.606 446.535,508.365 446.697,508.639 447.26,509.589 478.323,562.163 508.836,562.163 "/>
<polyline fill="#F0F2DC" points="589.703,483.454 589.703,473.373 489.513,484.742 489.513,494.822 "/>
<polygon fill="#F0F2DC" points="560.67,538.573 503.572,525.708 503.572,515.659 560.67,528.492 "/>
<polygon fill="#F0F2DC" points="525.229,508.928 581.765,514.516 581.765,504.436 525.229,498.848 "/>
<polygon fill="#F0F2DC" points="547.435,446.08 515.81,457.512 515.81,467.561 547.435,456.144 "/>
<path fill="#F0F2DC" d="M294.611,399.846h-5.316v5.317h5.316V399.846z M294.611,387.442h-5.316v5.316h5.316V387.442z
	 M277.332,393.201c0,2.215,0,5.316-1.771,7.089c-0.886,0.886-2.658,1.772-3.987,1.772s-3.101-0.443-3.988-1.772
	c-1.771-1.772-1.771-4.874-1.771-7.089c0-2.215,0-5.316,1.771-7.088c1.329-1.33,2.658-1.772,3.988-1.772s3.102,0.443,3.987,1.772
	C277.332,387.884,277.332,390.986,277.332,393.201 M281.764,393.201c0-3.987-0.443-7.088-3.102-9.746
	c-1.772-1.772-4.43-2.658-7.088-2.658s-5.316,0.887-7.088,2.658c-2.658,2.658-3.102,5.76-3.102,9.746
	c0,3.987,0.443,7.089,3.102,9.747c1.772,1.772,4.43,2.658,7.088,2.658s5.316-0.887,7.088-2.658
	C281.321,400.29,281.764,397.188,281.764,393.201 M254.74,380.796h-4.431v24.367h4.431V380.796z M238.79,393.201
	c0,2.215,0,5.316-1.772,7.089c-0.886,0.886-2.215,1.329-3.544,1.329H228.6v-16.835h4.874c1.33,0,2.658,0.443,3.544,1.33
	C238.79,387.884,238.79,390.986,238.79,393.201 M243.22,393.201c0-3.543-0.443-7.088-2.658-9.746
	c-1.771-1.772-3.987-2.658-6.646-2.658h-9.303v24.367h9.303c2.658,0,5.316-0.887,6.646-2.658
	C242.777,399.846,243.22,396.302,243.22,393.201 M210.88,396.745h-7.088l3.544-10.189L210.88,396.745z M218.411,405.163
	l-8.417-24.367h-4.874l-8.417,24.367h4.43l1.772-4.874h9.747l1.772,4.874H218.411z M188.285,388.328
	c0,2.215-1.329,3.544-3.986,3.544h-5.76v-7.088h5.76C186.956,384.783,188.285,386.556,188.285,388.328 M192.716,405.163
	l-4.431-10.19c2.659-0.885,4.431-3.543,4.431-6.645c0-3.987-2.658-7.532-8.417-7.532h-10.19v24.367h4.43v-9.304h5.316l3.988,9.304
	H192.716z M168.349,405.163v-3.988h-11.518v-20.379H152.4v24.367H168.349z M139.553,396.745h-7.088l3.544-10.189L139.553,396.745z
	 M147.084,405.163l-8.417-24.367h-4.874l-8.418,24.367h4.43l1.772-4.874h9.747l1.772,4.874H147.084z M123.604,380.796h-4.431
	l-5.759,18.607l-5.76-18.607h-4.873l7.974,24.367h4.873L123.604,380.796z M97.022,380.796h-4.43v24.367h4.43V380.796z
	 M86.833,384.783v-3.987h-19.05v3.987h7.531v20.38h4.43v-20.38H86.833z M64.681,398.074c0-3.987-3.101-6.645-6.645-7.088
	c-1.772,0-3.544-0.444-5.316-0.444c-1.329-0.442-2.658-0.885-2.658-2.658c0-0.886,0.443-1.329,0.886-2.215
	c0.886-0.886,2.658-1.329,3.988-1.329c1.329,0,3.101,0.443,3.544,1.329c0.442,0.443,0.886,1.33,0.886,2.215h4.43
	c0-2.215-0.886-3.987-2.659-5.316c-0.885-1.33-3.543-2.215-6.201-2.215c-2.658,0-5.76,0.885-7.089,2.658
	c-1.329,1.329-2.215,3.101-2.215,4.873c0,3.987,2.658,6.203,6.202,6.645c1.771,0.443,3.544,0.443,5.316,0.443
	c1.329,0.443,3.101,0.886,3.101,3.102c0,1.329-0.444,1.772-0.886,2.215c-0.886,0.886-2.658,1.329-4.43,1.329
	c-1.33,0-3.102-0.443-3.988-1.329c-0.886-0.886-1.329-1.772-1.329-3.101h-4.431c0,2.215,0.887,4.43,2.658,5.759
	c2.215,1.772,4.874,2.658,7.532,2.658c3.102,0,5.759-0.887,7.531-2.658C63.796,402.062,64.681,400.29,64.681,398.074z
	 M40.315,405.163v-3.988H27.468v-6.645h11.518v-3.987H27.468v-5.759h12.847v-3.987H23.037v24.366h17.278V405.163z M16.835,384.783
	v-3.987H0v24.367h4.43v-9.748h11.076v-3.986H4.43v-6.646H16.835z"/>
</svg>
