<?xml version="1.0" encoding="utf-8"?>
<!-- Generator: Adobe Illustrator 15.1.0, SVG Export Plug-In . SVG Version: 6.00 Build 0)  -->
<!DOCTYPE svg PUBLIC "-//W3C//DTD SVG 1.1//EN" "http://www.w3.org/Graphics/SVG/1.1/DTD/svg11.dtd">
<svg version="1.1" id="Ebene_1" xmlns="http://www.w3.org/2000/svg" xmlns:xlink="http://www.w3.org/1999/xlink" x="0px" y="0px"
	 viewBox="0 290.445 595.279 551.445" enable-background="new 0 290.445 595.279 551.445"
	 xml:space="preserve">
<g id="Ebene_1_1_">
	<g>
		<path fill="#F0F2DC" d="M84.354,550.43c5.519-0.424,10.825-0.424,16.025-1.167c8.49-1.38,13.479-6.687,15.389-14.965
			c1.592-6.897,1.486-13.902-0.106-20.801c-1.167-5.519-3.927-9.977-9.339-12.312c-7.11-2.972-14.54-2.547-22.075-2.335
			L84.354,550.43L84.354,550.43z M84.354,623.659c6.687,0.106,13.16,0.213,19.634-1.273c7.429-1.698,11.78-6.262,13.372-13.585
			c1.805-8.065,1.805-16.237-0.212-24.303c-1.38-5.731-4.457-10.401-9.977-13.16c-7.217-3.396-14.964-2.866-22.817-2.76V623.659
			L84.354,623.659z M117.254,559.451c1.592,0.53,3.29,1.062,4.775,1.592c9.021,3.502,14.964,9.87,17.193,19.315
			c3.184,12.735,2.759,25.472-0.955,38.101c-4.14,14.115-14.222,22.075-28.337,24.622c-5.519,1.062-11.144,1.38-16.769,1.485
			c-10.188,0.318-20.589,0.106-30.99,0.106v-165.35c0.531-0.106,0.956-0.212,1.274-0.212c12.629,0.105,25.364,0.105,37.994,0.424
			c6.262,0.213,12.311,1.698,18.042,4.245c8.702,3.821,14.115,10.401,16.769,19.422c3.502,12.312,3.396,24.622-0.106,36.934
			c-2.653,8.914-8.597,14.857-17.087,18.36c-0.53,0.212-1.167,0.424-1.698,0.637C117.36,559.133,117.36,559.238,117.254,559.451"/>
		<path fill="#F0F2DC" d="M412.081,644.673h-20.483c0-1.167,0-2.017,0-3.077c0-24.941,0-49.881-0.212-74.716
			c0-3.184-0.743-6.474-1.485-9.445c-0.638-3.078-2.866-4.882-5.731-5.943c-9.764-3.608-18.997,2.229-19.209,12.63
			c-0.319,17.936-0.319,35.871-0.319,53.913c0,8.809,0,17.724,0,26.745H344.37V533.661h20.059v9.977
			c0.318,0.212,0.425,0.425,0.743,0.53c0.318-0.424,0.425-1.167,0.743-1.485c8.596-11.675,24.728-12.205,34.174-7.96
			c6.897,3.078,10.082,9.127,11.249,16.238c0.531,3.29,0.743,6.58,0.743,9.87c0.106,27.063,0,54.02,0,81.188V644.673
			L412.081,644.673L412.081,644.673z"/>
		<path fill="#F0F2DC" d="M303.936,589.062c-0.318-4.883-0.425-9.87-0.85-14.752c-0.53-5.838-1.485-11.675-4.245-16.981
			c-2.547-4.882-6.474-7.959-12.099-7.959c-5.519,0-9.339,2.865-11.674,7.641c-1.062,2.123-1.91,4.352-2.548,6.58
			c-3.184,13.16-3.077,26.532-1.697,39.799c0.53,5.412,1.91,10.932,3.82,16.025c1.805,4.988,5.625,8.172,11.355,8.49
			c5.838,0.318,9.87-2.547,12.523-7.535c1.062-1.91,1.91-4.032,2.441-6.155C303.405,606.148,303.829,597.552,303.936,589.062
			 M324.206,588.318c0,11.674-0.85,23.03-4.882,34.174c-3.821,10.507-9.977,19.209-21.12,22.499
			c-14.964,4.563-33.219,1.168-42.027-18.254c-5.625-12.417-6.686-25.472-6.686-38.844c0-11.037,1.061-22.075,4.882-32.582
			c3.396-8.809,8.278-16.449,17.087-20.694c14.009-6.475,36.083-5.201,45.953,16.344C322.826,562.953,324.1,575.477,324.206,588.318
			"/>
		<path fill="#F0F2DC" d="M161.934,533.556h20.271c0.105,1.167,0.212,2.122,0.212,3.29c0,24.409,0,48.713,0,73.229
			c0,3.077,0.212,6.155,0.743,9.127c1.167,5.625,4.563,8.702,10.188,9.445c9.445,1.273,15.707-3.82,15.813-13.267
			c0.105-26.107,0.105-52.215,0.105-78.323c0-1.167,0-2.122,0-3.396h20.695c0,0.956,0.106,1.911,0.106,2.653
			c0,24.94,0,49.775,0,74.716c0,6.367-0.531,12.522-2.653,18.572c-2.865,7.96-8.49,13.054-16.45,15.282
			c-9.87,2.76-19.846,2.653-29.716,0.106c-11.568-3.077-16.769-11.568-18.36-22.605c-0.531-4.139-0.85-8.278-0.85-12.523
			c-0.106-24.409,0-48.819,0-73.229L161.934,533.556L161.934,533.556z"/>
		<path fill="#F0F2DC" d="M529.248,564.015c0,137.226-111.224,248.343-248.343,248.343S32.563,701.134,32.563,564.015
			s111.329-248.343,248.449-248.343C418.025,315.671,529.248,426.896,529.248,564.015 M541.877,564.015
			c0-144.124-116.849-261.079-260.972-261.079c-144.124,0-261.078,116.848-261.078,261.079
			c0,144.229,116.848,261.078,261.078,261.078C425.135,825.093,541.877,708.244,541.877,564.015"/>
		<path fill="#F0F2DC" d="M484.568,589.062c-0.318-4.883-0.425-9.87-0.849-14.752c-0.531-5.838-1.486-11.675-4.245-16.981
			c-2.548-4.882-6.475-7.959-12.1-7.959c-5.519,0-9.339,2.865-11.674,7.641c-1.062,2.123-1.91,4.352-2.547,6.58
			c-3.185,13.16-3.078,26.532-1.698,39.799c0.53,5.412,1.91,10.932,3.82,16.025c1.805,4.988,5.625,8.172,11.356,8.49
			c5.837,0.318,9.87-2.547,12.523-7.535c1.061-1.91,1.91-4.032,2.44-6.155C483.931,606.148,484.356,597.552,484.568,589.062
			 M504.733,588.318c0,11.674-0.85,23.03-4.883,34.174c-3.82,10.507-9.976,19.209-21.119,22.499
			c-14.965,4.563-33.219,1.168-42.027-18.254c-5.625-12.417-6.687-25.472-6.687-38.844c0-11.037,1.062-22.075,4.882-32.582
			c3.396-8.809,8.278-16.449,17.087-20.694c14.01-6.475,36.084-5.201,45.954,16.344
			C503.458,562.953,504.626,575.477,504.733,588.318"/>
	</g>
</g>
</svg>
