<?xml version="1.0" encoding="utf-8"?>
<!-- Generator: Adobe Illustrator 15.1.0, SVG Export Plug-In . SVG Version: 6.00 Build 0)  -->
<!DOCTYPE svg PUBLIC "-//W3C//DTD SVG 1.1//EN" "http://www.w3.org/Graphics/SVG/1.1/DTD/svg11.dtd">
<svg version="1.1" id="Ebene_1" xmlns="http://www.w3.org/2000/svg" xmlns:xlink="http://www.w3.org/1999/xlink" x="0px" y="0px"
	 viewBox="31.241 107.299 480.032 245.127"
	 enable-background="new 31.241 107.299 480.032 245.127" xml:space="preserve">
<g>
	<path fill="#F0F2DC" d="M31.241,133.956c0-3.809,0.602-7.216,2.005-10.423s3.207-6.213,5.813-8.418
		c2.605-2.605,5.411-4.409,8.618-5.813s6.814-2.004,10.623-2.004s7.416,0.601,10.623,2.004s6.213,3.207,8.618,5.813
		c2.605,2.605,4.41,5.412,5.813,8.418c1.403,3.207,2.205,6.814,2.205,10.423c0,3.808-0.802,7.215-2.205,10.422
		c-1.402,3.207-3.407,6.214-5.813,8.418c-2.405,2.606-5.411,4.41-8.618,5.813c-3.207,1.403-6.814,2.005-10.623,2.005
		s-7.416-0.602-10.623-2.005c-3.207-1.402-6.213-3.206-8.618-5.813c-2.605-2.605-4.409-5.411-5.813-8.418
		C31.843,141.171,31.241,137.563,31.241,133.956"/>
	<path fill="#F0F2DC" d="M34.85,181.458h24.653c6.413,0,12.025,2.205,16.435,6.414c4.61,4.209,6.815,9.42,6.815,15.433v149.121
		H35.05L34.85,181.458L34.85,181.458z"/>
	<path fill="#F0F2DC" d="M166.934,312.54h53.916c12.025,0,21.245-2.405,27.659-7.016c6.013-4.209,9.02-11.625,9.02-21.847
		s-3.007-17.838-9.02-22.448c-5.411-4.209-15.032-6.414-28.261-6.414h-53.314C166.934,254.615,166.934,312.54,166.934,312.54z
		 M166.934,216.935h52.112c11.224,0,19.241-1.805,24.452-5.813c5.211-4.009,7.616-9.821,7.616-18.039s-2.605-14.03-7.616-18.039
		c-4.209-3.407-12.627-5.211-25.054-5.211h-51.311L166.934,216.935L166.934,216.935L166.934,216.935L166.934,216.935z
		 M123.24,352.226V154.399c0-6.413,2.205-11.825,6.814-16.234c4.61-4.61,9.821-6.814,16.235-6.814h80.975
		c22.849,0,40.086,4.609,52.111,14.03c12.026,10.222,18.039,24.252,18.039,41.689c0,11.224-2.405,20.645-7.015,28.261
		c-4.61,7.215-11.225,13.027-19.843,17.438c11.224,4.609,19.642,11.224,25.655,19.843c5.411,8.218,8.418,18.84,8.418,32.27
		c0,21.245-6.814,38.081-20.645,50.107c-14.03,11.625-34.073,17.438-59.729,17.438H123.24V352.226L123.24,352.226z"/>
	<path fill="#F0F2DC" d="M373.779,312.54h53.916c12.025,0,21.245-2.405,27.659-7.016c6.013-4.209,9.02-11.625,9.02-21.847
		s-3.007-17.838-9.02-22.448c-5.612-4.209-15.032-6.414-28.261-6.414h-53.515L373.779,312.54L373.779,312.54L373.779,312.54z
		 M373.779,216.935h52.112c11.224,0,19.241-1.805,24.452-5.813c5.211-4.009,7.616-9.821,7.616-18.039s-2.405-14.03-7.616-18.039
		c-4.209-3.407-12.627-5.211-25.054-5.211h-51.311L373.779,216.935L373.779,216.935L373.779,216.935L373.779,216.935z
		 M330.084,352.226V154.399c0-6.413,2.205-11.825,6.815-16.234c4.609-4.41,9.82-6.814,16.234-6.814h80.974
		c22.85,0,40.087,4.609,52.112,14.03c12.026,10.222,18.039,24.252,18.039,41.689c0,11.224-2.405,20.645-7.015,28.261
		c-4.61,7.215-11.225,13.027-19.843,17.438c11.224,4.609,19.642,11.224,25.655,19.843c5.411,8.218,8.217,18.84,8.217,32.27
		c0,21.245-6.814,38.081-20.644,50.107c-14.231,11.625-34.073,17.438-59.729,17.438H330.084V352.226L330.084,352.226z"/>
</g>
</svg>
