<?xml version="1.0" encoding="utf-8"?>
<!-- Generator: Adobe Illustrator 15.1.0, SVG Export Plug-In . SVG Version: 6.00 Build 0)  -->
<!DOCTYPE svg PUBLIC "-//W3C//DTD SVG 1.1//EN" "http://www.w3.org/Graphics/SVG/1.1/DTD/svg11.dtd">
<svg version="1.1" id="Ebene_1" xmlns="http://www.w3.org/2000/svg" xmlns:xlink="http://www.w3.org/1999/xlink" x="0px" y="0px"
	 viewBox="0 403.073 595.279 35.744" enable-background="new 0 403.073 595.279 35.744"
	 xml:space="preserve">
<rect x="0" y="403.761" fill="#F0F2DC" width="19.591" height="34.025"/>
<rect x="34.713" y="403.761" fill="#F0F2DC" width="19.591" height="34.025"/>
<rect x="70.801" y="403.761" fill="#F0F2DC" width="19.591" height="34.025"/>
<g>
	<g>
		<defs>
			<rect id="SVGID_1_" x="0" y="403.073" width="595.279" height="35.744"/>
		</defs>
		<clipPath id="SVGID_2_">
			<use xlink:href="#SVGID_1_"  overflow="visible"/>
		</clipPath>
		<path clip-path="url(#SVGID_2_)" fill="#F0F2DC" d="M595.28,438.13v-17.185h-7.904v4.124h2.749v6.187
			c0,1.375-1.03,2.75-2.749,2.75s-2.75-1.375-2.75-2.75v-20.622c0-1.374,1.031-2.749,2.75-2.749s2.749,1.031,2.749,2.749v4.813
			h5.155v-4.469c0-4.468-2.749-7.904-7.904-7.904s-8.249,3.78-8.249,7.904v19.935c0,4.812,2.75,7.905,7.562,7.905
			c2.406,0,4.468-1.031,5.155-3.094l0.688,2.406H595.28z M564.004,426.788h-3.781l2.063-14.092L564.004,426.788z M570.877,438.13
			l-5.843-34.369h-6.187l-5.843,34.369h5.156l1.03-6.874h5.156l1.03,6.874H570.877z M526.885,416.82
			c0,1.719-0.688,2.406-2.063,2.406h-2.75v-10.654h2.75c1.375,0,1.719,0.688,1.719,2.062v6.187H526.885z M533.415,438.474v-1.719
			c-0.688-1.031-1.031-2.062-1.031-3.437v-7.218c0-2.063-1.031-4.124-3.438-4.812c2.063-0.688,3.438-2.406,3.438-4.813v-5.843
			c0-4.812-3.094-6.873-6.874-6.873h-8.937v34.369h5.499v-14.436h2.75c1.375,0,2.063,1.031,2.063,2.406v7.562
			c0,2.749,0.688,4.812,3.093,4.812H533.415z M507.294,438.13v-4.812h-8.249v-10.655h5.843v-4.468h-5.843v-9.623h8.249v-4.812
			h-13.748v34.369H507.294z M483.579,438.13v-34.369h-5.499v15.122h-5.843v-15.122h-5.5v34.369h5.5v-14.436h5.843v14.436H483.579z
			 M457.458,430.912v-5.155h-4.812v5.155c0,1.719-1.031,2.75-2.75,2.75c-2.062,0-2.749-1.031-2.749-2.75v-19.935
			c0-1.718,1.03-2.749,2.749-2.749c2.063,0,2.75,1.031,2.75,2.749v5.156h4.812v-5.156c0-4.468-2.75-7.904-7.905-7.904
			s-8.248,3.437-8.248,8.248v19.247c0,4.812,3.437,8.249,8.248,8.249C454.708,438.817,457.458,435.38,457.458,430.912
			 M431.681,403.761h-5.499v34.369h5.499V403.761z M411.403,417.852c0,1.375-0.687,2.406-1.718,2.406h-2.75v-11.686h2.75
			c1.374,0,1.718,0.688,1.718,2.405V417.852z M416.903,417.508v-6.874c0-4.812-2.75-6.873-6.874-6.873h-8.937v34.369h5.499v-13.748
			h3.438C414.153,424.726,416.903,422.32,416.903,417.508 M392.156,430.225c0-4.468-2.406-7.904-5.843-11.342
			c-3.094-3.437-4.813-5.155-4.813-8.593c0-1.718,1.031-2.749,2.75-2.749s2.749,1.375,2.749,3.093v3.094h4.813v-2.75
			c0-4.812-3.094-7.904-7.562-7.904c-5.499,0-7.905,3.78-7.905,8.592c0,4.469,3.438,8.593,6.187,11.342
			c2.75,3.094,4.468,5.156,4.468,8.249c0,2.063-1.03,3.094-2.749,3.094c-2.063,0-2.75-1.375-2.75-3.438v-3.093h-5.155v3.093
			c0,4.812,3.094,7.905,8.249,7.905C388.375,438.817,392.156,435.724,392.156,430.225 M353.662,403.761h-5.499v34.369h5.499V403.761
			z M338.883,438.13v-4.812h-8.248v-10.655h5.843v-4.468h-5.843v-9.623h8.248v-4.812h-13.748v34.369H338.883z M310.013,416.82
			c0,1.719-0.688,2.406-2.063,2.406h-2.749v-10.654h2.749c1.375,0,1.719,0.688,1.719,2.062v6.187H310.013z M316.543,438.474v-1.719
			c-0.688-1.031-1.031-2.062-1.031-3.437v-7.218c0-2.063-1.031-4.124-3.437-4.812c2.062-0.688,3.093-2.406,3.093-4.813v-5.843
			c0-4.812-3.093-6.873-6.874-6.873h-8.936v34.369h5.499v-14.436h2.749c1.375,0,2.063,1.031,2.063,2.406v7.562
			c0,2.749,0.688,4.812,3.094,4.812H316.543z M290.422,438.13v-4.812h-8.248v-10.655h5.843v-4.468h-5.843v-9.623h8.248v-4.812
			h-13.747v34.369H290.422z M266.707,438.13v-34.369h-4.812v21.309l-1.719-5.499l-5.499-15.81h-4.812v34.369h4.812v-20.966
			l2.063,5.156l5.843,15.81H266.707z M239.556,403.761h-5.499v34.369h5.499V403.761z M225.12,438.13v-4.812h-8.249v-10.655h5.843
			v-4.468h-5.843v-9.623h8.249v-4.812h-13.748v34.369H225.12z M195.906,416.82c0,1.719-0.688,2.406-2.063,2.406h-2.749v-10.654
			h2.749c1.375,0,1.719,0.688,1.719,2.062v6.187H195.906z M202.437,438.474v-1.719c-0.688-1.031-1.031-2.062-1.031-3.437v-7.218
			c0-2.063-1.031-4.124-3.438-4.812c2.063-0.688,3.438-2.406,3.438-4.813v-5.843c0-4.812-3.094-6.873-6.874-6.873h-8.937v34.369h5.5
			v-14.436h2.749c1.375,0,2.063,1.031,2.063,2.406v7.562c0,2.749,0.688,4.812,3.093,4.812H202.437z M175.628,438.13v-34.369h-5.499
			v15.122h-5.843v-15.122h-5.499v34.369h5.499v-14.436h5.843v14.436H175.628z M149.507,430.912v-5.155h-4.812v5.155
			c0,1.719-1.031,2.75-2.749,2.75c-2.063,0-2.75-1.031-2.75-2.75v-19.935c0-1.718,1.031-2.749,2.75-2.749
			c2.062,0,2.749,1.031,2.749,2.749v5.156h4.812v-5.156c0-4.468-2.749-7.904-7.904-7.904s-8.249,3.437-8.249,8.248v19.247
			c0,4.812,3.437,8.249,8.249,8.249C146.758,438.817,149.507,435.38,149.507,430.912 M124.417,430.225
			c0-4.468-2.405-7.904-5.843-11.342c-3.093-3.437-4.812-5.155-4.812-8.593c0-1.718,1.031-2.749,2.75-2.749
			c1.718,0,2.749,1.375,2.749,3.093v3.094h4.813v-2.75c0-4.812-3.094-7.904-7.562-7.904c-5.499,0-7.905,3.78-7.905,8.592
			c0,4.469,3.437,8.593,6.187,11.342c2.75,3.094,4.468,5.156,4.468,8.249c0,2.063-1.031,3.094-2.749,3.094
			c-2.063,0-2.75-1.375-2.75-3.438v-3.093h-5.155v3.093c0,4.812,3.094,7.905,8.249,7.905
			C120.981,438.817,124.417,435.724,124.417,430.225"/>
	</g>
</g>
</svg>
