<?xml version="1.0" encoding="utf-8"?>
<!-- Generator: Adobe Illustrator 15.1.0, SVG Export Plug-In . SVG Version: 6.00 Build 0)  -->
<!DOCTYPE svg PUBLIC "-//W3C//DTD SVG 1.1//EN" "http://www.w3.org/Graphics/SVG/1.1/DTD/svg11.dtd">
<svg version="1.1" id="Ebene_1" xmlns="http://www.w3.org/2000/svg" xmlns:xlink="http://www.w3.org/1999/xlink" x="0px" y="0px"
	 viewBox="11.999 608.026 595.279 283.362"
	 enable-background="new 11.999 608.026 595.279 283.362" xml:space="preserve">
<g>
	<g>
		<g>
			<defs>
				<rect id="SVGID_29_" x="11.999" y="589.176" width="595.278" height="302.213"/>
			</defs>
			<clipPath id="SVGID_1_">
				<use xlink:href="#SVGID_29_"  overflow="visible"/>
			</clipPath>
			<path clip-path="url(#SVGID_1_)" fill="#F0F2DC" d="M151.447,729.08L151.447,729.08c2.286-2.285,4.114-4.113,5.943-5.941
				c0.915-0.914,1.829-2.287,3.2-3.201c0.915-0.914,1.829-1.828,2.743-3.199c0.915-0.916,1.829-1.83,2.744-3.201
				c1.827-1.83,4.113-4.115,5.942-5.945c0.914-0.914,1.829-1.828,2.743-3.199c0.914-0.914,1.829-1.828,2.743-3.201
				c1.829-1.828,3.657-4.115,5.943-5.943c1.828-1.828,3.657-3.658,5.485-5.486c0,0,0.458-0.457,0.458-0.914
				c-0.915,0-1.372-0.457-1.829-0.457c-3.658-0.916-7.314-1.83-10.973-2.287c-1.829-0.457-4.115-0.457-5.944-0.457
				c-1.828,0-3.656,0-5.485,0c-1.371,0-3.2,0.457-4.572,0.457c-2.743,0.459-5.486,1.373-8.229,2.287
				c-0.457,0-0.457,0.457-0.457,0.914c0,12.803,0,25.604,0,38.404v1.371H151.447z M151.447,729.08v0.459v40.232c0,0,0,0,0,0.457
				c0,0,0,0.459,0.457,0.459c1.372,0.457,3.2,0.914,4.572,1.371c2.286,0.457,4.572,0.914,6.857,1.371
				c1.829,0.457,3.658,0.457,5.028,0.457c1.372,0,2.286,0,3.658,0c2.286,0,4.114-0.457,6.4-0.457c1.372,0,3.201-0.457,4.572-0.914
				c2.742-0.914,5.485-1.828,8.687-2.287c0.458,0,1.372-0.457,2.286-0.914l-0.457-0.457c-1.829-1.828-3.657-3.199-5.029-5.029
				c-1.828-1.828-3.657-3.199-5.485-5.029c-1.829-1.828-3.2-3.199-5.029-5.027c-1.829-1.83-3.657-3.201-5.029-5.029
				c-1.828-1.83-3.2-3.201-5.029-5.029c-1.827-1.83-3.656-3.199-5.028-5.029c-1.828-1.828-3.657-3.199-5.486-5.029
				c-1.371-1.371-2.743-2.742-4.114-4.113C151.904,729.996,151.904,729.539,151.447,729.08 M144.588,692.963
				c-2.743,1.828-5.486,3.658-7.315,5.943c-0.914,0.914-1.828,2.285-2.743,3.201c-2.285,2.742-3.656,5.484-5.028,8.229
				c-1.371,2.742-2.286,5.943-3.2,9.145c-0.457,2.744-0.914,5.486-1.371,8.229c0,1.83,0,3.658,0,5.486c0,1.373,0,2.744,0.457,4.572
				c0.457,2.285,0.914,4.572,1.371,6.4c0.915,3.201,2.286,6.4,4.115,9.602c1.371,2.287,2.743,4.115,4.113,5.943
				c0.915,1.371,2.286,2.285,3.201,3.201c0.914,0.914,2.286,1.828,3.657,2.742c0.914,0.457,1.372,0.914,2.286,1.371v-74.066h0.457
				V692.963z M166.534,679.246h5.028c0.914,0,1.828,0,2.743,0c0.914,0,1.828,0,2.743,0.457c1.828,0.457,3.657,0.457,5.486,0.914
				c2.285,0.459,4.571,0.916,7.314,1.83s5.486,1.828,8.229,2.742c1.829,0.457,3.656,1.373,5.485,2.287
				c0.457,0,0.457,0.457,0.457,0.914c0,2.742,0,5.027,0,7.771v0.457c-1.371-0.457-2.743-1.371-4.113-1.828
				c-1.372-0.457-2.743-1.373-4.115-1.83c-0.457,0-0.457,0-0.914,0c-0.915,0.916-1.829,2.287-3.201,3.201
				c-1.828,1.828-3.2,3.658-5.029,5.486c-1.828,1.83-3.199,3.658-5.027,5.029c-1.829,1.828-3.201,3.656-5.029,5.029
				c-1.829,1.828-3.658,3.658-5.487,5.486c-0.914,0.914-1.371,1.371-2.285,2.287c-1.828,1.828-3.2,3.656-5.028,5.484
				c-1.372,1.371-3.201,3.201-4.572,4.572l0,0c0.457,0.457,0.457,0.457,0.914,0.914c1.829,1.83,3.658,3.201,5.486,5.029
				c1.828,1.83,3.657,3.658,5.485,5.486c1.829,1.828,3.658,3.658,5.487,5.029c1.828,1.828,3.657,3.656,5.486,5.486
				c1.827,1.828,3.656,3.658,5.485,5.027c2.286,1.83,4.114,4.115,6.4,5.943c1.372,1.373,2.743,2.744,4.115,4.115c0,0,0,0,0.457,0
				c0,0.457,0.457,0,0.457,0c1.371-0.457,2.285-1.371,3.657-1.828h0.457c0,2.742,0,5.029,0,7.771c0,0,0,0.457-0.457,0.457
				c-2.286,0.914-4.114,2.285-6.4,2.744c-2.286,0.914-4.572,1.828-7.315,2.742c-1.828,0.457-4.114,1.371-5.942,1.828
				c-2.286,0.457-4.115,0.916-6.4,0.916c-1.829,0-3.201,0.457-5.029,0.457h-0.458h-5.485c0,0,0,0-0.457,0
				c-1.371,0-2.743,0-4.114-0.457c-1.829-0.457-4.115-0.457-5.944-0.916c-4.114-0.914-8.229-2.285-11.887-4.113
				c-2.286-1.373-4.572-2.287-6.858-4.115c-1.829-1.371-4.114-2.742-5.485-4.572c-0.914-0.914-2.286-2.285-3.2-3.199
				c-0.915-0.914-1.829-1.83-2.286-2.744c-1.372-1.828-2.286-3.656-3.201-5.029c-1.371-2.285-2.743-5.027-3.657-7.314
				c-0.913-3.199-2.285-6.4-2.285-9.602c0-1.828-0.457-3.656-0.457-5.486v-0.457v-5.029c0-0.457,0-1.371,0-1.828
				c0-1.371,0-2.742,0.457-4.115c0.457-2.285,0.915-4.57,1.828-6.857c0.914-3.658,2.743-7.314,4.572-10.516
				c1.828-3.199,4.114-6.4,6.857-9.145c1.372-1.371,2.743-2.285,4.115-3.658c1.828-1.828,4.114-3.199,6.399-4.57
				c3.201-1.83,6.858-3.658,10.06-5.029c3.2-0.916,6.4-1.83,9.602-2.287C162.419,679.703,164.248,679.703,166.534,679.246
				C166.077,679.246,166.534,679.246,166.534,679.246"/>
		</g>
	</g>
	<g>
		<g>
			<defs>
				<rect id="SVGID_31_" x="11.999" y="589.176" width="595.278" height="302.213"/>
			</defs>
			<clipPath id="SVGID_2_">
				<use xlink:href="#SVGID_31_"  overflow="visible"/>
			</clipPath>
			<path clip-path="url(#SVGID_2_)" fill="#F0F2DC" d="M11.999,872.645l0.457-0.457c0-0.457,0.457-0.914,0.914-1.373
				c0.457-0.457,0.915-0.914,1.829-1.828c0.457-0.457,0.913-0.914,1.371-1.371c0.457-0.457,0.914-0.914,1.828-0.914
				c2.286-1.83,4.115-3.658,6.401-5.486c1.371-0.916,2.286-1.828,3.657-2.742c1.372-0.916,2.286-1.373,3.2-1.83
				c0.915-0.914,2.285-1.828,4.114-2.742s3.657-1.373,5.029-1.373c0.457,0,0.914,0,1.371,0.459c0.458,0.457,0.458,0.457,0.458,0.914
				v2.742c0,0.914-0.458,1.83-0.915,2.744c-0.457,0.912-1.371,1.369-2.743,2.285c-0.914,0.457-1.371,0.914-2.286,0.914
				c-0.914,0.457-1.828,0.914-2.286,1.371c-0.457,0.457-0.914,0.914-2.284,1.828c-1.372,0.916-2.744,2.287-5.029,3.658
				c-0.915,0.914-1.829,1.371-2.286,1.83c-0.457,0.457-0.915,0.914-1.372,1.371s-0.457,1.371-0.914,2.285
				c0,0.914-0.457,1.828-0.457,2.742s0,1.373,0.457,1.83s0.457,0.914,0.914,1.371s0.915,0.457,1.372,0.914s1.371,0.457,2.286,0.914
				c0.457,0,1.371-0.457,1.828-0.457c1.372-0.457,2.286-0.457,3.658-0.914c1.37-0.914,2.285-1.371,3.656-2.285
				c1.372-0.916,2.286-1.373,3.658-2.287c0,0,0.457,0,0.457-0.457c0.457,0,0.457-0.457,0.914-0.457
				c0.457-0.457,0.914-0.914,1.372-1.371c0.457-0.457,1.371-1.371,2.286-1.828c1.371,3.199,2.285,4.57,2.285,4.57
				c-1.371,0.914-2.743,2.287-4.114,3.201c-1.372,0.914-2.743,1.828-4.572,2.742c-0.457,0.457-0.914,0.916-1.371,1.373
				c-1.829,1.828-3.658,3.199-5.943,4.113c-2.286,0.916-5.029,1.373-7.772,1.373c-0.457,0-1.371,0-1.829,0
				c-0.457,0-0.914-0.457-1.371-0.457c-0.914-0.916-1.829-1.373-2.743-1.83s-1.372-0.914-1.828-1.371
				c-0.457-0.457-0.914-0.914-0.914-1.371c-0.457-0.457-0.457-0.914-0.457-1.83c0-0.914,0-1.371,0-2.742
				c0-0.457,0-0.914,0.457-1.371c0-0.457,0.457-0.914,0.457-1.371c-0.457-0.914-0.457-1.371-0.914-2.287
				C12.913,874.016,12.456,873.102,11.999,872.645"/>
		</g>
	</g>
	<g>
		<g>
			<defs>
				<rect id="SVGID_33_" x="11.999" y="589.176" width="595.278" height="302.213"/>
			</defs>
			<clipPath id="SVGID_3_">
				<use xlink:href="#SVGID_33_"  overflow="visible"/>
			</clipPath>
			<path clip-path="url(#SVGID_3_)" fill="#F0F2DC" d="M44.918,872.645C44.918,872.188,44.918,872.188,44.918,872.645
				c0.457-0.457,0.914-0.914,0.914-1.371c0-0.459,0.457-0.916,0.914-0.916c0.457-0.457,0.915-0.914,1.372-1.371
				c0.457-0.914,1.371-2.285,2.285-3.201c0.914-1.371,1.371-2.742,2.286-4.113c0.914-2.285,1.828-4.115,2.743-5.486
				c0.914-1.371,1.371-2.742,2.285-3.658c0-0.914,0.458-2.285,1.372-3.656c0.457-1.83,1.372-4.115,2.286-6.857
				c0.914-2.744,1.829-4.572,2.743-6.4c0.914-1.83,1.372-2.744,1.372-3.201s0.457-0.457,0.457-0.914s0.456-0.914,0.456-1.371
				c0.457-1.83,0.914-3.201,1.829-4.572c0.457-1.371,1.371-2.742,1.828-4.115c0-0.457,0.457-0.457,0.457-0.914
				c0.458,0,0.458-0.457,0.915-0.457c1.371,0,2.286,0.457,3.2,1.828c0.457,0.916,0.914,2.744,0.914,4.572
				c0,2.285-0.914,5.486-2.285,9.602c-1.372,4.115-3.658,9.145-6.858,15.088c-0.456,1.371-1.371,2.744-1.828,5.029
				c-0.914,1.828-1.371,4.115-2.286,6.4c-0.457,1.828-1.371,3.658-1.828,5.943c-0.458,1.828-0.915,4.115-1.829,5.943
				c-0.457,1.83-0.914,3.201-1.372,4.113c0.457,0.916,0.457,1.83,0.457,1.83c0,0.457,0,0.457,0,0.457s0,0,0.458,0
				c0.457,0,0.457,0,0.914-0.457c0.457,0,0.457-0.457,0.457-0.914c0.915-0.916,1.372-2.285,1.829-3.199
				c0.457-1.373,1.371-2.744,1.829-4.115v-1.373c0.457-2.285,0.914-3.656,1.371-4.57c0.915-0.916,2.285-1.83,4.571-2.287
				c0.457,0,0.914-0.914,2.286-2.742c0.914-1.828,2.743-4.572,4.572-7.771c0.914-1.83,1.828-3.201,2.743-4.115
				c0.914-0.914,1.371-1.371,1.371-1.371c0.915,0,1.372,0.457,1.829,0.914s0.457,1.371,0.457,2.285
				c0,2.744-1.371,5.943-4.572,10.061c-2.743,4.113-4.571,6.855-4.571,7.771c0,0.914,0.914,2.285,2.285,4.113
				c1.372,1.83,2.743,2.744,4.115,2.744c0.457,0,0.914,0,1.372-0.457c0.457-0.457,0.914-0.457,1.371-0.914
				c0.456-0.457,0.913-0.914,1.371-0.914c0.457-0.459,0.914-0.916,1.371-0.916l2.286,4.572c-0.914,0.914-1.829,1.371-2.743,2.287
				c-0.914,0.914-1.828,1.369-2.742,2.285c-0.914,0.914-1.829,1.828-3.2,2.285c-0.915,0.457-1.829,0.914-3.201,0.914
				c-0.914,0-2.743-0.914-5.486-3.199c-2.286-2.285-3.656-3.201-4.113-3.201c-1.372,1.373-2.286,2.287-3.201,3.658
				c-0.457,0.914-1.371,1.371-1.828,2.285s-1.372,1.371-1.829,2.287c0,0.457-0.457,0.457-0.914,0.914
				c-0.458,0.457-0.915,0.914-1.372,1.371c-0.457,0.914-0.914,1.371-1.829,1.828c-0.457,0.457-1.371,0.916-2.285,0.916
				c-1.372,0-2.285-0.459-3.2-1.373c-0.914-0.914-0.914-1.828-0.914-3.656c0-1.83,0-3.201,0.457-5.486
				c0.457-1.828,0.914-3.658,1.372-5.943c0.456-0.914,0.456-1.83,0.456-2.744s0-1.371,0-1.828l-0.456-0.457
				c-0.458,0.457-0.915,1.371-1.829,1.828c-0.914,0.914-1.372,1.83-2.286,2.744l-0.457,0.457c0,0.457-0.457,0.914-0.914,1.371
				c0-0.457-0.458-0.914-0.458-1.371c-0.457-0.457-0.457-1.371-0.914-2.287C45.375,873.102,45.375,873.102,44.918,872.645
				L44.918,872.645"/>
		</g>
	</g>
	<g>
		<g>
			<defs>
				<rect id="SVGID_35_" x="11.999" y="589.176" width="595.278" height="302.213"/>
			</defs>
			<clipPath id="SVGID_4_">
				<use xlink:href="#SVGID_35_"  overflow="visible"/>
			</clipPath>
			<path clip-path="url(#SVGID_4_)" fill="#F0F2DC" d="M92.467,863.5c0.914,0.457,1.829,0.457,2.286,0.914
				c1.371,0,2.286-0.457,3.657-0.457h9.602c0.914,0,1.829,0.457,1.829,0.914c0.457,0.457,0.457,1.371,0.457,2.285
				c0,1.373-0.457,2.287-0.914,3.201c-0.458,0.914-1.372,0.914-2.286,0.914c-0.458,0-0.915,0-1.829,0s-1.372,0-1.829,0h-2.743
				c-1.37,0.457-2.285,0.457-3.656,0.457c-3.2-0.457-4.572-0.914-5.029-0.914s-0.915,0-1.829,0s-1.371,0-1.829,0
				c-0.457,0-0.914,0-1.371-0.457s-0.457-0.457-0.457-0.914c0,0,0-0.457,0.457-0.914c0.457-0.459,0.914-0.916,1.371-1.373
				c0-0.457,0.458-0.457,0.458-0.914s0.457-0.914,0.914-1.371c0.457,0,0.457,0,0.914-0.457C91.553,863.957,92.01,863.5,92.467,863.5
				"/>
		</g>
	</g>
	<g>
		<g>
			<defs>
				<rect id="SVGID_37_" x="11.999" y="589.176" width="595.278" height="302.213"/>
			</defs>
			<clipPath id="SVGID_5_">
				<use xlink:href="#SVGID_37_"  overflow="visible"/>
			</clipPath>
			<path clip-path="url(#SVGID_5_)" fill="#F0F2DC" d="M124.929,811.377c0.914,0,1.371,0,1.828,0.459
				c0.457,0.457,0.915,0.457,1.372,0.914s0.457,0.914,0.914,1.371s0.457,0.914,0.915,1.828c0.457,0.916,0.914,1.83,1.371,2.287
				s0.457,0.914,0.457,0.914c-0.457,1.828-0.457,4.115-0.457,5.943s-0.457,4.113-0.457,5.943c0,0.457-0.457,0.914-0.457,1.828
				s0.457,1.828,0.457,2.744c0,0.914,0,1.828,0,2.742s0,1.83,0,2.742c0,0.914,0,1.83,0,3.201s0,2.742,0,3.658
				c0,0.914,0,1.828,0,1.828c0,0.457,0,0.457,0,0.914s0,0.457,0,0.914s0,0.914,0.457,1.83v3.199c0,1.371,0.457,4.572,1.372,9.145
				c0.914,4.572,1.371,7.314,1.371,7.773c0.456,0,0.456-0.459,0.456-0.459l4.115-7.314c0-0.457,0.457-1.371,0.914-2.285
				c0.457-0.916,0.915-1.83,1.372-3.201c1.371-3.199,3.2-6.857,4.572-11.887c1.371-5.029,2.743-10.516,4.114-17.375
				c0.457-1.828,0.915-3.656,1.828-4.572c0.457-0.914,1.371-1.828,2.286-2.285l4.572-1.828c0.914,0.457,1.371,0.914,1.828,1.371
				s0.457,1.371,0.457,2.285s0,2.744-0.457,5.029c-0.457,2.287-0.914,5.486-1.828,9.146c0,0.912,0,1.826-0.458,2.742
				c0,1.371-0.457,2.742-0.457,4.113c-0.457,1.373-0.457,2.287-0.457,2.744c0,0.914-0.457,1.371-0.457,1.371c0,0.914,0,1.83,0,3.201
				s0,2.285,0,4.113s0,3.201,0,4.572v2.285c0,2.287,0,4.115,0.457,5.486c0,1.373,0.457,1.83,0.457,1.83
				c0.457,0,0.915-0.914,1.829-2.287c0.914-1.371,1.829-3.656,2.743-6.857c0.914-2.285,1.829-4.572,2.286-6.4
				c0.914-1.828,1.371-4.113,1.829-5.943c0.457-0.457,0.457-0.914,0.914-1.828c0-0.914,0.456-1.371,0.456-2.744
				c0.457-1.371,0.914-3.199,1.829-4.572c0.457-1.826,0.914-3.199,1.828-5.027c0.458-0.914,0.915-2.287,0.915-4.115
				c0.457-1.371,0.914-3.201,1.371-5.486l-0.457-2.285c0-0.457,0.457-0.916,0.457-1.373c0-0.455,0.458-1.369,0.458-2.285
				c0.914-1.371,1.828-2.742,2.743-3.199c0.914-0.914,1.371-0.914,1.828-0.914s0.457,0,0.915,0.457c0,0.457,0,0.914,0,1.828
				c0,2.285,0,3.658,0,5.027c0,1.373,0,1.83-0.457,2.287c-0.458,0.457-0.458,0.914-0.458,1.371s-0.457,0.914-0.457,0.914
				l0.457,2.744c0,0.457-0.457,1.371-0.914,2.742c-0.457,1.373-0.457,2.744-0.914,5.029c-0.458,1.828-0.458,3.658-0.915,4.572
				s-0.457,1.828-0.914,2.285c0,0.457-0.457,1.373-0.457,2.287c-0.457,0.914-0.915,1.828-1.372,3.199
				c0,0.457-0.457,1.373-0.457,2.287c-0.457,0.914-0.457,2.285-0.914,3.199s-0.457,1.828-0.915,2.742
				c-0.457,0.916-0.914,2.287-1.371,4.115c-0.457,0.457-0.915,0.914-0.915,1.83c-0.457,0.914-0.457,1.828-0.914,2.742
				c0,0.457-0.456,1.371-0.913,2.287c-0.457,0.914-0.915,2.283-1.829,4.113c-0.914,1.828-1.372,3.199-1.829,4.115
				c-0.457,0.914-0.914,1.371-0.914,1.371l-1.372,0.914c-0.457,0.457-0.457,0.457-0.914,0.914c-0.457,0-0.914,0-1.829,0
				c-0.457,0.457-1.371,0.457-1.828,0.914c-0.458,0-0.915,0.459-0.915,0.459c-1.371,0-2.286-0.459-3.2-1.373
				c-0.913-0.914-1.371-2.742-1.828-4.572c0-1.371,0-3.199-0.457-4.572c0-1.371-0.457-3.199-0.457-4.57c0-0.914,0-1.828-0.457-3.201
				c0-1.371-0.457-2.742-0.915-4.57c-0.914,1.371-1.371,2.742-2.285,4.113c-0.915,1.373-1.372,3.201-2.286,4.572
				c0,0.457,0,0.914-0.915,2.287c-0.457,1.369-1.371,2.742-2.286,5.027c-0.914,2.287-1.828,4.572-3.2,6.859
				c-0.914,1.371-1.829,2.285-2.742,3.199c-0.914,0.457-1.829,0.914-3.2,0.914c-0.457,0-0.915-0.457-1.829-1.371
				c-0.457-0.914-0.914-2.285-1.371-4.115c-0.458-0.914-0.458-2.285-0.915-3.199c-0.457-0.916-0.457-2.287-0.914-3.201
				c0-0.457,0.457-0.914,0.457-1.371c-0.457-0.457-0.457-0.914-0.914-1.828s-0.457-1.83-0.915-3.201
				c0-0.914-0.457-1.828-0.457-2.742s-0.457-2.287-0.457-4.115c0-0.457,0-0.914,0-1.371s0-0.916,0-1.373s0-0.914-0.457-1.371
				c0-0.455-0.457-0.914-0.915-1.371c0,0,0-0.914,0-1.371c0-0.914,0-1.828,0-3.201c0-1.371,0-2.285-0.457-2.742
				c0-0.914-0.457-1.371-0.914-1.371l-1.372-0.916c0-0.457-0.457-1.371-0.457-2.285s0-2.285,0-3.656
				c0-4.115,0.457-7.773,0.915-12.346c0.457-4.113,1.371-8.688,2.285-13.26c0.458-1.371,0.458-2.285,1.372-2.742
				C123.1,811.836,124.014,811.377,124.929,811.377"/>
		</g>
	</g>
	<g>
		<g>
			<defs>
				<rect id="SVGID_39_" x="11.999" y="589.176" width="595.278" height="302.213"/>
			</defs>
			<clipPath id="SVGID_6_">
				<use xlink:href="#SVGID_39_"  overflow="visible"/>
			</clipPath>
			<path clip-path="url(#SVGID_6_)" fill="#F0F2DC" d="M192.595,855.729c-0.915,0-1.829,0.914-3.2,3.199
				c-1.372,1.828-1.829,3.656-1.829,4.572v0.457h0.457c0.457,0,0.914,0,0.914-0.457c0.458-0.459,0.458-0.916,0.458-0.916
				c0.457-0.457,0.914-0.914,0.914-0.914c0.457-0.457,0.914-0.914,0.914-1.371c0.457-0.457,0.915-0.914,0.915-1.371
				s0.457-0.914,0.457-1.371s0-0.457,0-0.914C193.052,855.729,192.595,855.729,192.595,855.729 M175.678,872.645
				c0.457-0.914,0.915-1.371,1.829-2.287c0.457-0.914,1.372-1.371,2.743-2.285c0-0.914,0-1.371,0.457-1.828
				c0.457-0.459,0-1.373,0-1.83s0.457-0.914,0.457-1.828c0-0.457,0.458-1.371,0.915-2.287c0.457-0.912,0.914-1.826,1.371-2.742
				c0.457-0.914,1.371-2.285,2.285-3.656c0.915-0.914,1.372-1.83,2.286-2.744s1.372-1.828,2.286-2.742
				c0.457-0.457,0.914-0.457,1.371-0.916c0.458-0.457,0.915-0.457,1.372-0.914c0.457,0,0.914-0.457,1.372-0.457
				c0.457,0,0.914,0,1.828,0c0.915,0,1.372,0,2.286,0.457c0.457,0,0.914,0.457,1.372,0.914c0.457,0.459,0.457,0.916,0.913,1.373
				c0.457,0.457,0.457,1.371,0.457,1.828c0,0.914,0,1.371,0.457,2.287c0,0,0,0,0,0.457s-0.457,0.914-0.457,1.828l-1.828,0.457
				c-0.457,1.828-1.371,3.658-3.2,5.943c-1.828,2.285-4.114,4.572-6.857,7.314c-0.458,0.457-0.458,0.457-0.458,0.914
				s-0.457,0.914-0.457,1.373c0,0.914,0,1.371,0.457,1.828c0.458,0.457,0.458,0.914,0.915,1.371c0.457,0,0.914,0.457,1.371,0.457
				s1.372,0.457,2.286,0.457c1.372,0,2.743-0.457,3.658-0.457c0.914-0.457,2.285-0.914,2.743-1.371c0,0,0.457-0.457,0.913-0.457
				c0.457,0,0.914-0.457,0.914-0.914c0.458,0.914,0.915,1.828,1.372,2.742s0.457,1.373,0.914,2.287
				c-1.828,1.828-3.656,3.199-5.485,4.57c-1.829,0.914-3.2,1.371-4.572,1.371c-0.457,0.457-1.371,0.457-1.828,0.916
				c-0.915,0-1.372,0.457-2.286,0.457c-1.372,0-2.286,0-3.2-0.457c-0.915-0.459-1.829-0.916-2.286-1.83
				c-0.457-0.457-0.914-0.914-0.914-1.371c-0.457-0.457-0.914-1.371-0.914-2.287c-0.457-0.914-0.457-1.369-0.914-1.826
				c-0.458-0.457-0.458-0.457-0.915-0.457s-0.457,0-0.914,0.457c-0.457,0.455-0.915,0.455-0.915,1.369
				c0-0.457-0.457-1.369-0.914-1.828C177.05,874.473,176.593,873.559,175.678,872.645"/>
		</g>
	</g>
	<g>
		<g>
			<defs>
				<rect id="SVGID_41_" x="11.999" y="589.176" width="595.278" height="302.213"/>
			</defs>
			<clipPath id="SVGID_7_">
				<use xlink:href="#SVGID_41_"  overflow="visible"/>
			</clipPath>
			<path clip-path="url(#SVGID_7_)" fill="#F0F2DC" d="M223.685,831.494c0.914,0,1.371,0,1.829,0.457
				c0.457,0.459,0.457,0.916,0.457,1.373c0,0.914-0.457,1.828-0.457,2.285c-0.458,1.371-0.458,2.287-0.915,3.201
				s-0.457,1.371-0.457,1.828c-0.457,0.914-0.914,1.371-1.371,1.828c-0.458,0.457-1.372,0.914-1.829,1.371
				c-0.915,0.457-1.372,0.914-1.829,1.371c-0.456,0-0.913,0.459-0.913,0.459c-0.457,0-1.372,0-1.829,0s-0.914,0-1.371,0
				c-0.458-0.459-0.915-0.916-0.915-1.373c-0.914-0.914-0.914-1.828-0.914-3.199c0-0.914,0.457-2.285,1.829-4.115
				c1.371-1.371,2.285-2.285,3.2-2.285c0.457-0.914,1.37-1.371,2.285-2.285c0.457-0.459,0.914-0.459,1.371-0.459
				S222.771,831.494,223.685,831.494 M201.74,872.645L201.74,872.645l0.457-0.914c0.914-1.373,2.743-2.744,5.028-5.029
				c2.286-2.287,4.115-3.658,5.029-5.029c0.458-0.457,0.915-0.914,1.372-1.373c0.457-0.455,0.914-0.455,1.371-0.455
				c1.372,0,2.286,0.455,3.201,0.914c0.913,0.457,1.37,1.371,1.827,2.742c0.458,0.914,0.458,2.285,0.458,3.201
				c0,0.914,0.457,2.285,0.457,3.199c0.457,0.914,0.457,1.83,0.914,3.201s0.457,2.285,0.915,2.285c0,0.457,0.457,0.457,0.914,0.916
				c0.457,0,0.914,0.455,1.371,0.455c0.458,0,1.372,0,1.829-0.455c0.457,0,1.372-0.459,1.829-1.373
				c0.457-0.457,0.914-0.914,1.829-1.371c0.457-0.457,0.914-0.914,1.828-1.371l2.285,4.572c-0.456,0.455-1.37,1.369-2.285,1.828
				c-0.914,0.914-1.828,1.371-3.2,2.285s-2.743,1.828-3.657,2.285c-0.915,0.457-1.829,0.916-2.286,0.916
				c-3.201,0-5.028-0.459-5.943-0.916c-0.914-0.914-1.828-2.742-3.2-5.943c0-0.455-0.457-0.455-0.457-0.912
				c-0.457-0.459-0.457-0.916-0.914-1.373c-0.458-0.914-0.915-1.371-0.915-1.828c-0.457-0.457-0.457-0.457-0.914-0.457
				s-1.372,0.457-2.286,0.914c-0.914,0.914-2.286,1.828-3.2,3.201c0-0.457-0.457-0.916-0.457-1.373
				c-0.458-0.457-0.458-1.371-0.915-2.285C202.654,873.102,202.197,873.102,201.74,872.645
				C202.197,872.645,202.197,872.645,201.74,872.645"/>
		</g>
	</g>
	<g>
		<g>
			<defs>
				<rect id="SVGID_43_" x="11.999" y="589.176" width="595.278" height="302.213"/>
			</defs>
			<clipPath id="SVGID_8_">
				<use xlink:href="#SVGID_43_"  overflow="visible"/>
			</clipPath>
			<path clip-path="url(#SVGID_8_)" fill="#F0F2DC" d="M231.457,872.645c0-0.457,0.457-0.457,0.457-0.914s0.457-0.457,0.914-0.916
				c0.458-0.457,0.915-0.457,1.372-1.371c0.457-0.457,1.371-0.914,1.828-1.828s1.371-1.371,2.286-2.744
				c0.914-0.914,1.828-2.285,3.2-3.656c0.457-0.457,1.371-1.371,2.286-2.285c0.914-0.916,1.828-1.83,2.743-3.201
				c0.914-0.914,1.828-1.828,3.2-2.742c0.914-0.459,2.285-0.916,3.656-0.916c1.372,0,2.286,0.457,2.743,1.373
				c0.458,0.914,0.915,1.828,0.915,3.199c0,0.914-0.457,2.287-0.915,4.572c-0.457,2.285-1.371,5.029-2.743,8.688
				c-0.457,0.914-0.457,1.371-0.914,1.828c0,0.457-0.457,0.914-0.457,1.371c0,0.459,0,0.459,0,0.916c0,0,0,0.457,0.457,0.914
				l0.457-0.457l0.457-0.457c0.458-0.457,0.915-0.916,1.372-1.83s1.371-1.371,1.829-1.828c0.457-0.457,0.914-1.371,1.371-1.828
				c0.457-0.459,0.915-0.916,1.829-1.373l0.457-0.457c0,0,0.457-0.457,0.914-0.914c0.458-0.457,0.915-0.914,1.829-1.371
				c0.457-0.457,1.372-0.914,2.286-1.371s1.829-0.914,2.285-0.914c0.914-0.457,1.371-0.457,1.829-0.457
				c0.914,0,1.828,0.457,2.743,0.914c0.914,0.457,1.371,1.371,2.286,2.285c0.914,2.285,1.371,4.115,1.828,5.943
				c0.457,0.914,0.915,1.828,1.372,2.285c0.457,0.459,0.914,0.916,1.371,0.916c0.458,0,0.915,0,1.372-0.457
				c0.457,0,0.914-0.459,0.914-0.916l2.286,4.572c-0.457,0.457-1.371,0.914-1.829,1.371c-0.457,0.459-1.371,0.916-1.828,1.373
				c-0.915,0.914-1.372,1.371-2.286,1.371c-0.915,0.457-1.372,0.457-2.286,0.457s-1.372,0-2.286-0.457s-1.371-0.914-1.829-1.371
				c-0.457-0.457-0.457-0.914-0.914-1.371c-0.457-0.916-0.914-1.83-1.372-2.744c-0.457-0.457-0.914-0.914-1.371-1.828
				c-0.457-0.916-1.371-1.83-1.828-2.744h-0.457c-0.457,0-1.372,0.457-1.829,0.914s-1.371,0.914-1.828,1.83
				c-1.372,1.371-2.743,2.285-3.201,2.742c-0.914,0.457-1.371,0.914-1.371,1.371c-0.457,0.916-1.372,1.83-2.286,3.201
				c-1.372,1.371-2.743,2.742-4.571,4.57c-0.457,0.457-0.914,0.916-1.371,1.373c-0.458,0.457-0.915,0.914-1.372,1.371
				s-0.914,0.457-1.371,0.914c-0.458,0-1.372,0.457-1.829,0.457c-1.372,0-2.286-0.457-2.286-1.371s-0.457-1.828-0.457-2.744
				c0.457-1.371,0.914-3.199,1.829-5.486c0.457-2.285,1.371-4.57,2.285-7.771c0,0,0-0.457,0-0.914s0.458-0.457,0.458-1.371
				c0-0.457,0.457-0.914,0.457-1.371s0-0.457,0-0.916c0-0.457,0-0.457-0.457-0.457c0,0-0.458,0-0.915,0s-0.914,0-1.371,0.457
				c-0.457,0.459-1.372,0.916-1.829,1.83c-0.914,0.914-1.829,1.828-2.286,2.285s-0.914,0.914-1.371,0.914
				c-0.458,0.459-0.915,0.459-1.372,0.916s-0.914,0.914-1.372,1.371c0,0,0,0.457-0.457,0.457c0,0.457-0.457,0.457-0.457,0.914
				c0-0.457-0.456-1.371-0.913-1.828C232.371,874.473,231.914,873.559,231.457,872.645"/>
		</g>
	</g>
	<g>
		<g>
			<defs>
				<rect id="SVGID_45_" x="11.999" y="589.176" width="595.278" height="302.213"/>
			</defs>
			<clipPath id="SVGID_9_">
				<use xlink:href="#SVGID_45_"  overflow="visible"/>
			</clipPath>
			<path clip-path="url(#SVGID_9_)" fill="#F0F2DC" d="M297.752,855.729c-0.915,0-1.829,0.914-3.201,3.199
				c-1.371,1.828-1.828,3.656-1.828,4.572v0.457h0.457c0.457,0,0.914,0,0.914-0.457c0.457-0.459,0.457-0.916,0.457-0.916
				c0.458-0.457,0.915-0.914,0.915-0.914c0.457-0.457,0.914-0.914,0.914-1.371c0.457-0.457,0.914-0.914,0.914-1.371
				s0.458-0.914,0.458-1.371s0-0.457,0-0.914C298.209,855.729,298.209,855.729,297.752,855.729 M281.292,872.645
				c0.457-0.914,0.915-1.371,1.829-2.287c0.914-0.914,1.372-1.371,2.743-2.285c0-0.914,0-1.371,0.456-1.828
				c0.457-0.459,0-1.373,0-1.83s0.457-0.914,0.457-1.828c0-0.457,0.458-1.371,0.915-2.287c0.457-0.912,0.914-1.826,1.371-2.742
				c0.457-0.914,1.372-2.285,2.286-3.656c0.915-0.914,1.372-1.83,2.286-2.744s1.372-1.828,2.286-2.742
				c0.457-0.457,0.914-0.457,1.371-0.916c0.458-0.457,0.915-0.457,1.372-0.914c0.457,0,0.914-0.457,1.372-0.457
				c0.457,0,0.914,0,1.828,0c0.915,0,1.372,0,2.285,0.457c0.457,0,0.914,0.457,1.372,0.914c0.457,0.459,0.457,0.916,0.914,1.373
				c0,0.457,0.457,1.371,0.457,1.828c0,0.914,0,1.371,0.457,2.287c0,0,0,0,0,0.457s-0.457,0.914-0.457,1.828l-2.286,0.457
				c-0.457,1.828-1.37,3.658-3.199,5.943s-4.115,4.572-6.858,7.314c-0.457,0.457-0.457,0.457-0.457,0.914s-0.457,0.914-0.457,1.373
				c0,0.914,0,1.371,0.457,1.828s0.457,0.914,0.915,1.371c0.457,0,0.914,0.457,1.371,0.457s1.372,0.457,2.286,0.457
				c1.372,0,2.743-0.457,3.657-0.457c0.915-0.457,2.285-0.914,2.742-1.371c0,0,0.458-0.457,0.915-0.457s0.914-0.457,0.914-0.914
				c0.457,0.914,0.914,1.828,1.372,2.742c0.457,0.914,0.457,1.373,0.914,2.287c-1.829,1.828-3.657,3.199-5.485,4.57
				c-1.829,0.914-3.2,1.371-4.572,1.371c-0.457,0.457-1.371,0.457-1.829,0.916c-0.914,0-1.371,0.457-2.743,0.457
				c-1.371,0-2.286,0-3.2-0.457c-0.914-0.459-1.829-0.916-2.286-1.83c-0.457-0.457-0.914-0.914-0.914-1.371
				c-0.456-0.457-0.913-1.371-0.913-2.287c-0.458-1.369-0.915-1.826-0.915-2.283c-0.457-0.459-0.457-0.459-0.914-0.459
				s-0.457,0-0.915,0.459c-0.457,0.457-0.914,0.457-0.914,1.369c0-0.455-0.457-1.369-0.914-1.828
				C282.207,874.473,281.749,873.559,281.292,872.645"/>
		</g>
	</g>
	<g>
		<g>
			<defs>
				<rect id="SVGID_47_" x="11.999" y="589.176" width="595.278" height="302.213"/>
			</defs>
			<clipPath id="SVGID_10_">
				<use xlink:href="#SVGID_47_"  overflow="visible"/>
			</clipPath>
			<path clip-path="url(#SVGID_10_)" fill="#F0F2DC" d="M444.972,842.467c-0.458,0-0.915-0.455-1.372-0.455h-1.829v5.027h1.372
				c0.914,0,1.371,0,1.829-0.457c0.457-0.457,0.914-0.914,0.914-2.285C446.343,843.84,445.886,842.926,444.972,842.467
				 M561.559,847.039l-0.915,2.744h3.658l-0.914-2.744c-0.458-1.371-0.458-2.285-0.915-2.742l0,0
				C562.473,844.754,562.016,845.668,561.559,847.039 M465.546,847.039l-0.915,2.744h3.657l-0.915-2.744
				c-0.456-1.371-0.456-2.285-0.913-2.742l0,0C466.46,844.754,466.003,845.668,465.546,847.039 M469.202,792.176
				c-0.914,0.914-0.914,2.285-1.372,3.656h26.977c-0.457-1.828-0.914-3.199-3.658-5.941c-1.371-1.373-4.571-4.115-10.058-4.115
				c-1.829,0-3.201,0.457-4.115,0.457C472.861,788.061,470.116,790.805,469.202,792.176 M533.212,792.633
				c-0.915,0.914-0.915,2.285-1.372,3.658h26.976c-0.457-1.83-0.915-3.201-3.658-5.943c-1.371-1.371-4.571-4.115-10.059-4.115
				c-1.828,0-3.2,0.457-4.114,0.457C536.868,788.518,534.126,791.262,533.212,792.633 M593.106,856.186
				c-1.829,0.914-4.572,1.371-7.315,1.371c-6.399,0-10.059-4.115-10.059-9.145c0-5.486,4.115-10.059,10.516-10.059
				c2.286,0,4.115,0.457,5.486,0.914v4.113c-1.371-0.914-3.2-1.371-5.486-1.371c-4.113,0-6.399,2.285-6.399,5.943
				s1.829,5.943,5.942,5.943c0.915,0,1.829,0,2.743-0.457v-5.486h4.115v8.23h0.457V856.186z M593.106,778.002v8.23
				c0,0-11.43-1.373-11.888,11.887c0,2.742,0,10.059,0,10.059c-7.314,10.973-18.288,15.545-32.461,15.545
				c-25.604,0-26.519-19.201-26.519-22.402c0-1.371,0-5.029,1.828-8.688c3.658-8.229,11.888-13.717,20.574-13.717
				c1.372,0,4.572,0,7.771,1.371c7.315,2.744,12.803,9.604,14.175,16.918c0.457,2.285,0,4.572,0,6.857h-36.118
				c0.457,2.744,2.743,10.973,16.002,11.43c17.831,0.457,23.773-6.857,26.061-9.602v-26.518h8.688v3.656
				C581.218,783.031,584.419,778.002,593.106,778.002 M514.466,847.955l7.772,9.602h-5.028l-5.944-7.773l0,0v7.773h-4.114v-18.746
				h4.114v7.771l0,0l5.944-7.771h5.028L514.466,847.955z M517.21,807.721c-7.315,10.973-18.289,15.545-32.463,15.545
				c-25.604,0-26.518-19.201-26.518-22.402c0-1.371,0-5.029,1.828-8.688c3.658-8.229,11.888-13.717,20.574-13.717
				c1.372,0,4.571,0,7.771,1.371c7.315,2.744,12.802,9.604,14.174,16.918c0.457,2.285,0,4.57,0,6.857h-36.118
				c0.457,2.742,2.742,10.973,16.002,11.43c17.831,0.457,23.773-6.857,26.061-9.602v-26.518h8.688V807.721L517.21,807.721z
				 M463.717,837.896c-0.915,0-2.286-0.914-2.286-2.285c0-1.373,0.914-2.287,2.286-2.287c1.371,0,2.286,0.914,2.286,2.287
				C465.546,836.982,464.631,837.896,463.717,837.896 M469.202,837.896c-0.914,0-2.285-0.914-2.285-2.285
				c0-1.373,0.913-2.287,2.285-2.287s2.286,0.914,2.286,2.287C471.489,836.982,470.116,837.896,469.202,837.896 M464.631,838.811
				h3.657l7.772,18.746h-4.572l-1.829-4.572h-5.942l-1.829,4.572h-4.572L464.631,838.811z M481.548,838.811h4.113l7.315,9.602
				c0.457,0.914,0.914,1.371,1.829,2.287l0,0c0-0.916,0-2.287,0-3.201v-8.688h4.114v18.746h-4.114l-7.315-10.061
				c-0.457-0.914-0.914-1.371-1.829-2.285l0,0c0,0.457,0,1.828,0,2.744v9.602h-4.113V838.811z M527.726,838.811h11.43l-0.914,3.656
				h-5.943v3.658h5.943v3.658h-5.943v4.115h6.857v3.656h-10.973v-18.744H527.726L527.726,838.811z M553.328,857.557l7.314-18.746
				h3.658l7.771,18.746h-4.571l-1.829-4.572h-5.943l-1.829,4.572H553.328z M452.743,822.352h-8.688v-27.891l-25.604,27.891h-5.485
				v-28.348l-26.519,28.348h-10.973l39.776-43.436h5.485v28.348l26.062-28.348h5.485L452.743,822.352z M375.477,848.412
				c0-5.486,4.114-10.059,10.516-10.059c2.286,0,4.114,0.457,5.486,0.914v4.113c-1.372-0.914-3.2-1.371-5.486-1.371
				c-4.114,0-6.4,2.285-6.4,5.943s1.829,5.943,5.942,5.943c0.915,0,1.829,0,2.744-0.457v-5.486h4.114v7.773
				c-1.829,0.912-4.572,1.369-7.315,1.369C379.134,858.014,375.477,853.898,375.477,848.412 M400.164,838.811h11.432l-0.915,3.656
				h-5.943v3.658h5.943v3.658h-5.943v4.115h6.858v3.656h-10.975v-18.744H400.164L400.164,838.811z M416.625,838.811h15.545
				l-0.915,3.656h-4.572v15.09h-4.114v-15.09h-5.485v-3.656H416.625z M437.656,838.811h5.943c1.829,0,2.743,0,3.657,0.457
				c2.286,0.916,3.2,2.742,3.2,5.029c0,2.285-1.371,4.115-3.657,4.572l0,0c0.457,0.457,1.372,1.371,2.286,3.199l2.742,5.486h-5.028
				l-2.286-4.113c-0.914-1.83-1.371-2.287-1.828-2.744h-0.915v6.857h-4.114V838.811z M607.279,889.561V692.963h-61.722
				c2.743,3.199,6.4,6.857,6.856,7.314c0.915,0.916,2.286,3.658,2.286,3.658l0.914,3.201c0,0-1.828-0.459-1.828,0.914
				c0,0.914,2.743,4.572,2.743,4.572l-0.457,1.83c0,0-3.201,1.371-2.286,6.4c0,0,0.457,4.113-0.456,5.027
				c0,0-5.029,0.916-5.029,4.572c0,4.115,0.457,3.201,0.457,3.201s0,1.371-1.829,2.285s-3.2,0.457-3.2,0.457s-3.2,4.115-3.2,5.486
				c0,1.828,0.457,2.742-4.114,3.658c-4.572,0.914-5.029,1.828-5.486,3.656c-0.457,2.287-0.914,3.201-2.286,4.115
				s-2.743-0.457-4.572,0c-1.828,0.457-4.572,2.287-5.485,4.113c-0.914,1.83-3.2,3.658-5.029,4.115
				c-1.371,0-4.114-2.285-8.229,0.914l-0.914,2.744l-4.114,1.828c0,0-3.2-2.285-5.486-1.828s-6.858,3.201-6.858,3.201
				s0,0.914-2.285,0.457c-2.286-0.457-4.571-1.373-6.4-0.916c-1.829,0-4.572,1.83-4.572,1.83s-2.286,0.914-3.2,0
				s-1.828-2.744-4.571-2.744s-4.115,1.83-4.115,1.83s-3.2,0.457-4.114-3.201c-0.914-3.201-4.572-1.828-6.4-1.371
				s-3.2,2.742-4.571-2.287c-1.372-5.029-3.201-3.656-5.029-3.656c-1.829,0-3.201,0-3.201-4.115c0-3.656-1.828-3.199-2.284-2.742
				l-0.459,0.914c0,0-2.284-1.828-2.284-5.029c0,0-1.829-18.289,8.687-30.633c9.145-10.516,21.031-18.746,32.461-23.775H364.503
				v197.057h242.775V889.561z"/>
		</g>
	</g>
	<g>
		<g>
			<defs>
				<rect id="SVGID_49_" x="11.999" y="589.176" width="595.278" height="302.213"/>
			</defs>
			<clipPath id="SVGID_11_">
				<use xlink:href="#SVGID_49_"  overflow="visible"/>
			</clipPath>
			<path clip-path="url(#SVGID_11_)" fill="#010000" d="M544.642,701.191c0-0.457,0-0.457,0-0.914
				C544.642,700.277,544.642,700.734,544.642,701.191c2.743,12.803-11.887,24.232-16.002,26.975
				c-4.115,2.744,0.914-3.656,0.914-3.656C544.642,713.537,545.099,703.936,544.642,701.191 M542.814,693.877
				c1.828,4.115,3.657,12.344-5.944,22.859c-6.399,6.857-17.831,15.088-37.032,22.402c-24.232,9.145-39.777,9.602-48.921,7.314
				c-16.917-4.113-13.26-19.658-13.26-19.658c-8.688,26.518,26.976,32.461,64.467,17.83
				C524.983,735.025,555.156,715.365,542.814,693.877 M541.442,691.133c0.457,0.914,0.914,1.828,1.372,2.285
				C541.899,692.047,540.985,691.133,541.442,691.133"/>
		</g>
	</g>
	<g>
		<g>
			<defs>
				<rect id="SVGID_51_" x="11.999" y="589.176" width="595.278" height="302.213"/>
			</defs>
			<clipPath id="SVGID_12_">
				<use xlink:href="#SVGID_51_"  overflow="visible"/>
			</clipPath>
			<path clip-path="url(#SVGID_12_)" fill="#010000" d="M438.114,724.967c0,0,9.603-20.574,43.893-34.291
				c33.833-12.803,54.863-6.4,58.979-1.828l0.457,0.457c3.657,4.113-10.516-19.203-60.351,0
				C443.143,703.936,438.114,724.967,438.114,724.967"/>
		</g>
	</g>
	<g>
		<g>
			<defs>
				<rect id="SVGID_53_" x="11.999" y="589.176" width="595.278" height="302.213"/>
			</defs>
			<clipPath id="SVGID_13_">
				<use xlink:href="#SVGID_53_"  overflow="visible"/>
			</clipPath>
			<path clip-path="url(#SVGID_13_)" fill="#010000" d="M523.611,739.141L523.611,739.141L523.611,739.141 M435.369,732.738
				c0-0.914,0-1.371,0-1.371C435.369,731.824,435.369,732.281,435.369,732.738 M554.242,714.908
				c-1.372,1.371-0.914,4.115-0.914,4.115c-0.915-0.916-3.657-5.488-2.742-5.945C551.499,712.621,554.242,714.908,554.242,714.908
				 M550.586,725.424c0,0-2.286,2.285-2.743,3.656c0,0-2.286-4.113-0.915-5.484C548.3,722.225,550.586,725.424,550.586,725.424
				 M544.185,735.939c-2.286,0.457-3.657,5.029-3.657,5.029c-0.458-0.457-2.743-5.486-0.915-6.857
				C541.442,732.738,544.185,735.939,544.185,735.939 M535.04,745.084c-3.2,0.457-4.571,4.57-4.571,4.57
				c-1.829-4.57-1.829-7.314-0.457-7.771C531.383,741.426,535.04,745.084,535.04,745.084 M525.897,751.941
				c0,0-5.029,0.916-6.401,2.744c0,0-1.827-5.029,0-6.4C520.866,746.912,524.068,750.113,525.897,751.941 M510.809,757.428
				l-1.829-0.457c0,0,1.829,2.285,1.372,3.201c0,0-2.743,0-5.029,2.285c0,0-0.457-2.744-0.457-4.115c0,0-0.915-2.285,1.371-3.199
				C507.609,754.229,510.809,757.428,510.809,757.428 M496.178,763.828c0,0-5.029,0.914-6.4,2.287c0,0-1.372-5.486,1.371-6.859
				C493.435,757.885,496.178,763.828,496.178,763.828 M484.29,767.943c0,0-3.657-1.828-6.857-0.457c0,0-0.914-5.943,1.372-6.857
				C481.091,759.713,484.29,767.029,484.29,767.943 M470.574,767.029c0.457,1.371-2.286-1.83-5.486-0.457
				c0,0-0.914-4.115,1.829-4.572C469.659,761.543,470.574,765.658,470.574,767.029 M456.859,763.828c0,0-1.829-0.457-3.657-0.457
				c0,0,0-3.199,0.914-4.115c0.914-0.914,1.829,0,2.286,2.287L456.859,763.828z M446.8,760.172c0,0-3.2-3.201-4.114-3.201
				c0,0,0.914-4.572,1.828-4.113C445.886,753.771,446.8,757.885,446.8,760.172 M556.987,708.049c0,0-2.286-5.484-3.657-7.314
				c-1.371-1.371-9.145-11.43-12.345-11.887c0,0,3.657,4.115,5.029,6.857c0,0,5.486,3.658,7.771,7.316l1.371,3.199
				c0,0-3.2-4.115-6.399-5.943c-3.2-1.83-0.457,0.457,0,1.371c0.457,1.373,2.285,4.572,2.285,4.572s-2.285-1.371-3.2-1.371
				c-0.914-0.457-0.457,0.457,0.458,1.371c0.914,0.916,5.485,4.115,6.399,5.486s0.914,3.201,0.914,3.201s-4.57-6.402-8.229-4.572
				c0,0-0.914,1.828,0.915,4.572l-2.286-1.373c0,0-0.915,0,0,0.916c0.914,1.371,5.942,5.486,6.856,7.771c0,0,0,2.742-0.457,2.742
				s-5.485-6.4-7.771-6.4c-2.743,0-0.457,5.029,0,5.943s1.829,3.658,1.829,3.658s-4.115-4.115-5.943-4.572
				c0,0,0.914,0.459,2.285,2.285c1.372,1.83,1.372,1.373,5.029,7.316c0.458,0.914-0.457,1.828-0.914,2.285s-4.572-4.115-6.858-5.486
				c-2.285-1.828-4.57-1.828-4.114,1.828c0,3.658,0.914,4.572,0.914,4.572s-4.113-5.486-4.571-5.029
				c-0.457,0.457,2.285,2.744,6.4,8.23c0,0,1.829,2.285,1.829,3.656c-0.458,1.371-1.372,1.371-2.286,1.371
				c-0.457,0-7.314-10.516-10.516-8.229c-2.286,1.83-0.915,5.029-0.458,6.857c0.458,0.914,0.458,1.371,0.458,1.371
				s-0.458-0.457-0.458-1.371c-0.914-1.371-2.285-3.656-3.657-4.113c0,0,0.457,0.914,2.743,4.113c3.2,5.943,4.115,7.773,4.115,7.773
				s0,0.914-1.372,1.371c-1.371,0.457-4.572-8.23-10.06-8.688c-5.028-0.457-2.286,10.516-2.286,10.516s-4.113-8.688-4.57-9.145
				c-0.458,0-0.915,0.457-0.458,1.828c0.458,1.373,4.571,11.889,4.571,11.889s-0.457,1.371-2.742,1.371
				c0,0-5.029-12.801-9.603-9.602c0,0-2.743,1.828,0.458,12.346c0,0,0.457,1.371-2.286,1.828h-0.915c0,0-4.57-12.346-5.942-13.26
				c0,0,0.914,3.201,1.372,6.4c0,0-4.572-5.027-6.858-3.656c-2.743,0.914-3.2,5.484-1.829,13.258c0,0-0.457,0.459-2.286,0.459
				c0,0-1.828-5.488-3.2-11.432c-0.457-2.285-0.457-2.742-0.457-2.742s-0.456,5.027,0.457,7.314c0,0-2.285-5.029-5.028-4.115
				c-2.743,0.916-3.2,6.4-2.743,11.432c0,0-0.457,0.914-1.829,0.914c-0.914,0-2.286-6.859-2.743-12.803v-1.371
				c0,0-0.457,4.57-0.457,6.857c0,1.828-0.914-5.029-4.572-4.115c-3.656,0.457-3.199,10.061-3.199,10.061s-1.829,1.828-2.743-0.459
				c-0.914-1.828-0.914-9.145-0.914-10.973l-0.458,1.828c0,0-2.285-3.199-4.114-3.656s-2.286,1.371-2.743,9.145
				c0,0-1.829,1.828-3.199-0.457c0,0,0-7.314,0-9.602c0-1.83,0-3.658-0.459-2.287c-0.456,1.373-0.456,3.201-0.456,3.201
				s-1.828-3.658-2.743-3.658c-1.371,0-2.743,2.744-2.743,6.857c0,0-1.371,0.457-1.371-1.371s0.457-8.229,0.457-8.229l-0.915,0.914
				c0,0,0-3.658-1.371-4.572c-0.914-0.914-1.829,6.4-1.829,7.771c0,0-1.371-1.371-1.371-5.027c0-3.658,0.914-10.975,0.914-10.975
				s-0.457-1.828-0.457-3.199c-0.457,3.199-1.372,11.887-0.915,14.631c0,0-0.457,1.828,0.458,2.742c0,0,0.457,2.744,1.828,3.658
				c0,0,0.458-0.914,1.372-1.371c0,0,1.371,1.828,1.829,3.656c0,1.828,0.457,1.828,1.371,2.742c0.457,0.457,1.372,0,2.286-0.457
				c0.914-0.914,2.743,0.457,3.656,1.83c0.915,1.828,0.915,3.199,1.372,3.656c0.914,0.457,3.2,1.373,3.2,1.373s2.286-1.373,3.2-1.83
				c0.915-0.457,3.201,0.457,3.658,2.287c0.457,1.828,0.914,2.285,2.286,2.285c1.371,0.457,2.286,0.457,3.2-0.457
				c0.913-0.914,2.742-1.828,4.114-1.828c1.371,0.457,3.657,1.828,3.657,2.742c0.457,0.457,0.914,0.914,2.286,0.914
				s1.829,0.457,2.286-0.457s1.829-2.285,3.657-2.285c2.285,0,2.742,0,4.571,1.371c0,0,0,0.457,1.372,0.457
				c1.371,0,3.2-0.457,3.2-0.457s0-0.457,1.371-1.828c0,0,1.372-1.373,3.201-1.83c1.828-0.457,3.657,0,4.571,0.916
				c0.914,0.914,0.914,0.914,2.285,0.457c1.372-0.457,3.658-1.373,4.115-1.83c0.914-0.457,0.914-2.742,2.743-3.656
				c1.829-0.916,3.657-0.457,5.029,0c1.829,0.457,2.286,0,3.199-0.916c1.372-0.914,1.829-1.371,2.743-2.285s0.457-2.742,2.743-3.656
				c1.829-0.914,5.029-0.914,5.944-0.914c0.914,0.457,0.914,0.457,2.285-0.916c1.828-0.914,1.372-0.914,1.372-1.828
				s0.456-3.201,2.285-4.115c2.286-0.914,3.2-0.914,4.572-1.371c1.371-0.457,2.285-0.914,2.743-2.285
				c0.457-1.373,0-4.115,1.371-5.029c1.372-0.914,2.743-1.828,3.658-1.828c1.371,0,1.371,0,2.286-1.373
				c0.913-1.371,1.827-1.828,1.37-2.742s-1.37-3.658,0-5.029c1.829-1.371,2.286-1.371,3.658-0.914c0,0,1.371-0.914,1.371-2.285
				v-1.83c0,0-1.829-2.742-0.914-5.029c0.914-2.742,2.743-1.371,2.743-1.371s0.457-2.287,0.457-3.201c0,0-1.829-2.287-1.829-3.658
				C555.156,706.678,556.987,708.049,556.987,708.049"/>
		</g>
	</g>
	<g>
		<g>
			<defs>
				<rect id="SVGID_55_" x="11.999" y="589.176" width="595.278" height="302.213"/>
			</defs>
			<clipPath id="SVGID_14_">
				<use xlink:href="#SVGID_55_"  overflow="visible"/>
			</clipPath>
		</g>
	</g>
</g>
<path fill="#F0F2DC" d="M506.311,625.008h-7.087v5.797h7.087V625.008z M506.311,645.624h-7.087v5.8h7.087V645.624z M472.163,623.075
	h5.797c1.934,0,3.222,0.643,3.864,1.288c0.646,0.645,1.289,1.933,1.289,3.863c0,1.29-0.644,2.578-1.289,3.868
	c-0.643,0.644-2.574,1.286-4.509,1.286h-5.798v-10.306H472.163z M478.604,637.892c1.935,0,3.221,0.646,3.866,1.291
	c0.644,1.288,1.288,2.578,1.288,3.866v2.575c0,1.291,0,1.936,0,3.224s0.645,1.934,1.289,2.576h7.087v-0.646
	c-0.644-0.643-1.288-1.288-1.288-2.576c0-1.29-0.644-1.936-0.644-3.223v-1.934c0-1.933-0.646-3.866-1.29-5.154
	c-0.645-1.29-2.576-2.578-4.51-3.223c1.934-0.644,3.222-1.934,3.865-3.222c0.645-1.287,1.289-2.575,1.289-4.509
	c0-3.221-1.289-5.799-3.221-7.087c-1.934-1.933-5.154-2.576-9.021-2.576h-12.885v34.148h7.085v-13.532H478.604L478.604,637.892z
	 M456.054,631.45h-14.175v-8.375h16.108v-5.154h-23.194v34.147h23.194v-5.799h-16.108v-9.665h14.175V631.45L456.054,631.45z
	 M426.415,617.921h-7.086v23.192l0,0l-13.53-23.192h-6.443v34.147h6.443v-23.839l0,0l13.53,23.194h7.086V617.921z M392.913,617.921
	H367.14v5.154h9.666v28.349h7.087v-28.349h9.018v-5.154H392.913z M343.301,623.075h5.799c1.934,0,3.222,0.643,3.866,1.288
	c0.644,0.645,1.288,1.933,1.288,3.863c0,1.29-0.645,2.578-1.288,3.868c-0.645,1.286-2.578,1.286-4.51,1.286h-5.8v-10.306H343.301z
	 M349.743,637.892c1.934,0,3.223,0.646,3.866,1.291c0.645,0.643,1.29,2.578,1.29,3.866v2.575c0,1.291,0,1.936,0,3.224
	s0.644,1.934,1.288,2.576h7.086v-0.646c-0.645-0.643-1.289-1.288-1.289-2.576c0-1.29-0.645-1.936-0.645-3.223v-1.934
	c0-1.933-0.645-3.866-1.289-5.154c-0.642-1.29-2.575-2.578-4.508-3.223c1.933-0.644,3.222-1.934,3.866-3.222
	c0.642-1.287,1.286-2.575,1.286-4.509c0-3.221-1.286-5.799-3.22-7.087c-1.933-1.933-5.154-2.576-9.02-2.576H335.57v34.148h7.085
	v-13.532H349.743L349.743,637.892z M315.597,625.65L315.597,625.65l4.509,13.532h-8.374L315.597,625.65z M323.972,651.424h7.088
	l-11.599-34.148h-7.085l-11.598,34.148h7.088l2.576-7.088h11.597L323.972,651.424z M280.803,623.075h6.443
	c1.932,0,3.221,0.643,4.508,1.288c1.29,1.287,1.29,2.575,1.29,3.863c0,1.29-0.646,3.221-1.29,3.868
	c-1.288,1.286-2.576,1.286-4.508,1.286h-6.443V623.075z M287.891,639.183c3.864,0,7.085-1.291,9.019-3.224
	c1.932-1.934,3.222-4.509,3.222-7.729c0-3.222-1.29-5.8-3.222-7.732c-1.934-1.934-5.155-3.222-9.019-3.222h-13.533v34.148h7.087
	v-12.241H287.891L287.891,639.183z M265.339,631.45h-14.176v-8.375h16.107v-5.154h-23.194v34.147h23.194v-5.799h-16.107v-9.665
	h14.177L265.339,631.45L265.339,631.45z M230.547,651.424h8.377l-12.244-18.043l11.598-15.462h-8.376l-9.019,14.176h-3.221v-14.176
	h-7.087v34.149h7.087v-14.821h3.864L230.547,651.424z M202.198,617.921h-7.087v23.192l0,0l-13.532-23.192h-7.087v34.147h7.087
	v-23.839l0,0l13.532,23.194h7.087V617.921z M151.298,609.543h-6.442v4.512h6.442V609.543z M162.895,609.543h-6.443v4.512h6.443
	V609.543z M154.518,625.65L154.518,625.65l4.511,13.532h-8.376L154.518,625.65z M162.895,651.424h7.087l-11.599-34.148h-7.086
	L139.7,651.424h7.087l2.576-7.088h11.597L162.895,651.424z M115.217,623.075h5.798c1.933,0,3.22,0.643,3.864,1.288
	c0.645,0.645,1.29,1.933,1.29,3.863c0,1.29-0.645,2.578-1.29,3.868c-0.644,0.644-2.575,1.286-4.508,1.286h-5.8v-10.306H115.217z
	 M121.658,637.892c1.933,0,3.22,0.646,3.865,1.291c0.645,0.643,1.289,2.578,1.289,3.866v2.575c0,1.291,0,1.936,0,3.224
	s0.644,1.934,1.289,2.576h7.086v-0.646c-0.644-0.643-1.287-1.288-1.287-2.576c0-1.29-0.644-1.936-0.644-3.223v-1.934
	c0-1.933-0.646-3.866-1.29-5.154c-0.644-1.29-2.577-2.578-4.51-3.223c1.933-0.644,3.222-1.934,3.866-3.222
	c0.644-1.287,1.287-2.575,1.287-4.509c0-3.221-1.287-5.799-3.22-7.087c-1.934-1.933-5.155-2.576-9.02-2.576h-12.888v34.148h7.087
	v-13.532H121.658L121.658,637.892z M102.329,617.921H76.557v5.154h9.665v28.349h7.087v-28.349h9.663v-5.156h-0.644V617.921z
	 M69.469,631.45H55.295v-8.375h16.11v-5.154H48.209v34.147h23.196v-5.799h-16.11v-9.665h14.177v-5.154H69.469z M40.476,634.025
	H27.588v4.512h5.8v6.442c-0.644,0.645-1.289,1.287-1.933,1.287c-1.29,0-1.934,0.648-3.867,0.648c-1.931,0-3.864-0.648-5.152-2.579
	c-1.288-1.287-1.932-3.865-1.932-6.444v-7.087c0-2.575,0.644-4.509,1.932-6.441c0.644-1.288,2.577-1.934,4.509-1.934
	s3.22,0.646,4.51,1.29c1.289,1.288,1.289,2.576,1.933,4.51h6.443l0,0c0-3.222-1.289-5.8-3.222-7.732
	c-2.578-2.576-5.799-3.222-9.664-3.222c-3.865,0-7.087,1.291-9.663,3.866c-2.578,2.578-3.866,5.802-3.866,9.666v7.087
	c0,3.866,1.288,7.729,3.866,10.308c2.576,2.579,5.798,3.866,10.306,3.866c3.222,0,5.8-0.645,8.377-1.29
	c1.932-1.288,3.866-1.933,4.51-3.863L40.476,634.025L40.476,634.025z"/>
</svg>
