<?xml version="1.0" encoding="utf-8"?>
<!-- Generator: Adobe Illustrator 17.1.0, SVG Export Plug-In . SVG Version: 6.00 Build 0)  -->
<!DOCTYPE svg PUBLIC "-//W3C//DTD SVG 1.1//EN" "http://www.w3.org/Graphics/SVG/1.1/DTD/svg11.dtd">
<svg version="1.1" id="Ebene_1" xmlns="http://www.w3.org/2000/svg" xmlns:xlink="http://www.w3.org/1999/xlink" x="0px" y="0px"
	 viewBox="0 0 708.7 144.2" enable-background="new 0 0 708.7 144.2" xml:space="preserve">
<g>
	<path fill="#FDFDFD" d="M455.1,104.7c1.4,9.7,9.4,14.2,18.5,14.2c10.1,0,17-7.9,22.2-7.9c4.2,0,8,4.2,8,8.5
		c0,8.5-17.4,16.6-32,16.6c-22.1,0-36.8-16.1-36.8-37.8c0-19.9,14.4-38,35.2-38c21.3,0,35.3,19.4,35.3,35.7c0,5.9-2.6,8.7-8.6,8.7
		H455.1z M485.9,91.6c-1.1-8.6-6.5-15-15.7-15c-8.7,0-14.6,6.7-15.5,15H485.9z"/>
	<path fill="#FDFDFD" d="M0,40.4c0-6.5,4.1-10.9,9.8-10.9c5.7,0,9.8,4.4,9.8,10.9v26.7c5.2-4.5,11.9-6.8,18.7-6.8
		C59.5,60.3,70,80.1,70,99.1c0,18.6-12.5,37-32.3,37c-6.7,0-14.3-3-18-9c-1.2,5.2-4.4,8.2-9.8,8.2c-5.7,0-9.8-4.4-9.8-10.9V40.4z
		 M35,118.1c10.2,0,15.3-10.6,15.3-19.8c0-9.3-5-20-15.3-20c-10.5,0-15.4,9.8-15.4,19.4C19.6,107.2,24.3,118.1,35,118.1"/>
	<path fill="#FDFDFD" d="M100,42.4c0,6.1-4.9,11.3-11,11.3c-5.9,0-11-5.3-11-11.3c0-5.6,5.2-10.8,11-10.8
		C94.9,31.6,100,36.7,100,42.4 M79.2,72c0-6.5,4.1-10.9,9.8-10.9c5.7,0,9.8,4.4,9.8,10.9v52.4c0,6.5-4.1,10.9-9.8,10.9
		c-5.7,0-9.8-4.4-9.8-10.9V72z"/>
	<path fill="#FDFDFD" d="M207.9,72c0-6.5,4.1-10.9,9.8-10.9c5,0,8.3,2.7,9,7.4c4.8-5.2,11.1-8.2,18.3-8.2c8.2,0,15.1,3.4,20.3,10
		c5.5-6.3,14-10,20.7-10c15.9,0,26.9,9.3,26.9,26.4v37.6c0,6.5-4.1,10.9-9.8,10.9c-5.7,0-9.8-4.4-9.8-10.9V90.1
		c0-7.9-4.4-13.5-11.4-13.5c-7.2,0-11.6,5.6-11.6,13.5v34.2c0,6.5-4.1,10.9-9.8,10.9c-5.7,0-9.8-4.4-9.8-10.9V90.1
		c0-7.9-4.4-13.5-11.4-13.5c-8,0-11.6,5.6-11.6,13.5v34.2c0,6.5-4.1,10.9-9.8,10.9s-9.8-4.4-9.8-10.9V72z"/>
	<path fill="#FDFDFD" d="M370.9,91.6h-31.2c1-8.3,6.8-15,15.5-15C364.4,76.6,369.9,83.1,370.9,91.6 M382.3,73.8
		c-6.2-7.8-15.6-13.5-27.1-13.5c-20.7,0-35.2,18.1-35.2,38c0,21.7,14.7,37.8,36.8,37.8c14.6,0,32-8.2,32-16.6c0-4.2-3.8-8.5-8-8.5
		c-5.2,0-12.1,7.9-22.2,7.9c-9.1,0-17.2-4.5-18.5-14.2H382c6,0,8.6-2.9,8.6-8.7c0-5.6-1.7-11.4-4.6-16.8l-1.2,1.4l-4.7-0.2l-3-1.5
		l4.5-3.8L382.3,73.8z"/>
	<path fill="#FDFDFD" d="M171.6,78.5c-1.8-3.7-4.2-7.6-7.1-10.8c-2.5-2.8-6.3-6.6-9.8-8.2c-2.5,1.3-5.4,3.8-8,6.2
		c-2.4,2.2-4.6,5-6.4,7.5c-3.9,5.6-6.8,12.1-7.3,20.3c-0.7,11.6,4.1,20.1,8.2,27.6c-8.4-5.4-15-18.2-16.2-22c-1.2-3.6-2-7.3-2-7.3
		s-1.3,1.9-1.6,2.9c-4.1,13.2,0.4,29.9,10.9,38.5c10.4,8.6,24.6,9.3,36,4.7c9.7-3.9,16.3-12.9,18.1-24.5c1.9-12-1.7-22.8-6.3-30
		c-0.6-1-2.5-2.7-2.5-2.7s0.2,2.2,0.4,3.3c1.7,8.8-1,19-3.9,24.3C177.5,98.5,175.3,86.4,171.6,78.5 M151.1,53.9
		c12.9-1,25.6,4.6,33,11.3c7.4,6.8,14,17.1,15,30.3c1.2,14.7-4.3,25.8-11.3,33.6c-7,7.8-16.7,14-30.3,15
		c-14.6,1.1-26.1-4.6-33.7-11.4c-7.8-7-14.1-17.6-14.9-30.4c-0.9-14.6,4.8-26,11.6-33.5C127.5,61,137.2,55,151.1,53.9"/>
	<path fill="#FDFDFD" d="M513,70.9c0-6.5,5.2-9.8,10.1-9.8c5.2,0,9.5,1.9,9.5,8.2h0.3c3.7-5.5,7.6-8.2,13.8-8.2
		c4.8,0,9.5,3.4,9.5,10.5c0,6.4-5.9,6.8-11.7,9.5c-5.9,2.7-11.9,5.3-11.9,13.1v30.1c0,6.5-4.1,10.9-9.8,10.9
		c-5.7,0-9.8-4.4-9.8-10.9V70.9z"/>
	<path fill="#FDFDFD" d="M557.8,114.8c5.9,0,10.6,4.8,10.6,10.6c0,5.9-4.8,10.6-10.6,10.6c-5.9,0-10.6-4.8-10.6-10.6
		C547.2,119.6,551.9,114.8,557.8,114.8"/>
	<path fill="#FDFDFD" d="M629.4,82.1c-4.9,0-9.3-3.8-15.5-3.8c-11.2,0-16.5,10-16.5,20c0,9.7,5.9,19.8,16.5,19.8
		c4.9,0,12.3-4.1,14.6-4.1c4.6,0,8.4,4,8.4,8.6c0,10.1-16.9,13.5-24,13.5c-21.1,0-35.2-17.3-35.2-37.8c0-19.9,14.5-38,35.2-38
		c7.8,0,24,2.9,24,12.4C636.9,76.8,634.1,82.1,629.4,82.1"/>
	<path fill="#FDFDFD" d="M644,40.4c0-6.5,4.1-10.9,9.8-10.9c5.7,0,9.8,4.4,9.8,10.9v26.7h0.3c4.1-5,11.7-6.8,17.9-6.8
		c15.4,0,26.9,9.8,26.9,26.4v37.6c0,6.5-4.1,10.9-9.8,10.9c-5.7,0-9.8-4.4-9.8-10.9V90.1c0-9.1-5.7-13.5-12.8-13.5
		c-8,0-12.5,5.9-12.5,13.5v34.2c0,6.5-4.1,10.9-9.8,10.9c-5.7,0-9.8-4.4-9.8-10.9V40.4z"/>
	<path fill="#FDFDFD" d="M402.6,82.3l5.6-8.1l2.2,12.1l6.4,6.2V74.7l1.5,1.3l3.1,4.3v3.1v41c0,6.5-4.1,10.9-9.8,10.9
		c-5.7,0-9.8-4.4-9.8-10.9v-42L402.6,82.3z"/>
	<path fill="none" stroke="#FDFDFD" stroke-width="2.616" stroke-miterlimit="10" d="M450.6,65.8c-3.1-2-3.6-4.4-3.6-4.4
		s3.9-0.4,6-0.4c2.1,0,6.6-3.1,6.6-3.1s-5.7-1.6-8.9-2.5c-3.3-0.9-5.8-2.9-5.8-2.9s5-1.7,9.1-4.1c4-2.4,3.9-6.7,3.9-6.7
		s-2.8,1.2-3.9,2.1c-1,0.8-12.9-0.3-12.9-0.3s2.5-1.9,4.7-3.2c2.2-1.3,9.7-4.4,9.7-4.4s-5.8-2.4-11.4-3c-5.5-0.6-7.5,0.6-7.5,0.6
		s6.1-6.1,8.2-9.2c2.1-3.1,1.8-5,1.8-5s-7.5,2.3-11.3,3.5c-3.8,1.2-5.5,2.4-5.5,2.4s1-2.5,1.6-4.1c0.6-1.6-0.5-4.4,1.8-7.2
		c2.3-2.8,1.7-6.1,1.7-6.1s-7.5,0.8-10.8,2.2c-3.3,1.5-5.7,10.3-5.7,10.3s-0.6-8.3-0.5-10.1c0.1-1.9-2.9-8.5-2.9-8.5
		s-1.5,0.6-4.5,3.6c-2.9,3-4.1,14.7-4.1,14.7s-2.5-4.2-4.4-6.9c-1.9-2.7-11.3-8-11.3-8s1.2,4.7,2.6,10.3c0.9,3.6,2,10.7,2,10.7
		s-5.5-0.2-10.2-2.9c-4.7-2.6-7.5-8.6-7.5-8.6s0.8,8.9,1.5,11.4c0.7,2.5,9.2,10.5,9.2,10.5s-8.8-5.5-11.7-6.1
		c-2.8-0.5-12.8,0-12.8,0s7.2,6.5,9,9.2c1.8,2.7,13,8.8,13,8.8s-8.7,0.4-16.2,2.7c-7.5,2.2-6.5,7.8-6.5,7.8s12.4,4,16.5,3.8
		c4.1-0.1,7.5-1,7.5-1s-2.3,7.3-3.3,10.1c-1,2.8-10.2,11.3-10.2,11.3s6.8,1,13-1c6.2-2,12.2-7.3,12.2-7.3s-1.3,7.7-1.1,9.2
		c0.2,1.5-1.4,12.5-1.4,12.5s5.7-10.5,7.1-13.4c1.4-2.9,4.6-7.3,4.6-7.3s0.9,11.3,2.8,15c2,3.7,7.6,6,7.6,6s-2-10.1-2.3-14.3
		c-0.4-4.2,0.4-6.5,0.4-6.5s3,5.3,5.4,7.1c2.4,1.7,11.7,10.3,11.7,10.3s-2-5.3-2.2-6.8c-0.2-1.5,0.1-3.4-0.5-7.4
		c-0.6-4.1-2.7-7.3-2.7-7.3s6,5.2,9.5,6c3.4,0.7,7.5,4.6,7.5,4.6s-1.1-4.6-3-8.3c-1.8-3.7-5-5.5-5-5.5s5.6,1.2,9.3,1.4
		c3.7,0.1,6.5,2.1,6.5,2.1S453.8,67.8,450.6,65.8z"/>
	<path fill="#FDFDFD" d="M412.1,32.1c-8.9,0-16.8,7.9-16.8,16.4c0,9.1,7.9,17.2,16.8,17.2c9.3,0,16.8-7.9,16.8-17.2
		C428.9,39.8,421,32.1,412.1,32.1"/>
</g>
</svg>
