<?xml version="1.0" encoding="utf-8"?>
<!-- Generator: Adobe Illustrator 15.1.0, SVG Export Plug-In . SVG Version: 6.00 Build 0)  -->
<!DOCTYPE svg PUBLIC "-//W3C//DTD SVG 1.1//EN" "http://www.w3.org/Graphics/SVG/1.1/DTD/svg11.dtd">
<svg version="1.1" id="Ebene_1" xmlns="http://www.w3.org/2000/svg" xmlns:xlink="http://www.w3.org/1999/xlink" x="0px" y="0px"
	 viewBox="10.786 56.861 557.627 176.611"
	 enable-background="new 10.786 56.861 557.627 176.611" xml:space="preserve">
<g>
	<g>
		<g>
			<path fill="#F0F2DC" d="M10.786,116.927l19.275-1.345c0.448,3.138,1.345,5.379,2.689,7.172c2.241,2.689,4.931,4.034,8.965,4.034
				c3.138,0,5.379-0.896,6.724-2.241c1.793-1.345,2.241-3.138,2.241-4.931c0-1.793-0.896-3.138-2.241-4.482
				s-4.931-2.689-10.31-4.034c-8.965-2.241-15.241-4.482-19.275-8.069c-4.034-3.138-5.827-7.62-5.827-12.999
				c0-3.586,0.896-6.724,3.138-9.862c1.793-3.138,4.931-5.379,8.966-7.172c4.034-0.896,9.413-1.793,16.585-1.793
				c8.517,0,14.792,1.793,19.274,4.931c4.483,3.138,7.173,8.069,8.069,15.241l-19.275,1.345c-0.448-3.138-1.793-4.931-3.138-6.724
				c-1.793-1.345-4.034-2.241-6.724-2.241c-2.241,0-4.034,0.448-5.379,1.345c-1.793,0.896-2.241,2.241-2.241,3.586
				c0,0.896,0.448,1.793,1.345,2.689s3.138,1.793,6.724,2.241c8.965,1.793,15.24,4.034,19.274,5.827
				c4.035,1.793,6.725,4.482,8.518,7.172c1.793,3.138,2.689,6.275,2.689,9.861c0,4.035-1.345,8.069-3.586,11.655
				s-5.828,6.275-9.862,8.068s-9.413,2.689-16.137,2.689c-11.206,0-19.275-2.241-23.31-6.724
				C13.924,129.03,11.683,123.651,10.786,116.927"/>
			<path fill="#F0F2DC" d="M125.539,111.548l17.931,5.379c-1.346,4.931-3.139,9.414-5.828,12.551
				c-2.689,3.586-5.827,5.827-9.861,7.62s-8.517,2.689-14.792,2.689c-7.172,0-13-0.896-17.482-3.138s-8.517-5.827-11.654-11.206
				s-4.931-12.103-4.931-20.171c0-10.758,3.138-19.275,8.965-25.103c5.827-5.827,13.896-8.965,24.654-8.965
				c8.517,0,14.792,1.793,19.723,4.931c4.931,3.586,8.517,8.517,10.759,15.689l-17.931,4.034c-0.448-1.793-1.345-3.586-1.793-4.482
				c-1.345-1.345-2.689-2.689-4.034-3.586c-1.793-0.896-3.586-1.345-5.379-1.345c-4.482,0-8.068,1.793-10.758,5.379
				c-1.794,2.689-2.69,7.172-2.69,13c0,7.172,0.896,12.551,3.139,15.241c2.241,2.689,5.379,4.034,9.413,4.034
				s6.724-0.896,8.965-3.138C122.85,118.72,124.643,115.583,125.539,111.548"/>
			<polygon fill="#F0F2DC" points="153.331,72.55 173.95,72.55 173.95,95.411 196.364,95.411 196.364,72.55 216.534,72.55 
				216.534,138.892 196.364,138.892 196.364,111.997 173.95,111.997 173.95,138.892 153.331,138.892 			"/>
			<path fill="#F0F2DC" d="M271.222,127.686h-23.31l-3.138,10.758h-21.067l25.102-66.341h22.413l25.102,66.341h-21.516
				L271.222,127.686z M243.878,56.861h11.654v11.207h-11.654V56.861z M266.74,113.341l-7.173-23.757l-7.172,23.757H266.74z
				 M263.154,56.861h12.103v11.207h-12.103V56.861z"/>
			<path fill="#F0F2DC" d="M302.151,72.55h34.067c7.62,0,12.999,1.793,16.586,5.379c3.586,3.586,5.379,8.517,5.379,15.241
				s-1.793,12.103-5.827,15.689c-4.035,3.586-10.311,5.827-18.379,5.827h-11.206v24.654h-20.62V72.55L302.151,72.55z
				 M322.771,100.79h4.931c4.034,0,6.724-0.896,8.517-2.241s2.241-3.138,2.241-5.379s-0.896-4.034-2.241-5.379
				s-4.034-2.241-7.62-2.241h-5.827V100.79z"/>
			<path fill="#F0F2DC" d="M368.941,72.55h34.067c7.62,0,12.999,1.793,16.585,5.379s5.379,8.517,5.379,15.241
				s-1.793,12.103-5.827,15.689s-10.31,5.827-18.378,5.827H389.56v24.654h-20.619V72.55L368.941,72.55z M389.56,100.79h4.932
				c4.034,0,6.724-0.896,8.517-2.241s2.241-3.138,2.241-5.379s-0.896-4.034-2.241-5.379s-4.034-2.241-7.62-2.241h-5.828V100.79z"/>
			<polygon fill="#F0F2DC" points="435.731,72.55 490.865,72.55 490.865,86.446 456.35,86.446 456.35,97.204 488.176,97.204 
				488.176,110.652 456.35,110.652 456.35,123.651 491.762,123.651 491.762,138.892 435.731,138.892 			"/>
			<path fill="#F0F2DC" d="M502.968,138.892V72.55h34.067c6.275,0,11.206,0.448,14.344,1.793c3.139,0.896,5.828,3.138,8.069,5.827
				c2.241,3.138,3.138,6.724,3.138,10.758c0,3.586-0.896,6.724-2.241,9.413c-1.793,2.689-3.586,4.931-6.275,6.276
				c-1.794,0.896-4.035,1.793-7.173,2.689c2.241,0.896,4.035,1.793,5.379,2.241c0.896,0.448,1.794,1.793,3.139,3.586
				s2.241,3.138,2.689,4.034l9.861,19.275h-23.31l-10.758-20.171c-1.345-2.689-2.689-4.482-3.586-4.931
				c-1.345-0.896-3.138-1.345-4.931-1.345h-1.793v26.895H502.968z M523.588,99.445h8.517c0.896,0,2.689-0.448,5.379-0.896
				c1.345-0.448,2.241-0.896,3.138-2.241c0.896-0.896,1.345-2.241,1.345-4.034c0-2.241-0.896-3.586-2.241-4.931
				s-4.034-1.793-7.62-1.793h-8.965v13.896H523.588z"/>
			<path fill="#F0F2DC" d="M10.786,160.408h21.517c4.931,0,8.068,1.345,10.758,3.586c2.241,2.241,3.586,5.379,3.586,9.413
				c0,4.482-1.345,7.62-4.034,9.861s-6.275,3.586-11.654,3.586h-7.172v15.689h-13V160.408z M23.786,178.338h3.138
				c2.689,0,4.482-0.448,5.379-1.345s1.345-1.793,1.345-3.138s-0.448-2.241-1.345-3.586c-0.896-0.896-2.689-1.345-4.931-1.345
				h-3.586V178.338z"/>
			<polygon fill="#F0F2DC" points="53.37,160.408 66.37,160.408 66.37,192.233 86.99,192.233 86.99,202.544 53.37,202.544 			"/>
			<path fill="#F0F2DC" d="M118.816,195.82h-14.792l-2.242,7.172H88.334l15.689-42.136h14.792l15.688,42.136h-13.447L118.816,195.82
				z M116.126,186.854l-4.482-15.24l-4.482,15.24H116.126z"/>
			<polygon fill="#F0F2DC" points="131.815,160.408 171.261,160.408 171.261,171.166 157.814,171.166 157.814,202.544 
				144.815,202.544 144.815,171.166 131.815,171.166 			"/>
			<polygon fill="#F0F2DC" points="173.95,160.408 213.845,160.408 213.845,171.166 200.398,171.166 200.398,202.544 
				187.399,202.544 187.399,171.166 173.95,171.166 			"/>
			<polygon fill="#F0F2DC" points="219.672,160.408 254.636,160.408 254.636,169.373 232.672,169.373 232.672,176.097 
				252.843,176.097 252.843,185.062 232.672,185.062 232.672,193.131 255.084,193.131 255.084,202.544 219.672,202.544 			"/>
			<polygon fill="#F0F2DC" points="262.257,160.408 274.36,160.408 290.496,183.717 290.496,160.408 302.599,160.408 
				302.599,202.544 290.496,202.544 274.36,179.683 274.36,202.544 262.257,202.544 			"/>
			<path fill="#F0F2DC" d="M311.115,160.408h24.206c4.034,0,7.172,0.896,9.413,3.138c2.241,1.793,3.138,4.482,3.138,7.62
				c0,2.689-0.896,4.482-2.241,6.275c-0.896,1.345-2.689,2.241-4.482,2.689c3.138,0.896,5.379,1.793,6.724,3.586
				s2.241,4.034,2.241,6.724c0,2.241-0.448,4.035-1.345,5.828s-2.241,3.138-4.034,4.034c-0.896,0.448-2.689,0.896-4.931,1.345
				c-3.138,0.448-4.931,0.448-5.827,0.448h-22.413v-41.688H311.115z M324.564,176.993h5.827c2.241,0,3.586-0.448,4.034-0.896
				c0.896-0.896,1.345-1.793,1.345-3.138s-0.448-2.241-1.345-2.689c-0.896-0.896-2.241-0.896-4.034-0.896h-5.827V176.993z
				 M324.564,193.578h6.724c2.241,0,4.034-0.447,4.931-1.345c0.896-0.896,1.345-1.793,1.345-3.138s-0.448-2.241-1.345-3.138
				s-2.689-1.345-4.931-1.345h-6.724V193.578z"/>
			<polygon fill="#F0F2DC" points="357.286,160.408 391.802,160.408 391.802,169.373 370.285,169.373 370.285,176.097 
				390.457,176.097 390.457,185.062 370.285,185.062 370.285,193.131 392.698,193.131 392.698,202.544 357.286,202.544 			"/>
			<polygon fill="#F0F2DC" points="399.87,160.408 412.869,160.408 412.869,192.233 433.041,192.233 433.041,202.544 
				399.87,202.544 			"/>
			<path fill="#F0F2DC" d="M464.866,195.82h-14.792l-2.241,7.172h-13.447l15.688-42.136h14.344l15.689,42.136h-13.448
				L464.866,195.82z M447.833,150.546h7.62v7.173h-7.62V150.546z M462.177,186.854l-4.482-15.24l-4.482,15.24H462.177z
				 M459.936,150.546h7.62v7.173h-7.62V150.546z"/>
			<path fill="#F0F2DC" d="M504.761,187.303v-8.965h20.172v17.931c-4.034,2.689-7.172,4.482-10.31,5.379s-6.276,1.345-10.759,1.345
				c-4.931,0-8.965-0.896-12.103-2.689s-5.379-4.034-7.172-7.621c-1.793-3.586-2.689-7.172-2.689-11.654s0.896-8.517,2.689-12.103
				s4.482-5.827,8.517-7.62c2.689-1.345,6.724-2.241,11.654-2.241c4.482,0,8.069,0.448,10.311,1.345s4.034,2.241,5.827,4.034
				c1.345,1.793,2.689,4.034,3.586,6.724l-12.551,2.241c-0.448-1.793-1.345-2.689-2.689-3.586c-1.346-0.896-2.69-1.345-4.932-1.345
				c-2.689,0-4.931,0.896-6.724,3.138c-1.793,1.793-2.689,4.931-2.689,9.413s0.896,7.62,2.689,9.861
				c1.793,1.793,4.034,3.139,7.172,3.139c1.345,0,2.689,0,4.034-0.448c1.346-0.448,2.69-1.345,4.483-2.242v-4.034H504.761
				L504.761,187.303z"/>
			<polygon fill="#F0F2DC" points="532.553,160.408 567.517,160.408 567.517,169.373 546,169.373 546,176.097 566.172,176.097 
				566.172,185.062 546,185.062 546,193.131 568.413,193.131 568.413,202.544 532.553,202.544 			"/>
			<rect x="11.235" y="220.922" fill="#F0F2DC" width="556.73" height="12.551"/>
		</g>
	</g>
</g>
</svg>
