<?xml version="1.0" encoding="utf-8"?>
<!-- Generator: Adobe Illustrator 15.1.0, SVG Export Plug-In . SVG Version: 6.00 Build 0)  -->
<!DOCTYPE svg PUBLIC "-//W3C//DTD SVG 1.1//EN" "http://www.w3.org/Graphics/SVG/1.1/DTD/svg11.dtd">
<svg version="1.1" id="Ebene_1" xmlns="http://www.w3.org/2000/svg" xmlns:xlink="http://www.w3.org/1999/xlink" x="0px" y="0px"
	 viewBox="0 345.06 595.279 150.957" enable-background="new 0 345.06 595.279 150.957"
	 xml:space="preserve">
<g>
	<g>
		<defs>
			<rect id="SVGID_1_" x="0" y="345.06" width="595.279" height="151.77"/>
		</defs>
		<clipPath id="SVGID_2_">
			<use xlink:href="#SVGID_1_"  overflow="visible"/>
		</clipPath>
		<path clip-path="url(#SVGID_2_)" fill="#F0F2DC" d="M579.819,487.879c0,5.289,3.661,8.544,8.544,8.544
			c2.441,0,4.069-0.406,4.883-0.813v-8.138h-5.696v2.034h3.255v4.883c-0.406,0-0.813,0.407-2.441,0.407
			c-3.255,0-6.103-2.441-6.103-6.511c0-3.662,2.441-6.51,6.103-6.51c2.035,0,3.256,0.406,4.477,1.221v-2.441
			c-1.221-0.407-2.441-0.814-4.883-0.814C583.48,479.74,579.819,482.996,579.819,487.879 M547.674,487.879
			c0,5.289,3.662,8.544,8.545,8.544c2.441,0,4.068-0.406,4.882-0.813v-8.138h-5.696v2.034h3.256v4.883
			c-0.407,0-0.814,0.407-2.441,0.407c-3.256,0-6.104-2.441-6.104-6.511c0-3.662,2.441-6.51,6.104-6.51
			c2.034,0,3.255,0.406,4.476,1.221v-2.441c-1.221-0.407-2.441-0.814-4.883-0.814C551.336,479.74,547.674,482.996,547.674,487.879
			 M518.784,479.74h-2.441v9.766c0,4.476,2.441,6.917,6.511,6.917c4.068,0,6.51-2.441,6.51-6.917v-9.766h-2.441v9.359
			c0,3.255-0.813,5.289-4.068,5.289c-2.849,0-4.069-2.034-4.069-5.289V479.74z M489.081,482.182h2.441
			c2.035,0,3.256,0.814,3.256,2.441c0,1.628-1.221,2.441-3.662,2.441h-2.035V482.182z M490.709,479.74h-4.069v16.276h2.441v-7.324
			h1.221c1.221,0,2.035,0,2.849,1.628l2.441,5.696h2.848l-3.255-6.511c-0.406-0.813-0.813-1.221-1.627-1.627l0,0
			c2.034-0.407,3.255-1.628,3.255-3.662C497.219,480.555,493.964,479.74,490.709,479.74 M450.02,466.313h2.849
			c5.696,0,8.951,2.034,8.951,6.51c0,4.069-2.848,6.511-8.951,6.511h-3.255v-13.021H450.02z M450.02,481.368h5.29
			c6.51,0,9.358,2.034,9.358,6.511c0,2.034-0.813,3.662-2.034,4.882c-1.221,1.221-3.662,1.628-6.104,1.628h-6.511V481.368
			L450.02,481.368z M444.731,467.534v28.889h2.441h2.848h6.511c3.255,0,6.104-0.813,7.73-2.441c2.035-1.627,2.849-3.661,2.849-6.103
			c0-4.477-2.441-6.918-7.324-8.139c3.255-1.627,4.476-4.068,4.476-7.323c0-2.441-0.813-4.477-2.848-6.104
			c-1.628-1.628-4.476-2.034-8.138-2.034h-4.069L444.731,467.534z M351.146,479.74h-9.358v16.276h9.358v-2.035h-6.917v-5.289h6.104
			v-2.034h-6.104v-4.883h6.917V479.74z M314.933,479.74h-4.069v16.276h2.441v-14.241l0,0l5.29,14.241h2.441l5.289-14.241l0,0v14.241
			h2.441V479.74h-4.068l-4.883,13.835L314.933,479.74z M287.671,479.74h-2.441v9.766c0,4.476,2.441,6.917,6.511,6.917
			c4.068,0,6.51-2.441,6.51-6.917v-9.766h-2.441v9.359c0,3.255-0.813,5.289-4.068,5.289c-2.849,0-4.069-2.034-4.069-5.289V479.74z
			 M262.851,490.32l3.255-8.139l3.256,8.139H262.851z M264.885,479.74l-6.917,16.276h2.441l1.628-4.069h8.138l1.628,4.069h2.441
			l-6.918-16.276H264.885z M266.92,478.52h2.034v-2.44h-2.034V478.52z M263.258,478.52h2.034v-2.44h-2.034V478.52z M227.451,466.313
			h5.29c2.848,0,4.883,0.407,6.104,1.627c1.627,1.221,2.034,2.441,2.034,4.477c0,2.034-0.814,3.662-2.034,4.476
			c-1.628,1.221-3.662,1.627-6.104,1.627h-5.29V466.313z M227.044,464.279l-4.882,3.255v28.889h2.848h2.441l0,0v-15.462h4.476
			c2.035,0,3.662,0.407,4.477,1.221c1.221,0.814,2.44,2.441,4.476,5.697l5.696,8.951h2.849l-7.324-10.986
			c-1.628-2.848-3.255-4.476-4.476-4.883c4.068-1.627,6.103-4.068,6.103-7.73c0-2.441-0.813-4.476-2.848-6.104
			c-1.628-1.627-4.476-2.441-7.731-2.441h-6.104V464.279z M207.921,491.947c0,2.034-2.035,2.849-3.256,2.849
			s-2.44-0.407-3.255-0.814l-0.406,2.035c1.221,0.406,2.034,0.813,3.255,0.813c3.255,0,6.104-1.221,6.104-4.883
			c0-5.289-6.918-4.883-6.918-7.73c0-1.628,1.628-2.035,2.849-2.035s2.034,0.407,3.255,0.814l0.407-2.035
			c-1.221-0.406-2.441-0.406-3.662-0.406c-2.849,0-5.289,1.627-5.289,4.476C201.004,489.1,207.921,488.285,207.921,491.947
			 M175.777,487.879c0,5.289,3.662,8.544,8.545,8.544c2.441,0,4.068-0.406,4.883-0.813v-8.138h-5.697v2.034h3.662v4.883
			c-0.406,0-0.813,0.407-2.441,0.407c-3.255,0-6.104-2.441-6.104-6.511c0-3.662,2.441-6.51,6.104-6.51
			c2.035,0,3.256,0.406,4.477,1.221v-2.441c-1.221-0.407-2.441-0.814-4.883-0.814C179.439,479.74,175.777,482.996,175.777,487.879
			 M154.618,479.74h-3.255v16.276h2.44v-13.428l0,0l7.324,13.428h2.849V479.74h-2.441v13.021l0,0L154.618,479.74z M128.577,479.74
			h-2.441v9.766c0,4.476,2.441,6.917,6.51,6.917c4.069,0,6.511-2.441,6.511-6.917v-9.766h-2.441v9.359
			c0,3.255-0.813,5.289-4.069,5.289c-3.255,0-4.068-2.034-4.068-5.289V479.74z M100.502,487.879c0,5.289,3.255,8.544,8.544,8.544
			c2.441,0,4.069-0.406,4.883-0.813v-8.138h-5.696v2.034h3.255v4.883c-0.406,0-0.813,0.407-2.441,0.407
			c-3.255,0-6.103-2.441-6.103-6.511c0-3.662,2.441-6.51,6.103-6.51c2.035,0,3.256,0.406,4.477,1.221v-2.441
			c-1.221-0.407-2.441-0.814-4.883-0.814C104.164,479.74,100.502,482.996,100.502,487.879 M91.957,479.74h-9.358v16.276h9.358
			v-2.035H85.04v-5.289h6.104v-2.034H85.04v-4.883h6.917V479.74z M54.524,479.74h-2.441l4.882,16.276h3.256l3.662-14.241l0,0
			l3.662,14.241h2.848l4.883-16.276h-2.441l-4.069,14.241l0,0l-3.661-14.241h-3.256l-3.662,14.241l0,0L54.524,479.74z
			 M42.317,479.74h-8.952v16.276h9.359v-2.035H35.4v-5.289h6.104v-2.034H35.4v-4.883h6.917V479.74z M5.289,466.313h3.255
			c5.697,0,8.952,2.034,8.952,6.51c0,4.069-2.849,6.511-8.952,6.511H5.289V466.313z M5.289,481.368h5.696
			c6.104,0,9.358,2.034,9.358,6.511c0,2.034-0.813,3.662-2.034,4.882c-1.221,1.221-3.662,1.628-6.104,1.628H5.289V481.368z
			 M5.289,464.279L0,467.534v28.889h2.848h2.441h6.917c3.256,0,6.104-0.813,7.731-2.441c2.034-1.627,2.848-3.661,2.848-6.103
			c0-4.477-2.441-6.918-7.323-8.139c3.255-1.627,4.476-4.068,4.476-7.323c0-2.441-0.813-4.477-2.849-6.104
			c-1.627-1.628-4.476-2.034-8.138-2.034H5.289L5.289,464.279z M222.162,457.361v-1.221h-71.613v-13.427h-0.813l0.407-0.407
			L5.289,348.315v-0.814l-3.662-2.035H0v111.895l0,0l5.289-3.255V349.943l144.039,92.771v14.647h1.221l0,0H222.162z
			 M223.383,457.361h-1.221l0,0H223.383L223.383,457.361z M444.731,457.361v-0.813h-71.206v-13.834h-0.813l0.407-0.407
			l-145.667-93.584v-0.814l-4.476-2.848h-0.813v1.221v0.407l0,0v109.453h2.441v0.407l2.44-1.628V349.943l145.26,92.771v15.055h1.221
			l0,0L444.731,457.361h0.407H444.731z M595.28,442.307h-0.813l0.407-0.406l-144.853-93.585v-0.814l-3.662-2.441h-1.628v111.488
			h2.034l3.255-2.034V349.536l144.039,93.178v14.647h1.221V442.307z"/>
	</g>
</g>
</svg>
