<?xml version="1.0" encoding="utf-8"?>
<!-- Generator: Adobe Illustrator 15.1.0, SVG Export Plug-In . SVG Version: 6.00 Build 0)  -->
<!DOCTYPE svg PUBLIC "-//W3C//DTD SVG 1.1//EN" "http://www.w3.org/Graphics/SVG/1.1/DTD/svg11.dtd">
<svg version="1.1" id="Ebene_1" xmlns="http://www.w3.org/2000/svg" xmlns:xlink="http://www.w3.org/1999/xlink" x="0px" y="0px"
	 viewBox="2.705 258.191 589.869 211.43"
	 enable-background="new 2.705 258.191 589.869 211.43" xml:space="preserve">
<g>
	<path fill="#F0F2DC" d="M519.818,400.758c-2.004-4.209-3.607-7.616-5.813-12.227c26.257,0,51.511,0,78.569,0
		c-8.418,24.453-16.436,48.104-25.455,74.36c-3.007-4.811-5.011-8.217-7.616-12.227c-25.455,16.236-50.909,25.256-78.97,13.83
		c-27.659-11.225-43.493-34.674-58.125-59.328c14.832,10.623,30.466,19.642,49.506,18.039
		C490.555,421.603,505.587,412.785,519.818,400.758z"/>
	<path fill="#F0F2DC" d="M356.266,282.103c6.614,12.427,13.63,8.619,21.446,4.209c37.48-20.845,68.548-15.834,97.209,15.834
		c8.618,9.621,16.034,20.444,22.248,32.471c-1.403-0.802-2.807-1.403-4.209-2.205c-28.662-19.041-57.925-16.636-84.782,5.211
		c-8.619,7.016,0.4,11.225,0.802,17.839c-23.852,0-47.102,0-70.352,0c-1.804,0-3.407-0.401-6.814-1.003
		C340.031,330.808,347.848,307.558,356.266,282.103z"/>
	<path fill="#F0F2DC" d="M137.396,298.338c-3.207,13.028-5.612,26.257-10.223,38.884c-5.011,14.03-16.034,21.045-31.066,22.047
		c-17.838,1.203-28.662-6.814-31.668-24.452c-3.207-18.841,0.4-37.08,7.616-54.518c7.416-18.039,20.845-24.653,40.688-21.246
		c15.032,2.606,21.045,11.024,22.85,31.268c0.2,2.605,0.2,5.011,0.4,7.616C136.594,298.138,136.994,298.338,137.396,298.338z
		 M84.682,324.795c2.807,4.609,5.813,9.821,9.02,15.032c4.409-4.009,11.023-7.616,12.427-12.427
		c3.407-12.427,5.211-25.455,6.214-38.483c0.2-3.407-4.61-7.416-7.216-11.023c-3.607,2.605-9.02,4.61-10.222,8.218
		C91.096,297.937,88.49,310.364,84.682,324.795z"/>
	<path fill="#F0F2DC" d="M333.016,281.101c-5.611,2.205-10.222,5.011-15.032,5.412c-3.207,0.4-8.017-1.604-10.021-4.209
		c-5.211-6.614-10.021-6.414-13.629,0c-8.619,15.232-11.625,32.068-9.02,49.506c0.4,3.207,4.409,7.817,7.015,8.218
		c2.807,0.401,7.016-3.207,9.02-6.213c2.205-3.407,2.605-8.018,4.009-12.628c-4.61-0.801-8.218-1.402-11.425-1.804
		c-1.202-16.836-1.002-17.236,15.032-17.236c5.813,0,11.625,0.2,17.438,0.4c1.403,0,2.807,0.802,6.014,2.004
		c-2.807,11.225-4.41,22.649-8.619,33.272c-7.416,18.84-27.459,27.659-45.898,19.241c-6.414-2.807-13.028-10.623-14.832-17.237
		c-6.414-24.052-1.604-47.102,11.425-68.146c8.017-12.828,21.045-14.432,34.875-12.627
		C321.792,260.457,328.607,268.073,333.016,281.101z"/>
	<path fill="#F0F2DC" d="M73.458,262.06c-6.214,11.825-13.028,23.45-18.239,35.677c-2.605,6.214-3.608,13.83-2.807,20.645
		c1.604,12.627,4.811,24.854,7.817,38.482c-8.218,0-15.634,0-23.651,0c-1.402-7.416-3.006-15.232-4.609-22.849
		c-0.602,0-1.203,0-1.804-0.2c-0.802,2.404-1.604,4.81-2.205,7.416c-3.607,18.239-3.607,18.239-25.255,15.633
		c4.811-31.868,9.621-63.736,14.432-96.407c7.416,0,14.431,0,22.448,0c-0.802,6.814-1.403,13.229-2.005,19.442
		C45.798,267.271,52.012,252.44,73.458,262.06z"/>
	<path fill="#F0F2DC" d="M231.598,342.032c-9.62-1.603-18.039-3.206-20.645,9.621c-0.601,2.605-5.813,5.412-9.42,6.214
		c-4.409,1.002-9.42,0.2-15.434,0.2c8.619-25.655,16.837-50.108,24.854-74.36c0.602-1.804,1.203-3.407,1.804-5.211
		c6.815-20.043,9.821-21.847,31.268-18.439c2.605,0.4,6.214,4.009,6.414,6.413c2.004,29.864,3.607,59.528,5.211,90.596
		c-7.816,0-14.832,0-22.448,0C232.801,352.254,232.199,347.644,231.598,342.032z M230.996,324.795c0-10.423,0-19.843,0-29.264
		c-0.802-0.2-1.402-0.2-2.204-0.4c-3.007,9.621-5.813,19.241-9.02,29.664C224.382,324.795,227.189,324.795,230.996,324.795z"/>
	<path fill="#F0F2DC" d="M134.389,331.41c8.018,3.407,12.026,5.813,16.235,6.614c3.808,0.601,9.42,1.002,11.424-1.203
		c2.205-2.405,2.807-8.618,1.203-11.625c-2.807-5.813-7.817-10.422-12.026-15.433c-11.424-13.63-12.827-29.264-3.808-41.089
		c8.017-10.222,26.256-13.229,40.286-7.015c10.423,4.609,5.813,12.226,4.009,18.64c-2.405,8.018-7.416,3.207-11.825,1.403
		c-2.807-1.203-8.619-1.203-9.42,0.2c-1.604,2.806-2.205,7.816-0.602,10.623c3.207,6.013,8.218,11.224,12.227,16.636
		c10.021,13.629,10.222,30.866,0.601,41.289c-9.22,10.021-34.073,13.629-44.696,4.409
		C133.989,351.252,135.792,341.631,134.389,331.41z"/>
	<path fill="#F0F2DC" d="M438.242,393.142c-13.629-2.004-13.83-11.425-15.032-19.241c-2.405-14.632,3.207-26.857,15.834-34.675
		c14.632-9.22,29.664-8.418,44.696,0.401c-1.203,7.616-4.209,9.019-11.225,6.013c-12.827-5.412-26.056-2.005-33.872,7.616
		c-6.614,8.018-7.617,16.836-3.207,26.657C437.24,383.521,437.24,388.131,438.242,393.142z"/>
	<path fill="#F0F2DC" d="M440.246,403.164c1.403-7.616,4.61-8.618,11.024-6.013c11.023,4.409,21.646,2.405,30.665-5.612
		c8.819-7.816,10.423-18.64,5.212-29.864c-1.604-3.407-1.804-7.616-2.807-12.227c10.623,1.805,17.438,12.628,16.436,24.854
		c-1.002,14.231-7.816,25.255-20.845,31.067C466.503,411.381,453.074,410.78,440.246,403.164z"/>
	<path fill="#F0F2DC" d="M477.326,371.496c-0.2,8.418-7.416,15.032-15.834,14.632c-8.418-0.401-15.232-7.817-14.23-16.235
		c1.002-8.819,6.213-13.83,15.232-14.03C470.912,355.862,477.527,363.078,477.326,371.496z"/>
</g>
</svg>
