<?xml version="1.0" encoding="utf-8"?>
<!-- Generator: Adobe Illustrator 15.1.0, SVG Export Plug-In . SVG Version: 6.00 Build 0)  -->
<!DOCTYPE svg PUBLIC "-//W3C//DTD SVG 1.1//EN" "http://www.w3.org/Graphics/SVG/1.1/DTD/svg11.dtd">
<svg version="1.1" id="Ebene_1" xmlns="http://www.w3.org/2000/svg" xmlns:xlink="http://www.w3.org/1999/xlink" x="0px" y="0px"
	 viewBox="15.137 222.499 564.853 325.655"
	 enable-background="new 15.137 222.499 564.853 325.655" xml:space="preserve">
<g>
	<path fill="#F0F2DC" d="M15.189,380.325c-0.403-7.267,1.614-17.764,4.846-28.059c3.432-10.496,8.478-20.186,14.734-29.27
		c10.9-15.745,24.828-28.664,40.17-39.767c10.698-7.873,22.204-14.735,34.114-20.59c6.459-3.229,12.919-6.459,19.378-9.084
		c7.671-3.229,15.543-6.056,23.617-8.68c8.075-2.624,16.351-5.248,24.425-7.47c8.075-2.221,16.352-4.036,24.426-5.65
		c11.507-2.02,22.811-3.836,34.315-5.45c7.671-1.01,15.341-1.212,22.81-2.221c16.957-2.02,33.914-1.615,50.667-1.413
		c9.891,0,19.58,1.009,29.473,1.815c12.514,1.211,24.828,2.624,37.141,4.441c8.479,1.211,16.754,3.229,25.031,5.046
		c6.459,1.413,12.918,3.028,19.379,4.845c5.65,1.615,11.303,3.433,16.955,5.45c4.844,1.615,9.891,3.028,14.533,4.845
		c6.662,2.624,13.322,5.45,19.783,8.479c9.082,4.239,17.965,8.681,26.645,13.727c7.469,4.441,14.736,9.487,21.801,14.736
		c11.104,8.074,21.195,17.157,29.875,27.856c4.238,5.247,8.074,11.102,11.707,16.754c2.826,4.439,5.25,9.284,7.672,14.13
		c1.816,3.432,3.229,7.064,4.846,10.698c0.201,0.604,0,1.212,0.201,1.816c1.211,3.432,2.824,6.862,3.432,10.496
		c0.201,0.808,1.01,1.615,1.211,2.423c0.605,4.238,1.414,8.275,1.615,12.515c0.201,3.837,0.201,7.873,0,11.91
		c-0.201,2.422-0.809,5.046-1.211,7.47c-0.201,1.211,0,2.422-0.201,3.633c-0.404,1.816-0.809,3.634-1.213,5.249
		c-0.201,1.009-0.402,1.815-0.809,2.825c-0.604,1.816-1.008,3.634-1.613,5.45c-0.605,2.02-1.211,4.238-2.02,6.057
		c-2.018,4.237-4.037,8.274-6.258,12.313c-1.008,2.021-2.623,3.634-3.834,5.652c-1.818,2.826-3.23,5.854-5.047,8.882
		c-0.605,0.808-1.211,1.615-2.02,2.423c-2.221,2.22-5.449,3.835-5.854,7.67c0,0.605-0.809,1.211-1.414,1.615
		c-2.221,2.221-4.643,4.643-6.863,6.863c-1.412,1.413-2.422,3.026-4.844,2.826c-0.605,0-1.211,0.807-1.816,1.211
		c-1.816,1.815-3.432,3.633-5.25,5.248c-1.613,1.412-3.633,2.423-5.246,3.634c-1.414,1.211-2.625,2.624-4.037,3.835
		c-1.01,0.808-2.02,1.413-3.23,2.019c-0.404,0.202-0.807,0.202-1.211,0.403c-2.625,2.02-5.248,4.038-8.074,5.854
		c-2.221,1.413-4.643,2.624-7.064,4.037c-0.605,0.403-1.412,0.605-2.221,1.009c-3.635,2.02-7.268,4.239-10.9,6.259
		c-3.633,2.019-7.064,3.836-10.697,5.449c-2.02,1.011-4.441,1.615-6.461,2.424c-2.422,1.009-4.643,2.22-6.861,3.026
		c-3.635,1.211-7.064,3.433-11.104,3.836c-1.412,0.201-2.826,1.211-4.238,1.816c-2.826,1.211-5.855,2.221-8.68,3.229
		c-1.414,0.404-3.027,0.605-4.441,1.011c-1.01,0.2-1.816,0.604-2.623,1.009c-0.605,0.202-1.01,0.808-1.414,0.808
		c-4.643-0.202-8.275,2.221-12.313,3.835c-0.201,0-0.404,0.202-0.404,0.202c-4.643-1.211-8.477,3.229-13.119,2.221
		c-1.414-0.403-3.23,1.211-5.047,1.614c-5.451,1.01-11.104,1.817-16.553,2.826c-0.809,0.202-1.414,0.604-2.221,0.808
		c-1.816,0.403-3.836,0.809-5.652,0.809c-2.221,0-4.238-0.202-6.258,1.009c-1.816,1.01-4.037,1.413-6.057,1.212
		c-5.449-0.404-10.697,0.604-15.945,1.614c-1.615,0.403-3.635,0.202-5.248,0.202c-3.635-0.202-7.064-0.404-10.496,1.009
		c-1.414,0.604-3.434,0.202-5.047,0.202c-3.635,0.201-7.064,0.201-10.699,0.403c-2.623,0.201-5.047,0.403-7.67,0.403
		c-6.459,0-13.121,0.202-19.58,0c-4.037-0.202-8.074-0.808-12.111-1.211c-1.414,0-2.826,0.604-4.24,0.403
		c-2.018-0.202-3.834-0.809-5.854-0.809c-5.046-0.402-10.092-0.604-15.139-1.009c-1.816-0.202-3.433-0.808-5.048-1.01
		c-2.019-0.201-4.036-0.403-6.257-0.605c-1.816,0-4.239,0.809-5.45,0c-4.036-2.826-8.882-1.211-13.12-2.422
		c-4.239-1.211-9.084-1.413-13.524-2.221c-3.634-0.809-7.065-2.02-10.497-2.826c-1.009-0.202-1.816-0.403-2.826-0.403
		c-0.807,0-1.614,0.201-2.422,0c-4.037-1.01-8.074-2.221-12.111-3.229c-3.027-0.808-6.258-1.615-9.285-2.423
		c-3.027-0.809-6.057-1.615-9.083-2.624c-3.229-1.211-6.461-2.423-9.689-3.634c-5.45-2.02-10.9-3.836-16.351-6.057
		c-5.451-2.221-10.698-4.643-15.946-7.267c-4.441-2.222-8.882-4.845-13.323-7.065c-2.019-0.807-3.835-1.614-4.845-3.633
		c-0.201-0.202-0.403-0.404-0.605-0.404c-2.22,0.404-3.835-1.009-5.248-2.22c-1.211-1.01-2.422-2.02-3.835-3.028
		c-0.604-0.402-1.413-0.604-2.019-1.01c-1.01-0.403-2.221-0.807-2.826-1.412c-1.211-1.413-2.019-3.432-4.643-2.625
		c-0.404,0-1.011-1.009-1.615-1.613c-1.615-2.222-3.229-4.644-6.46-4.644c-0.201,0-0.605-0.404-0.808-0.808
		c-3.229-3.635-7.064-6.661-11.103-9.487c-4.239-2.826-7.671-6.863-11.103-10.698c-5.45-6.057-10.698-11.91-15.543-18.369
		c-6.661-8.882-11.909-18.772-15.544-29.27C17.612,404.145,15.592,394.253,15.189,380.325z M68.479,336.32c10.9,0,21.802,0,32.701,0
		c3.23,0,3.634-0.604,3.028-3.836c-0.605-2.22-1.211-4.439-1.615-6.862c-0.202-0.605,0.202-1.816,0.605-2.02
		c0.403-0.201,1.413,0,2.221,0.404c1.211,0.604,2.422,1.413,3.634,2.019c3.229,1.614,3.229,1.614,5.651-1.211
		c6.862-8.275,13.727-16.553,20.792-24.425c8.074-9.286,16.147-18.369,24.627-27.251c7.469-7.873,15.543-15.342,23.415-22.811
		c2.624-2.423,5.651-5.046,9.486-5.45c8.074-0.605,16.148-1.413,24.426-1.413c6.46,0,12.313,1.615,15.342,8.479
		c1.614,3.433,3.633,6.259,7.872,7.872c9.891,3.836,19.378,8.883,29.066,12.919c5.451,2.222,9.689,5.652,11.91,11.104
		c2.826,6.459,1.211,11.304-5.248,12.515c-2.625,0.606-5.248,0.404-7.873,0c-5.047-0.402-7.872-4.844-4.439-9.891
		c1.01-1.413,1.816-3.634,4.238-2.826c1.615,0.605,1.412,2.423-0.402,5.047c-1.211,1.614-1.01,2.826,1.008,3.229
		c2.424,0.202,5.047,0.202,7.672-0.202c1.816-0.201,2.623-2.02,2.02-3.835c-0.809-2.222-2.02-4.644-3.434-6.46
		c-3.432-4.44-8.68-5.651-13.32-7.872c-8.277-3.835-16.756-7.268-25.031-10.9c-2.423-1.009-5.047-2.422-5.652-5.45
		c-0.202-1.009-0.808-1.613-1.413-2.624c-1.815-3.835-4.439-6.258-8.882-6.862c-7.267-0.605-14.735-0.605-22.003,0.403
		c-3.431,0.403-7.064,0.605-9.891,3.229c-8.276,7.671-16.755,15.14-24.627,23.214c-7.671,7.872-14.735,16.147-22.003,24.425
		c-7.872,8.882-15.543,17.965-23.214,27.251c-2.423,2.825-2.221,3.433,1.211,5.046c4.846,2.423,9.689,5.248,14.534,7.671
		c2.422,1.211,4.846,2.624,7.268,2.624c6.258-0.201,12.516-1.211,18.771-1.614c8.276-0.605,16.553-1.01,24.829,0.808
		c1.009,0.202,2.221,0,3.229-0.202c4.845-1.614,9.688-3.229,14.332-4.844c5.854-1.817,11.908-3.634,17.764-5.652
		c3.633-1.211,4.239-0.808,5.45,2.826c0.2,0.605,0.808,1.211,1.413,1.816c0.604-0.605,1.211-1.01,1.613-1.614
		c1.817-2.625,3.23-5.451,5.047-8.276c5.45-8.275,13.121-12.313,22.811-10.698c5.25,0.808,10.294,0,15.341-1.212
		c1.615-0.402,3.23-1.613,4.645-2.825c1.613-1.413,1.211-3.634-0.404-4.238c-2.221-1.01-4.238-1.817-6.863-1.01
		c-1.211,0.403-2.826,0.403-4.037,0.202c-0.605-0.202-1.615-1.212-1.615-2.02c0-0.604,1.01-1.615,1.816-1.817
		c2.221-0.402,4.441-0.807,6.461-0.604c2.623,0.404,5.65,0.604,7.469,2.221c4.238,3.634,2.422,10.698-2.826,12.919
		c-6.258,2.826-12.918,3.229-19.58,2.624c-3.028-0.2-6.057,0-9.084,0.605c-4.644,1.01-7.47,4.643-10.094,8.074
		c-4.845,6.46-8.073,13.524-10.497,21.194c-2.22,7.47-6.459,13.93-11.102,20.188c-2.624,3.431-5.45,6.661-8.074,9.891
		c-1.01,1.211-1.212,2.422,0.403,3.229c1.615,0.807,3.432,1.413,5.047,2.221c5.651,2.221,11.102,4.643,16.754,6.863
		c4.44,1.815,8.68,3.633,13.121,5.45c4.037,1.613,7.872,3.026,11.909,4.643c4.44,1.615,8.68,3.229,13.122,4.845
		c0.807,0.202,1.814,0,2.422-0.403c3.633-2.02,7.268-4.037,10.898-6.258c8.277-5.047,16.352-10.295,24.629-15.342
		c2.422-1.614,3.633-1.413,5.246,1.211c4.846,7.269,5.25,15.141,1.818,23.214c-2.826,6.661-7.268,12.517-12.92,17.36
		c-1.412,1.211-2.221,2.624-1.211,4.643c0.604,1.211,0.807,2.826,0.807,4.239c0.203,4.844,0.203,9.892,0.203,14.735
		c0.201,4.037,2.02,7.064,4.643,10.093c5.047,5.854,9.891,11.91,14.131,18.167c3.229,4.643,3.229,10.093,2.422,15.342
		c-0.201,1.009-1.615,1.816-2.422,2.826c-0.605-1.01-1.414-1.817-1.816-3.028c-0.605-1.815-0.809-3.634-1.414-5.45
		c-0.807-1.815-2.221-3.432-4.439-3.026c-3.23,0.604-5.854,2.22-6.662,5.854c-0.402,2.222-1.008,4.44-1.008,6.661
		c-0.203,4.644-1.211,5.854-5.652,6.661c-5.652,1.01-11.305,2.02-16.957,2.826c-7.266,1.01-14.332,2.221-21.598,2.624
		c-5.45,0.404-11.104,0.404-16.754,0c-6.058-0.403-11.91-1.413-17.765-2.826c-7.064-1.614-13.121-5.248-18.975-9.285
		c-2.826-2.019-5.45-4.643-8.075-7.064c-1.009-1.009-1.412-2.221-0.201-3.433c1.211-1.009,2.422-0.807,3.433,0.404
		c0.2,0.202,0.402,0.403,0.604,0.605c7.267,7.671,16.148,12.313,26.241,15.14c10.698,3.027,21.599,2.624,32.499,1.816
		c12.112-1.011,24.223-3.635,36.334-5.45c1.816-0.202,2.625-1.211,2.625-3.028c0-1.816,0.201-3.633,0.604-5.248
		c1.414-7.469,6.863-11.708,13.324-10.496c0.807,0.201,1.412-0.202,2.219-0.202c-0.199-0.808-0.199-1.614-0.604-2.221
		c-4.441-5.652-9.285-10.9-13.729-16.553c-1.412-1.816-2.824-3.835-3.633-6.057c-2.018-5.046-1.615-10.495-1.615-15.945
		c0-3.229,0-6.863-1.008-9.689c-4.037-10.496-12.719-15.543-23.014-18.571c-5.248-1.613-10.496-2.824-15.744-4.844
		c-7.671-2.826-15.14-6.057-22.608-9.286c-9.486-3.835-18.771-7.872-28.261-11.708c-0.807-0.402-2.019-0.201-2.825,0
		c-0.403,0.202-0.403,1.615-0.201,2.423c0.201,4.239,0.808,8.276,0.808,12.517c0,3.026-0.404,6.056-0.404,9.083
		c0.202,5.248,2.02,9.892,5.854,13.727c2.826,2.826,5.248,5.854,7.469,9.084c1.211,1.614,0.808,3.433-1.01,4.845
		c-1.009,0.808-2.02,1.816-2.826,2.625c-2.624,3.026-1.816,6.257,2.019,7.469c2.222,0.807,2.625,1.815,1.615,3.835
		c-0.403,0.808-1.009,1.413-1.615,2.221c-3.633,4.037-8.478,5.248-13.726,5.651c-5.652,0.403-11.104,0.202-16.755,1.01
		c-2.826,0.403-6.057,1.413-8.479,3.229c-2.624,2.02-4.643,5.048-6.258,7.872c-6.258,10.9-15.947,16.554-28.059,16.756
		c-8.882,0-15.543,3.229-21.396,9.284c-1.615,1.615-1.413,3.028,0.605,3.835c2.019,1.011,4.239,1.817,6.258,2.625
		c4.037,1.614,7.872,3.229,11.909,4.845c4.643,1.816,9.084,3.634,13.727,5.249c5.047,1.815,10.295,3.432,15.543,4.845
		c6.661,1.816,13.121,3.633,19.782,5.248c7.469,1.615,14.735,3.229,22.204,4.439c7.268,1.413,14.332,2.625,21.599,3.635
		c7.065,1.01,14.332,1.413,21.397,2.221c5.651,0.604,11.506,1.413,17.358,1.614c12.518,0.403,25.031,0.202,37.547,0.202
		c4.441,0,9.084,0,13.523-0.403c6.258-0.404,12.719-1.01,18.977-1.615c8.275-0.808,16.35-1.615,24.627-2.826
		c5.65-0.808,11.305-2.019,17.156-3.229c5.854-1.21,11.709-2.222,17.563-3.634c5.854-1.413,11.506-2.825,17.361-4.44
		c7.67-2.221,15.34-4.239,22.809-6.863c9.285-3.432,18.369-7.267,27.453-11.103c6.459-2.826,12.918-5.651,18.975-9.285
		c9.084-5.248,17.967-10.9,26.646-16.956c12.111-8.276,22.811-18.167,32.096-29.472c8.275-10.093,15.141-20.993,19.781-33.308
		c2.625-6.862,4.441-14.13,5.248-21.194c1.816-16.956-1.008-33.104-8.275-48.445c-7.469-15.947-18.168-29.472-31.086-41.18
		c-6.258-5.651-12.92-10.698-19.58-15.744c-5.248-3.836-10.9-7.269-16.553-10.699c-5.451-3.229-10.9-6.056-16.553-9.083
		c-4.441-2.221-9.084-4.44-13.727-6.46c-6.057-2.624-11.91-5.046-18.168-7.267c-8.881-3.028-17.764-6.057-26.645-8.681
		c-6.662-2.019-13.525-3.634-20.389-5.249c-7.469-1.815-15.141-3.432-22.811-4.643c-6.863-1.211-13.727-2.02-20.59-2.826
		c-11.91-1.211-23.617-3.027-35.527-3.432c-20.791-0.605-41.582-1.413-62.374,1.01c-10.093,1.211-20.186,1.815-30.279,3.027
		c-6.459,0.808-12.919,2.221-19.176,3.432c-6.056,1.212-12.11,2.221-17.966,3.634c-6.056,1.413-11.909,3.028-17.764,4.644
		c-5.45,1.413-10.698,2.825-15.946,4.643c-6.46,2.221-12.919,4.644-19.177,7.268c-5.652,2.221-11.305,4.238-16.754,6.863
		c-9.893,5.046-19.984,10.093-29.473,15.946c-9.084,5.651-17.562,11.91-25.838,18.771c-6.258,5.047-12.11,10.9-17.359,16.956
		c-5.248,6.058-9.688,12.718-14.331,19.379c-1.817,2.423-1.212,3.229,2.019,3.229C46.678,336.32,57.579,336.32,68.479,336.32z
		 M124.394,365.791c-0.604-0.201-1.211-0.403-1.614-0.809c-2.423-1.613-4.845-3.633-7.47-4.844c-4.237-1.817-8.68-3.432-13.12-4.845
		c-4.036-1.211-8.275-2.221-12.313-3.229c-3.432-0.605-4.644,0.201-4.845,3.835c-0.403,5.854-0.605,11.506,1.211,17.158
		c2.019,5.854,5.651,10.093,10.899,12.919c7.47,4.037,15.543,4.644,24.021,3.633c2.422-0.201,4.439-1.815,5.046-4.036
		c1.413-4.44,3.634-9.083,2.625-14.131c-0.202-1.211,0.201-2.019,1.614-1.614c1.816,0.604,2.825-0.201,4.037-1.413
		c5.449-5.046,7.469-11.506,7.671-18.772c0-1.211-1.211-3.229-2.422-3.835c-9.085-4.845-18.369-9.688-27.655-14.332
		c-1.009-0.604-2.22-0.808-4.037-1.413c1.615,6.863,3.432,12.919,6.46,18.369C117.531,354.689,120.963,360.14,124.394,365.791z
		 M277.201,407.172c0.203,0.604,0.203,0.808,0.404,0.808c0.201,0.202,0.402,0.404,0.605,0.404
		c7.063,2.825,13.322,6.863,17.764,13.12c1.008,1.212,2.02,1.212,3.027,0c2.018-2.22,4.238-4.44,6.055-6.863
		c5.25-7.063,8.883-14.533,5.25-23.819c-1.01-2.22-2.02-2.824-4.039-1.613c-6.055,3.835-12.313,7.671-18.369,11.506
		C284.469,402.731,280.836,404.952,277.201,407.172z M222.901,338.137c0.202-3.028-0.808-3.835-3.229-3.028
		c-2.624,0.809-5.248,1.817-8.074,2.625c-6.661,2.02-13.323,4.037-19.983,6.258c-0.605,0.201-1.413,1.614-1.211,2.221
		c1.211,4.44,2.422,8.882,4.036,13.121c1.816,5.046,2.02,5.046,6.661,2.221c6.46-3.836,12.719-8.276,17.563-14.332
		C220.882,344.798,222.296,341.568,222.901,338.137z M152.453,381.334c-0.202,0.202-0.202,0.403-0.404,0.605
		c-0.403,0-1.009,0-1.413,0.201c-3.027,0.404-6.257,3.432-6.661,6.258c-0.402,2.624,1.01,5.248,4.441,6.46
		c3.633,1.413,7.469,2.221,11.304,3.027c2.826,0.604,3.835-0.605,3.229-3.432c-0.201-0.809-0.403-1.816-0.808-2.423
		c-1.614-2.624-3.229-5.249-5.249-7.469C155.682,382.95,153.866,382.344,152.453,381.334z M220.882,353.882
		c-0.202-0.202-0.403-0.404-0.808-0.605c-0.809,0.605-1.614,1.01-2.221,1.614c-3.634,2.826-7.268,5.652-10.899,8.479
		c-2.423,1.613-5.047,2.825-7.269,4.643c-0.604,0.403-1.211,1.816-1.009,2.826c0.201,1.815,1.009,3.633,1.614,5.248
		c0.808,2.624,2.019,2.826,3.634,1.01c3.835-4.643,7.872-9.286,11.506-13.929C217.451,360.14,219.066,356.909,220.882,353.882z
		 M192.824,450.773c3.836,0,6.258-2.019,6.258-4.845c0-2.22-2.02-4.643-4.037-4.844c-4.239-0.606-6.661,0.201-7.671,3.026
		C185.962,447.947,188.383,451.178,192.824,450.773z"/>
	<path fill="#F0F2DC" d="M508.935,348.027c-0.404,1.011-0.605,2.02-1.012,3.028c-2.018,5.652-3.834,11.304-6.055,16.956
		c-0.404,0.808-1.414,1.816-2.422,2.019c-0.605,0.202-2.02-0.808-2.223-1.614c-1.211-2.825-2.221-5.651-3.229-8.681
		c-1.211-3.229-2.221-6.459-3.432-9.688c-0.201-0.809-0.809-1.413-1.615-2.02c-0.201,0.808-0.605,1.614-0.605,2.423
		c-0.807,5.651-1.412,11.506-2.422,17.157c-0.201,0.809-1.412,1.614-2.221,2.221H483.5c-5.652,0.808-6.459,0-5.652-5.651
		c1.816-11.506,3.836-23.012,5.855-34.518c0.201-1.413,0.807-2.625,2.422-2.826c1.816,0,3.836-0.605,4.645,1.815
		c2.018,5.248,4.035,10.698,6.055,15.947c0.605,1.413,1.211,3.027,1.816,4.44c0.201,0.604,0.809,1.211,1.211,1.815
		c0.605-0.604,1.412-1.009,1.816-1.815c1.01-2.423,1.816-5.046,2.625-7.47c1.412-4.037,2.826-8.275,4.238-12.313
		c0.807-2.221,2.625-2.826,5.047-2.624c2.221,0.202,2.623,1.615,2.826,3.634c1.412,9.083,2.826,18.369,4.037,27.452
		c0.402,3.229,0.807,6.46,1.211,9.688c0,0.403-0.201,1.212-0.201,1.413c-2.02,0.403-4.24,0.809-6.258,0.809
		c-1.615,0-2.223-1.211-2.424-2.826c-0.605-5.047-1.01-10.093-1.816-15.14c-0.201-1.413-0.605-2.624-1.008-4.037
		C509.541,348.229,509.338,348.027,508.935,348.027z"/>
	<path fill="#F0F2DC" d="M370.461,405.961c0.604-0.809,1.412-1.614,1.814-2.624c1.615-4.644,3.23-9.487,4.846-14.13
		c0.605-2.02,1.211-4.239,2.424-5.854c0.807-1.009,2.824-1.412,4.238-1.412c1.01,0,2.018,1.009,2.824,2.02
		c0.404,0.604,0.404,1.613,0.605,2.22c0.809,5.854,1.615,11.708,2.424,17.562c0.809,5.652,1.613,11.104,2.422,16.756
		c0.404,2.825-0.201,3.835-3.027,3.835c-4.643,0.202-5.449-0.809-5.854-5.45c-0.404-5.046-1.211-10.093-1.816-15.141
		c0-0.604-0.402-1.211-0.605-1.815c-0.201,0-0.404,0-0.604-0.202c-0.605,1.817-1.414,3.836-2.02,5.652
		c-1.818,5.047-3.432,10.093-5.25,14.938c-0.402,0.809-2.018,2.02-2.623,1.816c-1.01-0.403-2.221-1.614-2.625-2.624
		c-2.221-5.854-4.037-11.708-6.055-17.563c-0.203-0.808-0.605-1.413-1.211-2.624c-0.605,1.009-1.01,1.615-1.01,2.02
		c-0.605,5.047-1.414,10.295-2.02,15.341c-0.605,4.845-2.02,6.057-6.863,5.249c-1.816-0.202-2.625-1.212-2.422-3.028
		c1.211-7.267,2.422-14.735,3.633-22.002c0.809-4.845,1.615-9.892,2.424-14.736c0.201-1.613,1.01-2.624,2.824-2.825
		c1.816,0,3.836-0.403,4.645,2.019c2.422,6.662,5.047,13.323,7.469,19.782c0.201,0.808,0.605,1.413,0.807,2.221
		C370.056,405.961,370.258,405.961,370.461,405.961z"/>
	<path fill="#F0F2DC" d="M360.367,353.478c0.203-1.009,0.402-1.815,0.402-2.825c0-6.258,0-12.516,0-18.976
		c0-3.229,0.404-3.633,3.635-3.633c0.402,0,1.01,0,1.412,0c2.826,0,3.434,0.604,3.635,3.633c0,5.249,0,10.295,0,15.544
		c0,6.459,0,13.12,0,19.58c0,1.211-0.605,3.229-1.211,3.432c-1.615,0.403-3.635,0-5.248-0.403c-0.809-0.201-1.414-1.211-2.02-2.02
		c-5.451-7.063-10.699-14.332-16.148-21.396c-0.404-0.404-1.211-0.605-1.816-1.011c-0.201,0.809-0.807,1.413-0.807,2.222
		c0,6.46,0,12.919,0,19.379c0,3.026-0.404,3.432-3.434,3.633c-0.807,0-1.412,0-2.221,0c-2.221,0-3.027-1.009-3.027-3.229
		c0-11.708,0-23.617,0-35.325c0-1.615-0.605-3.433,1.615-4.037c2.219-0.605,4.238-0.605,5.854,1.413
		c3.23,4.239,6.461,8.68,9.689,12.919c2.826,3.835,5.854,7.67,8.68,11.506C359.761,353.478,360.166,353.478,360.367,353.478z"/>
	<path fill="#F0F2DC" d="M514.789,402.126c2.221,0,4.643-0.202,6.863,0c0.807,0.202,2.422,1.413,2.221,2.019
		c-0.605,5.651-1.211,11.304-5.451,15.745c-3.027,3.229-6.459,5.046-11.102,5.248c-5.248,0.202-10.496-0.202-14.736-3.835
		c-4.037-3.634-6.863-8.075-7.266-13.525c-0.605-6.861,0-13.523,4.643-19.176c7.064-9.084,23.012-9.286,29.875-0.404
		c1.008,1.211,2.623,2.624,0.605,4.239c-3.434,3.028-5.248,3.229-7.268,1.211c-1.414-1.413-3.027-2.624-4.643-3.633
		c-4.24-2.423-9.084,0-11.506,3.432c-4.24,5.854-4.24,16.352,1.613,21.6c4.846,4.439,13.121,2.221,15.141-3.835
		c0.402-1.413,0-2.423-1.615-2.423c-1.211,0-2.422,0-3.633,0c-2.221,0-3.23-1.01-3.23-3.229c0-2.624,0.605-3.634,3.027-3.634
		C510.347,401.924,512.568,401.924,514.789,402.126C514.789,401.924,514.789,402.126,514.789,402.126z"/>
	<path fill="#F0F2DC" d="M406.39,349.44c0-5.65,0-11.304,0-16.956c0-4.037,0.404-4.439,4.441-4.237
		c3.633,0.2,7.266,0.604,11.102,0.807c5.449,0.404,8.68,5.249,9.285,8.882c0.809,5.652-0.201,10.497-5.449,13.728
		c-2.02,1.211-2.02,2.019-0.605,3.634c2.826,4.037,5.65,8.074,8.275,12.11c1.01,1.614,0.605,2.625-1.211,2.826
		c-2.02,0.201-4.238,0.201-6.258-0.202c-0.809-0.201-1.816-1.01-2.422-1.815c-2.02-3.028-3.836-6.46-5.854-9.487
		c-0.404-0.605-1.213-1.01-1.816-1.615c-0.203,0.809-0.809,1.615-0.809,2.423c0,2.423,0,5.047,0.201,7.469
		c0.203,2.221-0.807,3.027-3.027,3.027c-0.201,0-0.402,0-0.402,0c-5.047,0.202-5.248,0-5.248-5.247
		C406.39,359.938,406.39,354.689,406.39,349.44z M415.07,341.165L415.07,341.165c0,1.412-0.201,3.026,0.201,4.237
		c0.203,0.809,1.615,1.817,2.223,1.817c3.633-0.404,6.055-4.239,5.045-7.671c-0.605-2.422-3.432-4.239-5.854-3.835
		c-2.625,0.604-1.414,2.825-1.615,4.439C415.07,340.559,415.07,340.963,415.07,341.165z"/>
	<path fill="#F0F2DC" d="M439.496,343.789c0-4.037,0-8.276,0-12.313c0-2.826,0.605-3.432,3.432-3.229c0.404,0,1.01,0,1.412,0
		c3.029,0,3.635,0.604,3.635,3.633c0,6.46,0,12.717,0,19.177c0,1.816-0.203,3.835,0.201,5.45c0.404,1.815,1.211,3.835,2.625,5.248
		c1.412,1.816,3.834,2.624,6.258,1.615c2.623-1.211,4.238-3.433,4.439-6.259c0.404-5.651,0.404-11.506,0.605-17.157
		c0-2.221,0-4.44,0-6.863c0-4.844,2.02-6.459,6.66-5.046c0.809,0.202,1.816,1.614,1.816,2.624c0,9.486,0.203,18.975-0.807,28.26
		c-0.605,6.863-5.047,11.506-13.93,11.91c-4.037,0.202-7.871-0.605-11.102-3.229c-1.211-1.01-2.422-2.423-2.826-3.836
		c-1.01-3.026-2.02-6.056-2.422-9.285C439.295,351.258,439.496,347.422,439.496,343.789L439.496,343.789z"/>
	<path fill="#F0F2DC" d="M281.642,370.232c-4.037,0-7.873,0-11.91,0c-3.229,0-3.633-0.604-2.02-3.432
		c5.047-9.487,10.295-19.177,15.342-28.664c0.809-1.615,0.201-2.019-1.211-2.019c-3.027,0-6.057,0-8.883,0
		c-3.027,0-3.633-0.605-3.633-3.028c0-4.037,0.402-4.844,3.633-4.844c7.064,0,14.131,0,20.994,0c3.027,0,3.836,1.211,2.422,4.036
		c-4.238,7.872-8.479,15.744-12.717,23.617c-0.809,1.413-1.412,2.624-2.221,4.037c-1.01,1.816-0.402,2.624,1.615,2.826
		c3.432,0,6.863,0,10.496,0c3.027,0,3.432,0.604,3.432,4.643c0,2.624-0.605,3.229-3.229,3.229
		C289.513,370.232,285.679,370.232,281.642,370.232L281.642,370.232z"/>
	<path fill="#F0F2DC" d="M465.937,424.33c-3.834,0-7.67,0-11.707,0c-2.824,0-3.633-1.211-2.221-3.634
		c3.635-6.661,7.268-13.322,10.9-19.983c1.414-2.624,3.027-5.248,4.439-8.074c0.809-1.615-0.201-2.221-1.613-2.221
		c-3.027,0-6.057,0-8.883,0c-3.027,0-3.432-0.403-3.432-3.634c0-3.836,0.605-4.44,3.432-4.44c7.268,0,14.334,0,21.6,0
		c3.027,0,3.432,0.403,2.221,3.229c-3.027,6.056-6.258,11.909-9.285,17.764c-1.816,3.432-3.633,6.863-5.451,10.295
		c-1.008,2.019-0.604,2.624,1.615,2.624c3.434,0,6.863,0,10.094,0c2.826,0,3.432,0.604,3.432,3.229c0,4.037-0.402,4.644-3.432,4.846
		C473.609,424.33,469.775,424.33,465.937,424.33L465.937,424.33z"/>
	<path fill="#F0F2DC" d="M303.443,349.44c0-5.854,0-11.707,0-17.358c0-3.229,0.605-3.835,3.836-3.835c4.844,0,9.891,0,14.734,0
		c3.027,0,3.633,1.009,3.633,5.046c0,2.624-1.613,2.825-3.633,2.825c-2.422,0-4.846,0-7.268,0c-1.816,0-2.826,0.605-2.826,2.826
		c0,5.651,0,5.651,5.652,5.45c1.412,0,2.826,0,4.439,0c2.02,0,3.029,1.009,3.029,2.826c0,0.807,0,1.614,0,2.422
		c0,1.816-0.809,2.624-2.625,2.624c-2.623,0-5.248,0-7.67,0c-1.816,0-2.625,0.605-2.625,2.624c0,1.413,0,2.826,0,4.441
		c0,2.624,0.605,3.229,3.229,3.432c2.424,0,4.846,0,7.268,0c2.625,0,3.027,1.009,3.027,4.845c0,2.02-1.01,3.027-2.824,3.027
		c-5.451,0-10.9,0-16.555,0c-2.018,0-2.824-1.009-2.824-3.027C303.443,361.351,303.443,355.295,303.443,349.44L303.443,349.44z"/>
	<path fill="#F0F2DC" d="M397.508,403.539c0-5.652,0-11.507,0-17.158c0-3.028,0.605-3.634,3.635-3.634
		c5.248,0,10.496,0,15.744-0.201c1.816,0,2.625,0.807,2.625,2.422c0,0.808,0,1.413,0,2.221c0,3.027-0.404,3.433-3.229,3.433
		c-2.424,0-4.846,0-7.27,0c-2.018,0-3.025,0.808-2.826,2.825c0,0.605,0,1.211,0,2.02c0,2.826,0.607,3.432,3.434,3.432
		c2.221,0,4.439,0,6.459,0c2.221,0,3.027,1.009,3.027,3.835c0,2.02-0.605,3.433-3.027,3.634c-2.422,0-4.643,0-7.064,0
		c-2.02,0-3.027,0.808-2.826,3.027c0,1.615,0,3.028,0,4.644c-0.201,1.816,0.809,2.624,2.625,2.624c2.623,0,5.248,0,8.074,0
		c2.02,0,3.027,0.808,2.826,2.825c0,0.809,0,1.615,0,2.423c0,1.816-1.01,2.826-2.826,2.826c-5.25,0-10.295,0-15.543,0
		c-2.826,0-3.635-0.808-3.635-3.634C397.508,415.045,397.508,409.19,397.508,403.539z"/>
	<path fill="#F0F2DC" d="M206.147,304.628c0.201,10.295-3.027,18.57-8.275,26.242c-1.615,2.22-2.826,2.624-5.047,1.009
		c-8.275-5.854-16.148-12.111-20.993-21.396c-1.816-3.432-2.624-7.064-2.02-11.305c1.413-8.276,5.047-15.341,9.689-22.204
		c0.808-1.211,2.019-2.826,3.634-1.615c1.614,1.212,0.605,2.826-0.202,4.037c-3.432,5.249-6.258,10.497-8.275,16.553
		c-2.222,6.461-0.403,11.91,3.634,16.554c4.239,4.845,9.487,9.083,14.332,13.727c1.413,1.211,2.422,1.009,3.229-0.605
		c5.854-10.496,8.276-21.6,3.229-33.104c-1.211-3.027-3.433-5.651-5.248-8.478c-0.202-0.404-0.809-0.809-0.809-1.011
		c0-1.009,0.404-2.221,0.605-3.229c1.01,0.202,2.221,0,2.624,0.604c2.624,3.634,5.249,7.268,7.065,11.104
		C205.339,296.15,206.55,300.591,206.147,304.628z"/>
	<path fill="#F0F2DC" d="M217.451,411.008c0-1.817,0-4.239,0-6.661c0-1.615,1.211-2.423,2.826-2.019
		c8.479,2.624,16.754,5.854,23.818,11.506c4.644,3.633,7.469,8.478,9.689,13.726c1.815,4.441,3.026,9.084,4.237,13.525
		c0.404,1.412,1.213,3.431-1.211,3.835c-1.613,0.403-2.624-0.809-3.026-3.433c-1.615-7.064-3.635-13.929-8.074-19.781
		c-3.836-5.248-9.286-8.681-15.14-11.104c-2.222-0.807-4.239-1.815-6.46-2.624c-1.614-0.808-2.423-0.201-2.624,1.615
		c-0.605,6.661,0.604,13.121,3.229,19.378c3.23,7.268,7.671,13.524,13.525,18.975c1.613,1.615,3.633,3.028,5.248,4.645
		c1.211,1.009,1.413,2.422,0.402,3.633c-1.211,1.413-2.019,0.202-3.026-0.403c-9.487-6.862-16.352-15.745-20.591-26.646
		C217.855,423.321,216.643,417.467,217.451,411.008z"/>
	<path fill="#F0F2DC" d="M383.582,352.671c0-4.645,0-9.286,0-13.728c0-2.221-0.809-3.027-3.029-3.027c-0.201,0-0.402,0-0.807,0
		c-4.238,0-5.652-1.816-4.238-5.854c0.201-0.808,1.613-1.815,2.422-1.815c6.459-0.202,13.121-0.202,19.58-0.202
		c1.615,0,2.422,1.009,2.623,2.624c0.605,4.439,0,5.248-4.643,5.248c-3.027,0-3.432,0.403-3.432,3.432c0,9.286,0,18.571,0,27.856
		c0,2.019-0.809,3.027-2.826,3.027c-0.201,0-0.402,0-0.807,0c-5.047,0-5.25-0.202-5.25-5.047
		C383.582,361.148,383.582,356.909,383.582,352.671L383.582,352.671z"/>
	<path fill="#F0F2DC" d="M440.101,407.172c0,4.44,0,8.882,0,13.323c0,3.229-0.605,3.835-3.836,3.835
		c-3.836,0-4.439-0.605-4.439-4.037c0-8.882,0-17.563,0-26.443c0-3.028-0.203-3.432-3.23-3.432c-0.404,0-0.807,0-1.211,0
		c-4.24,0-4.24-0.202-4.24-4.44c0.203-3.027,0.607-3.432,3.836-3.432c5.855,0,11.709,0,17.766,0c1.211,0,3.229,0.604,3.432,1.412
		c0.605,1.614,0.402,3.634,0,5.449c-0.203,0.606-2.02,1.011-3.23,1.011c-5.047,0.202-5.047,0-5.047,5.047
		C440.101,399.3,440.101,403.337,440.101,407.172L440.101,407.172z"/>
	<path fill="#F0F2DC" d="M382.974,435.433c-0.807,2.422-1.412,4.239-2.018,5.854c-2.02,5.651-4.039,11.103-6.059,16.754
		c-0.199,0.605-0.807,1.212-1.211,1.212c-0.402,0-1.211-0.605-1.412-1.01c-1.412-2.826-2.623-5.854-3.836-8.883
		c-0.604-1.413-1.01-3.026-1.814-4.439c-0.203-0.605-0.809-1.01-1.213-1.615c-0.605,0.404-1.412,0.808-1.613,1.413
		c-1.615,4.037-3.229,8.074-4.846,12.111c-0.402,0.808-1.01,1.614-1.412,2.221c-0.605-0.808-1.615-1.211-2.02-2.221
		c-1.816-4.44-3.432-9.083-5.047-13.524c-0.807-2.019-1.613-4.239-2.221-6.258c-0.201-0.807,0.201-1.816,0.404-2.825
		c1.01,0.605,2.422,0.807,2.824,1.614c1.414,3.432,2.625,6.863,3.836,10.497c0.201,0.604,0.201,1.211,0.605,1.815
		c0.404,0.605,1.211,1.011,1.816,1.413c0.402-0.604,0.809-1.01,1.211-1.815c1.414-3.836,3.027-7.47,4.439-11.306
		c0.203-0.604,0.607-1.211,1.012-1.613c1.008-1.212,2.018-1.212,2.623,0.402c1.615,3.835,3.027,7.873,4.643,11.708
		c0.203,0.605,0.404,1.211,0.605,1.614c0.404,0.404,0.809,0.808,1.412,1.01c0.203,0,0.809-0.808,1.012-1.211
		c1.412-4.037,2.824-8.073,4.238-12.11c0.201-0.809,1.01-1.817,1.816-2.02C381.361,434.423,382.168,435.23,382.974,435.433z"/>
	<path fill="#F0F2DC" d="M414.668,452.187c0.201-1.413,0.402-2.422,0.604-3.229c0-4.037-0.201-7.872,0-11.91
		c0-0.807,0.809-2.422,1.414-2.422c1.615-0.202,1.816,1.211,1.816,2.422c0,6.662,0,13.323,0,19.782c0,0.808-0.404,2.019-0.809,2.019
		c-0.807,0.202-1.816-0.201-2.221-0.807c-4.439-4.645-8.881-9.488-13.523-14.131c-0.605-0.605-1.412-1.01-2.02-1.413
		c-0.201,0.808-0.807,1.614-0.807,2.625c0,3.633,0.201,7.469,0,11.102c0,1.01-1.01,2.624-1.615,2.624
		c-1.816,0.202-1.816-1.413-1.816-2.624c0-6.459,0-12.717,0-19.177c0-0.808,0.402-1.816,0.809-2.624
		c0.807,0.403,2.018,0.808,2.623,1.413c4.643,4.845,9.084,9.688,13.523,14.534C413.051,450.773,413.658,451.379,414.668,452.187z"/>
	<path fill="#F0F2DC" d="M430.008,459.453c-6.258,0-6.258,0-6.258-6.057c0-5.248,0-10.496,0-15.744c0-2.423,1.01-3.432,3.229-3.432
		c4.846-0.202,9.488-0.404,12.92,3.633c3.834,4.441,4.439,9.487,2.02,14.938C439.697,457.839,435.459,459.857,430.008,459.453z
		 M427.789,446.736L427.789,446.736c0,2.423,0,4.644,0,7.065c0,2.019,0.807,2.826,2.824,2.624c5.449-0.202,9.285-4.441,9.285-9.689
		c0-5.449-4.238-9.284-9.486-9.486c-1.615,0-2.422,0.604-2.422,2.221C427.789,441.892,427.789,444.314,427.789,446.736z"/>
	<path fill="#F0F2DC" d="M500.457,446.938c0-3.229,0-6.258,0-9.486c0-1.413,0.201-3.028,2.02-3.028
		c2.02-0.201,2.02,1.413,2.02,2.826c0.201,6.862,0.201,6.862,7.064,7.064c0.604,0,1.211,0,1.613,0
		c2.221,0.201,3.027-0.808,3.027-3.027c0-1.413-0.201-3.027,0-4.239c0.203-1.009,1.211-1.816,1.818-2.624
		c0.604,0.808,2.018,1.615,2.018,2.423c0.201,6.661,0.201,13.322,0,19.982c0,0.809-1.412,1.615-2.018,2.424
		c-0.607-0.809-1.615-1.615-1.818-2.424c-0.201-2.22,0-4.643,0-7.063c0-1.817-0.807-2.624-2.623-2.624c-2.221,0-4.441,0-6.459,0
		c-1.818,0-2.625,0.604-2.625,2.422c0,2.02,0,4.239,0,6.258c0,1.413,0.201,3.229-2.02,3.229c-2.02,0-2.02-1.614-2.02-3.229
		C500.457,452.994,500.457,449.966,500.457,446.938L500.457,446.938z"/>
	<path fill="#F0F2DC" d="M279.422,465.51c-1.211-0.404-2.826-0.404-4.238-1.212c-4.037-2.22-7.873-1.614-11.91-0.201
		c-0.604,0.201-1.412,0.605-2.018,0.605c-0.404,0-1.01-0.202-1.212-0.605c-0.201-0.202,0-1.01,0.202-1.212
		c3.229-3.633,6.459-7.469,9.891-10.9c2.625-2.624,5.248-2.22,7.873,0.202c2.221,2.02,4.643,4.037,6.863,6.057
		c2.826,2.624,2.422,5.249-1.211,6.46C282.451,465.308,281.037,465.308,279.422,465.51z M279.625,460.866
		c0.201-0.2,0.201-0.604,0.402-0.807c-1.816-1.615-3.635-3.229-5.652-4.644c-0.402-0.201-1.816,0.403-2.219,1.01
		c-0.203,0.403,0.199,1.615,0.604,2.019c1.01,0.809,2.221,1.413,3.23,1.816C277.201,460.866,278.412,460.866,279.625,460.866z"/>
	<path fill="#F0F2DC" d="M463.719,433.212c1.816,0.808,3.633,1.413,5.248,2.423c0.605,0.403,0.605,1.815,0.809,2.825
		c-1.012,0-1.816,0-2.826-0.201c-1.615-0.202-3.23-1.01-4.645-0.809c-0.807,0-1.816,1.614-2.018,2.625
		c-0.203,0.808,0.604,2.019,1.412,2.422c2.02,1.212,4.037,2.221,6.057,3.432c5.854,3.23,4.037,10.094,0.402,12.718
		c-3.633,2.624-9.486,1.413-11.908-2.423c-0.404-0.808-0.203-2.221-0.203-3.229c1.01,0.402,2.422,0.402,3.029,1.211
		c3.025,3.027,5.449,3.432,7.67,0.808c1.615-1.815,1.211-4.643-0.809-5.854c-2.02-1.212-4.238-2.222-6.057-3.433
		c-3.027-2.019-4.037-4.037-3.229-6.863C457.865,435.028,459.681,433.616,463.719,433.212z"/>
	<path fill="#F0F2DC" d="M478.252,446.938c0,7.469,7.268,11.909,13.93,8.479c0.402-0.201,1.01-0.605,1.613-0.605
		c0.605,0,1.615,0,1.615,0.404c0.203,0.604,0.203,1.614,0,2.019c-0.605,0.809-1.615,1.614-2.623,2.02
		c-4.643,1.614-11.709,1.009-15.947-4.441c-3.229-4.237-3.229-11.102,0-15.341c3.633-5.047,10.295-7.064,15.947-4.845
		c0.402,0.202,1.008,0.202,1.211,0.604c0.605,1.011,1.008,2.222,1.615,3.433c-1.01,0-2.424,0.202-3.23-0.202
		C485.318,434.222,477.244,440.479,478.252,446.938z"/>
	<path fill="#F0F2DC" d="M209.174,281.414c0-3.229,1.615-5.45,4.845-6.258c5.047-1.212,10.094,1.413,11.91,6.258
		c1.009,2.423,2.02,4.845,0.605,7.671c-1.011,1.815-2.222,2.826-4.239,3.027C216.442,293.122,209.377,287.269,209.174,281.414z
		 M216.038,279.194c-0.403,0.201-1.614,0.605-2.02,1.211c-0.402,1.01-0.402,2.826,0.202,3.433c1.816,1.615,3.835,3.026,6.057,4.037
		c1.412,0.604,2.623-0.403,2.623-2.02C223.103,283.231,219.267,279.194,216.038,279.194z"/>
	<path fill="#F0F2DC" d="M386.408,434.222c1.412,0,2.623,0,4.236,0c0,8.479,0,16.956,0,25.434c-1.412,0-2.623,0-4.236,0
		C386.408,451.178,386.408,442.901,386.408,434.222z"/>
	<path fill="#F0F2DC" d="M446.965,434.625c1.412,0,2.625,0,4.238,0c0,8.073,0,15.946,0,24.425c-1.211,0-2.623,0.202-4.238,0.202
		C446.965,450.773,446.965,442.901,446.965,434.625z"/>
</g>
</svg>
