<?xml version="1.0" encoding="utf-8"?>
<!-- Generator: Adobe Illustrator 21.0.0, SVG Export Plug-In . SVG Version: 6.00 Build 0)  -->
<svg version="1.1" id="Ebene_1" xmlns="http://www.w3.org/2000/svg" xmlns:xlink="http://www.w3.org/1999/xlink" x="0px" y="0px"
	 viewBox="0 0 30.5 30.9" style="enable-background:new 0 0 30.5 30.9;" xml:space="preserve">
<style type="text/css">
	.st0{clip-path:url(#SVGID_2_);fill:#25B4C5;}
</style>
<g>
	<defs>
		<rect id="SVGID_1_" width="30.5" height="30.9"/>
	</defs>
	<clipPath id="SVGID_2_">
		<use xlink:href="#SVGID_1_"  style="overflow:visible;"/>
	</clipPath>
	<path class="st0" d="M19.4,13.4l-0.3,2.7c0,0.2-0.2,0.3-0.3,0.3h-1.6v6.4c0,0.2-0.2,0.3-0.3,0.3h-3.5c-0.2,0-0.3-0.2-0.3-0.3v-6
		h-1.6c-0.2,0-0.3-0.2-0.3-0.3v-3.1c0-0.2,0.2-0.3,0.3-0.3h1.9v-2.4c0,0,0-0.8,0.4-1.5c0.3-0.7,1.1-1.6,2.7-1.6h2.4
		c0.2,0,0.3,0.2,0.3,0.3v2.8c0,0.2-0.2,0.3-0.3,0.3h-1.6v1.9h1.9h0.2C19.4,13.2,19.4,13.3,19.4,13.4 M30.5,0H0v30.9h30.5V0z"/>
</g>
</svg>
