<?xml version="1.0" encoding="utf-8"?>
<!-- Generator: Adobe Illustrator 21.0.0, SVG Export Plug-In . SVG Version: 6.00 Build 0)  -->
<svg version="1.1" id="Ebene_1" xmlns="http://www.w3.org/2000/svg" xmlns:xlink="http://www.w3.org/1999/xlink" x="0px" y="0px"
	 viewBox="0 0 30.5 30.9" style="enable-background:new 0 0 30.5 30.9;" xml:space="preserve">
<style type="text/css">
	.st0{clip-path:url(#SVGID_2_);fill:#E74158;}
</style>
<g>
	<defs>
		<rect id="SVGID_1_" y="0.1" width="30.5" height="30.9"/>
	</defs>
	<clipPath id="SVGID_2_">
		<use xlink:href="#SVGID_1_"  style="overflow:visible;"/>
	</clipPath>
	<path class="st0" d="M24,15.6c0,0.2-0.1,0.4-0.3,0.5L9.6,22.9C9.6,23,9.5,23,9.4,23c-0.1,0-0.2,0-0.3-0.1c-0.2-0.1-0.2-0.3-0.2-0.4
		V8.7c0-0.2,0.1-0.3,0.2-0.4c0.2-0.1,0.3-0.1,0.5,0l14.1,6.9C23.9,15.2,24,15.4,24,15.6 M30.5,0.1H0V31h30.5V0.1z"/>
</g>
</svg>
