<?xml version="1.0" encoding="utf-8"?>
<!-- Generator: Adobe Illustrator 19.0.0, SVG Export Plug-In . SVG Version: 6.00 Build 0)  -->
<svg version="1.1" id="Ebene_1" xmlns="http://www.w3.org/2000/svg" xmlns:xlink="http://www.w3.org/1999/xlink" x="0px" y="0px"
	 viewBox="0 0 595.3 841.9" style="enable-background:new 0 0 595.3 841.9;" xml:space="preserve">
<style type="text/css">
	.st0{fill:#010202;}
</style>
<path class="st0" d="M394.9,406.8h-127l14.6,58.9c4-3.9,8-7.8,12.1-11.7c6.2-5.9,12.6-11.8,19.6-16.8c8.2-6,17.2-10.9,26.6-15.1
	c10.6-4.8,21.5-8.8,32.8-11.3C380.5,409.1,387.7,408,394.9,406.8z M355.8,450.2c-3.5,1.2-7,2.5-10.5,3.9c-6.2,2.5-12.2,5.6-17.9,9
	c-3.2,1.9-6.4,3.9-9.5,6c-5.8,3.9-11.5,8-16.5,12.9c-3.1,3-6,6.3-8.8,9.5c5.2,4.8,10.4,9.6,15.9,14c4.3,3.4,8.9,6.5,13.7,9.3
	c5.8,3.6,11.9,6.7,18.1,9.5c6.2,2.8,12.6,5.2,19.1,7.2c4.9,1.6,9.9,2.9,14.9,4c3,0.7,6.1,1.2,9.1,1.8c-4.2-3.1-8.3-6.3-12-9.9
	c-2.9-2.8-5.5-5.9-7.9-9.2c-2.9-4.1-5.5-8.4-7.4-13c-2-4.6-3.5-9.4-4.4-14.4c-1.2-6.2-1.6-12.5-0.8-18.7c0.3-2.7,0.8-5.4,1.3-8.1
	c0.6-3,1.3-5.9,2.1-8.8c0.4-1.5,0.9-2.9,1.4-4.4C355.6,450.6,355.7,450.4,355.8,450.2z M394.9,574.4c-1.1-0.1-2.2-0.3-3.3-0.4
	c-6.1-0.8-12.1-2.1-18-3.7c-5.5-1.4-11-3.1-16.3-5c-6.7-2.4-13.2-5.2-19.5-8.4c-6.4-3.2-12.5-6.8-18.5-10.8
	c-6.4-4.3-12.5-9-18.3-14.1c-0.8-0.7-1.7-1.5-2.5-2.2l10.8,44.6H394.9L394.9,574.4z M439.8,441.6c-3.1-0.4-6.1-0.8-9.2-1.1
	c-2.5-0.2-4.9-0.4-7.4-0.5c-3.1-0.1-6.2-0.1-9.3-0.1c-3.1,0-6.2,0.1-9.3,0.3c-3.9,0.3-7.8,0.9-11.7,1.5l23.5,64.4L439.8,441.6z
	 M541.5,459.6v-52.8H435.5c8,1.5,15.9,2.9,23.8,4.9c6.2,1.5,12.2,3.4,18.2,5.6c7.4,2.7,14.7,6,21.6,9.8c7,3.8,13.8,8.1,20.2,12.9
	c7,5.1,13.6,10.7,19.6,16.9C539.8,457.8,540.6,458.7,541.5,459.6z M539.1,491c-3.4-3.4-6.8-6.9-10.5-10.1c-2.8-2.5-5.8-4.9-8.9-7.1
	c-3.8-2.8-7.6-5.4-11.6-7.8c-3.9-2.4-8-4.7-12.1-6.7c-4.9-2.4-10-4.5-15-6.6c1.7,6,3.3,12,4,18.2c0.5,4.5,0.5,9,0,13.5
	c-0.4,4.1-1.1,8.2-2.2,12.2c-1.3,4.9-3.2,9.7-5.6,14.2c-2.4,4.6-5.2,8.9-8.7,12.7c-3.7,4.1-8.1,7.6-12.3,11.2
	c-0.9,0.8-1.9,1.6-2.8,2.4c3-0.7,5.9-1.3,8.9-2.1c2.2-0.5,4.3-1.1,6.5-1.7c2.7-0.8,5.3-1.6,7.9-2.5c2.6-0.9,5.2-1.9,7.8-2.9
	c3.1-1.2,6.1-2.6,9-4c3.3-1.6,6.6-3.3,9.8-5.1c2.6-1.4,5.2-2.9,7.7-4.5c3.2-2,6.3-4.1,9.4-6.3c3.1-2.2,6.1-4.6,8.9-7.1
	C532.7,497.8,535.9,494.4,539.1,491z M541.5,574.4l-0.2-48.4c-0.8,0.8-1.7,1.7-2.5,2.5c-4.7,4.5-9.6,8.8-14.8,12.8
	c-4.7,3.7-9.6,7.1-14.7,10.1c-6.2,3.8-12.7,7.2-19.4,10.2c-6.7,3-13.5,5.6-20.5,7.5c-8.5,2.4-17.2,3.8-26,5.2L541.5,574.4
	L541.5,574.4z M595.2,632.8H269.4l-48.1-192.7l-46.8-0.2l-48.7,192.9H-0.7v-58.5h86.5l42.5-167.6h-129v-58.9h595.9V632.8z"/>
<path class="st0" d="M38.5,249.4c-3.4,0-6.7,0.6-9.8,1.9c-3.2,1.3-6.2,3.3-8.5,5.9c-2.6,2.8-4.5,6.2-5.7,9.9
	c-1.7,4.8-2.1,9.9-2.1,15c0,4.6,0.4,9.2,1.7,13.6c1,3.8,2.7,7.4,5.2,10.4c2.4,3,5.6,5.3,9.1,6.7c3.1,1.3,6.4,2,9.8,2
	c3.6,0.1,7.2-0.6,10.4-2.2c3.1-1.4,5.9-3.7,8-6.4c2.5-3,4.2-6.5,5.3-10.3c1.4-4.3,2-8.9,2-13.5c0.1-5-0.5-9.9-2.1-14.7
	c-1.1-3.6-2.8-7.1-5.3-10c-2.2-2.6-5.1-4.8-8.2-6.1C45.2,250.1,41.9,249.4,38.5,249.4z M12.9,208.4v30.5l-0.1,12.7
	c0.4-0.6,0.8-1.2,1.2-1.8c0.8-1.1,1.7-2.1,2.6-3c1.6-1.6,3.4-3,5.3-4.2c2.2-1.3,4.5-2.3,7-3.1c3.5-1.1,7.2-1.6,11-1.7
	c4.8-0.1,9.6,0.6,14.1,2.4c5.3,1.9,10.1,5.2,13.7,9.5c3.4,3.8,6,8.4,7.6,13.2c2.2,6.1,2.9,12.7,2.8,19.2c0,6.1-0.8,12.2-2.7,18
	c-1.7,5.3-4.5,10.3-8.2,14.3c-3.2,3.6-7.1,6.4-11.4,8.3c-5.1,2.4-10.9,3.3-16.6,3.2c-4.2,0-8.4-0.6-12.4-2.1c-2.5-0.9-5-2.1-7.1-3.6
	c-1.4-1-2.7-2.2-3.9-3.5c-0.7-0.8-1.4-1.5-1.9-2.4c-0.7-0.9-1.2-1.9-1.8-2.9v12.1H-0.8V208.4H12.9z M105.6,208.4v115.1H91.7V208.4
	H105.6z M158.9,249.2c-3.2,0-6.4,0.6-9.3,1.7c-3.4,1.3-6.4,3.4-8.8,6c-3.3,3.4-5.4,7.8-6.6,12.4c-1.1,4.1-1.5,8.2-1.5,12.4
	c0,4.9,0.5,9.8,2.1,14.5c1.2,3.8,3,7.5,5.8,10.4c2.6,3,6.1,5.2,9.8,6.4c2.8,1,5.8,1.4,8.7,1.4c2.9,0,5.9-0.3,8.6-1.2
	c3.3-1,6.3-2.9,8.8-5.4c2.8-2.8,4.8-6.3,6.1-10c1.9-5,2.7-10.4,2.7-15.8c0.1-5-0.5-10-2.1-14.7c-1.2-3.7-3-7.3-5.6-10.2
	c-2.4-2.8-5.6-5-9.1-6.3C165.4,249.7,162.2,249.2,158.9,249.2z M158.9,237.7c5.4,0,10.7,0.7,15.6,2.6c5.4,2,10.5,5.3,14.3,9.7
	c4,4.3,6.7,9.6,8.3,15.1c1.7,5.5,2.2,11.3,2.2,17c0,6-0.6,11.9-2.5,17.6c-1.9,6.2-5.2,12.1-10,16.5c-3.8,3.8-8.7,6.5-13.8,8.1
	c-4.5,1.4-9.3,1.9-14,1.9c-5.3,0-10.7-0.7-15.6-2.6c-5.6-2-10.8-5.6-14.6-10.2c-3.6-4.1-6.2-9.1-7.8-14.3
	c-1.8-5.4-2.5-11.1-2.5-16.7c-0.1-5.8,0.6-11.6,2.4-17.1c1.4-4.9,3.7-9.5,6.9-13.5c3.7-4.7,8.6-8.5,14.1-10.8
	C147.2,238.6,153,237.7,158.9,237.7z M273.2,274.4c-0.1-1.1-0.2-2.1-0.3-3.2c-0.5-4-1.7-7.9-3.9-11.4c-2.3-3.8-5.7-7-9.7-8.8
	c-3-1.4-6.3-2-9.6-2.1c-3.5-0.1-7.1,0.5-10.3,1.9c-3.8,1.6-7,4.4-9.3,7.8c-2.6,3.7-4.1,8.1-4.8,12.5c-0.2,1.1-0.3,2.2-0.5,3.3
	L273.2,274.4L273.2,274.4z M286.4,297.1c-0.2,0.8-0.3,1.5-0.5,2.3c-0.4,1.8-1,3.5-1.7,5.2c-1.1,2.8-2.5,5.5-4.2,7.9
	c-3.2,4.7-7.9,8.5-13.1,10.7c-5.2,2.4-11.1,3.1-16.9,3c-5.4,0-10.7-0.7-15.6-2.7c-5.9-2.2-11.2-6.1-15-11.1
	c-3.1-3.9-5.2-8.6-6.6-13.4c-1.7-5.8-2.4-11.8-2.3-17.7c0.1-6,1.1-12,3.2-17.6c1.7-4.8,4.2-9.4,7.6-13.3c3.6-4.3,8.3-7.9,13.5-10
	c4.6-2,9.7-2.9,14.7-2.9c5.4,0,10.8,1,15.7,3.3c5,2.2,9.5,5.7,12.8,10c3.6,4.4,6,9.7,7.3,15.2c1.4,5.3,1.9,10.7,1.9,16.1
	c0,1.1,0,2.2,0,3.2h-62.8c0,0.9,0.1,1.8,0.1,2.7c0.1,1.5,0.2,3,0.5,4.5c0.4,2.6,1,5.3,2.1,7.8c1.7,4.4,4.7,8.5,8.7,10.9
	c4,2.8,9.1,3.7,14.1,3.7c4.3,0.1,8.6-0.5,12.1-2.6c2.7-1.5,5-3.8,6.8-6.4c1.5-2.2,2.6-4.7,3.4-7.2c0.2-0.6,0.4-1.2,0.6-1.8
	L286.4,297.1L286.4,297.1z M365.3,264.4h-13.8c-0.1-0.8-0.2-1.6-0.4-2.4c-0.4-2.2-1.2-4.4-2.6-6.2c-1.7-2.4-4.3-4-7.1-5
	c-3.2-1.2-6.6-1.6-10-1.6c-2.7,0-5.5,0.2-8.2,1c-2.6,0.7-5.2,1.9-6.9,4c-1.4,1.6-2.3,3.8-2.3,6.1c-0.1,2.4,0.6,4.9,2.1,6.6
	c1.7,2.1,4.4,3.1,7,3.9c4.5,1.4,8.8,2.3,13.1,3.3c3.8,0.9,7.7,1.8,11.5,3c4.6,1.3,9.2,3,12.9,6c3,2.3,5.4,5.5,6.6,9.1
	c1.1,2.9,1.4,6,1.1,9.1c-0.3,3.9-1.5,7.8-3.6,11.1c-1.8,3.1-4.4,5.7-7.4,7.7c-3.6,2.6-7.9,4.2-12.2,5c-3.9,0.9-8,1.1-12,1.1
	c-3.9,0-7.8-0.4-11.7-1.2c-3.7-0.8-7.4-2.1-10.6-4.1c-3.6-2.1-6.8-5.2-9-8.9c-2.2-3.4-3.4-7.5-3.7-11.5c-0.1-1.1-0.2-2.2-0.2-3.3
	h13.5c0.1,0.9,0.2,1.9,0.4,2.8c0.5,2.9,1.6,5.8,3.4,8c2.1,2.7,5.3,4.5,8.6,5.5c3.3,1.1,6.7,1.5,10.1,1.5c3.8,0,7.8-0.4,11.3-1.9
	c2.3-0.9,4.4-2.2,6.1-4.1c2-2.2,3.4-5.2,3.2-8.1c0-2.7-1.3-5.3-3.2-7.2c-2.1-2.2-5.1-3.2-8-4.1c-3.3-1.1-6.6-1.9-9.9-2.7
	c-4.5-1.1-9.1-2.2-13.7-3.4c-3.5-0.9-7-1.9-10.1-3.8c-3.2-1.8-6-4.6-7.6-7.9c-1.7-3.2-2.3-6.9-2.1-10.6c0.2-4.6,1.7-9.2,4.6-12.8
	c3.1-4.2,7.9-7,12.8-8.6c5.2-1.8,10.5-2.2,15.9-2.1c4.6,0.1,9.2,0.7,13.6,2.2c4.7,1.5,9.3,4.1,12.4,7.9c3,3.4,4.8,8,5.4,12.5
	C365.1,261.7,365.2,263.1,365.3,264.4z M446.2,264.4h-13.8c-0.1-0.8-0.2-1.6-0.4-2.4c-0.4-2.2-1.2-4.4-2.6-6.2c-1.7-2.4-4.3-4-7.1-5
	c-3.2-1.2-6.6-1.6-10-1.6c-2.7,0-5.4,0.2-8.2,1c-2.6,0.7-5.2,1.9-6.9,4c-1.4,1.6-2.3,3.8-2.3,6.1c-0.1,2.4,0.6,4.9,2.1,6.6
	c1.7,2.1,4.4,3.1,7,3.9c4.5,1.4,8.8,2.3,13.1,3.3c3.8,0.9,7.7,1.8,11.5,3c4.6,1.3,9.2,3,12.9,6c3,2.3,5.4,5.5,6.6,9.1
	c1.1,2.9,1.4,6,1.1,9.1c-0.3,3.9-1.5,7.8-3.6,11.1c-1.8,3.1-4.4,5.7-7.4,7.7c-3.6,2.6-7.9,4.2-12.2,5c-3.9,0.9-8,1.1-12,1.1
	c-3.9,0-7.8-0.4-11.7-1.2c-3.7-0.8-7.4-2.1-10.6-4.1c-3.7-2.1-6.8-5.2-9-8.9c-2.2-3.4-3.4-7.5-3.7-11.5c-0.1-1.1-0.1-2.2-0.2-3.3
	h13.5c0.1,0.9,0.2,1.9,0.4,2.8c0.5,2.9,1.6,5.8,3.4,8c2.1,2.7,5.3,4.5,8.6,5.5c3.3,1.1,6.7,1.5,10.1,1.5c3.9,0,7.8-0.4,11.3-1.9
	c2.3-0.9,4.4-2.2,6.1-4.1c2-2.2,3.4-5.2,3.2-8.1c0-2.7-1.3-5.3-3.2-7.2c-2.1-2.2-5.1-3.2-8-4.1c-3.3-1.1-6.6-1.9-9.9-2.7
	c-4.5-1.1-9.1-2.2-13.7-3.4c-3.5-0.9-7-1.9-10.1-3.8c-3.2-1.8-6-4.6-7.6-7.9c-1.7-3.2-2.3-6.9-2.1-10.6c0.2-4.6,1.7-9.2,4.6-12.8
	c3.1-4.2,7.9-7,12.8-8.6c5.2-1.8,10.5-2.2,15.9-2.1c4.6,0.1,9.2,0.7,13.6,2.2c4.7,1.5,9.3,4.1,12.4,7.9c3,3.4,4.8,8,5.4,12.5
	C445.9,261.7,446.1,263.1,446.2,264.4z M522.3,274.4c-0.1-1.1-0.2-2.1-0.3-3.2c-0.5-4-1.7-7.9-3.9-11.4c-2.3-3.8-5.7-7-9.7-8.8
	c-3-1.4-6.3-2-9.6-2.1c-3.5-0.1-7.1,0.5-10.3,1.9c-3.8,1.6-7,4.4-9.3,7.8c-2.6,3.7-4.1,8.1-4.8,12.5c-0.2,1.1-0.3,2.2-0.5,3.3
	L522.3,274.4L522.3,274.4z M535.5,297.1c-0.2,0.8-0.3,1.5-0.5,2.3c-0.4,1.8-1,3.5-1.7,5.2c-1.1,2.8-2.5,5.5-4.2,7.9
	c-3.2,4.7-7.9,8.5-13.1,10.7c-5.2,2.4-11.1,3.1-16.9,3c-5.4,0-10.7-0.7-15.6-2.7c-5.9-2.2-11.2-6.1-14.9-11.1
	c-3.1-3.9-5.2-8.6-6.6-13.4c-1.7-5.8-2.4-11.8-2.3-17.7c0.1-6,1.1-12,3.2-17.6c1.7-4.8,4.2-9.4,7.6-13.3c3.6-4.3,8.3-7.9,13.5-10
	c4.6-2,9.7-2.9,14.7-2.9c5.4,0,10.8,1,15.7,3.3c5,2.2,9.5,5.7,12.8,10c3.6,4.4,6,9.7,7.3,15.2c1.4,5.3,1.9,10.7,1.9,16.1
	c0,1.1,0,2.2,0,3.2h-62.8c0,0.9,0.1,1.8,0.1,2.7c0.1,1.5,0.2,3,0.5,4.5c0.4,2.6,1,5.3,2.1,7.8c1.7,4.4,4.7,8.5,8.7,10.9
	c4,2.8,9.1,3.7,14.1,3.7c4.3,0.1,8.6-0.5,12.1-2.6c2.7-1.5,5-3.8,6.8-6.4c1.5-2.2,2.6-4.7,3.4-7.2c0.2-0.6,0.4-1.2,0.6-1.8
	L535.5,297.1L535.5,297.1z M595.4,238.1v14.3c-1-0.1-2.1-0.2-3.1-0.2c-1.6-0.1-3.3,0-4.9,0.2c-1.8,0.2-3.6,0.7-5.4,1.3
	c-3.3,1.2-6.5,3.1-8.9,5.7c-3,3-5.1,6.9-6.2,11c-1,3.3-1.3,6.7-1.4,10.1c-0.2,3.7-0.2,7.3-0.3,11v32h-13.8v-83.4h13V258
	c0.7-1.4,1.3-2.8,2.1-4.1c1.1-1.9,2.4-3.8,3.8-5.4c1.7-2.1,3.7-3.9,6-5.4c2.6-1.8,5.6-3.1,8.8-3.9c2.8-0.7,5.6-1,8.4-1.1
	C594.1,238.1,594.7,238.1,595.4,238.1z"/>
</svg>
