<?xml version="1.0" encoding="utf-8"?>
<!-- Generator: Adobe Illustrator 15.1.0, SVG Export Plug-In  -->
<!DOCTYPE svg PUBLIC "-//W3C//DTD SVG 1.1//EN" "http://www.w3.org/Graphics/SVG/1.1/DTD/svg11.dtd" [
	<!ENTITY ns_flows "http://ns.adobe.com/Flows/1.0/">
]>
<svg version="1.1"
	 xmlns="http://www.w3.org/2000/svg" xmlns:xlink="http://www.w3.org/1999/xlink" xmlns:a="http://ns.adobe.com/AdobeSVGViewerExtensions/3.0/"
	 x="0px" y="0px" viewBox="0 0 495 400" enable-background="new 0 0 495 400" xml:space="preserve">
<defs>
</defs>
<polygon fill="#F0F2DC" points="246.267,28.228 292.325,28.228 292.325,0.795 212.351,0.795 212.351,140.467 292.325,140.467 
	292.325,113.035 246.267,113.035 246.267,84.138 292.325,84.138 292.325,56.707 246.267,56.707 "/>
<g>
	<defs>
		<rect id="SVGID_7_" y="0" width="494.929" height="326.156"/>
	</defs>
	<clipPath id="SVGID_8_">
		<use xlink:href="#SVGID_7_"  overflow="visible"/>
	</clipPath>
	<polygon clip-path="url(#SVGID_8_)" fill="none" stroke="#000000" stroke-width="1.59" points="246.267,28.228 292.325,28.228 
		292.325,0.795 212.351,0.795 212.351,140.467 292.325,140.467 292.325,113.035 246.267,113.035 246.267,84.138 292.325,84.138 
		292.325,56.707 246.267,56.707 	"/>
</g>
<polygon fill="#F0F2DC" points="67.369,0.795 34.711,59.847 34.711,0.795 0.794,0.795 0.794,140.467 34.711,140.467 34.711,79.322 
	67.369,140.467 106.309,140.467 67.369,67.176 106.309,0.795 "/>
<g>
	<defs>
		<rect id="SVGID_6_" y="0" width="494.929" height="326.156"/>
	</defs>
	<clipPath id="SVGID_9_">
		<use xlink:href="#SVGID_6_"  overflow="visible"/>
	</clipPath>
	<polygon clip-path="url(#SVGID_9_)" fill="none" stroke="#000000" stroke-width="1.59" points="34.71,79.322 67.369,140.468 
		106.31,140.468 67.369,67.177 106.31,0.795 67.369,0.795 34.71,59.847 34.71,0.795 0.795,0.795 0.795,140.468 34.71,140.468 	"/>
</g>
<polygon fill="#F0F2DC" points="155.779,113.036 155.779,0.795 121.863,0.795 121.863,140.467 201.209,140.467 201.209,113.036 "/>
<g>
	<defs>
		<rect id="SVGID_5_" y="0" width="494.929" height="326.156"/>
	</defs>
	<clipPath id="SVGID_10_">
		<use xlink:href="#SVGID_5_"  overflow="visible"/>
	</clipPath>
	<polygon clip-path="url(#SVGID_10_)" fill="none" stroke="#000000" stroke-width="1.59" points="155.779,113.036 155.779,0.795 
		121.863,0.795 121.863,140.467 201.209,140.467 201.209,113.036 	"/>
</g>
<rect x="314.779" y="0.796" fill="#F0F2DC" width="33.892" height="139.672"/>
<g>
	<defs>
		<rect id="SVGID_4_" y="0" width="494.929" height="326.156"/>
	</defs>
	<clipPath id="SVGID_11_">
		<use xlink:href="#SVGID_4_"  overflow="visible"/>
	</clipPath>
	
		<rect x="314.779" y="0.796" clip-path="url(#SVGID_11_)" fill="none" stroke="#000000" stroke-width="1.59" width="33.892" height="139.672"/>
	<path clip-path="url(#SVGID_11_)" fill="#F0F2DC" d="M288.854,179.975h-34.633v81.459c0,22.236,4.062,35.919,13.254,46.183
		c10.262,11.331,26.296,17.745,44.04,17.745c17.103,0,32.281-5.986,41.901-16.464c9.834-10.689,14.751-26.511,14.751-47.464v-81.459
		h-34.633v82.956c0,10.262-1.068,16.249-3.634,20.952c-3.207,5.559-10.69,9.408-18.599,9.408c-7.27,0-13.897-3.207-17.531-8.125
		c-3.42-4.917-4.917-11.545-4.917-22.235V179.975z"/>
	<path clip-path="url(#SVGID_11_)" fill="none" stroke="#000000" stroke-width="1.59" d="M288.854,179.975h-34.633v81.459
		c0,22.236,4.062,35.919,13.254,46.183c10.262,11.331,26.296,17.745,44.04,17.745c17.103,0,32.281-5.986,41.901-16.464
		c9.834-10.689,14.751-26.511,14.751-47.464v-81.459h-34.633v82.956c0,10.262-1.068,16.249-3.634,20.952
		c-3.207,5.559-10.69,9.408-18.599,9.408c-7.27,0-13.897-3.207-17.531-8.125c-3.42-4.917-4.917-11.545-4.917-22.235V179.975z"/>
</g>
<polygon fill="#F0F2DC" points="393.873,179.975 393.873,207.983 426.793,207.983 426.793,322.582 461.426,322.582 461.426,207.983 
	494.135,207.983 494.135,179.975 "/>
<g>
	<defs>
		<rect id="SVGID_3_" y="0" width="494.929" height="326.156"/>
	</defs>
	<clipPath id="SVGID_12_">
		<use xlink:href="#SVGID_3_"  overflow="visible"/>
	</clipPath>
	<polygon clip-path="url(#SVGID_12_)" fill="none" stroke="#000000" stroke-width="1.59" points="461.427,207.984 494.135,207.984 
		494.135,179.976 393.873,179.976 393.873,207.984 426.795,207.984 426.795,322.582 461.427,322.582 	"/>
</g>
<polygon fill="#F0F2DC" points="460.115,0.795 460.115,79.322 409.233,0.795 375.313,0.795 375.313,140.467 409.233,140.467 
	409.233,60.893 460.115,140.467 494.037,140.467 494.037,0.795 "/>
<g>
	<defs>
		<rect id="SVGID_2_" y="0" width="494.929" height="326.156"/>
	</defs>
	<clipPath id="SVGID_13_">
		<use xlink:href="#SVGID_2_"  overflow="visible"/>
	</clipPath>
	<polygon clip-path="url(#SVGID_13_)" fill="none" stroke="#000000" stroke-width="1.59" points="409.233,60.894 460.115,140.467 
		494.037,140.467 494.037,0.795 460.115,0.795 460.115,79.322 409.233,0.795 375.312,0.795 375.312,140.467 409.233,140.467 	"/>
</g>
<path fill="#F0F2DC" d="M188.964,274.048h-33.348l16.673-53.237L188.964,274.048z M197.517,302.056l6.198,20.525h38.054
	l-46.817-142.606h-44.039l-47.031,142.606h36.984l6.2-20.525H197.517z"/>
<path fill="none" stroke="#000000" stroke-width="1.59" d="M188.964,274.048h-33.348l16.673-53.237L188.964,274.048z
	 M197.517,302.056l6.198,20.525h38.054l-46.817-142.606h-44.039l-47.031,142.606h36.984l6.2-20.525H197.517z"/>
<polygon fill="#F0F2DC" points="0.795,179.975 0.795,322.582 81.809,322.582 81.809,294.573 35.423,294.573 35.423,179.975 "/>
<g>
	<defs>
		<rect id="SVGID_1_" y="0" width="494.929" height="326.156"/>
	</defs>
	<clipPath id="SVGID_14_">
		<use xlink:href="#SVGID_1_"  overflow="visible"/>
	</clipPath>
	<polygon clip-path="url(#SVGID_14_)" fill="none" stroke="#000000" stroke-width="1.59" points="35.424,294.574 35.424,179.975 
		0.796,179.975 0.796,322.582 81.809,322.582 81.809,294.574 	"/>
</g>
<path fill="#F0F2DC" stroke="#000000" d="M3.027,360.049c4.176-7.993,11.089-11.593,18.073-11.593
	c11.233,0,17.065,7.704,17.065,15.697c0,4.752-1.728,9.937-6.336,14.257l-11.233,10.657l5.977-1.225h11.521v12.241H5.259
	l-3.24-6.696l20.738-23.33c6.841-7.705-4.464-15.049-10.081-4.752L3.027,360.049z"/>
<path fill="#F0F2DC" stroke="#000000" d="M75.462,349.176l3.456,6.913L59.26,400.157H45.435l16.562-38.739H42.555v-12.241H75.462z"
	/>
<path fill="#F0F2DC" stroke="#000000" d="M84.028,386.188c3.96,0,7.201,3.168,7.201,7.128c0,4.032-3.24,7.272-7.201,7.272
	s-7.128-3.24-7.128-7.272C76.899,389.356,80.067,386.188,84.028,386.188z"/>
<path fill="#F0F2DC" stroke="#000000" d="M151.206,384.244l-4.752,3.888l9.577,11.953h-15.121l-3.457-4.104
	c-10.441,9.217-28.946,3.816-28.946-12.024c0-6.192,2.808-9.938,7.632-12.817c-8.785-9.217-1.152-22.754,11.377-22.394
	c7.201,0.216,13.825,5.256,13.825,13.249c0,5.832-2.592,9.217-6.192,11.736l4.249,5.257l4.608-3.96L151.206,384.244z
	 M123.699,379.995c-3.168,1.656-3.528,5.185-1.944,7.345c1.8,2.521,5.904,2.664,8.208,0L123.699,379.995z M123.915,362.209
	c0,1.296,1.296,2.809,2.664,4.465c2.232-1.513,3.528-2.809,3.528-4.681c0-1.656-1.224-3.097-2.808-3.097
	C125.499,358.897,123.915,360.337,123.915,362.209z"/>
<path fill="#F0F2DC" stroke="#000000" d="M170.856,360.049c4.176-7.993,11.089-11.593,18.073-11.593
	c11.233,0,17.065,7.704,17.065,15.697c0,4.752-1.728,9.937-6.336,14.257l-11.233,10.657l5.977-1.225h11.521v12.241h-32.835
	l-3.24-6.696l20.738-23.33c6.841-7.705-4.464-15.049-10.081-4.752L170.856,360.049z"/>
<path fill="#F0F2DC" stroke="#000000" d="M229.97,400.876c-11.665,0-19.009-5.76-19.009-16.057c0-4.033,2.304-8.497,6.841-11.882
	c-3.384-2.231-4.464-6.12-4.464-9.145c0-11.881,10.152-15.337,16.633-15.337h1.009c8.425,0,16.633,4.464,16.633,15.841
	c0,2.232-1.439,6.553-4.392,8.569c4.68,2.376,6.696,7.704,6.624,11.232c-0.216,10.441-6.265,16.777-18.865,16.777H229.97z
	 M231.122,388.852c8.641,0,7.561-11.594,0.216-10.945h-1.656c-7.128-0.216-8.28,10.729,0.217,10.945H231.122z M229.97,358.969
	c-6.624,0.144-6.552,10.081,0.433,10.081c7.921,0,7.345-9.649,0.647-10.081H229.97z"/>
<path fill="#F0F2DC" stroke="#000000" d="M275.976,382.66c0.721,4.104,4.104,5.76,7.272,5.76c3.169,0,6.193-1.944,6.193-4.896
	v-22.682h-11.594v-11.665h24.339v34.347c0,11.089-9.722,17.354-19.442,17.354c-8.784,0-17.497-4.896-18.938-15.697L275.976,382.66z"
	/>
<path fill="#F0F2DC" stroke="#000000" d="M322.632,383.091c0,8.209,14.545,8.209,14.617,0v-33.915h13.033v33.915
	c-0.072,23.906-40.756,23.906-40.684,0v-33.915h13.033V383.091z"/>
<path fill="#F0F2DC" stroke="#000000" d="M357.91,349.176h12.961v38.235h20.738v12.745H357.91V349.176z"/>
<path fill="#F0F2DC" stroke="#000000" d="M409.606,400.157h-12.89v-50.98h12.89V400.157z"/>
<path fill="#F0F2DC" stroke="#000000" d="M438.404,400.157v-34.203l-4.896,3.385l-6.769-5.905l13.537-14.257h9.721v50.98H438.404z"
	/>
<path fill="#F0F2DC" stroke="#000000" d="M474.837,400.876c-11.665,0-19.01-5.76-19.01-16.057c0-4.033,2.305-8.497,6.841-11.882
	c-3.385-2.231-4.465-6.12-4.465-9.145c0-11.881,10.153-15.337,16.634-15.337h1.008c8.425,0,16.634,4.464,16.634,15.841
	c0,2.232-1.44,6.553-4.393,8.569c4.681,2.376,6.696,7.704,6.625,11.232c-0.217,10.441-6.265,16.777-18.866,16.777H474.837z
	 M475.989,388.852c8.641,0,7.561-11.594,0.216-10.945h-1.656c-7.129-0.216-8.28,10.729,0.216,10.945H475.989z M474.837,358.969
	c-6.625,0.144-6.553,10.081,0.432,10.081c7.921,0,7.345-9.649,0.648-10.081H474.837z"/>
</svg>
