<?xml version="1.0" encoding="utf-8"?>
<!-- Generator: Adobe Illustrator 15.1.0, SVG Export Plug-In  -->
<!DOCTYPE svg PUBLIC "-//W3C//DTD SVG 1.1//EN" "http://www.w3.org/Graphics/SVG/1.1/DTD/svg11.dtd" [
	<!ENTITY ns_flows "http://ns.adobe.com/Flows/1.0/">
]>
<svg version="1.1"
	 xmlns="http://www.w3.org/2000/svg" xmlns:xlink="http://www.w3.org/1999/xlink" xmlns:a="http://ns.adobe.com/AdobeSVGViewerExtensions/3.0/"
	 x="0px" y="0px" viewBox="-4.032 -9.787 459 81" enable-background="new -4.032 -9.787 459 81"
	 xml:space="preserve">
<defs>
</defs>
<path fill="#F0F2DC" stroke="#000000" d="M15.837,36h-2.304v16.201H0.5V1.22h20.378c10.513,0,18.649,4.825,18.938,16.777
	c0,9.433-3.816,14.761-10.009,16.706l13.897,17.498H27.646L15.837,36z M21.094,24.91c8.137,0,8.137-11.665,0-11.665h-7.561V24.91
	H21.094z"/>
<path fill="#F0F2DC" stroke="#000000" d="M59.397,35.135c0,8.208,14.545,8.208,14.617,0V1.22h13.033v33.915
	c-0.072,23.906-40.755,23.906-40.684,0V1.22h13.033V35.135z"/>
<path fill="#F0F2DC" stroke="#000000" d="M94.676,1.22h12.241l12.313,21.746l4.32,10.225l0.36-0.072
	c-0.072,0-1.368-8.785-1.44-8.785V1.22h12.817v50.98h-13.033l-11.521-20.09l-4.464-10.225l-0.36,0.072l1.656,9.865v20.378H94.676
	V1.22z"/>
<path fill="#F0F2DC" stroke="#000000" d="M162.429,1.22c10.225,0,19.802,5.185,19.802,17.065v17.138
	c0,11.737-9.577,16.849-19.802,16.777h-19.082V1.22H162.429z M162.861,40.104c4.393,0,6.409-2.232,6.409-5.544V18.646
	c0-3.313-2.088-5.401-6.409-5.401h-6.552v26.858H162.861z"/>
<path fill="#F0F2DC" stroke="#000000" d="M214.987,35.135c0,8.208,14.545,8.208,14.617,0V1.22h13.033v33.915
	c-0.072,23.906-40.756,23.906-40.684,0V1.22h13.033V35.135z"/>
<path fill="#F0F2DC" stroke="#000000" d="M250.265,1.22h12.89l10.729,24.914L284.684,1.22h12.89v50.98h-12.962l0.072-14.689
	l0.792-10.297l-0.432-0.072l-6.696,17.498h-8.857l-6.841-17.498l-0.359,0.072l0.864,10.297v14.689h-12.89V1.22z"/>
<path fill="#F0F2DC" stroke="#000000" d="M331.482,35.135c0,8.208,14.545,8.208,14.617,0V1.22h13.033v33.915
	c-0.072,23.906-40.756,23.906-40.684,0V1.22h13.033V35.135z"/>
<path fill="#F0F2DC" stroke="#000000" d="M366.76,1.22h12.241l12.313,21.746l4.32,10.225l0.359-0.072
	c-0.071,0-1.368-8.785-1.439-8.785V1.22h12.816v50.98h-13.033l-11.521-20.09l-4.465-10.225l-0.359,0.072l1.656,9.865v20.378h-12.89
	V1.22z"/>
<path fill="#F0F2DC" stroke="#000000" d="M421.121,36.071c5.112,6.192,16.346,6.48,16.706,1.008c0.144-2.88-4.537-4.537-8.713-5.113
	c-8.209-1.296-15.697-6.48-15.697-16.201c0-10.009,9.072-15.266,18.434-15.266c6.192,0,12.169,1.729,17.425,8.137l-8.425,6.481
	c-5.328-5.688-14.473-5.473-14.688,0.432c0.144,2.448,2.808,3.889,6.769,4.752c9.072,1.656,18.146,4.825,17.569,17.354
	c-0.433,9.865-10.801,15.266-20.162,15.266c-6.12,0-12.601-3.096-17.354-9.217L421.121,36.071z"/>
</svg>
