<?xml version="1.0" encoding="utf-8"?>
<!-- Generator: Adobe Illustrator 19.1.0, SVG Export Plug-In . SVG Version: 6.00 Build 0)  -->
<svg version="1.1" id="Ebene_1" xmlns="http://www.w3.org/2000/svg" xmlns:xlink="http://www.w3.org/1999/xlink" x="0px" y="0px"
	 viewBox="0 0 15.2 28.8" style="enable-background:new 0 0 15.2 28.8;" xml:space="preserve">
<style type="text/css">
	.st0{fill:#260022;}
	.st1{fill:none;stroke:#000000;stroke-width:0.398;stroke-miterlimit:10;}
</style>
<g>
	<path class="st0" d="M15,5V0.4c-0.5,0-1.1-0.1-1.6-0.1c-0.3,0-0.6,0-0.9,0C11.3,0.1,10.2,0.2,9,0.4C7.7,0.7,6.6,1.5,5.8,2.6
		c-0.5,0.7-1,1.4-1,2.3c-0.1,1.7-0.1,3.3-0.2,5c0,0.2,0,0.4,0,0.6H0.2v5.1h4.3v1.3h0v11.7h5.2V16.9h0v-1.3h4.3
		c0.2-1.1,0.3-2.1,0.5-3.2c0.1-0.4,0.1-0.9,0.2-1.3c0.1-0.4,0-0.6-0.5-0.6c-1.3,0-2.6,0-3.8,0H9.8c0-1.1,0-2.1,0-3.1
		c0-0.5,0-1,0.2-1.4c0.3-0.7,1-1,1.7-1C12.8,4.9,13.9,5,15,5"/>
	<path class="st1" d="M15,5V0.4c-0.5,0-1.1-0.1-1.6-0.1c-0.3,0-0.6,0-0.9,0C11.3,0.1,10.2,0.2,9,0.4C7.7,0.7,6.6,1.5,5.8,2.6
		c-0.5,0.7-1,1.4-1,2.3c-0.1,1.7-0.1,3.3-0.2,5c0,0.2,0,0.4,0,0.6H0.2v5.1h4.3v1.3h0v11.7h5.2V16.9h0v-1.3h4.3
		c0.2-1.1,0.3-2.1,0.5-3.2c0.1-0.4,0.1-0.9,0.2-1.3c0.1-0.4,0-0.6-0.5-0.6c-1.3,0-2.6,0-3.8,0H9.8c0-1.1,0-2.1,0-3.1
		c0-0.5,0-1,0.2-1.4c0.3-0.7,1-1,1.7-1C12.8,4.9,13.9,5,15,5"/>
</g>
</svg>
