<?xml version="1.0" encoding="utf-8"?>
<!-- Generator: Adobe Illustrator 19.1.0, SVG Export Plug-In . SVG Version: 6.00 Build 0)  -->
<svg version="1.1" id="Ebene_1" xmlns="http://www.w3.org/2000/svg" xmlns:xlink="http://www.w3.org/1999/xlink" x="0px" y="0px"
	 viewBox="0 0 22.4 22.6" style="enable-background:new 0 0 22.4 22.6;" xml:space="preserve">
<style type="text/css">
	.st0{fill:#260022;}
	.st1{fill:none;}
</style>
<g>
	<path class="st0" d="M0,18.8V8.2c0,0,0.1,0,0.1,0c2.1,0,4.1,0,6.2,0h0.1c0,0-0.1,0.1-0.1,0.1c0,0-0.1,0.1-0.1,0.1
		C5.8,9,5.6,9.7,5.5,10.5c-0.1,0.6-0.1,1.2,0,1.8c0,0.3,0.1,0.6,0.1,0.9c0.2,0.6,0.5,1.2,0.8,1.7c1.1,1.6,2.7,2.3,4.6,2.4
		c0.4,0,0.9-0.1,1.3-0.2c1.5-0.4,2.8-1.2,3.6-2.5c0.6-0.9,0.9-1.9,0.9-2.9c0-1.2-0.3-2.3-1-3.3c0,0,0,0,0-0.1H16c2.1,0,4.2,0,6.3,0
		c0,0,0.1,0,0.1,0v10.4c0,0,0,0,0,0.1c-0.1,0.3-0.1,0.7-0.2,1c-0.4,1.5-1.4,2.5-2.9,2.9c-0.2,0-0.3,0.1-0.5,0.1H3.8c0,0,0,0-0.1,0
		c-0.2,0-0.4,0-0.7-0.1c-0.8-0.1-1.4-0.5-2-1c-0.6-0.6-0.9-1.3-1-2.1C0,19.2,0,19,0,18.8"/>
	<path class="st1" d="M0,18.8V8.2c0,0,0.1,0,0.1,0c2.1,0,4.1,0,6.2,0h0.1c0,0-0.1,0.1-0.1,0.1c0,0-0.1,0.1-0.1,0.1
		C5.8,9,5.6,9.7,5.5,10.5c-0.1,0.6-0.1,1.2,0,1.8c0,0.3,0.1,0.6,0.1,0.9c0.2,0.6,0.5,1.2,0.8,1.7c1.1,1.6,2.7,2.3,4.6,2.4
		c0.4,0,0.9-0.1,1.3-0.2c1.5-0.4,2.8-1.2,3.6-2.5c0.6-0.9,0.9-1.9,0.9-2.9c0-1.2-0.3-2.3-1-3.3c0,0,0,0,0-0.1H16c2.1,0,4.2,0,6.3,0
		c0,0,0.1,0,0.1,0v10.4c0,0,0,0,0,0.1c-0.1,0.3-0.1,0.7-0.2,1c-0.4,1.5-1.4,2.5-2.9,2.9c-0.2,0-0.3,0.1-0.5,0.1H3.8c0,0,0,0-0.1,0
		c-0.2,0-0.4,0-0.7-0.1c-0.8-0.1-1.4-0.5-2-1c-0.6-0.6-0.9-1.3-1-2.1C0,19.2,0,19,0,18.8z"/>
	<path class="st0" d="M16.4,3.8c0,0.3,0,0.6,0,1c0,0.6,0.4,1,1,1c0.7,0,1.3,0,2,0c0.6,0,1-0.4,1-1c0-0.7,0-1.3,0-2c0-0.6-0.4-1-1-1
		c-0.7,0-1.3,0-2,0c-0.5,0-1,0.4-1,1C16.4,3.2,16.4,3.5,16.4,3.8 M6.2,0h9.4c0,0,0.1,0,0.1,0c0.7,0,1.4,0,2.1,0c0.2,0,0.4,0,0.7,0
		c1,0.1,1.9,0.5,2.7,1.3c0.8,0.8,1.2,1.8,1.3,3c0,0.1,0,0.2,0,0.3v0.8c0,0,0,0,0,0.1c0,0.4,0,0.8,0,1.2c0,0.2,0,0.5,0,0.7h-0.1
		c-2.3,0-4.6,0-6.9,0c-0.1,0-0.1,0-0.2-0.1c-0.4-0.3-0.8-0.6-1.3-0.9c-1-0.6-2.2-0.8-3.3-0.7C9.2,6,8.1,6.5,7.2,7.3
		C7.1,7.4,7,7.4,6.9,7.4c-0.7,0-1.5,0-2.2-0.1c-0.9,0-1.9,0-2.8-0.1c-0.6,0-1.2,0-1.8,0V3.8c0,0,0-0.1,0-0.1c0-0.3,0.1-0.6,0.1-0.9
		c0.1-0.6,0.4-1.1,0.9-1.5c0.2-0.2,0.5-0.3,0.8-0.4v4.7h0.9c0,0,0-0.1,0-0.1c0-0.8,0-1.7,0-2.5c0-0.8,0-1.5,0-2.3c0-0.1,0-0.2,0-0.2
		c0,0,0-0.1,0-0.1C3,0.3,3.2,0.2,3.4,0.2c0,1.8,0,3.6,0.1,5.4h0.9c0-0.1,0-0.2,0-0.3c0-0.6,0-1.2,0-1.8c0-0.5,0-0.9,0-1.4
		c0-0.7,0-1.4,0-2h0.6c0,0,0,0,0,0.1c0,1,0,1.9,0,2.9c0,0.8,0,1.7,0,2.5c0,0,0,0.1,0,0.1c0.3,0,0.6,0,0.9,0V0C5.9,0,6.1,0,6.2,0"/>
	<path class="st1" d="M16.4,3.8c0,0.3,0,0.6,0,1c0,0.6,0.4,1,1,1c0.7,0,1.3,0,2,0c0.6,0,1-0.4,1-1c0-0.7,0-1.3,0-2c0-0.6-0.4-1-1-1
		c-0.7,0-1.3,0-2,0c-0.5,0-1,0.4-1,1C16.4,3.2,16.4,3.5,16.4,3.8z M6.2,0h9.4c0,0,0.1,0,0.1,0c0.7,0,1.4,0,2.1,0c0.2,0,0.4,0,0.7,0
		c1,0.1,1.9,0.5,2.7,1.3c0.8,0.8,1.2,1.8,1.3,3c0,0.1,0,0.2,0,0.3v0.8c0,0,0,0,0,0.1c0,0.4,0,0.8,0,1.2c0,0.2,0,0.5,0,0.7h-0.1
		c-2.3,0-4.6,0-6.9,0c-0.1,0-0.1,0-0.2-0.1c-0.4-0.3-0.8-0.6-1.3-0.9c-1-0.6-2.2-0.8-3.3-0.7C9.2,6,8.1,6.5,7.2,7.3
		C7.1,7.4,7,7.4,6.9,7.4c-0.7,0-1.5,0-2.2-0.1c-0.9,0-1.9,0-2.8-0.1c-0.6,0-1.2,0-1.8,0V3.8c0,0,0-0.1,0-0.1c0-0.3,0.1-0.6,0.1-0.9
		c0.1-0.6,0.4-1.1,0.9-1.5c0.2-0.2,0.5-0.3,0.8-0.4v4.7h0.9c0,0,0-0.1,0-0.1c0-0.8,0-1.7,0-2.5c0-0.8,0-1.5,0-2.3c0-0.1,0-0.2,0-0.2
		c0,0,0-0.1,0-0.1C3,0.3,3.2,0.2,3.4,0.2c0,1.8,0,3.6,0.1,5.4h0.9c0-0.1,0-0.2,0-0.3c0-0.6,0-1.2,0-1.8c0-0.5,0-0.9,0-1.4
		c0-0.7,0-1.4,0-2h0.6c0,0,0,0,0,0.1c0,1,0,1.9,0,2.9c0,0.8,0,1.7,0,2.5c0,0,0,0.1,0,0.1c0.3,0,0.6,0,0.9,0V0C5.9,0,6.1,0,6.2,0z"/>
	<path class="st0" d="M11.2,14.7c1.8,0,3.3-1.5,3.3-3.2c0-1.9-1.4-3.4-3.3-3.4c-1.8,0-3.4,1.5-3.4,3.3C7.8,13.3,9.3,14.7,11.2,14.7
		 M11.2,7c2.4,0,4.4,2,4.4,4.4c0,2.4-2,4.4-4.4,4.4c-2.4,0-4.4-2-4.4-4.4C6.8,9,8.8,7,11.2,7"/>
	<path class="st1" d="M11.2,14.7c1.8,0,3.3-1.5,3.3-3.2c0-1.9-1.4-3.4-3.3-3.4c-1.8,0-3.4,1.5-3.4,3.3C7.8,13.3,9.3,14.7,11.2,14.7z
		 M11.2,7c2.4,0,4.4,2,4.4,4.4c0,2.4-2,4.4-4.4,4.4c-2.4,0-4.4-2-4.4-4.4C6.8,9,8.8,7,11.2,7z"/>
</g>
</svg>
