<?xml version="1.0" encoding="utf-8"?>
<!-- Generator: Adobe Illustrator 19.1.0, SVG Export Plug-In . SVG Version: 6.00 Build 0)  -->
<svg version="1.1" id="Ebene_1" xmlns="http://www.w3.org/2000/svg" xmlns:xlink="http://www.w3.org/1999/xlink" x="0px" y="0px"
	 viewBox="0 0 35.1 15.2" style="enable-background:new 0 0 35.1 15.2;" xml:space="preserve">
<style type="text/css">
	.st0{fill:#260022;}
</style>
<g>
	<path class="st0" d="M35.1,11.4c-0.2,0.5-0.3,1.1-0.5,1.5c-0.7,1.4-1.9,2.1-3.5,2.2c-0.2,0-0.4,0-0.6,0c-3.8,0-7.6,0-11.4,0
		c-0.6,0-0.7-0.1-0.7-0.8c0-4.4,0-8.8,0-13.2c0-0.5,0.1-0.6,0.6-0.8c1.8-0.6,3.6-0.6,5.3,0.1c1.3,0.5,2.3,1.3,3.2,2.3
		c0.9,1.1,1.4,2.4,1.6,3.8c0,0.1,0,0.2,0.1,0.3c0.4-0.1,0.8-0.2,1.1-0.2c2.3-0.3,4.3,1.2,4.8,3.5c0,0.1,0,0.2,0.1,0.3V11.4z"/>
	<path class="st0" d="M0,10.9c0.1-0.5,0.1-1,0.2-1.4c0-0.1,0.1-0.2,0.1-0.4c0.1,0.1,0.2,0.2,0.2,0.4c0.1,0.5,0.2,1.1,0.3,1.6
		c0,0.1,0,0.2,0,0.4c-0.1,0.5-0.1,1-0.2,1.5c0,0.1-0.1,0.2-0.2,0.2c-0.1-0.1-0.1-0.2-0.1-0.2c-0.1-0.4-0.1-0.9-0.2-1.3
		c0-0.1,0-0.1-0.1-0.2V10.9z"/>
	<path class="st0" d="M18.1,8.9c0.2,1.7,0,3.8-0.2,5.8c0,0.3-0.2,0.5-0.5,0.5c-0.3,0-0.5-0.2-0.5-0.5c-0.1-2.1-0.2-4.2-0.1-6.3
		c0.1-2.2,0.1-4.4,0.1-6.6c0,0,0-0.1,0-0.1C17,1.2,17.2,1,17.4,1c0.3,0,0.5,0.2,0.5,0.5c0,0.4,0,0.7,0,1.1C18,4.6,18,6.6,18.1,8.9"
		/>
	<path class="st0" d="M15.4,8.4c0-2.3,0.1-4.1,0.1-6c0,0,0-0.1,0-0.1c0-0.3,0.2-0.5,0.5-0.5c0.2,0,0.4,0.2,0.4,0.5
		c0,1.1,0,2.2,0.1,3.4c0,1.7,0.1,3.4,0.1,5.1c0,1.3-0.1,2.6-0.2,3.9c0,0.3-0.2,0.4-0.4,0.4c-0.2,0-0.4-0.2-0.4-0.5
		c0-0.8-0.1-1.6-0.1-2.3C15.4,10.9,15.4,9.4,15.4,8.4"/>
	<path class="st0" d="M15.1,9.8c0.1,1.4-0.1,3.1-0.2,4.9c0,0.4-0.2,0.5-0.5,0.4c-0.2-0.1-0.3-0.2-0.3-0.4c-0.1-1.4-0.2-2.8-0.2-4.2
		c0-2.1,0.1-4.3,0.2-6.4c0-0.1,0-0.2,0-0.4c0-0.2,0.1-0.4,0.4-0.4c0.2,0,0.4,0.2,0.4,0.4c0,0.3,0,0.5,0,0.8C15,6.1,15,7.8,15.1,9.8"
		/>
	<path class="st0" d="M13.6,9.1c0.1,1.4,0,3.4-0.2,5.4c0,0.1,0,0.2,0,0.4c0,0.2-0.2,0.3-0.4,0.3c-0.2,0-0.3-0.1-0.4-0.3
		c0-0.1,0-0.1,0-0.2c-0.1-1.4-0.2-2.8-0.2-4.2c0-2.3,0.1-4.6,0.2-6.9C12.6,3.2,12.8,3,13,3c0.2,0,0.4,0.2,0.4,0.6
		C13.5,5.2,13.5,6.8,13.6,9.1"/>
	<path class="st0" d="M11.1,9c0.1-2.1,0.1-3.8,0.2-5.5c0-0.1,0-0.3,0-0.4c0.1-0.1,0.2-0.3,0.3-0.3c0.2,0,0.3,0.1,0.3,0.3
		c0,0.1,0,0.1,0,0.2c0.1,2.5,0.2,4.9,0.2,7.4c0,1.3-0.1,2.7-0.2,4c0,0.2-0.1,0.4-0.4,0.4c-0.3,0-0.3-0.2-0.3-0.4
		C11.1,12.7,10.9,10.7,11.1,9"/>
	<path class="st0" d="M9.6,11c0.1-2.9,0.2-5.1,0.2-7.4c0-0.1,0-0.2,0-0.2c0.1-0.1,0.2-0.3,0.3-0.3c0.1,0,0.2,0.1,0.3,0.2
		c0,0.1,0,0.2,0,0.3c0.1,2.5,0.2,4.9,0.2,7.4c0,0.8-0.1,1.5-0.2,2.3c0,0.5-0.1,0.9-0.1,1.4c0,0.2-0.1,0.4-0.3,0.4
		c-0.3,0-0.3-0.2-0.3-0.4C9.7,13.3,9.6,11.8,9.6,11"/>
	<path class="st0" d="M9.2,9.8c0.2,1.6-0.1,3.3-0.2,5.1c0,0.2-0.1,0.3-0.3,0.3c-0.2,0-0.3-0.2-0.3-0.4c-0.1-1-0.2-1.9-0.2-2.9
		c0-1.5,0-3,0.1-4.4c0-1.1,0.1-2.1,0.1-3.2c0-0.1,0-0.2,0-0.3C8.5,4,8.6,3.8,8.7,3.8c0.1,0,0.2,0.1,0.3,0.2c0,0,0,0.1,0,0.2
		C9,6.1,9.1,7.9,9.2,9.8"/>
	<path class="st0" d="M7.7,9c0,0.5,0.1,1.1,0.1,1.6c0,1-0.1,2-0.2,3c0,0.4-0.1,0.8-0.1,1.1c0,0.2-0.1,0.4-0.3,0.4
		C7,15.2,7,15,7,14.8c-0.1-1.2-0.2-2.4-0.3-3.5c0-0.8,0.1-1.7,0.1-2.5C6.9,7.7,6.9,6.7,7,5.6c0-0.1,0-0.2,0-0.2
		c0.1-0.1,0.1-0.2,0.2-0.2c0.1,0,0.2,0.1,0.2,0.2c0,0.1,0,0.1,0,0.2C7.6,6.7,7.7,7.9,7.7,9C7.7,9,7.7,9,7.7,9"/>
	<path class="st0" d="M6.4,11.2c-0.1,0.8-0.2,1.7-0.2,2.6c0,0.3-0.1,0.7-0.1,1c0,0.2,0,0.3-0.2,0.3c-0.2,0-0.2-0.2-0.2-0.3
		c-0.1-1-0.2-2.1-0.2-3.1c0-0.9,0.1-1.8,0.1-2.6c0-0.5,0.1-0.9,0.1-1.4c0-0.1,0.2-0.2,0.2-0.3C6,7.5,6.1,7.6,6.1,7.7
		C6.2,8.8,6.3,10,6.4,11.2"/>
	<path class="st0" d="M3.9,11.2C4,9.9,4.1,8.7,4.3,7.4c0-0.1,0.1-0.2,0.2-0.3c0.1,0.1,0.2,0.2,0.2,0.3C4.8,8.7,4.9,9.9,5,11.1
		c0,0.8-0.1,1.6-0.2,2.4c0,0.4-0.1,0.9-0.1,1.3c0,0.1-0.1,0.2-0.2,0.2c-0.1-0.1-0.2-0.1-0.2-0.2C4.1,13.6,4,12.4,3.9,11.2"/>
	<path class="st0" d="M2.6,11.2C2.7,10,2.8,8.7,2.9,7.5c0-0.1,0.1-0.2,0.2-0.2c0.1,0.1,0.2,0.2,0.2,0.2c0.1,1.2,0.3,2.4,0.4,3.6
		c0,0.7-0.1,1.5-0.2,2.2c0,0.4-0.1,0.8-0.1,1.2c0,0.1-0.1,0.4-0.2,0.4c-0.2,0-0.2-0.2-0.2-0.4c-0.1-0.9-0.2-1.8-0.2-2.8
		C2.6,11.6,2.6,11.4,2.6,11.2"/>
	<path class="st0" d="M1.2,11.2c0.1-1,0.2-2,0.3-3c0-0.1,0.1-0.2,0.2-0.2C1.7,8,1.8,8.1,1.8,8.1C2,9.1,2.1,10,2.2,11
		c0,0.5-0.1,1-0.1,1.5c-0.1,0.6-0.1,1.1-0.2,1.7c0,0.1-0.1,0.1-0.2,0.2c-0.1-0.1-0.1-0.1-0.1-0.2C1.4,13.2,1.3,12.2,1.2,11.2"/>
</g>
</svg>
