<?xml version="1.0" encoding="utf-8"?>
<!-- Generator: Adobe Illustrator 19.1.0, SVG Export Plug-In . SVG Version: 6.00 Build 0)  -->
<svg version="1.1" id="Ebene_1" xmlns="http://www.w3.org/2000/svg" xmlns:xlink="http://www.w3.org/1999/xlink" x="0px" y="0px"
	 viewBox="0 0 23.6 23.6" style="enable-background:new 0 0 23.6 23.6;" xml:space="preserve">
<style type="text/css">
	.st0{fill:#260022;}
</style>
<g>
	<path class="st0" d="M10.1,14.2c-1,0-1.9,0.1-2.8,0.2c-0.6,0.1-1.2,0.2-1.7,0.3c-0.4,0.1-0.7,0.5-0.6,0.9c0.1,0.4,0.4,0.7,0.8,0.6
		c0.2,0,0.3-0.1,0.5-0.1c0.8-0.2,1.7-0.3,2.6-0.4c0.7-0.1,1.4-0.1,2.1,0c0.7,0,1.4,0.1,2.1,0.3c1.1,0.3,2.1,0.7,3.1,1.3
		c0.1,0,0.1,0.1,0.2,0.1c0.2,0.1,0.3,0.1,0.5,0c0.4-0.1,0.6-0.5,0.5-0.9c-0.1-0.2-0.2-0.3-0.3-0.4c-0.1,0-0.1-0.1-0.2-0.1
		c-1.5-0.9-3.2-1.4-5-1.6C11.2,14.2,10.6,14.2,10.1,14.2 M9.8,10.3c-0.4,0-0.8,0-1.3,0.1c-0.5,0-0.9,0.1-1.4,0.2
		c-0.7,0.1-1.3,0.3-2,0.4C5,11,4.9,11,4.8,11.1c-0.4,0.3-0.5,0.8-0.3,1.2c0.2,0.3,0.6,0.6,1.1,0.4c0.1,0,0.2-0.1,0.3-0.1
		c1.1-0.3,2.3-0.4,3.4-0.5c0.8,0,1.7,0,2.5,0.1c0.7,0.1,1.5,0.2,2.2,0.4c1.1,0.3,2.2,0.7,3.2,1.4c0,0,0.1,0.1,0.1,0.1
		c0.2,0.1,0.4,0.1,0.6,0.1c0.5-0.1,0.8-0.6,0.7-1.1c-0.1-0.3-0.2-0.5-0.4-0.6c0,0-0.1-0.1-0.1-0.1c-0.6-0.4-1.3-0.7-2-1
		c-1.4-0.6-2.9-0.9-4.4-1.1C11.2,10.3,10.5,10.3,9.8,10.3 M10.1,6.2c-0.4,0-0.9,0-1.3,0c-0.7,0-1.4,0.1-2,0.2C5.9,6.6,5.2,6.8,4.5,7
		C4,7.1,3.7,7.4,3.7,7.9c-0.1,0.4,0.1,1,0.7,1.2c0.2,0.1,0.5,0.1,0.7,0c0.6-0.2,1.2-0.3,1.8-0.4C7.6,8.6,8.3,8.5,9,8.5
		c0.8,0,1.6,0,2.5,0c0.7,0,1.4,0.1,2,0.2c0.9,0.1,1.7,0.3,2.6,0.6c0.9,0.3,1.8,0.6,2.7,1.1c0,0,0.1,0.1,0.1,0.1
		c0.2,0.1,0.4,0.1,0.6,0.1c0.7-0.1,1.2-0.9,0.9-1.5c-0.1-0.2-0.3-0.4-0.5-0.6C18.9,8,18,7.6,17,7.3c-1.6-0.5-3.2-0.8-4.9-0.9
		C11.4,6.3,10.7,6.2,10.1,6.2 M11.8,23.6C5.3,23.6,0,18.4,0,11.8C0,5.3,5.2,0,11.8,0c6.6,0,11.8,5.3,11.8,11.8
		C23.6,18.4,18.3,23.6,11.8,23.6"/>
</g>
</svg>
