<?xml version="1.0" encoding="utf-8"?>
<!-- Generator: Adobe Illustrator 21.0.2, SVG Export Plug-In . SVG Version: 6.00 Build 0)  -->
<svg version="1.1" id="Ebene_1" xmlns="http://www.w3.org/2000/svg" xmlns:xlink="http://www.w3.org/1999/xlink" x="0px" y="0px"
	 viewBox="0 0 224 224" style="enable-background:new 0 0 224 224;" xml:space="preserve">
<style type="text/css">
	.st0{fill:#FFFFFF;}
</style>
<g>
	<path class="st0" d="M0,224C0,136.7,0,87.4,0,0c88.9,0,135,0,224,0c0,87.3,0,136.7,0,224C135.1,224,89,224,0,224z M114.5,109.2
		c0-1.2,0-2.2,0-3.2c0.2-8.3-0.1-16.7,0.6-25c1.2-14.3,11.1-25,25-28.3c8.6-2,17.2-1.2,25.9-0.7c2,0.1,3.9,0.4,6,0.6
		c0,4.3,0,8.4,0,12.5c0,4.1,0,8.3,0,12.8c-6.2,0-12-0.2-17.9,0c-6.2,0.2-10,3.3-10.4,9.3c-0.5,7.2-0.1,14.4-0.1,22.1
		c9.2,0,18.3,0,27.6,0c-1.2,9.1-2.3,17.7-3.4,26.4c-0.2,1.6-1.2,1.5-2.3,1.5c-6.4,0-12.8,0-19.2,0c-0.9,0-1.7,0.1-2.6,0.1
		c0,27.7,0,55.1,0,82.5c49.3-13.2,91.1-66,78.7-129C210.3,30.1,151.1-10.7,88.5,3.2C25.1,17.2-12.4,79.5,4.6,142.3
		c15.6,57.7,70.2,84.6,109.7,81.8c0-28.9,0-57.7,0-87c-8,0-15.9,0-23.7,0c0-9.5,0-18.6,0-27.9C98.6,109.2,106.4,109.2,114.5,109.2z"
		/>
	<path d="M114.5,109.2c-8,0-15.9,0-23.9,0c0,9.3,0,18.5,0,27.9c7.8,0,15.7,0,23.7,0c0,29.2,0,58.1,0,87
		C74.8,226.9,20.2,200,4.6,142.3C-12.4,79.5,25.1,17.2,88.5,3.2c62.6-13.9,121.8,26.9,133.8,87.7c12.4,63-29.4,115.8-78.7,129
		c0-27.4,0-54.8,0-82.5c0.9-0.1,1.7-0.1,2.6-0.1c6.4,0,12.8,0,19.2,0c1.1,0,2.1,0.1,2.3-1.5c1.1-8.7,2.2-17.3,3.4-26.4
		c-9.3,0-18.4,0-27.6,0c0-7.6-0.4-14.9,0.1-22.1c0.4-6,4.2-9.1,10.4-9.3c5.8-0.2,11.6,0,17.9,0c0-4.5,0-8.6,0-12.8
		c0-4.1,0-8.1,0-12.5c-2.1-0.2-4.1-0.5-6-0.6c-8.6-0.5-17.3-1.3-25.9,0.7c-14,3.2-23.8,14-25,28.3c-0.7,8.3-0.4,16.6-0.6,25
		C114.5,107,114.5,108,114.5,109.2z"/>
</g>
</svg>
