<?xml version="1.0" encoding="utf-8"?>
<!-- Generator: Adobe Illustrator 15.1.0, SVG Export Plug-In . SVG Version: 6.00 Build 0)  -->
<!DOCTYPE svg PUBLIC "-//W3C//DTD SVG 1.1//EN" "http://www.w3.org/Graphics/SVG/1.1/DTD/svg11.dtd">
<svg version="1.1" id="Ebene_1" xmlns="http://www.w3.org/2000/svg" xmlns:xlink="http://www.w3.org/1999/xlink" x="0px" y="0px"
	 width="1190.549px" height="366.94px" viewBox="0 223.206 1190.549 366.94" enable-background="new 0 223.206 1190.549 366.94"
	 xml:space="preserve">
<polygon fill="#EFC64F" points="88.425,522.676 71.066,541.255 71.066,586.375 20.28,586.375 20.28,357.688 71.066,357.688 
	71.066,490.499 122.177,428.668 180.823,428.668 123.435,491.434 182.401,586.375 125.944,586.375 "/>
<path fill="#EFC64F" d="M287.422,526.121v-12.626l-27.118,4.414c-18.584,3.51-27.117,10.109-27.117,21.771
	c0,11.044,8.823,18.322,22.092,18.322C274.504,558.001,287.422,545.053,287.422,526.121 M182.107,543.475
	c0-14.813,5.349-26.472,16.072-34.068c10.403-7.246,25.539-12.305,49.501-15.426l38.16-5.379v-5.378
	c0-17.968-7.534-25.861-23.315-25.861c-15.456,0-24.313,8.212-25.219,23.351h-50.173c2.546-35.008,30.917-55.813,75.684-55.813
	c50.785,0,73.52,19.872,73.52,65.281v52.331c0,18.648,1.549,34.074,4.414,43.866h-49.21c-1.578-7.57-2.19-16.105-2.542-24.926
	c-7.856,17.678-28.053,28.693-52.658,28.693C203.847,590.143,182.107,571.527,182.107,543.475"/>
<path fill="#EFC64F" d="M361.266,428.668h48.597v30.27c11.046-23.022,28.372-34.358,52.334-34.358
	c34.038,0,51.397,21.77,51.397,64.022v97.775h-50.463v-90.819c0-21.771-7.538-32.206-23.64-32.206
	c-17.682,0-27.438,13.56-27.438,37.874v85.151h-50.787V428.668L361.266,428.668z"/>
<path fill="#EFC64F" d="M636.293,526.121v-12.626l-27.113,4.414c-18.618,3.51-27.152,10.109-27.152,21.771
	c0,11.044,8.856,18.322,22.092,18.322C623.348,558.001,636.293,545.053,636.293,526.121 M530.953,543.475
	c0-14.813,5.378-26.472,16.103-34.068c10.37-7.246,25.506-12.305,49.498-15.426l38.132-5.379v-5.378
	c0-17.968-7.538-25.861-23.316-25.861c-15.458,0-24.284,8.212-25.216,23.351H536.01c2.514-35.008,30.884-55.813,75.682-55.813
	c50.792,0,73.495,19.872,73.495,65.281v52.331c0,18.648,1.542,34.074,4.408,43.866h-49.176c-1.614-7.57-2.223-16.105-2.542-24.926
	c-7.891,17.678-28.082,28.693-52.688,28.693C552.722,590.143,530.953,571.527,530.953,543.475"/>
<polygon fill="#EFC64F" points="759.703,586.375 708.916,586.375 708.916,367.931 759.703,358.622 "/>
<polygon fill="#EFC64F" points="930.034,442.676 929.358,441.614 929.166,441.292 929.423,441.002 930.293,440.102 970.227,398.232 
	970.933,324.387 858.409,448.282 855.58,451.436 854.741,452.338 854.741,451.082 854.741,446.83 854.707,340.328 804.663,349.442 
	804.859,586.825 854.707,586.825 854.707,520.258 854.707,519.581 854.707,519.388 854.838,519.262 855.256,518.808 
	891.136,481.258 892.612,479.712 893.064,479.229 893.388,479.777 894.514,481.678 956.639,586.825 1017.664,586.825 "/>
<polyline fill="#EFC64F" points="1179.398,429.408 1179.398,409.246 979.019,431.984 979.019,452.144 "/>
<polygon fill="#EFC64F" points="1121.332,539.646 1007.137,513.915 1007.137,493.817 1121.332,519.483 "/>
<polygon fill="#EFC64F" points="1050.449,480.355 1163.522,491.531 1163.522,471.372 1050.449,460.195 "/>
<polygon fill="#EFC64F" points="1094.863,354.66 1031.613,377.524 1031.613,397.622 1094.863,374.788 "/>
<path fill="#EFC64F" d="M589.218,262.193h-10.632v10.634h10.632V262.193z M589.218,237.385h-10.632v10.633h10.632V237.385z
	 M554.659,248.903c0,4.43,0,10.632-3.542,14.178c-1.771,1.771-5.315,3.544-7.975,3.544s-6.202-0.886-7.977-3.544
	c-3.541-3.544-3.541-9.748-3.541-14.178c0-4.43,0-10.632,3.541-14.176c2.658-2.66,5.315-3.544,7.977-3.544s6.204,0.886,7.975,3.544
	C554.659,238.27,554.659,244.474,554.659,248.903 M563.524,248.903c0-7.975-0.886-14.176-6.204-19.492
	c-3.544-3.544-8.858-5.315-14.176-5.315c-5.315,0-10.632,1.773-14.176,5.315c-5.315,5.316-6.204,11.521-6.204,19.492
	c0,7.974,0.887,14.178,6.204,19.494c3.544,3.544,8.859,5.315,14.176,5.315c5.315,0,10.632-1.773,14.176-5.315
	C562.638,263.081,563.524,256.877,563.524,248.903 M509.476,224.094h-8.861v48.733h8.861V224.094z M477.575,248.903
	c0,4.43,0,10.632-3.544,14.178c-1.771,1.771-4.43,2.658-7.088,2.658h-9.748v-33.67h9.748c2.66,0,5.315,0.886,7.088,2.66
	C477.575,238.27,477.575,244.474,477.575,248.903 M486.437,248.903c0-7.086-0.887-14.176-5.316-19.492
	c-3.542-3.544-7.974-5.315-13.292-5.315h-18.604v48.733h18.604c5.316,0,10.633-1.774,13.292-5.316
	C485.55,262.193,486.437,255.105,486.437,248.903 M421.757,255.991H407.58l7.089-20.378L421.757,255.991z M436.819,272.827
	l-16.834-48.733h-9.748l-16.833,48.733h8.859l3.544-9.748h19.494l3.544,9.748H436.819z M376.568,239.157
	c0,4.43-2.657,7.088-7.972,7.088h-11.521v-14.176h11.521C373.909,232.067,376.568,235.613,376.568,239.157 M385.429,272.827
	l-8.861-20.38c5.317-1.771,8.861-7.086,8.861-13.29c0-7.974-5.315-15.063-16.833-15.063h-20.38v48.733h8.858v-18.608h10.633
	l7.977,18.608H385.429z M336.696,272.827v-7.977H313.66v-40.757h-8.861v48.733L336.696,272.827L336.696,272.827z M279.104,255.991
	h-14.176l7.088-20.378L279.104,255.991z M294.166,272.827l-16.834-48.733h-9.748l-16.836,48.733h8.859l3.544-9.748h19.493
	l3.544,9.748H294.166z M247.206,224.094h-8.862l-11.518,37.213l-11.521-37.213h-9.746l15.947,48.733h9.746L247.206,224.094z
	 M194.042,224.094h-8.859v48.733h8.859V224.094z M173.664,232.067v-7.974h-38.101v7.974h15.063v40.76h8.858v-40.76H173.664z
	 M129.362,258.649c0-7.975-6.201-13.29-13.29-14.176c-3.544,0-7.088-0.889-10.632-0.889c-2.657-0.884-5.315-1.77-5.315-5.315
	c0-1.772,0.886-2.658,1.771-4.431c1.771-1.771,5.315-2.657,7.977-2.657c2.657,0,6.202,0.886,7.088,2.657
	c0.884,0.887,1.771,2.66,1.771,4.431h8.86c0-4.431-1.771-7.975-5.318-10.632c-1.77-2.66-7.086-4.431-12.4-4.431
	c-5.316,0-11.521,1.771-14.179,5.316c-2.657,2.658-4.431,6.202-4.431,9.746c0,7.974,5.316,12.405,12.404,13.289
	c3.542,0.887,7.088,0.887,10.632,0.887c2.658,0.886,6.202,1.771,6.202,6.204c0,2.657-0.889,3.544-1.772,4.43
	c-1.771,1.771-5.314,2.658-8.858,2.658c-2.66,0-6.204-0.887-7.978-2.658c-1.771-1.772-2.657-3.544-2.657-6.202h-8.861
	c0,4.43,1.773,8.86,5.315,11.518c4.431,3.544,9.748,5.316,15.063,5.316c6.204,0,11.518-1.774,15.062-5.316
	C127.591,266.625,129.362,263.081,129.362,258.649z M80.629,272.827v-7.977H54.936v-13.289h23.036v-7.975H54.936v-11.518h25.693
	v-7.974H46.073v48.731h34.557V272.827z M33.67,232.067v-7.974H0v48.733H8.86V253.33h22.152v-7.972H8.86v-13.292L33.67,232.067
	L33.67,232.067z"/>
</svg>
