<?xml version="1.0" encoding="utf-8"?>
<!-- Generator: Adobe Illustrator 15.1.0, SVG Export Plug-In . SVG Version: 6.00 Build 0)  -->
<!DOCTYPE svg PUBLIC "-//W3C//DTD SVG 1.1//EN" "http://www.w3.org/Graphics/SVG/1.1/DTD/svg11.dtd">
<svg version="1.1" id="Ebene_1" xmlns="http://www.w3.org/2000/svg" xmlns:xlink="http://www.w3.org/1999/xlink" x="0px" y="0px"
	 width="2834.65px" height="347.558px" viewBox="0 247.167 2834.65 347.558" enable-background="new 0 247.167 2834.65 347.558"
	 xml:space="preserve">
<g>
	<path fill="#E7343C" d="M2341.857,409.025c4.334,0,7.947,3.612,7.947,7.947c0,4.336-3.613,7.948-7.947,7.948
		c-4.336,0-7.948-3.612-7.948-7.948C2333.909,412.637,2337.521,409.025,2341.857,409.025"/>
	<path fill="#E7343C" d="M2180.001,474.055c2.892,0,5.06,2.168,5.06,5.06c0,2.891-2.168,5.059-5.06,5.059s-5.058-2.168-5.058-5.059
		C2174.943,476.947,2177.11,474.055,2180.001,474.055"/>
	<path fill="#EB584E" d="M2180.001,448.044c2.892,0,5.06,2.167,5.06,5.059c0,2.891-2.168,5.058-5.06,5.058s-5.058-2.167-5.058-5.058
		C2174.943,450.211,2177.11,448.044,2180.001,448.044"/>
	<path fill="#E7343C" d="M2180.001,417.696c2.892,0,5.06,2.168,5.06,5.06c0,2.891-2.168,5.059-5.06,5.059s-5.058-2.168-5.058-5.059
		C2174.943,419.864,2177.11,417.696,2180.001,417.696"/>
</g>
<path fill="#E7343C" d="M2574.525,396.74l-23.846-24.566h-18.063l23.846,24.566H2574.525z M2505.158,396.74l-23.846-24.566h-18.063
	l23.846,24.566H2505.158z M2452.41,448.765h47.689l-10.84-26.012h-40.463l-119.227,91.768l106.221-117.779l0,0l-15.896-16.619
	L2311.51,513.798l17.342,21.677L2452.41,448.765z M2834.65,447.322h-99.715L2567.3,247.168v125.005h-0.724l23.845,24.566v-80.206
	l136.567,153.909h52.024l-94.657,83.817l-101.16-132.229h-42.632l-10.116,26.014h41.188l106.218,144.514L2834.65,447.322z"/>
<path fill="#EB584E" d="M2470.477,396.74h-18.064l-23.845-24.566h18.063L2470.477,396.74z M2539.841,396.74h-18.063l-23.845-24.566
	h18.063L2539.841,396.74z"/>
<polygon fill="#EB584E" points="2246.479,594.725 2320.18,541.978 2304.283,523.192 "/>
<polygon fill="#EB584E" points="2528.28,479.115 2537.675,479.115 2515.273,536.92 2492.152,479.115 2501.546,479.115 
	2515.273,512.353 "/>
<polygon fill="#E7343C" points="2520.333,453.102 2532.616,453.102 2515.273,497.178 2497.21,453.102 2509.494,453.102 
	2515.273,466.108 "/>
<polygon fill="#EB584E" points="2515.273,454.547 2496.487,407.578 2533.339,407.578 "/>
<polygon fill="#EB584E" points="2676.408,473.334 2706.755,473.334 2611.376,362.781 2611.376,399.631 "/>
<polygon fill="#EB584E" points="2659.789,484.895 2721.931,484.895 2687.97,521.024 "/>
<g>
	<path fill="#E7343C" d="M2238.529,396.74h40.464c-2.892,25.29-18.787,46.968-41.187,57.807L2238.529,396.74z"/>
	<path fill="#EB584E" d="M2382.321,389.515h-61.419c-0.723,66.478-54.192,119.946-120.669,119.946l-532.536,0.723v-20.23h532.536
		c55.638,0,101.159-45.521,101.159-101.883v-18.063h96.824L2382.321,389.515z"/>
</g>
<polygon fill="#E7343C" points="2241.421,554.261 2241.421,521.745 2299.227,484.895 "/>
<rect x="2199.511" y="469.72" fill="#E7343C" width="25.289" height="11.563"/>
<rect x="2199.511" y="448.042" fill="#EB584E" width="25.289" height="11.563"/>
<rect x="2199.511" y="426.365" fill="#E7343C" width="25.289" height="11.563"/>
<rect x="2199.511" y="404.69" fill="#EB584E" width="25.289" height="11.562"/>
<rect x="2199.511" y="383.011" fill="#E7343C" width="25.289" height="11.563"/>
<rect x="2199.511" y="361.334" fill="#EB584E" width="25.289" height="11.562"/>
<g>
	<path fill="#EB584E" d="M2182.169,380.121c0-3.612-2.892-5.78-5.78-5.78c-3.611,0-5.779,2.892-5.779,5.78
		c0,3.612,2.891,5.78,5.779,5.78C2179.278,386.624,2182.169,383.735,2182.169,380.121 M2188.673,363.503v36.852l-44.077-19.51
		v-17.342H2188.673L2188.673,363.503z"/>
</g>
<polygon fill="#E7343C" points="1784.031,440.818 1535.466,440.818 1535.466,403.243 1662.641,403.243 1682.871,430.701 
	1703.104,403.243 1908.313,403.243 1928.546,430.701 1948.777,403.243 2116.415,403.243 2153.266,440.818 1812.936,440.818 
	1798.482,421.308 "/>
<polygon fill="#E7343C" points="1682.871,414.083 1706.716,382.288 1659.025,382.288 "/>
<polygon fill="#E7343C" points="1927.823,414.083 1951.669,382.288 1903.979,382.288 "/>
<polygon fill="#E7343C" points="1566.537,574.493 1599.775,529.695 1533.298,529.695 "/>
<polygon fill="#E7343C" points="1630.848,574.493 1664.085,529.695 1597.607,529.695 "/>
<polygon fill="#E7343C" points="1966.12,574.493 1999.357,529.695 1932.882,529.695 "/>
<polygon fill="#E7343C" points="2029.706,574.493 2062.944,529.695 1996.468,529.695 "/>
<polygon fill="#E7343C" points="1798.482,574.493 1831.723,529.695 1765.245,529.695 "/>
<polygon fill="#E7343C" points="1798.482,433.591 1822.328,466.108 1775.359,466.108 "/>
<g>
	<path fill="#EB584E" d="M2068.003,480.559c-3.612,5.78-5.78,13.007-5.78,20.954c0,6.503,1.444,11.563,3.612,16.619h-529.646
		v-37.573H2068.003L2068.003,480.559z"/>
	<path fill="#E7343C" d="M492.796,409.025c-4.336,0-7.948,3.612-7.948,7.947c0,4.336,3.612,7.948,7.948,7.948
		s7.947-3.612,7.947-7.948C500.743,412.637,497.13,409.025,492.796,409.025"/>
	<path fill="#E7343C" d="M654.651,474.055c-2.892,0-5.06,2.168-5.06,5.06c0,2.891,2.168,5.059,5.06,5.059
		c2.891,0,5.059-2.168,5.059-5.059C659.71,476.947,657.542,474.055,654.651,474.055"/>
	<path fill="#EB584E" d="M654.651,448.044c-2.892,0-5.06,2.167-5.06,5.059c0,2.891,2.168,5.058,5.06,5.058
		c2.891,0,5.059-2.167,5.059-5.058C659.71,450.211,657.542,448.044,654.651,448.044"/>
	<path fill="#E7343C" d="M654.651,417.696c-2.892,0-5.06,2.168-5.06,5.06c0,2.891,2.168,5.059,5.06,5.059
		c2.891,0,5.059-2.168,5.059-5.059C659.71,419.864,657.542,417.696,654.651,417.696"/>
</g>
<path fill="#E7343C" d="M347.558,396.74l23.846-24.566H353.34l-23.846,24.566H347.558z M278.191,396.74l23.845-24.566h-18.063
	l-23.845,24.566H278.191z M523.145,513.798L414.757,380.121l-15.896,16.619l0,0L505.08,514.52l-119.947-92.489h-40.464
	l-10.116,26.014h47.689l122.838,87.431L523.145,513.798z M263.739,448.765h41.188l-10.839-26.012h-42.632l-101.16,132.229
	L55.64,471.164h52.024l136.565-154.631v80.206l23.846-24.566h-0.723V247.167L99.715,448.043H0l156.799,144.515L263.739,448.765z"/>
<path fill="#EB584E" d="M364.177,396.74h18.063l23.846-24.566h-18.063L364.177,396.74z M294.811,396.74h18.063l23.847-24.566
	h-18.063L294.811,396.74z"/>
<polygon fill="#EB584E" points="588.175,594.725 530.369,523.192 514.472,541.978 "/>
<polygon fill="#EB584E" points="306.372,479.115 296.978,479.115 319.378,536.92 342.501,479.115 333.106,479.115 319.378,512.353 
	"/>
<polygon fill="#E7343C" points="314.319,453.102 302.036,453.102 319.378,497.178 337.442,453.102 325.158,453.102 319.378,466.108 
	"/>
<polygon fill="#EB584E" points="319.378,454.547 338.165,407.578 300.591,407.578 "/>
<polygon fill="#EB584E" points="158.244,473.334 127.896,473.334 223.275,362.781 223.275,399.631 "/>
<polygon fill="#EB584E" points="174.863,484.895 112.722,484.895 146.683,521.024 "/>
<g>
	<path fill="#E7343C" d="M596.123,396.74h-40.464c2.89,25.29,18.787,46.968,41.188,57.807L596.123,396.74z"/>
	<path fill="#EB584E" d="M452.331,389.515h61.418c0.723,66.478,54.193,119.946,120.67,119.946l532.536,0.723v-20.23H634.419
		c-55.638,0-101.16-45.521-101.16-101.883v-18.063h-97.547L452.331,389.515z"/>
</g>
<polygon fill="#E7343C" points="593.232,554.261 593.232,521.745 535.427,484.895 "/>
<rect x="609.13" y="469.72" fill="#E7343C" width="25.289" height="11.563"/>
<rect x="609.13" y="448.042" fill="#EB584E" width="25.289" height="11.563"/>
<rect x="609.13" y="426.365" fill="#E7343C" width="25.289" height="11.563"/>
<rect x="609.13" y="404.69" fill="#EB584E" width="25.289" height="11.562"/>
<rect x="609.13" y="383.011" fill="#E7343C" width="25.289" height="11.563"/>
<rect x="609.13" y="361.334" fill="#EB584E" width="25.289" height="11.562"/>
<g>
	<path fill="#EB584E" d="M652.482,380.121c0-3.612,2.892-5.78,5.78-5.78c3.612,0,5.78,2.892,5.78,5.78c0,3.612-2.891,5.78-5.78,5.78
		C655.374,386.624,652.482,383.735,652.482,380.121 M645.98,363.503v36.852l44.076-19.51v-17.342H645.98L645.98,363.503z"/>
</g>
<polygon fill="#E7343C" points="1050.621,440.818 1299.186,440.818 1299.186,403.243 1172.013,403.243 1151.781,430.701 
	1131.548,403.243 926.339,403.243 906.105,430.701 885.874,403.243 718.237,403.243 681.387,440.818 1021.718,440.818 
	1036.169,421.308 "/>
<polygon fill="#E7343C" points="1151.781,414.083 1127.938,382.288 1175.626,382.288 "/>
<polygon fill="#E7343C" points="906.829,414.083 882.982,382.288 930.673,382.288 "/>
<polygon fill="#E7343C" points="1268.115,574.493 1234.878,529.695 1301.354,529.695 "/>
<polygon fill="#E7343C" points="1203.807,574.493 1170.566,529.695 1237.044,529.695 "/>
<polygon fill="#E7343C" points="868.532,574.493 835.294,529.695 901.771,529.695 "/>
<polygon fill="#E7343C" points="804.946,574.493 771.708,529.695 837.462,529.695 "/>
<polygon fill="#E7343C" points="1036.169,574.493 1002.931,529.695 1069.407,529.695 "/>
<polygon fill="#E7343C" points="1036.169,433.591 1012.324,466.108 1059.292,466.108 "/>
<g>
	<path fill="#EB584E" d="M766.648,480.559c3.613,5.78,5.781,13.007,5.781,20.954c0,6.503-1.444,11.563-3.612,16.619h529.646v-37.573
		H766.648L766.648,480.559z"/>
</g>
<rect x="1394.468" y="444.87" transform="matrix(0.7071 -0.7071 0.7071 0.7071 84.4315 1139.097)" fill="#8AC165" width="45.52" height="45.522"/>
<g>
	<path fill="#55A680" d="M1492.835,467.552c0-41.908-33.961-75.87-75.869-75.87c-41.909,0-75.871,33.962-75.871,75.87
		c0,41.909,33.962,75.87,75.871,75.87C1458.874,544.145,1492.835,509.462,1492.835,467.552 M1517.402,467.552
		c0,55.64-44.801,100.438-100.438,100.438s-100.438-44.799-100.438-100.438s44.801-100.438,100.438-100.438
		C1472.604,367.115,1517.402,412.637,1517.402,467.552"/>
</g>
</svg>
