<?xml version="1.0" encoding="utf-8"?>
<!-- Generator: Adobe Illustrator 15.1.0, SVG Export Plug-In . SVG Version: 6.00 Build 0)  -->
<!DOCTYPE svg PUBLIC "-//W3C//DTD SVG 1.1//EN" "http://www.w3.org/Graphics/SVG/1.1/DTD/svg11.dtd">
<svg version="1.1" id="Ebene_1" xmlns="http://www.w3.org/2000/svg" xmlns:xlink="http://www.w3.org/1999/xlink" x="0px" y="0px"
	 width="2834.651px" height="347.558px" viewBox="0 247.167 2834.651 347.558" enable-background="new 0 247.167 2834.651 347.558"
	 xml:space="preserve">
<g>
	<path fill="#E7343C" d="M492.794,432.867c-4.335,0-7.948-3.612-7.948-7.947c0-4.336,3.613-7.948,7.948-7.948
		c4.336,0,7.948,3.612,7.948,7.948C500.742,429.255,497.13,432.867,492.794,432.867"/>
	<path fill="#E7343C" d="M654.65,367.837c-2.892,0-5.059-2.168-5.059-5.06c0-2.89,2.167-5.058,5.059-5.058
		c2.891,0,5.058,2.168,5.058,5.058C659.708,364.946,657.541,367.837,654.65,367.837"/>
	<path fill="#EB584E" d="M654.65,393.848c-2.892,0-5.059-2.167-5.059-5.059c0-2.891,2.167-5.058,5.059-5.058
		c2.891,0,5.058,2.167,5.058,5.058C659.708,391.681,657.541,393.848,654.65,393.848"/>
	<path fill="#E7343C" d="M654.65,424.197c-2.892,0-5.059-2.168-5.059-5.059s2.167-5.059,5.059-5.059
		c2.891,0,5.058,2.168,5.058,5.059S657.541,424.197,654.65,424.197"/>
</g>
<path fill="#E7343C" d="M260.126,445.151l23.845,24.567h18.064l-23.845-24.567H260.126z M329.493,445.151l23.845,24.567h18.064
	l-23.845-24.567H329.493z M382.241,393.127h-47.69l10.839,26.012h40.464l119.225-91.768L398.86,445.151l0,0l15.896,16.619
	l108.386-133.676L505.8,306.417L382.241,393.127z M0,394.571h99.715l167.637,200.153V469.719h0.723l-23.845-24.567v80.206
	L107.663,371.448H55.638l94.657-83.817l101.16,132.229h42.632l10.116-26.013h-41.187L156.798,249.334L0,394.571z"/>
<path fill="#EB584E" d="M364.176,445.151h18.064l23.845,24.567h-18.064L364.176,445.151z M294.81,445.151h18.064l23.845,24.567
	h-18.063L294.81,445.151z"/>
<polygon fill="#EB584E" points="588.174,247.167 514.472,299.914 530.368,318.7 "/>
<polygon fill="#EB584E" points="306.371,362.778 296.977,362.778 319.377,304.972 342.499,362.778 333.105,362.778 319.377,329.539 
	"/>
<polygon fill="#E7343C" points="314.319,388.79 302.035,388.79 319.377,344.714 337.441,388.79 325.157,388.79 319.377,375.784 "/>
<polygon fill="#EB584E" points="319.377,387.345 338.164,434.313 301.313,434.313 "/>
<polygon fill="#EB584E" points="158.243,368.558 127.896,368.558 223.275,479.112 223.275,442.261 "/>
<polygon fill="#EB584E" points="174.862,356.997 112.721,356.997 146.682,320.868 "/>
<g>
	<path fill="#E7343C" d="M596.122,445.151h-40.464c2.891-25.29,18.787-46.967,41.187-57.806L596.122,445.151z"/>
	<path fill="#EB584E" d="M452.33,452.377h61.419c0.723-66.478,54.192-119.946,120.669-119.946l532.536-0.723v20.23H634.418
		c-55.638,0-101.16,45.522-101.16,101.883v18.064h-96.824L452.33,452.377z"/>
</g>
<polygon fill="#E7343C" points="593.23,287.631 593.23,320.146 535.426,356.997 "/>
<rect x="609.852" y="360.61" fill="#E7343C" width="25.289" height="11.563"/>
<rect x="609.852" y="382.287" fill="#EB584E" width="25.289" height="11.563"/>
<rect x="609.852" y="403.965" fill="#E7343C" width="25.289" height="11.562"/>
<rect x="609.852" y="425.642" fill="#EB584E" width="25.289" height="11.561"/>
<rect x="609.852" y="447.319" fill="#E7343C" width="25.289" height="11.563"/>
<rect x="609.852" y="468.996" fill="#EB584E" width="25.289" height="11.562"/>
<g>
	<path fill="#EB584E" d="M652.482,461.77c0,3.613,2.891,5.781,5.78,5.781c3.612,0,5.78-2.892,5.78-5.781
		c0-3.612-2.891-5.78-5.78-5.78C655.373,455.267,652.482,458.157,652.482,461.77 M645.979,478.389v-36.852l44.077,19.51v17.342
		H645.979z"/>
</g>
<polygon fill="#E7343C" points="1050.62,401.074 1299.186,401.074 1299.186,438.648 1172.012,438.648 1151.78,411.19 
	1131.548,438.648 926.338,438.648 906.105,411.19 885.873,438.648 718.236,438.648 681.386,401.074 1021.717,401.074 
	1036.168,420.584 "/>
<polygon fill="#E7343C" points="1151.78,427.809 1127.936,459.603 1175.625,459.603 "/>
<polygon fill="#E7343C" points="906.828,427.809 882.982,459.603 930.673,459.603 "/>
<polygon fill="#E7343C" points="1268.114,267.398 1234.876,312.198 1301.354,312.198 "/>
<polygon fill="#E7343C" points="1203.805,267.398 1170.566,312.198 1237.043,312.198 "/>
<polygon fill="#E7343C" points="868.531,267.398 835.293,312.198 901.77,312.198 "/>
<polygon fill="#E7343C" points="804.945,267.398 771.707,312.198 838.184,312.198 "/>
<polygon fill="#E7343C" points="1036.168,267.398 1002.93,312.198 1069.406,312.198 "/>
<polygon fill="#E7343C" points="1036.168,408.301 1012.323,375.784 1059.291,375.784 "/>
<g>
	<path fill="#EB584E" d="M766.648,361.333c3.612-5.78,5.78-13.007,5.78-20.954c0-6.503-1.444-11.563-3.612-16.619h529.646v37.573
		H766.648L766.648,361.333z"/>
	<path fill="#E7343C" d="M2341.855,432.867c4.336,0,7.948-3.612,7.948-7.947c0-4.336-3.612-7.948-7.948-7.948
		s-7.947,3.612-7.947,7.948C2333.908,429.255,2337.521,432.867,2341.855,432.867"/>
	<path fill="#E7343C" d="M2180,367.837c2.891,0,5.059-2.168,5.059-5.06c0-2.89-2.168-5.058-5.059-5.058s-5.059,2.168-5.059,5.058
		C2174.941,364.946,2177.109,367.837,2180,367.837"/>
	<path fill="#EB584E" d="M2180,393.848c2.891,0,5.059-2.167,5.059-5.059c0-2.891-2.168-5.058-5.059-5.058s-5.059,2.167-5.059,5.058
		C2174.941,391.681,2177.109,393.848,2180,393.848"/>
	<path fill="#E7343C" d="M2180,424.197c2.891,0,5.059-2.168,5.059-5.059s-2.168-5.059-5.059-5.059s-5.059,2.168-5.059,5.059
		S2177.109,424.197,2180,424.197"/>
</g>
<path fill="#E7343C" d="M2487.094,445.151l-23.846,24.567h18.064l23.846-24.567H2487.094z M2556.46,445.151l-23.845,24.567h18.063
	l23.845-24.567H2556.46z M2311.508,328.094l108.387,133.676l15.896-16.619l0,0l-106.219-117.779l119.947,92.489h40.464
	l10.116-26.013h-47.689l-122.838-87.431L2311.508,328.094z M2570.912,393.127h-41.188l10.839,26.012h42.632l101.16-132.229
	l94.656,83.817h-52.024l-136.565,154.631v-80.206l-23.846,24.567h0.723v125.006l167.638-200.876h99.715l-156.799-144.515
	L2570.912,393.127z"/>
<path fill="#EB584E" d="M2470.475,445.151h-18.063l-23.846,24.567h18.063L2470.475,445.151z M2539.841,445.151h-18.063
	l-23.847,24.567h18.064L2539.841,445.151z"/>
<polygon fill="#EB584E" points="2246.477,247.167 2304.282,318.7 2320.18,299.914 "/>
<polygon fill="#EB584E" points="2528.279,362.778 2537.674,362.778 2515.273,304.972 2492.15,362.778 2501.545,362.778 
	2515.273,329.539 "/>
<polygon fill="#E7343C" points="2520.332,388.79 2532.615,388.79 2515.273,344.714 2497.209,388.79 2509.493,388.79 
	2515.273,375.784 "/>
<polygon fill="#EB584E" points="2515.273,387.345 2496.486,434.313 2534.061,434.313 "/>
<polygon fill="#EB584E" points="2676.407,368.558 2706.756,368.558 2611.376,479.112 2611.376,442.261 "/>
<polygon fill="#EB584E" points="2659.788,356.997 2721.93,356.997 2687.969,320.868 "/>
<g>
	<path fill="#E7343C" d="M2238.528,445.151h40.464c-2.89-25.29-18.787-46.967-41.188-57.806L2238.528,445.151z"/>
	<path fill="#EB584E" d="M2382.32,452.377h-61.418c-0.723-66.478-54.193-119.946-120.67-119.946l-532.536-0.723v20.23h532.536
		c55.638,0,101.16,45.522,101.16,101.883v18.064h97.547L2382.32,452.377z"/>
</g>
<polygon fill="#E7343C" points="2241.419,287.631 2241.419,320.146 2299.225,356.997 "/>
<rect x="2200.232" y="360.61" fill="#E7343C" width="25.289" height="11.563"/>
<rect x="2200.232" y="382.287" fill="#EB584E" width="25.289" height="11.563"/>
<rect x="2200.232" y="403.965" fill="#E7343C" width="25.289" height="11.562"/>
<rect x="2200.232" y="425.642" fill="#EB584E" width="25.289" height="11.561"/>
<rect x="2200.232" y="447.319" fill="#E7343C" width="25.289" height="11.563"/>
<rect x="2200.232" y="468.996" fill="#EB584E" width="25.289" height="11.562"/>
<g>
	<path fill="#EB584E" d="M2182.168,461.77c0,3.613-2.891,5.781-5.78,5.781c-3.612,0-5.78-2.892-5.78-5.781
		c0-3.612,2.891-5.78,5.78-5.78C2179.277,455.267,2182.168,458.157,2182.168,461.77 M2188.671,478.389v-36.852l-44.077,19.51v17.342
		H2188.671z"/>
</g>
<polygon fill="#E7343C" points="1784.03,401.074 1535.466,401.074 1535.466,438.648 1662.639,438.648 1682.87,411.19 
	1703.104,438.648 1908.313,438.648 1928.545,411.19 1948.777,438.648 2116.414,438.648 2153.265,401.074 1812.934,401.074 
	1798.482,420.584 "/>
<polygon fill="#E7343C" points="1682.87,427.809 1706.715,459.603 1659.025,459.603 "/>
<polygon fill="#E7343C" points="1927.822,427.809 1951.668,459.603 1903.979,459.603 "/>
<polygon fill="#E7343C" points="1566.536,267.398 1599.773,312.198 1533.298,312.198 "/>
<polygon fill="#E7343C" points="1630.846,267.398 1664.084,312.198 1597.607,312.198 "/>
<polygon fill="#E7343C" points="1966.119,267.398 1999.357,312.198 1932.881,312.198 "/>
<polygon fill="#E7343C" points="2029.705,267.398 2062.943,312.198 1997.189,312.198 "/>
<polygon fill="#E7343C" points="1798.482,267.398 1831.721,312.198 1765.244,312.198 "/>
<polygon fill="#E7343C" points="1798.482,408.301 1822.327,375.784 1775.359,375.784 "/>
<g>
	<path fill="#EB584E" d="M2068.002,361.333c-3.613-5.78-5.781-13.007-5.781-20.954c0-6.503,1.445-11.563,3.613-16.619h-529.646
		v37.573H2068.002L2068.002,361.333z"/>
</g>
<rect x="1394.666" y="351.474" transform="matrix(0.7071 -0.7071 0.7071 0.7071 150.5421 1111.9021)" fill="#8AC165" width="45.521" height="45.522"/>
<g>
	<path fill="#55A680" d="M1341.816,374.34c0,41.908,33.961,75.87,75.869,75.87c41.909,0,75.871-33.962,75.871-75.87
		c0-41.909-33.962-75.87-75.871-75.87C1375.777,297.747,1341.816,332.43,1341.816,374.34 M1317.249,374.34
		c0-55.64,44.8-100.438,100.438-100.438c55.638,0,100.438,44.799,100.438,100.438c0,55.638-44.8,100.438-100.438,100.438
		C1362.049,474.778,1317.249,429.255,1317.249,374.34"/>
</g>
</svg>
