<?xml version="1.0" encoding="utf-8"?>
<!-- Generator: Adobe Illustrator 15.1.0, SVG Export Plug-In . SVG Version: 6.00 Build 0)  -->
<!DOCTYPE svg PUBLIC "-//W3C//DTD SVG 1.1//EN" "http://www.w3.org/Graphics/SVG/1.1/DTD/svg11.dtd">
<svg version="1.1" id="Ebene_1" xmlns="http://www.w3.org/2000/svg" xmlns:xlink="http://www.w3.org/1999/xlink" x="0px" y="0px"
	 viewBox="-21.174 307.189 595.453 423.833"
	 enable-background="new -21.174 307.189 595.453 423.833" xml:space="preserve">
<path d="M-1689.742,1768.957v-59.702h37.771v7.311h-29.416v18.276l28.023-0.174v7.311h-28.023v20.016l30.112-0.174v7.311
	L-1689.742,1768.957L-1689.742,1768.957z M-1642.224,1768.957v-41.948h7.833v41.948H-1642.224z M-1642.921,1708.732h9.399v8.703
	h-9.399V1708.732z M-1615.419,1768.957h-7.833v-37.074v-5.222h7.833v7.136c0.348-0.696,0.696-1.218,1.044-1.914
	c1.219-1.741,2.959-3.308,5.048-4.178c2.263-1.044,4.699-1.393,7.136-1.393c1.741,0,3.481,0.174,5.223,0.696
	c1.566,0.349,2.959,1.044,4.351,1.915c1.741,1.218,3.308,2.784,4.352,4.699c0.87,1.566,1.393,3.481,1.393,5.396
	c0,0.522,0,1.045,0,1.393v28.546h-8.007v-27.501c0-0.349,0-0.87,0-1.219c0-0.87-0.174-1.915-0.521-2.785
	c-0.522-1.044-1.219-2.089-2.089-2.959c-0.87-0.696-1.741-1.218-2.785-1.566c-1.219-0.522-2.61-0.696-4.003-0.696
	c-1.219,0-2.438,0.174-3.481,0.522c-1.044,0.348-2.089,0.87-3.133,1.566c-1.045,0.87-2.089,1.74-2.611,2.959
	c-0.87,1.219-1.218,2.785-1.393,4.352c-0.174,1.044-0.174,2.089-0.174,3.133L-1615.419,1768.957L-1615.419,1768.957z
	 M-1571.904,1747.2c0,2.437,0.174,4.873,0.87,7.136c0.521,1.566,1.044,3.134,2.089,4.352c0.87,1.219,2.263,2.263,3.654,2.785
	c1.393,0.696,2.96,0.87,4.7,0.87c2.089,0,4.352-0.348,6.092-1.393c1.566-0.87,2.959-2.089,3.829-3.655
	c1.045-1.566,1.567-3.307,1.915-5.048c0.522-2.263,0.522-4.525,0.348-6.788c0-2.089-0.174-4.003-0.87-5.918
	c-0.521-1.566-1.393-2.959-2.61-4.178c-1.045-1.044-2.438-1.914-3.83-2.437c-1.566-0.696-3.133-0.87-4.873-0.87
	c-2.089,0-4.178,0.348-5.744,1.566c-1.219,0.696-2.263,1.74-2.959,2.785c-1.044,1.566-1.74,3.48-2.089,5.222
	C-1571.73,1743.37-1571.904,1745.285-1571.904,1747.2z M-1577.822,1772.09h8.354c0,0.696,0.174,1.393,0.348,2.089
	c0.175,0.87,0.349,1.566,0.871,2.263c0.521,0.87,1.044,1.566,1.914,2.089s1.74,1.044,2.785,1.218
	c1.393,0.349,2.61,0.522,4.003,0.522s2.785-0.174,4.178-0.522c1.74-0.521,3.307-1.393,4.352-2.784
	c1.044-1.219,1.566-2.611,1.914-4.004c0.522-2.089,0.696-4.352,0.696-6.439c0-1.741,0-3.655,0-5.396
	c-0.174,0.349-0.348,0.696-0.521,1.045c-0.522,0.696-0.87,1.393-1.566,1.914c-0.871,0.87-2.089,1.566-3.134,2.263
	c-1.044,0.522-2.263,1.045-3.307,1.393c-1.741,0.522-3.481,0.522-5.396,0.522c-2.264,0-4.352-0.174-6.44-1.044
	c-2.438-0.87-4.7-2.263-6.267-4.352c-1.74-1.915-2.784-4.352-3.48-6.788c-0.871-2.785-1.219-5.744-1.219-8.703
	c0-2.785,0.348-5.396,1.044-8.007c0.696-2.437,2.089-4.873,3.655-6.788s3.655-3.481,5.918-4.525
	c2.611-1.219,5.744-1.741,8.529-1.566c0.696,0,1.566,0,2.263,0.174c0.87,0.174,1.914,0.348,2.959,0.696
	c1.219,0.348,2.263,0.87,3.307,1.393c0.871,0.521,1.567,1.044,2.264,1.74c0.521,0.522,0.87,1.044,1.392,1.566
	c0.175,0.349,0.349,0.522,0.522,0.87v-5.743h7.658l-0.174,7.658v26.108c0,2.089,0,4.004,0,6.093c0,2.263,0,4.525-0.521,6.614
	c-0.522,2.437-1.741,4.873-3.481,6.788c-1.393,1.566-3.308,2.61-5.222,3.481c-3.133,1.393-6.614,1.914-9.922,1.914
	c-2.263,0-4.699,0-6.962-0.522c-1.915-0.348-3.655-0.87-5.222-1.914c-1.393-0.696-2.611-1.915-3.308-3.308
	c-1.218-1.74-1.74-3.829-2.089-5.918C-1577.648,1773.482-1577.822,1772.786-1577.822,1772.09z M-1509.069,1748.244
	c-0.87,0-1.566,0-2.438,0c-2.263,0-4.525,0.174-6.614,0.87c-1.218,0.349-2.437,0.87-3.48,1.566
	c-1.045,0.696-2.089,1.741-2.611,2.959c-0.521,0.87-0.696,1.915-0.696,2.959c0,1.219,0.174,2.263,0.696,3.308
	c0.522,0.87,1.045,1.74,1.915,2.437c0.696,0.522,1.566,1.044,2.61,1.219c1.219,0.348,2.263,0.522,3.481,0.522
	c1.74,0,3.481-0.349,5.048-1.045c1.044-0.522,2.089-1.218,2.959-2.263c1.044-1.044,1.74-2.437,2.089-3.829
	c0.521-1.566,0.521-3.308,0.696-5.048c0-1.219,0.174-2.263,0.174-3.481L-1509.069,1748.244z M-1505.414,1743.022
	c0-0.87,0-1.741,0-2.611c0-1.218,0-2.437-0.349-3.829c-0.174-1.044-0.521-2.263-1.393-2.959c-0.696-0.87-1.914-1.566-3.133-1.914
	c-1.393-0.522-2.785-0.696-4.178-0.522c-1.566,0-2.959,0.174-4.352,0.87c-1.218,0.522-2.263,1.219-2.784,2.263
	c-0.522,0.696-0.87,1.74-0.87,2.611c0,0.521-0.175,0.87-0.175,1.392h-7.832c0-0.521,0.174-1.044,0.174-1.74
	c0.174-1.393,0.522-2.785,1.044-4.003c0.696-1.393,1.741-2.785,3.134-3.655c1.218-1.045,2.784-1.741,4.351-2.089
	c2.264-0.696,4.7-1.044,7.137-1.044c2.089,0,4.004,0.174,6.092,0.521c2.089,0.522,4.178,1.219,6.093,2.263
	c1.218,0.87,2.437,1.741,3.133,3.134c0.87,1.392,1.393,3.307,1.393,5.047c0,0.522,0,1.045,0,1.567l-0.174,10.791
	c0,0.87,0,1.915,0,2.959c0,2.089,0,4.178,0,6.267c0,2.61,0,5.396,0.348,8.006c0,0.871,0.174,1.741,0.349,2.438h-7.137
	c0-0.174,0-0.349-0.174-0.349c-0.175-0.696-0.349-1.566-0.522-2.263c0-0.696,0-1.393,0-2.088c0-0.522,0-1.045,0-1.393
	c-0.174,0.348-0.349,0.695-0.522,1.044c-1.218,1.74-2.61,3.481-4.525,4.525c-2.263,1.566-5.222,2.089-8.181,2.089
	c-1.74,0-3.481-0.174-5.222-0.696s-3.481-1.393-5.048-2.438c-1.219-0.87-2.263-2.088-2.959-3.48
	c-0.87-1.567-1.393-3.481-1.393-5.396c0-2.088,0.349-4.177,1.219-5.918c0.87-1.74,2.089-3.48,3.481-4.699
	c1.74-1.566,3.829-2.611,6.092-3.308c3.481-1.218,7.137-1.218,10.617-1.218C-1509.418,1743.022-1507.503,1743.022-1505.414,1743.022
	z M-1479.132,1768.957h-7.832v-37.074l-0.175-5.222h7.833v7.136c0.349-0.696,0.696-1.218,1.044-1.914
	c1.219-1.741,2.959-3.308,5.048-4.178c2.263-1.044,4.7-1.393,7.137-1.393c1.74,0,3.481,0.174,5.222,0.696
	c1.566,0.349,2.959,1.044,4.352,1.915c1.74,1.218,3.307,2.784,4.352,4.699c0.87,1.566,1.393,3.481,1.393,5.396
	c0,0.522,0,1.045,0,1.393v28.546h-8.007v-27.501c0-0.349,0-0.87,0-1.219c0-0.87-0.174-1.915-0.522-2.785
	c-0.521-1.044-1.218-2.089-2.089-2.959c-0.87-0.696-1.74-1.218-2.784-1.566c-1.219-0.522-2.611-0.696-4.004-0.696
	c-1.218,0-2.437,0.174-3.48,0.522c-1.045,0.348-2.089,0.87-3.134,1.566c-1.044,0.87-2.089,1.74-2.61,2.959
	c-0.87,1.219-1.219,2.785-1.393,4.352c-0.174,1.044-0.174,2.089-0.174,3.133L-1479.132,1768.957L-1479.132,1768.957z
	 M-1435.617,1747.2c0,2.437,0.174,4.873,0.87,7.136c0.522,1.566,1.045,3.134,2.089,4.352c0.87,1.219,2.263,2.263,3.655,2.785
	c1.393,0.696,2.959,0.87,4.7,0.87c2.088,0,4.352-0.348,6.092-1.393c1.566-0.87,2.959-2.089,3.829-3.655
	c1.044-1.566,1.566-3.307,1.915-5.048c0.521-2.263,0.521-4.525,0.348-6.788c0-2.089-0.174-4.003-0.87-5.918
	c-0.522-1.566-1.393-2.959-2.611-4.178c-1.044-1.044-2.437-1.914-3.829-2.437c-1.566-0.696-3.133-0.87-4.873-0.87
	c-2.089,0-4.178,0.348-5.744,1.566c-1.219,0.696-2.263,1.74-2.959,2.785c-1.045,1.566-1.741,3.48-2.089,5.222
	C-1435.442,1743.37-1435.617,1745.285-1435.617,1747.2z M-1441.535,1772.09h8.355c0,0.696,0.174,1.393,0.348,2.089
	c0.174,0.87,0.349,1.566,0.87,2.263c0.522,0.87,1.045,1.566,1.915,2.089s1.74,1.044,2.785,1.218c1.392,0.349,2.61,0.522,4.003,0.522
	s2.785-0.174,4.178-0.522c1.74-0.521,3.307-1.393,4.352-2.784c1.044-1.219,1.566-2.611,1.914-4.004
	c0.522-2.089,0.696-4.352,0.696-6.439c0-1.741,0-3.655,0-5.396c-0.174,0.349-0.348,0.696-0.522,1.045
	c-0.521,0.696-0.87,1.393-1.566,1.914c-0.87,0.87-2.089,1.566-3.133,2.263c-1.044,0.522-2.263,1.045-3.307,1.393
	c-1.741,0.522-3.481,0.522-5.396,0.522c-2.263,0-4.352-0.174-6.44-1.044c-2.437-0.87-4.699-2.263-6.266-4.352
	c-1.74-1.915-2.785-4.352-3.481-6.788c-0.87-2.785-1.218-5.744-1.218-8.703c0-2.785,0.348-5.396,1.044-8.007
	c0.696-2.437,2.089-4.873,3.655-6.788s3.655-3.481,5.918-4.525c2.611-1.219,5.744-1.741,8.529-1.566c0.696,0,1.566,0,2.263,0.174
	c1.044,0.174,1.914,0.348,2.959,0.696c1.218,0.348,2.263,0.87,3.307,1.393c0.87,0.521,1.566,1.044,2.263,1.74
	c0.522,0.522,0.87,1.044,1.393,1.566c0.174,0.349,0.349,0.522,0.522,0.87v-5.743h7.658l-0.174,7.658v26.108c0,2.089,0,4.004,0,6.093
	c0,2.263,0,4.525-0.522,6.614c-0.521,2.437-1.74,4.873-3.48,6.788c-1.393,1.566-3.308,2.61-5.222,3.481
	c-3.134,1.393-6.614,1.914-9.922,1.914c-2.263,0-4.699,0-6.962-0.522c-1.915-0.348-3.655-0.87-5.222-1.914
	c-1.393-0.696-2.611-1.915-3.308-3.308c-1.219-1.74-1.74-3.829-2.089-5.918C-1441.535,1773.482-1441.535,1772.786-1441.535,1772.09z
	 M-1361.12,1734.319h11.662c0.696,0,1.393,0,2.089,0c1.74,0,3.481-0.348,5.048-1.044c1.219-0.522,2.263-1.045,2.959-1.915
	c0.696-0.696,1.393-1.74,1.74-2.61c0.522-1.045,0.696-2.263,0.696-3.481c0-1.393-0.174-2.785-0.696-4.178
	c-0.521-1.044-1.044-2.089-1.914-2.959s-2.263-1.393-3.481-1.74c-1.219-0.349-2.437-0.522-3.655-0.522c-0.87,0-1.74,0-2.61,0
	h-12.011L-1361.12,1734.319L-1361.12,1734.319z M-1361.12,1762.169h14.273c0.87,0,1.74,0,2.61-0.174
	c1.393-0.174,2.785-0.522,4.004-1.393c1.218-0.696,2.263-1.566,3.133-2.611c0.696-0.87,1.219-1.914,1.566-2.959
	c0.349-1.218,0.522-2.263,0.522-3.48c0-1.567-0.349-3.134-1.045-4.526c-0.521-1.044-1.218-2.088-2.088-2.784
	c-1.045-1.045-2.438-1.741-3.83-2.263c-0.87-0.349-1.914-0.522-2.959-0.522c-0.521,0-1.218,0-1.74,0h-14.621L-1361.12,1762.169
	L-1361.12,1762.169z M-1369.301,1768.957v-60.05h21.584c1.044,0,2.263,0,3.307,0c1.915,0,4.003,0.348,5.744,0.87
	c1.914,0.521,3.829,1.566,5.222,2.959c1.393,1.218,2.785,2.61,3.481,4.352c1.044,1.914,1.392,4.177,1.392,6.439
	c0,2.959-0.521,5.918-2.263,8.182c-1.566,2.61-4.351,4.351-7.31,5.396c-0.175,0-0.522,0.174-0.696,0.174
	c0.348,0,0.696,0.174,1.044,0.174c1.393,0.349,2.785,0.87,4.003,1.741c1.566,0.87,2.785,2.088,3.83,3.48
	c1.044,1.566,1.74,3.308,2.263,5.048c0.521,1.741,0.696,3.481,0.696,5.222c0,1.915-0.349,3.655-1.045,5.396
	c-0.696,1.914-1.74,3.48-3.133,4.873c-1.566,1.566-3.481,2.959-5.57,3.829c-2.263,0.871-4.525,1.393-6.962,1.567
	c-0.696,0-1.393,0.174-2.089,0.174h-23.498V1768.957z M-1318.998,1768.957v-60.225h7.833v60.225H-1318.998z M-1296.196,1747.896
	c0,2.611,0.349,5.048,1.045,7.485c0.521,1.914,1.393,3.655,2.784,5.222c1.045,1.393,2.611,2.263,4.178,2.959
	c1.393,0.522,2.959,0.87,4.525,0.87c2.089,0,4.352-0.522,6.092-1.566c1.567-0.871,2.785-2.263,3.83-3.655
	c1.044-1.566,1.914-3.308,2.263-5.222c0.521-2.089,0.696-4.178,0.696-6.267c0-2.437-0.349-4.873-0.87-7.136
	c-0.522-1.741-1.219-3.481-2.438-4.874c-1.218-1.393-2.61-2.61-4.352-3.133c-1.566-0.696-3.133-0.87-4.873-0.87
	c-1.915,0-4.004,0.348-5.744,1.393c-1.566,0.87-2.959,2.263-4.003,3.829c-1.045,1.566-1.915,3.307-2.263,5.222
	C-1296.021,1743.893-1296.196,1745.808-1296.196,1747.896z M-1304.377,1748.94c0-2.785,0.174-5.744,0.87-8.529
	c0.696-2.784,2.089-5.569,4.178-7.832c1.915-2.263,4.352-4.178,7.311-5.222c2.785-1.219,5.918-1.567,9.051-1.393
	c2.611,0,5.222,0.348,7.659,1.218c2.61,0.87,5.048,2.263,6.962,4.352c1.741,1.566,2.959,3.481,3.829,5.744
	c1.393,3.308,2.089,6.962,1.915,10.617c0,3.308-0.349,6.44-1.393,9.399c-0.87,2.785-2.437,5.222-4.352,7.311
	c-1.914,2.089-4.352,3.655-6.962,4.525c-2.785,1.045-5.918,1.393-8.877,1.393c-2.611,0-5.222-0.348-7.484-1.218
	c-2.438-0.871-4.7-2.264-6.44-4.004c-1.915-1.915-3.481-4.352-4.352-6.962C-1303.854,1755.207-1304.377,1752.073-1304.377,1748.94z
	 M-1226.224,1743.893c0-0.522,0-1.044,0-1.74c0-1.566-0.348-3.134-0.87-4.525c-0.522-1.393-1.393-2.611-2.437-3.655
	c-1.045-1.045-2.263-1.741-3.655-2.089c-1.045-0.349-1.915-0.349-2.959-0.349c-1.566,0-3.308,0.175-4.874,0.696
	c-1.219,0.522-2.263,1.219-3.307,2.089c-1.045,1.045-2.089,2.263-2.611,3.655c-0.696,1.393-1.044,3.133-1.044,4.699
	c0,0.349,0,0.871,0,1.219H-1226.224L-1226.224,1743.893z M-1218.218,1749.288h-30.112c0,0.522,0,1.045,0,1.567
	c0,1.566,0.174,2.959,0.522,4.525c0.348,1.566,1.044,3.307,2.089,4.699c0.87,1.219,2.089,2.263,3.48,3.133
	c1.741,1.045,3.655,1.393,5.57,1.393c1.044,0,2.089,0,3.133-0.348c1.045-0.174,1.915-0.522,2.785-1.045
	c1.044-0.695,1.915-1.566,2.611-2.61s1.218-2.263,1.392-3.481c0-0.348,0.175-0.696,0.175-1.044h7.832c0,0.348,0,0.696-0.174,1.044
	c-0.348,1.741-0.87,3.481-1.74,5.048c-1.045,1.915-2.438,3.655-4.178,4.874c-1.566,1.218-3.481,2.089-5.396,2.61
	c-2.089,0.696-4.352,0.871-6.44,0.871c-2.611,0-5.222-0.349-7.658-1.045c-2.089-0.696-4.004-1.74-5.744-3.133
	c-1.915-1.741-3.481-4.004-4.352-6.44c-1.393-3.133-1.74-6.614-1.915-9.921c-0.174-3.133,0-6.44,0.87-9.399
	c0.696-2.785,1.915-5.57,3.83-7.833c1.566-2.088,3.829-3.829,6.266-4.873c2.785-1.219,5.918-1.741,9.051-1.566
	c2.263,0,4.526,0.348,6.789,1.044c2.61,0.87,5.048,2.263,6.788,4.352c1.566,1.74,2.61,3.829,3.307,6.092
	c1.045,3.133,1.219,6.267,1.219,9.573C-1218.044,1747.548-1218.218,1748.418-1218.218,1749.288z M-1212.3,1756.425h8.354
	c0,0.348,0,0.696,0,0.87c0,0.87,0.349,1.566,0.522,2.263c0.349,0.871,1.044,1.741,1.74,2.264c0.696,0.696,1.567,1.218,2.438,1.392
	c1.218,0.522,2.61,0.522,4.003,0.522c0.522,0,0.87,0,1.393,0c1.044,0,2.089-0.174,3.133-0.522c0.87-0.348,1.566-0.695,2.263-1.392
	c0.522-0.522,1.219-1.045,1.567-1.741c0.521-0.87,0.695-1.74,0.695-2.785c0-0.521-0.174-1.218-0.348-1.74
	c-0.174-0.696-0.696-1.393-1.219-1.914c-0.348-0.349-0.696-0.522-1.044-0.696c-1.219-0.522-2.437-0.871-3.655-1.219
	c-1.915-0.522-3.829-0.87-5.744-1.393c-1.914-0.522-3.829-0.87-5.743-1.566c-1.393-0.522-2.611-1.045-3.83-1.915
	c-0.87-0.696-1.74-1.74-2.437-2.784c-0.87-1.741-1.393-3.481-1.393-5.396c0-1.566,0.174-3.133,0.87-4.525
	c0.696-1.74,1.915-3.133,3.308-4.352c1.393-1.218,2.959-1.914,4.699-2.61c2.438-0.87,5.048-1.219,7.484-1.219
	c1.915,0,3.83,0.174,5.744,0.522c1.915,0.348,3.829,1.044,5.57,2.089c1.218,0.696,2.437,1.74,3.133,2.959
	c0.87,1.393,1.393,2.959,1.566,4.699c0,0.696,0.174,1.393,0.174,2.263h-8.007c0-0.522,0-1.219-0.174-1.74
	c-0.174-0.696-0.348-1.393-0.521-1.915c-0.349-0.696-0.871-1.219-1.567-1.74c-0.696-0.522-1.566-0.87-2.263-1.045
	c-1.218-0.348-2.61-0.348-4.003-0.348c-0.174,0-0.349,0-0.522,0c-0.87,0-1.914,0-2.784,0.348c-0.871,0.175-1.567,0.522-2.264,1.045
	c-0.696,0.521-1.392,1.044-1.914,1.74s-0.87,1.741-0.87,2.611c0,0.696,0,1.218,0.348,1.914c0.174,0.696,0.522,1.393,1.219,1.741
	c0.348,0.348,0.87,0.696,1.393,0.87c0.87,0.348,1.74,0.521,2.61,0.87c0.522,0.174,1.219,0.349,1.741,0.522
	c3.133,0.696,6.266,1.393,9.225,2.437c1.915,0.522,3.655,1.219,5.222,2.437c1.045,0.696,2.089,1.741,2.611,2.959
	c1.044,1.741,1.393,3.655,1.393,5.57c0,1.74-0.349,3.48-1.045,5.048c-0.87,1.74-2.089,3.307-3.48,4.525
	c-1.393,1.218-3.308,2.088-5.048,2.61c-2.611,0.87-5.396,1.045-8.181,1.219c-1.741,0-3.655,0-5.396-0.349
	c-1.566-0.348-3.133-0.87-4.699-1.74c-1.74-0.87-3.133-2.089-4.352-3.655s-1.915-3.481-2.089-5.396
	C-1212.3,1758.165-1212.3,1757.295-1212.3,1756.425z M-1172.788,1756.425h8.354c0,0.348,0,0.696,0,0.87
	c0,0.87,0.174,1.566,0.522,2.263c0.348,0.871,1.044,1.741,1.74,2.264c0.696,0.696,1.566,1.218,2.437,1.392
	c1.393,0.522,2.785,0.522,4.004,0.522c0.521,0,0.87,0,1.393,0c1.044,0,2.088-0.174,3.133-0.522c0.87-0.348,1.566-0.695,2.263-1.392
	c0.696-0.522,1.218-1.045,1.566-1.741c0.522-0.87,0.696-1.74,0.696-2.785c0-0.521-0.174-1.218-0.349-1.74
	c-0.174-0.696-0.696-1.393-1.218-1.914c-0.349-0.349-0.696-0.522-1.045-0.696c-1.218-0.522-2.437-0.871-3.654-1.219
	c-1.915-0.522-3.83-0.87-5.744-1.393c-1.915-0.522-3.829-0.87-5.744-1.566c-1.393-0.522-2.611-1.045-3.829-1.915
	c-0.87-0.696-1.741-1.74-2.438-2.784c-0.87-1.741-1.392-3.481-1.392-5.396c0-1.566,0.174-3.133,0.87-4.525
	c0.696-1.74,1.914-3.133,3.307-4.352c1.393-1.218,2.959-1.914,4.7-2.61c2.437-0.87,5.048-1.219,7.484-1.219
	c1.914,0,3.829,0.174,5.744,0.522c1.914,0.348,3.829,1.044,5.569,2.089c1.219,0.696,2.437,1.74,3.133,2.959
	c0.871,1.393,1.393,2.959,1.567,4.699c0,0.696,0.174,1.393,0.174,2.263h-8.007c0-0.522,0-1.219-0.174-1.74
	c-0.174-0.696-0.349-1.393-0.522-1.915c-0.348-0.696-0.87-1.219-1.566-1.74c-0.696-0.522-1.566-0.87-2.263-1.045
	c-1.219-0.348-2.611-0.348-4.004-0.348c-0.174,0-0.348,0-0.521,0c-0.87,0-1.915,0-2.785,0.348c-0.87,0.175-1.566,0.522-2.263,1.045
	c-0.696,0.521-1.393,1.044-1.915,1.74c-0.521,0.696-0.87,1.741-0.87,2.611c0,0.696,0,1.218,0.349,1.914
	c0.174,0.696,0.521,1.393,1.218,1.741c0.349,0.348,0.871,0.696,1.393,0.87c0.87,0.348,1.741,0.521,2.611,0.87
	c0.521,0.174,1.218,0.349,1.74,0.522c3.133,0.696,6.267,1.393,9.226,2.437c1.914,0.522,3.655,1.219,5.222,2.437
	c1.044,0.696,2.089,1.741,2.61,2.959c1.045,1.741,1.393,3.655,1.393,5.57c0,1.74-0.348,3.48-1.044,5.048
	c-0.696,1.74-2.089,3.307-3.481,4.525c-1.393,1.218-3.308,2.088-5.048,2.61c-2.61,0.87-5.396,1.045-8.181,1.219
	c-1.74,0-3.655,0-5.396-0.349c-1.566-0.348-3.133-0.87-4.7-1.74c-1.74-0.87-3.133-2.089-4.352-3.655
	c-1.218-1.566-1.914-3.481-2.088-5.396C-1172.788,1758.165-1172.788,1757.295-1172.788,1756.425z M-1103.861,1743.893
	c0-0.522,0-1.044,0-1.74c0-1.566-0.348-3.134-0.87-4.525c-0.522-1.393-1.393-2.611-2.437-3.655
	c-1.045-1.045-2.263-1.741-3.655-2.089c-1.045-0.349-2.089-0.349-2.959-0.349c-1.567,0-3.308,0.175-4.874,0.696
	c-1.219,0.522-2.263,1.219-3.308,2.089c-1.218,1.045-2.088,2.263-2.61,3.655c-0.696,1.393-1.044,3.133-1.044,4.699
	c0,0.349,0,0.871,0,1.219H-1103.861L-1103.861,1743.893z M-1095.854,1749.288h-30.112c0,0.522,0,1.045,0,1.567
	c0,1.566,0.174,2.959,0.522,4.525c0.348,1.566,1.044,3.307,2.089,4.699c0.87,1.219,2.088,2.263,3.48,3.133
	c1.741,1.045,3.655,1.393,5.744,1.393c1.044,0,2.089,0,3.133-0.348c1.045-0.174,1.915-0.522,2.785-1.045
	c1.044-0.695,1.915-1.566,2.611-2.61s1.218-2.263,1.392-3.481c0-0.348,0.175-0.696,0.175-1.044h7.832c0,0.348,0,0.696-0.174,1.044
	c-0.174,1.741-0.87,3.481-1.74,5.048c-1.045,1.915-2.438,3.655-4.178,4.874c-1.566,1.218-3.481,2.089-5.396,2.61
	c-2.089,0.696-4.352,0.871-6.44,0.871c-2.611,0-5.222-0.349-7.658-1.045c-2.089-0.696-4.004-1.74-5.744-3.133
	c-1.915-1.741-3.481-4.004-4.525-6.44c-1.393-3.133-1.741-6.614-1.915-9.921c-0.174-3.133,0-6.44,0.87-9.399
	c0.696-2.785,1.915-5.57,3.83-7.833c1.566-2.088,3.829-3.829,6.266-4.873c2.785-1.219,5.918-1.741,9.051-1.566
	c2.263,0,4.525,0.348,6.789,1.044c2.61,0.87,5.047,2.263,6.788,4.352c1.566,1.74,2.61,3.829,3.307,6.092
	c1.045,3.133,1.219,6.267,1.219,9.573C-1095.854,1747.548-1095.854,1748.418-1095.854,1749.288z M-1087.847,1727.009h7.832
	l0.175,8.181c0.174-0.348,0.174-0.87,0.348-1.218c0.349-0.871,0.87-1.741,1.393-2.611c0.87-1.219,2.089-2.089,3.308-2.785
	c0.87-0.521,1.74-0.87,2.784-1.218c1.045-0.349,2.263-0.522,3.308-0.696c1.044,0,2.263,0,3.307,0c0.349,0,0.522,0,0.87,0v7.658
	c-0.348,0-0.87-0.174-1.218-0.174c-0.696-0.174-1.393-0.174-2.089-0.174c-1.393,0-2.959,0-4.352,0.348
	c-1.393,0.349-2.785,0.87-3.829,1.741c-1.219,0.87-2.263,2.263-2.785,3.654c-0.696,1.741-0.87,3.655-1.044,5.57
	c0,0.522,0,0.87,0,1.393v22.279h-8.007v-33.419c0-0.522,0-0.87,0-1.393c0-0.87,0-1.74,0-2.785c0-1.044-0.174-2.089-0.174-3.133
	C-1087.674,1727.705-1087.847,1727.357-1087.847,1727.009z M-1019.791,1737.975c0,4.178,0.174,8.354,1.393,12.358
	c0.696,2.61,1.914,5.222,3.655,7.311c1.566,1.914,3.655,3.48,5.918,4.351c2.437,1.045,5.048,1.393,7.658,1.393
	c2.785,0,5.744-0.348,8.181-1.566c2.263-1.044,4.352-2.784,5.919-4.873c1.914-2.438,2.959-5.396,3.654-8.355
	c0.696-2.785,0.871-5.569,1.045-8.354c0.174-4.003,0-8.007-1.045-11.836c-0.696-2.785-1.74-5.57-3.48-7.833
	c-1.566-2.089-3.655-4.003-5.918-4.873c-2.438-1.045-5.048-1.393-7.833-1.393c-2.959,0-5.918,0.348-8.354,1.566
	c-2.263,1.044-4.352,2.611-5.918,4.699c-1.741,2.089-2.785,4.7-3.481,7.311C-1019.268,1731.013-1019.617,1734.493-1019.791,1737.975
	z M-1028.668,1739.715c0-4.873,0.522-9.573,1.915-14.099c1.218-3.655,2.959-7.311,5.569-10.095c2.263-2.611,5.222-4.874,8.529-6.093
	c3.829-1.74,7.832-2.263,12.01-2.263c4.004,0,7.833,0.522,11.488,2.089c3.48,1.393,6.614,3.655,9.051,6.44
	c2.089,2.437,3.481,5.222,4.525,8.354c1.566,4.7,2.263,9.747,2.089,14.621c0,4.004-0.349,8.007-1.393,11.836
	c-1.044,4.004-2.611,7.833-5.222,10.966c-2.089,2.785-5.048,4.874-8.181,6.44c-4.004,1.914-8.529,2.61-13.055,2.61
	c-3.481,0-6.962-0.348-10.443-1.566c-3.308-1.044-6.614-2.959-9.051-5.569c-2.611-2.611-4.525-6.093-5.744-9.573
	C-1027.971,1749.114-1028.494,1744.589-1028.668,1739.715z M-956.607,1748.07c0,2.784,0,5.569,0.696,8.181
	c0.348,1.566,1.044,3.133,1.914,4.352c1.045,1.566,2.611,2.784,4.352,3.307c1.393,0.522,3.133,0.87,4.7,0.696
	c1.74,0,3.654-0.348,5.222-1.219c1.74-0.87,3.133-2.263,4.177-3.829c1.219-1.914,1.915-4.003,2.263-6.266
	c0.349-2.089,0.522-4.004,0.522-6.092c0-2.438-0.174-5.048-1.044-7.311c-0.522-1.741-1.219-3.308-2.438-4.525
	c-1.044-1.219-2.437-2.089-4.003-2.611c-1.393-0.522-2.785-0.696-4.178-0.522c-2.089,0-4.178,0.522-5.918,1.567
	c-1.566,0.87-2.785,2.088-3.829,3.48c-1.044,1.567-1.74,3.481-2.089,5.222C-956.433,1744.24-956.607,1746.155-956.607,1748.07z
	 M-956.433,1764.258v20.713h-7.833v-51.174l-0.174-6.788h7.833l0.174,6.963c0.348-0.349,0.522-0.871,0.87-1.219
	c1.393-1.74,3.133-3.481,5.048-4.352c2.611-1.393,5.57-2.089,8.529-1.915c2.263,0,4.352,0.349,6.439,1.219
	c2.438,0.87,4.526,2.611,6.093,4.525c1.74,2.089,2.784,4.352,3.655,6.963c1.044,3.133,1.392,6.439,1.218,9.573
	c0,2.61-0.348,5.048-1.044,7.484c-0.696,2.785-1.915,5.396-3.655,7.484c-1.566,2.089-3.655,4.004-6.092,5.048
	c-2.611,1.219-5.396,1.74-8.181,1.74c-2.263,0-4.525-0.348-6.789-1.218c-2.263-0.87-4.352-2.263-5.743-4.178
	C-956.086,1764.779-956.26,1764.605-956.433,1764.258z M-897.601,1768.957c-1.219,0.174-2.438,0.174-3.655,0.348
	c-0.174,0-0.349,0-0.522,0c-0.696,0.174-1.393,0.174-2.089,0.174c-1.393,0-2.784,0-4.177-0.348
	c-1.045-0.174-2.089-0.522-2.959-1.044c-1.045-0.522-1.915-1.393-2.438-2.263c-0.696-1.045-1.218-2.264-1.393-3.481
	c-0.174-0.522-0.174-1.219-0.174-1.74l0.349-28.023h-7.485v-5.744h7.485l0.174-8.877l7.832-2.437l-0.348,11.313l9.399-0.174v5.918
	h-9.399l-0.174,26.282c0,0.349,0,0.522,0,0.871c0,0.521,0.174,1.044,0.521,1.393c0.349,0.521,0.696,1.044,1.219,1.218
	c0.349,0.349,0.87,0.522,1.219,0.522c0.696,0.174,1.566,0.348,2.437,0.348c0.349,0,0.696,0,1.044,0c0.696,0,1.393,0,1.915-0.174
	c0.174,0,0.522,0,0.696-0.174v6.092H-897.601z M-890.813,1768.957v-41.948h7.832v41.948H-890.813z M-891.683,1708.732h9.398v8.703
	h-9.398V1708.732z M-872.189,1768.957v-60.746h7.659v35.855l15.839-17.058h10.27l-17.58,17.754l18.799,24.194h-10.27l-16.884-22.628
	v22.628H-872.189z M-1689.742,1859.293v-60.05h36.03v7.137l-27.502-0.175v18.973l25.761-0.174v6.963h-25.761v27.152h-8.528V1859.293
	z M-1621.337,1834.229c0-0.521,0-1.044,0-1.74c0-1.566-0.349-3.133-0.871-4.525c-0.521-1.393-1.392-2.785-2.437-3.655
	c-1.044-1.044-2.263-1.74-3.655-2.089c-1.044-0.348-1.914-0.348-2.959-0.348c-1.566,0-3.307,0.174-4.873,0.696
	c-1.219,0.522-2.264,1.218-3.308,2.089c-1.044,1.044-2.089,2.263-2.611,3.655c-0.696,1.393-1.044,3.133-1.044,4.699
	c0,0.348,0,0.87,0,1.218H-1621.337L-1621.337,1834.229z M-1613.331,1839.799h-30.111c0,0.522,0,1.045,0,1.566
	c0,1.566,0.174,2.959,0.521,4.525c0.349,1.741,1.045,3.308,2.089,4.7c0.87,1.218,2.089,2.263,3.481,3.133
	c1.74,0.87,3.655,1.393,5.569,1.393c1.045,0,2.089,0,3.134-0.348c1.044-0.175,1.914-0.522,2.784-1.045
	c1.045-0.696,1.915-1.566,2.611-2.61c0.696-1.045,1.219-2.264,1.393-3.481c0-0.348,0.174-0.696,0.174-1.044h7.833
	c0,0.348,0,0.696-0.175,1.044c-0.348,1.74-0.87,3.481-1.74,5.048c-1.044,1.914-2.437,3.655-4.178,4.873
	c-1.566,1.219-3.48,2.089-5.396,2.611c-2.089,0.522-4.352,0.87-6.44,0.87c-2.61,0-5.222-0.174-7.658-1.044
	c-2.089-0.696-4.004-1.74-5.744-3.133c-1.914-1.741-3.481-4.004-4.352-6.44c-1.393-3.133-1.74-6.614-1.914-9.921
	c-0.175-3.134,0-6.44,0.87-9.573c0.696-2.785,1.914-5.57,3.829-7.833c1.74-2.089,3.829-3.829,6.267-4.874
	c2.784-1.218,5.918-1.74,9.051-1.566c2.263,0,4.525,0.348,6.788,1.044c2.611,0.871,5.048,2.264,6.788,4.352
	c1.566,1.741,2.611,3.829,3.308,6.093c1.044,3.133,1.219,6.266,1.219,9.573C-1613.331,1838.059-1613.331,1838.929-1613.331,1839.799
	z M-1605.845,1859.293v-60.224h7.832v60.224H-1605.845z M-1582.87,1838.232c0,2.785,0,5.569,0.87,8.181
	c0.522,1.74,1.219,3.308,2.437,4.525c1.045,1.219,2.438,2.263,4.004,2.959c1.392,0.522,2.784,0.696,4.177,0.696
	c1.915,0,4.004-0.348,5.57-1.393c1.74-0.87,3.307-2.263,4.352-4.004c1.044-1.566,1.566-3.48,1.914-5.396
	c0.349-1.914,0.522-4.003,0.522-5.918c0-2.61-0.174-5.048-1.044-7.484c-0.522-1.566-1.219-3.308-2.263-4.525
	c-1.045-1.393-2.438-2.263-4.004-2.959s-3.307-1.044-5.048-1.044c-1.74,0-3.655,0.348-5.222,1.218
	c-1.74,0.87-3.133,2.437-4.003,4.178c-1.045,1.74-1.566,3.481-1.915,5.396C-1582.696,1834.403-1582.87,1836.317-1582.87,1838.232z
	 M-1559.198,1823.09v-24.021h7.832v53.61l0.349,6.614h-7.833l-0.174-6.614c-0.174,0.348-0.348,0.696-0.522,1.044
	c-1.044,1.74-2.61,3.133-4.352,4.178c-2.61,1.566-5.743,2.263-8.877,2.263c-2.263,0-4.351-0.348-6.439-1.045
	c-2.263-0.695-4.352-2.088-6.093-3.829c-1.566-1.566-2.959-3.48-3.829-5.569c-1.566-3.481-1.914-7.311-1.914-10.966
	c0-3.308,0.348-6.44,1.393-9.399c0.87-2.437,2.088-4.699,3.654-6.788c1.393-1.915,3.308-3.481,5.396-4.525
	c2.61-1.393,5.569-2.089,8.354-1.915c1.044,0,1.915,0,2.959,0.174c1.393,0.175,2.611,0.522,4.003,1.045
	c1.219,0.522,2.264,1.044,3.308,1.914c1.044,0.871,1.915,1.915,2.611,2.959C-1559.547,1822.567-1559.372,1822.915-1559.198,1823.09z
	 M-1536.222,1837.71c0,2.437,0.174,4.874,0.87,7.137c0.522,1.566,1.044,3.133,2.089,4.352c0.87,1.218,2.263,2.263,3.655,2.784
	c1.393,0.696,2.959,0.871,4.699,0.871c2.089,0,4.352-0.349,6.092-1.393c1.567-0.871,2.96-2.089,3.83-3.655
	c1.044-1.567,1.566-3.308,1.914-5.048c0.522-2.263,0.522-4.525,0.349-6.788c0-2.089-0.174-4.004-0.87-5.919
	c-0.522-1.566-1.393-3.133-2.611-4.177c-1.044-1.045-2.437-1.915-3.829-2.438c-1.566-0.696-3.133-0.87-4.874-0.87
	c-2.089,0-4.177,0.349-5.918,1.393c-1.218,0.696-2.089,1.741-2.959,2.785c-1.044,1.566-1.74,3.481-2.089,5.222
	C-1536.049,1833.881-1536.222,1835.796-1536.222,1837.71z M-1542.14,1862.601h8.354c0,0.696,0.174,1.393,0.349,2.089
	c0.174,0.87,0.348,1.566,0.87,2.263c0.522,0.87,1.044,1.566,1.914,2.089c0.871,0.521,1.741,1.044,2.785,1.218
	c1.393,0.349,2.611,0.522,4.004,0.522c1.392,0,2.784-0.174,4.177-0.522c1.741-0.522,3.308-1.393,4.352-2.784
	c1.045-1.219,1.566-2.611,1.915-4.004c0.521-2.089,0.696-4.178,0.696-6.44c0-1.74,0-3.655,0-5.396
	c-0.174,0.348-0.349,0.696-0.522,1.044c-0.348,0.696-0.87,1.393-1.566,1.915c-0.87,0.87-2.089,1.566-3.133,2.263
	c-1.045,0.522-2.263,1.044-3.308,1.219c-1.74,0.522-3.481,0.696-5.222,0.696c-2.263,0-4.352-0.174-6.44-0.871
	c-2.437-0.87-4.699-2.263-6.266-4.351c-1.74-1.915-2.785-4.352-3.481-6.963c-0.87-2.785-1.219-5.744-1.219-8.703
	c0-2.61,0.349-5.396,1.045-8.006c0.696-2.438,2.089-4.874,3.829-6.789c1.566-1.914,3.655-3.48,5.918-4.525
	c2.611-1.218,5.744-1.74,8.529-1.566c0.696,0,1.566,0,2.263,0.174c1.044,0.174,1.914,0.349,2.959,0.696
	c1.218,0.349,2.263,0.87,3.307,1.393c0.871,0.522,1.567,1.045,2.263,1.741c0.522,0.521,0.871,1.044,1.393,1.566
	c0.174,0.348,0.349,0.522,0.522,0.87l0.174-5.744h7.659l-0.175,7.658v26.109c0,2.089,0,4.003-0.174,6.092
	c0,2.263,0,4.525-0.522,6.614c-0.521,2.437-1.74,4.874-3.48,6.788c-1.393,1.567-3.308,2.611-5.222,3.481
	c-3.134,1.393-6.614,1.915-9.922,1.915c-2.263,0.174-4.699,0-6.962-0.522c-1.915-0.349-3.655-0.87-5.222-1.741
	c-1.393-0.87-2.611-1.914-3.308-3.307c-1.219-1.74-1.74-4.004-2.089-6.092C-1541.967,1863.818-1542.14,1863.297-1542.14,1862.601z
	 M-1494.448,1817.346h7.832l0.174,8.181c0.175-0.349,0.175-0.871,0.349-1.219c0.348-0.87,0.87-1.74,1.393-2.61
	c0.87-1.219,2.089-2.089,3.307-2.959c0.87-0.522,1.741-0.871,2.785-1.219s2.263-0.522,3.307-0.696c1.219-0.174,2.264,0,3.308,0
	c0.349,0,0.522,0,0.87,0v7.659c-0.348,0-0.87-0.175-1.218-0.175c-0.696-0.174-1.393-0.174-2.089-0.174c-1.393,0-2.959,0-4.352,0.349
	c-1.393,0.348-2.785,0.87-3.829,1.74c-1.219,0.87-2.263,2.263-2.785,3.655c-0.696,1.74-0.87,3.655-1.045,5.569
	c0,0.522,0,0.87,0,1.393v22.279h-7.832V1825.7c0-0.522,0-0.87,0-1.393c0-0.87,0-1.914,0-2.784c0-1.045-0.174-2.089-0.174-3.134
	C-1494.448,1818.216-1494.448,1817.867-1494.448,1817.346z M-1459.115,1838.232c0,2.611,0.349,5.048,1.045,7.484
	c0.521,1.915,1.393,3.655,2.785,5.222c1.044,1.393,2.61,2.263,4.177,2.959c1.393,0.522,2.959,0.87,4.525,0.87
	c2.089,0,4.352-0.521,6.093-1.566c1.566-0.87,2.784-2.263,3.829-3.655c1.044-1.566,1.914-3.307,2.263-5.222
	c0.522-2.088,0.696-4.178,0.696-6.266c0-2.438-0.349-4.874-0.87-7.137c-0.522-1.74-1.219-3.481-2.438-4.874
	c-1.044-1.393-2.61-2.437-4.352-3.133c-1.566-0.696-3.133-0.87-4.873-0.87c-1.915,0-4.004,0.348-5.744,1.393
	c-1.566,0.87-2.959,2.263-4.003,3.829c-1.045,1.566-1.915,3.308-2.263,5.222C-1458.94,1834.403-1459.115,1836.317-1459.115,1838.232
	z M-1467.296,1839.276c0-2.959,0.175-5.744,0.871-8.528c0.696-2.785,2.088-5.57,4.177-7.833c1.915-2.263,4.352-4.178,7.311-5.222
	c2.785-1.219,5.918-1.566,9.052-1.393c2.61,0,5.222,0.348,7.658,1.219c2.61,0.87,5.048,2.263,6.962,4.352
	c1.741,1.566,2.959,3.48,3.83,5.743c1.392,3.308,1.914,6.963,1.914,10.618c0,3.307-0.348,6.439-1.393,9.398
	c-0.87,2.611-2.437,5.223-4.352,7.311c-1.914,2.089-4.352,3.655-6.962,4.525c-2.785,1.045-5.918,1.393-8.877,1.393
	c-2.611,0-5.222-0.348-7.484-1.218c-2.438-0.87-4.7-2.263-6.44-4.004c-1.914-1.914-3.481-4.352-4.352-6.962
	C-1466.773,1845.543-1467.296,1842.41-1467.296,1839.276z M-1442.405,1808.469v-8.529h7.484v8.529H-1442.405z M-1450.586,1808.469
	h-7.658v-8.529h7.658V1808.469z M-1419.777,1846.762h8.354c0,0.348,0,0.695,0,1.044c0,0.87,0.174,1.566,0.522,2.263
	c0.348,0.87,1.044,1.566,1.74,2.263s1.566,1.219,2.438,1.393c1.392,0.522,2.784,0.522,4.003,0.522c0.522,0,0.87,0,1.393,0
	c1.044,0,2.089-0.174,3.133-0.522c0.87-0.348,1.566-0.696,2.263-1.393c0.696-0.522,1.219-1.044,1.566-1.74
	c0.522-0.87,0.696-1.741,0.696-2.785c0-0.522-0.174-1.218-0.348-1.74c-0.174-0.696-0.696-1.393-1.219-1.915
	c-0.348-0.348-0.696-0.521-1.044-0.696c-1.219-0.522-2.438-0.87-3.655-1.218c-1.915-0.522-3.829-0.871-5.744-1.393
	c-1.915-0.522-3.829-0.871-5.744-1.566c-1.393-0.522-2.61-1.045-3.829-2.089c-0.87-0.696-1.74-1.741-2.437-2.785
	c-0.871-1.566-1.393-3.481-1.393-5.396c0-1.566,0.174-3.134,0.87-4.525c0.696-1.741,1.915-3.134,3.307-4.352
	c1.393-1.219,2.96-1.915,4.7-2.611c2.437-0.87,5.048-1.218,7.484-1.218c1.915,0,3.829,0.174,5.744,0.522
	c1.914,0.348,3.829,1.044,5.569,2.088c1.219,0.696,2.438,1.741,3.134,2.959c0.87,1.393,1.392,2.959,1.566,4.699
	c0,0.696,0.174,1.393,0.174,2.264h-8.007c0-0.522,0-1.219-0.174-1.741c-0.174-0.696-0.349-1.393-0.522-1.914
	c-0.348-0.696-0.87-1.219-1.566-1.741c-0.696-0.521-1.566-0.87-2.263-1.044c-1.219-0.348-2.611-0.522-4.003-0.522
	c-0.175,0-0.349,0-0.522,0c-0.87,0-1.915,0.174-2.785,0.349c-0.87,0.174-1.566,0.521-2.263,1.044s-1.393,1.044-1.914,1.74
	c-0.522,0.696-0.871,1.741-0.871,2.611c0,0.696,0,1.218,0.349,1.914c0.174,0.696,0.522,1.393,1.219,1.741
	c0.348,0.348,0.87,0.696,1.392,0.87c0.871,0.348,1.741,0.522,2.611,0.87c0.522,0.174,1.219,0.349,1.74,0.522
	c3.134,0.87,6.267,1.393,9.226,2.437c1.914,0.522,3.655,1.219,5.222,2.438c1.044,0.87,2.089,1.74,2.61,2.958
	c1.045,1.567,1.393,3.655,1.393,5.57c0,1.74-0.348,3.481-1.044,5.048c-0.696,1.74-2.089,3.307-3.481,4.525
	c-1.393,1.218-3.307,2.089-5.048,2.61c-2.61,0.871-5.396,1.219-8.181,1.219c-1.74,0-3.655,0-5.396-0.348
	c-1.566-0.349-3.133-0.871-4.699-1.741c-1.741-0.87-3.134-2.089-4.352-3.655c-1.219-1.566-1.915-3.48-2.089-5.396
	C-1419.777,1848.676-1419.777,1847.806-1419.777,1846.762z M-1380.266,1846.762h8.355c0,0.348,0,0.695,0,1.044
	c0,0.87,0.174,1.566,0.521,2.263c0.349,0.87,1.045,1.566,1.741,2.263s1.566,1.219,2.437,1.393c1.219,0.522,2.785,0.522,4.003,0.522
	c0.522,0,0.871,0,1.393,0c1.045,0,2.089-0.174,3.134-0.522c0.87-0.348,1.566-0.696,2.263-1.393c0.696-0.522,1.218-1.044,1.566-1.74
	c0.521-0.87,0.696-1.741,0.696-2.785c0-0.522-0.174-1.218-0.349-1.74c-0.174-0.696-0.696-1.393-1.218-1.915
	c-0.349-0.348-0.696-0.521-1.045-0.696c-1.218-0.522-2.437-0.87-3.655-1.218c-1.914-0.522-3.829-0.871-5.743-1.393
	c-1.915-0.522-3.83-0.871-5.744-1.566c-1.393-0.522-2.611-1.045-3.829-2.089c-1.045-0.696-1.741-1.741-2.438-2.785
	c-0.87-1.566-1.393-3.481-1.393-5.396c0-1.566,0.175-3.134,0.871-4.525c0.696-1.741,1.914-3.134,3.307-4.352
	c1.393-1.219,2.959-1.915,4.699-2.611c2.438-0.87,5.048-1.218,7.485-1.218c1.914,0,3.829,0.174,5.743,0.522
	c1.915,0.348,3.83,1.044,5.57,2.088c1.219,0.696,2.437,1.741,3.133,2.959c0.87,1.393,1.393,2.959,1.566,4.699
	c0,0.696,0.175,1.393,0.175,2.264h-8.007c0-0.522,0-1.219-0.174-1.741c-0.175-0.696-0.349-1.393-0.696-1.914
	c-0.349-0.696-0.871-1.219-1.567-1.741c-0.696-0.521-1.566-0.87-2.263-1.044c-1.218-0.348-2.61-0.522-4.003-0.522
	c-0.174,0-0.349,0-0.522,0c-0.87,0-1.914,0.174-2.785,0.349c-0.695,0.174-1.566,0.521-2.263,1.044s-1.392,1.044-1.914,1.74
	s-0.87,1.741-0.87,2.611c0,0.696,0,1.218,0.348,1.914c0.174,0.696,0.522,1.393,1.219,1.741c0.348,0.348,0.87,0.696,1.393,0.87
	c0.87,0.348,1.74,0.522,2.61,0.87c0.522,0.174,1.219,0.349,1.741,0.522c3.133,0.87,6.266,1.393,9.225,2.437
	c1.915,0.522,3.655,1.219,5.222,2.438c1.045,0.87,1.915,1.74,2.611,2.958c1.044,1.567,1.393,3.655,1.393,5.57
	c0,1.74-0.349,3.481-1.045,5.048c-0.696,1.74-2.089,3.307-3.48,4.525c-1.393,1.218-3.308,2.089-5.048,2.61
	c-2.611,0.871-5.396,1.219-8.181,1.219c-1.741,0-3.655,0-5.396-0.348c-1.566-0.349-3.133-0.871-4.699-1.741
	c-1.74-0.87-3.133-2.089-4.352-3.655s-1.915-3.48-2.089-5.396C-1380.266,1848.676-1380.266,1847.806-1380.266,1846.762z
	 M-1311.339,1834.229c0-0.521,0-1.044,0-1.74c0-1.566-0.349-3.133-0.87-4.525c-0.522-1.393-1.393-2.785-2.438-3.655
	c-1.044-1.044-2.263-1.74-3.655-2.089c-1.044-0.348-2.089-0.348-2.959-0.348c-1.566,0-3.307,0.174-4.873,0.696
	c-1.219,0.522-2.263,1.218-3.308,2.089c-1.044,1.044-1.914,2.263-2.61,3.655s-1.045,3.133-1.045,4.699c0,0.348,0,0.87,0,1.218
	H-1311.339L-1311.339,1834.229z M-1303.332,1839.799h-30.112c0,0.522,0,1.045,0,1.566c0,1.566,0.174,2.959,0.521,4.525
	c0.349,1.741,1.045,3.308,2.089,4.7c0.871,1.218,2.089,2.263,3.481,3.133c1.74,0.87,3.655,1.393,5.744,1.393
	c1.044,0,2.089,0,3.133-0.348c1.044-0.175,1.915-0.522,2.785-1.045c1.044-0.696,1.914-1.566,2.61-2.61
	c0.696-1.045,1.219-2.264,1.393-3.481c0-0.348,0.174-0.696,0.174-1.044h7.833c0,0.348,0,0.696-0.174,1.044
	c-0.174,1.74-0.87,3.481-1.741,5.048c-1.044,1.914-2.437,3.655-4.177,4.873c-1.566,1.219-3.481,2.089-5.396,2.611
	c-2.088,0.522-4.351,0.87-6.439,0.87c-2.611,0-5.222-0.174-7.659-1.044c-2.089-0.696-4.003-1.74-5.743-3.133
	c-1.915-1.741-3.481-4.004-4.526-6.44c-1.392-3.133-1.74-6.614-1.914-9.921c-0.174-3.134,0-6.44,0.87-9.573
	c0.696-2.785,1.915-5.57,3.829-7.833c1.566-2.089,3.829-3.829,6.267-4.874c2.784-1.218,5.918-1.74,9.051-1.566
	c2.263,0,4.525,0.348,6.788,1.044c2.611,0.871,5.048,2.264,6.789,4.352c1.566,1.741,2.61,3.829,3.307,6.093
	c1.044,3.133,1.219,6.266,1.219,9.573C-1303.332,1838.059-1303.332,1838.929-1303.332,1839.799z M-1257.729,1818.912
	c0,2.089,0.349,4.003,1.045,5.744c0.522,1.044,1.044,2.088,1.914,2.959c1.045,1.218,2.438,2.088,3.83,2.61
	c1.392,0.522,2.784,0.696,4.177,0.696c1.741,0,3.308-0.348,4.874-1.044c1.219-0.522,2.263-1.393,3.133-2.438
	c0.87-1.044,1.566-2.263,1.915-3.655c0.521-1.393,0.696-2.958,0.696-4.525c0-1.914-0.175-3.829-1.045-5.744
	c-0.348-1.044-1.044-2.088-1.74-2.958c-0.87-1.219-2.263-2.089-3.481-2.785c-1.393-0.696-3.133-1.044-4.699-1.044
	s-3.133,0.348-4.525,1.044c-1.219,0.522-2.263,1.393-3.134,2.437c-1.044,1.219-1.74,2.611-2.263,4.004
	C-1257.554,1815.778-1257.729,1817.346-1257.729,1818.912z M-1265.735,1845.543h8.877c0,0.696,0,1.393,0.174,2.088
	c0.174,0.697,0.348,1.567,0.696,2.264c0.348,0.87,1.044,1.74,1.74,2.263c0.696,0.696,1.741,1.044,2.611,1.393
	c1.218,0.348,2.61,0.522,3.829,0.522c1.74,0,3.481-0.175,4.873-0.871c1.741-0.87,3.134-2.263,4.178-3.829
	c1.219-1.74,1.741-3.655,2.263-5.569c0.87-3.308,1.219-6.614,1.219-10.096c0-0.696,0-1.393,0-2.089c0-0.521,0-1.044,0-1.566
	c-0.174,0.349-0.522,0.696-0.696,1.045c-1.219,1.74-2.785,3.307-4.699,4.351c-2.264,1.219-4.874,1.915-7.311,1.915
	c-2.089,0-4.352-0.174-6.267-0.87c-2.263-0.696-4.352-1.915-6.092-3.655c-1.74-1.566-3.133-3.655-4.004-5.918
	c-0.87-2.263-1.392-4.874-1.392-7.311c0-2.263,0.174-4.525,0.87-6.614c0.696-2.263,1.74-4.352,3.133-6.266
	c1.566-1.915,3.481-3.308,5.744-4.352c2.61-1.393,5.744-1.915,8.703-1.915c2.263,0,4.525,0.348,6.614,1.044
	c2.437,0.696,4.873,1.915,6.613,3.655c1.915,1.567,3.308,3.655,4.352,5.918c1.393,2.959,2.089,6.267,2.438,9.573
	c0.348,2.438,0.348,4.874,0.348,7.485c0,0.521,0,1.218,0,1.74c0,4.003,0,7.833-0.696,11.836c-0.521,4.004-1.74,7.833-4.003,10.966
	c-1.566,2.437-3.829,4.352-6.267,5.744c-3.133,1.74-6.962,2.437-10.443,2.263c-1.74,0-3.307-0.174-4.873-0.522
	c-2.089-0.348-4.178-1.044-5.918-2.263c-1.741-1.044-3.134-2.437-4.178-4.178c-1.045-1.74-1.74-3.655-1.915-5.743
	C-1265.561,1847.109-1265.561,1846.239-1265.735,1845.543z M-1212.126,1838.232c0,2.611,0.349,5.048,1.045,7.484
	c0.521,1.915,1.393,3.655,2.784,5.222c1.045,1.393,2.611,2.263,4.178,2.959c1.393,0.522,2.959,0.87,4.525,0.87
	c2.089,0,4.352-0.521,6.092-1.566c1.567-0.87,2.785-2.263,3.83-3.655c1.044-1.566,1.914-3.307,2.263-5.222
	c0.521-2.088,0.696-4.178,0.696-6.266c0-2.438-0.349-4.874-0.87-7.137c-0.522-1.74-1.219-3.481-2.438-4.874
	c-1.044-1.393-2.61-2.437-4.352-3.133c-1.566-0.522-3.133-0.87-4.873-0.87c-1.915,0-4.004,0.348-5.744,1.393
	c-1.566,0.87-2.959,2.263-4.003,3.829c-1.045,1.566-1.915,3.308-2.264,5.222
	C-1211.777,1834.403-1212.126,1836.317-1212.126,1838.232z M-1220.306,1839.276c0-2.959,0.174-5.744,0.87-8.528
	c0.696-2.959,2.089-5.57,4.178-7.833c1.915-2.263,4.352-4.178,7.311-5.222c2.785-1.219,5.918-1.566,9.051-1.393
	c2.611,0,5.222,0.348,7.659,1.219c2.61,0.87,5.048,2.263,6.962,4.352c1.741,1.566,2.959,3.654,3.829,5.743
	c1.393,3.308,1.915,6.963,1.915,10.618c0,3.307-0.349,6.439-1.393,9.398c-0.87,2.785-2.437,5.223-4.352,7.311
	c-1.914,2.089-4.352,3.655-6.962,4.525c-2.785,1.045-5.918,1.393-8.877,1.393c-2.611,0-5.222-0.348-7.484-1.218
	c-2.438-0.87-4.7-2.263-6.44-4.004c-1.915-1.914-3.481-4.352-4.352-6.962C-1219.784,1845.543-1220.133,1842.584-1220.306,1839.276z
	 M-1163.737,1838.232c0,2.611,0.348,5.048,1.044,7.484c0.522,1.915,1.393,3.655,2.785,5.222c1.044,1.393,2.611,2.263,4.178,2.959
	c1.393,0.522,2.959,0.87,4.525,0.87c2.089,0,4.352-0.521,6.092-1.566c1.566-0.87,2.785-2.263,3.829-3.655
	c1.045-1.566,1.915-3.307,2.263-5.222c0.522-2.088,0.696-4.178,0.696-6.266c0-2.438-0.348-4.874-0.87-7.137
	c-0.522-1.74-1.219-3.481-2.437-4.874c-1.045-1.393-2.611-2.437-4.352-3.133c-1.566-0.522-3.133-0.87-4.874-0.87
	c-1.914,0-4.003,0.348-5.744,1.393c-1.566,0.87-2.959,2.263-4.003,3.829s-1.914,3.308-2.263,5.222
	C-1163.563,1834.403-1163.737,1836.317-1163.737,1838.232z M-1171.918,1839.276c0-2.959,0.174-5.744,0.87-8.528
	c0.696-2.959,2.089-5.57,4.178-7.833c1.914-2.263,4.352-4.178,7.136-5.222c2.785-1.219,5.918-1.566,9.052-1.393
	c2.61,0,5.222,0.348,7.658,1.219c2.611,0.87,5.048,2.263,6.962,4.352c1.741,1.566,2.959,3.654,3.83,5.743
	c1.393,3.308,1.914,6.963,1.914,10.618c0,3.307-0.348,6.439-1.393,9.398c-0.87,2.785-2.437,5.223-4.352,7.311
	c-1.914,2.089-4.351,3.655-6.962,4.525c-2.785,1.045-5.918,1.393-8.877,1.393c-2.611,0-5.222-0.348-7.484-1.218
	c-2.437-0.87-4.7-2.263-6.44-4.004c-1.914-1.914-3.481-4.352-4.352-6.962C-1171.395,1845.543-1171.918,1842.584-1171.918,1839.276z
	 M-1067.135,1837.885l16.361,21.409h-10.27l-12.01-16.71l-11.836,16.71h-9.226l16.536-21.932l-15.666-20.017h10.27l11.141,15.839
	l11.661-15.839h9.226L-1067.135,1837.885z M-1015.265,1845.543h8.703c0,0.522,0,0.87,0.174,1.393
	c0.174,0.696,0.349,1.393,0.522,2.088c0.522,1.045,1.218,1.915,2.089,2.611c0.87,0.696,1.74,1.219,2.61,1.566
	c1.045,0.522,2.263,0.696,3.481,0.696c1.393,0.174,2.61,0,4.003-0.348c1.567-0.522,3.134-1.219,4.352-2.437
	c1.219-1.219,2.089-2.611,2.611-4.178c0.696-1.915,1.044-4.004,1.044-6.092c0-1.741-0.174-3.308-0.696-5.048
	c-0.522-1.567-1.219-2.959-2.263-4.178c-0.87-1.044-2.089-1.915-3.481-2.611c-1.566-0.696-3.48-1.044-5.222-0.87
	c-0.87,0-1.566,0.174-2.263,0.349c-1.044,0.348-2.263,0.696-3.133,1.218c-0.87,0.522-1.74,1.393-2.437,2.263
	c-0.522,0.87-1.045,1.741-1.393,2.611c-0.174,0.522-0.349,1.044-0.522,1.393h-7.658l1.566-34.464h32.549v6.788h-25.238
	l-1.045,18.799c0.696-0.696,1.393-1.393,2.089-1.915c1.393-1.044,2.959-1.914,4.525-2.61c1.741-0.696,3.83-1.045,5.744-0.87
	c2.089,0,4.352,0.348,6.267,1.218c2.088,0.87,4.177,2.089,5.743,3.829c1.567,1.566,2.611,3.655,3.481,5.744
	c1.044,2.611,1.566,5.396,1.393,8.355c0,2.61-0.349,5.222-1.219,7.484s-2.263,4.525-4.003,6.266
	c-1.74,1.915-4.004,3.481-6.267,4.352c-2.784,1.219-5.743,1.74-8.877,1.74c-2.088,0-4.003-0.174-5.918-0.695
	c-1.74-0.522-3.48-1.219-5.048-2.264c-1.392-0.87-2.784-2.088-3.829-3.48c-1.393-1.915-2.263-4.004-2.61-6.267
	C-1015.092,1847.283-1015.092,1846.413-1015.265,1845.543z M-962.177,1838.232c0,2.611,0.349,5.048,1.044,7.484
	c0.522,1.915,1.393,3.655,2.785,5.222c1.045,1.393,2.611,2.263,4.178,2.959c1.393,0.522,2.959,0.87,4.525,0.87
	c2.089,0,4.178-0.521,6.092-1.566c1.566-0.87,2.785-2.263,3.829-3.655c1.045-1.566,1.915-3.307,2.264-5.222
	c0.521-2.088,0.696-4.178,0.696-6.266c0-2.438-0.349-4.874-0.871-7.137c-0.521-1.74-1.218-3.481-2.437-4.874
	c-1.044-1.393-2.611-2.437-4.352-3.133c-1.566-0.522-3.133-0.87-4.873-0.87c-1.915,0-4.004,0.348-5.744,1.393
	c-1.566,0.87-2.959,2.263-4.004,3.829c-1.044,1.566-1.914,3.308-2.263,5.222C-962.004,1834.403-962.004,1836.317-962.177,1838.232z
	 M-970.358,1839.276c0-2.959,0.174-5.744,0.87-8.528c0.696-2.959,2.089-5.57,4.178-7.833c1.915-2.263,4.352-4.178,7.311-5.222
	c2.785-1.219,5.918-1.566,9.051-1.393c2.611,0,5.222,0.348,7.659,1.219c2.61,0.87,5.048,2.263,6.962,4.352
	c1.74,1.566,2.959,3.654,3.829,5.743c1.393,3.308,1.915,6.963,1.915,10.618c0,3.307-0.349,6.439-1.393,9.398
	c-0.87,2.785-2.437,5.223-4.352,7.311c-1.914,2.089-4.352,3.655-6.962,4.525c-2.785,1.045-5.918,1.393-8.877,1.393
	c-2.611,0-5.222-0.348-7.484-1.218c-2.438-0.87-4.7-2.263-6.44-4.004c-1.915-1.914-3.481-4.352-4.352-6.962
	C-969.836,1845.543-970.184,1842.584-970.358,1839.276z M-913.789,1838.232c0,2.611,0.348,5.048,1.044,7.484
	c0.522,1.915,1.393,3.655,2.785,5.222c1.044,1.393,2.61,2.263,4.178,2.959c1.392,0.522,2.959,0.87,4.525,0.87
	c2.089,0,4.177-0.521,6.092-1.566c1.566-0.87,2.785-2.263,3.829-3.655c1.045-1.566,1.915-3.307,2.263-5.222
	c0.522-2.088,0.696-4.178,0.696-6.266c0-2.438-0.348-4.874-0.87-7.137c-0.522-1.74-1.219-3.481-2.437-4.874
	c-1.045-1.393-2.611-2.437-4.352-3.133c-1.566-0.522-3.133-0.87-4.874-0.87c-1.914,0-4.003,0.348-5.744,1.393
	c-1.566,0.87-2.959,2.263-4.003,3.829s-1.915,3.308-2.263,5.222C-913.615,1834.403-913.789,1836.317-913.789,1838.232z
	 M-921.969,1839.276c0-2.959,0.174-5.744,0.87-8.528c0.696-2.959,2.089-5.57,4.178-7.833c1.914-2.263,4.351-4.178,7.311-5.222
	c2.784-1.219,5.918-1.566,9.051-1.393c2.61,0,5.222,0.348,7.658,1.219c2.611,0.87,5.048,2.263,6.963,4.352
	c1.74,1.566,2.959,3.654,3.829,5.743c1.393,3.308,1.914,6.963,1.914,10.618c0,3.307-0.348,6.439-1.392,9.398
	c-0.871,2.785-2.438,5.223-4.352,7.311c-1.915,2.089-4.352,3.655-6.963,4.525c-2.785,1.045-5.918,1.393-8.877,1.393
	c-2.61,0-5.222-0.348-7.484-1.218c-2.437-0.87-4.699-2.263-6.44-4.004c-1.914-1.914-3.48-4.352-4.352-6.962
	C-921.448,1845.543-921.969,1842.584-921.969,1839.276z M-839.118,1822.915l-0.174-5.569h7.832v6.092
	c0.522-0.696,1.045-1.393,1.567-2.089c1.392-1.566,2.959-2.959,4.873-3.829c2.089-1.044,4.525-1.393,6.788-1.219
	c0.871,0,1.741,0,2.611,0.175c1.393,0.174,2.959,0.521,4.352,1.044c1.044,0.348,2.089,1.044,2.959,1.74
	c1.219,0.871,2.263,1.915,2.959,3.308c0.348,0.522,0.696,1.044,0.87,1.74c0.522-0.87,1.044-1.566,1.74-2.437
	c1.219-1.566,2.959-2.959,4.7-3.829c2.263-1.219,4.873-1.741,7.484-1.741c1.915,0,3.829,0.175,5.57,0.696
	c1.392,0.349,2.784,1.045,4.003,1.741c1.566,1.044,3.133,2.437,4.003,4.003c1.045,1.567,1.566,3.481,1.741,5.396
	c0.174,1.044,0.174,1.914,0.174,2.959v28.197h-8.007v-26.806c0-0.521,0-1.218,0-1.914c0-1.045-0.174-1.915-0.696-2.785
	c-0.348-0.87-0.87-1.915-1.566-2.611c-0.87-0.87-1.915-1.566-3.133-2.088c-1.393-0.522-2.785-0.87-4.178-0.87
	c-1.044,0-2.263,0.174-3.307,0.521c-1.219,0.349-2.611,1.045-3.481,1.915c-0.87,0.696-1.566,1.566-2.089,2.437
	c-0.696,1.219-1.219,2.611-1.393,4.004c-0.348,1.566-0.348,2.959-0.348,4.525v23.498h-7.833v-27.676c0-0.522,0-0.87,0-1.393
	c-0.174-0.87-0.348-1.914-0.696-2.785c-0.522-1.218-1.219-2.263-2.263-3.133c-0.696-0.522-1.566-1.044-2.437-1.393
	c-1.045-0.348-2.263-0.696-3.481-0.696s-2.263,0.174-3.308,0.522c-1.74,0.522-3.307,1.218-4.525,2.437
	c-1.044,0.87-1.914,2.089-2.437,3.481s-0.87,2.959-0.87,4.352c0,0.87,0,1.566,0,2.263v23.846h-7.833L-839.118,1822.915
	L-839.118,1822.915z M-764.795,1822.915l-0.175-5.569h7.833v6.092c0.522-0.696,1.045-1.393,1.566-2.089
	c1.393-1.566,2.959-2.959,4.874-3.829c2.089-1.044,4.525-1.393,6.788-1.219c0.87,0,1.74,0,2.611,0.175
	c1.392,0.174,2.959,0.521,4.351,1.044c1.045,0.348,2.089,1.044,2.959,1.74c1.219,0.871,2.264,1.915,2.96,3.308
	c0.348,0.522,0.695,1.044,0.87,1.74c0.521-0.87,1.044-1.566,1.74-2.437c1.219-1.566,2.959-2.959,4.699-3.829
	c2.263-1.219,5.048-1.741,7.659-1.741c1.914,0,3.829,0.175,5.569,0.696c1.393,0.349,2.785,1.045,4.004,1.741
	c1.566,1.044,3.133,2.437,4.003,4.003c1.045,1.567,1.566,3.481,1.741,5.396c0.174,1.044,0.174,1.914,0.174,2.959v28.197h-8.007
	v-26.806c0-0.521,0-1.218,0-1.914c0-1.045-0.174-1.915-0.696-2.785c-0.348-0.87-0.87-1.915-1.566-2.611
	c-0.87-0.87-1.915-1.566-3.133-2.088c-1.393-0.522-2.785-0.87-4.178-0.87c-1.044,0-2.263,0.174-3.307,0.521
	c-1.219,0.349-2.611,1.045-3.481,1.915c-0.87,0.696-1.566,1.566-2.089,2.437c-0.696,1.219-1.219,2.611-1.393,4.004
	c-0.348,1.566-0.348,2.959-0.348,4.525v23.498h-7.833v-27.676c0-0.522,0-0.87,0-1.393c-0.174-0.87-0.349-1.914-0.696-2.785
	c-0.522-1.218-1.219-2.263-2.263-3.133c-0.696-0.522-1.566-1.044-2.437-1.393c-1.045-0.348-2.263-0.696-3.481-0.696
	c-1.044,0-2.263,0.174-3.307,0.522c-1.741,0.522-3.308,1.218-4.526,2.437c-1.044,0.87-1.914,2.089-2.437,3.481
	s-0.87,2.959-0.87,4.352c0,0.87,0,1.566,0,2.263v23.846h-7.833L-764.795,1822.915L-764.795,1822.915z M-1689.742,2040.141v-60.051
	h36.03v7.137l-27.502-0.174v18.973h25.761v6.962h-25.761v27.153H-1689.742z M-1643.094,2019.079c0,2.611,0.349,5.048,1.044,7.484
	c0.522,1.915,1.393,3.655,2.785,5.222c1.045,1.393,2.611,2.264,4.178,2.959c1.393,0.522,2.959,0.871,4.525,0.871
	c2.089,0,4.352-0.522,6.092-1.567c1.566-0.87,2.785-2.263,3.829-3.655c1.045-1.566,1.915-3.307,2.264-5.222
	c0.521-2.088,0.695-4.177,0.695-6.266c0-2.437-0.348-4.874-0.87-7.137c-0.521-1.74-1.218-3.48-2.437-4.873s-2.611-2.611-4.352-3.134
	c-1.566-0.696-3.133-0.87-4.874-0.87c-1.914,0-4.003,0.349-5.743,1.393c-1.566,0.87-2.959,2.263-4.004,3.829
	c-1.044,1.566-1.914,3.308-2.263,5.222C-1642.921,2015.25-1643.094,2017.165-1643.094,2019.079z M-1651.275,2020.123
	c0-2.958,0.174-5.743,0.87-8.528s2.089-5.569,4.178-7.833c1.914-2.263,4.352-4.177,7.136-5.222c2.785-1.218,5.919-1.566,9.052-1.393
	c2.61,0,5.222,0.349,7.658,1.219c2.611,0.87,5.048,2.263,6.963,4.352c1.74,1.566,2.959,3.655,3.829,5.744
	c1.393,3.307,2.089,6.962,1.914,10.617c0,3.133-0.348,6.44-1.392,9.399c-0.871,2.785-2.438,5.222-4.352,7.311
	c-1.915,2.088-4.352,3.654-6.963,4.525c-2.785,1.044-5.918,1.393-8.877,1.393c-2.61,0-5.222-0.349-7.484-1.219
	c-2.437-0.87-4.699-2.263-6.44-4.004c-1.914-1.914-3.48-4.351-4.352-6.962C-1650.753,2026.563-1651.101,2023.431-1651.275,2020.123z
	 M-1602.016,2040.141v-60.225h7.832v60.225H-1602.016z M-1583.219,2040.141v-41.948h7.833v41.948H-1583.219z M-1584.089,1980.09
	h9.399v8.529h-9.399V1980.09z M-1537.963,2015.25c0-0.522,0-1.045,0-1.74c0-1.567-0.349-3.134-0.871-4.526
	c-0.521-1.393-1.393-2.784-2.437-3.655c-1.044-1.044-2.263-1.74-3.655-2.088c-1.044-0.349-2.089-0.349-2.959-0.349
	c-1.566,0-3.307,0.175-4.874,0.696c-1.218,0.522-2.263,1.219-3.307,2.089c-1.044,1.044-1.915,2.263-2.611,3.655
	s-1.044,3.133-1.044,4.699c0,0.349,0,0.871,0,1.219H-1537.963L-1537.963,2015.25z M-1529.957,2020.646h-30.111
	c0,0.522,0,1.045,0,1.567c0,1.566,0.174,2.958,0.521,4.525c0.349,1.74,1.045,3.307,2.089,4.699c0.87,1.218,2.089,2.263,3.481,3.133
	c1.74,1.045,3.655,1.393,5.744,1.393c1.044,0,2.089,0,3.133-0.348c1.044-0.174,1.914-0.522,2.785-1.045
	c1.044-0.696,1.914-1.566,2.61-2.784c0.696-1.045,1.219-2.263,1.393-3.481c0-0.348,0.174-0.696,0.174-1.044h7.833
	c0,0.348,0,0.696-0.174,1.044c-0.175,1.74-0.871,3.481-1.741,5.048c-1.044,1.914-2.437,3.655-4.177,4.874
	c-1.567,1.218-3.481,2.088-5.396,2.61c-2.089,0.696-4.352,0.87-6.439,0.87c-2.611,0-5.223-0.348-7.659-1.044
	c-2.089-0.696-4.003-1.741-5.744-3.134c-1.914-1.74-3.48-4.003-4.525-6.439c-1.393-3.133-1.74-6.614-1.914-9.922
	c-0.174-3.133,0-6.439,0.87-9.398c0.696-2.785,1.914-5.57,3.829-7.833c1.566-2.089,3.829-3.829,6.267-4.874
	c2.784-1.218,5.918-1.74,9.051-1.566c2.263,0,4.525,0.349,6.788,1.045c2.611,0.87,5.048,2.263,6.788,4.352
	c1.567,1.74,2.611,3.829,3.308,6.092c1.044,3.133,1.219,6.266,1.219,9.573C-1529.957,2018.905-1529.957,2019.775-1529.957,2020.646z
	 M-1513.943,2040.141h-7.833v-37.075l-0.174-5.222h7.833v7.137c0.348-0.696,0.696-1.219,1.044-1.915
	c1.219-1.74,3.133-3.307,5.048-4.177c2.263-1.045,4.7-1.393,7.137-1.393c1.74,0,3.655,0.174,5.222,0.696
	c1.566,0.348,2.959,1.044,4.352,1.914c1.74,1.219,3.48,2.785,4.352,4.7c0.87,1.566,1.393,3.48,1.393,5.396c0,0.522,0,1.044,0,1.393
	v28.546h-8.007v-27.502c0-0.348,0-0.87,0-1.219c0-0.87-0.349-1.914-0.696-2.784c-0.349-1.045-1.045-2.089-2.089-2.959
	c-0.87-0.696-1.74-1.219-2.785-1.566c-1.393-0.522-2.61-0.696-4.003-0.696c-1.219,0-2.438,0.174-3.481,0.521
	c-1.044,0.349-2.089,0.871-3.133,1.567c-1.045,0.87-2.089,1.914-2.611,2.959c-0.87,1.393-1.218,2.784-1.393,4.351
	c-0.174,1.045-0.174,2.089-0.348,3.134v24.194H-1513.943z M-1475.302,2040.141v-60.225h7.833v60.225H-1475.302z M-1452.501,2019.079
	c0,2.611,0.349,5.048,1.045,7.484c0.522,1.915,1.393,3.655,2.785,5.222c1.044,1.393,2.61,2.264,4.177,2.959
	c1.393,0.522,2.959,0.871,4.525,0.871c2.089,0,4.352-0.522,6.093-1.567c1.566-0.87,2.784-2.263,3.829-3.655
	c1.044-1.566,1.914-3.307,2.263-5.222c0.522-2.088,0.696-4.177,0.696-6.266c0-2.437-0.349-4.874-0.87-7.137
	c-0.522-1.74-1.219-3.48-2.438-4.873c-1.044-1.393-2.61-2.611-4.352-3.134c-1.566-0.696-3.133-0.87-4.873-0.87
	c-1.915,0-4.004,0.349-5.57,1.393c-1.566,0.87-2.959,2.263-4.003,3.829s-1.915,3.308-2.263,5.222
	C-1452.326,2015.25-1452.501,2017.165-1452.501,2019.079z M-1460.681,2020.123c0-2.958,0.175-5.743,0.871-8.528
	c0.87-2.785,2.263-5.569,4.177-7.833c1.915-2.263,4.352-4.177,7.311-5.222c2.785-1.218,5.918-1.566,9.051-1.393
	c2.611,0,5.223,0.349,7.659,1.219c2.61,0.87,5.048,2.263,6.962,4.352c1.566,1.566,2.959,3.655,3.83,5.744
	c1.392,3.307,1.914,6.962,1.914,10.617c0,3.133-0.348,6.44-1.393,9.399c-0.87,2.785-2.437,5.222-4.525,7.311
	c-1.914,2.088-4.352,3.654-6.962,4.525c-2.785,1.044-5.918,1.393-8.877,1.393c-2.611,0-5.048-0.349-7.484-1.219
	c-2.438-0.87-4.7-2.263-6.44-4.004c-2.089-1.914-3.481-4.351-4.352-6.962C-1460.159,2026.563-1460.681,2023.431-1460.681,2020.123z
	 M-1404.286,2018.557c0,2.438,0.174,4.874,0.87,7.137c0.522,1.566,1.044,3.133,2.089,4.352c0.87,1.219,2.263,2.263,3.655,2.785
	c1.393,0.696,2.959,0.87,4.699,0.87c2.089,0,4.352-0.349,6.092-1.393c1.567-0.87,2.959-2.089,3.83-3.655
	c1.044-1.566,1.566-3.308,1.914-5.048c0.522-2.263,0.522-4.525,0.349-6.788c0-2.089-0.175-4.004-0.871-5.918
	c-0.521-1.566-1.392-3.134-2.61-4.178c-1.044-1.044-2.437-1.914-3.829-2.437c-1.567-0.522-3.134-0.87-4.874-0.87
	c-2.089,0-4.178,0.348-5.744,1.393c-1.218,0.695-2.263,1.74-2.959,2.784c-1.044,1.566-1.74,3.308-2.089,5.222
	C-1404.112,2014.728-1404.286,2016.643-1404.286,2018.557z M-1410.204,2043.447h8.354c0,0.696,0.174,1.393,0.349,2.089
	c0.174,0.87,0.348,1.566,0.87,2.263c0.521,0.87,1.044,1.566,1.914,2.089s1.741,1.044,2.785,1.218
	c1.393,0.349,2.611,0.522,4.003,0.522c1.393,0,2.785-0.174,4.178-0.522c1.741-0.521,3.308-1.393,4.352-2.784
	c1.044-1.219,1.566-2.611,1.915-4.004c0.521-2.089,0.696-4.177,0.696-6.44c0-1.74,0-3.654,0-5.396
	c-0.175,0.349-0.349,0.696-0.522,1.045c-0.349,0.696-0.87,1.393-1.566,1.914c-0.87,0.87-2.089,1.566-3.133,2.263
	c-1.045,0.522-2.264,1.045-3.308,1.393c-1.74,0.522-3.481,0.696-5.222,0.522c-2.263,0-4.352-0.174-6.44-1.044
	c-2.437-0.871-4.699-2.264-6.266-4.352c-1.741-1.915-2.785-4.352-3.481-6.963c-0.87-2.784-1.219-5.744-1.219-8.702
	c0-2.785,0.349-5.396,1.045-8.007c0.696-2.438,2.089-4.874,3.829-6.789c1.566-1.914,3.655-3.48,5.918-4.525
	c2.611-1.218,5.744-1.74,8.529-1.566c0.696,0,1.566,0,2.263,0.174c1.044,0.175,1.914,0.349,2.959,0.697
	c1.218,0.348,2.263,0.87,3.307,1.566c0.87,0.521,1.566,1.044,2.263,1.74c0.522,0.522,0.87,1.044,1.393,1.566
	c0.174,0.174,0.349,0.522,0.522,0.696l0.174-5.744h7.658l-0.174,7.659v26.108c0,2.089,0,4.004-0.174,6.092
	c0,2.263,0,4.352-0.522,6.614c-0.521,2.438-1.74,4.874-3.48,6.789c-1.393,1.566-3.308,2.61-5.222,3.48
	c-3.134,1.393-6.614,1.915-9.922,1.915c-2.263,0-4.699,0-6.962-0.522c-1.915-0.348-3.655-0.87-5.222-1.914
	c-1.393-0.696-2.611-1.915-3.308-3.308c-1.219-1.74-1.74-3.829-2.089-5.918C-1410.204,2044.84-1410.204,2044.144-1410.204,2043.447z
	 M-1357.986,2019.079c0,2.611,0.348,5.048,1.044,7.484c0.522,1.915,1.393,3.655,2.61,5.222c1.045,1.393,2.611,2.264,4.178,2.959
	c1.393,0.522,2.959,0.871,4.525,0.871c2.089,0,4.352-0.522,6.093-1.567c1.566-0.87,2.784-2.263,3.829-3.655
	c1.044-1.566,1.914-3.307,2.263-5.222c0.521-2.088,0.696-4.177,0.696-6.266c0-2.437-0.349-4.874-0.87-7.137
	c-0.522-1.74-1.219-3.48-2.438-4.873c-1.044-1.393-2.61-2.611-4.352-3.134c-1.566-0.696-3.133-0.87-4.873-0.87
	c-1.915,0-4.004,0.349-5.57,1.393c-1.566,0.87-2.959,2.263-4.003,3.829c-1.045,1.566-1.915,3.308-2.263,5.222
	C-1357.638,2015.25-1357.986,2017.165-1357.986,2019.079z M-1366.168,2020.123c0-2.958,0.175-5.743,0.871-8.528
	c0.87-2.785,2.263-5.569,4.177-7.833c1.915-2.263,4.352-4.177,7.311-5.222c2.785-1.218,5.918-1.566,9.052-1.393
	c2.61,0,5.222,0.349,7.658,1.219c2.611,0.87,5.048,2.263,6.962,4.352c1.567,1.566,2.959,3.655,3.83,5.744
	c1.393,3.307,2.089,6.962,1.914,10.617c0,3.133-0.348,6.44-1.393,9.399c-0.87,2.785-2.437,5.222-4.525,7.311
	c-1.914,2.088-4.352,3.654-6.962,4.525c-2.785,1.044-5.918,1.393-8.877,1.393c-2.611,0-5.048-0.349-7.484-1.219
	c-2.438-0.87-4.7-2.263-6.44-4.004c-2.089-1.914-3.481-4.351-4.352-6.962C-1365.645,2026.563-1365.993,2023.431-1366.168,2020.123z
	 M-1263.472,2026.563h8.702c0,0.522,0,0.87,0.175,1.393c0.174,0.696,0.348,1.393,0.521,2.089c0.522,1.044,1.219,1.914,2.263,2.61
	c0.871,0.696,1.741,1.219,2.611,1.567c1.044,0.521,2.263,0.696,3.481,0.696c1.393,0,2.61,0,4.003-0.522
	c1.566-0.522,3.133-1.219,4.352-2.438c1.219-1.218,2.089-2.61,2.611-4.177c0.695-1.915,1.218-4.004,1.044-6.093
	c0-1.74-0.174-3.307-0.696-5.047c-0.522-1.567-1.219-2.959-2.263-4.178c-0.87-1.045-2.089-2.089-3.481-2.611
	c-1.566-0.696-3.481-1.044-5.222-0.87c-0.87,0-1.566,0.174-2.263,0.349c-1.044,0.174-2.263,0.695-3.133,1.218
	s-1.741,1.393-2.438,2.263c-0.521,0.871-1.044,1.741-1.392,2.611c-0.175,0.522-0.349,0.87-0.522,1.393h-7.659l1.567-34.464h32.549
	v6.788h-25.238l-1.045,18.799c0.696-0.696,1.393-1.393,2.089-1.915c1.393-1.044,2.959-1.914,4.525-2.61
	c1.915-0.696,3.829-1.045,5.744-0.871c2.089,0,4.352,0.349,6.266,1.219c2.263,0.87,4.178,2.089,5.744,3.829
	c1.566,1.566,2.785,3.655,3.481,5.744c1.044,2.611,1.566,5.396,1.393,8.354c0,2.611-0.349,5.223-1.219,7.485
	s-2.263,4.525-4.003,6.266c-1.741,1.915-4.004,3.481-6.267,4.525c-2.785,1.219-5.744,1.741-8.877,1.741
	c-2.089,0-4.003-0.175-5.918-0.696c-1.74-0.522-3.481-1.219-5.048-2.263c-1.393-0.871-2.785-2.089-3.829-3.481
	c-1.393-1.741-2.263-4.004-2.611-6.267C-1263.472,2028.13-1263.472,2027.26-1263.472,2026.563z M-1220.133,2040.141v-7.659
	c0.696-0.696,1.393-1.393,2.089-1.914c2.785-2.785,5.57-5.396,8.355-8.181c1.566-1.566,3.133-3.134,4.699-4.7
	s3.133-3.307,4.699-4.873c1.393-1.567,2.785-3.134,4.004-4.874c0.87-1.219,1.74-2.437,2.61-3.829
	c0.522-1.044,1.219-2.089,1.393-3.308c0.349-1.218,0.522-2.437,0.522-3.654c0-1.219-0.174-2.264-0.522-3.481
	c-0.348-1.219-1.044-2.263-1.914-3.134c-0.696-0.87-1.741-1.393-2.785-1.74c-1.393-0.522-2.785-0.696-4.178-0.696
	c-1.044,0-2.089,0.174-3.133,0.349c-1.393,0.348-2.611,1.044-3.481,2.088c-0.521,0.522-1.044,1.219-1.393,2.089
	c-0.696,1.393-1.044,2.785-1.218,4.352c0,0.522,0,0.87,0,1.393h-8.703c0-0.696,0.174-1.393,0.174-1.915
	c0.174-1.74,0.522-3.655,1.219-5.222c0.87-2.089,2.263-4.003,4.003-5.396c1.566-1.393,3.308-2.437,5.222-3.133
	c2.263-0.871,4.7-1.219,7.137-1.219c2.263,0,4.525,0.174,6.614,0.87c2.089,0.522,4.178,1.566,5.744,2.959
	c1.566,1.219,2.959,2.959,3.829,4.874c1.044,2.088,1.74,4.525,1.74,6.962c0.174,3.134-0.521,6.267-1.914,9.051
	c-1.566,3.308-4.004,6.267-6.614,8.877c-0.696,0.696-1.219,1.393-1.915,2.089c-2.263,2.438-4.525,4.874-6.788,7.137
	c-2.437,2.437-5.048,4.873-7.484,7.311c-0.87,0.87-1.741,1.566-2.438,2.437h27.502v6.614L-1220.133,2040.141L-1220.133,2040.141z
	 M-1168.089,2022.561c0,1.74,0.348,3.481,0.87,5.048c0.522,1.393,1.393,2.959,2.437,4.003c1.045,1.045,2.264,1.915,3.481,2.438
	c1.219,0.521,2.611,0.87,3.829,0.87c1.741,0,3.481-0.349,5.048-1.045c1.219-0.521,2.438-1.392,3.308-2.437
	c1.219-1.393,2.089-3.133,2.61-4.874c0.349-1.393,0.522-2.958,0.522-4.351c0-2.089-0.174-4.178-0.87-6.093
	c-0.522-1.393-1.219-2.784-2.263-3.829c-1.045-1.218-2.611-2.263-4.004-2.61c-1.218-0.522-2.61-0.696-4.003-0.522
	c-1.74,0-3.655,0.348-5.222,1.393c-1.219,0.522-2.089,1.393-2.959,2.437c-1.044,1.219-1.915,2.785-2.263,4.525
	C-1167.915,2019.079-1168.089,2020.82-1168.089,2022.561z M-1138.499,1996.104h-8.529c0-0.522,0-0.87,0-1.393
	c0-0.696-0.348-1.393-0.521-2.089c-0.349-1.044-1.045-2.089-1.915-2.959c-0.521-0.522-1.218-0.87-1.914-1.218
	c-1.219-0.522-2.611-0.871-3.83-0.871c-1.392,0-2.959,0.175-4.351,0.697c-1.741,0.695-3.308,1.74-4.526,3.307
	c-1.392,1.566-2.088,3.655-2.61,5.744c-0.87,3.481-1.393,7.137-1.74,10.791c0,0.696,0,1.219-0.175,1.915
	c0-0.174,0.175-0.174,0.175-0.348c1.218-2.089,2.959-3.829,5.222-5.048c2.437-1.393,5.222-2.089,8.181-1.915
	c2.089,0,4.003,0.349,5.918,0.87c2.263,0.696,4.525,2.089,6.266,3.829c1.566,1.567,2.785,3.481,3.655,5.57
	c1.045,2.437,1.393,5.048,1.393,7.658c0,0.349,0,0.522,0,0.87c0,2.438-0.348,5.048-1.219,7.485
	c-0.696,2.263-2.088,4.525-3.829,6.439c-1.566,1.741-3.307,3.134-5.396,4.178c-2.785,1.393-5.744,2.089-8.877,2.089
	c-2.959,0-5.918-0.522-8.703-1.74c-2.61-1.219-5.048-3.134-6.614-5.57c-1.566-2.089-2.437-4.525-3.133-6.962
	c-1.219-4.526-1.566-9.226-1.393-13.925c0-4.178,0.522-8.355,1.219-12.532c0.87-4.178,2.089-8.181,4.525-11.662
	c1.74-2.61,4.003-4.699,6.614-6.092c2.785-1.393,6.092-2.089,9.225-1.915c2.089,0,4.178,0.349,6.093,1.045
	c1.74,0.521,3.307,1.218,4.699,2.263c1.566,1.044,2.959,2.437,3.829,4.003c1.045,1.741,1.74,3.829,1.74,5.918
	C-1138.673,1995.059-1138.499,1995.581-1138.499,1996.104z M-1079.319,2018.73l16.362,21.41h-10.27l-12.011-16.884l-11.836,16.884
	h-9.225l16.535-21.932l-15.665-20.017h10.27l11.313,15.839l11.662-15.839h9.226L-1079.319,2018.73z M-1022.576,2020.82h19.843
	l0.349-30.809L-1022.576,2020.82z M-994.9,2040.141h-8.007v-12.532h-26.108v-9.922l25.064-36.204h9.051v39.163h8.354v6.789h-8.354
	V2040.141L-994.9,2040.141z M-982.717,2025.346h8.877c0,0.348,0,0.696,0,1.044c0,1.044,0.349,2.089,0.696,3.133
	c0.349,1.045,1.045,1.915,1.915,2.611c0.87,0.87,1.914,1.393,2.959,1.914c1.566,0.522,3.133,0.871,4.699,0.871
	c1.393,0,2.785,0,4.178-0.349c1.393-0.348,2.785-1.044,4.003-2.088c1.219-0.871,2.089-2.089,2.785-3.481s0.87-2.959,0.87-4.352
	s-0.174-2.785-0.696-4.004c-0.521-1.393-1.393-2.784-2.61-3.829c-1.045-1.044-2.438-1.74-3.829-2.088
	c-2.089-0.697-4.178-0.697-6.44-0.697c-0.87,0-1.915,0-2.785,0v-6.788c0.87,0,1.74,0,2.785,0c1.74,0,3.307-0.348,4.873-0.696
	c1.567-0.348,3.134-1.044,4.352-2.088c1.045-0.871,1.915-2.089,2.438-3.308c0.521-1.393,0.87-2.785,0.87-4.178
	c0-1.044-0.174-2.089-0.522-3.133c-0.348-1.219-1.044-2.437-1.914-3.308c-0.871-0.87-2.089-1.566-3.134-1.914
	c-1.393-0.522-2.959-0.696-4.525-0.696c-1.218,0-2.263,0.174-3.48,0.348c-1.219,0.349-2.438,0.87-3.481,1.566
	c-0.87,0.522-1.566,1.219-2.089,2.089c-0.696,1.045-1.219,2.263-1.566,3.481c0,0.522-0.174,0.87-0.174,1.393h-8.529
	c0-0.522,0-0.87,0.174-1.393c0.174-1.741,0.522-3.481,1.219-4.874c0.87-1.914,2.089-3.48,3.655-4.873s3.307-2.264,5.048-3.134
	c2.61-1.044,5.569-1.566,8.354-1.393c2.089,0,4.352,0.174,6.44,0.696c2.437,0.522,4.699,1.566,6.614,2.959
	c1.74,1.219,3.133,2.785,4.003,4.699c1.219,2.089,1.915,4.525,1.915,6.963c0,1.393-0.175,2.785-0.522,4.178
	c-0.349,1.566-1.044,2.959-2.089,4.177c-1.044,1.393-2.263,2.438-3.481,3.308c-1.393,0.87-2.959,1.566-4.699,2.088
	c-0.174,0-0.522,0.175-0.696,0.175c0.522,0.174,0.87,0.174,1.393,0.174c1.393,0.348,2.61,0.696,3.829,1.393
	c1.393,0.696,2.785,1.74,3.829,2.959c1.045,1.218,1.741,2.61,2.438,4.003c0.696,1.741,1.044,3.655,1.044,5.57
	c0,2.088-0.349,4.178-1.219,6.092c-1.044,2.263-2.61,4.352-4.525,6.092c-1.914,1.741-4.352,2.959-6.788,3.655
	c-2.611,0.87-5.396,1.219-8.181,1.045c-2.263,0-4.352-0.349-6.614-0.871c-2.437-0.696-4.699-1.74-6.788-3.307
	c-1.393-1.219-2.611-2.611-3.481-4.178c-1.044-1.914-1.566-4.003-1.566-6.092C-982.542,2026.563-982.717,2025.867-982.717,2025.346z
	 M-936.243,2026.563h8.703c0,0.522,0.174,0.87,0.174,1.393c0.174,0.696,0.349,1.393,0.522,2.089c0.522,1.044,1.219,1.914,2.089,2.61
	s1.74,1.219,2.61,1.567c1.045,0.521,2.263,0.696,3.481,0.696c1.393,0,2.611,0,4.004-0.522c1.566-0.522,3.133-1.219,4.351-2.438
	c1.219-1.218,2.089-2.61,2.611-4.177c0.696-1.915,1.044-4.004,1.044-6.093c0-1.74-0.174-3.307-0.696-5.047
	c-0.521-1.567-1.218-2.959-2.263-4.178c-0.87-1.045-2.089-2.089-3.48-2.611c-1.567-0.696-3.481-1.044-5.223-0.87
	c-0.87,0-1.566,0.174-2.263,0.349c-1.044,0.174-2.263,0.695-3.133,1.218s-1.74,1.393-2.437,2.263
	c-0.696,0.871-1.045,1.741-1.393,2.611c-0.174,0.522-0.348,0.87-0.522,1.393h-7.658l1.566-34.464h32.549v6.788h-25.238
	l-1.044,18.799c0.696-0.696,1.392-1.393,2.088-1.915c1.393-1.044,2.96-1.914,4.526-2.61c1.914-0.696,3.829-1.045,5.743-0.871
	c2.263,0,4.352,0.349,6.267,1.219c2.089,0.87,4.177,2.089,5.744,3.829c1.566,1.566,2.61,3.655,3.48,5.744
	c1.045,2.611,1.566,5.396,1.566,8.354c0,2.611-0.348,5.223-1.218,7.485s-2.263,4.525-4.004,6.266
	c-1.74,1.915-4.003,3.481-6.266,4.525c-2.785,1.219-5.744,1.741-8.877,1.741c-2.089,0-4.003-0.175-5.918-0.696
	c-1.741-0.522-3.481-1.219-5.048-2.263c-1.393-0.871-2.785-2.089-3.655-3.481c-1.393-1.741-2.263-4.004-2.61-6.267
	C-936.243,2028.13-936.243,2027.26-936.243,2026.563z M-863.486,2003.936l-0.174-5.569h7.832v6.092
	c0.522-0.696,1.045-1.393,1.567-2.089c1.392-1.566,2.959-2.958,4.873-3.654c2.089-1.045,4.525-1.393,6.788-1.393
	c0.871,0,1.741,0.174,2.611,0.174c1.393,0.174,2.959,0.522,4.352,1.044c1.044,0.349,2.089,1.045,2.959,1.741
	c1.218,0.87,2.263,2.088,2.959,3.307c0.348,0.522,0.696,1.219,1.044,1.74c0.522-0.87,1.045-1.566,1.741-2.437
	c1.218-1.566,2.959-2.959,4.699-3.829c2.263-1.219,4.874-1.74,7.484-1.74c1.915,0,3.829,0.174,5.57,0.696
	c1.393,0.348,2.784,1.044,4.003,1.74c1.566,1.044,2.959,2.437,4.003,4.003c1.045,1.567,1.567,3.481,1.741,5.396
	c0.174,0.87,0.174,1.914,0.174,2.959v28.197h-8.007v-26.805c0-0.697,0-1.219,0-1.915c0-1.044-0.348-1.915-0.521-2.785
	c-0.349-0.87-0.871-1.914-1.567-2.61c-0.87-0.871-1.914-1.566-3.133-2.089c-1.393-0.522-2.785-0.87-4.178-0.696
	c-1.044,0-2.263,0.174-3.307,0.522c-1.219,0.348-2.611,1.044-3.481,1.914c-0.87,0.696-1.566,1.566-2.089,2.438
	c-0.696,1.218-1.218,2.61-1.393,4.003c-0.348,1.566-0.348,2.959-0.348,4.525v23.498h-7.833v-27.676c0-0.521,0-0.87-0.174-1.393
	c-0.174-1.044-0.348-1.914-0.696-2.784c-0.521-1.219-1.218-2.263-2.263-3.134c-0.696-0.521-1.566-1.044-2.437-1.393
	c-1.219-0.521-2.263-0.695-3.481-0.695s-2.263,0.174-3.307,0.521c-1.567,0.522-3.308,1.219-4.526,2.438
	c-1.044,0.87-1.914,2.088-2.437,3.48s-0.87,2.959-0.87,4.352c0,0.696,0,1.566,0,2.263v23.847h-7.833L-863.486,2003.936
	L-863.486,2003.936z M-789.338,2003.936l-0.174-5.569h7.833v6.092c0.522-0.696,1.044-1.393,1.566-2.089
	c1.393-1.566,2.959-2.958,4.874-3.654c2.088-1.045,4.525-1.393,6.788-1.393c0.87,0,1.74,0.174,2.61,0.174
	c1.393,0.174,2.959,0.522,4.352,1.044c1.045,0.349,2.089,1.045,2.959,1.741c1.219,0.87,2.263,2.088,2.959,3.307
	c0.349,0.522,0.696,1.219,0.87,1.74c0.522-0.87,1.045-1.566,1.741-2.437c1.218-1.566,2.959-2.959,4.699-3.829
	c2.263-1.219,4.874-1.74,7.659-1.74c1.914,0,3.829,0.174,5.569,0.696c1.393,0.348,2.785,1.044,4.004,1.74
	c1.566,1.044,2.959,2.437,4.003,4.003c1.044,1.567,1.566,3.481,1.74,5.396c0.175,0.87,0.175,1.914,0.175,2.959v28.197h-8.007
	v-26.805c0-0.697,0-1.219,0-1.915c0-1.044-0.175-1.915-0.696-2.785c-0.349-0.87-0.87-1.914-1.566-2.61
	c-0.871-0.871-1.915-1.566-3.134-2.089c-1.392-0.522-2.784-0.87-4.177-0.696c-1.045,0-2.263,0.174-3.308,0.522
	c-1.218,0.348-2.61,1.044-3.48,1.914c-0.871,0.696-1.567,1.566-2.089,2.438c-0.696,1.218-1.219,2.61-1.393,4.003
	c-0.349,1.566-0.349,2.959-0.349,4.525v23.498h-7.832v-27.676c0-0.521,0-0.87,0-1.393c-0.175-1.044-0.349-1.914-0.696-2.784
	c-0.522-1.219-1.219-2.263-2.263-3.134c-0.696-0.521-1.566-1.044-2.438-1.393c-1.044-0.521-2.263-0.695-3.48-0.695
	c-1.045,0-2.263,0.174-3.308,0.521c-1.74,0.522-3.307,1.219-4.525,2.438c-1.044,0.87-1.915,2.088-2.437,3.48
	c-0.522,1.393-0.87,2.959-0.87,4.352c0,0.696,0,1.566,0,2.263v23.847h-7.833L-789.338,2003.936L-789.338,2003.936z"/>
<path fill="#F0F2DC" d="M374.113,505.269H247.224l14.621,58.832c4.004-3.83,8.007-7.833,12.01-11.662
	c6.267-5.918,12.532-11.836,19.495-16.71c8.181-6.092,17.231-10.966,26.457-15.143c10.617-4.874,21.409-8.703,32.723-11.314
	C359.666,507.531,366.977,506.313,374.113,505.269z M335.124,548.609c-3.481,1.218-6.963,2.437-10.444,3.829
	c-6.266,2.437-12.184,5.569-17.928,9.051c-3.307,1.915-6.44,3.829-9.573,5.918c-5.744,3.829-11.487,8.007-16.535,12.881
	c-3.134,2.959-5.918,6.266-8.703,9.573c5.222,4.873,10.27,9.573,15.839,13.925c4.352,3.307,8.877,6.439,13.577,9.398
	c5.744,3.481,11.836,6.788,18.102,9.573c6.267,2.785,12.532,5.222,18.973,7.137c4.874,1.566,9.921,2.959,14.795,4.003
	c2.959,0.696,6.092,1.219,9.051,1.741c-4.177-3.134-8.354-6.267-12.01-9.922c-2.959-2.785-5.57-5.918-7.833-9.225
	c-2.959-4.004-5.396-8.355-7.484-13.055c-2.089-4.525-3.48-9.399-4.352-14.447c-1.218-6.092-1.566-12.532-0.87-18.624
	c0.349-2.785,0.696-5.396,1.219-8.007c0.522-2.959,1.218-5.918,2.089-8.702c0.348-1.393,0.87-2.96,1.393-4.352
	C334.949,548.957,334.949,548.783,335.124,548.609z M374.113,672.539c-1.044-0.175-2.088-0.349-3.307-0.349
	c-6.092-0.87-12.01-2.089-17.928-3.655c-5.57-1.393-10.966-3.133-16.362-5.048c-6.614-2.437-13.229-5.222-19.494-8.354
	c-6.44-3.133-12.532-6.788-18.45-10.792c-6.44-4.351-12.532-8.877-18.276-14.099c-0.87-0.696-1.74-1.566-2.437-2.263l10.792,44.56
	H374.113L374.113,672.539z M418.846,539.906c-3.133-0.349-6.092-0.87-9.226-1.045c-2.437-0.174-4.873-0.348-7.31-0.521
	c-3.134-0.174-6.093-0.174-9.226-0.174s-6.266,0-9.225,0.348c-3.83,0.349-7.833,0.87-11.662,1.393l23.498,64.228L418.846,539.906z
	 M520.496,557.834v-52.739H414.668c8.007,1.393,15.84,2.959,23.846,4.873c6.093,1.566,12.185,3.481,18.103,5.57
	c7.484,2.785,14.621,5.918,21.583,9.747c6.963,3.829,13.751,8.007,20.191,12.881c6.962,5.047,13.576,10.791,19.668,16.883
	C518.755,556.094,519.625,556.964,520.496,557.834z M518.059,589.339c-3.48-3.481-6.788-6.788-10.443-10.096
	c-2.785-2.437-5.744-4.873-8.877-7.136c-3.829-2.785-7.658-5.396-11.662-7.833c-4.003-2.437-8.007-4.699-12.184-6.614
	c-4.874-2.437-9.922-4.525-14.97-6.614c1.741,5.918,3.308,12.01,4.004,18.103c0.522,4.525,0.522,9.051,0,13.576
	c-0.349,4.178-1.045,8.181-2.263,12.184c-1.393,4.874-3.133,9.748-5.57,14.1c-2.437,4.525-5.222,8.877-8.703,12.706
	c-3.654,4.177-8.006,7.658-12.184,11.14c-0.87,0.87-1.915,1.566-2.785,2.437c2.959-0.696,5.918-1.393,8.877-2.089
	c2.089-0.521,4.352-1.044,6.44-1.74c2.61-0.696,5.396-1.566,8.007-2.437c2.61-0.871,5.222-1.915,7.832-2.959
	c3.134-1.219,6.093-2.611,9.052-4.004c3.307-1.566,6.614-3.307,9.747-5.048c2.61-1.392,5.222-2.959,7.658-4.525
	c3.134-1.914,6.267-4.003,9.399-6.266s6.092-4.525,8.877-7.137C511.793,596.127,514.926,592.646,518.059,589.339z M520.496,672.539
	l-0.175-48.389c-0.87,0.87-1.74,1.741-2.437,2.437c-4.699,4.526-9.573,8.877-14.795,12.707c-4.699,3.655-9.573,6.962-14.795,10.095
	c-6.267,3.83-12.706,7.137-19.494,10.096c-6.614,2.959-13.403,5.57-20.539,7.484c-8.529,2.437-17.232,3.829-25.935,5.222
	L520.496,672.539L520.496,672.539z M574.106,730.849H248.79l-48.04-192.335l-46.647-0.174l-48.736,192.683H-20.826v-58.31h86.333
	l42.471-167.271H-20.826V446.61h594.932V730.849z"/>
<path fill="#F0F2DC" d="M18.163,348.094c-3.308,0-6.788,0.522-9.747,1.914c-3.134,1.219-6.093,3.308-8.529,5.918
	c-2.61,2.785-4.525,6.267-5.569,9.922c-1.741,4.874-2.089,9.921-2.089,14.969c0,4.525,0.348,9.226,1.74,13.577
	c1.044,3.829,2.785,7.311,5.222,10.27s5.57,5.222,9.051,6.613c3.134,1.393,6.44,1.915,9.748,1.915c3.48,0,7.136-0.696,10.443-2.263
	c3.133-1.393,5.918-3.655,8.007-6.44c2.437-2.959,4.177-6.614,5.396-10.27c1.393-4.352,1.915-8.877,1.915-13.402
	c0-4.873-0.522-9.921-2.089-14.621c-1.045-3.655-2.785-7.136-5.222-9.921c-2.263-2.611-5.048-4.7-8.181-6.092
	C24.951,348.79,21.645,348.094,18.163,348.094z M-7.424,307.189v30.461v12.706c0.349-0.522,0.87-1.219,1.219-1.74
	c0.87-1.045,1.74-2.089,2.61-2.96c1.566-1.566,3.308-2.959,5.222-4.177c2.089-1.393,4.526-2.263,6.963-3.133
	c3.481-1.045,7.311-1.567,10.966-1.741c4.699-0.174,9.573,0.696,14.099,2.438c5.222,1.914,10.096,5.222,13.75,9.573
	c3.481,3.829,5.919,8.354,7.485,13.228c2.088,6.093,2.784,12.707,2.784,19.146c0,6.093-0.696,12.185-2.784,17.929
	c-1.741,5.222-4.525,10.27-8.181,14.272c-3.134,3.481-7.137,6.44-11.488,8.354c-5.048,2.438-10.792,3.308-16.535,3.134
	c-4.178,0-8.355-0.696-12.358-2.089c-2.437-0.87-4.874-2.089-7.137-3.655c-1.393-1.045-2.785-2.263-4.003-3.481
	c-0.696-0.696-1.393-1.566-1.915-2.437c-0.696-0.87-1.219-1.915-1.74-2.959v12.01h-12.706V307.189H-7.424L-7.424,307.189z
	 M85.176,307.189v114.879H71.425V307.189H85.176z M138.438,347.92c-3.133,0-6.267,0.521-9.226,1.74
	c-3.307,1.219-6.439,3.307-8.877,6.092c-3.307,3.481-5.396,7.833-6.614,12.358c-1.218,4.003-1.566,8.181-1.566,12.358
	c0,4.873,0.522,9.747,2.089,14.446c1.219,3.83,2.959,7.484,5.744,10.444c2.61,2.959,6.092,5.222,9.747,6.439
	c2.785,1.045,5.744,1.393,8.703,1.393s5.918-0.348,8.703-1.219c3.307-1.044,6.266-2.959,8.702-5.396
	c2.785-2.785,4.874-6.266,6.093-9.921c1.914-5.048,2.61-10.443,2.61-15.84c0-5.048-0.521-9.921-2.089-14.621
	c-1.218-3.655-2.959-7.311-5.569-10.27c-2.437-2.784-5.57-5.047-9.051-6.266C145.052,348.441,141.744,347.92,138.438,347.92z
	 M138.438,336.258c5.396,0,10.617,0.696,15.665,2.61c5.396,1.915,10.443,5.222,14.272,9.748c4.004,4.351,6.789,9.573,8.355,15.143
	c1.74,5.57,2.263,11.313,2.263,17.058c0,5.918-0.696,11.836-2.437,17.58c-1.915,6.092-5.223,12.01-9.922,16.361
	c-3.829,3.829-8.703,6.614-13.751,8.007c-4.525,1.393-9.225,1.915-13.924,1.915c-5.396,0-10.618-0.696-15.666-2.611
	c-5.569-2.089-10.791-5.569-14.62-10.095c-3.655-4.178-6.093-9.052-7.833-14.273c-1.74-5.396-2.437-10.966-2.611-16.71
	c-0.174-5.743,0.522-11.487,2.263-17.058c1.393-4.873,3.655-9.398,6.963-13.402c3.655-4.699,8.528-8.528,14.099-10.791
	C126.776,337.302,132.52,336.432,138.438,336.258z M252.62,372.984c-0.175-1.045-0.175-2.089-0.349-3.134
	c-0.522-4.003-1.74-8.006-4.003-11.313c-2.263-3.829-5.744-6.962-9.747-8.703c-2.959-1.393-6.267-2.089-9.573-2.089
	c-3.481-0.174-7.137,0.522-10.27,1.915c-3.83,1.566-6.963,4.352-9.399,7.833c-2.611,3.655-4.178,8.007-4.699,12.357
	c-0.175,1.045-0.349,2.089-0.522,3.308L252.62,372.984L252.62,372.984z M265.674,395.786c-0.174,0.695-0.348,1.566-0.521,2.263
	c-0.522,1.74-1.045,3.48-1.741,5.222c-1.044,2.784-2.437,5.396-4.177,8.007c-3.308,4.699-7.833,8.528-13.055,10.791
	c-5.222,2.437-11.14,3.133-16.884,2.959c-5.396,0-10.617-0.696-15.665-2.61c-5.918-2.089-11.14-6.093-14.969-11.14
	c-3.134-4.004-5.223-8.529-6.614-13.403c-1.741-5.743-2.438-11.661-2.264-17.754c0-5.918,1.045-12.01,3.134-17.58
	c1.74-4.873,4.177-9.398,7.658-13.228c3.655-4.352,8.354-7.833,13.577-9.922c4.525-2.089,9.747-2.959,14.795-2.785
	c5.396,0,10.791,1.045,15.665,3.308c5.048,2.263,9.399,5.743,12.88,10.095c3.655,4.352,5.918,9.748,7.311,15.144
	c1.393,5.222,1.915,10.617,1.915,16.014c0,1.044,0,2.089,0,3.307h-62.661c0,0.87,0,1.741,0.174,2.611
	c0.174,1.566,0.174,2.959,0.522,4.525c0.348,2.61,1.044,5.222,2.089,7.832c1.74,4.352,4.699,8.529,8.702,10.966
	c4.004,2.785,9.052,3.655,14.1,3.655c4.351,0.175,8.528-0.521,12.184-2.61c2.785-1.393,5.048-3.829,6.788-6.44
	c1.566-2.263,2.611-4.699,3.308-7.137c0.174-0.521,0.348-1.218,0.521-1.74L265.674,395.786L265.674,395.786z M344.697,363.063
	h-13.75c-0.174-0.87-0.174-1.566-0.349-2.437c-0.348-2.263-1.218-4.352-2.61-6.092c-1.741-2.438-4.352-4.004-7.137-5.048
	c-3.133-1.219-6.614-1.566-9.921-1.566c-2.785,0-5.396,0.174-8.181,0.87c-2.611,0.696-5.222,1.914-6.963,4.003
	c-1.393,1.566-2.263,3.829-2.263,6.092c-0.174,2.438,0.522,4.874,2.089,6.614c1.74,2.089,4.352,3.134,6.962,3.83
	c4.526,1.393,8.703,2.263,13.055,3.307c3.829,0.87,7.658,1.74,11.488,2.959c4.525,1.393,9.225,2.959,12.88,6.092
	c2.959,2.263,5.396,5.57,6.614,9.052c1.045,2.785,1.393,5.918,1.219,9.051c-0.349,4.003-1.566,7.833-3.655,11.14
	c-1.915,3.133-4.352,5.744-7.311,7.658c-3.655,2.611-7.833,4.178-12.185,5.048c-4.003,0.87-8.006,1.219-12.01,1.045
	c-3.829,0-7.833-0.349-11.662-1.219c-3.655-0.696-7.311-2.089-10.617-4.003c-3.655-2.089-6.788-5.222-8.877-8.877
	c-2.089-3.481-3.308-7.485-3.655-11.488c-0.174-1.044-0.174-2.263-0.174-3.307h13.402c0.174,0.87,0.174,1.914,0.348,2.784
	c0.522,2.959,1.566,5.744,3.481,8.007c2.089,2.611,5.222,4.525,8.529,5.396c3.307,1.044,6.614,1.392,10.095,1.392
	c3.829,0,7.833-0.348,11.314-1.914c2.263-0.87,4.352-2.263,6.092-4.004c2.089-2.263,3.307-5.222,3.133-8.181
	c0-2.61-1.219-5.396-3.133-7.136c-2.089-2.089-5.048-3.308-8.007-4.178c-3.307-1.045-6.614-1.915-9.921-2.785
	c-4.526-1.044-9.052-2.089-13.751-3.307c-3.481-0.871-6.962-1.915-10.096-3.83c-3.133-1.914-5.918-4.525-7.658-7.832
	c-1.74-3.133-2.263-6.963-2.089-10.618c0.174-4.699,1.74-9.225,4.525-12.706c3.133-4.177,7.833-6.962,12.881-8.528
	c5.222-1.741,10.617-2.263,15.839-2.089c4.525,0.174,9.226,0.696,13.577,2.263c4.699,1.566,9.225,4.003,12.357,8.007
	c2.959,3.48,4.874,8.007,5.396,12.532C344.349,360.452,344.523,361.67,344.697,363.063z M425.285,363.063h-13.75
	c-0.174-0.87-0.174-1.566-0.348-2.437c-0.349-2.263-1.219-4.352-2.611-6.092c-1.74-2.438-4.352-4.004-7.137-5.048
	c-3.133-1.219-6.614-1.566-9.921-1.566c-2.785,0-5.396,0.174-8.181,0.87c-2.611,0.696-5.222,1.914-6.963,4.003
	c-1.392,1.566-2.263,3.829-2.263,6.092c-0.174,2.438,0.522,4.874,2.089,6.614c1.741,2.089,4.352,3.134,6.963,3.83
	c4.525,1.393,8.702,2.263,13.054,3.307c3.83,0.87,7.659,1.74,11.488,2.959c4.525,1.393,9.225,2.959,12.88,6.092
	c2.959,2.263,5.396,5.57,6.614,9.052c1.045,2.785,1.393,5.918,1.219,9.051c-0.349,4.003-1.566,7.833-3.655,11.14
	c-1.915,3.133-4.352,5.744-7.311,7.658c-3.655,2.611-7.833,4.178-12.184,5.048c-4.004,0.87-8.007,1.219-12.011,1.045
	c-3.829,0-7.832-0.349-11.661-1.219c-3.655-0.696-7.311-2.089-10.618-4.003c-3.655-2.089-6.788-5.222-8.877-8.877
	c-2.089-3.481-3.307-7.485-3.655-11.488c-0.174-1.044-0.174-2.263-0.174-3.307h13.402c0.174,0.87,0.174,1.914,0.349,2.784
	c0.521,2.959,1.566,5.744,3.48,8.007c2.089,2.611,5.222,4.525,8.529,5.396c3.307,1.044,6.614,1.392,10.096,1.392
	c3.829,0,7.832-0.348,11.313-1.914c2.263-0.87,4.352-2.263,6.092-4.004c2.089-2.263,3.307-5.222,3.133-8.181
	c0-2.61-1.219-5.396-3.133-7.136c-2.089-2.089-5.048-3.308-8.007-4.178c-3.307-1.045-6.614-1.915-9.921-2.785
	c-4.525-1.044-9.051-2.089-13.751-3.307c-3.481-0.871-6.962-1.915-10.096-3.83c-3.133-1.914-5.918-4.525-7.658-7.832
	c-1.74-3.133-2.263-6.963-2.089-10.618c0.174-4.699,1.741-9.225,4.525-12.706c3.134-4.177,7.833-6.962,12.881-8.528
	c5.222-1.741,10.443-2.263,15.839-2.089c4.525,0.174,9.226,0.696,13.577,2.263c4.699,1.566,9.225,4.003,12.357,8.007
	c2.959,3.48,4.874,8.007,5.396,12.532C425.112,360.452,425.285,361.67,425.285,363.063z M501.35,372.984
	c-0.175-1.045-0.175-2.089-0.349-3.134c-0.522-4.003-1.74-8.006-4.003-11.313c-2.263-3.829-5.744-6.962-9.748-8.703
	c-2.959-1.393-6.266-2.089-9.572-2.089c-3.481-0.174-7.137,0.522-10.27,1.915c-3.83,1.566-6.963,4.352-9.399,7.833
	c-2.611,3.655-4.178,8.007-4.699,12.357c-0.175,1.045-0.349,2.089-0.522,3.308L501.35,372.984L501.35,372.984z M514.578,395.786
	c-0.175,0.695-0.349,1.566-0.522,2.263c-0.522,1.74-1.045,3.48-1.741,5.222c-1.044,2.784-2.437,5.396-4.177,8.007
	c-3.308,4.699-7.833,8.528-13.055,10.791c-5.222,2.437-11.14,3.133-16.884,2.959c-5.396,0-10.617-0.696-15.665-2.61
	c-5.918-2.089-11.14-6.093-14.969-11.14c-3.134-4.004-5.222-8.529-6.614-13.403c-1.741-5.743-2.438-11.661-2.263-17.754
	c0-5.918,1.044-12.01,3.133-17.58c1.74-4.873,4.178-9.398,7.658-13.228c3.655-4.352,8.355-7.833,13.577-9.922
	c4.525-2.089,9.747-2.959,14.795-2.785c5.396,0,10.791,1.045,15.665,3.308c5.048,2.263,9.399,5.743,12.88,10.095
	c3.655,4.352,5.918,9.748,7.311,15.144c1.393,5.222,1.915,10.617,1.915,16.014c0,1.044,0,2.089,0,3.307h-62.661
	c0,0.87,0,1.741,0.174,2.611c0.174,1.566,0.174,2.959,0.522,4.525c0.348,2.61,1.044,5.222,2.089,7.832
	c1.74,4.352,4.699,8.529,8.703,10.966c4.003,2.785,9.051,3.655,14.099,3.655c4.352,0.175,8.528-0.521,12.184-2.61
	c2.785-1.393,5.048-3.829,6.788-6.44c1.567-2.263,2.611-4.699,3.308-7.137c0.174-0.521,0.348-1.218,0.522-1.74L514.578,395.786
	L514.578,395.786z M574.28,336.779v14.273c-1.044-0.174-2.088-0.174-3.133-0.174c-1.566,0-3.307,0-4.873,0.174
	c-1.915,0.174-3.655,0.696-5.396,1.393c-3.307,1.218-6.439,3.133-8.877,5.744c-2.959,2.959-5.048,6.962-6.092,10.965
	c-1.044,3.308-1.219,6.614-1.393,10.096c-0.174,3.655-0.174,7.311-0.348,10.966v32.026h-13.751v-83.374h13.055v17.754
	c0.696-1.392,1.393-2.784,2.089-4.003c1.044-1.915,2.437-3.829,3.829-5.396c1.74-2.089,3.829-3.829,5.918-5.396
	c2.61-1.74,5.569-3.133,8.703-3.829c2.784-0.696,5.569-1.044,8.354-1.044C573.062,336.779,573.584,336.779,574.28,336.779z"/>
</svg>
