<?xml version="1.0" encoding="utf-8"?>
<!-- Generator: Adobe Illustrator 15.1.0, SVG Export Plug-In . SVG Version: 6.00 Build 0)  -->
<!DOCTYPE svg PUBLIC "-//W3C//DTD SVG 1.1//EN" "http://www.w3.org/Graphics/SVG/1.1/DTD/svg11.dtd">
<svg version="1.1" id="Ebene_1" xmlns="http://www.w3.org/2000/svg" xmlns:xlink="http://www.w3.org/1999/xlink" x="0px" y="0px"
	 width="2827.071px" height="292.356px" viewBox="3.396 274.943 2827.071 292.356"
	 enable-background="new 3.396 274.943 2827.071 292.356" xml:space="preserve">
<g>
	<path fill="#41B9B8" d="M1505.367,440.991l0.786,0.786c-0.786,0.786-1.571,1.572-2.358,1.572c-7.074,0-13.363,0-20.438,0
		c0-0.786,0-1.572,0-3.145h22.01V440.991z M1505.367,437.846h-22.01c-0.787-2.358,0-2.358,1.572-2.358c6.288,0,12.577,0,18.08,0
		C1506.153,434.702,1506.153,435.488,1505.367,437.846 M1505.367,429.199c0.786,2.358,0,3.145-2.357,3.145
		c-6.289,0-11.792,0-18.08,0c-2.359,0-2.359-0.786-1.572-3.145H1505.367z M1364.657,415.05h-18.866
		c1.572-13.363,3.145-26.728,4.717-40.091h14.149V415.05L1364.657,415.05z M1371.731,415.05v-39.305h44.808
		c3.145,13.363,5.503,25.941,8.646,39.305h-12.577c1.572-2.358,3.145-3.931,3.931-5.503c1.572-1.572,1.572-3.93,0-4.716
		c-1.572-1.572-3.145,0-4.717,1.571c-1.572,2.358-3.93,5.503-6.289,7.861c-0.785,0.786-1.572,1.572-2.357,1.572
		C1392.956,415.05,1382.737,415.05,1371.731,415.05 M1407.105,468.504c0,5.503-0.785,11.006-0.785,17.294h41.662
		c3.145-16.508,12.578-28.299,29.086-32.229c18.08-3.931,32.229,3.145,42.449,18.866c3.93-3.145,5.502-7.075,5.502-12.577
		c-0.786-11.006,0-22.011,0-32.23c0-3.144-0.786-3.93-3.145-3.93c-10.219-1.572-21.225-3.145-31.443-4.717
		c-3.145-0.786-6.289-0.786-8.646-0.786c0-3.145-0.787-4.717,2.357-7.075c1.572-0.786,2.358-3.931,3.145-5.502
		c0.786-3.145,0.786-7.075,0-10.22c0-2.358-1.572-4.717-3.145-6.289s-2.357-2.358-2.357-4.716c0-5.503-2.359-9.434-7.861-11.792
		c-0.786,1.572-1.572,3.931-1.572,4.717c1.572,2.358,3.145,3.931,3.145,6.289c0.786,1.572,0,3.93-2.358,5.502
		c-1.572,0.786-3.145,3.145-3.145,5.503c-0.786,3.931-0.786,7.861,0,11.791c0,1.572,1.572,4.717,3.145,5.503
		c3.145,1.572,2.358,3.145,2.358,6.289c-0.786,0-1.572,0-2.358,0c-11.792-0.786-23.583-0.786-35.374-1.572
		c-2.358,0-3.145-0.786-3.931-3.145c-2.358-11.791-5.503-24.369-7.861-36.946c2.358,0,3.931,0,6.289,0v-12.577h-101.405v12.577
		h6.288c-2.358,18.08-4.717,36.16-6.288,54.24c16.508-8.646,32.229-9.433,48.737-2.358c16.508,7.861,25.155,20.438,29.085,37.732
		h16.508c1.572-14.936,3.145-29.871,4.717-44.807h3.145c-1.572,15.722-3.145,32.229-4.717,47.951h-21.225V468.504z"/>
	<path fill="#41B9B8" d="M1355.224,446.493c15.722-0.786,28.3,12.578,28.3,27.514c0,15.722-12.578,28.299-28.3,28.299
		c-14.936,0-27.513-12.577-28.3-27.513C1326.925,459.857,1339.502,446.493,1355.224,446.493 M1333.213,515.67
		c3.931-0.786,7.075,0,8.647,3.145c0.786,0.786,3.145,0.786,3.931,0.786c2.358-0.786,4.717-0.786,7.074,0.786
		c0.787,0.786,3.145,0.786,4.717,0c2.358-1.572,4.717-2.358,7.075-0.786c0.786,0.786,3.144,0,3.931-0.786
		c2.357-2.358,3.93-3.931,7.074-3.145c0.786,0,3.145-1.572,3.145-2.358c1.572-2.358,3.145-4.717,6.289-4.717
		c0.786,0,2.357-1.572,3.145-3.145c0.785-3.144,1.571-4.716,4.716-6.288c0.786,0,1.572-2.358,1.572-3.931
		c0-2.358,0.786-4.717,3.145-6.289c0.786-0.786,0.786-3.145,0.786-4.717c-0.786-2.357-0.786-4.716,0.786-7.074
		c0.786-0.786,0.786-3.145,0-4.717c-1.572-2.358-2.358-4.717-0.786-7.075c0.786-0.786,0-3.144-1.572-3.93
		c-2.358-1.572-3.145-3.931-3.145-7.075c0-0.786-1.572-3.145-2.358-3.931c-2.358-1.572-3.931-2.358-3.931-5.502
		c0-0.786-1.571-2.358-3.144-3.145c-3.145-0.786-5.503-1.572-6.289-4.717c0-0.786-2.358-1.572-3.931-1.572
		c-3.145,0-4.717-0.786-6.289-3.145c-0.785-0.786-3.144-0.786-4.716-0.786c-2.358,0.786-4.717,0.786-7.075-0.786
		c-0.786-0.786-3.145-0.786-4.717,0c-2.357,1.572-4.717,2.358-7.86,0.786c-0.786-0.786-3.145,0.786-3.931,1.572
		c-2.358,2.358-3.931,3.145-7.074,2.358c-0.787,0-3.145,1.572-3.932,2.358c-1.571,2.358-2.357,3.931-5.502,3.931
		c-0.786,0-2.358,2.358-3.145,3.145c-0.786,3.144-1.572,4.716-4.717,5.502c-0.786,0.786-2.357,2.358-2.357,3.931
		c0,3.145,0,4.717-3.145,7.075c-0.786,0.786-0.786,3.144-0.786,4.716c0.786,2.358,0.786,4.717-0.786,7.075
		c-0.787,0.786,0,3.145,0.786,4.717c1.571,2.358,1.571,3.931,0.786,7.074c-0.786,0.786,0.786,3.145,1.572,4.717
		c1.572,2.358,3.144,3.931,2.357,7.075c0,0.786,1.572,3.145,3.145,3.931c2.358,1.572,3.931,2.357,3.931,5.502
		c0,1.572,2.358,2.358,3.931,3.145c2.358,0.786,4.717,1.572,5.502,3.931C1330.855,514.097,1333.213,514.884,1333.213,515.67"/>
	<path fill="#41B9B8" d="M1471.565,490.514c0-7.86,7.075-14.936,14.936-14.936c7.861,0,14.937,7.075,14.937,14.936
		c0,7.861-7.075,14.936-14.937,14.936C1477.854,505.45,1471.565,498.376,1471.565,490.514 M1516.373,489.728
		c0-17.294-14.15-30.657-30.658-29.871c-17.294,0-30.657,14.149-30.657,30.657s14.149,29.872,30.657,29.872
		C1503.01,521.172,1516.373,507.022,1516.373,489.728"/>
	<path fill="#41B9B8" d="M1355.224,482.654c-4.717,0-7.86-3.145-7.86-7.861s3.93-7.861,7.86-7.861s7.861,3.931,7.861,7.861
		S1359.94,482.654,1355.224,482.654 M1337.144,474.793c0,10.219,7.861,18.866,18.08,18.08c10.22,0,18.08-8.647,18.08-18.08
		c0-10.22-7.86-18.08-18.08-18.08C1345.005,455.927,1337.144,464.573,1337.144,474.793"/>
	<path fill="#41B9B8" d="M1481.785,490.514c0-2.358,2.357-3.931,3.93-3.931c2.358,0,3.931,1.572,3.931,3.931
		s-2.358,3.931-3.931,3.931C1483.357,494.445,1481.785,492.087,1481.785,490.514 M1485.715,498.376c4.717,0,8.647-3.931,8.647-8.647
		s-3.931-8.646-7.86-8.646c-4.717,0-8.647,3.93-8.647,8.646C1477.854,495.231,1481.785,498.376,1485.715,498.376"/>
</g>
<path fill="#005A7C" d="M1177.566,471.648l23.583,45.594H881.21l21.225-33.803l289.282-47.951L1177.566,471.648z M1233.379,458.285
	l42.449-77.823l-437.067,80.968l-58.171,85.684h503.886L1233.379,458.285z"/>
<polygon fill="#41B9B8" points="805.745,463.787 747.574,546.327 646.954,546.327 705.125,479.51 "/>
<path fill="#005A7C" d="M579.351,516.456H394.619l56.598-44.808L579.351,516.456z M672.109,479.51l-228.753-43.235l-136.78,109.267
	l307.362,0.786L672.109,479.51z"/>
<g>
	<path fill="#41B9B8" d="M1113.894,503.878c10.219,0,18.866-8.646,18.866-18.866c0-10.219-8.647-18.866-18.866-18.866
		c-10.22,0-18.866,8.647-18.866,18.866C1095.027,495.231,1103.674,503.878,1113.894,503.878"/>
	<path fill="#41B9B8" d="M1028.995,503.878c7.075,0,13.364-6.288,13.364-13.363s-6.289-13.363-13.364-13.363
		c-7.074,0-13.363,6.288-13.363,13.363C1016.418,497.59,1021.921,503.878,1028.995,503.878"/>
</g>
<polygon fill="#41B9B8" points="444.143,489.728 471.655,489.728 458.292,508.594 "/>
<g>
	<path fill="#41B9B8" d="M975.541,415.05c-47.166-66.032-124.203-109.267-210.673-109.267c-93.545,0-175.299,50.31-220.892,124.202
		l29.085,6.289c41.663-62.102,111.625-102.192,191.807-102.192c73.106,0,138.353,33.803,180.802,87.257L975.541,415.05z"/>
	<path fill="#005A7C" d="M51.882,566.765c0,0,166.652-241.33,432.352-167.438l-10.22-5.503
		c-99.047-71.534-237.4-68.39-334.089,14.936c-47.166,40.877-77.037,95.117-88.042,152.502V566.765z"/>
	<path fill="none" stroke="#005A7C" stroke-width="1.068" stroke-linecap="round" stroke-linejoin="round" d="M51.882,566.765
		c0,0,166.652-241.33,432.352-167.438l-10.22-5.503c-99.047-71.534-237.4-68.39-334.089,14.936
		c-47.166,40.877-77.037,95.117-88.042,152.502V566.765z"/>
	<path fill="#41B9B8" d="M3.931,448.851c0,0,128.919-187.09,334.875-129.705l-7.86-3.931C254.694,259.403,147,261.761,72.32,326.221
		c-36.946,32.229-59.743,73.893-68.39,117.914V448.851z"/>
	<path fill="none" stroke="#41B9B8" stroke-width="1.068" stroke-linecap="round" stroke-linejoin="round" d="M3.931,448.851
		c0,0,128.919-187.09,334.875-129.705l-7.86-3.931C254.694,259.403,147,261.761,72.32,326.221
		c-36.946,32.229-59.743,73.893-68.39,117.914V448.851z"/>
	<path fill="#005A7C" d="M753.077,433.916c18.866,0,34.588-15.722,34.588-34.588s-15.722-34.588-34.588-34.588
		s-34.589,15.722-34.589,34.588S734.211,433.916,753.077,433.916"/>
</g>
<rect x="645.112" y="397.685" transform="matrix(0.7072 0.707 -0.707 0.7072 486.5673 -346.4998)" fill="#005A7C" width="33.016" height="33.016"/>
<rect x="834.589" y="386.412" transform="matrix(0.7072 0.707 -0.707 0.7072 534.0764 -483.764)" fill="#005A7C" width="33.016" height="33.016"/>
<polygon fill="#41B9B8" points="334.089,420.552 358.458,444.922 343.522,458.285 318.368,436.274 "/>
<polygon fill="#41B9B8" points="305.004,445.707 330.159,470.076 314.437,483.439 290.068,461.429 "/>
<polygon fill="#41B9B8" points="275.918,471.648 301.073,496.017 285.352,509.381 260.983,486.584 "/>
<polygon fill="#41B9B8" points="246.833,502.305 271.202,526.675 255.48,540.039 231.111,518.028 "/>
<path fill="#005A7C" d="M1657.084,471.648l-23.583,45.594h319.939l-21.225-33.803l-290.068-47.165L1657.084,471.648z
	 M1601.271,458.285l-42.448-77.823l437.067,80.968l58.171,85.684h-503.886L1601.271,458.285z"/>
<polygon fill="#41B9B8" points="2028.905,463.787 2087.076,546.327 2186.91,546.327 2129.525,479.51 "/>
<path fill="#005A7C" d="M2255.3,516.456h184.731l-56.599-44.808L2255.3,516.456z M2162.541,479.51l228.753-43.235l136.78,109.267
	l-307.362,0.786L2162.541,479.51z"/>
<g>
	<path fill="#41B9B8" d="M1719.971,503.878c-10.219,0-18.866-8.646-18.866-18.866c0-10.219,8.647-18.866,18.866-18.866
		c10.22,0,18.866,8.647,18.866,18.866C1738.837,495.231,1730.977,503.878,1719.971,503.878"/>
	<path fill="#41B9B8" d="M1804.869,503.878c-7.075,0-13.363-6.288-13.363-13.363s6.288-13.363,13.363-13.363
		c7.074,0,13.363,6.288,13.363,13.363S1812.729,503.878,1804.869,503.878"/>
</g>
<polygon fill="#41B9B8" points="2390.508,489.728 2362.994,489.728 2376.358,508.594 "/>
<g>
	<path fill="#41B9B8" d="M1858.323,415.05c47.165-66.032,124.202-109.267,210.673-109.267c93.545,0,175.299,50.31,220.892,124.202
		l-29.085,6.289c-41.663-62.102-111.625-102.192-191.807-102.192c-73.107,0-138.353,33.803-180.802,87.257L1858.323,415.05z"/>
	<path fill="#005A7C" d="M2781.982,566.765c0,0-166.652-241.33-432.352-167.438l10.219-5.503
		c99.049-71.534,237.4-68.39,334.09,14.936c47.166,40.877,77.037,95.117,88.043,152.502V566.765z"/>
	<path fill="none" stroke="#005A7C" stroke-width="1.068" stroke-linecap="round" stroke-linejoin="round" d="M2781.982,566.765
		c0,0-166.652-241.33-432.352-167.438l10.219-5.503c99.049-71.534,237.4-68.39,334.09,14.936
		c47.166,40.877,77.037,95.117,88.043,152.502V566.765z"/>
	<path fill="#41B9B8" d="M2829.934,448.851c0,0-128.919-187.09-334.875-129.705l7.86-3.931
		c77.037-55.026,183.946-52.668,258.625,11.792c36.946,32.229,59.743,73.893,68.39,117.914V448.851z"/>
	<path fill="none" stroke="#41B9B8" stroke-width="1.068" stroke-linecap="round" stroke-linejoin="round" d="M2829.934,448.851
		c0,0-128.919-187.09-334.875-129.705l7.86-3.931c77.037-55.026,183.946-52.668,258.625,11.792
		c36.946,32.229,59.743,73.893,68.39,117.914V448.851z"/>
	<path fill="#005A7C" d="M2081.573,433.916c-18.866,0-34.588-15.722-34.588-34.588s15.722-34.588,34.588-34.588
		s34.588,15.722,34.588,34.588C2116.162,418.194,2100.439,433.916,2081.573,433.916"/>
</g>
<rect x="2156.469" y="398.441" transform="matrix(-0.7072 0.707 -0.707 -0.7072 4003.0979 -827.8971)" fill="#005A7C" width="33.015" height="33.016"/>
<rect x="1967.139" y="387.433" transform="matrix(-0.7072 0.707 -0.707 -0.7072 3672.0659 -712.8674)" fill="#005A7C" width="33.016" height="33.016"/>
<polygon fill="#41B9B8" points="2499.775,420.552 2475.406,444.922 2491.128,458.285 2515.496,436.274 "/>
<polygon fill="#41B9B8" points="2528.86,445.707 2504.491,470.076 2520.213,483.439 2544.582,461.429 "/>
<polygon fill="#41B9B8" points="2557.945,471.648 2533.576,496.017 2549.299,509.381 2573.668,486.584 "/>
<polygon fill="#41B9B8" points="2587.817,502.305 2562.662,526.675 2578.384,540.039 2602.753,518.028 "/>
</svg>
