<?xml version="1.0" encoding="utf-8"?>
<!-- Generator: Adobe Illustrator 15.1.0, SVG Export Plug-In . SVG Version: 6.00 Build 0)  -->
<!DOCTYPE svg PUBLIC "-//W3C//DTD SVG 1.1//EN" "http://www.w3.org/Graphics/SVG/1.1/DTD/svg11.dtd">
<svg version="1.1" id="Ebene_1" xmlns="http://www.w3.org/2000/svg" xmlns:xlink="http://www.w3.org/1999/xlink" x="0px" y="0px"
	 width="2827.071px" height="292.356px" viewBox="3.396 274.943 2827.071 292.356"
	 enable-background="new 3.396 274.943 2827.071 292.356" xml:space="preserve">
<g>
	<path fill="#41B9B8" d="M1497.507,479.51c-0.786,2.358-1.572,4.716-2.358,7.074c-3.931,9.434-8.647,18.866-16.508,26.728
		c-0.786,0.786-2.358,0.786-3.145,0.786c-22.797,0-44.808,0-67.604,0c-16.509,0-32.23,0-48.738,0c-2.358,0-3.145-0.786-4.717-2.358
		c-7.861-9.434-13.363-19.652-17.294-31.443v-0.786H1497.507z"/>
	<path fill="#41B9B8" d="M1334.785,466.145h165.08c0,2.358-0.786,5.503-0.786,7.861c0,0.786-1.572,0.786-2.358,0.786
		c-14.936,0-29.872,0-44.808,0c-37.732,0-75.465,0-113.197,0c-1.572,0-2.358,0-2.358-2.358
		C1335.571,470.076,1334.785,468.504,1334.785,466.145"/>
	<path fill="#41B9B8" d="M1472.352,519.6c-3.145,2.357-7.074,5.502-10.219,7.86c0,0-0.787,0-1.572,0c-28.3,0-56.599,0-84.898,0
		c-2.358,0-4.717-0.786-7.074-2.358c-2.358-1.572-4.717-3.931-7.075-5.502c0,0,0,0,0-0.786L1472.352,519.6L1472.352,519.6"/>
	<path fill="#41B9B8" d="M1414.967,346.66c-5.502,16.508-0.786,31.443,4.717,47.165c3.145,9.434,7.074,18.08,7.861,28.3
		c1.571,12.577-2.359,24.368-9.434,34.588c-0.786,0.786-1.572,2.358-3.145,3.145c0.786-1.572,0.786-3.145,1.572-4.717
		c5.503-16.508,4.717-33.016-2.358-48.738c-3.144-7.86-6.288-14.936-7.86-23.582c-1.572-11.006,0.785-22.011,4.717-31.444
		C1413.395,349.803,1413.395,348.232,1414.967,346.66L1414.967,346.66"/>
	<path fill="#41B9B8" d="M1391.384,363.168c-0.786,3.145-0.786,7.074-1.571,10.219c0,7.861,2.357,14.936,4.716,22.797
		c2.358,7.075,4.717,13.363,5.503,20.438c1.572,10.219-1.572,18.866-7.861,26.728c0-0.786,0-0.786,0-1.572
		c4.717-13.364,3.145-26.728-2.357-39.305c-3.145-6.289-5.503-13.364-4.717-20.438
		C1385.882,375.745,1388.24,369.456,1391.384,363.168"/>
	<path fill="#41B9B8" d="M1440.122,444.135c0.786-3.931,1.572-7.075,2.358-10.22c1.572-8.646,0.786-17.294-2.358-25.941
		c-2.358-5.502-3.931-11.005-5.503-16.508c-3.145-10.219-0.786-19.652,3.931-29.085c0,0.786,0,0.786,0,1.572
		c-2.358,9.433-1.572,18.08,1.572,26.727c2.358,7.075,4.716,14.15,7.074,22.011C1450.341,423.697,1447.196,434.702,1440.122,444.135
		C1440.908,444.135,1440.122,444.135,1440.122,444.135"/>
</g>
<path fill="#005A7C" d="M1177.566,471.648l23.583,45.594H881.21l21.225-33.803l289.282-47.951L1177.566,471.648z M1233.379,458.285
	l42.449-77.823l-437.067,80.968l-58.171,85.684h503.886L1233.379,458.285z"/>
<polygon fill="#41B9B8" points="805.745,463.787 747.574,546.327 646.954,546.327 705.125,479.51 "/>
<path fill="#005A7C" d="M579.351,516.456H394.619l56.598-44.808L579.351,516.456z M672.109,479.51l-228.753-43.235l-136.78,109.267
	l307.362,0.786L672.109,479.51z"/>
<g>
	<path fill="#41B9B8" d="M1113.894,503.878c10.219,0,18.866-8.646,18.866-18.866c0-10.219-8.647-18.866-18.866-18.866
		c-10.22,0-18.866,8.647-18.866,18.866C1095.027,495.231,1103.674,503.878,1113.894,503.878"/>
	<path fill="#41B9B8" d="M1028.995,503.878c7.075,0,13.364-6.288,13.364-13.363s-6.289-13.363-13.364-13.363
		c-7.074,0-13.363,6.288-13.363,13.363C1016.418,497.59,1021.921,503.878,1028.995,503.878"/>
</g>
<polygon fill="#41B9B8" points="444.143,489.728 471.655,489.728 458.292,508.594 "/>
<g>
	<path fill="#41B9B8" d="M975.541,415.05c-47.166-66.032-124.203-109.267-210.673-109.267c-93.545,0-175.299,50.31-220.892,124.202
		l29.085,6.289c41.663-62.102,111.625-102.192,191.807-102.192c73.106,0,138.353,33.803,180.802,87.257L975.541,415.05z"/>
	<path fill="#005A7C" d="M51.882,566.765c0,0,166.652-241.33,432.352-167.438l-10.22-5.503
		c-99.047-71.534-237.4-68.39-334.089,14.936c-47.166,40.877-77.037,95.117-88.042,152.502V566.765z"/>
	<path fill="none" stroke="#005A7C" stroke-width="1.068" stroke-linecap="round" stroke-linejoin="round" d="M51.882,566.765
		c0,0,166.652-241.33,432.352-167.438l-10.22-5.503c-99.047-71.534-237.4-68.39-334.089,14.936
		c-47.166,40.877-77.037,95.117-88.042,152.502V566.765z"/>
	<path fill="#41B9B8" d="M3.931,448.851c0,0,128.919-187.09,334.875-129.705l-7.86-3.931C254.694,259.403,147,261.761,72.32,326.221
		c-36.946,32.229-59.743,73.893-68.39,117.914V448.851z"/>
	<path fill="none" stroke="#41B9B8" stroke-width="1.068" stroke-linecap="round" stroke-linejoin="round" d="M3.931,448.851
		c0,0,128.919-187.09,334.875-129.705l-7.86-3.931C254.694,259.403,147,261.761,72.32,326.221
		c-36.946,32.229-59.743,73.893-68.39,117.914V448.851z"/>
	<path fill="#005A7C" d="M753.077,433.916c18.866,0,34.588-15.722,34.588-34.588s-15.722-34.588-34.588-34.588
		s-34.589,15.722-34.589,34.588S734.211,433.916,753.077,433.916"/>
</g>
<rect x="645.114" y="397.684" transform="matrix(0.7072 0.707 -0.707 0.7072 486.5508 -346.4976)" fill="#005A7C" width="33.015" height="33.015"/>
<rect x="834.589" y="386.412" transform="matrix(0.7072 0.707 -0.707 0.7072 534.0765 -483.7643)" fill="#005A7C" width="33.016" height="33.015"/>
<polygon fill="#41B9B8" points="334.089,420.552 358.458,444.922 343.522,458.285 318.368,436.274 "/>
<polygon fill="#41B9B8" points="305.004,445.707 330.159,470.076 314.437,483.439 290.068,461.429 "/>
<polygon fill="#41B9B8" points="275.918,471.648 301.073,496.017 285.352,509.381 260.983,486.584 "/>
<polygon fill="#41B9B8" points="246.833,502.305 271.202,526.675 255.48,540.039 231.111,518.028 "/>
<path fill="#005A7C" d="M1657.084,471.648l-23.583,45.594h319.939l-21.225-33.803l-290.068-47.165L1657.084,471.648z
	 M1601.271,458.285l-42.448-77.823l437.067,80.968l58.171,85.684h-503.886L1601.271,458.285z"/>
<polygon fill="#41B9B8" points="2028.905,463.787 2087.076,546.327 2186.91,546.327 2129.525,479.51 "/>
<path fill="#005A7C" d="M2255.3,516.456h184.731l-56.599-44.808L2255.3,516.456z M2162.541,479.51l228.753-43.235l136.78,109.267
	l-307.362,0.786L2162.541,479.51z"/>
<g>
	<path fill="#41B9B8" d="M1719.971,503.878c-10.219,0-18.866-8.646-18.866-18.866c0-10.219,8.647-18.866,18.866-18.866
		c10.22,0,18.866,8.647,18.866,18.866C1738.837,495.231,1730.977,503.878,1719.971,503.878"/>
	<path fill="#41B9B8" d="M1804.869,503.878c-7.075,0-13.363-6.288-13.363-13.363s6.288-13.363,13.363-13.363
		c7.074,0,13.363,6.288,13.363,13.363S1812.729,503.878,1804.869,503.878"/>
</g>
<polygon fill="#41B9B8" points="2390.508,489.728 2362.994,489.728 2376.358,508.594 "/>
<g>
	<path fill="#41B9B8" d="M1858.323,415.05c47.165-66.032,124.202-109.267,210.673-109.267c93.545,0,175.299,50.31,220.892,124.202
		l-29.085,6.289c-41.663-62.102-111.625-102.192-191.807-102.192c-73.107,0-138.353,33.803-180.802,87.257L1858.323,415.05z"/>
	<path fill="#005A7C" d="M2781.982,566.765c0,0-166.652-241.33-432.352-167.438l10.219-5.503
		c99.049-71.534,237.4-68.39,334.09,14.936c47.166,40.877,77.037,95.117,88.043,152.502V566.765z"/>
	<path fill="none" stroke="#005A7C" stroke-width="1.068" stroke-linecap="round" stroke-linejoin="round" d="M2781.982,566.765
		c0,0-166.652-241.33-432.352-167.438l10.219-5.503c99.049-71.534,237.4-68.39,334.09,14.936
		c47.166,40.877,77.037,95.117,88.043,152.502V566.765z"/>
	<path fill="#41B9B8" d="M2829.934,448.851c0,0-128.919-187.09-334.875-129.705l7.86-3.931
		c77.037-55.026,183.946-52.668,258.625,11.792c36.946,32.229,59.743,73.893,68.39,117.914V448.851z"/>
	<path fill="none" stroke="#41B9B8" stroke-width="1.068" stroke-linecap="round" stroke-linejoin="round" d="M2829.934,448.851
		c0,0-128.919-187.09-334.875-129.705l7.86-3.931c77.037-55.026,183.946-52.668,258.625,11.792
		c36.946,32.229,59.743,73.893,68.39,117.914V448.851z"/>
	<path fill="#005A7C" d="M2081.573,433.916c-18.866,0-34.588-15.722-34.588-34.588s15.722-34.588,34.588-34.588
		s34.588,15.722,34.588,34.588C2116.162,418.194,2100.439,433.916,2081.573,433.916"/>
</g>
<rect x="2156.469" y="398.441" transform="matrix(-0.7072 0.707 -0.707 -0.7072 4003.124 -827.8588)" fill="#005A7C" width="33.016" height="33.015"/>
<rect x="1967.139" y="387.433" transform="matrix(-0.7072 0.707 -0.707 -0.7072 3672.0659 -712.8674)" fill="#005A7C" width="33.016" height="33.016"/>
<polygon fill="#41B9B8" points="2499.775,420.552 2475.406,444.922 2491.128,458.285 2515.496,436.274 "/>
<polygon fill="#41B9B8" points="2528.86,445.707 2504.491,470.076 2520.213,483.439 2544.582,461.429 "/>
<polygon fill="#41B9B8" points="2557.945,471.648 2533.576,496.017 2549.299,509.381 2573.668,486.584 "/>
<polygon fill="#41B9B8" points="2587.817,502.305 2562.662,526.675 2578.384,540.039 2602.753,518.028 "/>
</svg>
