<?xml version="1.0" encoding="utf-8"?>
<!-- Generator: Adobe Illustrator 15.1.0, SVG Export Plug-In . SVG Version: 6.00 Build 0)  -->
<!DOCTYPE svg PUBLIC "-//W3C//DTD SVG 1.1//EN" "http://www.w3.org/Graphics/SVG/1.1/DTD/svg11.dtd">
<svg version="1.1" id="Ebene_1" xmlns="http://www.w3.org/2000/svg" xmlns:xlink="http://www.w3.org/1999/xlink" x="0px" y="0px"
	 width="2834.65px" height="292.459px" viewBox="0 274.834 2834.65 292.459" enable-background="new 0 274.834 2834.65 292.459"
	 xml:space="preserve">
<g>
	<path fill="#005A7C" d="M1371.172,421.34c8.679,5.522,11.835,18.935,11.046,29.19c-9.468-1.577-19.724-3.155-29.979-4.733
		C1359.338,437.119,1365.65,429.229,1371.172,421.34 M1387.74,401.616c5.522,17.357,11.045,34.714,17.356,52.07
		c-4.733-0.789-9.468-0.789-14.201-1.578c1.578-14.989-3.944-27.612-14.2-37.869C1380.64,410.295,1383.795,405.561,1387.74,401.616
		 M1394.841,397.672c0.789,0,0.789,0,1.577,0c19.724,0,38.658,0,58.382,0c0.789,0,1.577,0.789,1.577,0.789c0,0.789,0,2.367,0,2.367
		c-3.944,4.733-7.889,9.467-12.623,14.2c-8.678,10.257-17.355,19.724-26.034,29.19c-0.789,0.789-0.789,0.789-1.578,1.578
		c0-1.578,0-3.155,0-4.733c2.367-0.789,2.367-0.789,2.367-3.155c-2.367,0-3.944,0-6.312,0c-1.578,0-1.578,0.788-1.578,2.366
		c0,0.789,0.789,0.789,1.578,1.578c0,0.789,0,2.366-0.789,3.155c0,0,0,0-0.789,0
		C1405.097,429.229,1400.363,413.451,1394.841,397.672 M1381.429,458.42c-3.944,13.412-14.989,25.246-32.347,26.035
		c-15.778,0.789-29.979-9.468-34.713-23.668c-6.312-16.568,0.789-33.925,14.201-41.813c12.623-8.679,29.979-5.522,37.869-0.789
		c-0.789,1.577-1.578,2.366-3.156,3.944c-3.156,4.733-7.101,9.468-10.256,14.201c-2.367,3.155-3.945,6.312-7.89,8.678
		c-2.367,1.578-3.155,3.156-2.367,5.522c0,1.578,1.578,2.367,3.945,2.367c3.155,0,6.312,0.789,9.467,0.789
		c4.733,0.789,9.468,2.367,14.201,3.155C1373.539,456.842,1377.484,457.631,1381.429,458.42 M1471.367,418.184
		c14.99-10.257,38.658-5.522,48.914,11.834c9.468,16.567,4.734,38.657-13.412,48.914c-17.356,9.467-39.446,3.155-48.914-14.99
		c-4.733-8.678-4.733-17.356-1.577-26.823c1.577-5.522,5.522-10.257,9.467-14.99c0.789,0.789,0.789,1.578,0.789,2.367
		c3.155,7.889,7.89,14.2,14.201,19.723c1.577,1.578,3.944,2.367,3.944,5.523c0,1.577,3.156,3.155,4.734,2.366
		c2.366,0,3.155-1.578,3.944-3.155c0.789-2.367,0-3.945-2.367-4.734c-1.577-0.788-3.155-1.577-3.944-2.366
		c-4.734-3.944-8.679-8.679-11.834-14.201C1473.734,424.496,1472.156,421.34,1471.367,418.184 M1303.324,452.897
		c0.789,2.367,0.789,3.944,1.577,6.312c4.733,17.356,16.568,28.401,33.925,32.347c11.045,2.366,21.301,0.789,30.769-5.522
		c5.522-3.945,10.256-8.679,14.2-14.99c1.578-3.155,3.156-7.101,4.734-10.256c0.789-0.789,0.789-1.578,2.366-1.578
		c3.156,0.789,7.101,0.789,9.468,1.578s3.155,3.155,5.522,3.944c0,0,0,0,0,0.789c-0.789,3.155-1.578,6.312-2.367,8.679
		c0,0.788-1.577,0.788-1.577,1.577c-0.789,0.789-0.789,0.789-1.578,1.578c0.789,0.789,0.789,1.578,1.578,1.578
		c2.366,0,4.733,0.789,7.1,0c0.789,0,1.578-0.789,1.578-1.578s-0.789-1.578-0.789-1.578h-0.789c0.789-3.155,1.578-7.1,2.367-10.256
		c0-0.789,0.789-0.789,0.789-0.789c3.155-1.578,5.522-3.155,4.733-7.101c0-0.789,0-0.789,0.789-1.577
		c9.468-10.257,18.935-21.302,27.612-31.558c4.734-4.734,8.679-10.257,13.412-14.99c0-0.789,0.789-0.789,1.578-1.578
		c0.789,1.578,1.578,3.156,1.578,3.945s0,1.578-0.789,1.578c-2.367,3.155-5.522,5.522-7.89,8.678
		c-4.733,6.312-7.101,12.623-7.89,20.513c-0.789,11.834,1.578,22.879,8.679,31.558c7.101,8.678,15.778,14.2,26.823,15.778
		c20.513,3.944,41.025-7.89,48.126-27.612c1.577-3.945,2.366-7.89,3.155-11.835v-8.678c-0.789-2.367-0.789-3.944-1.578-6.312
		c-3.944-14.99-13.411-26.035-28.401-30.769c-11.045-3.944-22.091-3.156-32.347,1.578c-0.789,0-0.789,0.789-1.578,0.789
		c-3.944-10.257-7.889-19.724-11.045-29.98c2.367,0.789,4.734,2.367,6.313,2.367c2.366,0.789,4.733,0,7.1,0
		c0.789,0,1.578-0.789,1.578-0.789c1.578-4.733,2.367-8.678,0.789-13.412c0-0.788-0.789-1.577-1.578-1.577
		c-3.944-0.789-7.101-0.789-10.256,0.789c-0.789,0.788-1.578,0-2.367-0.789c-1.578-2.367-3.944-4.734-6.312-6.312
		c-0.789-0.789-1.577-0.789-2.366-0.789c-4.734,0-8.679,0-13.412,0c-1.578,0-2.367,0.789-1.578,1.578v0.788
		c0,1.578,0,2.367,1.578,1.578c2.366,0,5.522,0,7.889,0c2.367,0,4.734,0.789,6.313,1.578c1.577,0.789,1.577,1.578,0.788,3.155
		c-3.155,3.945-2.366,7.101-0.788,11.834c0.788,2.367,1.577,5.523,2.366,8.679c-0.789,0-1.578,0-1.578,0
		c-18.935,0-37.868,0-56.015,0c-3.155,0-3.155,0-3.944-2.367c5.522-2.366,11.834-1.577,16.567-7.889
		c-1.577-0.789-3.155-0.789-4.733-1.578c-3.155,0-6.312-0.789-9.467-0.789c-6.312,0-13.412-0.789-19.724-0.789
		c-1.578,0-3.156,0-5.522,0.789c0.789,3.156,2.366,5.522,5.522,7.101c2.367,0.789,4.733,1.578,7.101,2.367
		c1.577,0.788,2.366,1.577,3.155,2.366c1.578,2.367,0.789,4.733-0.789,7.101c-3.944,4.733-7.889,9.467-11.045,14.201l-0.789,0.789
		c-3.155-1.578-6.312-2.367-8.678-3.945c-7.89-2.366-14.99-3.155-22.88-1.578c-10.256,2.367-18.935,7.101-26.034,15.779
		c-5.523,6.312-7.89,14.201-9.468,22.09v0.789v12.623H1303.324z"/>
</g>
<path fill="#41B9B8" d="M1177.883,471.832l23.668,45.759H880.454l21.301-33.925l290.329-48.125L1177.883,471.832z M1233.897,458.42
	l42.603-78.104l-438.649,81.261L779.47,547.57h505.708L1233.897,458.42z"/>
<polygon fill="#005A7C" points="803.927,463.942 746.334,546.781 645.351,546.781 703.731,479.721 "/>
<path fill="#41B9B8" d="M577.502,516.012H391.313l56.804-44.97L577.502,516.012z M669.808,479.721L440.227,436.33L302.952,545.203
	l308.474,0.789L669.808,479.721z"/>
<g>
	<path fill="#005A7C" d="M1113.979,504.178c10.257,0,18.935-8.679,18.935-18.935c0-10.257-8.678-18.935-18.935-18.935
		c-10.256,0-18.934,8.678-18.934,18.935C1095.045,495.5,1103.723,504.178,1113.979,504.178"/>
	<path fill="#005A7C" d="M1028.773,504.178c7.101,0,13.412-6.312,13.412-13.412s-6.312-13.412-13.412-13.412
		c-7.1,0-13.412,6.312-13.412,13.412S1021.674,504.178,1028.773,504.178"/>
</g>
<polygon fill="#005A7C" points="441.805,489.188 468.629,489.188 455.217,508.123 "/>
<g>
	<path fill="#005A7C" d="M975.126,414.239c-47.336-66.271-124.652-109.662-211.435-109.662
		c-93.884,0-175.934,50.492-221.691,124.652l29.19,6.312c41.813-62.326,112.029-102.562,192.501-102.562
		c73.371,0,138.853,33.924,181.455,87.571L975.126,414.239z"/>
	<path fill="#41B9B8" d="M48.125,567.293c0,0,167.255-242.203,433.915-168.043l-10.256-5.522
		c-99.406-71.794-238.259-68.638-335.298,14.989C89.15,449.742,59.17,504.178,48.125,561.77V567.293z"/>
	<path fill="#005A7C" d="M0,448.164c0,0,129.386-186.979,336.087-130.175l-7.889-3.944c-77.316-55.227-184.611-52.859-259.56,11.834
		C31.558,358.224,8.678,400.039,0,444.219V448.164z"/>
	<path fill="#41B9B8" d="M751.857,433.963c18.934,0,34.713-15.778,34.713-34.713s-15.779-34.714-34.713-34.714
		c-18.935,0-34.714,15.779-34.714,34.714S732.134,433.963,751.857,433.963"/>
</g>
<rect x="643.23" y="398.074" transform="matrix(0.7072 0.707 -0.707 0.7072 486.335 -345.0762)" fill="#41B9B8" width="33.135" height="33.135"/>
<rect x="833.391" y="386.762" transform="matrix(0.7072 0.707 -0.707 0.7072 534.0146 -482.8329)" fill="#41B9B8" width="33.135" height="33.135"/>
<polygon fill="#005A7C" points="331.354,420.551 355.811,445.008 340.032,458.42 315.575,435.541 "/>
<polygon fill="#005A7C" points="302.163,445.797 326.62,470.254 310.841,483.666 286.384,461.576 "/>
<polygon fill="#005A7C" points="272.972,471.043 297.429,495.5 281.65,508.912 257.193,486.822 "/>
<polygon fill="#005A7C" points="243.781,501.811 268.238,527.057 252.46,540.469 228.003,517.591 "/>
<path fill="#41B9B8" d="M1656.768,471.832l-23.668,45.759h321.098l-21.302-33.925l-291.118-48.125L1656.768,471.832z
	 M1600.753,458.42l-42.603-78.104l438.649,81.261l58.381,85.994h-505.708L1600.753,458.42z"/>
<polygon fill="#005A7C" points="2029.935,463.942 2088.316,546.781 2189.3,546.781 2130.919,479.721 "/>
<path fill="#41B9B8" d="M2257.148,516.012h185.4l-56.804-44.97L2257.148,516.012z M2164.843,479.721l229.581-43.392l137.275,109.662
	l-308.475,0.789L2164.843,479.721z"/>
<g>
	<path fill="#005A7C" d="M1720.672,504.178c-10.257,0-18.935-8.679-18.935-18.935c0-10.257,8.679-18.935,18.935-18.935
		s18.934,8.678,18.934,18.935C1739.605,495.5,1730.928,504.178,1720.672,504.178"/>
	<path fill="#005A7C" d="M1805.877,504.178c-7.101,0-13.412-6.312-13.412-13.412s6.312-13.412,13.412-13.412
		c7.1,0,13.412,6.312,13.412,13.412S1812.977,504.178,1805.877,504.178"/>
</g>
<polygon fill="#005A7C" points="2392.846,489.188 2366.021,489.188 2379.434,508.123 "/>
<g>
	<path fill="#005A7C" d="M1859.524,414.239c47.336-66.271,124.652-109.662,211.435-109.662c93.884,0,175.934,50.492,221.691,124.652
		l-29.19,6.312c-41.813-62.326-112.029-102.562-192.501-102.562c-73.371,0-138.853,33.924-181.455,87.571L1859.524,414.239z"/>
	<path fill="#41B9B8" d="M2786.525,567.293c0,0-167.255-242.203-433.915-168.043l10.256-5.522
		c99.406-71.794,238.259-68.638,335.298,14.989c47.336,41.025,77.316,95.462,88.361,153.054V567.293z"/>
	<path fill="#005A7C" d="M2834.65,448.164c0,0-129.386-187.768-336.087-130.175l7.89-3.944
		c77.315-55.227,184.61-52.859,259.56,11.834c37.08,32.346,59.959,74.16,68.638,118.34V448.164z"/>
	<path fill="#41B9B8" d="M2082.793,433.963c-18.934,0-34.713-15.778-34.713-34.713s15.779-34.714,34.713-34.714
		c18.936,0,34.714,15.779,34.714,34.714S2101.729,433.963,2082.793,433.963"/>
</g>
<rect x="2158.271" y="397.463" transform="matrix(-0.7072 0.707 -0.707 -0.7072 4005.627 -830.7815)" fill="#41B9B8" width="33.135" height="33.135"/>
<rect x="1968.255" y="386.416" transform="matrix(-0.7072 0.707 -0.707 -0.7072 3673.4199 -715.2992)" fill="#41B9B8" width="33.135" height="33.135"/>
<polygon fill="#005A7C" points="2503.297,420.551 2478.84,445.008 2494.619,458.42 2519.076,435.541 "/>
<polygon fill="#005A7C" points="2532.487,445.797 2508.03,470.254 2523.81,483.666 2548.267,461.576 "/>
<polygon fill="#005A7C" points="2561.679,471.043 2537.221,495.5 2552.211,508.912 2577.457,486.822 "/>
<polygon fill="#005A7C" points="2590.869,501.811 2566.412,527.057 2582.19,540.469 2606.647,517.591 "/>
</svg>
