<?xml version="1.0" encoding="utf-8"?>
<!-- Generator: Adobe Illustrator 15.1.0, SVG Export Plug-In . SVG Version: 6.00 Build 0)  -->
<!DOCTYPE svg PUBLIC "-//W3C//DTD SVG 1.1//EN" "http://www.w3.org/Graphics/SVG/1.1/DTD/svg11.dtd">
<svg version="1.1" id="Ebene_1" xmlns="http://www.w3.org/2000/svg" xmlns:xlink="http://www.w3.org/1999/xlink" x="0px" y="0px"
	 width="2827.071px" height="292.356px" viewBox="3.396 274.943 2827.071 292.356"
	 enable-background="new 3.396 274.943 2827.071 292.356" xml:space="preserve">
<g>
	<path fill="#41B9B8" d="M1435.405,521.958c-17.294-5.502-23.583-18.866-25.94-36.16c-2.359-16.508-5.503-33.016-11.792-48.737
		c-1.572-3.931-3.145-7.075-5.503-10.22c-8.646-12.577-7.86-24.368,4.717-34.588c10.219-8.646,22.011-12.577,35.374-13.363
		c3.145,0,6.289,0,9.434,0.786c7.074,2.358,11.791,7.075,11.791,14.936c0.786,11.006,0,21.225-3.145,32.229
		c-3.931,15.723-3.931,30.658,1.572,46.38c2.358,6.289,4.717,12.577,5.503,18.866c0.786,4.717,0,10.219-0.786,14.936
		c-1.572,8.647-7.861,13.364-16.508,14.936H1435.405L1435.405,521.958z"/>
	<path fill="#41B9B8" d="M1444.053,349.017c7.86,4.717,11.005,14.937,6.288,23.583c-1.572,3.145-3.931,5.503-7.86,5.503
		c-3.931,0-6.289-2.358-7.861-5.503c-4.717-8.646-2.358-18.866,6.289-23.583H1444.053z"/>
	<path fill="#41B9B8" d="M1376.448,387.537c2.358-3.931,5.503-4.717,8.647-1.572c3.93,3.144,5.502,9.433,2.358,11.791
		c-1.572,0.786-3.931,1.572-5.503,0.786c-2.358-1.572-3.931-3.931-6.289-6.289v-4.716H1376.448z"/>
	<path fill="#41B9B8" d="M1429.902,367.098c0,0.786,0,1.571,0,2.357c-0.786,3.145-2.358,6.289-6.289,7.075
		c-3.93,0.786-6.288-2.358-7.074-5.503c-0.786-3.144-0.786-7.074,0-10.219c0.786-1.572,3.145-3.931,4.717-3.931
		c2.358,0,4.717,1.572,6.289,3.145C1429.116,361.595,1429.116,364.74,1429.902,367.098L1429.902,367.098"/>
	<path fill="#41B9B8" d="M1399.245,371.814c0-3.93,0.786-7.86,4.717-8.646s6.288,1.572,7.86,4.717
		c1.572,3.144,1.572,7.074,1.572,10.219c-0.786,4.717-6.289,6.289-9.433,3.145C1400.817,378.889,1399.245,374.959,1399.245,371.814"
		/>
	<path fill="#41B9B8" d="M1401.604,383.606c-1.572,2.358-3.145,5.502-4.717,5.502c-1.572,0.786-5.503-0.786-7.074-2.357
		c-3.145-3.145-3.931-6.289-2.359-11.006c1.572-3.931,4.717-5.503,7.861-3.145S1400.031,378.889,1401.604,383.606"/>
</g>
<path fill="#005A7C" d="M1177.566,471.648l23.583,45.594H881.21l21.225-33.803l289.282-47.951L1177.566,471.648z M1233.379,458.285
	l42.449-77.823l-437.067,80.968l-58.171,85.684h503.886L1233.379,458.285z"/>
<polygon fill="#41B9B8" points="805.745,463.787 747.574,546.327 646.954,546.327 705.125,479.51 "/>
<path fill="#005A7C" d="M579.351,516.456H394.619l56.598-44.808L579.351,516.456z M672.109,479.51l-228.753-43.235l-136.78,109.267
	l307.362,0.786L672.109,479.51z"/>
<g>
	<path fill="#41B9B8" d="M1113.894,503.878c10.219,0,18.866-8.646,18.866-18.866c0-10.219-8.647-18.866-18.866-18.866
		c-10.22,0-18.866,8.647-18.866,18.866C1095.027,495.231,1103.674,503.878,1113.894,503.878"/>
	<path fill="#41B9B8" d="M1028.995,503.878c7.075,0,13.364-6.288,13.364-13.363s-6.289-13.363-13.364-13.363
		c-7.074,0-13.363,6.288-13.363,13.363C1016.418,497.59,1021.921,503.878,1028.995,503.878"/>
</g>
<polygon fill="#41B9B8" points="444.143,489.728 471.655,489.728 458.292,508.594 "/>
<g>
	<path fill="#41B9B8" d="M975.541,415.05c-47.166-66.032-124.203-109.267-210.673-109.267c-93.545,0-175.299,50.31-220.892,124.202
		l29.085,6.289c41.663-62.102,111.625-102.192,191.807-102.192c73.106,0,138.353,33.803,180.802,87.257L975.541,415.05z"/>
	<path fill="#005A7C" d="M51.882,566.765c0,0,166.652-241.33,432.352-167.438l-10.22-5.503
		c-99.047-71.534-237.4-68.39-334.089,14.936c-47.166,40.877-77.037,95.117-88.042,152.502V566.765z"/>
	<path fill="none" stroke="#005A7C" stroke-width="1.068" stroke-linecap="round" stroke-linejoin="round" d="M51.882,566.765
		c0,0,166.652-241.33,432.352-167.438l-10.22-5.503c-99.047-71.534-237.4-68.39-334.089,14.936
		c-47.166,40.877-77.037,95.117-88.042,152.502V566.765z"/>
	<path fill="#41B9B8" d="M3.931,448.851c0,0,128.919-187.09,334.875-129.705l-7.86-3.931C254.694,259.403,147,261.761,72.32,326.221
		c-36.946,32.229-59.743,73.893-68.39,117.914V448.851z"/>
	<path fill="none" stroke="#41B9B8" stroke-width="1.068" stroke-linecap="round" stroke-linejoin="round" d="M3.931,448.851
		c0,0,128.919-187.09,334.875-129.705l-7.86-3.931C254.694,259.403,147,261.761,72.32,326.221
		c-36.946,32.229-59.743,73.893-68.39,117.914V448.851z"/>
	<path fill="#005A7C" d="M753.077,433.916c18.866,0,34.588-15.722,34.588-34.588s-15.722-34.588-34.588-34.588
		s-34.589,15.722-34.589,34.588S734.211,433.916,753.077,433.916"/>
</g>
<rect x="645.113" y="397.684" transform="matrix(0.7072 0.707 -0.707 0.7072 486.5509 -346.4967)" fill="#005A7C" width="33.015" height="33.016"/>
<rect x="834.589" y="386.412" transform="matrix(0.7072 0.707 -0.707 0.7072 534.0765 -483.7643)" fill="#005A7C" width="33.016" height="33.015"/>
<polygon fill="#41B9B8" points="334.089,420.552 358.458,444.922 343.522,458.285 318.368,436.274 "/>
<polygon fill="#41B9B8" points="305.004,445.707 330.159,470.076 314.437,483.439 290.068,461.429 "/>
<polygon fill="#41B9B8" points="275.918,471.648 301.073,496.017 285.352,509.381 260.983,486.584 "/>
<polygon fill="#41B9B8" points="246.833,502.305 271.202,526.675 255.48,540.039 231.111,518.028 "/>
<path fill="#005A7C" d="M1657.084,471.648l-23.583,45.594h319.939l-21.225-33.803l-290.068-47.165L1657.084,471.648z
	 M1601.271,458.285l-42.448-77.823l437.067,80.968l58.171,85.684h-503.886L1601.271,458.285z"/>
<polygon fill="#41B9B8" points="2028.905,463.787 2087.076,546.327 2186.91,546.327 2129.525,479.51 "/>
<path fill="#005A7C" d="M2255.3,516.456h184.731l-56.599-44.808L2255.3,516.456z M2162.541,479.51l228.753-43.235l136.78,109.267
	l-307.362,0.786L2162.541,479.51z"/>
<g>
	<path fill="#41B9B8" d="M1719.971,503.878c-10.219,0-18.866-8.646-18.866-18.866c0-10.219,8.647-18.866,18.866-18.866
		c10.22,0,18.866,8.647,18.866,18.866C1738.837,495.231,1730.977,503.878,1719.971,503.878"/>
	<path fill="#41B9B8" d="M1804.869,503.878c-7.075,0-13.363-6.288-13.363-13.363s6.288-13.363,13.363-13.363
		c7.074,0,13.363,6.288,13.363,13.363S1812.729,503.878,1804.869,503.878"/>
</g>
<polygon fill="#41B9B8" points="2390.508,489.728 2362.994,489.728 2376.358,508.594 "/>
<g>
	<path fill="#41B9B8" d="M1858.323,415.05c47.165-66.032,124.202-109.267,210.673-109.267c93.545,0,175.299,50.31,220.892,124.202
		l-29.085,6.289c-41.663-62.102-111.625-102.192-191.807-102.192c-73.107,0-138.353,33.803-180.802,87.257L1858.323,415.05z"/>
	<path fill="#005A7C" d="M2781.982,566.765c0,0-166.652-241.33-432.352-167.438l10.219-5.503
		c99.049-71.534,237.4-68.39,334.09,14.936c47.166,40.877,77.037,95.117,88.043,152.502V566.765z"/>
	<path fill="none" stroke="#005A7C" stroke-width="1.068" stroke-linecap="round" stroke-linejoin="round" d="M2781.982,566.765
		c0,0-166.652-241.33-432.352-167.438l10.219-5.503c99.049-71.534,237.4-68.39,334.09,14.936
		c47.166,40.877,77.037,95.117,88.043,152.502V566.765z"/>
	<path fill="#41B9B8" d="M2829.934,448.851c0,0-128.919-187.09-334.875-129.705l7.86-3.931
		c77.037-55.026,183.946-52.668,258.625,11.792c36.946,32.229,59.743,73.893,68.39,117.914V448.851z"/>
	<path fill="none" stroke="#41B9B8" stroke-width="1.068" stroke-linecap="round" stroke-linejoin="round" d="M2829.934,448.851
		c0,0-128.919-187.09-334.875-129.705l7.86-3.931c77.037-55.026,183.946-52.668,258.625,11.792
		c36.946,32.229,59.743,73.893,68.39,117.914V448.851z"/>
	<path fill="#005A7C" d="M2081.573,433.916c-18.866,0-34.588-15.722-34.588-34.588s15.722-34.588,34.588-34.588
		s34.588,15.722,34.588,34.588C2116.162,418.194,2100.439,433.916,2081.573,433.916"/>
</g>
<rect x="2156.469" y="398.441" transform="matrix(-0.7072 0.707 -0.707 -0.7072 4003.124 -827.8588)" fill="#005A7C" width="33.016" height="33.015"/>
<rect x="1967.139" y="387.433" transform="matrix(-0.7072 0.707 -0.707 -0.7072 3672.0659 -712.8674)" fill="#005A7C" width="33.016" height="33.016"/>
<polygon fill="#41B9B8" points="2499.775,420.552 2475.406,444.922 2491.128,458.285 2515.496,436.274 "/>
<polygon fill="#41B9B8" points="2528.86,445.707 2504.491,470.076 2520.213,483.439 2544.582,461.429 "/>
<polygon fill="#41B9B8" points="2557.945,471.648 2533.576,496.017 2549.299,509.381 2573.668,486.584 "/>
<polygon fill="#41B9B8" points="2587.817,502.305 2562.662,526.675 2578.384,540.039 2602.753,518.028 "/>
</svg>
