<?xml version="1.0" encoding="utf-8"?>
<!-- Generator: Adobe Illustrator 15.1.0, SVG Export Plug-In . SVG Version: 6.00 Build 0)  -->
<!DOCTYPE svg PUBLIC "-//W3C//DTD SVG 1.1//EN" "http://www.w3.org/Graphics/SVG/1.1/DTD/svg11.dtd">
<svg version="1.1" id="Ebene_1" xmlns="http://www.w3.org/2000/svg" xmlns:xlink="http://www.w3.org/1999/xlink" x="0px" y="0px"
	 width="2834.65px" height="292.459px" viewBox="0 274.834 2834.65 292.459" enable-background="new 0 274.834 2834.65 292.459"
	 xml:space="preserve">
<g>
	<path fill="#005A7C" d="M1361.705,504.968c-5.522,0-9.467-3.945-9.467-9.468s4.733-9.467,9.467-9.467
		c5.522,0,9.467,3.944,9.467,9.467S1366.438,504.968,1361.705,504.968 M1361.705,476.565c-11.045,0-18.935,8.679-18.935,18.935
		s8.679,18.935,18.935,18.935s18.935-8.679,18.935-18.935C1380.64,484.455,1371.961,476.565,1361.705,476.565"/>
	<path fill="#005A7C" d="M1483.99,504.968c-5.522,0-9.467-3.945-9.467-9.468s3.944-9.467,9.467-9.467s9.468,3.944,9.468,9.467
		C1494.246,501.022,1489.513,504.968,1483.99,504.968 M1483.99,476.565c-10.256,0-18.935,8.679-18.935,18.935
		s8.679,18.935,18.935,18.935s18.935-8.679,18.935-18.935C1503.714,484.455,1495.035,476.565,1483.99,476.565"/>
	<path fill="#005A7C" d="M1461.111,443.43v-36.291h11.834c3.944,0,9.467,3.155,11.045,7.1l14.201,29.191H1461.111z M1449.277,443.43
		h-41.025v-36.291h41.025V443.43z M1402.73,443.43h-41.025v-36.291h41.025V443.43z M1355.394,443.43h-41.024v-36.291h41.024V443.43z
		 M1510.814,443.43l-17.356-33.925c-3.156-6.312-11.046-11.045-18.146-11.045h-157.788c-7.101,0-12.623,5.522-12.623,12.623v90.728
		h33.136c-0.789-1.578-0.789-3.944-0.789-6.312c0-13.412,11.045-23.668,23.668-23.668c13.412,0,23.668,11.045,23.668,23.668
		c0,2.367,0,3.944-0.789,6.312h77.316c-0.789-1.578-0.789-3.944-0.789-6.312c0-13.412,10.256-23.668,23.668-23.668
		s23.668,11.045,23.668,23.668c0,2.367,0,3.944-0.789,6.312h33.136v-26.824C1540.005,467.887,1529.749,445.797,1510.814,443.43"/>
</g>
<path fill="#41B9B8" d="M1177.883,471.832l23.668,45.759H880.454l21.301-33.925l290.329-48.125L1177.883,471.832z M1233.897,458.42
	l42.603-78.104l-438.649,81.261L779.47,547.57h505.708L1233.897,458.42z"/>
<polygon fill="#005A7C" points="803.927,463.942 746.334,546.781 645.351,546.781 703.731,479.721 "/>
<path fill="#41B9B8" d="M577.502,516.012H391.313l56.804-44.97L577.502,516.012z M669.808,479.721L440.227,436.33L302.952,545.203
	l308.474,0.789L669.808,479.721z"/>
<g>
	<path fill="#005A7C" d="M1113.979,504.178c10.257,0,18.935-8.679,18.935-18.935c0-10.257-8.678-18.935-18.935-18.935
		c-10.256,0-18.934,8.678-18.934,18.935C1095.045,495.5,1103.723,504.178,1113.979,504.178"/>
	<path fill="#005A7C" d="M1028.773,504.178c7.101,0,13.412-6.312,13.412-13.412s-6.312-13.412-13.412-13.412
		c-7.1,0-13.412,6.312-13.412,13.412S1021.674,504.178,1028.773,504.178"/>
</g>
<polygon fill="#005A7C" points="441.805,489.188 468.629,489.188 455.217,508.123 "/>
<g>
	<path fill="#005A7C" d="M975.126,414.239c-47.336-66.271-124.652-109.662-211.435-109.662
		c-93.884,0-175.934,50.492-221.691,124.652l29.19,6.312c41.813-62.326,112.029-102.562,192.501-102.562
		c73.371,0,138.853,33.924,181.455,87.571L975.126,414.239z"/>
	<path fill="#41B9B8" d="M48.125,567.293c0,0,167.255-242.203,433.915-168.043l-10.256-5.522
		c-99.406-71.794-238.259-68.638-335.298,14.989C89.15,449.742,59.17,504.178,48.125,561.77V567.293z"/>
	<path fill="#005A7C" d="M0,448.164c0,0,129.386-186.979,336.087-130.175l-7.889-3.944c-77.316-55.227-184.611-52.859-259.56,11.834
		C31.558,358.224,8.678,400.039,0,444.219V448.164z"/>
	<path fill="#41B9B8" d="M751.857,433.963c18.934,0,34.713-15.778,34.713-34.713s-15.779-34.714-34.713-34.714
		c-18.935,0-34.714,15.779-34.714,34.714S732.923,433.963,751.857,433.963"/>
</g>
<rect x="643.235" y="398.069" transform="matrix(0.7072 0.707 -0.707 0.7072 486.3172 -345.0775)" fill="#41B9B8" width="33.135" height="33.135"/>
<rect x="833.396" y="386.758" transform="matrix(0.7072 0.707 -0.707 0.7072 534.0134 -482.8375)" fill="#41B9B8" width="33.135" height="33.135"/>
<polygon fill="#005A7C" points="331.354,420.551 355.811,445.008 340.032,458.42 315.575,435.541 "/>
<polygon fill="#005A7C" points="302.163,445.797 326.62,470.254 310.841,483.666 286.384,461.576 "/>
<polygon fill="#005A7C" points="272.972,471.043 297.429,495.5 281.65,508.912 257.193,486.822 "/>
<polygon fill="#005A7C" points="243.781,501.811 268.238,527.057 252.46,540.469 228.003,517.591 "/>
<path fill="#41B9B8" d="M1656.768,471.832l-23.668,45.759h321.098l-21.302-33.925l-291.118-48.125L1656.768,471.832z
	 M1600.753,458.42l-42.603-78.104l438.649,81.261l58.381,85.994h-505.708L1600.753,458.42z"/>
<polygon fill="#005A7C" points="2029.935,463.942 2088.316,546.781 2189.3,546.781 2130.919,479.721 "/>
<path fill="#41B9B8" d="M2257.148,516.012h185.4l-56.804-44.97L2257.148,516.012z M2164.843,479.721l229.581-43.392l137.275,109.662
	l-308.475,0.789L2164.843,479.721z"/>
<g>
	<path fill="#005A7C" d="M1720.672,504.178c-10.257,0-18.935-8.679-18.935-18.935c0-10.257,8.679-18.935,18.935-18.935
		s18.934,8.678,18.934,18.935C1739.605,495.5,1730.928,504.178,1720.672,504.178"/>
	<path fill="#005A7C" d="M1805.877,504.178c-7.101,0-13.412-6.312-13.412-13.412s6.312-13.412,13.412-13.412
		c7.1,0,13.412,6.312,13.412,13.412S1812.977,504.178,1805.877,504.178"/>
</g>
<polygon fill="#005A7C" points="2392.846,489.188 2366.021,489.188 2379.434,508.123 "/>
<g>
	<path fill="#005A7C" d="M1859.524,414.239c47.336-66.271,124.652-109.662,211.435-109.662c93.884,0,175.934,50.492,221.691,124.652
		l-29.19,6.312c-41.813-62.326-112.029-102.562-192.501-102.562c-73.371,0-138.853,33.924-181.455,87.571L1859.524,414.239z"/>
	<path fill="#41B9B8" d="M2786.525,567.293c0,0-167.255-242.203-433.915-168.043l10.256-5.522
		c99.406-71.794,238.259-68.638,335.298,14.989c47.336,41.025,77.316,95.462,88.361,153.054V567.293z"/>
	<path fill="#005A7C" d="M2834.65,448.164c0,0-129.386-187.768-336.087-130.175l7.89-3.944
		c77.315-55.227,184.61-52.859,259.56,11.834c37.08,32.346,59.959,74.16,68.638,118.34V448.164z"/>
	<path fill="#41B9B8" d="M2082.793,433.963c-18.934,0-34.713-15.778-34.713-34.713s15.779-34.714,34.713-34.714
		c18.936,0,34.714,15.779,34.714,34.714S2101.729,433.963,2082.793,433.963"/>
</g>
<rect x="2158.273" y="397.463" transform="matrix(-0.7072 0.707 -0.707 -0.7072 4005.6301 -830.783)" fill="#41B9B8" width="33.135" height="33.135"/>
<rect x="1968.257" y="386.416" transform="matrix(-0.7072 0.707 -0.707 -0.7072 3673.4233 -715.3005)" fill="#41B9B8" width="33.135" height="33.135"/>
<polygon fill="#005A7C" points="2503.297,420.551 2478.84,445.008 2494.619,458.42 2519.076,435.541 "/>
<polygon fill="#005A7C" points="2532.487,445.797 2508.03,470.254 2523.81,483.666 2548.267,461.576 "/>
<polygon fill="#005A7C" points="2561.679,471.043 2537.221,495.5 2552.211,508.912 2577.457,486.822 "/>
<polygon fill="#005A7C" points="2590.869,501.811 2566.412,527.057 2582.19,540.469 2606.647,517.591 "/>
</svg>
