# Blender v2.79 (sub 0) OBJ File: 'untitled.blend'
# www.blender.org
mtllib Samstag.mtl
o Text
v 1.006014 0.162060 0.000001
v 1.002913 0.168252 0.000001
v 0.999327 0.173749 0.000001
v 0.995311 0.178581 0.000001
v 0.990921 0.182778 0.000001
v 0.986211 0.186369 0.000001
v 0.981239 0.189385 0.000001
v 0.976059 0.191856 0.000001
v 0.970727 0.193810 0.000001
v 0.965298 0.195279 0.000001
v 0.959828 0.196290 0.000001
v 0.954373 0.196876 0.000001
v 0.948988 0.197064 0.000001
v 0.940893 0.196678 0.000001
v 0.932911 0.195519 0.000001
v 0.925154 0.193587 0.000001
v 0.917736 0.190882 0.000001
v 0.910768 0.187405 0.000001
v 0.904363 0.183155 0.000001
v 0.898635 0.178133 0.000001
v 0.893696 0.172337 0.000001
v 0.889658 0.165769 0.000001
v 0.886634 0.158428 0.000001
v 0.884737 0.150315 0.000001
v 0.884080 0.141429 0.000001
v 0.884080 0.085098 0.000001
v 0.884737 0.076042 0.000001
v 0.886634 0.067770 0.000001
v 0.889658 0.060282 0.000001
v 0.893696 0.053579 0.000001
v 0.898635 0.047662 0.000001
v 0.904363 0.042530 0.000001
v 0.910768 0.038186 0.000001
v 0.917736 0.034631 0.000001
v 0.925154 0.031863 0.000001
v 0.932911 0.029886 0.000001
v 0.940893 0.028699 0.000001
v 0.948988 0.028303 0.000001
v 0.957171 0.028699 0.000001
v 0.965191 0.029886 0.000001
v 0.972944 0.031863 0.000001
v 0.980326 0.034631 0.000001
v 0.987231 0.038186 0.000001
v 0.993554 0.042530 0.000001
v 0.999192 0.047662 0.000001
v 1.004040 0.053579 0.000001
v 1.007992 0.060282 0.000001
v 1.010945 0.067770 0.000001
v 1.012793 0.076042 0.000001
v 1.013432 0.085098 0.000001
v 1.013432 0.125897 0.000001
v 0.947365 0.125897 0.000001
v 0.947365 0.091125 0.000001
v 0.973560 0.091125 0.000001
v 0.973560 0.085098 0.000001
v 0.972616 0.079249 0.000001
v 0.970006 0.074457 0.000001
v 0.966062 0.070721 0.000001
v 0.961119 0.068046 0.000001
v 0.955510 0.066434 0.000001
v 0.949567 0.065886 0.000001
v 0.943625 0.066405 0.000001
v 0.938015 0.067995 0.000001
v 0.933072 0.070656 0.000001
v 0.929129 0.074392 0.000001
v 0.926519 0.079205 0.000001
v 0.925574 0.085098 0.000001
v 0.925574 0.141429 0.000001
v 0.926300 0.146469 0.000001
v 0.928329 0.150787 0.000001
v 0.931439 0.154345 0.000001
v 0.935405 0.157106 0.000001
v 0.940006 0.159033 0.000001
v 0.945018 0.160090 0.000001
v 0.950218 0.160238 0.000001
v 0.955384 0.159441 0.000001
v 0.960292 0.157663 0.000001
v 0.964720 0.154865 0.000001
v 0.968444 0.151012 0.000001
v 0.971242 0.146065 0.000001
v 0.818476 0.194746 0.000001
v 0.780690 0.194746 0.000001
v 0.723432 0.030621 0.000001
v 0.767940 0.030621 0.000001
v 0.778140 0.063539 0.000001
v 0.821953 0.063539 0.000001
v 0.832617 0.030621 0.000001
v 0.877125 0.030621 0.000001
v 0.787413 0.100397 0.000001
v 0.799467 0.148383 0.000001
v 0.800626 0.148383 0.000001
v 0.811985 0.100397 0.000001
v 0.721577 0.155569 0.000001
v 0.721577 0.194978 0.000001
v 0.592456 0.194978 0.000001
v 0.592456 0.155569 0.000001
v 0.636037 0.155569 0.000001
v 0.636037 0.030621 0.000001
v 0.677996 0.030621 0.000001
v 0.677996 0.155569 0.000001
v 0.463567 0.057975 0.000001
v 0.467504 0.053252 0.000001
v 0.471649 0.048935 0.000001
v 0.475980 0.045026 0.000001
v 0.480472 0.041525 0.000001
v 0.485103 0.038433 0.000001
v 0.489849 0.035750 0.000001
v 0.494687 0.033478 0.000001
v 0.499593 0.031617 0.000001
v 0.504544 0.030168 0.000001
v 0.509517 0.029132 0.000001
v 0.514488 0.028510 0.000001
v 0.519434 0.028303 0.000001
v 0.527016 0.028663 0.000001
v 0.534610 0.029738 0.000001
v 0.542094 0.031516 0.000001
v 0.549347 0.033987 0.000001
v 0.556246 0.037140 0.000001
v 0.562668 0.040966 0.000001
v 0.568491 0.045453 0.000001
v 0.573593 0.050591 0.000001
v 0.577852 0.056371 0.000001
v 0.581144 0.062780 0.000001
v 0.583349 0.069809 0.000001
v 0.584343 0.077448 0.000001
v 0.584177 0.086918 0.000001
v 0.582825 0.095221 0.000001
v 0.580395 0.102444 0.000001
v 0.576993 0.108674 0.000001
v 0.572729 0.113999 0.000001
v 0.567710 0.118508 0.000001
v 0.562044 0.122287 0.000001
v 0.555838 0.125425 0.000001
v 0.549201 0.128009 0.000001
v 0.542240 0.130127 0.000001
v 0.535064 0.131866 0.000001
v 0.527780 0.133315 0.000001
v 0.524681 0.134050 0.000001
v 0.521771 0.134867 0.000001
v 0.519061 0.135771 0.000001
v 0.516567 0.136767 0.000001
v 0.514301 0.137859 0.000001
v 0.512277 0.139052 0.000001
v 0.510509 0.140352 0.000001
v 0.509011 0.141763 0.000001
v 0.507797 0.143290 0.000001
v 0.506879 0.144938 0.000001
v 0.506272 0.146711 0.000001
v 0.505989 0.148615 0.000001
v 0.506738 0.152985 0.000001
v 0.508542 0.156590 0.000001
v 0.511259 0.159427 0.000001
v 0.514747 0.161493 0.000001
v 0.518862 0.162787 0.000001
v 0.523462 0.163306 0.000001
v 0.528406 0.163047 0.000001
v 0.533549 0.162009 0.000001
v 0.538751 0.160187 0.000001
v 0.543868 0.157582 0.000001
v 0.548759 0.154188 0.000001
v 0.553279 0.150006 0.000001
v 0.580402 0.170869 0.000001
v 0.576124 0.175719 0.000001
v 0.571755 0.179973 0.000001
v 0.567301 0.183666 0.000001
v 0.562767 0.186830 0.000001
v 0.558159 0.189498 0.000001
v 0.553482 0.191703 0.000001
v 0.548743 0.193479 0.000001
v 0.543947 0.194858 0.000001
v 0.539099 0.195873 0.000001
v 0.534205 0.196557 0.000001
v 0.529271 0.196943 0.000001
v 0.524302 0.197064 0.000001
v 0.516804 0.196713 0.000001
v 0.509443 0.195662 0.000001
v 0.502316 0.193917 0.000001
v 0.495523 0.191483 0.000001
v 0.489161 0.188368 0.000001
v 0.483329 0.184575 0.000001
v 0.478125 0.180111 0.000001
v 0.473647 0.174982 0.000001
v 0.469993 0.169192 0.000001
v 0.467261 0.162748 0.000001
v 0.465550 0.155655 0.000001
v 0.464958 0.147919 0.000001
v 0.465448 0.140399 0.000001
v 0.466866 0.133479 0.000001
v 0.469138 0.127154 0.000001
v 0.472187 0.121415 0.000001
v 0.475938 0.116256 0.000001
v 0.480316 0.111669 0.000001
v 0.485244 0.107648 0.000001
v 0.490646 0.104184 0.000001
v 0.496448 0.101270 0.000001
v 0.502574 0.098900 0.000001
v 0.508948 0.097066 0.000001
v 0.515494 0.095761 0.000001
v 0.518879 0.095225 0.000001
v 0.522272 0.094542 0.000001
v 0.525614 0.093711 0.000001
v 0.528844 0.092730 0.000001
v 0.531904 0.091598 0.000001
v 0.534734 0.090313 0.000001
v 0.537274 0.088874 0.000001
v 0.539465 0.087278 0.000001
v 0.541247 0.085525 0.000001
v 0.542560 0.083612 0.000001
v 0.543345 0.081538 0.000001
v 0.543543 0.079302 0.000001
v 0.542556 0.075284 0.000001
v 0.540300 0.072041 0.000001
v 0.536965 0.069573 0.000001
v 0.532742 0.067883 0.000001
v 0.527820 0.066972 0.000001
v 0.522390 0.066842 0.000001
v 0.516641 0.067494 0.000001
v 0.510763 0.068931 0.000001
v 0.504946 0.071152 0.000001
v 0.499380 0.074161 0.000001
v 0.494256 0.077959 0.000001
v 0.489762 0.082548 0.000001
v 0.293183 0.030621 0.000001
v 0.334678 0.030621 0.000001
v 0.334678 0.077911 0.000001
v 0.331896 0.111061 0.000001
v 0.333055 0.111293 0.000001
v 0.355077 0.054962 0.000001
v 0.383591 0.054962 0.000001
v 0.405150 0.111293 0.000001
v 0.406540 0.111061 0.000001
v 0.403990 0.077911 0.000001
v 0.403759 0.030621 0.000001
v 0.445485 0.030621 0.000001
v 0.445485 0.194746 0.000001
v 0.403990 0.194746 0.000001
v 0.369218 0.114538 0.000001
v 0.334678 0.194746 0.000001
v 0.293183 0.194746 0.000001
v 0.223638 0.194746 0.000001
v 0.185852 0.194746 0.000001
v 0.128594 0.030621 0.000001
v 0.173103 0.030621 0.000001
v 0.183303 0.063539 0.000001
v 0.227116 0.063539 0.000001
v 0.237779 0.030621 0.000001
v 0.282288 0.030621 0.000001
v 0.192575 0.100397 0.000001
v 0.204629 0.148383 0.000001
v 0.205789 0.148383 0.000001
v 0.217148 0.100397 0.000001
v 0.004341 0.057975 0.000001
v 0.008278 0.053252 0.000001
v 0.012424 0.048935 0.000001
v 0.016754 0.045026 0.000001
v 0.021247 0.041525 0.000001
v 0.025877 0.038433 0.000001
v 0.030623 0.035750 0.000001
v 0.035461 0.033478 0.000001
v 0.040367 0.031617 0.000001
v 0.045318 0.030168 0.000001
v 0.050291 0.029132 0.000001
v 0.055262 0.028510 0.000001
v 0.060209 0.028303 0.000001
v 0.067790 0.028663 0.000001
v 0.075384 0.029738 0.000001
v 0.082869 0.031516 0.000001
v 0.090121 0.033987 0.000001
v 0.097020 0.037140 0.000001
v 0.103442 0.040966 0.000001
v 0.109265 0.045453 0.000001
v 0.114368 0.050591 0.000001
v 0.118626 0.056371 0.000001
v 0.121919 0.062780 0.000001
v 0.124123 0.069809 0.000001
v 0.125117 0.077448 0.000001
v 0.124951 0.086918 0.000001
v 0.123599 0.095221 0.000001
v 0.121169 0.102444 0.000001
v 0.117768 0.108674 0.000001
v 0.113503 0.113999 0.000001
v 0.108484 0.118508 0.000001
v 0.102818 0.122287 0.000001
v 0.096612 0.125425 0.000001
v 0.089975 0.128009 0.000001
v 0.083015 0.130127 0.000001
v 0.075838 0.131866 0.000001
v 0.068554 0.133315 0.000001
v 0.065456 0.134050 0.000001
v 0.062545 0.134867 0.000001
v 0.059836 0.135771 0.000001
v 0.057341 0.136767 0.000001
v 0.055075 0.137859 0.000001
v 0.053051 0.139052 0.000001
v 0.051284 0.140352 0.000001
v 0.049786 0.141763 0.000001
v 0.048571 0.143290 0.000001
v 0.047653 0.144938 0.000001
v 0.047046 0.146711 0.000001
v 0.046763 0.148615 0.000001
v 0.047512 0.152985 0.000001
v 0.049317 0.156590 0.000001
v 0.052034 0.159427 0.000001
v 0.055521 0.161493 0.000001
v 0.059636 0.162787 0.000001
v 0.064236 0.163306 0.000001
v 0.069180 0.163047 0.000001
v 0.074324 0.162009 0.000001
v 0.079525 0.160187 0.000001
v 0.084643 0.157582 0.000001
v 0.089533 0.154188 0.000001
v 0.094054 0.150006 0.000001
v 0.121176 0.170869 0.000001
v 0.116898 0.175719 0.000001
v 0.112529 0.179973 0.000001
v 0.108075 0.183666 0.000001
v 0.103541 0.186830 0.000001
v 0.098933 0.189498 0.000001
v 0.094257 0.191703 0.000001
v 0.089517 0.193479 0.000001
v 0.084721 0.194858 0.000001
v 0.079873 0.195873 0.000001
v 0.074979 0.196557 0.000001
v 0.070045 0.196943 0.000001
v 0.065077 0.197064 0.000001
v 0.057579 0.196713 0.000001
v 0.050217 0.195662 0.000001
v 0.043091 0.193917 0.000001
v 0.036297 0.191483 0.000001
v 0.029936 0.188368 0.000001
v 0.024103 0.184575 0.000001
v 0.018899 0.180111 0.000001
v 0.014421 0.174982 0.000001
v 0.010767 0.169192 0.000001
v 0.008035 0.162748 0.000001
v 0.006324 0.155655 0.000001
v 0.005732 0.147919 0.000001
v 0.006222 0.140399 0.000001
v 0.007640 0.133479 0.000001
v 0.009912 0.127154 0.000001
v 0.012961 0.121415 0.000001
v 0.016713 0.116256 0.000001
v 0.021090 0.111669 0.000001
v 0.026018 0.107648 0.000001
v 0.031421 0.104184 0.000001
v 0.037223 0.101270 0.000001
v 0.043348 0.098900 0.000001
v 0.049722 0.097066 0.000001
v 0.056268 0.095761 0.000001
v 0.059653 0.095225 0.000001
v 0.063046 0.094542 0.000001
v 0.066388 0.093711 0.000001
v 0.069619 0.092730 0.000001
v 0.072679 0.091598 0.000001
v 0.075508 0.090313 0.000001
v 0.078049 0.088874 0.000001
v 0.080239 0.087278 0.000001
v 0.082021 0.085525 0.000001
v 0.083334 0.083612 0.000001
v 0.084120 0.081538 0.000001
v 0.084317 0.079302 0.000001
v 0.083330 0.075284 0.000001
v 0.081074 0.072041 0.000001
v 0.077740 0.069573 0.000001
v 0.073517 0.067883 0.000001
v 0.068595 0.066972 0.000001
v 0.063164 0.066842 0.000001
v 0.057415 0.067494 0.000001
v 0.051537 0.068931 0.000001
v 0.045720 0.071152 0.000001
v 0.040155 0.074161 0.000001
v 0.035030 0.077959 0.000001
v 0.030536 0.082548 0.000001
vn -0.0000 -0.0000 1.0000
usemtl Material
s off
f 14//1 12//1 13//1
f 14//1 11//1 12//1
f 15//1 11//1 14//1
f 15//1 10//1 11//1
f 16//1 10//1 15//1
f 16//1 9//1 10//1
f 16//1 8//1 9//1
f 17//1 8//1 16//1
f 17//1 7//1 8//1
f 18//1 7//1 17//1
f 18//1 6//1 7//1
f 19//1 6//1 18//1
f 19//1 5//1 6//1
f 20//1 5//1 19//1
f 20//1 4//1 5//1
f 20//1 3//1 4//1
f 21//1 3//1 20//1
f 21//1 2//1 3//1
f 22//1 2//1 21//1
f 22//1 1//1 2//1
f 23//1 1//1 22//1
f 23//1 75//1 1//1
f 75//1 76//1 1//1
f 76//1 77//1 1//1
f 77//1 78//1 1//1
f 78//1 79//1 1//1
f 79//1 80//1 1//1
f 23//1 74//1 75//1
f 23//1 73//1 74//1
f 23//1 72//1 73//1
f 24//1 72//1 23//1
f 24//1 71//1 72//1
f 24//1 70//1 71//1
f 24//1 69//1 70//1
f 25//1 69//1 24//1
f 25//1 68//1 69//1
f 26//1 68//1 25//1
f 26//1 67//1 68//1
f 53//1 51//1 52//1
f 53//1 54//1 51//1
f 54//1 50//1 51//1
f 55//1 50//1 54//1
f 27//1 67//1 26//1
f 27//1 66//1 67//1
f 56//1 50//1 55//1
f 56//1 49//1 50//1
f 57//1 49//1 56//1
f 27//1 65//1 66//1
f 57//1 48//1 49//1
f 28//1 65//1 27//1
f 58//1 48//1 57//1
f 28//1 64//1 65//1
f 59//1 48//1 58//1
f 28//1 63//1 64//1
f 60//1 48//1 59//1
f 28//1 62//1 63//1
f 60//1 47//1 48//1
f 29//1 62//1 28//1
f 61//1 47//1 60//1
f 29//1 61//1 62//1
f 29//1 47//1 61//1
f 29//1 46//1 47//1
f 30//1 46//1 29//1
f 30//1 45//1 46//1
f 31//1 45//1 30//1
f 31//1 44//1 45//1
f 32//1 44//1 31//1
f 32//1 43//1 44//1
f 33//1 43//1 32//1
f 33//1 42//1 43//1
f 34//1 42//1 33//1
f 34//1 41//1 42//1
f 35//1 41//1 34//1
f 35//1 40//1 41//1
f 36//1 40//1 35//1
f 36//1 39//1 40//1
f 37//1 39//1 36//1
f 37//1 38//1 39//1
f 83//1 81//1 82//1
f 83//1 90//1 81//1
f 90//1 91//1 81//1
f 91//1 88//1 81//1
f 83//1 89//1 90//1
f 92//1 88//1 91//1
f 83//1 92//1 89//1
f 83//1 85//1 92//1
f 85//1 86//1 92//1
f 86//1 88//1 92//1
f 83//1 84//1 85//1
f 87//1 88//1 86//1
f 96//1 94//1 95//1
f 96//1 93//1 94//1
f 97//1 93//1 96//1
f 98//1 100//1 97//1
f 100//1 93//1 97//1
f 98//1 99//1 100//1
f 175//1 173//1 174//1
f 175//1 172//1 173//1
f 176//1 172//1 175//1
f 176//1 171//1 172//1
f 176//1 170//1 171//1
f 177//1 170//1 176//1
f 177//1 169//1 170//1
f 178//1 169//1 177//1
f 178//1 168//1 169//1
f 178//1 167//1 168//1
f 179//1 167//1 178//1
f 179//1 166//1 167//1
f 180//1 166//1 179//1
f 180//1 165//1 166//1
f 181//1 165//1 180//1
f 181//1 164//1 165//1
f 182//1 164//1 181//1
f 182//1 163//1 164//1
f 182//1 162//1 163//1
f 183//1 162//1 182//1
f 183//1 156//1 162//1
f 156//1 157//1 162//1
f 157//1 158//1 162//1
f 158//1 159//1 162//1
f 159//1 160//1 162//1
f 160//1 161//1 162//1
f 184//1 155//1 183//1
f 155//1 156//1 183//1
f 184//1 154//1 155//1
f 184//1 153//1 154//1
f 185//1 153//1 184//1
f 185//1 152//1 153//1
f 185//1 151//1 152//1
f 185//1 150//1 151//1
f 186//1 150//1 185//1
f 186//1 149//1 150//1
f 186//1 148//1 149//1
f 187//1 148//1 186//1
f 187//1 147//1 148//1
f 187//1 146//1 147//1
f 187//1 145//1 146//1
f 187//1 144//1 145//1
f 188//1 144//1 187//1
f 188//1 143//1 144//1
f 188//1 142//1 143//1
f 188//1 141//1 142//1
f 188//1 140//1 141//1
f 188//1 139//1 140//1
f 188//1 138//1 139//1
f 188//1 137//1 138//1
f 189//1 137//1 188//1
f 189//1 136//1 137//1
f 189//1 135//1 136//1
f 189//1 134//1 135//1
f 189//1 133//1 134//1
f 190//1 133//1 189//1
f 190//1 132//1 133//1
f 190//1 131//1 132//1
f 191//1 131//1 190//1
f 191//1 130//1 131//1
f 192//1 130//1 191//1
f 192//1 129//1 130//1
f 193//1 129//1 192//1
f 193//1 128//1 129//1
f 194//1 128//1 193//1
f 195//1 128//1 194//1
f 195//1 127//1 128//1
f 196//1 127//1 195//1
f 197//1 127//1 196//1
f 198//1 127//1 197//1
f 199//1 127//1 198//1
f 200//1 127//1 199//1
f 200//1 126//1 127//1
f 201//1 126//1 200//1
f 202//1 126//1 201//1
f 203//1 126//1 202//1
f 204//1 126//1 203//1
f 205//1 126//1 204//1
f 206//1 126//1 205//1
f 207//1 126//1 206//1
f 207//1 125//1 126//1
f 208//1 125//1 207//1
f 209//1 125//1 208//1
f 101//1 221//1 222//1
f 210//1 125//1 209//1
f 211//1 125//1 210//1
f 101//1 220//1 221//1
f 211//1 124//1 125//1
f 212//1 124//1 211//1
f 101//1 219//1 220//1
f 213//1 124//1 212//1
f 101//1 218//1 219//1
f 213//1 123//1 124//1
f 214//1 123//1 213//1
f 101//1 217//1 218//1
f 215//1 123//1 214//1
f 101//1 216//1 217//1
f 216//1 123//1 215//1
f 101//1 123//1 216//1
f 101//1 122//1 123//1
f 102//1 122//1 101//1
f 102//1 121//1 122//1
f 103//1 121//1 102//1
f 103//1 120//1 121//1
f 104//1 120//1 103//1
f 104//1 119//1 120//1
f 105//1 119//1 104//1
f 106//1 119//1 105//1
f 106//1 118//1 119//1
f 107//1 118//1 106//1
f 107//1 117//1 118//1
f 108//1 117//1 107//1
f 108//1 116//1 117//1
f 109//1 116//1 108//1
f 110//1 116//1 109//1
f 110//1 115//1 116//1
f 111//1 115//1 110//1
f 111//1 114//1 115//1
f 112//1 114//1 111//1
f 112//1 113//1 114//1
f 223//1 238//1 239//1
f 223//1 226//1 238//1
f 226//1 227//1 238//1
f 227//1 237//1 238//1
f 237//1 235//1 236//1
f 237//1 230//1 235//1
f 230//1 231//1 235//1
f 231//1 234//1 235//1
f 227//1 230//1 237//1
f 228//1 230//1 227//1
f 228//1 229//1 230//1
f 223//1 225//1 226//1
f 232//1 234//1 231//1
f 223//1 224//1 225//1
f 233//1 234//1 232//1
f 242//1 240//1 241//1
f 242//1 249//1 240//1
f 249//1 250//1 240//1
f 250//1 247//1 240//1
f 242//1 248//1 249//1
f 251//1 247//1 250//1
f 242//1 251//1 248//1
f 242//1 244//1 251//1
f 244//1 245//1 251//1
f 245//1 247//1 251//1
f 242//1 243//1 244//1
f 246//1 247//1 245//1
f 326//1 324//1 325//1
f 326//1 323//1 324//1
f 327//1 323//1 326//1
f 327//1 322//1 323//1
f 327//1 321//1 322//1
f 328//1 321//1 327//1
f 328//1 320//1 321//1
f 329//1 320//1 328//1
f 329//1 319//1 320//1
f 329//1 318//1 319//1
f 330//1 318//1 329//1
f 330//1 317//1 318//1
f 331//1 317//1 330//1
f 331//1 316//1 317//1
f 332//1 316//1 331//1
f 332//1 315//1 316//1
f 333//1 315//1 332//1
f 333//1 314//1 315//1
f 333//1 313//1 314//1
f 334//1 313//1 333//1
f 334//1 307//1 313//1
f 307//1 308//1 313//1
f 308//1 309//1 313//1
f 309//1 310//1 313//1
f 310//1 311//1 313//1
f 311//1 312//1 313//1
f 335//1 306//1 334//1
f 306//1 307//1 334//1
f 335//1 305//1 306//1
f 335//1 304//1 305//1
f 336//1 304//1 335//1
f 336//1 303//1 304//1
f 336//1 302//1 303//1
f 336//1 301//1 302//1
f 337//1 301//1 336//1
f 337//1 300//1 301//1
f 337//1 299//1 300//1
f 338//1 299//1 337//1
f 338//1 298//1 299//1
f 338//1 297//1 298//1
f 338//1 296//1 297//1
f 338//1 295//1 296//1
f 339//1 295//1 338//1
f 339//1 294//1 295//1
f 339//1 293//1 294//1
f 339//1 292//1 293//1
f 339//1 291//1 292//1
f 339//1 290//1 291//1
f 339//1 289//1 290//1
f 339//1 288//1 289//1
f 340//1 288//1 339//1
f 340//1 287//1 288//1
f 340//1 286//1 287//1
f 340//1 285//1 286//1
f 340//1 284//1 285//1
f 341//1 284//1 340//1
f 341//1 283//1 284//1
f 341//1 282//1 283//1
f 342//1 282//1 341//1
f 342//1 281//1 282//1
f 343//1 281//1 342//1
f 343//1 280//1 281//1
f 344//1 280//1 343//1
f 344//1 279//1 280//1
f 345//1 279//1 344//1
f 346//1 279//1 345//1
f 346//1 278//1 279//1
f 347//1 278//1 346//1
f 348//1 278//1 347//1
f 349//1 278//1 348//1
f 350//1 278//1 349//1
f 351//1 278//1 350//1
f 351//1 277//1 278//1
f 352//1 277//1 351//1
f 353//1 277//1 352//1
f 354//1 277//1 353//1
f 355//1 277//1 354//1
f 356//1 277//1 355//1
f 357//1 277//1 356//1
f 358//1 277//1 357//1
f 358//1 276//1 277//1
f 359//1 276//1 358//1
f 360//1 276//1 359//1
f 252//1 372//1 373//1
f 361//1 276//1 360//1
f 362//1 276//1 361//1
f 252//1 371//1 372//1
f 362//1 275//1 276//1
f 363//1 275//1 362//1
f 252//1 370//1 371//1
f 364//1 275//1 363//1
f 252//1 369//1 370//1
f 364//1 274//1 275//1
f 365//1 274//1 364//1
f 252//1 368//1 369//1
f 366//1 274//1 365//1
f 252//1 367//1 368//1
f 367//1 274//1 366//1
f 252//1 274//1 367//1
f 252//1 273//1 274//1
f 253//1 273//1 252//1
f 253//1 272//1 273//1
f 254//1 272//1 253//1
f 254//1 271//1 272//1
f 255//1 271//1 254//1
f 255//1 270//1 271//1
f 256//1 270//1 255//1
f 257//1 270//1 256//1
f 257//1 269//1 270//1
f 258//1 269//1 257//1
f 258//1 268//1 269//1
f 259//1 268//1 258//1
f 259//1 267//1 268//1
f 260//1 267//1 259//1
f 261//1 267//1 260//1
f 261//1 266//1 267//1
f 262//1 266//1 261//1
f 262//1 265//1 266//1
f 263//1 265//1 262//1
f 263//1 264//1 265//1
o Plane
v -0.056889 0.234316 -0.060811
v 1.071747 0.234316 -0.060811
v -0.056889 -0.025714 -0.060811
v 1.071747 -0.025714 -0.060811
vn 0.0000 -0.0000 1.0000
usemtl SVGMat
s off
f 374//2 376//2 377//2 375//2
o Plane.001
v -0.067033 0.244316 -0.065182
v 1.081603 0.244316 -0.065182
v -0.067033 -0.035714 -0.065182
v 1.081603 -0.035714 -0.065182
vn 0.0000 -0.0000 1.0000
usemtl SVGMat.001
s off
f 378//3 380//3 381//3 379//3
