<?xml version="1.0" encoding="utf-8"?>
<!-- Generator: Adobe Illustrator 15.1.0, SVG Export Plug-In . SVG Version: 6.00 Build 0)  -->
<!DOCTYPE svg PUBLIC "-//W3C//DTD SVG 1.1//EN" "http://www.w3.org/Graphics/SVG/1.1/DTD/svg11.dtd">
<svg version="1.1" id="Ebene_1" xmlns="http://www.w3.org/2000/svg" xmlns:xlink="http://www.w3.org/1999/xlink" x="0px" y="0px"
	 width="2833.865px" height="362.873px" viewBox="0 239.509 2833.865 362.873" enable-background="new 0 239.509 2833.865 362.873"
	 xml:space="preserve">
<polygon fill="#8AC165" points="1216.646,557.612 1258.273,446.865 1397.297,570.965 "/>
<polygon fill="#55A680" points="1205.649,553.684 1245.707,437.439 1226.07,422.516 1179.729,552.899 "/>
<g>
	<path fill="#8AC165" d="M1416.933,469.642c-7.854,0-13.353,6.284-13.353,13.353c0,7.854,6.283,13.353,13.353,13.353
		c7.854,0,13.353-6.283,13.353-13.353C1430.285,475.14,1424.787,469.642,1416.933,469.642"/>
	<path fill="#8AC165" d="M1416.933,365.179c-7.854,0-13.353,6.283-13.353,13.353c0,7.854,6.283,13.353,13.353,13.353
		c7.854,0,13.353-6.284,13.353-13.353C1430.285,371.463,1424.787,365.179,1416.933,365.179"/>
	<path fill="#8AC165" d="M1416.933,406.807c-13.353,0-24.349,10.996-24.349,24.349s10.996,24.349,24.349,24.349
		s24.349-10.996,24.349-24.349S1430.285,406.807,1416.933,406.807"/>
</g>
<polygon fill="#8AC165" points="1328.963,455.505 1281.837,329.049 1245.707,375.389 "/>
<polygon fill="#8AC165" points="1617.22,557.612 1576.377,446.865 1436.568,570.965 "/>
<polygon fill="#55A680" points="1629.001,553.684 1588.943,437.439 1608.58,422.516 1654.921,552.899 "/>
<polygon fill="#8AC165" points="1504.902,455.505 1552.813,329.049 1588.943,375.389 "/>
<g>
	<path fill="#55A680" d="M1416.933,520.696l4.712-3.927c7.855-7.069,88.756-80.9-4.712-175.153v-35.345
		c136.666,136.666,5.498,243.486,5.498,243.486l-5.498,5.498l-5.498-5.498c0,0-131.954-106.82,5.498-243.486l0.785,33.773
		c-93.467,94.253-13.353,168.87-5.498,175.938L1416.933,520.696z"/>
</g>
<polygon fill="#8AC165" points="2034.288,450.792 1673.771,450.792 1730.322,592.957 1774.308,592.957 1739.748,488.493 
	2050.782,488.493 "/>
<polygon fill="#55A680" points="1815.936,602.382 1853.637,561.539 1776.664,508.129 "/>
<rect x="2563.483" y="445.333" transform="matrix(0.7071 0.7071 -0.7071 0.7071 1092.8496 -1693.4648)" fill="#55A680" width="54.195" height="54.194"/>
<path fill="#55A680" d="M2264.422,593.742h121.742v-36.13h-121.742V593.742z M2408.942,593.742h73.831v-36.13h-73.831V593.742z
	 M2691.701,593.742h142.164v-36.13h-142.164V593.742z"/>
<path fill="#55A680" d="M2350.82,507.344h103.678v-36.13H2350.82V507.344z M2727.045,507.344h106.82v-36.13h-106.82V507.344z"/>
<g>
	<path fill="#8AC165" d="M2822.869,449.221c-11.782-117.816-111.532-209.713-232.49-209.713s-219.923,91.896-232.49,209.713h29.847
		c11.781-101.322,97.395-179.866,202.644-179.866c104.463,0,190.861,78.544,202.643,179.866H2822.869z"/>
	<path fill="#8AC165" d="M2679.919,472.784c0,49.483-40.058,89.54-89.54,89.54s-89.54-40.057-89.54-89.54
		c0-49.482,40.058-89.54,89.54-89.54S2679.919,423.302,2679.919,472.784 M2709.766,472.784c0-65.977-53.41-118.601-118.602-118.601
		s-118.602,53.409-118.602,118.601s53.41,118.602,118.602,118.602S2709.766,538.761,2709.766,472.784"/>
	
		<path fill="none" stroke="#55A680" stroke-width="2.96" stroke-linecap="round" stroke-linejoin="round" stroke-dasharray="0,10.018" d="
		M2724.689,377.746c-22.778-32.203-56.553-55.766-95.824-65.191"/>
	
		<path fill="none" stroke="#55A680" stroke-width="2.96" stroke-linecap="round" stroke-linejoin="round" stroke-dasharray="0,10.073" d="
		M2514.191,326.693c-35.345,18.064-62.835,49.482-77.759,86.397"/>
	<path fill="none" stroke="#55A680" stroke-width="2.96" stroke-linecap="round" stroke-linejoin="round" d="M2427.008,451.578
		L2427.008,451.578 M2590.379,307.843L2590.379,307.843 M2753.75,450.007L2753.75,450.007"/>
</g>
<path fill="#55A680" d="M2017.008,593.742h121.743v-36.13h-121.743V593.742z M2236.146,557.612h-73.831v36.13h73.831V557.612z"/>
<rect x="2142.678" y="471.999" fill="#55A680" width="142.165" height="36.13"/>
<g>
	<path fill="#8AC165" d="M1938.464,601.596c21.993,0,40.058-18.065,40.058-40.058s-18.064-40.058-40.058-40.058
		c-21.992,0-40.058,18.065-40.058,40.058S1915.687,601.596,1938.464,601.596"/>
</g>
<polygon fill="#8AC165" points="799.577,450.792 1160.879,450.792 1104.328,592.957 1060.343,592.957 1094.117,488.493 
	783.868,488.493 "/>
<polygon fill="#55A680" points="981.014,561.539 1017.93,602.382 1057.201,508.129 "/>
<rect x="217.009" y="445.951" transform="matrix(-0.7071 0.7071 -0.7071 -0.7071 751.2116 634.9351)" fill="#55A680" width="54.194" height="54.194"/>
<path fill="#55A680" d="M0,593.742h142.165v-36.13H0V593.742z M351.091,593.742h73.832v-36.13h-73.832V593.742L351.091,593.742z
	 M448.486,593.742h121.742v-36.13H448.486V593.742z"/>
<path fill="#55A680" d="M0,507.344h106.82v-36.13H0V507.344z M380.152,507.344H483.83v-36.13H380.152V507.344z"/>
<g>
	<path fill="#8AC165" d="M11.782,449.221c11.781-117.816,111.532-209.713,231.705-209.713c120.172,0,219.923,91.896,232.49,209.713
		H446.13c-11.782-101.322-98.18-179.866-202.644-179.866c-104.464,0-190.076,78.544-201.858,179.866H11.782z"/>
	<path fill="#8AC165" d="M153.946,472.784c0,49.483,40.057,89.54,89.54,89.54c49.482,0,89.54-40.057,89.54-89.54
		c0-49.482-39.272-89.54-89.54-89.54C194.003,383.244,153.946,423.302,153.946,472.784 M124.885,472.784
		c0-65.977,53.41-118.601,118.602-118.601s118.601,53.409,118.601,118.601s-52.625,118.602-118.601,118.602
		C177.509,591.385,124.885,538.761,124.885,472.784"/>
	
		<path fill="none" stroke="#55A680" stroke-width="2.96" stroke-linecap="round" stroke-linejoin="round" stroke-dasharray="0,10.018" d="
		M109.176,377.746c22.778-32.203,56.552-55.766,95.824-65.191"/>
	
		<path fill="none" stroke="#55A680" stroke-width="2.96" stroke-linecap="round" stroke-linejoin="round" stroke-dasharray="0,10.073" d="
		M319.674,326.693c35.345,18.064,62.835,49.482,77.758,86.397"/>
	<path fill="none" stroke="#55A680" stroke-width="2.96" stroke-linecap="round" stroke-linejoin="round" d="M406.857,451.578
		L406.857,451.578 M243.486,307.843L243.486,307.843 M80.9,450.007L80.9,450.007"/>
</g>
<path fill="#55A680" d="M816.857,593.742H695.113v-36.13h121.744V593.742z M597.719,557.612h73.832v36.13h-73.832V557.612z"/>
<rect x="549.022" y="471.999" fill="#55A680" width="142.164" height="36.13"/>
<g>
	<path fill="#8AC165" d="M896.187,601.596c-21.993,0-40.058-18.065-40.058-40.058s18.065-40.058,40.058-40.058
		s40.058,18.065,40.058,40.058S918.179,601.596,896.187,601.596"/>
</g>
</svg>
