<?xml version="1.0" encoding="utf-8"?>
<!-- Generator: Adobe Illustrator 15.1.0, SVG Export Plug-In . SVG Version: 6.00 Build 0)  -->
<!DOCTYPE svg PUBLIC "-//W3C//DTD SVG 1.1//EN" "http://www.w3.org/Graphics/SVG/1.1/DTD/svg11.dtd">
<svg version="1.1" id="Ebene_1" xmlns="http://www.w3.org/2000/svg" xmlns:xlink="http://www.w3.org/1999/xlink" x="0px" y="0px"
	 width="2833.865px" height="362.873px" viewBox="0 239.509 2833.865 362.873" enable-background="new 0 239.509 2833.865 362.873"
	 xml:space="preserve">
<polygon fill="#8AC165" points="1216.646,283.493 1258.273,395.026 1397.297,270.927 "/>
<polygon fill="#55A680" points="1205.649,287.421 1245.707,403.666 1226.07,419.375 1179.729,288.991 "/>
<g>
	<path fill="#8AC165" d="M1416.933,372.248c-7.854,0-13.353-6.283-13.353-13.353c0-7.854,6.283-13.353,13.353-13.353
		c7.854,0,13.353,6.284,13.353,13.353C1430.285,365.965,1424.787,372.248,1416.933,372.248"/>
	<path fill="#8AC165" d="M1416.933,475.927c-7.854,0-13.353-6.284-13.353-13.353c0-7.854,6.283-13.353,13.353-13.353
		c7.854,0,13.353,6.283,13.353,13.353C1430.285,470.428,1424.787,475.927,1416.933,475.927"/>
	<path fill="#8AC165" d="M1416.933,435.083c-13.353,0-24.349-10.996-24.349-24.349c0-13.352,10.996-24.348,24.349-24.348
		s24.349,10.996,24.349,24.348C1441.281,424.087,1430.285,435.083,1416.933,435.083"/>
</g>
<polygon fill="#8AC165" points="1328.963,385.6 1281.837,512.056 1245.707,465.716 "/>
<polygon fill="#8AC165" points="1617.22,283.493 1576.377,395.026 1436.568,270.927 "/>
<polygon fill="#55A680" points="1629.001,287.421 1588.943,403.666 1608.58,419.375 1654.921,288.991 "/>
<polygon fill="#8AC165" points="1504.902,385.6 1552.813,512.056 1588.943,465.716 "/>
<g>
	<path fill="#55A680" d="M1416.933,321.194l4.712,3.928c7.855,7.069,88.756,80.9-4.712,175.153v34.559
		c136.666-136.666,5.498-243.486,5.498-243.486l-5.498-4.713l-5.498,5.498c0,0-131.954,106.82,5.498,243.487l0.785-33.774
		c-93.467-94.253-13.353-168.869-5.498-175.938L1416.933,321.194z"/>
</g>
<polygon fill="#8AC165" points="2034.288,391.098 1673.771,391.098 1730.322,248.148 1774.308,248.148 1739.748,352.612 
	2050.782,352.612 "/>
<polygon fill="#55A680" points="1815.936,239.509 1776.664,333.761 1853.637,279.566 "/>
<rect x="2563.244" y="341.779" transform="matrix(0.7071 -0.7071 0.7071 0.7071 497.8589 1939.6887)" fill="#55A680" width="54.194" height="54.194"/>
<path fill="#55A680" d="M2264.422,283.493h121.742v-36.13h-121.742V283.493z M2408.942,283.493h73.831v-36.13h-73.831V283.493z
	 M2691.701,283.493h142.164v-36.13h-142.164V283.493z"/>
<path fill="#55A680" d="M2350.82,369.891h103.678v-36.13H2350.82V369.891z M2727.045,369.891h106.82v-36.13h-106.82V369.891z"/>
<g>
	<path fill="#8AC165" d="M2822.869,392.67c-11.782,117.815-111.533,209.712-232.49,209.712
		c-120.958,0-219.923-91.896-232.49-209.712h29.847c11.781,101.321,97.395,179.865,202.644,179.865
		c104.463,0,190.861-78.544,202.643-179.865H2822.869z"/>
	<path fill="#8AC165" d="M2679.919,368.321c0-49.482-40.058-89.54-89.54-89.54s-89.54,40.058-89.54,89.54s40.058,89.54,89.54,89.54
		C2639.861,458.646,2679.919,418.589,2679.919,368.321 M2709.766,368.321c0,65.977-53.41,118.602-118.602,118.602
		s-118.602-53.41-118.602-118.602s53.41-118.602,118.602-118.602S2709.766,303.13,2709.766,368.321"/>
	
		<path fill="none" stroke="#55A680" stroke-width="2.96" stroke-linecap="round" stroke-linejoin="round" stroke-dasharray="0,10.018" d="
		M2724.689,464.144c-22.778,32.203-56.553,55.767-95.824,65.191"/>
	
		<path fill="none" stroke="#55A680" stroke-width="2.96" stroke-linecap="round" stroke-linejoin="round" stroke-dasharray="0,10.073" d="
		M2514.191,515.198c-35.345-18.065-62.835-49.482-77.759-86.398"/>
	<path fill="none" stroke="#55A680" stroke-width="2.96" stroke-linecap="round" stroke-linejoin="round" d="M2427.008,390.313
		L2427.008,390.313 M2590.379,533.263L2590.379,533.263 M2753.75,391.098L2753.75,391.098"/>
</g>
<path fill="#55A680" d="M2017.008,247.363h121.743v36.13h-121.743V247.363z M2236.146,283.493h-73.831v-36.13h73.831V283.493z"/>
<rect x="2142.678" y="332.976" fill="#55A680" width="142.165" height="36.13"/>
<g>
	<path fill="#8AC165" d="M1938.464,240.294c21.993,0,40.058,18.065,40.058,40.058s-18.064,40.058-40.058,40.058
		c-21.992,0-40.058-18.065-40.058-40.058S1915.687,240.294,1938.464,240.294"/>
</g>
<polygon fill="#8AC165" points="799.577,391.098 1160.879,391.098 1104.328,248.148 1060.343,248.148 1094.117,352.612 
	783.868,352.612 "/>
<polygon fill="#55A680" points="1017.93,239.509 981.014,279.566 1057.201,333.761 "/>
<rect x="216.768" y="341.642" transform="matrix(-0.7071 -0.7071 0.7071 -0.7071 155.5661 801.9156)" fill="#55A680" width="54.194" height="54.194"/>
<path fill="#55A680" d="M0,283.493h142.165v-36.13H0V283.493z M351.091,283.493h73.832v-36.13h-73.832V283.493L351.091,283.493z
	 M448.486,283.493h121.742v-36.13H448.486V283.493z"/>
<path fill="#55A680" d="M0,369.891h106.82v-36.13H0V369.891z M380.152,369.891H483.83v-36.13H380.152V369.891z"/>
<g>
	<path fill="#8AC165" d="M11.782,392.67c11.781,117.815,111.532,209.712,231.705,209.712c120.172,0,219.923-91.896,232.49-209.712
		H446.13c-11.782,101.321-98.18,179.865-202.644,179.865c-104.464,0-190.076-78.544-201.858-179.865H11.782z"/>
	<path fill="#8AC165" d="M153.946,368.321c0-49.482,40.057-89.54,89.54-89.54c49.482,0,89.54,40.058,89.54,89.54
		s-39.272,90.325-89.54,90.325C194.003,458.646,153.946,418.589,153.946,368.321 M124.885,368.321
		c0,65.977,53.41,118.602,118.602,118.602s118.601-53.41,118.601-118.602s-52.625-118.602-118.601-118.602
		C177.509,249.719,124.885,303.13,124.885,368.321"/>
	
		<path fill="none" stroke="#55A680" stroke-width="2.96" stroke-linecap="round" stroke-linejoin="round" stroke-dasharray="0,10.018" d="
		M109.176,464.144c22.778,32.203,56.552,55.767,95.824,65.191"/>
	
		<path fill="none" stroke="#55A680" stroke-width="2.96" stroke-linecap="round" stroke-linejoin="round" stroke-dasharray="0,10.073" d="
		M319.674,515.198c35.345-18.065,62.835-49.482,77.758-86.398"/>
	<path fill="none" stroke="#55A680" stroke-width="2.96" stroke-linecap="round" stroke-linejoin="round" d="M406.857,390.313
		L406.857,390.313 M243.486,533.263L243.486,533.263 M80.9,391.098L80.9,391.098"/>
</g>
<path fill="#55A680" d="M816.857,247.363H695.113v36.13h121.744V247.363z M597.719,283.493h73.832v-36.13h-73.832V283.493z"/>
<rect x="549.022" y="332.976" fill="#55A680" width="142.164" height="36.13"/>
<g>
	<path fill="#8AC165" d="M896.187,240.294c-21.993,0-40.058,18.065-40.058,40.058s18.065,40.058,40.058,40.058
		s40.058-18.065,40.058-40.058S918.179,240.294,896.187,240.294"/>
</g>
</svg>
