<?xml version="1.0" encoding="utf-8"?>
<!-- Generator: Adobe Illustrator 15.1.0, SVG Export Plug-In  -->
<!DOCTYPE svg PUBLIC "-//W3C//DTD SVG 1.1//EN" "http://www.w3.org/Graphics/SVG/1.1/DTD/svg11.dtd" [
	<!ENTITY ns_flows "http://ns.adobe.com/Flows/1.0/">
]>
<svg version="1.1"
	 xmlns="http://www.w3.org/2000/svg" xmlns:xlink="http://www.w3.org/1999/xlink" xmlns:a="http://ns.adobe.com/AdobeSVGViewerExtensions/3.0/"
	 x="0px" y="0px" width="148px" height="37px" viewBox="0 0 148 37" enable-background="new 0 0 148 37" xml:space="preserve">
<defs>
</defs>
<path fill="#EFC64F" d="M136.067,8.721v2.995h3.749v11.842c0,4.458,1.931,5.876,5.125,5.876c0.908,0,1.935-0.117,2.999-0.354v-2.916
	c-0.829,0.197-1.499,0.197-2.052,0.197c-2.328,0-2.447-1.618-2.447-4.5V11.716h4.42V8.721h-4.42V3.789h-3.625v4.932H136.067z
	 M117.164,22.532c0.04,4.539,3.233,7.139,8.877,7.139c4.777,0,8.285-2.403,8.285-6.073c0-5.053-4.258-5.764-7.89-6.474
	c-2.685-0.513-5.015-1.026-5.015-3.316c0-1.737,1.618-2.842,4.106-2.842c3.119,0,4.58,1.302,4.619,3.987h3.587
	c-0.039-4.421-2.995-6.824-8.127-6.824c-4.816,0-7.969,2.443-7.969,5.916c0,4.974,4.02,5.685,7.574,6.316
	c2.764,0.552,5.251,0.986,5.251,3.474c0,1.973-1.579,3.039-4.344,3.039c-3.355,0-5.29-1.461-5.29-4.342H117.164z M108.365,2.407
	c0,1.421,1.065,2.408,2.404,2.408c1.34,0,2.405-0.987,2.405-2.408c0-1.42-1.065-2.407-2.405-2.407
	C109.43,0,108.365,0.987,108.365,2.407 M108.957,29.079h3.627V8.721h-3.627V29.079z M94.982,11.045c2.921,0,5.131,1.935,5.525,6.042
	H89.26C89.773,12.98,91.904,11.045,94.982,11.045 M95.061,29.671c4.657,0,8.406-2.285,9.274-6.667h-3.828
	c-0.75,2.606-2.724,3.791-5.327,3.791c-3.315,0-5.801-2.725-5.999-6.753h15.193c0-7.536-2.881-11.913-9.234-11.913
	c-5.998,0-9.742,4.614-9.742,10.771C85.398,25.61,88.827,29.671,95.061,29.671 M71.86,11.084c3.316,0,5.567,2.921,5.567,7.066
	c0,4.581-2.172,7.461-5.567,7.461c-3.395,0-5.527-2.804-5.527-7.5C66.333,13.926,68.346,11.084,71.86,11.084 M80.816,8.721h-3.35
	v2.842c-1.185-2.173-3.356-3.276-6.317-3.276c-5.407,0-8.521,4.929-8.521,10.219c0,5.764,3.271,9.902,8.324,9.902
	c2.882,0,4.698-0.748,6.435-3.073v2.01c0,5.368-1.855,7.106-5.408,7.106c-2.883,0-4.58-1.146-4.738-3.673h-3.746
	c0.355,4.303,3.47,6.391,8.405,6.391c6.945,0,8.916-4.061,8.916-11.006V8.721z M48.383,8.721v2.995h3.748v11.842
	c0,4.458,1.931,5.876,5.126,5.876c0.907,0,1.933-0.117,2.999-0.354v-2.916c-0.829,0.197-1.5,0.197-2.052,0.197
	c-2.329,0-2.447-1.618-2.447-4.5V11.716h4.42V8.721h-4.42V3.789h-3.626v4.932H48.383z M41.003,2.407
	c0,1.421,1.065,2.408,2.405,2.408c1.34,0,2.405-0.987,2.405-2.408c0-1.42-1.065-2.407-2.405-2.407
	C42.068,0,41.003,0.987,41.003,2.407 M41.595,29.079h3.626V8.721h-3.626V29.079z M27.621,11.045c2.92,0,5.13,1.935,5.525,6.042
	H21.899C22.412,12.98,24.543,11.045,27.621,11.045 M27.7,29.671c4.657,0,8.406-2.285,9.274-6.667h-3.828
	c-0.75,2.606-2.723,3.791-5.327,3.791c-3.315,0-5.801-2.725-5.999-6.753h15.193c0-7.536-2.88-11.913-9.234-11.913
	c-5.998,0-9.742,4.614-9.742,10.771C18.037,25.61,21.466,29.671,27.7,29.671 M0,29.079h15.824v-2.955H8.879
	c-1.184,0-3.552,0.04-4.735,0.158l11.207-14.566V8.721H0.552v2.995h6.314c1.066,0,3.394-0.04,4.46-0.197L0,26.124V29.079z"/>
</svg>
