<?xml version="1.0" encoding="utf-8"?>
<!-- Generator: Adobe Illustrator 15.1.0, SVG Export Plug-In . SVG Version: 6.00 Build 0)  -->
<!DOCTYPE svg PUBLIC "-//W3C//DTD SVG 1.1//EN" "http://www.w3.org/Graphics/SVG/1.1/DTD/svg11.dtd">
<svg version="1.1" id="Ebene_1" xmlns="http://www.w3.org/2000/svg" xmlns:xlink="http://www.w3.org/1999/xlink" x="0px" y="0px"
	 width="1190.549px" height="512px" viewBox="0 163.445 1190.549 512" enable-background="new 0 163.445 1190.549 512"
	 xml:space="preserve">
<g>
	<path fill="#EFC64F" d="M484.533,555.45c1.124,0,1.687,0.675,1.687,1.799v22.452c4.198-0.449,8.846-0.563,12.032-0.563
		c21.664,0,27.324,4.086,27.324,27.213v35.046c0,1.236-0.563,1.799-1.687,1.799h-13.494c-1.124,0-1.574-0.563-1.574-1.799v-30.735
		c0-16.23-1.799-17.018-12.257-17.018h-10.195v47.715c0,1.237-0.562,1.8-1.687,1.8h-13.605c-1.125,0-1.574-0.563-1.574-1.8v-84.11
		c0-1.124,0.562-1.799,1.687-1.799H484.533L484.533,555.45z"/>
	<path fill="#EFC64F" d="M593.831,611.449c0,25.862-5.322,32.31-28.898,32.31c-23.464,0-28.899-6.447-28.899-32.31
		c0-25.976,5.436-32.311,28.899-32.311C588.509,579.139,593.831,585.474,593.831,611.449z M552.901,611.449
		c0,14.28,1.687,17.804,12.032,17.804c10.42,0,12.145-3.523,12.145-17.804c0-14.281-1.688-17.805-12.145-17.805
		C554.625,593.645,552.901,597.168,552.901,611.449z"/>
	<path fill="#EFC64F" d="M619.807,555.45c1.124,0,1.687,0.563,1.687,1.687v84.223c0,1.237-0.563,1.8-1.687,1.8h-13.381
		c-1.125,0-1.688-0.563-1.688-1.8v-84.223c0-1.124,0.563-1.687,1.688-1.687H619.807z"/>
	<path fill="#EFC64F" d="M682.065,579.701c1.237,0,1.912,0.563,1.912,1.687v7.722c0,0.899-0.338,1.462-0.787,2.137l-27.887,37.407
		h28.224c1.237,0,1.911,0.563,1.911,1.687v10.982c0,1.237-0.674,1.799-1.911,1.799h-50.563c-1.35,0-2.024-0.562-2.024-1.799v-7.384
		c0-0.787,0.226-1.35,0.787-2.174l28.787-37.97h-26.313c-1.349,0-1.911-0.563-1.911-1.687v-10.758c0-1.125,0.563-1.687,1.911-1.687
		h47.865V579.701z"/>
	<path fill="#EFC64F" d="M748.033,555.45c1.237,0,1.687,0.563,1.687,1.799v81.487c0,1.687-0.899,2.623-2.361,2.849
		c-9.295,1.461-17.129,2.174-24.926,2.174c-23.913,0-29.349-6.672-29.349-32.197c0-25.151,5.323-32.423,25.976-32.423
		c5.21,0,9.745,0.226,13.943,0.675v-22.564c0-1.236,0.45-1.799,1.687-1.799H748.033z M722.771,593.757
		c-11.433,0-12.932,3.074-12.932,17.692c0,13.381,0.899,17.804,12.257,17.804c2.736,0,7.496-0.225,10.87-0.787v-34.671h-10.195
		V593.757z"/>
	<path fill="#EFC64F" d="M816.851,610.662v3.522c0,2.249-0.675,3.074-3.636,3.074h-35.607c0.225,10.195,2.961,12.031,12.818,12.031
		h20.053c1.125,0,1.688,0.563,1.688,1.687v9.408c0,1.237-0.563,1.688-1.574,1.8c-5.998,1.236-14.169,1.574-21.665,1.574
		c-22.901,0-28.449-6.447-28.449-32.31c0-25.976,5.548-32.311,28.449-32.311C811.304,579.139,816.739,585.361,816.851,610.662z
		 M777.532,606.238h22.452c-0.113-9.97-2.736-12.594-10.982-12.594C780.493,593.645,777.645,596.269,777.532,606.238z"/>
	<path fill="#EFC64F" d="M868.914,580.601c1.35,0.338,1.799,0.787,1.799,1.8v8.62c0,1.237-0.449,1.8-1.911,1.8h-20.391
		c-4.423,0-6.672,1.236-6.672,4.085v1.125c0,2.174,1.35,3.748,5.435,5.21l14.506,5.098c9.633,3.411,11.882,9.296,11.882,17.017v1.8
		c0,13.156-9.745,16.566-24.139,16.566c-9.857,0-18.028-0.562-23.464-1.124c-1.462,0-1.911-0.45-1.911-1.687v-9.184
		c0-1.236,0.562-1.687,1.911-1.687h23.239c5.997,0,7.834-0.787,7.834-3.86v-1.013c0-2.136-1.237-3.636-6.223-5.322l-13.943-4.985
		c-8.958-3.073-11.544-9.97-11.544-17.241v-2.174c0-12.145,9.407-16.306,25.713-16.306
		C855.87,579.139,862.317,579.477,868.914,580.601z"/>
	<path fill="#EFC64F" d="M901.561,562.01c0,5.772-3.523,9.183-9.745,9.183c-6.335,0-9.971-3.41-9.971-9.183s3.636-9.07,9.971-9.07
		C898.037,552.938,901.561,556.237,901.561,562.01z M898.412,579.701c1.125,0,1.687,0.563,1.687,1.687v59.972
		c0,1.237-0.562,1.8-1.687,1.8h-13.381c-1.125,0-1.687-0.563-1.687-1.8v-59.972c0-1.124,0.562-1.687,1.687-1.687H898.412z"/>
	<path fill="#EFC64F" d="M965.506,581.275c1.462,0.225,2.361,1.237,2.361,2.849v57.686c-0.112,17.017-3.411,24.813-27.774,24.813
		c-6.896,0-14.394-0.45-20.99-1.574c-1.012-0.112-1.574-0.563-1.574-1.8v-8.62c0-1.237,0.45-1.688,1.574-1.688h19.491
		c9.97,0,12.369-2.249,12.369-9.745v-0.675c-4.873,0.899-9.071,1.237-13.831,1.237c-20.615,0-26.2-7.159-26.2-33.21
		c0-24.7,5.659-31.41,29.573-31.41C949.426,579.139,958.722,580.039,965.506,581.275z M939.793,593.645
		c-10.982,0-12.032,4.311-12.032,17.691c0,14.618,1.687,17.805,13.156,17.805c2.849,0,6.897-0.112,10.083-0.675v-34.783h-11.207
		V593.645z"/>
	<path fill="#EFC64F" d="M1036.722,606.352v35.046c0,1.236-0.675,1.799-1.799,1.799h-13.381c-1.125,0-1.688-0.563-1.688-1.799
		v-30.735c0-16.23-1.687-17.018-12.144-17.018h-10.308v47.715c0,1.237-0.563,1.8-1.688,1.8h-13.493c-1.125,0-1.687-0.563-1.687-1.8
		v-58.622c0-1.35,0.562-1.462,1.687-1.687c7.608-1.687,18.591-1.912,27.1-1.912C1031.063,579.139,1036.722,583.225,1036.722,606.352
		z"/>
	<path fill="#EFC64F" d="M1122.557,598.63v39.206c0,1.8-0.45,2.849-2.512,3.523c-7.946,1.8-17.916,2.361-25.75,2.361
		c-17.018,0-25.976-1.799-26.2-19.603c0.225-15.293,8.171-18.592,23.239-18.592h14.393v-4.085c0-5.436-3.41-7.834-10.645-7.834
		h-20.503c-1.237,0-1.574-0.338-1.574-1.687v-9.296c0-1.35,0.45-1.574,1.574-1.799c6.896-1.35,13.493-1.688,20.503-1.688
		C1117.572,579.139,1122.557,586.373,1122.557,598.63z M1092.721,616.434c-5.885,0-7.946,1.912-7.946,6.784
		c0,5.436,2.511,6.935,9.633,6.935c2.249,0,8.059-0.225,11.319-1.124v-12.595H1092.721L1092.721,616.434z"/>
	<path fill="#EFC64F" d="M1187.514,581.275c1.461,0.225,2.361,1.237,2.361,2.849v57.686c-0.113,17.017-3.411,24.813-27.774,24.813
		c-6.897,0-14.394-0.45-20.99-1.574c-1.013-0.112-1.574-0.563-1.574-1.8v-8.62c0-1.237,0.449-1.688,1.574-1.688h19.49
		c9.971,0,12.369-2.249,12.369-9.745v-0.675c-4.872,0.899-9.07,1.237-13.831,1.237c-20.615,0-26.199-7.159-26.199-33.21
		c0-24.7,5.659-31.41,29.573-31.41C1171.396,579.139,1180.692,580.039,1187.514,581.275z M1161.763,593.645
		c-10.982,0-12.031,4.311-12.031,17.691c0,14.618,1.687,17.805,13.156,17.805c2.849,0,6.896-0.112,10.083-0.675v-34.783h-11.208
		V593.645z"/>
</g>
<path fill="#EFC64F" d="M114.921,338.54c3.373,1.125,4.497,2.249,4.497,4.723v21.815c0,3.373-1.349,4.497-4.497,4.497H60.272
	c-10.795,0-16.643,4.049-16.643,11.92v2.698c0,6.297,3.374,11.021,11.47,14.169l38.906,14.393
	c22.04,8.321,33.734,17.767,33.734,48.128v5.847c0,32.835-24.963,45.204-67.468,45.204c-15.968,0-33.734-1.574-55.999-5.623
	C1.124,505.637,0,504.063,0,500.688v-20.24c0-3.373,1.349-4.723,4.723-4.723h64.994c10.345,0,15.968-3.374,15.968-11.02v-2.249
	c0-8.546-4.948-11.92-15.743-15.743l-38.906-14.168c-19.116-6.747-29.461-18.666-29.461-49.252v-4.947
	c0-32.835,21.14-44.979,64.994-44.979C85.235,333.368,98.054,334.942,114.921,338.54z"/>
<path fill="#EFC64F" d="M263.351,337.416c3.823,1.124,5.847,2.474,5.847,6.972v21.814c0,2.249-1.124,3.373-3.373,3.373h-47.902
	c-27.212,0-32.16,12.595-32.16,52.851s4.948,53.3,32.16,53.3h47.902c2.249,0,3.373,1.124,3.373,3.373v21.814
	c0,4.498-2.023,6.072-5.847,6.973c-11.021,2.698-23.39,4.048-45.429,4.048c-58.697,0-74.215-20.466-74.215-89.508
	s15.518-89.058,74.215-89.058C239.961,333.368,252.33,334.942,263.351,337.416z"/>
<path fill="#EFC64F" d="M712.912,334.717c2.249,0,3.374,1.35,3.374,3.599v136.285h69.941c2.249,0,3.374,1.125,3.374,3.374v29.461
	c0,2.249-1.125,3.373-3.374,3.373H678.054c-2.249,0-3.373-1.124-3.373-3.598V338.315c0-2.249,1.124-3.599,3.373-3.599H712.912z"/>
<path fill="#EFC64F" d="M846.275,334.717c2.249,0,3.373,1.35,3.373,3.599v168.67c0,2.699-1.124,3.823-3.373,3.823h-34.858
	c-2.249,0-3.373-1.124-3.373-3.823v-168.67c0-2.249,1.124-3.599,3.373-3.599H846.275L846.275,334.717z"/>
<path fill="#EFC64F" d="M1024.803,334.717c2.249,0,3.373,1.35,3.373,3.599v168.67c0,2.699-1.124,3.823-3.373,3.823h-24.514
	c-6.521,0-9.67-1.799-13.044-6.521l-66.344-95.13v97.828c0,2.699-1.124,3.823-3.373,3.823H882.67c-2.249,0-3.373-1.124-3.373-3.823
	v-168.67c0-2.249,1.124-3.599,3.373-3.599h25.638c9.445,0,10.795,2.249,14.618,7.871l63.645,90.857v-95.13
	c0-2.249,1.125-3.599,3.374-3.599H1024.803z"/>
<path fill="#EFC64F" d="M1177.056,337.416c3.823,1.124,5.847,2.474,5.847,6.972v21.814c0,2.249-1.124,3.373-3.373,3.373h-52.85
	c-27.213,0-32.16,12.595-32.16,53.075c0,40.256,4.948,53.075,32.16,53.075h24.963v-47.678c0-2.249,1.125-3.823,3.373-3.823h32.16
	c2.249,0,3.373,1.574,3.373,3.823v62.07c0,3.823-0.225,4.724-1.349,6.298c-5.397,8.995-31.485,15.518-62.521,15.518
	c-58.697,0-74.215-20.24-74.215-89.283c0-69.268,15.518-89.282,74.215-89.282C1141.973,333.368,1166.036,334.717,1177.056,337.416z"
	/>
<path fill="#EFC64F" d="M490.718,371.149c-7.197,0-14.131-1.087-20.69-3.035v138.834c0,2.698,1.125,3.823,3.373,3.823h34.859
	c2.248,0,3.373-1.125,3.373-3.823V368.076C504.998,370.063,497.99,371.149,490.718,371.149z"/>
<path fill="#EFC64F" d="M530.936,298.172c0,22.189-17.991,40.219-40.218,40.219c-22.228,0-40.182-17.992-40.182-40.219
	c0-22.189,17.992-40.181,40.182-40.181S530.936,275.982,530.936,298.172z"/>
<path fill="#EFC64F" d="M30.511,276.919c0,0,17.316,0.975,47.677,1.387c15.181,0.3,33.584,0.375,54.725,0.113
	c21.103-0.225,44.941-1.125,70.842-2.549c25.938-1.35,53.974-3.599,83.397-7.459c7.384-0.825,14.806-1.987,22.302-3.186
	c3.749-0.6,7.534-1.162,11.357-1.762c3.673-0.675,7.646-1.387,11.319-2.211c15.068-3.148,30.174-7.684,45.129-13.344
	c15.03-5.585,29.761-12.744,45.653-19.041c7.946-3.148,16.229-5.885,24.738-7.984c8.546-1.986,17.354-3.298,26.163-3.898
	c4.423-0.263,8.771-0.413,13.269-0.375l6.446,0.075l6.635,0.225c8.809,0.413,17.616,1.237,26.388,2.624
	c8.771,1.387,17.504,3.336,26.05,5.81c8.546,2.511,16.867,5.585,25.038,8.809c16.305,6.484,31.973,13.343,48.165,18.291
	c16.155,5.06,32.685,8.546,49.327,10.833c8.133,1.162,16.866,1.874,25.188,2.849c8.396,0.862,16.792,1.874,25.113,2.586
	c16.604,1.274,32.947,2.961,49.177,3.86c16.192,1.087,32.085,2.174,47.715,2.774c7.796,0.337,15.518,0.675,23.164,1.049
	c7.646,0.225,15.181,0.45,22.602,0.637c29.761,0.862,57.91,0.9,83.886,0.825c13.006-0.15,25.45-0.262,37.295-0.412
	c11.844-0.263,23.089-0.375,33.659-0.75c21.103-0.6,39.544-1.349,54.687-2.174c30.323-1.462,47.603-2.773,47.603-2.773
	s-4.311,0.487-12.407,1.424c-8.096,0.862-19.94,2.211-35.083,3.486c-15.143,1.349-33.509,2.699-54.649,4.048
	c-21.102,1.35-44.979,2.624-70.991,3.448c-26.05,0.637-54.274,1.2-84.147,0.975c-7.459-0.075-15.03-0.112-22.714-0.188
	c-7.646-0.187-15.405-0.375-23.277-0.524c-15.667-0.263-31.71-1.012-47.977-1.762c-4.086-0.188-8.172-0.375-12.257-0.6
	c-4.123-0.3-8.246-0.6-12.369-0.9c-8.284-0.6-16.604-1.199-25.001-1.799c-8.396-0.637-16.717-1.574-25.15-2.324
	c-8.472-0.862-16.755-1.499-25.525-2.586c-17.204-2.024-34.521-5.547-51.389-10.758c-16.904-5.097-33.134-12.106-49.064-18.366
	c-15.967-6.297-32.01-11.32-48.614-13.943c-8.283-1.349-16.68-2.174-25.038-2.624l-6.26-0.263l-6.446-0.112
	c-4.086-0.038-8.284,0.075-12.369,0.3c-16.455,0.975-32.311,4.76-47.641,10.607c-15.33,5.772-30.51,12.819-46.065,18.329
	c-15.555,5.622-31.373,9.633-47.04,12.444c-7.797,1.462-15.518,2.437-23.164,3.449c-7.609,1.049-15.143,2.062-22.602,2.773
	c-29.762,3.261-58.022,4.948-84.073,5.772c-26.088,0.75-49.964,0.712-71.142,0.262c-21.177-0.412-39.581-1.125-54.762-1.949
	c-15.18-0.787-27.062-1.724-35.158-2.399C34.821,277.332,30.511,276.919,30.511,276.919z"/>
<path fill="#EFC64F" d="M34.072,263.051c0,0,10.757-0.375,29.536-1.012c9.408-0.375,20.803-0.787,33.884-1.312
	c13.081-0.675,27.812-1.424,43.892-2.249c16.08-0.787,33.472-2.062,51.876-3.298c18.366-1.35,37.744-2.961,57.685-5.098
	c9.971-1.087,20.128-2.174,30.323-3.523c10.195-1.387,20.466-2.999,30.773-4.947c20.54-3.898,41.492-8.471,60.908-15.93
	c4.798-1.874,9.521-4.011,13.456-6.522c1.912-1.199,3.711-2.699,4.423-3.748c0.188-0.263,0.226-0.413,0.3-0.487c0,0,0.038-0.038,0,0
	c0,0.038,0,0.038,0,0.075v0.038c0,0.225-0.037-0.45,0.038,0.563l-0.038-0.487c0-0.15,0,0,0,0.112s0.038,0.262,0.075,0.375
	l0.15,0.412c0,0.075,0.112,0.15,0.074,0.15c0.113,0.15,0.038,0.038-0.149-0.112c-0.824-0.75-3.073-1.762-5.248-2.437
	c-2.248-0.712-4.685-1.349-7.121-1.874c-4.947-1.049-10.083-1.799-15.218-2.437c-20.728-2.361-41.493-3.111-61.509-3.861
	c-40.144-1.162-77.7-1.124-109.936-1.124c-64.47,0.337-107.461,0.524-107.461,0.524s2.661-0.262,7.684-0.712
	s12.369-1.162,21.777-1.837c18.778-1.349,45.578-3.523,77.813-4.985c16.118-0.825,33.585-1.424,52.101-1.912
	c18.479-0.525,38.007-0.675,58.248-0.45c20.24,0.225,41.117,0.862,62.558,3.223c5.359,0.6,10.757,1.35,16.229,2.474
	c2.736,0.562,5.51,1.237,8.358,2.136c2.849,1.012,5.735,1.874,9.108,4.536c0.824,0.712,1.725,1.574,2.549,2.849
	c0.188,0.262,0.375,0.674,0.563,1.049c0.149,0.337,0.337,0.712,0.524,1.35l0.225,0.862l0.112,0.6l0.038,0.487
	c0.075,1.162,0,0.637,0,1.05l-0.038,0.562c0,0.375-0.074,0.712-0.149,1.05c-0.112,0.712-0.338,1.312-0.563,1.949
	c-0.449,1.162-1.049,2.174-1.649,3.036c-2.474,3.336-5.097,5.098-7.646,6.784c-5.136,3.224-10.308,5.435-15.518,7.459
	c-20.841,7.759-42.093,12.332-63.12,16.08c-10.533,1.799-20.99,3.261-31.373,4.498c-10.383,1.199-20.615,2.099-30.698,2.999
	c-20.165,1.687-39.656,2.661-58.135,3.486c-18.479,0.75-35.983,1.125-52.138,1.349c-16.155,0.3-30.923,0.075-44.042,0
	c-13.119-0.225-24.551-0.412-33.959-0.562c-9.408-0.188-16.792-0.563-21.814-0.75C36.77,263.164,34.072,263.051,34.072,263.051z"/>
<path fill="#EFC64F" d="M51.239,246.296c0,0,31.11-2.324,77.775-5.81c11.657-0.9,24.289-1.837,37.632-2.849
	c13.344-1.125,27.4-2.287,41.943-3.523c14.506-1.312,29.498-2.849,44.604-4.798c7.534-1.012,15.143-2.136,22.452-3.748
	c3.523-0.825,7.496-1.837,9.857-3.111c0.563-0.188,0.787-0.899,0.112,0.375c-0.074,0.188-0.112,0.375-0.149,0.637
	c0,0.112-0.037,0.262,0,0.375c0,0.075,0.112,1.199,0.075,0.6l-0.038-0.188c0.038,0.262,0.112,0.525,0.188,0.75
	c0.075,0.225,0.3,0.525,0.338,0.6l0.149,0.188c0.375,0.413,0.412,0.3,0.188,0.225c-0.824-0.413-2.698-0.937-4.423-1.237
	c-7.159-1.312-14.993-1.762-22.64-2.174c-7.684-0.375-15.367-0.6-23.014-0.75c-15.293-0.3-30.36-0.412-44.979-0.375
	c-14.618,0.075-28.712,0.15-42.093,0.225c-13.381,0.112-26.051,0.225-37.745,0.337c-46.777,0.375-78,0.6-78,0.6
	s1.949-0.188,5.585-0.487s8.995-0.825,15.779-1.312c13.606-0.937,33.06-2.474,56.448-3.786c11.695-0.637,24.364-1.349,37.745-1.874
	c13.419-0.525,27.55-1.125,42.168-1.424c14.655-0.3,29.761-0.562,45.166-0.45c7.721,0.075,15.479,0.262,23.313,0.6
	c7.871,0.413,15.668,0.75,23.839,2.174c2.099,0.45,4.086,0.75,6.784,2.024c0.675,0.337,1.537,0.787,2.549,1.949l0.375,0.487
	c0.112,0.15,0.375,0.6,0.524,0.937c0.15,0.337,0.263,0.712,0.375,1.087l0.037,0.187c-0.074-0.45,0.113,0.787,0.113,0.975
	c0,0.225-0.038,0.487-0.038,0.75c-0.037,0.524-0.188,0.899-0.337,1.349c-0.638,1.612-1.499,2.399-2.174,2.999
	c-0.675,0.563-1.313,0.975-1.912,1.274c-4.535,2.324-8.321,2.999-12.294,3.973c-7.834,1.687-15.593,2.736-23.276,3.711
	c-15.368,1.949-30.474,3.111-45.092,4.123c-14.618,1.049-28.748,1.799-42.167,2.361c-13.419,0.637-26.088,1.049-37.782,1.312
	c-23.389,0.712-42.917,0.638-56.561,0.787C59.034,246.446,51.239,246.296,51.239,246.296z"/>
<path fill="#EFC64F" d="M110.236,180.065c0,0,3.86-0.113,11.057-0.375c7.197-0.263,17.767-0.6,31.224-0.899
	c13.456-0.337,29.798-0.75,48.539-1.2c18.741-0.3,39.881-0.6,62.933-0.975c23.052-0.3,48.053-0.637,74.478-0.975
	c26.425-0.15,54.312-0.262,83.136-0.412c3.636,0,7.271,0,10.907,0c3.636,0.038,7.271,0.075,10.944,0.15
	c7.385,0.188,14.956,0.525,22.452,1.125c14.993,1.162,30.136,3.186,45.241,6.259c15.067,3.074,30.023,7.234,44.716,12.069
	c14.693,4.873,29.162,10.345,43.518,15.743s28.711,10.607,43.18,14.993c14.468,4.423,29.086,7.871,43.741,10.42
	c14.693,2.511,29.424,4.011,44.042,4.573c7.196,0.225,14.806,0.487,21.965,0.487c7.234,0.038,14.431,0,21.59-0.262
	c28.637-0.563,56.298-3.074,82.386-6.26c26.088-3.336,50.676-7.571,73.203-12.107c22.526-4.647,43.142-9.22,61.246-13.831
	c18.142-4.573,33.847-9.033,46.74-12.894c25.788-7.646,40.256-12.856,40.256-12.856s-3.561,1.424-10.271,4.085
	c-6.746,2.586-16.604,6.372-29.386,10.72c-12.744,4.348-28.299,9.408-46.328,14.693c-18.028,5.248-38.457,10.945-61.021,16.005
	c-22.564,5.06-47.19,9.933-73.428,13.869c-26.238,3.823-54.125,7.046-83.136,8.246c-7.234,0.337-14.581,0.487-22.003,0.524
	c-7.459,0.113-14.617-0.075-22.264-0.225c-15.031-0.45-30.249-1.799-45.429-4.235c-30.474-4.648-60.31-14.618-89.096-25.488
	c-14.431-5.36-28.749-10.757-43.142-15.442c-14.394-4.686-28.899-8.621-43.479-11.695c-14.581-2.999-29.236-5.022-43.817-6.222
	c-7.309-0.6-14.468-0.937-21.702-1.162c-3.673-0.075-7.309-0.112-10.944-0.188c-3.599,0-7.197-0.038-10.795-0.038
	c-28.824-0.262-56.711-0.524-83.136-0.787c-26.313-0.45-51.313-0.899-74.365-1.312c-23.052-0.45-44.191-0.862-62.933-1.237
	c-18.741-0.562-35.083-1.012-48.539-1.424c-13.457-0.375-24.026-0.75-31.224-1.049C114.096,180.215,110.236,180.065,110.236,180.065
	z"/>
<path fill="#EFC64F" d="M572.616,179.391c0,0,6.597,2.849,18.404,7.009c5.885,2.136,13.118,4.46,21.439,7.009
	c8.321,2.549,17.804,5.098,28.149,7.759c5.21,1.199,10.607,2.436,16.229,3.71c5.66,1.049,11.433,2.399,17.467,3.448
	c12.032,2.099,24.776,4.011,37.97,5.36c6.597,0.674,13.307,1.387,20.165,1.649c3.411,0.188,6.822,0.375,10.271,0.563
	c3.448,0.075,6.935,0.15,10.383,0.225c3.448,0.075,6.896,0.112,10.383,0.188c3.561-0.075,7.121-0.188,10.683-0.262
	c3.561-0.113,7.159-0.113,10.682-0.337l10.57-0.675c7.047-0.3,14.131-0.899,21.215-1.537c7.084-0.525,14.094-1.274,21.065-2.062
	c6.972-0.75,13.906-1.537,20.728-2.399c6.821-0.825,13.568-1.649,20.203-2.624c26.537-3.673,51.238-7.684,72.415-11.245
	c10.57-1.836,20.278-3.561,28.862-5.06c8.583-1.574,16.079-2.923,22.265-4.048c12.331-2.287,19.415-3.599,19.415-3.599
	s-27.287,9.108-69.229,19.116c-10.495,2.474-21.853,5.135-33.996,7.571c-12.107,2.474-24.889,5.06-38.232,7.197
	c-6.635,1.162-13.419,2.211-20.315,3.223c-3.448,0.525-6.896,1.05-10.383,1.575c-3.485,0.412-7.009,0.824-10.532,1.274
	c-7.047,0.862-14.168,1.687-21.327,2.287c-7.159,0.712-14.356,1.387-21.628,1.724l-10.869,0.6c-3.636,0.188-7.159,0.15-10.758,0.225
	c-3.561,0.075-7.121,0.112-10.683,0.188c-3.823-0.038-7.233-0.188-10.869-0.262c-3.562-0.113-7.122-0.225-10.683-0.337
	c-3.523-0.3-7.047-0.6-10.533-0.9c-6.972-0.487-13.83-1.387-20.577-2.249c-13.494-1.687-26.388-4.31-38.494-7.009
	c-6.072-1.387-11.92-2.924-17.58-4.386c-5.585-1.687-11.02-3.298-16.192-4.835c-10.308-3.298-19.641-6.672-27.812-9.933
	c-8.171-3.223-15.181-6.334-20.84-9.033c-5.735-2.624-10.083-4.985-13.044-6.559C574.191,180.252,572.616,179.391,572.616,179.391z"
	/>
<path fill="#EFC64F" d="M640.759,179.391c0,0,4.349,0.524,11.957,1.387c3.786,0.412,8.396,0.899,13.681,1.462
	c5.285,0.487,11.208,1.162,17.729,1.687c6.484,0.525,13.494,1.2,20.953,1.649c3.71,0.262,7.533,0.524,11.432,0.787
	c3.898,0.188,7.871,0.375,11.919,0.524c4.049,0.188,8.172,0.375,12.332,0.563c4.16,0,8.358,0,12.632,0.112
	c4.198,0.038,8.621,0.188,12.706,0.15c4.348-0.112,8.696-0.262,13.044-0.375c4.348-0.113,8.733-0.075,13.044-0.225
	c4.272-0.188,8.583-0.412,12.818-0.6c4.236-0.225,8.434-0.375,12.632-0.525c4.198-0.225,8.321-0.487,12.369-0.712
	c16.268-0.937,31.485-1.799,44.491-2.549c6.522-0.375,12.52-0.712,17.805-1.012c5.322-0.262,9.933-0.525,13.756-0.712
	c7.646-0.337,12.031-0.525,12.031-0.525s-4.235,1.125-11.731,2.773c-7.496,1.612-18.179,3.861-31.147,5.96
	c-6.447,1.162-13.494,2.211-20.953,3.186c-3.711,0.525-7.533,1.049-11.47,1.574c-3.936,0.487-7.946,0.862-12.031,1.274
	c-8.134,0.862-16.604,1.799-25.264,2.211c-4.31,0.262-8.695,0.562-13.081,0.825c-4.348,0.225-8.695,0.3-13.081,0.412
	c-4.348,0.075-8.733,0.112-13.044,0.188c-4.573-0.038-8.809-0.262-13.193-0.375c-4.349-0.112-8.621-0.3-12.856-0.524
	c-4.236-0.375-8.396-0.788-12.52-1.162c-4.086-0.413-8.134-0.675-12.069-1.2c-3.936-0.562-7.759-1.124-11.507-1.649
	c-7.497-0.937-14.469-2.399-20.953-3.636c-6.484-1.125-12.331-2.662-17.541-3.861c-5.21-1.162-9.671-2.549-13.382-3.523
	c-3.71-1.012-6.559-2.024-8.508-2.624S640.759,179.391,640.759,179.391z"/>
<path fill="#EFC64F" d="M1174.882,248.47c0,0-31.785,4.198-79.65,8.659c-23.913,2.249-51.875,4.573-81.86,6.597
	c-14.993,0.937-30.511,1.799-46.291,2.511c-15.817,0.675-31.86,1.087-48.09,0.75c-4.086-0.113-8.171-0.263-12.332-0.675
	c-2.099-0.188-4.235-0.45-6.559-0.937c-1.2-0.3-2.362-0.487-4.161-1.387c-0.412-0.188-1.012-0.563-1.611-1.05
	c-0.375-0.337-0.712-0.675-1.05-1.087c-0.412-0.637-0.75-1.125-1.012-1.987c-0.113-0.412-0.226-0.862-0.263-1.312
	c0-1.874,0-0.637,0-1.087l0.037-0.413c0.075-0.412,0.15-0.825,0.3-1.237c0.338-0.975,0.45-0.975,0.713-1.462
	c0.262-0.412,0.412-0.562,0.637-0.862c1.574-1.799,2.661-2.287,3.748-2.999c1.087-0.637,2.1-1.124,3.111-1.611
	c1.986-0.937,3.936-1.687,5.885-2.399c3.86-1.424,7.722-2.661,11.545-3.861c15.293-4.648,30.397-8.434,45.054-11.807
	c14.692-3.374,28.861-6.522,42.392-9.221c13.494-2.736,26.275-5.285,38.12-7.384c47.265-8.733,79.088-12.894,79.088-12.894
	s-7.759,1.987-21.365,5.435c-13.606,3.374-33.021,8.134-56.373,13.906c-11.657,2.849-24.289,5.922-37.633,9.22
	c-13.306,3.336-27.362,6.859-41.905,10.495c-14.468,3.823-29.461,7.646-44.267,12.294c-3.71,1.162-7.384,2.399-10.944,3.748
	c-1.762,0.675-3.523,1.387-5.098,2.137c-0.787,0.375-1.574,0.787-2.212,1.162c-0.6,0.3-1.236,0.9-0.937,0.637l0.188-0.262
	c0.149-0.262,0.075-0.075,0.375-0.787c0.112-0.3,0.149-0.562,0.188-0.862c0.037-0.375,0,0,0-0.037c0-0.337-0.038,1.049,0-0.75
	c0-0.3-0.075-0.637-0.188-0.937c-0.226-0.637-0.375-0.937-0.675-1.312c-0.188-0.263-0.338-0.413-0.525-0.563
	c-0.187-0.188-0.374-0.262-0.337-0.262c0,0,0.787,0.3,1.537,0.45c1.574,0.337,3.448,0.6,5.285,0.787
	c3.785,0.375,7.684,0.562,11.619,0.712c15.78,0.487,31.747,0.037,47.452-0.263c15.705-0.337,31.186-0.899,46.179-1.499
	c29.985-1.2,57.947-2.324,81.936-3.261C1142.834,249.407,1174.882,248.47,1174.882,248.47z"/>
<path fill="#EFC64F" d="M1133.689,214.249c0,0-3.036,0.787-8.321,2.099c-5.322,1.312-12.894,3.148-22.002,5.248
	c-9.07,2.136-19.678,4.573-30.96,7.346c-5.622,1.424-11.395,2.961-17.055,4.76c-2.736,0.9-5.697,1.949-7.722,3.149
	c-0.449,0.225-0.861,0.674-0.6,0.412c0.038-0.038,0.075-0.112,0.075-0.188c0.075-0.112,0.15-0.3,0.188-0.45s0.075-0.337,0.112-0.6
	c0-0.113,0-0.225,0-0.337l-0.037-0.188c-0.263-1.087-0.075-0.262-0.113-0.487l0.075,0.262c0.038,0.113,0.075,0.225,0-0.037
	c-0.037-0.263-0.449-0.712-0.375-0.675c-0.225-0.15,0.112,0.112,0.563,0.262c0.45,0.188,1.05,0.375,1.687,0.525
	c5.285,1.125,11.657,1.162,17.617,1.125c6.034,0,12.031-0.225,17.804-0.525c11.582-0.524,22.452-1.312,31.785-1.874
	c18.629-1.274,31.147-1.874,31.147-1.874s-12.144,3.036-30.66,6.072c-4.61,0.75-9.633,1.574-14.955,2.249
	c-5.323,0.675-10.945,1.462-16.792,1.987c-5.848,0.525-11.92,1.012-18.142,1.274c-6.297,0.075-12.481,0.3-19.453-1.05
	c-0.9-0.225-1.8-0.412-2.812-0.824c-0.975-0.413-2.099-0.825-3.373-2.137c-0.226-0.188-0.787-1.012-1.05-1.574
	c-0.188-0.412-0.225-0.525-0.225-0.562l-0.075-0.263l-0.15-0.6l-0.037-0.3c0-0.225,0-0.412,0-0.637c0-0.45,0.075-0.862,0.188-1.162
	c0.112-0.337,0.225-0.675,0.375-0.975l0.412-0.674c1.162-1.537,2.062-1.987,2.961-2.586c3.373-1.912,6.335-2.774,9.408-3.786
	c6.034-1.874,11.994-3.186,17.767-4.348c11.544-2.361,22.377-3.936,31.672-5.135C1121.17,214.774,1133.689,214.249,1133.689,214.249
	z"/>
<path fill="#EFC64F" d="M652.866,474.601h-69.942V338.315c0-2.249-1.124-3.599-3.373-3.599h-25.713
	c-3.411,5.923-7.646,11.282-12.52,16.005v156.489c0,2.474,1.125,3.598,3.374,3.598h108.174c2.249,0,3.373-1.124,3.373-3.373v-29.461
	C656.24,475.726,655.115,474.601,652.866,474.601z"/>
<path fill="#EFC64F" d="M427.635,334.717H402.11c-2.249,0-3.373,1.35-3.373,3.599v66.568h-65.894v-66.568
	c0-2.249-1.125-3.599-3.374-3.599h-34.858c-2.249,0-3.373,1.35-3.373,3.599v168.67c0,2.699,1.124,3.823,3.373,3.823h34.858
	c2.249,0,3.374-1.124,3.374-3.823v-65.443h65.894v65.443c0,2.699,1.124,3.823,3.373,3.823h34.858c2.249,0,3.374-1.124,3.374-3.823
	V350.872C435.357,346.111,431.083,340.677,427.635,334.717z"/>
</svg>
