<?xml version="1.0" encoding="utf-8"?>
<!-- Generator: Adobe Illustrator 15.1.0, SVG Export Plug-In . SVG Version: 6.00 Build 0)  -->
<!DOCTYPE svg PUBLIC "-//W3C//DTD SVG 1.1//EN" "http://www.w3.org/Graphics/SVG/1.1/DTD/svg11.dtd">
<svg version="1.1" id="Ebene_1" xmlns="http://www.w3.org/2000/svg" xmlns:xlink="http://www.w3.org/1999/xlink" x="0px" y="0px"
	 width="595.281px" height="235px" viewBox="0 0 595.281 235" enable-background="new 0 0 595.281 235" xml:space="preserve">
<rect x="6.22" y="170.5" fill="none" width="583.061" height="64.5"/>
<text transform="matrix(1 0 0 1 18.4543 207.79)" fill="#EFC64F" font-family="'Calibri-Light'" font-size="55">Haustechnik &amp; Metallbau</text>
<g>
	<path fill="#EFC64F" d="M432.361,85.857c-2.637,0.636-4.834,1.563-6.592,2.783s-3.064,2.687-3.918,4.396
		c-0.855,1.709-1.281,3.661-1.281,5.858c0,3.81,1.209,6.848,3.625,9.119c2.418,2.27,5.822,3.404,10.217,3.404
		c3.468,0,6.703-0.892,9.705-2.672c3.004-1.783,6.189-4.529,9.56-8.24V84.904h-12.086C438.074,84.904,434.998,85.223,432.361,85.857
		z"/>
	<path fill="#EFC64F" d="M487.879,126.066c0,3.613,1.817,6.349,5.456,8.203c3.638,1.855,8.703,2.783,15.197,2.783
		c4.103,0,7.531-0.402,10.291-1.207c2.758-0.807,4.992-1.869,6.701-3.188c1.709-1.318,2.93-2.831,3.662-4.54s1.1-3.49,1.1-5.347
		c0-3.223-1.307-5.688-3.918-7.397c-2.612-1.709-6.117-2.638-10.512-2.783l-19.262-0.658c-1.758,1.367-3.199,2.662-4.322,3.881
		c-1.123,1.222-2.014,2.404-2.672,3.553c-0.66,1.146-1.111,2.271-1.355,3.369C488.001,123.834,487.879,124.943,487.879,126.066z"/>
	<path fill="#EFC64F" d="M184.29,54.656c-3.32,0-6.237,0.623-8.752,1.866c-2.516,1.246-4.64,2.894-6.372,4.944
		c-1.733,2.051-3.064,4.431-3.992,7.143c-0.928,2.709-1.465,5.528-1.61,8.458h40.283c0.146-7.03-1.466-12.523-4.834-16.479
		C195.643,56.634,190.735,54.656,184.29,54.656z"/>
	<path fill="#EFC64F" d="M22.15,0.037v156h555.201v-156H22.15z M143.311,50.592c-0.073,0.316-0.159,0.671-0.256,1.063
		l-20.509,64.526c-0.099,0.391-0.281,0.707-0.549,0.951c-0.269,0.246-0.623,0.438-1.062,0.586c-0.439,0.146-1.015,0.244-1.722,0.293
		c-0.708,0.049-1.551,0.074-2.526,0.074c-1.025,0-1.904-0.037-2.637-0.109c-0.732-0.074-1.331-0.184-1.795-0.33
		c-0.465-0.146-0.83-0.342-1.099-0.586s-0.452-0.537-0.549-0.879L95.227,63.885l-0.146-0.586l-0.146,0.586L80.58,116.18
		c-0.099,0.391-0.293,0.707-0.586,0.951c-0.293,0.246-0.696,0.438-1.208,0.586c-0.512,0.146-1.135,0.244-1.868,0.293
		c-0.732,0.049-1.563,0.074-2.489,0.074c-0.979,0-1.808-0.037-2.49-0.109c-0.686-0.074-1.258-0.184-1.722-0.33
		c-0.465-0.146-0.817-0.342-1.062-0.586c-0.245-0.244-0.416-0.537-0.513-0.879L48.281,51.652c-0.146-0.341-0.256-0.684-0.33-1.024
		c-0.073-0.341-0.11-0.634-0.11-0.88c0-0.34,0.073-0.633,0.221-0.879c0.146-0.244,0.39-0.426,0.731-0.549
		c0.341-0.121,0.78-0.207,1.318-0.257c0.537-0.048,1.196-0.073,1.978-0.073c1.025,0,1.855,0.037,2.49,0.11
		c0.634,0.072,1.11,0.183,1.428,0.329s0.55,0.342,0.696,0.586c0.146,0.245,0.269,0.538,0.366,0.879l17.505,57.861l0.146,0.514
		l0.146-0.514L90.76,49.895c0.097-0.341,0.23-0.634,0.402-0.879c0.17-0.244,0.414-0.439,0.732-0.586
		c0.316-0.146,0.756-0.257,1.317-0.329c0.562-0.073,1.282-0.11,2.161-0.11c0.83,0,1.514,0.037,2.051,0.11
		c0.537,0.072,0.977,0.183,1.318,0.329c0.341,0.146,0.586,0.342,0.732,0.586c0.146,0.245,0.268,0.538,0.365,0.879l17.14,57.861
		l0.146,0.514l0.073-0.514l17.432-57.861c0.098-0.341,0.231-0.634,0.403-0.879c0.17-0.244,0.427-0.439,0.77-0.586
		c0.341-0.146,0.816-0.257,1.428-0.329c0.609-0.073,1.402-0.11,2.38-0.11c0.78,0,1.416,0.025,1.904,0.073
		c0.486,0.05,0.879,0.146,1.172,0.293s0.486,0.33,0.586,0.55c0.097,0.221,0.146,0.502,0.146,0.842
		C143.42,49.994,143.384,50.273,143.311,50.592z M212.854,79.632c0,1.758-0.465,2.966-1.393,3.626
		c-0.928,0.659-1.831,0.989-2.71,0.989h-45.189c0,4.102,0.402,7.813,1.208,11.133c0.805,3.319,2.135,6.164,3.992,8.533
		c1.854,2.366,4.271,4.186,7.251,5.454c2.978,1.271,6.64,1.904,10.985,1.904c3.076,0,5.834-0.268,8.276-0.805
		c2.44-0.537,4.552-1.135,6.335-1.795c1.782-0.658,3.247-1.256,4.395-1.795c1.146-0.537,1.966-0.806,2.454-0.806
		c0.293,0,0.562,0.072,0.807,0.22c0.243,0.146,0.438,0.379,0.586,0.696c0.146,0.316,0.256,0.722,0.33,1.207
		c0.072,0.488,0.109,1.101,0.109,1.832c0,0.343-0.024,0.672-0.072,0.988c-0.05,0.318-0.11,0.611-0.184,0.879
		c-0.073,0.271-0.183,0.525-0.33,0.771c-0.146,0.244-0.342,0.487-0.586,0.731c-0.245,0.244-1.001,0.672-2.271,1.281
		c-1.271,0.611-2.931,1.221-4.98,1.832c-2.051,0.608-4.431,1.158-7.141,1.646c-2.71,0.488-5.628,0.732-8.752,0.732
		c-5.127,0-9.668-0.769-13.623-2.307c-3.955-1.537-7.276-3.81-9.961-6.812c-2.687-3.004-4.725-6.727-6.116-11.17
		c-1.393-4.443-2.087-9.596-2.087-15.455c0-5.614,0.72-10.645,2.161-15.088c1.438-4.442,3.503-8.215,6.188-11.315
		s5.92-5.469,9.705-7.104c3.783-1.636,7.995-2.453,12.634-2.453c4.98,0,9.229,0.831,12.744,2.489
		c3.517,1.66,6.409,3.896,8.679,6.701c2.271,2.81,3.931,6.068,4.98,9.778c1.049,3.711,1.575,7.617,1.575,11.719L212.854,79.632
		L212.854,79.632z M241.638,116.18c0,0.293-0.073,0.561-0.221,0.805c-0.146,0.246-0.379,0.439-0.695,0.586
		c-0.318,0.146-0.759,0.269-1.318,0.367c-0.563,0.099-1.282,0.146-2.161,0.146c-0.831,0-1.527-0.049-2.087-0.146
		c-0.562-0.1-1.014-0.221-1.354-0.367c-0.343-0.146-0.575-0.34-0.696-0.586c-0.123-0.244-0.184-0.512-0.184-0.805V49.895
		c0-0.293,0.062-0.561,0.184-0.806c0.121-0.244,0.354-0.451,0.696-0.623c0.341-0.17,0.793-0.293,1.354-0.365
		c0.561-0.073,1.256-0.11,2.087-0.11c0.879,0,1.599,0.037,2.161,0.11c0.561,0.072,1,0.195,1.318,0.365
		c0.316,0.172,0.549,0.379,0.695,0.623c0.146,0.245,0.221,0.513,0.221,0.806V116.18z M241.711,32.316
		c-0.831,0.831-2.344,1.245-4.541,1.245c-2.148,0-3.625-0.401-4.431-1.209c-0.806-0.805-1.208-2.38-1.208-4.724
		s0.414-3.93,1.245-4.762c0.83-0.83,2.344-1.244,4.541-1.244c2.147,0,3.625,0.402,4.431,1.207c0.807,0.808,1.208,2.382,1.208,4.726
		C242.956,29.9,242.541,31.486,241.711,32.316z M303.236,107.061c-1.172,2.517-2.846,4.65-5.019,6.408
		c-2.174,1.758-4.772,3.102-7.801,4.029c-3.027,0.926-6.372,1.391-10.034,1.391c-2.296,0-4.468-0.182-6.519-0.549
		c-2.051-0.365-3.907-0.83-5.566-1.392c-1.66-0.563-3.064-1.159-4.211-1.795c-1.147-0.635-1.989-1.196-2.526-1.686
		c-0.538-0.486-0.929-1.098-1.172-1.83c-0.245-0.732-0.366-1.709-0.366-2.93c0-0.636,0.048-1.197,0.146-1.687
		c0.098-0.485,0.221-0.901,0.366-1.244c0.146-0.342,0.341-0.598,0.586-0.77c0.244-0.17,0.513-0.256,0.806-0.256
		c0.537,0,1.318,0.342,2.345,1.024c1.025,0.684,2.307,1.429,3.845,2.234c1.538,0.805,3.369,1.549,5.493,2.231
		c2.124,0.687,4.578,1.025,7.36,1.025c2.245,0,4.297-0.244,6.152-0.731c1.855-0.486,3.467-1.22,4.834-2.197
		c1.366-0.978,2.429-2.232,3.188-3.771c0.756-1.537,1.135-3.332,1.135-5.383s-0.488-3.783-1.465-5.201
		c-0.979-1.416-2.259-2.647-3.847-3.696c-1.587-1.052-3.394-1.979-5.42-2.783c-2.025-0.808-4.102-1.637-6.225-2.49
		c-2.124-0.854-4.2-1.795-6.226-2.821c-2.027-1.024-3.835-2.271-5.421-3.734c-1.587-1.465-2.868-3.224-3.845-5.273
		c-0.978-2.051-1.465-4.516-1.465-7.397c0-2.295,0.439-4.553,1.318-6.774s2.233-4.211,4.064-5.969
		c1.831-1.759,4.175-3.175,7.031-4.248c2.855-1.073,6.237-1.611,10.144-1.611c1.659,0,3.309,0.136,4.944,0.402
		c1.635,0.271,3.124,0.623,4.467,1.063c1.344,0.439,2.502,0.916,3.479,1.428c0.977,0.514,1.722,0.965,2.232,1.354
		c0.515,0.392,0.855,0.722,1.025,0.988c0.172,0.271,0.293,0.55,0.367,0.843c0.071,0.293,0.135,0.646,0.184,1.063
		c0.047,0.416,0.072,0.916,0.072,1.502s-0.037,1.111-0.109,1.574c-0.074,0.465-0.184,0.867-0.33,1.209
		c-0.146,0.342-0.33,0.599-0.549,0.77c-0.221,0.171-0.477,0.256-0.77,0.256c-0.392,0-0.979-0.268-1.758-0.806
		c-0.781-0.537-1.808-1.123-3.076-1.759c-1.271-0.633-2.783-1.219-4.541-1.758c-1.758-0.537-3.784-0.806-6.079-0.806
		c-2.296,0-4.311,0.269-6.042,0.806c-1.734,0.539-3.162,1.295-4.285,2.271c-1.124,0.979-1.966,2.124-2.527,3.441
		c-0.562,1.318-0.842,2.76-0.842,4.321c0,2.149,0.487,3.955,1.465,5.421c0.977,1.464,2.271,2.734,3.882,3.809
		c1.611,1.073,3.442,2.025,5.493,2.855c2.051,0.831,4.14,1.66,6.263,2.49c2.125,0.831,4.212,1.746,6.263,2.747
		s3.882,2.209,5.493,3.625c1.61,1.416,2.903,3.113,3.883,5.09c0.977,1.979,1.465,4.357,1.465,7.141
		C304.994,101.703,304.408,104.547,303.236,107.061z M361.244,107.061c-1.172,2.517-2.846,4.65-5.018,6.408
		c-2.174,1.758-4.773,3.102-7.802,4.029c-3.026,0.926-6.37,1.391-10.032,1.391c-2.297,0-4.47-0.182-6.521-0.549
		c-2.051-0.365-3.906-0.83-5.565-1.392c-1.66-0.563-3.064-1.159-4.211-1.795c-1.148-0.635-1.99-1.196-2.527-1.686
		c-0.537-0.486-0.928-1.098-1.172-1.83s-0.365-1.709-0.365-2.93c0-0.636,0.047-1.197,0.146-1.687
		c0.098-0.485,0.219-0.901,0.364-1.244c0.146-0.342,0.343-0.598,0.586-0.77c0.244-0.17,0.515-0.256,0.808-0.256
		c0.537,0,1.317,0.342,2.344,1.024c1.026,0.684,2.307,1.429,3.844,2.234c1.539,0.805,3.369,1.549,5.494,2.231
		c2.123,0.687,4.578,1.025,7.361,1.025c2.244,0,4.295-0.244,6.151-0.731c1.855-0.486,3.468-1.22,4.834-2.197
		c1.365-0.978,2.429-2.232,3.187-3.771c0.756-1.537,1.135-3.332,1.135-5.383s-0.488-3.783-1.465-5.201
		c-0.977-1.416-2.258-2.647-3.846-3.696c-1.586-1.052-3.394-1.979-5.42-2.783c-2.025-0.808-4.103-1.637-6.226-2.49
		c-2.125-0.854-4.199-1.795-6.227-2.821c-2.025-1.024-3.832-2.271-5.42-3.734c-1.586-1.465-2.867-3.224-3.845-5.273
		c-0.979-2.051-1.465-4.516-1.465-7.397c0-2.295,0.439-4.553,1.318-6.774s2.231-4.211,4.063-5.969
		c1.83-1.759,4.175-3.175,7.031-4.248c2.855-1.073,6.236-1.611,10.146-1.611c1.657,0,3.307,0.136,4.942,0.402
		c1.635,0.271,3.125,0.623,4.467,1.063c1.345,0.438,2.503,0.916,3.48,1.428c0.977,0.514,1.721,0.965,2.232,1.354
		c0.514,0.392,0.854,0.722,1.024,0.988c0.172,0.271,0.293,0.55,0.367,0.843c0.072,0.293,0.135,0.646,0.184,1.063
		c0.047,0.416,0.072,0.916,0.072,1.502s-0.037,1.111-0.109,1.574c-0.073,0.465-0.184,0.867-0.329,1.209
		c-0.146,0.342-0.33,0.599-0.55,0.77c-0.221,0.171-0.477,0.256-0.77,0.256c-0.391,0-0.978-0.268-1.758-0.806
		c-0.781-0.537-1.808-1.123-3.076-1.759c-1.271-0.633-2.783-1.219-4.541-1.758c-1.758-0.537-3.783-0.806-6.078-0.806
		c-2.297,0-4.311,0.269-6.043,0.806c-1.734,0.539-3.162,1.295-4.285,2.271c-1.123,0.979-1.965,2.124-2.526,3.441
		c-0.562,1.318-0.843,2.76-0.843,4.321c0,2.149,0.488,3.955,1.465,5.421c0.978,1.464,2.271,2.734,3.884,3.809
		c1.61,1.073,3.44,2.025,5.491,2.855c2.052,0.831,4.14,1.66,6.263,2.49c2.125,0.831,4.213,1.746,6.264,2.747
		s3.881,2.209,5.492,3.625s2.904,3.113,3.883,5.09c0.978,1.979,1.465,4.357,1.465,7.141
		C363.001,101.703,362.416,104.547,361.244,107.061z M462.39,116.18c0,0.488-0.158,0.867-0.476,1.135
		c-0.317,0.271-0.731,0.463-1.245,0.586c-0.513,0.121-1.21,0.185-2.089,0.185c-0.83,0-1.536-0.063-2.123-0.185
		c-0.586-0.123-1.038-0.315-1.354-0.586c-0.318-0.268-0.478-0.646-0.478-1.135v-7.398c-2.979,3.224-6.262,5.714-9.85,7.472
		c-3.59,1.758-7.313,2.637-11.17,2.637c-3.469,0-6.58-0.451-9.338-1.354c-2.76-0.904-5.092-2.197-6.996-3.884
		c-1.904-1.684-3.369-3.723-4.395-6.114c-1.026-2.393-1.537-5.078-1.537-8.058c0-3.662,0.756-6.848,2.27-9.559
		c1.514-2.709,3.662-4.969,6.445-6.775c2.783-1.806,6.127-3.161,10.035-4.064c3.905-0.902,8.25-1.354,13.037-1.354h10.547v-5.713
		c0-2.831-0.293-5.334-0.879-7.507s-1.539-3.992-2.857-5.457s-3.027-2.563-5.127-3.296s-4.662-1.099-7.689-1.099
		c-2.93,0-5.565,0.354-7.909,1.063c-2.345,0.709-4.396,1.501-6.152,2.38s-3.211,1.673-4.357,2.38
		c-1.147,0.709-1.967,1.063-2.455,1.063c-0.293,0-0.561-0.047-0.805-0.146c-0.246-0.098-0.453-0.28-0.623-0.549
		c-0.172-0.269-0.293-0.61-0.365-1.024c-0.073-0.416-0.11-0.916-0.11-1.502c0-1.025,0.074-1.844,0.221-2.453
		c0.147-0.61,0.523-1.222,1.135-1.832c0.609-0.609,1.695-1.33,3.261-2.16c1.563-0.83,3.354-1.6,5.383-2.307
		c2.024-0.709,4.211-1.283,6.555-1.723s4.688-0.659,7.031-0.659c4.541,0,8.375,0.55,11.5,1.647c3.123,1.099,5.649,2.674,7.58,4.725
		c1.928,2.051,3.307,4.577,4.139,7.581c0.83,3.002,1.244,6.408,1.244,10.217v44.823H462.39z M539.001,54.949
		c-0.438,0.537-1,0.806-1.684,0.806h-10.475c2.051,2.1,3.479,4.383,4.285,6.849c0.807,2.467,1.209,5.065,1.209,7.801
		c0,3.761-0.601,7.104-1.796,10.033c-1.196,2.93-2.893,5.409-5.09,7.435c-2.196,2.026-4.811,3.577-7.838,4.649
		c-3.026,1.074-6.371,1.611-10.033,1.611c-2.979,0-5.813-0.414-8.496-1.244c-2.686-0.83-4.786-1.855-6.299-3.076
		c-0.979,0.978-1.782,2.101-2.418,3.369c-0.635,1.269-0.951,2.734-0.951,4.395c0,1.855,0.892,3.419,2.675,4.688
		c1.78,1.27,4.088,1.953,6.92,2.051l17.944,0.732c3.027,0.098,5.871,0.512,8.533,1.244c2.66,0.731,4.99,1.819,6.994,3.26
		c2.002,1.44,3.588,3.211,4.76,5.311c1.172,2.101,1.759,4.564,1.759,7.396c0,2.93-0.599,5.738-1.794,8.424
		c-1.196,2.684-3.053,5.041-5.565,7.068c-2.516,2.024-5.728,3.637-9.633,4.834c-3.906,1.194-8.568,1.793-13.988,1.793
		c-5.176,0-9.584-0.451-13.221-1.354c-3.64-0.903-6.617-2.149-8.937-3.735c-2.319-1.589-4.004-3.455-5.053-5.604
		c-1.051-2.148-1.576-4.467-1.576-6.957c0-1.711,0.195-3.322,0.586-4.834c0.392-1.514,0.99-2.955,1.795-4.322
		c0.808-1.364,1.808-2.684,3.004-3.955c1.195-1.27,2.574-2.563,4.138-3.881c-2.49-1.27-4.32-2.809-5.492-4.614
		s-1.758-3.734-1.758-5.785c0-3.027,0.586-5.701,1.758-8.021s2.588-4.406,4.248-6.264c-1.418-1.855-2.517-3.881-3.297-6.079
		c-0.781-2.198-1.172-4.834-1.172-7.91c0-3.71,0.61-7.043,1.832-9.998c1.219-2.952,2.915-5.456,5.09-7.507
		c2.172-2.051,4.771-3.626,7.801-4.725c3.027-1.1,6.346-1.647,9.961-1.647c1.904,0,3.699,0.108,5.383,0.33
		c1.687,0.219,3.234,0.501,4.65,0.842h19.557c0.83,0,1.428,0.318,1.795,0.952c0.365,0.635,0.549,1.563,0.549,2.783
		C539.662,53.459,539.441,54.412,539.001,54.949z"/>
	<path fill="#EFC64F" d="M507.435,54.51c-2.59,0-4.859,0.439-6.813,1.318c-1.953,0.879-3.563,2.076-4.834,3.588
		c-1.27,1.515-2.223,3.271-2.854,5.273c-0.635,2.004-0.953,4.127-0.953,6.372c0,4.883,1.379,8.729,4.139,11.535
		c2.759,2.809,6.629,4.211,11.609,4.211c2.637,0,4.943-0.438,6.922-1.318c1.978-0.879,3.601-2.062,4.869-3.551
		s2.223-3.223,2.857-5.201c0.633-1.977,0.95-4.039,0.95-6.188c0-5.028-1.379-8.96-4.137-11.792
		C516.431,55.927,512.513,54.51,507.435,54.51z"/>
</g>
</svg>
