<?xml version="1.0" encoding="utf-8"?>
<!-- Generator: Adobe Illustrator 15.1.0, SVG Export Plug-In  -->
<!DOCTYPE svg PUBLIC "-//W3C//DTD SVG 1.1//EN" "http://www.w3.org/Graphics/SVG/1.1/DTD/svg11.dtd" [
	<!ENTITY ns_flows "http://ns.adobe.com/Flows/1.0/">
]>
<svg version="1.1"
	 xmlns="http://www.w3.org/2000/svg" xmlns:xlink="http://www.w3.org/1999/xlink" xmlns:a="http://ns.adobe.com/AdobeSVGViewerExtensions/3.0/"
	 x="0px" y="0px" viewBox="-4.032 -9.787 388 81" enable-background="new -4.032 -9.787 388 81"
	 xml:space="preserve">
<defs>
</defs>
<path fill="#F0F2DC" stroke="#000000" d="M13.533,22.606h19.658v12.025H13.533v17.569H0.5V1.22h35.499v12.241H13.533V22.606z"/>
<path fill="#F0F2DC" stroke="#000000" d="M55.004,21.238H75.67v11.161H55.004v7.633H77.47v12.169H41.971V1.22H77.47v12.097H55.004
	V21.238z"/>
<path fill="#F0F2DC" stroke="#000000" d="M89.996,36.071c5.113,6.192,16.346,6.48,16.706,1.008c0.144-2.88-4.537-4.537-8.713-5.113
	c-8.208-1.296-15.697-6.48-15.697-16.201c0-10.009,9.073-15.266,18.434-15.266c6.192,0,12.169,1.729,17.426,8.137l-8.425,6.481
	c-5.329-5.688-14.473-5.473-14.689,0.432c0.144,2.448,2.808,3.889,6.769,4.752c9.073,1.656,18.146,4.825,17.57,17.354
	c-0.432,9.865-10.801,15.266-20.162,15.266c-6.121,0-12.601-3.096-17.354-9.217L89.996,36.071z"/>
<path fill="#F0F2DC" stroke="#000000" d="M148.461,13.389v38.812h-13.033V13.389h-13.537V1.148h40.107v12.241H148.461z"/>
<path fill="#F0F2DC" stroke="#000000" d="M179.923,52.201h-12.889V1.22h12.889V52.201z"/>
<path fill="#F0F2DC" stroke="#000000" d="M218.011,1.148h13.825l-18.361,50.98h-11.809l-18.362-50.98h13.825l7.993,24.914
	l2.304,12.097h0.217l2.304-12.025L218.011,1.148z"/>
<path fill="#F0F2DC" stroke="#000000" d="M273.092,52.201h-13.825l-3.312-10.225h-13.609l-3.168,10.225h-13.825l17.785-50.98h11.737
	L273.092,52.201z M252.859,30.527l-3.528-14.905h-0.36l-3.744,14.905H252.859z"/>
<path fill="#F0F2DC" stroke="#000000" d="M276.472,1.22h12.961v38.235h20.738v12.745h-33.699V1.22z"/>
</svg>
