<?xml version="1.0" encoding="utf-8"?>
<!-- Generator: Adobe Illustrator 15.1.0, SVG Export Plug-In  -->
<!DOCTYPE svg PUBLIC "-//W3C//DTD SVG 1.1//EN" "http://www.w3.org/Graphics/SVG/1.1/DTD/svg11.dtd" [
	<!ENTITY ns_flows "http://ns.adobe.com/Flows/1.0/">
]>
<svg version="1.1"
	 xmlns="http://www.w3.org/2000/svg" xmlns:xlink="http://www.w3.org/1999/xlink" xmlns:a="http://ns.adobe.com/AdobeSVGViewerExtensions/3.0/"
	 x="0px" y="0px" viewBox="-4.032 -9.771 562 81" enable-background="new -4.032 -9.771 562 81"
	 xml:space="preserve">
<defs>
</defs>
<path fill="#F0F2DC" stroke="#000000" d="M13.461,52.216H0.5V1.236h12.961v19.298H28.15V1.236h12.961v50.98H28.15V32.991H13.461
	V52.216z"/>
<path fill="#F0F2DC" stroke="#000000" d="M62.205,21.253h20.666v11.161H62.205v7.633H84.67v12.169H49.171V1.236H84.67v12.097H62.205
	V21.253z"/>
<path fill="#F0F2DC" stroke="#000000" d="M91.507,1.236h12.961v38.235h20.738v12.745H91.507V1.236z"/>
<path fill="#F0F2DC" stroke="#000000" d="M143.348,22.622h19.658v12.025h-19.658v17.569h-13.033V1.236h35.499v12.241h-22.466V22.622
	z"/>
<path fill="#F0F2DC" stroke="#000000" d="M184.819,21.253h20.666v11.161h-20.666v7.633h22.466v12.169h-35.499V1.236h35.499v12.097
	h-22.466V21.253z"/>
<path fill="#F0F2DC" stroke="#000000" d="M214.122,1.236h12.241l12.313,21.746l4.32,10.225l0.359-0.072
	c-0.071,0-1.368-8.785-1.439-8.785V1.236h12.816v50.98H241.7l-11.521-20.09l-4.465-10.225l-0.359,0.072l1.656,9.865v20.378h-12.89
	V1.236z"/>
<path fill="#F0F2DC" stroke="#000000" d="M260.273,10.165c8.785-16.705,31.971-9.937,31.971,6.48
	c0,6.265-3.815,12.961-12.385,14.186l-0.72,8.425h-10.801l-0.721-16.417c6.121,2.592,11.953-0.144,11.953-5.4
	c0-5.185-9.001-6.481-11.953-1.008L260.273,10.165z M273.739,41.055c3.6,0,6.48,2.665,6.48,6.481c0,3.672-2.881,6.552-6.48,6.552
	c-3.673,0-6.553-2.88-6.553-6.552C267.186,43.72,270.066,41.055,273.739,41.055z"/>
<path fill="#F0F2DC" stroke="#000000" d="M330.331,1.236c10.225,0,19.802,5.185,19.802,17.065v17.138
	c0,11.737-9.577,16.849-19.802,16.777h-19.082V1.236H330.331z M330.762,40.119c4.393,0,6.409-2.232,6.409-5.544V18.662
	c0-3.313-2.089-5.401-6.409-5.401h-6.553v26.858H330.762z"/>
<path fill="#F0F2DC" stroke="#000000" d="M398.947,52.216h-13.825l-3.312-10.225h-13.609l-3.168,10.225h-13.825l17.785-50.98h11.737
	L398.947,52.216z M378.713,30.542l-3.528-14.905h-0.36l-3.744,14.905H378.713z"/>
<path fill="#F0F2DC" stroke="#000000" d="M402.327,1.236h12.241l12.313,21.746l4.32,10.225l0.359-0.072
	c-0.071,0-1.368-8.785-1.439-8.785V1.236h12.816v50.98h-13.033l-11.521-20.09l-4.465-10.225l-0.359,0.072l1.656,9.865v20.378h-12.89
	V1.236z"/>
<path fill="#F0F2DC" stroke="#000000" d="M477.785,1.236h16.058L473.68,25.862l20.09,26.354h-16.345l-13.033-18.218l-0.433,0.576
	v17.642h-12.961V1.236h12.961v18.866L477.785,1.236z"/>
<path fill="#F0F2DC" stroke="#000000" d="M510.112,21.253h20.666v11.161h-20.666v7.633h22.466v12.169h-35.499V1.236h35.499v12.097
	h-22.466V21.253z"/>
<path fill="#F0F2DC" stroke="#000000" d="M538.479,0.948h14.688l-0.72,35.427h-13.249L538.479,0.948z M545.895,38.535
	c4.032,0,7.272,3.24,7.272,7.272c0,3.96-3.24,7.129-7.272,7.129c-3.96,0-7.128-3.168-7.128-7.129
	C538.767,41.775,541.935,38.535,545.895,38.535z"/>
</svg>
