<?xml version="1.0" encoding="utf-8"?>
<!-- Generator: Adobe Illustrator 15.1.0, SVG Export Plug-In  -->
<!DOCTYPE svg PUBLIC "-//W3C//DTD SVG 1.1//EN" "http://www.w3.org/Graphics/SVG/1.1/DTD/svg11.dtd" [
	<!ENTITY ns_flows "http://ns.adobe.com/Flows/1.0/">
]>
<svg version="1.1"
	 xmlns="http://www.w3.org/2000/svg" xmlns:xlink="http://www.w3.org/1999/xlink" xmlns:a="http://ns.adobe.com/AdobeSVGViewerExtensions/3.0/"
	 x="0px" y="0px" viewBox="-4.032 -9.787 388 81" enable-background="new -4.032 -9.787 388 81"
	 xml:space="preserve">
<defs>
</defs>
<path fill="#F0F2DC" stroke="#000000" d="M0.5,1.22h20.378c12.457,0,18.649,9.001,18.649,18.001c0,9.073-6.264,18.074-18.578,18.074
	h-7.561v14.905H0.5V1.22z M20.878,25.846c7.777,0.072,7.777-12.673,0-12.601h-7.489v12.601H20.878z"/>
<path fill="#F0F2DC" stroke="#000000" d="M60.333,36h-2.304v16.201H44.996V1.22h20.378c10.513,0,18.649,4.825,18.938,16.777
	c0,9.433-3.816,14.761-10.009,16.706L88.2,52.201H72.142L60.333,36z M65.589,24.91c8.137,0,8.137-11.665,0-11.665h-7.561V24.91
	H65.589z"/>
<path fill="#F0F2DC" stroke="#000000" d="M89.852,17.998C89.852,6.261,100.365,0.5,110.95,0.5s21.169,5.833,21.169,17.498v17.426
	c0,11.665-10.513,17.498-21.098,17.498s-21.17-5.833-21.17-17.498V17.998z M102.741,35.423c0,3.744,4.176,5.544,8.281,5.544
	s8.209-1.872,8.209-5.544V17.998c0-3.96-4.249-5.76-8.425-5.76c-4.033,0-8.065,2.016-8.065,5.76V35.423z"/>
<path fill="#F0F2DC" stroke="#000000" d="M164.806,16.342c-2.809-6.841-14.186-5.257-14.186,1.44v17.498
	c0,7.993,14.905,7.92,14.905,0v-1.872h-8.137V22.606h20.522v12.673c0,11.737-9.793,17.642-20.018,17.642
	c-10.081,0-20.162-5.905-20.162-17.642V17.782c0-11.521,10.081-17.282,20.162-17.282c6.625,0,14.185,2.736,17.713,10.873
	L164.806,16.342z"/>
<path fill="#F0F2DC" stroke="#000000" d="M199.22,36h-2.304v16.201h-13.033V1.22h20.377c10.514,0,18.65,4.825,18.938,16.777
	c0,9.433-3.816,14.761-10.009,16.706l13.896,17.498h-16.058L199.22,36z M204.477,24.91c8.137,0,8.137-11.665,0-11.665h-7.561V24.91
	H204.477z"/>
<path fill="#F0F2DC" stroke="#000000" d="M273.669,52.201h-13.825l-3.312-10.225h-13.609l-3.168,10.225H225.93l17.785-50.98h11.737
	L273.669,52.201z M253.436,30.527l-3.528-14.905h-0.36l-3.744,14.905H253.436z"/>
<path fill="#F0F2DC" stroke="#000000" d="M277.05,1.22h12.89l10.729,24.914L311.469,1.22h12.89v50.98h-12.962l0.072-14.689
	l0.792-10.297l-0.432-0.072l-6.696,17.498h-8.857l-6.841-17.498l-0.359,0.072l0.864,10.297v14.689h-12.89V1.22z"/>
<path fill="#F0F2DC" stroke="#000000" d="M332.417,1.22h12.89l10.729,24.914L366.836,1.22h12.89v50.98h-12.962l0.072-14.689
	l0.792-10.297l-0.432-0.072L360.5,44.64h-8.857l-6.841-17.498l-0.359,0.072l0.864,10.297v14.689h-12.89V1.22z"/>
</svg>
