<?xml version="1.0" encoding="utf-8"?>
<!-- Generator: Adobe Illustrator 15.1.0, SVG Export Plug-In . SVG Version: 6.00 Build 0)  -->
<!DOCTYPE svg PUBLIC "-//W3C//DTD SVG 1.1//EN" "http://www.w3.org/Graphics/SVG/1.1/DTD/svg11.dtd">
<svg version="1.1" id="Ebene_1" xmlns="http://www.w3.org/2000/svg" xmlns:xlink="http://www.w3.org/1999/xlink" x="0px" y="0px"
	 width="2834.65px" height="320.904px" viewBox="0 260.493 2834.65 320.904" enable-background="new 0 260.493 2834.65 320.904"
	 xml:space="preserve">
<polygon fill="#EB584E" points="1375.855,455.826 1416.938,500.009 217.036,500.009 175.179,455.826 "/>
<polygon fill="#EB584E" points="1458.795,455.826 1416.938,500.009 2617.614,500.009 2659.471,455.826 "/>
<polygon fill="#E7343C" points="1288.266,358.935 1329.348,403.117 129.447,403.117 87.59,358.935 "/>
<polygon fill="#E7343C" points="1546.385,358.935 1504.527,403.117 2705.203,403.117 2747.061,358.935 "/>
<polygon fill="#EB584E" points="0,262.044 41.857,306.226 1241.758,306.226 1200.676,262.044 "/>
<polygon fill="#EB584E" points="1633.975,262.044 1592.893,306.226 2792.793,306.226 2834.65,262.044 "/>
<g>
	<path fill="#EB584E" d="M456.552,444.199c-7.751,0-13.178-6.201-13.178-13.177c0-7.752,6.201-13.178,13.178-13.178
		c7.751,0,13.177,6.201,13.177,13.178C469.729,437.998,464.303,444.199,456.552,444.199"/>
	<path fill="#EB584E" d="M891.399,444.199c-7.751,0-13.177-6.201-13.177-13.177c0-7.752,6.201-13.178,13.177-13.178
		c7.751,0,13.177,6.201,13.177,13.178C905.352,437.998,899.15,444.199,891.399,444.199"/>
	<path fill="#EB584E" d="M1327.022,444.199c-7.751,0-13.177-6.201-13.177-13.177c0-7.752,6.201-13.178,13.177-13.178
		c7.751,0,13.177,6.201,13.177,13.178C1340.199,437.998,1333.999,444.199,1327.022,444.199"/>
	<path fill="#EB584E" d="M282.922,444.199c-7.751,0-13.177-6.201-13.177-13.177c0-7.752,6.201-13.178,13.177-13.178
		c7.751,0,13.177,6.201,13.177,13.178C296.1,437.998,289.898,444.199,282.922,444.199"/>
	<path fill="#EB584E" d="M717.771,444.199c-7.751,0-13.178-6.201-13.178-13.177c0-7.752,6.201-13.178,13.178-13.178
		c7.751,0,13.177,6.201,13.177,13.178C730.947,437.998,724.746,444.199,717.771,444.199"/>
	<path fill="#EB584E" d="M1152.618,444.199c-7.751,0-13.177-6.201-13.177-13.177c0-7.752,6.201-13.178,13.177-13.178
		c7.751,0,13.177,6.201,13.177,13.178C1165.795,437.998,1160.369,444.199,1152.618,444.199"/>
	<path fill="#E7343C" d="M369.737,444.199c-7.751,0-13.178-6.201-13.178-13.177c0-7.752,6.201-13.178,13.178-13.178
		c7.751,0,13.177,6.201,13.177,13.178C382.914,437.998,376.713,444.199,369.737,444.199"/>
	<path fill="#E7343C" d="M804.585,444.199c-7.751,0-13.177-6.201-13.177-13.177c0-7.752,6.201-13.178,13.177-13.178
		c7.751,0,13.177,6.201,13.177,13.178C817.762,437.998,812.336,444.199,804.585,444.199"/>
	<path fill="#E7343C" d="M1239.433,444.199c-7.751,0-13.177-6.201-13.177-13.177c0-7.752,6.201-13.178,13.177-13.178
		c7.751,0,13.178,6.201,13.178,13.178C1253.385,437.998,1247.184,444.199,1239.433,444.199"/>
	<path fill="#E7343C" d="M195.333,444.199c-7.751,0-13.178-6.201-13.178-13.177c0-7.752,6.201-13.178,13.178-13.178
		c7.751,0,13.177,6.201,13.177,13.178C209.285,437.998,203.084,444.199,195.333,444.199"/>
	<path fill="#E7343C" d="M630.956,444.199c-7.752,0-13.178-6.201-13.178-13.177c0-7.752,6.201-13.178,13.178-13.178
		c7.751,0,13.177,6.201,13.177,13.178C644.133,437.998,637.932,444.199,630.956,444.199"/>
	<path fill="#E7343C" d="M1065.804,444.199c-7.751,0-13.177-6.201-13.177-13.177c0-7.752,6.201-13.178,13.177-13.178
		c7.751,0,13.177,6.201,13.177,13.178C1078.98,437.998,1072.779,444.199,1065.804,444.199"/>
	<path fill="#E7343C" d="M543.366,444.199c-7.751,0-13.177-6.201-13.177-13.177c0-7.752,6.2-13.178,13.177-13.178
		c7.751,0,13.177,6.201,13.177,13.178C557.318,437.998,551.117,444.199,543.366,444.199"/>
	<path fill="#E7343C" d="M978.989,444.199c-7.751,0-13.177-6.201-13.177-13.177c0-7.752,6.2-13.178,13.177-13.178
		c7.751,0,13.177,6.201,13.177,13.178C992.166,437.998,985.965,444.199,978.989,444.199"/>
	<path fill="#EB584E" d="M2378.099,444.199c7.751,0,13.178-6.201,13.178-13.177c0-7.752-6.201-13.178-13.178-13.178
		c-7.751,0-13.177,6.201-13.177,13.178C2364.146,437.998,2370.348,444.199,2378.099,444.199"/>
	<path fill="#EB584E" d="M1943.251,444.199c7.751,0,13.177-6.201,13.177-13.177c0-7.752-6.201-13.178-13.177-13.178
		c-7.751,0-13.177,6.201-13.177,13.178C1929.299,437.998,1935.5,444.199,1943.251,444.199"/>
	<path fill="#EB584E" d="M1507.628,444.199c7.751,0,13.177-6.201,13.177-13.177c0-7.752-6.201-13.178-13.177-13.178
		c-7.751,0-13.177,6.201-13.177,13.178C1494.451,437.998,1500.651,444.199,1507.628,444.199"/>
	<path fill="#EB584E" d="M2551.729,444.199c7.751,0,13.177-6.201,13.177-13.177c0-7.752-6.201-13.178-13.177-13.178
		c-7.752,0-13.178,6.201-13.178,13.178C2538.551,437.998,2544.752,444.199,2551.729,444.199"/>
	<path fill="#EB584E" d="M2116.88,444.199c7.751,0,13.178-6.201,13.178-13.177c0-7.752-6.201-13.178-13.178-13.178
		c-7.751,0-13.177,6.201-13.177,13.178C2103.703,437.998,2109.129,444.199,2116.88,444.199"/>
	<path fill="#EB584E" d="M1682.032,444.199c7.751,0,13.177-6.201,13.177-13.177c0-7.752-6.201-13.178-13.177-13.178
		c-7.751,0-13.177,6.201-13.177,13.178C1668.08,437.998,1674.281,444.199,1682.032,444.199"/>
	<path fill="#E7343C" d="M2464.913,444.199c7.751,0,13.178-6.201,13.178-13.177c0-7.752-6.201-13.178-13.178-13.178
		c-7.751,0-13.177,6.201-13.177,13.178C2451.736,437.998,2457.162,444.199,2464.913,444.199"/>
	<path fill="#E7343C" d="M2030.065,444.199c7.751,0,13.177-6.201,13.177-13.177c0-7.752-6.2-13.178-13.177-13.178
		c-7.751,0-13.177,6.201-13.177,13.178C2016.113,437.998,2022.314,444.199,2030.065,444.199"/>
	<path fill="#E7343C" d="M1595.218,444.199c7.751,0,13.177-6.201,13.177-13.177c0-7.752-6.201-13.178-13.177-13.178
		c-7.751,0-13.178,6.201-13.178,13.178C1581.266,437.998,1587.467,444.199,1595.218,444.199"/>
	<path fill="#E7343C" d="M2639.317,444.199c7.751,0,13.178-6.201,13.178-13.177c0-7.752-6.201-13.178-13.178-13.178
		c-7.751,0-13.177,6.201-13.177,13.178C2625.365,437.998,2631.566,444.199,2639.317,444.199"/>
	<path fill="#E7343C" d="M2203.694,444.199c7.751,0,13.178-6.201,13.178-13.177c0-7.752-6.201-13.178-13.178-13.178
		c-7.751,0-13.177,6.201-13.177,13.178C2190.518,437.998,2196.719,444.199,2203.694,444.199"/>
	<path fill="#E7343C" d="M1768.847,444.199c7.751,0,13.177-6.201,13.177-13.177c0-7.752-6.201-13.178-13.177-13.178
		c-7.751,0-13.177,6.201-13.177,13.178C1755.67,437.998,1761.096,444.199,1768.847,444.199"/>
	<path fill="#E7343C" d="M2291.284,444.199c7.751,0,13.178-6.201,13.178-13.177c0-7.752-6.201-13.178-13.178-13.178
		c-7.751,0-13.177,6.201-13.177,13.178C2277.332,437.998,2283.533,444.199,2291.284,444.199"/>
	<path fill="#E7343C" d="M1855.661,444.199c7.751,0,13.177-6.201,13.177-13.177c0-7.752-6.201-13.178-13.177-13.178
		c-7.751,0-13.177,6.201-13.177,13.178C1842.484,437.998,1848.686,444.199,1855.661,444.199"/>
	<path fill="#EB584E" d="M365.861,347.308c-7.751,0-13.177-6.201-13.177-13.178c0-6.976,6.201-13.177,13.177-13.177
		c7.751,0,13.177,6.201,13.177,13.177C379.039,341.107,372.837,347.308,365.861,347.308"/>
	<path fill="#EB584E" d="M803.035,347.308c-7.752,0-13.178-6.201-13.178-13.178c0-6.976,6.201-13.177,13.178-13.177
		c7.751,0,13.177,6.201,13.177,13.177C816.212,341.107,810.011,347.308,803.035,347.308"/>
	<path fill="#EB584E" d="M1240.208,347.308c-7.751,0-13.177-6.201-13.177-13.178c0-6.976,6.201-13.177,13.177-13.177
		c7.751,0,13.177,6.201,13.177,13.177C1253.385,341.107,1247.184,347.308,1240.208,347.308"/>
	<path fill="#EB584E" d="M190.682,347.308c-7.751,0-13.177-6.201-13.177-13.178c0-6.976,6.201-13.177,13.177-13.177
		c7.751,0,13.177,6.201,13.177,13.177C203.859,341.107,198.433,347.308,190.682,347.308"/>
	<path fill="#EB584E" d="M627.855,347.308c-7.752,0-13.178-6.201-13.178-13.178c0-6.976,5.426-13.952,13.178-13.952
		c7.751,0,13.177,6.201,13.177,13.177C641.032,340.332,635.606,347.308,627.855,347.308"/>
	<path fill="#EB584E" d="M1065.028,347.308c-7.751,0-13.177-6.201-13.177-13.178c0-6.976,6.201-13.177,13.177-13.177
		c7.751,0,13.178,6.201,13.178,13.177C1078.206,341.107,1072.779,347.308,1065.028,347.308"/>
	<path fill="#E7343C" d="M278.271,347.308c-7.751,0-13.177-6.201-13.177-13.178c0-6.976,6.201-13.177,13.177-13.177
		c7.751,0,13.177,6.201,13.177,13.177C291.449,341.107,285.248,347.308,278.271,347.308"/>
	<path fill="#E7343C" d="M715.445,347.308c-7.752,0-13.178-6.201-13.178-13.178c0-6.976,6.201-13.177,13.178-13.177
		c7.751,0,13.177,6.201,13.177,13.177C728.622,341.107,722.421,347.308,715.445,347.308"/>
	<path fill="#E7343C" d="M1152.618,347.308c-7.751,0-13.177-6.201-13.177-13.178c0-6.976,6.201-13.177,13.177-13.177
		c7.751,0,13.177,6.201,13.177,13.177C1165.795,341.107,1159.595,347.308,1152.618,347.308"/>
	<path fill="#E7343C" d="M103.092,347.308c-7.751,0-13.177-6.201-13.177-13.178c0-6.976,6.201-13.177,13.177-13.177
		s13.177,6.201,13.177,13.177C116.27,341.107,110.844,347.308,103.092,347.308"/>
	<path fill="#E7343C" d="M540.266,347.308c-7.751,0-13.178-6.201-13.178-13.178c0-6.976,6.201-13.177,13.178-13.177
		c7.751,0,13.177,6.201,13.177,13.177C553.442,341.107,548.017,347.308,540.266,347.308"/>
	<path fill="#E7343C" d="M977.438,347.308c-7.751,0-13.177-6.201-13.177-13.178c0-6.976,6.201-13.177,13.177-13.177
		c7.752,0,13.178,6.201,13.178,13.177C990.616,341.107,985.19,347.308,977.438,347.308"/>
	<path fill="#E7343C" d="M452.676,347.308c-7.751,0-13.177-6.201-13.177-13.178c0-6.976,6.2-13.177,13.177-13.177
		c7.752,0,13.178,6.201,13.178,13.177C465.854,341.107,460.428,347.308,452.676,347.308"/>
	<path fill="#E7343C" d="M889.85,347.308c-7.752,0-13.178-6.201-13.178-13.178c0-6.976,6.201-13.177,13.178-13.177
		c7.751,0,13.177,6.201,13.177,13.177C903.026,341.107,897.601,347.308,889.85,347.308"/>
	<path fill="#EB584E" d="M2468.789,347.308c7.751,0,13.178-6.201,13.178-13.178c0-6.976-6.201-13.177-13.178-13.177
		c-7.752,0-13.178,6.201-13.178,13.177C2455.611,341.107,2461.813,347.308,2468.789,347.308"/>
	<path fill="#EB584E" d="M2031.615,347.308c7.752,0,13.178-6.201,13.178-13.178c0-6.976-6.201-13.177-13.178-13.177
		c-7.751,0-13.177,6.201-13.177,13.177C2018.438,341.107,2024.64,347.308,2031.615,347.308"/>
	<path fill="#EB584E" d="M1594.442,347.308c7.751,0,13.177-6.201,13.177-13.178c0-6.976-6.201-13.177-13.177-13.177
		c-7.751,0-13.177,6.201-13.177,13.177C1581.266,341.107,1587.467,347.308,1594.442,347.308"/>
	<path fill="#EB584E" d="M2643.969,347.308c7.751,0,13.177-6.201,13.177-13.178c0-6.976-6.2-13.177-13.177-13.177
		c-7.752,0-13.178,6.201-13.178,13.177C2630.791,341.107,2636.217,347.308,2643.969,347.308"/>
	<path fill="#EB584E" d="M2206.795,347.308c7.752,0,13.178-6.201,13.178-13.178c0-6.976-6.201-13.177-13.178-13.177
		c-7.751,0-13.177,6.201-13.177,13.177C2193.618,341.107,2199.044,347.308,2206.795,347.308"/>
	<path fill="#EB584E" d="M1769.622,347.308c7.751,0,13.177-6.201,13.177-13.178c0-6.976-6.201-13.177-13.177-13.177
		c-7.752,0-13.178,6.201-13.178,13.177C1756.444,341.107,1761.87,347.308,1769.622,347.308"/>
	<path fill="#E7343C" d="M2556.379,347.308c7.751,0,13.177-6.201,13.177-13.178c0-6.976-6.2-13.177-13.177-13.177
		c-7.752,0-13.178,6.201-13.178,13.177C2543.201,341.107,2548.627,347.308,2556.379,347.308"/>
	<path fill="#E7343C" d="M2119.205,347.308c7.752,0,13.178-6.201,13.178-13.178c0-6.976-6.201-13.177-13.178-13.177
		c-7.751,0-13.177,6.201-13.177,13.177C2106.028,341.107,2111.454,347.308,2119.205,347.308"/>
	<path fill="#E7343C" d="M1682.032,347.308c7.751,0,13.177-6.201,13.177-13.178c0-6.976-5.426-13.952-13.177-13.952
		s-13.177,6.201-13.177,13.177C1668.855,340.332,1674.281,347.308,1682.032,347.308"/>
	<path fill="#E7343C" d="M2731.559,347.308c7.751,0,13.177-6.201,13.177-13.178c0-6.976-6.201-13.177-13.177-13.177
		c-7.752,0-13.178,6.201-13.178,13.177C2718.381,341.107,2723.807,347.308,2731.559,347.308"/>
	<path fill="#E7343C" d="M2294.385,347.308c7.751,0,13.178-6.201,13.178-13.178c0-6.976-6.201-13.177-13.178-13.177
		c-7.751,0-13.178,6.201-13.178,13.177C2281.207,341.107,2286.634,347.308,2294.385,347.308"/>
	<path fill="#E7343C" d="M1857.211,347.308c7.752,0,13.178-6.201,13.178-13.178c0-6.976-6.201-13.177-13.178-13.177
		c-7.751,0-13.177,6.201-13.177,13.177C1844.034,341.107,1849.46,347.308,1857.211,347.308"/>
	<path fill="#E7343C" d="M2381.199,347.308c7.752,0,13.178-6.201,13.178-13.178c0-6.976-6.201-13.177-13.178-13.177
		c-7.751,0-13.177,6.201-13.177,13.177C2368.022,341.107,2374.223,347.308,2381.199,347.308"/>
	<path fill="#E7343C" d="M1944.026,347.308c7.751,0,13.177-6.201,13.177-13.178c0-6.976-6.201-13.177-13.177-13.177
		c-7.752,0-13.178,6.201-13.178,13.177C1930.849,341.107,1937.05,347.308,1944.026,347.308"/>
	<path fill="#EB584E" d="M1416.938,275.996v-15.503h-132.547l132.547,160.452v-63.561c-22.479,0-40.307-17.828-40.307-40.307
		C1376.631,293.824,1394.459,275.996,1416.938,275.996 M1550.26,260.493h-133.322v15.503c22.479,0,40.307,18.604,40.307,40.307
		c0,22.479-17.828,40.307-40.307,40.307v63.561L1550.26,260.493z"/>
	<path d="M1416.938,338.007c11.627,0,21.704-9.302,21.704-21.704c0-11.627-9.302-21.703-21.704-21.703
		c-11.627,0-21.703,9.302-21.703,21.703C1396.009,328.705,1405.311,338.007,1416.938,338.007"/>
</g>
<polygon fill="#E7343C" points="217.812,510.086 184.481,548.066 213.936,548.066 247.267,510.086 "/>
<polygon fill="#E7343C" points="2616.839,510.086 2650.17,548.066 2619.939,548.066 2587.384,510.086 "/>
<polygon fill="#EB584E" points="334.856,510.086 301.525,548.066 330.98,548.066 364.311,510.086 "/>
<polygon fill="#EB584E" points="2499.794,510.086 2533.125,548.066 2502.895,548.066 2470.34,510.086 "/>
<polygon fill="#E7343C" points="451.9,510.086 418.57,548.066 448.025,548.066 481.355,510.086 "/>
<polygon fill="#E7343C" points="2382.75,510.086 2416.08,548.066 2385.85,548.066 2353.295,510.086 "/>
<polygon fill="#EB584E" points="568.17,510.086 535.615,548.066 565.07,548.066 598.4,510.086 "/>
<polygon fill="#EB584E" points="2265.705,510.086 2299.035,548.066 2268.806,548.066 2236.25,510.086 "/>
<polygon fill="#E7343C" points="685.215,510.086 652.659,548.066 682.114,548.066 715.445,510.086 "/>
<polygon fill="#E7343C" points="2148.66,510.086 2181.991,548.066 2152.536,548.066 2119.205,510.086 "/>
<polygon fill="#EB584E" points="802.26,510.086 769.704,548.066 799.159,548.066 832.489,510.086 "/>
<polygon fill="#EB584E" points="2031.615,510.086 2064.946,548.066 2035.491,548.066 2002.16,510.086 "/>
<polygon fill="#E7343C" points="919.305,510.086 886.749,548.066 916.203,548.066 949.534,510.086 "/>
<polygon fill="#E7343C" points="1914.571,510.086 1947.901,548.066 1918.447,548.066 1885.116,510.086 "/>
<polygon fill="#EB584E" points="1036.349,510.086 1003.793,548.066 1033.248,548.066 1066.579,510.086 "/>
<polygon fill="#EB584E" points="1797.526,510.086 1830.857,548.066 1801.402,548.066 1768.071,510.086 "/>
<polygon fill="#E7343C" points="1153.394,510.086 1120.838,548.066 1150.293,548.066 1182.849,510.086 "/>
<polygon fill="#E7343C" points="1681.257,510.086 1713.813,548.066 1684.357,548.066 1651.027,510.086 "/>
<polygon fill="#EB584E" points="1270.438,510.086 1237.883,548.066 1267.338,548.066 1299.893,510.086 "/>
<polygon fill="#EB584E" points="1564.213,510.086 1596.768,548.066 1567.313,548.066 1533.982,510.086 "/>
<polygon fill="#E7343C" points="1387.482,510.086 1354.928,548.066 1384.382,548.066 1416.938,510.086 "/>
<polygon fill="#E7343C" points="1447.168,510.086 1479.723,548.066 1450.269,548.066 1416.938,510.086 "/>
<polygon points="1400.66,550.392 1416.938,581.397 1433.99,550.392 1416.938,527.138 "/>
</svg>
