<?xml version="1.0" encoding="utf-8"?>
<!-- Generator: Adobe Illustrator 15.1.0, SVG Export Plug-In . SVG Version: 6.00 Build 0)  -->
<!DOCTYPE svg PUBLIC "-//W3C//DTD SVG 1.1//EN" "http://www.w3.org/Graphics/SVG/1.1/DTD/svg11.dtd">
<svg version="1.1" id="Ebene_1" xmlns="http://www.w3.org/2000/svg" xmlns:xlink="http://www.w3.org/1999/xlink" x="0px" y="0px"
	 width="2834.65px" height="321.68px" viewBox="0 260.493 2834.65 321.68" enable-background="new 0 260.493 2834.65 321.68"
	 xml:space="preserve">
<polygon fill="#EB584E" points="1458.795,386.064 1416.938,342.657 2617.614,342.657 2659.471,386.064 "/>
<polygon fill="#EB584E" points="1375.855,386.064 1416.938,342.657 217.036,342.657 175.179,386.064 "/>
<polygon fill="#E7343C" points="1546.385,482.956 1504.527,439.549 2705.203,439.549 2747.061,482.956 "/>
<polygon fill="#E7343C" points="1288.266,482.956 1329.348,439.549 129.447,439.549 87.59,482.956 "/>
<polygon fill="#EB584E" points="2834.65,579.847 2792.793,536.439 1592.893,536.439 1633.975,579.847 "/>
<polygon fill="#EB584E" points="1200.676,579.847 1241.758,536.439 41.857,536.439 0,579.847 "/>
<g>
	<path fill="#EB584E" d="M2378.099,398.467c7.751,0,13.178,6.201,13.178,13.177c0,7.752-6.201,13.178-13.178,13.178
		c-7.751,0-13.177-6.201-13.177-13.178C2364.146,403.892,2370.348,398.467,2378.099,398.467"/>
	<path fill="#EB584E" d="M1943.251,398.467c7.751,0,13.177,6.201,13.177,13.177c0,7.752-6.201,13.178-13.177,13.178
		c-7.751,0-13.177-6.201-13.177-13.178C1929.299,403.892,1935.5,398.467,1943.251,398.467"/>
	<path fill="#EB584E" d="M1507.628,398.467c7.751,0,13.177,6.201,13.177,13.177c0,7.752-6.201,13.178-13.177,13.178
		c-7.751,0-13.177-6.201-13.177-13.178C1494.451,403.892,1500.651,398.467,1507.628,398.467"/>
	<path fill="#EB584E" d="M2551.729,398.467c7.751,0,13.177,6.201,13.177,13.177c0,7.752-6.201,13.178-13.177,13.178
		c-6.977,0-13.178-6.201-13.178-13.178C2538.551,403.892,2544.752,398.467,2551.729,398.467"/>
	<path fill="#EB584E" d="M2116.88,398.467c7.751,0,13.178,6.201,13.178,13.177c0,7.752-6.201,13.178-13.178,13.178
		c-7.751,0-13.177-6.201-13.177-13.178C2103.703,403.892,2109.129,398.467,2116.88,398.467"/>
	<path fill="#EB584E" d="M1682.032,398.467c7.751,0,13.177,6.201,13.177,13.177c0,7.752-6.201,13.178-13.177,13.178
		c-7.751,0-13.177-6.201-13.177-13.178C1668.08,403.892,1674.281,398.467,1682.032,398.467"/>
	<path fill="#E7343C" d="M2464.913,398.467c7.751,0,13.178,6.201,13.178,13.177c0,7.752-6.201,13.178-13.178,13.178
		c-7.751,0-13.177-6.201-13.177-13.178C2451.736,403.892,2457.162,398.467,2464.913,398.467"/>
	<path fill="#E7343C" d="M2030.065,398.467c7.751,0,13.177,6.201,13.177,13.177c0,7.752-6.2,13.178-13.177,13.178
		s-13.177-6.201-13.177-13.178C2016.113,403.892,2022.314,398.467,2030.065,398.467"/>
	<path fill="#E7343C" d="M1595.218,398.467c7.751,0,13.177,6.201,13.177,13.177c0,7.752-6.201,13.178-13.177,13.178
		c-7.751,0-13.178-6.201-13.178-13.178C1581.266,403.892,1587.467,398.467,1595.218,398.467"/>
	<path fill="#E7343C" d="M2639.317,398.467c7.751,0,13.178,6.201,13.178,13.177c0,7.752-6.201,13.178-13.178,13.178
		c-7.751,0-13.177-6.201-13.177-13.178C2625.365,403.892,2631.566,398.467,2639.317,398.467"/>
	<path fill="#E7343C" d="M2203.694,398.467c7.751,0,13.178,6.201,13.178,13.177c0,7.752-6.201,13.178-13.178,13.178
		s-13.177-6.201-13.177-13.178C2190.518,403.892,2196.719,398.467,2203.694,398.467"/>
	<path fill="#E7343C" d="M1768.847,398.467c7.751,0,13.177,6.201,13.177,13.177c0,7.752-6.201,13.178-13.177,13.178
		c-7.751,0-13.177-6.201-13.177-13.178C1755.67,403.892,1761.096,398.467,1768.847,398.467"/>
	<path fill="#E7343C" d="M2291.284,398.467c7.751,0,13.178,6.201,13.178,13.177c0,7.752-6.201,13.178-13.178,13.178
		c-7.751,0-13.177-6.201-13.177-13.178C2277.332,403.892,2283.533,398.467,2291.284,398.467"/>
	<path fill="#E7343C" d="M1855.661,398.467c7.751,0,13.177,6.201,13.177,13.177c0,7.752-6.201,13.178-13.177,13.178
		c-7.751,0-13.177-6.201-13.177-13.178C1842.484,403.892,1848.686,398.467,1855.661,398.467"/>
	<path fill="#EB584E" d="M456.552,398.467c-7.751,0-13.178,6.201-13.178,13.177c0,7.752,6.201,13.178,13.178,13.178
		c7.751,0,13.177-6.201,13.177-13.178C469.729,403.892,464.303,398.467,456.552,398.467"/>
	<path fill="#EB584E" d="M891.399,398.467c-7.751,0-13.177,6.201-13.177,13.177c0,7.752,6.201,13.178,13.177,13.178
		c7.751,0,13.177-6.201,13.177-13.178C905.352,403.892,899.15,398.467,891.399,398.467"/>
	<path fill="#EB584E" d="M1327.022,398.467c-7.751,0-13.177,6.201-13.177,13.177c0,7.752,6.201,13.178,13.177,13.178
		c7.751,0,13.177-6.201,13.177-13.178C1340.199,403.892,1333.999,398.467,1327.022,398.467"/>
	<path fill="#EB584E" d="M282.922,398.467c-7.751,0-13.177,6.201-13.177,13.177c0,7.752,6.201,13.178,13.177,13.178
		c7.751,0,13.177-6.201,13.177-13.178C296.1,403.892,289.898,398.467,282.922,398.467"/>
	<path fill="#EB584E" d="M717.771,398.467c-7.751,0-13.178,6.201-13.178,13.177c0,7.752,6.201,13.178,13.178,13.178
		c7.751,0,13.177-6.201,13.177-13.178C730.947,403.892,724.746,398.467,717.771,398.467"/>
	<path fill="#EB584E" d="M1152.618,398.467c-7.751,0-13.177,6.201-13.177,13.177c0,7.752,6.201,13.178,13.177,13.178
		c7.751,0,13.177-6.201,13.177-13.178C1165.795,403.892,1160.369,398.467,1152.618,398.467"/>
	<path fill="#E7343C" d="M369.737,398.467c-7.751,0-13.178,6.201-13.178,13.177c0,7.752,6.201,13.178,13.178,13.178
		c7.751,0,13.177-6.201,13.177-13.178C382.914,403.892,376.713,398.467,369.737,398.467"/>
	<path fill="#E7343C" d="M804.585,398.467c-7.751,0-13.177,6.201-13.177,13.177c0,7.752,6.201,13.178,13.177,13.178
		c7.751,0,13.177-6.201,13.177-13.178C817.762,403.892,812.336,398.467,804.585,398.467"/>
	<path fill="#E7343C" d="M1239.433,398.467c-7.751,0-13.177,6.201-13.177,13.177c0,7.752,6.201,13.178,13.177,13.178
		c7.751,0,13.178-6.201,13.178-13.178C1253.385,403.892,1247.184,398.467,1239.433,398.467"/>
	<path fill="#E7343C" d="M195.333,398.467c-7.751,0-13.178,6.201-13.178,13.177c0,7.752,6.201,13.178,13.178,13.178
		c7.751,0,13.177-6.201,13.177-13.178C209.285,403.892,203.084,398.467,195.333,398.467"/>
	<path fill="#E7343C" d="M630.956,398.467c-7.752,0-13.178,6.201-13.178,13.177c0,7.752,6.201,13.178,13.178,13.178
		c7.751,0,13.177-6.201,13.177-13.178C644.133,403.892,637.932,398.467,630.956,398.467"/>
	<path fill="#E7343C" d="M1065.804,398.467c-7.751,0-13.177,6.201-13.177,13.177c0,7.752,6.201,13.178,13.177,13.178
		c7.751,0,13.177-6.201,13.177-13.178C1078.98,403.892,1072.779,398.467,1065.804,398.467"/>
	<path fill="#E7343C" d="M543.366,398.467c-7.751,0-13.177,6.201-13.177,13.177c0,7.752,6.2,13.178,13.177,13.178
		c7.751,0,13.177-6.201,13.177-13.178C557.318,403.892,551.117,398.467,543.366,398.467"/>
	<path fill="#E7343C" d="M978.989,398.467c-7.751,0-13.177,6.201-13.177,13.177c0,7.752,6.2,13.178,13.177,13.178
		c7.751,0,13.177-6.201,13.177-13.178C992.166,403.892,985.965,398.467,978.989,398.467"/>
	<path fill="#EB584E" d="M2468.789,495.358c7.751,0,13.178,6.2,13.178,13.177c0,7.751-6.201,13.178-13.178,13.178
		c-7.752,0-13.178-6.201-13.178-13.178C2455.611,500.784,2461.813,495.358,2468.789,495.358"/>
	<path fill="#EB584E" d="M2031.615,495.358c7.752,0,13.178,6.2,13.178,13.177c0,7.751-6.201,13.178-13.178,13.178
		c-7.751,0-13.177-6.201-13.177-13.178C2018.438,500.784,2024.64,495.358,2031.615,495.358"/>
	<path fill="#EB584E" d="M1594.442,495.358c7.751,0,13.177,6.2,13.177,13.177c0,7.751-6.201,13.178-13.177,13.178
		c-7.751,0-13.177-6.201-13.177-13.178C1581.266,500.784,1587.467,495.358,1594.442,495.358"/>
	<path fill="#EB584E" d="M2643.969,495.358c7.751,0,13.177,6.2,13.177,13.177c0,7.751-6.2,13.178-13.177,13.178
		c-7.752,0-13.178-6.201-13.178-13.178C2630.016,500.784,2636.217,495.358,2643.969,495.358"/>
	<path fill="#EB584E" d="M2206.795,495.358c7.752,0,13.178,6.2,13.178,13.177c0,7.751-6.201,13.178-13.178,13.178
		c-7.751,0-13.177-6.201-13.177-13.178C2192.843,500.784,2199.044,495.358,2206.795,495.358"/>
	<path fill="#EB584E" d="M1769.622,495.358c7.751,0,13.177,6.2,13.177,13.177c0,7.751-6.201,13.178-13.177,13.178
		c-7.752,0-13.178-6.201-13.178-13.178C1755.67,500.784,1761.87,495.358,1769.622,495.358"/>
	<path fill="#E7343C" d="M2556.379,495.358c7.751,0,13.177,6.2,13.177,13.177c0,7.751-6.2,13.178-13.177,13.178
		s-13.178-6.201-13.178-13.178C2543.201,500.784,2548.627,495.358,2556.379,495.358"/>
	<path fill="#E7343C" d="M2119.205,495.358c7.752,0,13.178,6.2,13.178,13.177c0,7.751-6.201,13.178-13.178,13.178
		c-7.751,0-13.177-6.201-13.177-13.178C2106.028,500.784,2111.454,495.358,2119.205,495.358"/>
	<path fill="#E7343C" d="M1682.032,495.358c7.751,0,13.177,6.2,13.177,13.177c0,7.751-6.201,13.178-13.177,13.178
		c-7.751,0-13.177-6.201-13.177-13.178C1668.855,500.784,1674.281,495.358,1682.032,495.358"/>
	<path fill="#E7343C" d="M2731.559,495.358c7.751,0,13.177,6.2,13.177,13.177c0,7.751-6.201,13.178-13.177,13.178
		c-6.977,0-13.178-6.201-13.178-13.178C2717.605,500.784,2723.807,495.358,2731.559,495.358"/>
	<path fill="#E7343C" d="M2294.385,495.358c7.751,0,13.178,6.2,13.178,13.177c0,7.751-6.201,13.178-13.178,13.178
		c-7.751,0-13.178-6.201-13.178-13.178C2280.433,500.784,2286.634,495.358,2294.385,495.358"/>
	<path fill="#E7343C" d="M1857.211,495.358c7.752,0,13.178,6.2,13.178,13.177c0,7.751-6.201,13.178-13.178,13.178
		c-7.751,0-13.177-6.201-13.177-13.178C1843.259,500.784,1849.46,495.358,1857.211,495.358"/>
	<path fill="#E7343C" d="M2381.199,495.358c7.752,0,13.178,6.2,13.178,13.177c0,7.751-6.201,13.178-13.178,13.178
		c-7.751,0-13.177-6.201-13.177-13.178C2368.022,500.784,2374.223,495.358,2381.199,495.358"/>
	<path fill="#E7343C" d="M1944.026,495.358c7.751,0,13.177,6.2,13.177,13.177c0,7.751-6.201,13.178-13.177,13.178
		c-7.752,0-13.178-6.201-13.178-13.178C1930.849,500.784,1937.05,495.358,1944.026,495.358"/>
	<path fill="#EB584E" d="M365.861,495.358c-7.751,0-13.177,6.2-13.177,13.177c0,7.751,6.201,13.178,13.177,13.178
		c7.751,0,13.177-6.201,13.177-13.178C379.039,500.784,372.837,495.358,365.861,495.358"/>
	<path fill="#EB584E" d="M803.035,495.358c-7.752,0-13.178,6.2-13.178,13.177c0,7.751,6.201,13.178,13.178,13.178
		c7.751,0,13.177-6.201,13.177-13.178C816.212,500.784,810.011,495.358,803.035,495.358"/>
	<path fill="#EB584E" d="M1240.208,495.358c-7.751,0-13.177,6.2-13.177,13.177c0,7.751,6.201,13.178,13.177,13.178
		c7.751,0,13.177-6.201,13.177-13.178C1253.385,500.784,1247.184,495.358,1240.208,495.358"/>
	<path fill="#EB584E" d="M190.682,495.358c-7.751,0-13.177,6.2-13.177,13.177c0,7.751,6.201,13.178,13.177,13.178
		c7.751,0,13.177-6.201,13.177-13.178C203.859,500.784,198.433,495.358,190.682,495.358"/>
	<path fill="#EB584E" d="M627.855,495.358c-7.752,0-13.178,6.2-13.178,13.177c0,7.751,6.201,13.178,13.178,13.178
		c7.751,0,13.177-6.201,13.177-13.178C641.032,500.784,635.606,495.358,627.855,495.358"/>
	<path fill="#EB584E" d="M1065.028,495.358c-7.751,0-13.177,6.2-13.177,13.177c0,7.751,6.201,13.178,13.177,13.178
		c7.751,0,13.178-6.201,13.178-13.178C1078.206,500.784,1072.779,495.358,1065.028,495.358"/>
	<path fill="#E7343C" d="M278.271,495.358c-7.751,0-13.177,6.2-13.177,13.177c0,7.751,6.201,13.178,13.177,13.178
		c7.751,0,13.177-6.201,13.177-13.178C291.449,500.784,285.248,495.358,278.271,495.358"/>
	<path fill="#E7343C" d="M715.445,495.358c-7.752,0-13.178,6.2-13.178,13.177c0,7.751,6.201,13.178,13.178,13.178
		c7.751,0,13.177-6.201,13.177-13.178C728.622,500.784,722.421,495.358,715.445,495.358"/>
	<path fill="#E7343C" d="M1152.618,495.358c-7.751,0-13.177,6.2-13.177,13.177c0,7.751,6.201,13.178,13.177,13.178
		c7.751,0,13.177-6.201,13.177-13.178C1165.795,500.784,1159.595,495.358,1152.618,495.358"/>
	<path fill="#E7343C" d="M103.092,495.358c-7.751,0-13.177,6.2-13.177,13.177c0,7.751,6.201,13.178,13.177,13.178
		c7.751,0,13.177-6.201,13.177-13.178C117.045,500.784,110.844,495.358,103.092,495.358"/>
	<path fill="#E7343C" d="M540.266,495.358c-7.751,0-13.178,6.2-13.178,13.177c0,7.751,6.201,13.178,13.178,13.178
		c7.751,0,13.177-6.201,13.177-13.178C554.218,500.784,548.017,495.358,540.266,495.358"/>
	<path fill="#E7343C" d="M977.438,495.358c-7.751,0-13.177,6.2-13.177,13.177c0,7.751,6.201,13.178,13.177,13.178
		c7.752,0,13.178-6.201,13.178-13.178C991.392,500.784,985.19,495.358,977.438,495.358"/>
	<path fill="#E7343C" d="M452.676,495.358c-7.751,0-13.177,6.2-13.177,13.177c0,7.751,6.2,13.178,13.177,13.178
		c7.752,0,13.178-6.201,13.178-13.178C466.628,500.784,460.428,495.358,452.676,495.358"/>
	<path fill="#E7343C" d="M889.85,495.358c-7.752,0-13.178,6.2-13.178,13.177c0,7.751,6.201,13.178,13.178,13.178
		c7.751,0,13.177-6.201,13.177-13.178C903.802,500.784,897.601,495.358,889.85,495.358"/>
	<path fill="#EB584E" d="M1416.938,566.67v15.503h133.322L1417.713,421.72v63.561c22.479,0,40.307,17.828,40.307,40.307
		S1439.416,566.67,1416.938,566.67 M1284.391,581.397h133.322v-15.503c-22.479,0-40.307-18.603-40.307-40.307
		c0-22.479,17.828-40.307,40.307-40.307V421.72L1284.391,581.397z"/>
	<path d="M1416.938,504.659c-11.627,0-21.703,9.302-21.703,21.704c0,11.627,9.301,21.703,21.703,21.703
		c11.627,0,21.704-9.301,21.704-21.703S1429.34,504.659,1416.938,504.659"/>
</g>
<polygon fill="#E7343C" points="2616.839,332.581 2650.17,293.824 2619.939,293.824 2587.384,332.581 "/>
<polygon fill="#E7343C" points="217.812,332.581 184.481,293.824 214.711,293.824 247.267,332.581 "/>
<polygon fill="#EB584E" points="2499.794,332.581 2533.125,293.824 2503.67,293.824 2470.34,332.581 "/>
<polygon fill="#EB584E" points="334.856,332.581 301.525,293.824 330.98,293.824 364.311,332.581 "/>
<polygon fill="#E7343C" points="2382.75,332.581 2416.08,293.824 2386.625,293.824 2353.295,332.581 "/>
<polygon fill="#E7343C" points="451.9,332.581 418.57,293.824 448.025,293.824 481.355,332.581 "/>
<polygon fill="#EB584E" points="2265.705,332.581 2299.035,293.824 2269.58,293.824 2236.25,332.581 "/>
<polygon fill="#EB584E" points="568.945,332.581 535.615,293.824 565.07,293.824 598.4,332.581 "/>
<polygon fill="#E7343C" points="2148.66,332.581 2181.991,293.824 2152.536,293.824 2119.205,332.581 "/>
<polygon fill="#E7343C" points="685.99,332.581 652.659,293.824 682.114,293.824 715.445,332.581 "/>
<polygon fill="#EB584E" points="2031.615,332.581 2064.946,293.824 2035.491,293.824 2002.16,332.581 "/>
<polygon fill="#EB584E" points="802.26,332.581 769.704,293.824 799.159,293.824 832.489,332.581 "/>
<polygon fill="#E7343C" points="1915.346,332.581 1947.901,293.824 1918.447,293.824 1885.116,332.581 "/>
<polygon fill="#E7343C" points="919.305,332.581 886.749,293.824 916.203,293.824 949.534,332.581 "/>
<polygon fill="#EB584E" points="1798.302,332.581 1830.857,293.824 1801.402,293.824 1768.071,332.581 "/>
<polygon fill="#EB584E" points="1036.349,332.581 1003.793,293.824 1033.248,293.824 1066.579,332.581 "/>
<polygon fill="#E7343C" points="1681.257,332.581 1713.813,293.824 1684.357,293.824 1651.027,332.581 "/>
<polygon fill="#E7343C" points="1153.394,332.581 1120.838,293.824 1150.293,293.824 1183.623,332.581 "/>
<polygon fill="#EB584E" points="1564.213,332.581 1596.768,293.824 1567.313,293.824 1533.982,332.581 "/>
<polygon fill="#EB584E" points="1270.438,332.581 1237.883,293.824 1267.338,293.824 1300.668,332.581 "/>
<polygon fill="#E7343C" points="1447.168,332.581 1479.723,293.824 1450.269,293.824 1416.938,332.581 "/>
<polygon fill="#E7343C" points="1387.482,332.581 1354.928,293.824 1384.382,293.824 1416.938,332.581 "/>
<polygon points="1433.99,292.273 1416.938,260.493 1400.66,292.273 1416.938,315.528 "/>
</svg>
