<?xml version="1.0" encoding="utf-8"?>
<!-- Generator: Adobe Illustrator 17.1.0, SVG Export Plug-In . SVG Version: 6.00 Build 0)  -->
<!DOCTYPE svg PUBLIC "-//W3C//DTD SVG 1.1//EN" "http://www.w3.org/Graphics/SVG/1.1/DTD/svg11.dtd">
<svg version="1.1" id="Ebene_1" xmlns="http://www.w3.org/2000/svg" xmlns:xlink="http://www.w3.org/1999/xlink" x="0px" y="0px"
	 viewBox="0 0 560.9 560.9" enable-background="new 0 0 560.9 560.9" xml:space="preserve">
<g>
	<path fill="#1D1D1B" d="M69.3,265.9c5.9-0.4,11.6-0.4,17.2-1.3c9.1-1.5,14.5-7.2,16.5-16.1c1.7-7.4,1.6-14.9-0.1-22.3
		c-1.3-5.9-4.2-10.7-10-13.2c-7.6-3.2-15.6-2.7-23.7-2.5V265.9z M69.3,344.5c7.2,0.1,14.1,0.2,21.1-1.4c8-1.8,12.7-6.7,14.4-14.6
		c1.9-8.7,1.9-17.4-0.2-26.1c-1.5-6.2-4.8-11.2-10.7-14.1c-7.8-3.7-16.1-3.1-24.5-3V344.5z M104.6,275.6c1.7,0.6,3.5,1.1,5.1,1.7
		c9.7,3.8,16.1,10.6,18.5,20.8c3.4,13.7,3,27.4-1,40.9c-4.5,15.2-15.3,23.7-30.5,26.5c-5.9,1.1-12,1.5-18,1.6
		c-11,0.3-22.1,0.1-33.3,0.1V189.4c0.6-0.1,1-0.2,1.4-0.2c13.6,0.1,27.2,0.1,40.8,0.5c6.7,0.2,13.2,1.8,19.4,4.6
		c9.3,4.1,15.2,11.2,18,20.9c3.8,13.2,3.7,26.5-0.1,39.7c-2.8,9.6-9.2,16-18.4,19.7c-0.6,0.2-1.2,0.5-1.8,0.7
		C104.8,275.2,104.8,275.3,104.6,275.6"/>
	<path fill="#1D1D1B" d="M421.5,367.1h-22.1c0-1.2,0-2.2,0-3.3c0-26.8,0-53.6-0.2-80.3c0-3.4-0.8-6.9-1.6-10.2
		c-0.7-3.3-3.1-5.2-6.2-6.4c-10.5-3.9-20.4,2.4-20.6,13.6c-0.3,19.3-0.3,38.6-0.3,57.9c0,9.5,0,19,0,28.7h-21.8V247.8h21.5v10.7
		c0.3,0.2,0.5,0.4,0.8,0.6c0.3-0.5,0.4-1.2,0.8-1.6c9.2-12.5,26.6-13.1,36.7-8.6c7.4,3.3,10.8,9.8,12.1,17.5
		c0.6,3.5,0.8,7.1,0.8,10.6c0.1,29.1,0,58.1,0,87.2V367.1z"/>
	<path fill="#1D1D1B" d="M305.3,307.4c-0.3-5.3-0.4-10.6-0.9-15.9c-0.6-6.3-1.6-12.5-4.6-18.2c-2.7-5.3-6.9-8.5-13-8.5
		c-5.9,0-10,3.1-12.6,8.2c-1.1,2.3-2.1,4.7-2.7,7.1c-3.4,14.1-3.3,28.5-1.8,42.8c0.6,5.8,2.1,11.7,4.1,17.2
		c1.9,5.4,6.1,8.8,12.2,9.1c6.3,0.3,10.6-2.7,13.5-8.1c1.1-2.1,2-4.3,2.6-6.6C304.7,325.7,305.1,316.5,305.3,307.4 M327,306.6
		c0,12.5-0.9,24.8-5.3,36.7c-4.1,11.3-10.7,20.6-22.7,24.2c-16.1,4.9-35.7,1.3-45.2-19.6c-6.1-13.3-7.2-27.4-7.2-41.7
		c0-11.9,1.1-23.7,5.3-35c3.6-9.5,8.9-17.7,18.4-22.2c15-7,38.8-5.6,49.4,17.6C325.6,279.3,326.9,292.8,327,306.6"/>
	<path fill="#1D1D1B" d="M152.7,247.7h21.8c0.1,1.2,0.2,2.3,0.2,3.5c0,26.2,0,52.4,0,78.7c0,3.3,0.2,6.6,0.8,9.8
		c1.2,6.1,4.9,9.3,11,10.1c10.1,1.4,16.9-4.1,17-14.3c0.1-28.1,0.1-56.1,0.1-84.2c0-1.2,0-2.3,0-3.6h22.2c0,1,0.1,2,0.1,2.9
		c0,26.8,0,53.5,0,80.3c0,6.8-0.6,13.5-2.9,19.9c-3.1,8.6-9.1,14-17.7,16.4c-10.6,3-21.3,2.9-31.9,0.1c-12.4-3.3-18-12.4-19.7-24.3
		c-0.6-4.4-0.9-8.9-0.9-13.4c-0.1-26.2,0-52.5,0-78.7V247.7z"/>
	<path fill="#1D1D1B" d="M547.3,280.5c0,147.4-119.5,266.9-266.9,266.9c-147.4,0-266.9-119.5-266.9-266.9S133.1,13.6,280.5,13.6
		C427.8,13.6,547.3,133.1,547.3,280.5 M560.9,280.5C560.9,125.6,435.4,0,280.5,0S0,125.6,0,280.5s125.6,280.5,280.5,280.5
		S560.9,435.4,560.9,280.5"/>
	<path fill="#1D1D1B" d="M499.3,307.4c-0.3-5.3-0.4-10.6-0.9-15.9c-0.6-6.3-1.6-12.5-4.6-18.2c-2.7-5.3-6.9-8.5-13-8.5
		c-5.9,0-10,3.1-12.6,8.2c-1.1,2.3-2.1,4.7-2.7,7.1c-3.4,14.1-3.3,28.5-1.8,42.8c0.6,5.8,2.1,11.7,4.1,17.2
		c1.9,5.4,6.1,8.8,12.2,9.1c6.3,0.3,10.6-2.7,13.5-8.1c1.1-2.1,2-4.3,2.6-6.6C498.7,325.7,499.1,316.5,499.3,307.4 M521,306.6
		c0,12.5-0.9,24.8-5.3,36.7c-4.1,11.3-10.7,20.6-22.7,24.2c-16.1,4.9-35.7,1.3-45.2-19.6c-6.1-13.3-7.2-27.4-7.2-41.7
		c0-11.9,1.1-23.7,5.3-35c3.6-9.5,8.9-17.7,18.4-22.2c15-7,38.8-5.6,49.4,17.6C519.6,279.3,520.9,292.8,521,306.6"/>
</g>
</svg>
