<?xml version="1.0" encoding="utf-8"?>
<!-- Generator: Adobe Illustrator 16.0.0, SVG Export Plug-In . SVG Version: 6.00 Build 0)  -->
<!DOCTYPE svg PUBLIC "-//W3C//DTD SVG 1.1//EN" "http://www.w3.org/Graphics/SVG/1.1/DTD/svg11.dtd">
<svg version="1.1" id="Ebene_1" xmlns="http://www.w3.org/2000/svg" xmlns:xlink="http://www.w3.org/1999/xlink" x="0px" y="0px"
	 width="177.166px" height="77.952px" viewBox="0 0 177.166 77.952" enable-background="new 0 0 177.166 77.952"
	 xml:space="preserve">
<rect fill="none" width="177.166" height="77.952"/>
<path fill="#155C39" d="M122.345,152.248h1.531c0.854,0,1.814,0.165,1.814,1.23c0,1.156-1.109,1.187-1.965,1.187h-1.381V152.248z
	 M120.007,160.888h2.338v-4.245h1.154l2.223,4.245h2.803l-2.697-4.485c1.498-0.27,2.293-1.423,2.293-2.909
	c0-2.475-1.83-3.224-4.004-3.224h-4.109V160.888z M109.968,160.888h7.484v-2.158h-5.146v-2.177h4.605v-2.158h-4.605v-1.967h4.875
	v-2.158h-7.213V160.888z M107.085,150.27h-2.338v6.436c0,1.305-0.9,2.295-2.131,2.295c-1.246,0-2.146-0.99-2.146-2.295v-6.436
	h-2.338v6.525c0,2.505,1.529,4.362,4.484,4.362c2.939,0,4.469-1.857,4.469-4.362V150.27z M92.591,156.659h-2.595l1.29-3.3
	L92.591,156.659z M85.797,160.888h2.579l0.885-2.25h4.125l0.914,2.25h2.641l-4.619-10.618h-1.936L85.797,160.888z M84.468,154.59
	h-4.153v2.158h1.905v1.726c-0.436,0.241-1.186,0.526-2.205,0.526c-1.996,0-3.303-1.441-3.303-3.421c0-1.98,1.307-3.422,3.303-3.422
	c1.185,0,1.949,0.346,2.58,1.007l1.648-1.801C83.18,150.375,81.694,150,80.015,150c-3.317,0-5.73,2.173-5.73,5.579
	c0,3.405,2.413,5.578,5.73,5.578c1.56,0,3.074-0.3,4.453-1.019V154.59z M66.586,152.248h1.531c0.854,0,1.816,0.165,1.816,1.23
	c0,1.156-1.111,1.187-1.967,1.187h-1.381V152.248z M64.248,160.888h2.338v-4.245h1.156l2.221,4.245h2.804l-2.698-4.485
	c1.499-0.27,2.293-1.423,2.293-2.909c0-2.475-1.829-3.224-4.005-3.224h-4.108V160.888z M58.119,156.659h-2.595l1.29-3.3
	L58.119,156.659z M51.325,160.888h2.58l0.885-2.25h4.124l0.915,2.25h2.64l-4.62-10.618h-1.934L51.325,160.888z M45.733,156.659
	h-2.595l1.29-3.3L45.733,156.659z M38.939,160.888h2.58l0.885-2.25h4.125l0.914,2.25h2.64l-4.619-10.618h-1.935L38.939,160.888z
	 M133.827,185.696h2.34v-8.146h0.029l2.686,8.146h1.785l2.791-8.146h0.029v8.146h2.338v-10.618h-3.523l-2.459,6.928h-0.031
	l-2.445-6.928h-3.539V185.696z M130.989,175.078h-2.338v6.435c0,1.305-0.9,2.295-2.131,2.295c-1.246,0-2.146-0.99-2.146-2.295
	v-6.435h-2.338v6.524c0,2.505,1.529,4.363,4.484,4.363c2.939,0,4.469-1.858,4.469-4.363V175.078z M116.653,185.696h2.338v-10.618
	h-2.338V185.696z M108.239,177.056h1.531c0.857,0,1.816,0.165,1.816,1.231c0,1.155-1.109,1.186-1.965,1.186h-1.383V177.056z
	 M105.901,185.696h2.338v-4.245h1.156l2.221,4.245h2.805l-2.699-4.485c1.5-0.271,2.293-1.423,2.293-2.909
	c0-2.475-1.828-3.224-4.004-3.224h-4.109V185.696z M94.555,180.387c0-1.98,1.306-3.421,3.302-3.421c1.994,0,3.299,1.44,3.299,3.421
	s-1.305,3.421-3.299,3.421C95.86,183.808,94.555,182.367,94.555,180.387 M92.126,180.387c0,3.406,2.414,5.579,5.73,5.579
	c3.314,0,5.729-2.173,5.729-5.579s-2.414-5.579-5.729-5.579C94.54,174.808,92.126,176.98,92.126,180.387 M85.378,185.696h2.338
	v-8.551h3.03v-2.067h-8.398v2.067h3.03V185.696z M78.623,181.468h-2.595l1.29-3.3L78.623,181.468z M71.829,185.696h2.579l0.885-2.25
	h4.124l0.915,2.25h2.64l-4.618-10.618h-1.936L71.829,185.696z M64.396,177.056h1.531c0.855,0,1.815,0.165,1.815,1.231
	c0,1.155-1.109,1.186-1.966,1.186h-1.381V177.056z M62.059,185.696h2.338v-4.245h1.156l2.221,4.245h2.804l-2.698-4.485
	c1.499-0.271,2.293-1.423,2.293-2.909c0-2.475-1.828-3.224-4.004-3.224h-4.109V185.696z M59.521,175.078h-2.338v6.435
	c0,1.305-0.901,2.295-2.131,2.295c-1.246,0-2.146-0.99-2.146-2.295v-6.435h-2.338v6.524c0,2.505,1.529,4.363,4.484,4.363
	c2.939,0,4.469-1.858,4.469-4.363V175.078z M39.491,185.696h2.339v-5.039l4.319,5.039h3.271l-5.13-5.685l4.725-4.934h-3.06
	l-4.125,4.409v-4.409h-2.339V185.696z M25.345,171.518c1.957,0,3.543-1.587,3.543-3.544c0-1.956-1.586-3.544-3.543-3.544
	s-3.543,1.588-3.543,3.544C21.802,169.931,23.388,171.518,25.345,171.518 M39.518,171.518c1.957,0,3.543-1.587,3.543-3.544
	c0-1.956-1.586-3.544-3.543-3.544s-3.543,1.588-3.543,3.544C35.975,169.931,37.561,171.518,39.518,171.518 M82.037,171.518
	c1.957,0,3.543-1.587,3.543-3.544c0-1.956-1.586-3.544-3.543-3.544s-3.543,1.588-3.543,3.544
	C78.494,169.931,80.08,171.518,82.037,171.518 M110.374,171.518c1.957,0,3.543-1.587,3.543-3.544c0-1.956-1.586-3.544-3.543-3.544
	s-3.543,1.588-3.543,3.544C106.831,169.931,108.417,171.518,110.374,171.518 M145.817,171.518c1.957,0,3.543-1.587,3.543-3.544
	c0-1.956-1.586-3.544-3.543-3.544s-3.543,1.588-3.543,3.544C142.274,169.931,143.86,171.518,145.817,171.518"/>
<g>
	<text transform="matrix(1 0 0 1 214.7764 34.7041)" fill="#145C38" font-family="'GillSans-Light'" font-size="10.7336">B</text>
	
		<text transform="matrix(1 0 0 1 222.0889 34.7041)" fill="#145C38" font-family="'Frutiger-Roman'" font-size="5.37" letter-spacing="1">EW</text>
	
		<text transform="matrix(1 0 0 1 233.3809 34.7041)" fill="#145C38" font-family="'Frutiger-Roman'" font-size="5.37" letter-spacing="1">EG</text>
	
		<text transform="matrix(1 0 0 1 243.335 34.7041)" fill="#145C38" font-family="'Frutiger-Roman'" font-size="5.37" letter-spacing="1">UNG</text>
	<text transform="matrix(1 0 0 1 260.625 34.7041)" fill="#145C38" font-family="'Frutiger-Roman'" font-size="5.37">S</text>
	<text transform="matrix(1 0 0 1 265.4932 34.7041)" fill="#145C38" font-family="'GillSans-Light'" font-size="10.7336">R</text>
	
		<text transform="matrix(1 0 0 1 273.7959 34.7041)" fill="#145C38" font-family="'Frutiger-Roman'" font-size="5.37" letter-spacing="1">ÄUME</text>
	<text transform="matrix(1 0 0 1 316.1836 34.7041)" fill="#145C38" font-family="'GillSans-Light'" font-size="10.7336">B</text>
	
		<text transform="matrix(1 0 0 1 325.6357 34.7041)" fill="#145C38" font-family="'Frutiger-Roman'" font-size="5.37" letter-spacing="3">RUGG</text>
	<path fill="none" stroke="#145C38" stroke-width="0.4698" stroke-miterlimit="10" d="M215.132,0.428l34.118,21.975 M265.754,0.428
		l34.353,21.975 M316.692,0.428l33.959,21.975 M249.25,22.402v3.415"/>
	<path fill="none" stroke="#145C38" stroke-width="1.8793" stroke-miterlimit="10" d="M215.608,0.269v25.548 M266.306,0.187v25.631
		 M317.086,0.187v25.631"/>
	<path fill="none" stroke="#145C38" stroke-width="0.4698" stroke-miterlimit="10" d="M300.106,22.402v3.491 M350.651,22.402v3.415"
		/>
	<path fill="none" stroke="#145C38" stroke-width="1.8793" stroke-miterlimit="10" d="M215.608,27.404v7.299 M266.306,34.703v-7.299
		 M317.086,27.48v7.223"/>
	<path fill-rule="evenodd" clip-rule="evenodd" fill="#FFFFFF" d="M214.669-1.691l2.485,1.614l-0.677,1.043l-2.486-1.614
		L214.669-1.691z M351.201,59.713"/>
	<path fill-rule="evenodd" clip-rule="evenodd" fill="#FFFFFF" d="M316.461-1.536l2.854,1.853l-0.678,1.043l-2.854-1.853
		L316.461-1.536z M351.201,59.713"/>
	<path fill-rule="evenodd" clip-rule="evenodd" fill="#FFFFFF" d="M266.013-1.225l2.742,1.78l-0.675,1.038l-2.741-1.78
		L266.013-1.225z M351.201,59.713"/>
	<path fill="none" stroke="#145C38" stroke-width="0.4698" stroke-miterlimit="10" d="M300.188,25.735h16.979 M249.25,25.659h17.056
		"/>
	<path fill-rule="evenodd" clip-rule="evenodd" fill="#FFFFFF" d="M212.927,27.185l7.702-5.002l1.058,1.629l-7.702,5.001
		L212.927,27.185z M351.201,59.713"/>
	<path fill-rule="evenodd" clip-rule="evenodd" fill="#FFFFFF" d="M264.26,26.906l7.335-4.764l0.969,1.49l-7.336,4.764
		L264.26,26.906z M351.201,59.713"/>
	<path fill-rule="evenodd" clip-rule="evenodd" fill="#FFFFFF" d="M313.764,27.677l8.697-5.648l1.023,1.575l-8.698,5.648
		L313.764,27.677z M351.201,59.713"/>
</g>
<g>
	<rect x="-280.466" y="-64.012" fill="#FFFFFF" width="148" height="128.396"/>
	<rect x="-280.466" y="-55.614" fill="#127744" width="148" height="119.999"/>
	<path fill="#FFFFFF" d="M-201.284,7.33c-0.299-1.04-0.543-1.976-2.127-3.508c-0.889-0.788-2.767-2.419-6.027-2.419
		c-1.139,0-2.027,0.195-2.423,0.345c-2.767,0.741-4.298,2.474-4.89,3.362c-0.446,0.688-0.691,1.486-0.938,2.22H-201.284z
		 M-217.989,12.031c0.315,1.799,1.625,6.776,9.659,6.991c10.762,0.289,14.496-4.241,15.748-5.965c0-0.085,0.011-16.112,0-16.112
		h5.183l0.015,17.493c-4.589,6.688-11.104,9.409-19.67,9.374c-15.543-0.051-16.073-11.635-16.073-13.759
		c0-0.942,0.097-3.02,1.086-5.29c2.224-5.14,7.217-8.253,12.652-8.253c0.889,0,2.768,0.046,4.843,0.888
		c4.348,1.729,7.762,5.782,8.501,10.378c0.198,1.436,0.079,2.802-0.021,4.239L-217.989,12.031z"/>
	<polygon fill="#FFFFFF" points="-231.95,6.159 -247.705,23.249 -251.094,23.249 -251.094,5.975 -267.019,23.249 -273.627,23.249 
		-249.269,-3.115 -245.895,-3.13 -245.889,14.11 -229.996,-3.115 -226.746,-3.121 -226.745,23.249 -231.95,23.249 	"/>
	<g>
		<path fill="#158F4E" d="M-238.017-22.247c0,0-1.235-11.159,5.36-18.743c6.597-7.588,15.367-13.193,23.145-16.186
			c7.778-2.987,26.778-7.947,37.428-0.415c0,0,5.726,6.021,6.164,6.557c0.442,0.536,1.457,2.262,1.457,2.262l0.503,1.919
			c0,0-1.156-0.261-1.124,0.431c0.034,0.694,1.65,2.776,1.65,2.776l-0.299,1.053c0,0-2.007,0.889-1.354,3.811
			c0,0,0.295,2.586-0.243,3.027c0,0-2.998,0.45-2.994,2.913c0.01,2.466,0.26,1.899,0.26,1.899s0.074,0.793-1.014,1.328
			c-1.086,0.538-2.039,0.197-2.039,0.197s-2.008,2.418-1.959,3.456c0.046,1.041,0.323,1.757-2.393,2.333
			c-2.717,0.574-3.111,1.076-3.332,2.335c-0.22,1.258-0.639,2.009-1.519,2.462c-0.884,0.458-1.685-0.411-2.85-0.079
			c-1.166,0.334-2.686,1.271-3.289,2.445c-0.606,1.168-2.048,2.311-2.943,2.421c-0.9,0.11-2.635-1.337-5.04,0.647l-0.654,1.661
			l-2.622,1.126c0,0-1.873-1.515-3.383-1.171c-1.513,0.349-4.142,2.063-4.142,2.063s-0.048,0.49-1.31,0.266
			c-1.259-0.216-2.675-0.713-3.816-0.62c-1.143,0.083-2.926,1.104-2.926,1.104s-1.483,0.446-2.027-0.048
			c-0.542-0.496-1.106-1.685-2.84-1.606c-1.731,0.078-2.619,1.128-2.619,1.128s-1.939,0.157-2.584-1.829
			c-0.644-1.984-2.754-1.055-3.959-0.824c-1.106,0.206-1.955,1.596-2.833-1.259c-0.936-3.049-1.904-2.212-2.942-2.161
			c-1.039,0.049-1.914-0.083-1.881-2.446c0.029-2.363-1.134-2.032-1.426-1.568l-0.293,0.463
			C-236.698-19.118-237.963-20.27-238.017-22.247"/>
		<path fill="#0E4728" d="M-235.932-35.151c0,0-2.051,9.382,8.147,12.021c5.543,1.436,15.04,1.221,29.685-4.366
			c11.783-4.499,18.748-9.448,22.6-13.624c8.494-9.202,2.358-15.98,2.772-15.397c9.752,13.749-9.401,26.566-24.012,32.255
			C-219.419-15.423-241.342-18.976-235.932-35.151"/>
		<path fill="#0E4728" d="M-235.627-35.893c0,0,5.729-12.654,26.869-20.782c20.557-7.908,33.363-3.838,36.069-1.244
			c0.077,0.07,0.146,0.141,0.205,0.213c2.192,2.566-6.4-11.634-36.667,0.005C-232.497-48.723-235.627-35.893-235.627-35.893"/>
		<path fill="#FFFFFF" d="M-170.744-51.054c0,0,1.433,7.083-9.013,14.743c0,0-3.063,3.645-0.602,2.11
			C-177.893-35.739-168.674-42.924-170.744-51.054"/>
		<path fill="#0E4728" d="M-237.279-31.933c0,0-1.181,7.624-0.739,9.686c0,0-0.211,1.012,0.269,1.649c0,0,0.257,1.553,1.021,2.314
			c0,0,0.149-0.526,0.764-0.759c0,0,0.881,1.067,1.008,2.311c0.125,1.247,0.377,1.179,0.874,1.667
			c0.293,0.282,0.912,0.048,1.298-0.314c0.609-0.572,1.574,0.147,2.11,1.231c0.534,1.084,0.463,1.818,0.966,2.212
			c0.505,0.391,1.946,0.78,1.946,0.78s1.273-0.963,1.967-0.992c0.693-0.031,1.953,0.189,2.143,1.289
			c0.186,1.105,0.612,1.29,1.525,1.528c0.915,0.239,1.439,0.387,1.934-0.154c0.499-0.544,1.648-1.224,2.562-0.984
			c0.913,0.234,2.102,1.186,2.258,1.597c0.157,0.407,0.545,0.496,1.275,0.565c0.731,0.075,1.117,0.159,1.409-0.309
			c0.291-0.464,1.017-1.326,2.299-1.351c1.283-0.022,1.733-0.077,2.819,0.915c0,0,0.017,0.344,0.912,0.234
			c0.896-0.109,1.961-0.4,1.961-0.4s0.125-0.283,0.889-1.05c0,0,0.763-0.759,1.825-1.052c1.065-0.292,2.324-0.072,2.864,0.427
			c0.546,0.494,0.443,0.532,1.402,0.285c0.961-0.254,2.189-0.726,2.622-1.126c0.434-0.4,0.654-1.661,1.78-2.094
			c1.124-0.433,2.142-0.24,3.196,0.061c1.055,0.299,1.281-0.026,2.06-0.442c0.781-0.418,1.112-0.778,1.671-1.461
			c0.559-0.687,0.41-1.686,1.558-2.362c1.151-0.676,3.165-0.631,3.693-0.48c0.527,0.149,0.424,0.189,1.471-0.452
			c1.051-0.635,0.946-0.594,0.954-1.184c0.009-0.593,0.189-1.954,1.479-2.569c1.292-0.612,2.063-0.441,2.78-0.716
			c0.717-0.277,1.434-0.552,1.604-1.32c0.175-0.773,0.134-2.402,0.834-3.025c0.702-0.622,1.543-1.176,2.279-1.109
			c0.73,0.073,0.791-0.067,1.412-0.895c0.624-0.832,0.993-1.09,0.759-1.702c-0.237-0.613-0.969-2.21,0.102-3.094
			c1.07-0.883,1.456-0.795,2.227-0.622c0,0,0.78-0.417,0.834-1.497l0.059-1.075c0,0-1.082-1.584-0.632-3.167
			c0.448-1.579,1.765-0.913,1.765-0.913s0.387-1.441,0.228-1.85c0,0-1.102-1.337-1.25-2.335c-0.148-1.001,1.06-0.292,1.06-0.292
			s-1.299-3.377-2.137-4.345c-0.843-0.969-5.69-6.857-7.415-7.374c0,0,2.33,2.396,3.018,4.191c0,0,3.311,2.192,4.666,4.485
			l0.951,1.867c0,0-2.063-2.611-4.024-3.737c-1.96-1.127-0.165,0.183,0.111,0.893c0.275,0.72,1.409,2.75,1.409,2.75
			s-1.355-0.771-1.882-0.922c-0.528-0.151-0.371,0.261,0.275,0.715c0.645,0.458,3.347,2.591,4.007,3.396
			c0.658,0.802,0.462,1.819,0.462,1.819s-2.816-3.97-5.052-2.755c0,0-0.607,1.172,0.47,2.755l-1.455-0.734
			c0,0-0.488-0.044,0.134,0.655c0.621,0.702,3.725,3.267,4.274,4.699c0,0-0.064,1.668-0.369,1.786s-3.228-3.811-4.855-3.77
			c-1.633,0.038-0.246,3.032-0.012,3.643c0.241,0.615,1.112,2.277,1.112,2.277s-2.51-2.56-3.63-2.719c0,0,0.606,0.356,1.488,1.424
			c0.882,1.075,0.844,0.969,3.08,4.338c0.307,0.469-0.159,1.118-0.53,1.376c-0.37,0.265-2.816-2.437-4.251-3.415
			c-1.434-0.976-2.69-1.197-2.621,1.127c0.069,2.319,0.511,2.854,0.511,2.854s-2.452-3.311-2.91-2.987
			c-0.371,0.256,1.322,1.603,3.76,4.893c0,0,1.144,1.439,1.012,2.316c-0.138,0.872-0.869,0.8-1.256,0.717
			c-0.384-0.086-4.595-6.457-6.468-4.915c-1.876,1.542,0.197,5.096,0.197,5.096s-1.224-3.178-2.585-3.354
			c0,0-0.072-0.258,1.575,2.563c2.069,3.552,2.4,4.718,2.4,4.718s-0.044,0.486-0.865,0.803c-0.82,0.313-2.826-4.905-5.995-5.213
			c-3.176-0.309-1.27,6.478-1.27,6.478s-2.434-5.406-2.817-5.495c-0.388-0.085-0.513,0.199-0.199,1.014
			c0.316,0.821,2.792,7.268,2.792,7.268s-0.274,0.811-1.699,0.772c0,0-3.193-7.7-5.846-5.734c0,0-1.788,1.15,0.163,7.448
			c0,0,0.314,0.818-1.299,1.208l-0.551,0.094c0,0-2.873-7.476-3.559-8.034c0,0,0.444,2.067,0.906,3.885c0,0-2.669-2.97-4.305-2.342
			c-1.639,0.633-1.858,3.418-0.986,8.133c0,0-0.369,0.259-1.309,0.267c0,0-1.156-3.312-1.878-7.026
			c-0.272-1.399-0.222-1.797-0.222-1.797s-0.143,2.993,0.166,4.401c0,0-1.384-2.995-3.103-2.566
			c-1.715,0.425-1.903,3.902-1.557,6.944c0,0-0.291,0.462-0.984,0.495c-0.691,0.032-1.308-4.314-1.667-7.701l-0.114-0.894
			c0,0-0.32,2.823-0.194,4.067c0.125,1.246-0.55-2.957-2.899-2.645c-2.343,0.314-1.91,6.02-1.91,6.02s-1.135,1.025-1.606-0.2
			c-0.474-1.228-0.64-5.63-0.48-6.748l-0.695,1.56c0,0-1.337-1.953-2.431-2.352c-1.094-0.402-1.456,0.792-1.66,5.453
			c0,0-1.197,1.161-1.889-0.331c0,0,0-4.581,0.116-5.803c0.118-1.222,0.034-2.363-0.307-1.406c-0.34,0.953-0.331,1.888-0.331,1.888
			s-1.005-2.313-1.802-2.246c-0.796,0.073-1.652,1.809-1.787,4.213c0,0-0.857,0.213-0.802-0.868c0.055-1.076,0.329-4.94,0.329-4.94
			l-0.495,0.543c0,0-0.135-2.183-0.818-2.744c-0.684-0.558-1.213,3.877-1.207,4.815c0,0-0.84-0.968-0.729-3.129
			c0.109-2.154,0.456-6.755,0.456-6.755S-237.655-31.079-237.279-31.933"/>
		<path fill="#127744" d="M-232.722-16.417c0,0,0.465-2.759,1.174-2.444c0.706,0.31,1.243,2.928,1.307,4.313
			C-230.241-14.548-232.066-16.549-232.722-16.417"/>
		<path fill="#127744" d="M-226.375-12.749c0,0-0.018-1.874,0.479-2.415c0.496-0.542,1.142-0.086,1.526,1.528l0.126,1.24
			C-224.243-12.395-225.336-12.795-226.375-12.749"/>
		<path fill="#127744" d="M-219.135-10.717c0,0-0.455-2.405,1.054-2.753c1.514-0.345,2.148,2.227,2.323,2.984
			C-215.583-9.732-217.229-11.567-219.135-10.717"/>
		<path fill="#127744" d="M-211.75-10.149c0,0-0.583-3.651,0.888-4.096c1.473-0.451,3.372,3.869,3.325,4.355
			C-207.538-9.89-209.783-11.143-211.75-10.149"/>
		<path fill="#127744" d="M-204.354-10.761c0,0-0.707-3.366,0.854-4.202c1.559-0.835,3.178,2.769,3.178,2.769
			S-203.321-11.746-204.354-10.761"/>
		<path fill="#127744" d="M-194.44-13.395c0,0-0.387-1.617-0.353-2.45c0,0-0.455-1.469,0.777-1.945
			c0.821-0.317,2.748,1.646,2.748,1.646l-1.094-0.401c0,0,1.001,1.377,0.95,1.866C-191.411-14.68-193.038-14.644-194.44-13.395"/>
		<path fill="#127744" d="M-186.135-17.765c0,0-1.142-2.968-0.11-3.954c1.032-0.983,3.063,0.938,4.06,2.313
			C-182.186-19.406-185.285-18.916-186.135-17.765"/>
		<path fill="#127744" d="M-179.312-21.093c0,0,0.969-2.372,2.826-2.735c0,0-2.394-2.248-3.211-1.935
			C-180.515-25.445-180.371-23.857-179.312-21.093"/>
		<path fill="#127744" d="M-173.375-26.43c0,0,0.851-2.677,2.259-2.985c0,0-1.707-1.691-2.752-1.053
			C-174.918-29.835-173.739-26.762-173.375-26.43"/>
		<path fill="#127744" d="M-168.597-33.554c0,0-1.393-2.4-0.668-3.267c0.725-0.865,2.269,1.008,2.269,1.008
			S-168.501-34.531-168.597-33.554"/>
		<path fill="#127744" d="M-165.504-39.561c0,0-0.321-1.756,0.544-2.556c0,0-1.627-1.491-2.204-1.152
			C-167.737-42.931-165.982-40.201-165.504-39.561"/>
	</g>
	<path fill="#FFFFFF" d="M-162.277,7.504c-0.296-1.041-0.543-1.979-2.125-3.514c-0.89-0.787-2.765-2.417-6.03-2.417
		c-1.136,0-2.024,0.198-2.419,0.345c-2.77,0.745-4.302,2.473-4.893,3.363c-0.446,0.689-0.695,1.485-0.941,2.223H-162.277z
		 M-178.98,12.201c0.315,1.802,1.622,6.772,9.657,6.993c10.761,0.288,14.497-4.241,15.746-5.966c0-0.081,0.012-16.113,0-16.113
		h5.184l0.004,2.24c0,0,1.964-2.91,7.197-3.08c0,0.032-0.07,4.995-0.07,4.995s-7.047-0.958-7.12,7.32
		c0.005,1.64,0.005,6.02,0.005,6.02c-4.59,6.688-11.104,9.406-19.673,9.379c-15.539-0.06-16.071-11.639-16.071-13.765
		c0-0.941,0.1-3.018,1.087-5.288c2.226-5.14,7.219-8.254,12.656-8.254c0.886,0,2.764,0.047,4.841,0.887
		c4.349,1.732,7.76,5.784,8.501,10.379c0.195,1.438,0.078,2.802-0.022,4.241L-178.98,12.201z"/>
	<path fill="#62B87A" d="M-263.354,44.002c-1.228,0.602-2.818,0.949-4.41,0.949c-3.978,0-6.19-2.42-6.19-5.637
		c0-3.443,2.559-6.053,6.52-6.053c1.349,0,2.438,0.21,3.438,0.538v2.438c-0.949-0.447-1.985-0.776-3.23-0.776
		c-2.595,0-3.908,1.517-3.908,3.715c0,2.127,1.244,3.579,3.509,3.579c0.64,0,1.229-0.086,1.626-0.24v-3.375h2.646V44.002z"/>
	<polygon fill="#62B87A" points="-258.885,33.381 -252.038,33.381 -252.711,35.619 -256.24,35.619 -256.24,37.915 -252.66,37.915 
		-252.66,40.141 -256.24,40.141 -256.24,42.551 -252.071,42.551 -252.071,44.777 -258.885,44.777 	"/>
	<polygon fill="#62B87A" points="-245.494,35.619 -248.832,35.619 -248.832,33.381 -239.252,33.381 -239.927,35.619 
		-242.848,35.619 -242.848,44.777 -245.494,44.777 	"/>
	<path fill="#62B87A" d="M-232.492,38.483c0.484,0,0.779-0.085,1.04-0.222c0.415-0.246,0.689-0.675,0.689-1.269
		c0-0.564-0.293-1.068-0.794-1.312c-0.223-0.102-0.484-0.173-0.917-0.173h-0.848v2.975H-232.492z M-235.968,33.381h3.667
		c0.985,0,1.746,0.138,2.35,0.381c1.401,0.575,1.938,1.714,1.938,2.977c0,1.469-0.966,2.507-2.18,2.882v0.037
		c0.346,0.21,0.866,0.813,1.455,1.889l1.798,3.23h-3.011l-1.383-2.592c-0.586-1.107-0.966-1.523-1.226-1.574h-0.761v4.166h-2.647
		V33.381z"/>
	<path fill="#62B87A" d="M-217.99,31.447c0-0.711,0.57-1.277,1.263-1.277c0.693,0,1.263,0.566,1.263,1.277s-0.57,1.277-1.263,1.277
		C-217.419,32.724-217.99,32.158-217.99,31.447 M-217.365,39.951l-0.538-1.571c-0.259-0.772-0.397-1.258-0.483-1.623h-0.034
		c-0.086,0.378-0.244,0.866-0.536,1.642l-0.572,1.553H-217.365z M-221.429,31.447c0-0.711,0.57-1.277,1.263-1.277
		c0.689,0,1.261,0.566,1.261,1.277s-0.571,1.277-1.261,1.277C-220.858,32.724-221.429,32.158-221.429,31.447 M-219.545,33.333h2.18
		l4.719,11.444h-2.835l-1.089-2.709h-3.701l-1.038,2.709h-2.716L-219.545,33.333z"/>
	<path fill="#62B87A" d="M-201.053,44.777l-4.582-6c-0.361-0.468-0.69-0.915-1.072-1.418h-0.034
		c0.051,0.384,0.051,1.141,0.051,1.627v5.792h-2.646V33.381h2.646l4.426,5.758c0.365,0.47,0.692,0.904,1.022,1.386h0.032
		c-0.032-0.586-0.032-1.418-0.032-1.871v-5.273h2.645v11.396H-201.053z"/>
	<polygon fill="#62B87A" points="-193.973,33.381 -191.326,33.381 -191.326,37.98 -191.275,37.98 -187.662,33.381 -184.652,33.381 
		-189.114,38.829 -184.428,44.777 -187.593,44.777 -191.275,39.921 -191.326,39.921 -191.326,44.777 -193.973,44.777 	"/>
	<polygon fill="#62B87A" points="-181.014,33.381 -174.167,33.381 -174.844,35.619 -178.369,35.619 -178.369,37.915 
		-174.791,37.915 -174.791,40.141 -178.369,40.141 -178.369,42.551 -174.202,42.551 -174.202,44.777 -181.014,44.777 	"/>
	<path fill="#62B87A" d="M-158.746,39.951l-0.535-1.571c-0.26-0.772-0.397-1.258-0.484-1.623h-0.034
		c-0.091,0.378-0.242,0.866-0.536,1.642l-0.57,1.553H-158.746z M-160.924,33.333h2.178l4.722,11.444h-2.835l-1.09-2.709h-3.701
		l-1.039,2.709h-2.714L-160.924,33.333z"/>
	<path fill="#62B87A" d="M-141.19,44.002c-1.229,0.602-2.817,0.949-4.41,0.949c-3.976,0-6.189-2.42-6.189-5.637
		c0-3.443,2.562-6.053,6.52-6.053c1.347,0,2.438,0.21,3.441,0.538v2.438c-0.954-0.447-1.988-0.776-3.237-0.776
		c-2.59,0-3.905,1.517-3.905,3.715c0,2.127,1.242,3.579,3.514,3.579c0.637,0,1.225-0.086,1.622-0.24v-3.375h2.646V44.002z"/>
</g>
<g>
	<polygon fill="#44714E" points="20.962,-69.092 78.249,-69.092 78.249,-82.996 20.962,-82.996 20.962,-69.092 	"/>
	
		<polygon fill="none" stroke="#43714F" stroke-width="10" stroke-linecap="square" stroke-linejoin="round" stroke-miterlimit="21" points="
		20.962,-69.092 78.249,-69.092 78.249,-82.996 20.962,-82.996 20.962,-69.092 	"/>
	<polygon fill="#0C7741" points="82.415,-69.092 108.286,-69.092 108.286,-82.996 82.415,-82.996 82.415,-69.092 	"/>
	
		<polygon fill="none" stroke="#087841" stroke-width="10" stroke-linecap="square" stroke-linejoin="round" stroke-miterlimit="20" points="
		82.415,-69.092 108.286,-69.092 108.286,-82.996 82.415,-82.996 82.415,-69.092 	"/>
	<polygon fill="#286E4A" points="112.399,-69.039 160.816,-69.039 160.816,-83.048 112.399,-83.048 112.399,-69.039 	"/>
	
		<polygon fill="none" stroke="#286E4A" stroke-width="9" stroke-linecap="square" stroke-linejoin="round" stroke-miterlimit="21" points="
		112.399,-69.039 160.816,-69.039 160.816,-83.048 112.399,-83.048 112.399,-69.039 	"/>
	<text transform="matrix(1 0 0 1 21.8018 -62.1133)" fill="#145C38" font-family="'HelveticaNeue-LightExt'" font-size="5.9107">MALERGESCHÄFT</text>
	<g>
		<defs>
			<rect id="SVGID_1_" x="8.8" y="-120.35" width="179.502" height="89.737"/>
		</defs>
		<clipPath id="SVGID_2_">
			<use xlink:href="#SVGID_1_"  overflow="visible"/>
		</clipPath>
		<g clip-path="url(#SVGID_2_)">
			
				<text transform="matrix(1 0 0 1 20.4238 -85.248)" fill="none" stroke="#006340" stroke-width="0" stroke-linejoin="round" stroke-miterlimit="1" font-family="'HelveticaNeue-LightExt'" font-size="21.6374">PIANI</text>
		</g>
	</g>
	<text transform="matrix(1 0 0 1 20.4238 -85.248)" fill="#145C38" font-family="'HelveticaNeue-LightExt'" font-size="21.6374">PIANI</text>
	<g>
		<defs>
			<rect id="SVGID_3_" x="8.8" y="-120.35" width="179.502" height="89.737"/>
		</defs>
		<clipPath id="SVGID_4_">
			<use xlink:href="#SVGID_3_"  overflow="visible"/>
		</clipPath>
		<g clip-path="url(#SVGID_4_)">
			
				<text transform="matrix(1 0 0 1 78.1084 -85.2471)" fill="none" stroke="#006340" stroke-width="0" stroke-linejoin="round" stroke-miterlimit="12" font-family="'HelveticaNeue-ThinExt'" font-size="24.2761"> </text>
		</g>
	</g>
	<text transform="matrix(1 0 0 1 78.1084 -85.2471)" fill="#4A4A49" font-family="'HelveticaNeue-ThinExt'" font-size="24.2761"> </text>
	<g>
		<defs>
			<rect id="SVGID_5_" x="8.8" y="-120.35" width="179.502" height="89.737"/>
		</defs>
		<clipPath id="SVGID_6_">
			<use xlink:href="#SVGID_5_"  overflow="visible"/>
		</clipPath>
		<g clip-path="url(#SVGID_6_)">
			
				<text transform="matrix(1 0 0 1 78.7881 -85.2485)" fill="none" stroke="#006340" stroke-width="0" stroke-linejoin="round" stroke-miterlimit="12" font-family="'HelveticaNeue-ThinExt'" font-size="25.3316"> </text>
		</g>
	</g>
	<text transform="matrix(1 0 0 1 78.7881 -85.2485)" fill="#4A4A49" font-family="'HelveticaNeue-ThinExt'" font-size="25.3316"> </text>
	<g>
		<defs>
			<rect id="SVGID_7_" x="8.8" y="-120.35" width="179.502" height="89.737"/>
		</defs>
		<clipPath id="SVGID_8_">
			<use xlink:href="#SVGID_7_"  overflow="visible"/>
		</clipPath>
		<g clip-path="url(#SVGID_8_)">
			
				<text transform="matrix(1 0 0 1 78.7881 -85.2485)" fill="none" stroke="#006340" stroke-width="0" stroke-linejoin="round" stroke-miterlimit="12" font-family="'HelveticaNeue-ThinExt'" font-size="26.387"> </text>
		</g>
		<g clip-path="url(#SVGID_8_)">
			
				<text transform="matrix(1 0 0 1 78.7881 -85.2485)" fill="none" stroke="#006340" stroke-width="0" stroke-linejoin="round" stroke-miterlimit="12" font-family="'HelveticaNeue-ThinExt'" font-size="26.387"> </text>
		</g>
	</g>
	<text transform="matrix(1 0 0 1 78.7881 -85.2485)" fill="#4A4A49" font-family="'HelveticaNeue-ThinExt'" font-size="26.387"> </text>
	<text transform="matrix(1 0 0 1 78.7881 -85.2485)" fill="#4A4A49" font-family="'HelveticaNeue-ThinExt'" font-size="26.387"> </text>
	<text transform="matrix(1 0 0 1 83.9297 -62.1953)" fill="#145C38" font-family="'HelveticaNeue-LightExt'" font-size="5.8052">BRUGG</text>
	<text transform="matrix(1 0 0 1 113.7432 -62.1953)" fill="#145C38" font-family="'HelveticaNeue-LightExt'" font-size="5.8052">WWW</text>
	<text transform="matrix(1 0 0 1 131.8135 -62.1953)" fill="#145C38" font-family="'HelveticaNeue-LightExt'" font-size="5.8052">.PIANI.CH</text>
</g>
<g>
	<g>
		
			<image overflow="visible" width="791" height="914" xlink:href="E7853B70.jpg"  transform="matrix(0.0282 7.147420e-005 -7.147420e-005 0.0282 77.7139 7.5435)">
		</image>
	</g>
	<g>
		<path fill="#165C39" d="M51.227,56.307l0.119-0.104c0.008-0.098,0.07-0.211,0.185-0.341c0.115-0.131,0.277-0.283,0.488-0.458
			c0.131-0.096,0.27-0.188,0.415-0.274c0.145-0.088,0.283-0.183,0.415-0.288c0.552-0.47,1.086-0.921,1.602-1.355
			c0.297-0.261,0.595-0.484,0.893-0.672c0.297-0.188,0.577-0.336,0.84-0.45c0.184-0.234,0.527-0.474,1.03-0.717
			c0.503-0.242,0.911-0.364,1.226-0.364c0.122,0.001,0.22,0.036,0.295,0.106c0.074,0.068,0.12,0.156,0.136,0.263l-0.001,0.719
			c-0.001,0.254-0.074,0.478-0.218,0.673c-0.145,0.197-0.362,0.378-0.65,0.543c-0.192,0.086-0.385,0.181-0.577,0.286
			c-0.193,0.104-0.385,0.198-0.577,0.285c-0.07,0.088-0.256,0.252-0.558,0.489c-0.302,0.239-0.711,0.559-1.228,0.96
			c-0.236,0.183-0.434,0.345-0.591,0.488c-0.157,0.145-0.267,0.259-0.328,0.347c-0.087,0.164-0.156,0.348-0.204,0.549
			s-0.074,0.432-0.074,0.693c0,0.201,0.03,0.373,0.09,0.518c0.061,0.143,0.152,0.26,0.274,0.347
			c0.086,0.061,0.207,0.123,0.359,0.184c0.152,0.062,0.342,0.122,0.568,0.186c0.131-0.053,0.304-0.103,0.518-0.149
			c0.214-0.048,0.451-0.11,0.713-0.188c0.297-0.175,0.601-0.355,0.911-0.547c0.31-0.192,0.618-0.387,0.924-0.585
			c0.043-0.027,0.099-0.055,0.164-0.086c0.065-0.029,0.133-0.075,0.203-0.136c0.087-0.113,0.208-0.244,0.36-0.392
			c0.153-0.148,0.339-0.317,0.558-0.509c0.352,0.759,0.527,1.16,0.527,1.203c-0.323,0.261-0.652,0.527-0.984,0.802
			c-0.333,0.274-0.713,0.498-1.142,0.671c-0.139,0.113-0.258,0.218-0.354,0.313c-0.438,0.435-0.947,0.764-1.529,0.982
			c-0.581,0.222-1.243,0.331-1.985,0.329c-0.166,0-0.314-0.015-0.445-0.04c-0.131-0.025-0.241-0.062-0.328-0.104
			c-0.261-0.177-0.483-0.329-0.666-0.461c-0.192-0.139-0.354-0.274-0.484-0.399c-0.131-0.127-0.227-0.247-0.287-0.36
			c-0.079-0.123-0.133-0.271-0.163-0.445c-0.03-0.176-0.045-0.389-0.044-0.641c0-0.07,0.022-0.184,0.066-0.34
			c0.044-0.158,0.067-0.268,0.067-0.328c-0.062-0.191-0.136-0.387-0.224-0.588C51.442,56.721,51.342,56.516,51.227,56.307z"/>
		<path fill="#165C39" d="M59.487,56.327c0.035-0.025,0.07-0.063,0.105-0.111c0.036-0.049,0.075-0.124,0.119-0.228
			c0.053-0.088,0.127-0.182,0.224-0.283c0.097-0.099,0.21-0.21,0.343-0.333c0.246-0.2,0.467-0.452,0.665-0.752
			c0.199-0.303,0.394-0.649,0.587-1.044c0.255-0.548,0.488-1.014,0.698-1.398c0.21-0.382,0.403-0.675,0.578-0.875
			c0.053-0.201,0.159-0.52,0.317-0.956c0.158-0.436,0.369-1.004,0.633-1.7c0.254-0.663,0.47-1.202,0.646-1.615
			c0.176-0.416,0.308-0.7,0.396-0.858c0.035-0.061,0.081-0.139,0.138-0.234c0.057-0.096,0.104-0.215,0.139-0.353
			c0.123-0.41,0.268-0.793,0.435-1.146c0.167-0.354,0.338-0.687,0.514-1.001c0.043-0.078,0.099-0.141,0.164-0.184
			s0.133-0.063,0.203-0.063c0.35,0.001,0.609,0.137,0.778,0.406c0.17,0.271,0.254,0.671,0.252,1.194
			c-0.001,0.584-0.191,1.394-0.57,2.426c-0.378,1.034-0.957,2.289-1.738,3.762c-0.158,0.331-0.33,0.737-0.514,1.217
			c-0.185,0.48-0.37,1.028-0.554,1.649c-0.15,0.48-0.295,0.968-0.437,1.466c-0.14,0.497-0.286,0.985-0.436,1.466
			c-0.141,0.462-0.247,0.825-0.317,1.093c-0.07,0.266-0.105,0.443-0.106,0.529c0,0.063,0.011,0.105,0.032,0.131
			c0.022,0.027,0.054,0.039,0.098,0.039c0.087,0,0.165-0.025,0.229-0.077c0.066-0.051,0.116-0.127,0.151-0.223
			c0.175-0.252,0.349-0.538,0.52-0.856c0.171-0.317,0.345-0.669,0.52-1.053l0.041-0.379c0.063-0.576,0.194-0.979,0.396-1.204
			c0.201-0.227,0.577-0.405,1.128-0.534c0.069-0.027,0.247-0.262,0.532-0.706c0.285-0.444,0.664-1.102,1.138-1.976
			c0.263-0.462,0.482-0.808,0.657-1.039c0.175-0.23,0.307-0.348,0.395-0.347c0.201,0,0.345,0.067,0.432,0.198
			c0.086,0.131,0.13,0.328,0.129,0.59c-0.002,0.672-0.379,1.519-1.133,2.536c-0.754,1.021-1.131,1.692-1.132,2.015
			c0,0.227,0.199,0.575,0.6,1.043c0.4,0.47,0.731,0.703,0.993,0.703c0.087,0.001,0.185-0.026,0.294-0.083
			c0.108-0.057,0.237-0.146,0.385-0.267c0.113-0.086,0.224-0.179,0.333-0.278c0.109-0.102,0.229-0.192,0.359-0.28l0.527,1.202
			c-0.228,0.201-0.444,0.399-0.649,0.601c-0.207,0.2-0.423,0.397-0.65,0.588c-0.254,0.243-0.508,0.425-0.761,0.541
			c-0.253,0.118-0.507,0.175-0.76,0.174c-0.262-0.001-0.705-0.27-1.327-0.808c-0.623-0.539-0.957-0.808-1-0.808
			c-0.324,0.296-0.609,0.592-0.854,0.889c-0.158,0.19-0.313,0.378-0.466,0.556c-0.153,0.179-0.309,0.362-0.467,0.555
			c-0.043,0.061-0.114,0.135-0.21,0.223c-0.097,0.088-0.206,0.187-0.328,0.3c-0.123,0.174-0.261,0.341-0.414,0.503
			s-0.344,0.241-0.57,0.24c-0.35,0-0.611-0.101-0.785-0.303c-0.174-0.201-0.261-0.506-0.26-0.916c0.001-0.42,0.04-0.865,0.115-1.336
			c0.075-0.471,0.192-0.964,0.35-1.479c0.062-0.244,0.11-0.459,0.146-0.646c0.035-0.189,0.053-0.352,0.053-0.492l-0.091-0.131
			c-0.114,0.141-0.258,0.305-0.434,0.497c-0.175,0.191-0.381,0.427-0.617,0.705c-0.035,0.025-0.072,0.072-0.112,0.137
			c-0.04,0.066-0.129,0.195-0.27,0.386c-0.044-0.113-0.099-0.248-0.165-0.404c-0.065-0.156-0.133-0.338-0.204-0.549
			c-0.018-0.054-0.04-0.101-0.066-0.144C59.553,56.39,59.522,56.353,59.487,56.327z"/>
		<path fill="#165C39" d="M71.542,54.098c0.244,0.062,0.449,0.129,0.615,0.197c0.296-0.052,0.597-0.106,0.903-0.168l2.434,0.007
			c0.235,0,0.405,0.063,0.509,0.185c0.104,0.123,0.156,0.305,0.156,0.551c-0.001,0.348-0.073,0.609-0.217,0.783
			c-0.145,0.175-0.353,0.263-0.623,0.262c-0.087,0-0.223-0.014-0.405-0.042c-0.183-0.025-0.319-0.04-0.406-0.04l-0.746-0.002
			c-0.315,0.06-0.629,0.115-0.943,0.168c-0.759-0.123-1.182-0.187-1.269-0.188c-0.113,0-0.263,0.016-0.451,0.046
			c-0.188,0.031-0.338,0.046-0.452,0.046c-0.157,0-0.283-0.034-0.379-0.099c-0.096-0.066-0.144-0.16-0.144-0.283
			c0-0.053,0.044-0.129,0.132-0.229s0.214-0.224,0.38-0.372c0.035-0.07,0.081-0.16,0.139-0.27c0.057-0.106,0.124-0.235,0.203-0.384
			c0.061-0.008,0.138-0.027,0.229-0.059C71.299,54.178,71.411,54.141,71.542,54.098z"/>
		<path fill="#165C39" d="M79.77,40.936c0.192,0,0.356,0.027,0.491,0.087c0.135,0.058,0.246,0.128,0.332,0.216
			c0.079,0.078,0.155,0.182,0.229,0.309s0.167,0.282,0.28,0.466c0.139,0.253,0.239,0.448,0.3,0.583
			c0.061,0.135,0.091,0.225,0.091,0.268c-0.063,0.506-0.121,0.992-0.174,1.453c-0.036,0.49-0.094,0.991-0.173,1.505
			c-0.036,0.123-0.067,0.258-0.093,0.406c0.034,0.219,0.063,0.451,0.084,0.693c0.021,0.246,0.035,0.49,0.043,0.734
			c0.017,0.191,0.025,0.408,0.024,0.646c0,0.24-0.01,0.514-0.028,0.82c-0.01,0.383-0.02,0.695-0.028,0.936
			c-0.01,0.24-0.014,0.404-0.015,0.49c0,0.061,0.003,0.131,0.013,0.209c0.008,0.078,0.025,0.166,0.051,0.264
			c0.017,0.121,0.047,0.273,0.09,0.458l-0.002,0.824c0.008,0.332,0.11,1.1,0.306,2.305c0.196,1.206,0.324,1.853,0.384,1.938
			c0.061-0.032,0.114-0.06,0.157-0.077l1.028-1.83c0.053-0.147,0.122-0.337,0.205-0.567c0.083-0.232,0.183-0.5,0.297-0.806
			c0.396-0.765,0.771-1.766,1.129-2.999c0.357-1.235,0.691-2.696,1.001-4.389c0.106-0.487,0.245-0.876,0.416-1.163
			c0.171-0.286,0.362-0.462,0.572-0.521l1.168-0.417c0.201,0.08,0.344,0.187,0.431,0.321c0.087,0.137,0.13,0.313,0.129,0.531
			c0,0.27-0.05,0.709-0.147,1.314c-0.097,0.607-0.248,1.366-0.452,2.282c-0.009,0.201-0.035,0.449-0.076,0.746
			c-0.041,0.296-0.089,0.646-0.144,1.046c-0.071,0.314-0.125,0.563-0.165,0.746c-0.04,0.184-0.06,0.297-0.06,0.34
			c0,0.227,0.003,0.486,0.011,0.779c0.009,0.291,0.017,0.621,0.024,0.986c0.017,0.445,0.024,0.816,0.023,1.113
			c0,0.299-0.001,0.506-0.001,0.629c0.007,0.584,0.026,1.027,0.056,1.328c0.03,0.301,0.071,0.451,0.123,0.451
			c0.087,0,0.226-0.187,0.415-0.562c0.188-0.374,0.418-0.942,0.691-1.699c0.22-0.575,0.42-1.122,0.6-1.637
			c0.18-0.514,0.34-0.997,0.481-1.45c0.087-0.098,0.158-0.232,0.211-0.406c0.053-0.175,0.088-0.397,0.105-0.667
			c0.141-0.375,0.277-0.77,0.408-1.185c0.133-0.414,0.273-0.844,0.423-1.288c0.088-0.262,0.183-0.59,0.284-0.981
			c0.102-0.393,0.223-0.859,0.363-1.399l-0.169-0.55c0.026-0.105,0.065-0.236,0.118-0.395c0.054-0.155,0.102-0.343,0.146-0.562
			c0.236-0.374,0.449-0.659,0.638-0.851c0.188-0.19,0.338-0.285,0.451-0.285c0.087,0,0.149,0.047,0.183,0.139
			c0.035,0.09,0.053,0.236,0.052,0.438c-0.001,0.531-0.013,0.945-0.035,1.236c-0.022,0.293-0.052,0.482-0.087,0.57
			c-0.063,0.121-0.113,0.238-0.158,0.347c-0.044,0.107-0.079,0.197-0.105,0.268l0.168,0.644c-0.052,0.12-0.113,0.339-0.184,0.659
			c-0.071,0.318-0.15,0.736-0.24,1.25c-0.088,0.489-0.168,0.876-0.238,1.165c-0.07,0.287-0.135,0.479-0.197,0.575
			c-0.026,0.164-0.084,0.365-0.172,0.602s-0.192,0.515-0.316,0.837c-0.053,0.113-0.109,0.291-0.171,0.531
			c-0.062,0.238-0.137,0.524-0.225,0.856c-0.062,0.199-0.142,0.438-0.237,0.713c-0.097,0.274-0.207,0.606-0.33,1.001
			c-0.088,0.112-0.174,0.265-0.256,0.456c-0.084,0.191-0.16,0.434-0.23,0.72c-0.045,0.139-0.126,0.342-0.244,0.609
			c-0.119,0.265-0.266,0.606-0.441,1.026c-0.184,0.435-0.342,0.771-0.474,1.006c-0.131,0.236-0.224,0.365-0.276,0.393l-0.314,0.183
			c-0.07,0.088-0.158,0.146-0.263,0.175c-0.104,0.031-0.24,0.041-0.405,0.032c-0.158,0.096-0.295,0.169-0.413,0.222
			c-0.119,0.053-0.213,0.078-0.283,0.077c-0.332-0.001-0.597-0.132-0.797-0.395c-0.2-0.262-0.343-0.663-0.429-1.204
			c-0.025-0.377-0.052-0.752-0.082-1.133c-0.03-0.379-0.062-0.766-0.096-1.158c-0.018-0.191-0.049-0.447-0.096-0.767
			c-0.047-0.318-0.123-0.701-0.227-1.146c-0.184,0.349-0.374,0.71-0.572,1.078c-0.197,0.371-0.401,0.761-0.612,1.171
			c0.008,0.078-0.053,0.27-0.185,0.575c-0.132,0.305-0.316,0.729-0.554,1.269c-0.246,0.565-0.509,1.138-0.79,1.711
			c-0.201,0.341-0.418,0.595-0.649,0.766c-0.231,0.17-0.492,0.253-0.78,0.252c-0.139,0-0.273-0.11-0.404-0.329
			c-0.13-0.217-0.26-0.55-0.39-0.995c-0.078-0.27-0.154-0.543-0.228-0.818c-0.073-0.274-0.148-0.558-0.227-0.845
			c0.044-0.123,0.075-0.223,0.092-0.301c-0.061-0.123-0.123-0.287-0.188-0.498c-0.065-0.21-0.136-0.464-0.214-0.759
			c-0.025-0.186-0.06-0.42-0.103-0.707c-0.042-0.289-0.09-0.629-0.141-1.022c-0.009-0.123-0.017-0.248-0.025-0.373
			c-0.009-0.129-0.017-0.252-0.025-0.373c-0.008-0.096-0.032-0.201-0.071-0.314c-0.039-0.113-0.098-0.244-0.176-0.393
			c-0.017-0.053-0.033-0.182-0.045-0.387s-0.026-0.49-0.042-0.858c-0.008-0.297-0.034-0.545-0.078-0.74
			c-0.043-0.195-0.107-0.324-0.195-0.387l-0.353-0.263c-0.053-0.121-0.093-0.311-0.123-0.568c-0.03-0.259-0.045-0.575-0.044-0.95
			c0.002-0.986,0.064-2.015,0.185-3.089c0.12-1.074,0.299-2.203,0.538-3.389c0.062-0.305,0.171-0.537,0.329-0.693
			C79.337,41.012,79.534,40.935,79.77,40.936z"/>
		<path fill="#165C39" d="M92.594,56.411c0.106-0.184,0.244-0.368,0.412-0.556c0.168-0.189,0.381-0.384,0.637-0.582
			c0.027-0.174,0.055-0.348,0.08-0.518c0.027-0.17,0.045-0.344,0.054-0.518c0.026-0.123,0.069-0.266,0.126-0.434
			c0.057-0.166,0.121-0.343,0.191-0.536c0.078-0.191,0.186-0.432,0.322-0.72c0.135-0.287,0.313-0.609,0.533-0.968
			c0.184-0.199,0.375-0.421,0.576-0.659c0.202-0.241,0.402-0.482,0.604-0.727c0.097-0.078,0.201-0.151,0.314-0.222
			c0.115-0.068,0.229-0.148,0.342-0.233c0.105-0.035,0.223-0.066,0.354-0.091c0.131-0.027,0.275-0.041,0.432-0.04
			c0.218,0,0.395,0.022,0.53,0.067c0.135,0.044,0.245,0.118,0.333,0.224c0.061,0.07,0.119,0.174,0.176,0.314
			c0.057,0.14,0.109,0.312,0.162,0.511c0.025,0.176,0.055,0.367,0.09,0.576c0-0.051-0.014-0.029-0.045,0.066
			s-0.078,0.25-0.139,0.459l-0.119,0.417c-0.124,0.42-0.399,0.903-0.828,1.453s-1.007,1.176-1.732,1.883
			c-0.061,0.061-0.113,0.138-0.158,0.228c-0.043,0.092-0.064,0.189-0.065,0.295c0,0.184,0.032,0.346,0.097,0.486
			c0.064,0.14,0.158,0.243,0.28,0.313c0.069,0.053,0.181,0.106,0.333,0.159s0.333,0.101,0.542,0.144
			c0.34-0.024,0.649-0.08,0.929-0.167c0.279-0.085,0.527-0.19,0.745-0.311c0.044-0.027,0.114-0.063,0.21-0.111
			c0.096-0.046,0.191-0.11,0.287-0.188c0.115,0.252,0.215,0.479,0.303,0.681c0.088,0.199,0.158,0.373,0.211,0.521
			c-0.498,0.489-0.951,0.857-1.359,1.104c-0.405,0.249-0.779,0.373-1.121,0.372c-0.14,0.088-0.299,0.149-0.479,0.188
			c-0.179,0.04-0.391,0.058-0.635,0.057c-0.323-0.001-0.609-0.049-0.858-0.145c-0.249-0.097-0.456-0.237-0.62-0.422
			c-0.088-0.088-0.176-0.217-0.262-0.387c-0.088-0.173-0.179-0.376-0.273-0.612c-0.078-0.191-0.152-0.335-0.223-0.427
			c-0.069-0.09-0.147-0.137-0.234-0.137c-0.07-0.001-0.149,0.032-0.236,0.097c-0.088,0.066-0.185,0.164-0.289,0.294
			c-0.035-0.131-0.098-0.291-0.185-0.482C92.848,56.939,92.734,56.698,92.594,56.411z M96.805,52.162
			c-0.19-0.001-0.449,0.251-0.772,0.75c-0.324,0.499-0.485,0.866-0.487,1.101c0,0.053,0.012,0.09,0.033,0.113
			c0.021,0.021,0.067,0.031,0.137,0.031c0.096,0,0.175-0.051,0.235-0.149c0.062-0.1,0.118-0.193,0.171-0.281
			c0.096-0.086,0.19-0.179,0.282-0.278s0.182-0.199,0.269-0.293c0.105-0.122,0.184-0.243,0.236-0.364
			c0.053-0.123,0.079-0.244,0.08-0.367c0-0.076-0.016-0.141-0.045-0.189C96.912,52.188,96.867,52.162,96.805,52.162z"/>
		<path fill="#165C39" d="M99.178,56.428l0.078-0.092l0.041-0.131c0.236-0.321,0.652-0.742,1.248-1.26
			c0.596-0.517,1.006-0.938,1.234-1.259c0.088-0.141,0.188-0.24,0.303-0.301c0.113-0.062,0.227-0.091,0.341-0.091
			c0.306,0.001,0.563,0.078,0.772,0.23c0.209,0.153,0.349,0.384,0.418,0.687c0.061,0.272,0.116,0.544,0.168,0.819
			s0.095,0.553,0.129,0.832c0.061,0.174,0.135,0.438,0.221,0.794c0.085,0.354,0.15,0.555,0.193,0.607
			c0.044,0.088,0.109,0.151,0.195,0.19c0.087,0.041,0.195,0.061,0.326,0.062c0.156,0,0.318-0.029,0.484-0.085
			c0.164-0.057,0.334-0.153,0.509-0.292c0.131-0.114,0.269-0.229,0.412-0.347c0.144-0.116,0.286-0.233,0.425-0.347l0.527,1.203
			c-0.14,0.138-0.325,0.298-0.557,0.477c-0.232,0.178-0.51,0.384-0.832,0.619c-0.359,0.261-0.666,0.453-0.918,0.58
			c-0.254,0.126-0.445,0.188-0.577,0.188c-0.794-0.002-1.308-0.095-1.543-0.279c-0.235-0.182-0.495-0.692-0.781-1.531
			c-0.034-0.07-0.087-0.154-0.156-0.25s-0.148-0.21-0.235-0.341c-0.104-0.201-0.195-0.352-0.273-0.451
			c-0.078-0.103-0.144-0.151-0.195-0.151c-0.14,0-0.327,0.093-0.563,0.28c-0.236,0.187-0.524,0.467-0.866,0.841
			c-0.044-0.113-0.099-0.248-0.164-0.404c-0.066-0.156-0.135-0.338-0.204-0.55c-0.019-0.053-0.04-0.1-0.067-0.143
			C99.243,56.49,99.213,56.453,99.178,56.428z M104.678,46.109c0.218,0.001,0.377,0.044,0.478,0.132
			c0.101,0.089,0.149,0.216,0.149,0.38c-0.054,0.244-0.098,0.449-0.133,0.614c-0.088,0.314-0.164,0.572-0.23,0.773
			c-0.066,0.199-0.117,0.344-0.152,0.431c-0.079,0.191-0.186,0.359-0.321,0.504c-0.136,0.144-0.3,0.271-0.492,0.383
			c-0.201,0.141-0.369,0.237-0.505,0.294c-0.135,0.057-0.229,0.081-0.281,0.071c-0.148-0.018-0.29-0.033-0.426-0.046
			c-0.135-0.014-0.269-0.02-0.399-0.021c-0.113-0.063-0.202-0.18-0.267-0.354c-0.064-0.177-0.098-0.411-0.097-0.708
			c0.001-0.262,0.161-0.591,0.48-0.986c0.319-0.396,0.601-0.608,0.845-0.633c0.149-0.184,0.324-0.392,0.525-0.628
			c0.088-0.061,0.201-0.11,0.342-0.149C104.332,46.128,104.494,46.109,104.678,46.109z"/>
		<path fill="#165C39" d="M106.666,56.446c0.034-0.061,0.08-0.128,0.138-0.202s0.126-0.162,0.204-0.268
			c0.088-0.07,0.201-0.169,0.342-0.3c0.139-0.13,0.297-0.284,0.473-0.458c0.157-0.175,0.35-0.392,0.577-0.646
			c0.229-0.258,0.505-0.567,0.829-0.936c0.14-0.148,0.314-0.337,0.525-0.567c0.209-0.231,0.459-0.508,0.749-0.83
			c0.245-0.288,0.508-0.5,0.788-0.641c0.279-0.138,0.576-0.207,0.891-0.206c0.314,0,0.545,0.099,0.693,0.296
			c0.148,0.196,0.222,0.483,0.221,0.856c0,0.201-0.076,0.586-0.225,1.151c-0.15,0.566-0.384,1.317-0.701,2.249
			c-0.078,0.175-0.152,0.339-0.223,0.497c-0.053,0.113-0.088,0.213-0.105,0.301s-0.027,0.152-0.027,0.195
			c0,0.053,0.031,0.119,0.092,0.197c0.043-0.027,0.086-0.061,0.125-0.104c0.039-0.045,0.084-0.097,0.137-0.157
			c0.07-0.131,0.178-0.27,0.322-0.412c0.144-0.144,0.316-0.302,0.518-0.477c0.08-0.148,0.182-0.295,0.309-0.438
			c0.127-0.145,0.27-0.277,0.427-0.397c0.035-0.035,0.081-0.092,0.138-0.172c0.057-0.078,0.125-0.16,0.204-0.249
			c0.113-0.113,0.249-0.23,0.406-0.351c0.157-0.123,0.341-0.249,0.551-0.38c0.235-0.122,0.448-0.218,0.636-0.287
			c0.188-0.07,0.352-0.103,0.49-0.103c0.271,0.001,0.511,0.065,0.721,0.199c0.209,0.131,0.387,0.337,0.534,0.616
			c0.173,0.542,0.338,1.046,0.493,1.51c0.096,0.271,0.201,0.473,0.319,0.604c0.118,0.132,0.25,0.196,0.398,0.196
			c0.112,0.001,0.214-0.021,0.304-0.063c0.092-0.043,0.175-0.104,0.253-0.192l0.527,1.202c-0.148,0.123-0.302,0.247-0.459,0.378
			s-0.311,0.257-0.458,0.38c-0.201,0.181-0.391,0.31-0.564,0.385c-0.176,0.072-0.35,0.108-0.523,0.108
			c-0.201-0.001-0.393-0.044-0.576-0.13c-0.183-0.089-0.34-0.222-0.47-0.396c-0.069-0.07-0.157-0.199-0.261-0.387
			c-0.104-0.188-0.227-0.423-0.365-0.704c-0.113-0.114-0.241-0.265-0.385-0.452c-0.143-0.188-0.311-0.409-0.502-0.664l-0.118-0.039
			c-0.165,0.051-0.33,0.13-0.491,0.235c-0.162,0.103-0.334,0.239-0.518,0.404c-0.395,0.349-0.68,0.567-0.854,0.652
			c-0.176,0.088-0.293,0.188-0.354,0.302c-0.123,0.209-0.333,0.479-0.63,0.813c-0.299,0.331-0.672,0.723-1.117,1.177
			c-0.114,0.113-0.228,0.224-0.342,0.333c-0.113,0.109-0.227,0.216-0.342,0.319c-0.113,0.098-0.242,0.165-0.387,0.204
			c-0.144,0.039-0.303,0.058-0.479,0.058c-0.348-0.001-0.537-0.121-0.567-0.363c-0.03-0.24-0.059-0.482-0.083-0.727
			c0.131-0.367,0.281-0.825,0.448-1.376c0.167-0.548,0.361-1.19,0.583-1.922c0-0.045,0.016-0.104,0.047-0.178
			c0.03-0.074,0.068-0.172,0.112-0.295c0.044-0.113,0.075-0.211,0.093-0.295c0.018-0.082,0.027-0.154,0.027-0.215
			c0-0.063-0.022-0.109-0.065-0.145c-0.044-0.035-0.113-0.053-0.21-0.053c-0.087,0-0.202,0.052-0.347,0.157
			c-0.145,0.104-0.316,0.269-0.519,0.495c-0.244,0.261-0.441,0.467-0.59,0.615c-0.149,0.146-0.25,0.233-0.303,0.261
			c-0.086,0.061-0.189,0.146-0.307,0.259c-0.119,0.115-0.252,0.242-0.4,0.38c-0.018,0.035-0.045,0.088-0.08,0.156
			c-0.035,0.07-0.092,0.148-0.17,0.236c-0.035-0.131-0.097-0.292-0.186-0.483C106.921,56.975,106.807,56.734,106.666,56.446z"/>
		<path fill="#165C39" d="M119.18,56.479c0.107-0.184,0.244-0.369,0.412-0.556c0.168-0.189,0.381-0.384,0.639-0.582
			c0.025-0.174,0.053-0.348,0.08-0.518c0.025-0.17,0.044-0.344,0.053-0.518c0.027-0.123,0.068-0.266,0.125-0.434
			c0.057-0.166,0.121-0.343,0.191-0.536c0.08-0.191,0.187-0.432,0.322-0.72c0.137-0.287,0.314-0.609,0.533-0.968
			c0.184-0.199,0.376-0.421,0.577-0.659c0.201-0.241,0.403-0.483,0.604-0.727c0.096-0.078,0.201-0.152,0.314-0.222
			c0.113-0.068,0.227-0.148,0.34-0.233c0.105-0.035,0.224-0.066,0.354-0.091c0.131-0.027,0.274-0.041,0.433-0.04
			c0.217,0,0.395,0.022,0.529,0.067c0.135,0.043,0.246,0.118,0.332,0.224c0.062,0.07,0.121,0.174,0.177,0.314
			c0.057,0.14,0.11,0.312,0.161,0.511c0.026,0.176,0.057,0.367,0.091,0.576c0-0.051-0.015-0.029-0.046,0.066
			s-0.076,0.25-0.139,0.459l-0.119,0.417c-0.123,0.42-0.398,0.903-0.826,1.453c-0.43,0.55-1.008,1.176-1.733,1.883
			c-0.062,0.06-0.114,0.138-0.157,0.228c-0.045,0.092-0.066,0.189-0.066,0.295c-0.001,0.184,0.031,0.346,0.098,0.486
			c0.064,0.139,0.158,0.243,0.279,0.313c0.068,0.053,0.181,0.105,0.332,0.159c0.152,0.053,0.334,0.101,0.543,0.144
			c0.34-0.024,0.649-0.08,0.928-0.167c0.279-0.086,0.527-0.19,0.746-0.311c0.043-0.027,0.113-0.063,0.21-0.111
			c0.095-0.047,0.191-0.11,0.288-0.188c0.113,0.252,0.215,0.479,0.303,0.681c0.088,0.199,0.157,0.373,0.21,0.521
			c-0.498,0.489-0.952,0.857-1.358,1.104c-0.406,0.249-0.78,0.373-1.121,0.372c-0.141,0.087-0.3,0.149-0.479,0.188
			c-0.179,0.04-0.392,0.058-0.636,0.057c-0.322-0.001-0.609-0.049-0.857-0.145c-0.248-0.097-0.456-0.237-0.621-0.422
			c-0.087-0.088-0.174-0.217-0.262-0.388c-0.087-0.172-0.178-0.375-0.273-0.611c-0.078-0.191-0.151-0.335-0.221-0.427
			c-0.07-0.09-0.148-0.137-0.236-0.137c-0.07-0.001-0.148,0.032-0.236,0.097c-0.087,0.066-0.184,0.163-0.289,0.294
			c-0.034-0.131-0.096-0.291-0.184-0.482C119.436,57.006,119.32,56.766,119.18,56.479z M123.393,52.229
			c-0.191-0.001-0.45,0.251-0.773,0.75c-0.324,0.499-0.486,0.865-0.486,1.1c0,0.053,0.011,0.09,0.033,0.114
			c0.021,0.021,0.066,0.031,0.136,0.031c0.097,0,0.175-0.051,0.235-0.149c0.062-0.1,0.118-0.193,0.172-0.281
			c0.096-0.086,0.189-0.18,0.281-0.278c0.092-0.1,0.182-0.199,0.27-0.293c0.104-0.122,0.183-0.243,0.234-0.364
			c0.054-0.123,0.08-0.244,0.08-0.367c0-0.076-0.014-0.141-0.045-0.189C123.5,52.255,123.453,52.229,123.393,52.229z"/>
	</g>
	<g>
		<path fill="#165C39" d="M49.844,72.264l-0.949-5.734l0.763,0.002l0.548,3.923l0.677-3.92l0.632,0.002l0.665,3.923l0.56-3.92
			l0.764,0.002l-0.971,5.729l-0.635-0.001l-0.7-4.07l-0.725,4.066L49.844,72.264z"/>
		<path fill="#165C39" d="M56.027,70.994v0.051c-0.001,0.404-0.104,0.723-0.309,0.954c-0.205,0.232-0.483,0.347-0.837,0.346
			c-0.432-0.001-0.747-0.162-0.946-0.482c-0.2-0.321-0.298-0.835-0.297-1.538c0.002-0.662,0.103-1.156,0.304-1.483
			c0.201-0.326,0.504-0.489,0.91-0.488c0.432,0.001,0.743,0.15,0.933,0.448c0.191,0.297,0.285,0.785,0.283,1.461l0,0.223
			l-1.759-0.004l0,0.115c-0.001,0.402,0.044,0.695,0.135,0.877c0.091,0.18,0.235,0.272,0.434,0.272
			c0.159,0.001,0.279-0.062,0.362-0.187s0.128-0.313,0.136-0.562L56.027,70.994z M54.31,69.93l1.076,0.003v-0.1
			c0.001-0.316-0.041-0.546-0.124-0.688c-0.083-0.141-0.217-0.213-0.401-0.214c-0.18,0-0.317,0.085-0.41,0.253
			C54.357,69.354,54.31,69.602,54.31,69.93z"/>
		<path fill="#165C39" d="M56.674,67.275c0-0.129,0.044-0.238,0.131-0.328s0.195-0.132,0.323-0.132c0.126,0,0.231,0.044,0.318,0.134
			s0.129,0.199,0.129,0.328c0,0.127-0.044,0.232-0.132,0.322c-0.088,0.086-0.194,0.13-0.317,0.13c-0.128,0-0.236-0.044-0.322-0.13
			C56.717,67.512,56.674,67.404,56.674,67.275z M56.759,72.281l0.01-3.854l0.706,0.002l-0.01,3.854L56.759,72.281z"/>
		<path fill="#165C39" d="M58.363,72.285l0.01-3.854l0.697,0.002l-0.001,0.387c0.095-0.141,0.209-0.245,0.344-0.315
			s0.292-0.104,0.47-0.104c0.283,0.001,0.492,0.079,0.629,0.236c0.137,0.158,0.205,0.396,0.205,0.719l-0.008,2.936l-0.712-0.002
			l0.007-2.585c0-0.262-0.033-0.44-0.101-0.534c-0.068-0.094-0.186-0.141-0.353-0.142c-0.157,0-0.275,0.047-0.354,0.146
			c-0.08,0.098-0.121,0.244-0.121,0.438l-0.007,2.676L58.363,72.285z"/>
		<path fill="#165C39" d="M63.755,71.014v0.051c-0.001,0.404-0.104,0.723-0.309,0.954c-0.205,0.232-0.483,0.347-0.836,0.346
			c-0.432-0.001-0.748-0.162-0.947-0.482c-0.199-0.321-0.298-0.835-0.296-1.538c0.002-0.662,0.103-1.156,0.304-1.483
			c0.201-0.326,0.504-0.489,0.91-0.488c0.432,0.001,0.742,0.15,0.932,0.448c0.191,0.297,0.285,0.785,0.284,1.461l0,0.223
			l-1.76-0.004l0,0.115c-0.001,0.402,0.044,0.695,0.135,0.877c0.091,0.18,0.234,0.272,0.433,0.272
			c0.159,0.001,0.279-0.062,0.362-0.187s0.128-0.312,0.137-0.562L63.755,71.014z M62.038,69.949l1.076,0.003l0-0.1
			c0.001-0.316-0.041-0.546-0.124-0.688c-0.083-0.141-0.217-0.213-0.402-0.214c-0.18,0-0.317,0.085-0.41,0.253
			C62.085,69.373,62.039,69.621,62.038,69.949z"/>
		<path fill="#165C39" d="M65.37,71.529l-0.733,2.022l-0.396-0.121l0.527-2.086L65.37,71.529z"/>
		<path fill="#165C39" d="M69.175,72.313l0.001-0.381c-0.097,0.156-0.208,0.27-0.333,0.341c-0.124,0.072-0.268,0.107-0.43,0.106
			c-0.34-0.001-0.59-0.161-0.749-0.486c-0.159-0.322-0.237-0.824-0.236-1.506c0.002-0.684,0.083-1.188,0.244-1.51
			c0.161-0.323,0.411-0.485,0.751-0.484c0.165,0.001,0.31,0.038,0.434,0.108c0.124,0.071,0.233,0.185,0.327,0.337l0.007-2.613
			l0.705,0.002l-0.016,6.088L69.175,72.313z M68.14,70.389c-0.001,0.49,0.039,0.836,0.12,1.031c0.08,0.197,0.217,0.297,0.409,0.298
			c0.191,0,0.328-0.099,0.411-0.296c0.082-0.195,0.124-0.541,0.125-1.031c0.001-0.494-0.039-0.838-0.119-1.037
			c-0.082-0.197-0.218-0.296-0.409-0.296c-0.192-0.001-0.329,0.097-0.41,0.294C68.183,69.551,68.142,69.895,68.14,70.389z"/>
		<path fill="#165C39" d="M70.651,67.311c0-0.129,0.043-0.238,0.131-0.328c0.086-0.089,0.194-0.132,0.323-0.132
			c0.126,0.001,0.231,0.044,0.318,0.134c0.086,0.09,0.129,0.199,0.128,0.328c0,0.127-0.044,0.232-0.132,0.322
			c-0.088,0.086-0.194,0.131-0.317,0.13c-0.128,0-0.236-0.043-0.322-0.13C70.694,67.547,70.651,67.439,70.651,67.311z
			 M70.736,72.316l0.01-3.854l0.705,0.002l-0.01,3.854L70.736,72.316z"/>
		<path fill="#165C39" d="M74.524,71.041v0.051c-0.001,0.404-0.104,0.723-0.309,0.954c-0.205,0.232-0.483,0.347-0.837,0.346
			c-0.432-0.001-0.747-0.162-0.947-0.482c-0.199-0.321-0.297-0.835-0.296-1.538c0.002-0.662,0.103-1.156,0.304-1.483
			c0.202-0.326,0.505-0.489,0.911-0.488c0.432,0.001,0.742,0.15,0.932,0.448c0.19,0.297,0.285,0.785,0.284,1.461l0,0.223
			l-1.76-0.004l0,0.115c-0.001,0.402,0.044,0.695,0.135,0.877c0.09,0.18,0.235,0.272,0.433,0.272
			c0.159,0.001,0.28-0.062,0.362-0.187s0.128-0.313,0.136-0.563L74.524,71.041z M72.806,69.977l1.075,0.002l0-0.1
			c0.001-0.316-0.041-0.545-0.124-0.688c-0.083-0.141-0.217-0.213-0.402-0.214c-0.18,0-0.316,0.085-0.409,0.253
			C72.854,69.4,72.807,69.648,72.806,69.977z"/>
		<path fill="#165C39" d="M78.393,72.336l0.001-0.381c-0.097,0.156-0.208,0.27-0.333,0.341c-0.124,0.072-0.268,0.107-0.43,0.106
			c-0.325-0.001-0.57-0.169-0.737-0.508c-0.167-0.338-0.249-0.836-0.248-1.496c0.002-0.654,0.085-1.15,0.253-1.486
			c0.167-0.335,0.414-0.503,0.741-0.502c0.165,0.001,0.31,0.036,0.435,0.106c0.124,0.073,0.233,0.185,0.327,0.337l0.001-0.371
			l0.705,0.002l-0.01,3.854L78.393,72.336z M77.357,70.399c-0.001,0.492,0.039,0.839,0.122,1.038
			c0.083,0.201,0.218,0.303,0.407,0.304c0.189,0,0.326-0.101,0.408-0.304c0.083-0.201,0.126-0.547,0.127-1.035
			c0.001-0.49-0.039-0.834-0.12-1.031c-0.082-0.197-0.217-0.296-0.409-0.296c-0.192-0.001-0.328,0.097-0.41,0.294
			C77.4,69.566,77.359,69.909,77.357,70.399z"/>
		<path fill="#165C39" d="M79.928,71.205l0.007-2.719l0.705,0.002l-0.007,2.76c0,0.178,0.039,0.313,0.118,0.404
			c0.079,0.092,0.196,0.138,0.351,0.138c0.152,0.001,0.269-0.044,0.348-0.136s0.119-0.227,0.119-0.404l0.007-2.76l0.719,0.002
			l-0.007,2.719c-0.001,0.424-0.095,0.73-0.283,0.92c-0.188,0.188-0.489,0.281-0.903,0.28c-0.415-0.001-0.714-0.096-0.898-0.285
			C80.019,71.936,79.927,71.629,79.928,71.205z"/>
		<path fill="#165C39" d="M82.934,71.529c0.099,0.09,0.198,0.156,0.295,0.202c0.098,0.043,0.198,0.064,0.3,0.064
			c0.149,0.001,0.271-0.044,0.366-0.132c0.094-0.089,0.142-0.204,0.142-0.343c0-0.166-0.128-0.372-0.385-0.618
			c-0.034-0.033-0.06-0.059-0.077-0.074c-0.252-0.239-0.421-0.438-0.507-0.596c-0.087-0.156-0.129-0.33-0.128-0.518
			c0.001-0.324,0.101-0.588,0.3-0.792c0.199-0.205,0.458-0.306,0.775-0.305c0.105,0,0.207,0.014,0.308,0.04
			c0.102,0.025,0.202,0.066,0.301,0.117l-0.002,0.73c-0.076-0.092-0.158-0.158-0.249-0.199c-0.09-0.046-0.194-0.067-0.312-0.067
			c-0.131,0-0.239,0.042-0.324,0.126c-0.086,0.084-0.128,0.189-0.128,0.318c0,0.172,0.122,0.371,0.369,0.601
			c0.049,0.045,0.086,0.078,0.109,0.102c0.233,0.216,0.395,0.409,0.486,0.583c0.09,0.172,0.135,0.364,0.134,0.577
			c0,0.326-0.101,0.587-0.301,0.782c-0.199,0.194-0.465,0.29-0.798,0.289c-0.108-0.001-0.218-0.013-0.331-0.034
			c-0.113-0.023-0.228-0.062-0.345-0.108L82.934,71.529z"/>
		<path fill="#165C39" d="M88.494,72.361l0.001-0.381c-0.097,0.156-0.208,0.27-0.333,0.341c-0.124,0.072-0.268,0.107-0.43,0.106
			c-0.341-0.001-0.59-0.161-0.75-0.486c-0.159-0.322-0.237-0.824-0.235-1.506c0.002-0.684,0.083-1.188,0.243-1.51
			c0.161-0.323,0.411-0.485,0.751-0.484c0.165,0.001,0.31,0.038,0.434,0.108c0.124,0.071,0.234,0.185,0.328,0.337l0.007-2.613
			l0.705,0.002l-0.016,6.088L88.494,72.361z M87.458,70.438c-0.001,0.49,0.038,0.836,0.12,1.031
			c0.081,0.197,0.218,0.298,0.409,0.298c0.192,0.001,0.329-0.099,0.411-0.296c0.082-0.195,0.124-0.541,0.125-1.031
			c0.001-0.494-0.039-0.838-0.119-1.037c-0.082-0.197-0.218-0.295-0.41-0.296c-0.191,0-0.328,0.097-0.41,0.294
			C87.5,69.6,87.459,69.943,87.458,70.438z"/>
		<path fill="#165C39" d="M92.231,71.086v0.051c-0.001,0.404-0.104,0.723-0.309,0.954c-0.204,0.232-0.483,0.347-0.837,0.346
			c-0.432-0.001-0.746-0.162-0.947-0.482c-0.199-0.321-0.298-0.835-0.296-1.538c0.002-0.662,0.104-1.156,0.304-1.483
			c0.202-0.326,0.504-0.489,0.91-0.488c0.432,0.001,0.743,0.15,0.934,0.447c0.19,0.298,0.283,0.786,0.282,1.462l-0.001,0.223
			l-1.76-0.004v0.115c0,0.402,0.045,0.695,0.135,0.877c0.092,0.18,0.235,0.272,0.434,0.272c0.16,0,0.279-0.062,0.363-0.187
			c0.082-0.125,0.126-0.313,0.135-0.563L92.231,71.086z M90.514,70.021l1.075,0.002l0.001-0.1c0-0.316-0.041-0.545-0.123-0.688
			c-0.084-0.141-0.218-0.214-0.402-0.214c-0.182,0-0.316,0.085-0.41,0.253C90.562,69.445,90.515,69.693,90.514,70.021z"/>
		<path fill="#165C39" d="M92.965,72.373l0.01-3.854l0.682,0.002l-0.001,0.563c0.097-0.205,0.222-0.359,0.374-0.462
			c0.152-0.104,0.338-0.159,0.558-0.169l-0.001,0.746h-0.119c-0.273-0.001-0.477,0.069-0.604,0.205
			c-0.128,0.137-0.192,0.354-0.194,0.646l-0.006,2.324L92.965,72.373z"/>
		<path fill="#165C39" d="M97.541,69.584l-0.008,2.801l-0.775-0.002l0.016-5.732l0.939,0.002c0.617,0.002,1.057,0.118,1.318,0.35
			c0.262,0.23,0.393,0.614,0.391,1.151c-0.001,0.424-0.092,0.753-0.272,0.989c-0.181,0.237-0.449,0.376-0.806,0.42l1.354,2.827
			l-0.83-0.002l-1.299-2.804H97.541z M97.541,69.145h0.243c0.312,0.001,0.532-0.07,0.661-0.217s0.193-0.405,0.194-0.776
			c0.001-0.309-0.061-0.522-0.183-0.642c-0.124-0.119-0.354-0.179-0.691-0.18h-0.22L97.541,69.145z"/>
		<path fill="#165C39" d="M102.229,71.111l-0.001,0.051c0,0.404-0.103,0.723-0.308,0.954c-0.204,0.232-0.483,0.347-0.836,0.346
			c-0.433-0.001-0.747-0.162-0.948-0.482c-0.198-0.321-0.297-0.835-0.295-1.538c0.002-0.662,0.103-1.156,0.303-1.483
			c0.202-0.326,0.505-0.489,0.911-0.488c0.431,0.001,0.743,0.15,0.933,0.447c0.19,0.298,0.284,0.786,0.283,1.462l-0.002,0.223
			l-1.759-0.005v0.115c-0.001,0.402,0.044,0.696,0.135,0.878c0.091,0.18,0.235,0.271,0.433,0.272c0.16,0,0.281-0.062,0.363-0.187
			s0.127-0.313,0.136-0.563L102.229,71.111z M100.512,70.046l1.076,0.003v-0.1c0-0.316-0.041-0.545-0.123-0.688
			c-0.084-0.141-0.217-0.214-0.402-0.214c-0.18-0.001-0.316,0.085-0.41,0.253C100.56,69.471,100.514,69.718,100.512,70.046z"/>
		<path fill="#165C39" d="M102.878,67.393c0.001-0.129,0.044-0.238,0.13-0.328c0.088-0.09,0.195-0.133,0.323-0.132
			c0.126,0,0.232,0.043,0.318,0.134c0.087,0.09,0.13,0.199,0.13,0.328c-0.001,0.127-0.045,0.232-0.133,0.322
			c-0.089,0.085-0.194,0.13-0.317,0.13c-0.128-0.001-0.235-0.044-0.323-0.13C102.92,67.629,102.877,67.521,102.878,67.393z
			 M102.963,72.398l0.01-3.854l0.705,0.002l-0.01,3.854L102.963,72.398z"/>
		<path fill="#165C39" d="M104.566,72.402l0.016-6.088l0.705,0.002l-0.007,2.623c0.081-0.139,0.188-0.244,0.325-0.315
			c0.134-0.072,0.295-0.107,0.48-0.106c0.283,0.001,0.492,0.079,0.629,0.236c0.137,0.158,0.205,0.396,0.205,0.719l-0.008,2.936
			l-0.713-0.002l0.007-2.586c0.001-0.262-0.032-0.439-0.101-0.533c-0.067-0.094-0.185-0.142-0.352-0.142
			c-0.158,0-0.275,0.046-0.355,0.146c-0.08,0.098-0.119,0.244-0.12,0.438l-0.007,2.676L104.566,72.402z"/>
		<path fill="#165C39" d="M109.959,71.131l-0.001,0.051c-0.001,0.404-0.104,0.723-0.309,0.954c-0.204,0.232-0.483,0.347-0.835,0.346
			c-0.434-0.001-0.748-0.162-0.948-0.482c-0.199-0.321-0.298-0.835-0.296-1.538c0.002-0.662,0.103-1.156,0.304-1.483
			c0.202-0.326,0.504-0.489,0.91-0.488c0.431,0.001,0.743,0.15,0.933,0.447c0.191,0.298,0.285,0.786,0.283,1.462l-0.001,0.223
			l-1.76-0.005v0.115c-0.001,0.402,0.044,0.696,0.135,0.878c0.091,0.18,0.235,0.271,0.434,0.272c0.159,0,0.28-0.062,0.362-0.187
			s0.127-0.313,0.137-0.563L109.959,71.131z M108.24,70.065l1.076,0.003v-0.1c0.001-0.316-0.04-0.545-0.123-0.688
			c-0.084-0.141-0.217-0.214-0.402-0.214c-0.18-0.001-0.316,0.085-0.41,0.253C108.289,69.49,108.242,69.737,108.24,70.065z"/>
		<path fill="#165C39" d="M112.271,72.422l0.009-3.332l-0.385-0.001l0.002-0.521l0.384,0.001l0.003-1.041l0.705,0.002l-0.003,1.041
			l0.53,0.001l-0.002,0.521l-0.529-0.001l-0.009,3.332L112.271,72.422z"/>
		<path fill="#165C39" d="M115.592,72.431V72.05c-0.098,0.155-0.208,0.269-0.333,0.341c-0.124,0.071-0.269,0.106-0.431,0.106
			c-0.324-0.001-0.57-0.17-0.736-0.508c-0.167-0.339-0.25-0.837-0.248-1.497c0.001-0.654,0.086-1.15,0.254-1.485
			c0.166-0.336,0.413-0.503,0.74-0.502c0.165,0,0.311,0.035,0.435,0.106c0.124,0.072,0.233,0.184,0.327,0.337l0.002-0.371
			l0.705,0.001l-0.01,3.854L115.592,72.431z M114.556,70.494c-0.001,0.492,0.039,0.838,0.122,1.037
			c0.082,0.201,0.218,0.304,0.406,0.304c0.189,0.001,0.326-0.101,0.408-0.304c0.084-0.2,0.126-0.546,0.127-1.034
			c0.002-0.49-0.039-0.834-0.119-1.032c-0.082-0.197-0.217-0.295-0.41-0.296c-0.189,0-0.328,0.097-0.41,0.294
			S114.557,70.004,114.556,70.494z"/>
		<path fill="#165C39" d="M117.145,72.435l0.01-3.854l0.697,0.001l-0.001,0.387c0.095-0.14,0.209-0.245,0.345-0.315
			c0.135-0.069,0.291-0.104,0.469-0.104c0.283,0,0.493,0.079,0.63,0.235c0.138,0.159,0.205,0.397,0.204,0.72l-0.008,2.936
			l-0.712-0.002l0.007-2.586c0-0.262-0.033-0.439-0.1-0.533c-0.068-0.095-0.186-0.142-0.354-0.142
			c-0.156-0.001-0.275,0.046-0.355,0.146c-0.079,0.098-0.119,0.243-0.12,0.437l-0.007,2.676L117.145,72.435z"/>
		<path fill="#165C39" d="M120.019,72.441l1.436-3.229l-1.344-0.004l0.001-0.621l2.36,0.006l-1.448,3.214l1.328,0.003l-0.002,0.637
			L120.019,72.441z"/>
		<path fill="#165C39" d="M125.192,71.169l-0.001,0.051c0,0.404-0.104,0.723-0.309,0.955c-0.204,0.231-0.482,0.346-0.836,0.345
			c-0.432-0.001-0.748-0.161-0.947-0.482s-0.298-0.835-0.296-1.538c0.001-0.662,0.103-1.155,0.304-1.483
			c0.201-0.325,0.504-0.489,0.91-0.488c0.432,0.001,0.742,0.15,0.933,0.448c0.19,0.297,0.285,0.786,0.283,1.462l-0.001,0.223
			l-1.759-0.005v0.115c-0.001,0.402,0.043,0.695,0.135,0.877c0.09,0.181,0.235,0.272,0.433,0.272
			c0.159,0.001,0.279-0.062,0.362-0.187c0.081-0.124,0.128-0.312,0.136-0.562L125.192,71.169z M123.475,70.104l1.075,0.003
			l0.001-0.1c0-0.316-0.041-0.545-0.125-0.688c-0.082-0.141-0.217-0.213-0.401-0.214c-0.18,0-0.315,0.086-0.409,0.253
			C123.522,69.528,123.477,69.776,123.475,70.104z"/>
		<path fill="#165C39" d="M125.918,72.456l0.01-3.854l0.697,0.002l-0.001,0.387c0.095-0.141,0.209-0.245,0.345-0.315
			c0.135-0.07,0.291-0.104,0.469-0.104c0.283,0.001,0.492,0.08,0.629,0.236c0.138,0.158,0.205,0.396,0.205,0.719l-0.008,2.936
			l-0.712-0.001l0.007-2.586c0-0.262-0.033-0.44-0.101-0.534s-0.185-0.141-0.353-0.142c-0.156,0-0.275,0.047-0.355,0.146
			c-0.079,0.098-0.119,0.244-0.12,0.438l-0.007,2.676L125.918,72.456z"/>
	</g>
	
		<image overflow="visible" width="1306" height="1489" xlink:href="E7853B71.jpg"  transform="matrix(0.0185 4.683729e-005 -4.683729e-005 0.0185 75.6021 7.1133)">
	</image>
</g>
<g>
	<path fill-rule="evenodd" clip-rule="evenodd" fill="#175C39" d="M-170.523-99.202c-5.193,0-10.333,0-15.545,0
		c0-9.81,0-19.611,0-29.492c5.144,0,10.307,0,15.545,0C-170.523-118.92-170.523-109.118-170.523-99.202z"/>
	<path fill-rule="evenodd" clip-rule="evenodd" fill="#165C39" d="M-155.213-128.749c5.215,0,10.356,0,15.579,0
		c0,9.836,0,19.665,0,29.536c-5.182,0-10.351,0-15.579,0C-155.213-109.044-155.213-118.844-155.213-128.749z"/>
	<path fill-rule="evenodd" clip-rule="evenodd" fill="#165C39" d="M-124.281-128.721c5.25,0,10.422,0,15.641,0
		c0,9.854,0,19.654,0,29.492c-5.224,0-10.4,0-15.641,0C-124.281-109.043-124.281-118.844-124.281-128.721z"/>
	<path fill-rule="evenodd" clip-rule="evenodd" fill="#195C3A" d="M30.465-128.774c2.199,0,4.328-0.028,6.454,0.035
		c0.267,0.008,0.678,0.452,0.757,0.761c1.499,5.893,2.957,11.795,4.425,17.695c0.085,0.343,0.187,0.681,0.512,1.005
		c-0.123-6.452-0.247-12.904-0.371-19.426c1.646,0,3.338,0,5.084,0c0,9.81,0,19.576,0,29.428c-2.259,0-4.52,0-7.009,0
		c-1.621-6.745-3.271-13.614-4.922-20.483c-0.064,0.002-0.127,0.005-0.192,0.007c0.156,6.807,0.313,13.614,0.471,20.491
		c-1.73,0-3.437,0-5.208,0C30.465-109.05,30.465-118.846,30.465-128.774z"/>
	<path fill-rule="evenodd" clip-rule="evenodd" fill="#1C5D3B" d="M87.784-114.285c3.117,1.067,3.852,3.269,3.761,5.989
		c-0.058,1.763,0.01,3.53-0.021,5.294c-0.023,1.349,0.174,2.614,1.226,3.825c-2.022,0-3.873,0.02-5.721-0.024
		c-0.238-0.005-0.611-0.301-0.677-0.532c-0.238-0.833-0.495-1.693-0.52-2.549c-0.07-2.425-0.014-4.853-0.038-7.279
		c-0.017-1.726-0.601-2.369-2.315-2.498c-0.945-0.071-1.9-0.013-2.941-0.013c0,4.284,0,8.535,0,12.842c-1.909,0-3.728,0-5.612,0
		c0-9.801,0-19.602,0-29.529c1.091,0,2.144,0,3.197,0c2.611,0,5.221-0.002,7.832,0.001c3.376,0.004,4.992,1.299,5.286,4.659
		c0.188,2.141,0.061,4.329-0.133,6.478C90.92-115.548,90.124-114.838,87.784-114.285z M80.56-116.356
		c1.289-0.084,2.488-0.124,3.677-0.252c0.813-0.087,1.345-0.584,1.36-1.44c0.027-1.604,0.028-3.208-0.005-4.812
		c-0.02-0.937-0.696-1.38-1.5-1.445c-1.155-0.094-2.322-0.024-3.532-0.024C80.56-121.689,80.56-119.135,80.56-116.356z"/>
	<path fill-rule="evenodd" clip-rule="evenodd" fill="#185C3A" d="M267.267-99.094c-2.032,0-3.928,0-5.895,0
		c0-9.908,0-19.71,0-29.665c0.5,0,1,0,1.5,0c3.237,0,6.477-0.048,9.713,0.018c1.788,0.037,3.563,0.363,4.45,2.206
		c0.353,0.732,0.56,1.594,0.594,2.407c0.083,1.983,0.048,3.973,0.021,5.959c-0.029,2.166-1.041,3.355-3.307,3.835
		c0.43,0.218,0.763,0.385,1.095,0.556c1.624,0.837,2.396,2.222,2.431,3.998c0.044,2.28-0.008,4.562,0.018,6.843
		c0.015,1.323,0.209,2.61,1.365,3.759c-2.08,0-3.97,0.02-5.857-0.026c-0.226-0.005-0.584-0.34-0.638-0.578
		c-0.227-0.99-0.466-1.998-0.507-3.006c-0.1-2.459-0.06-4.924-0.14-7.385c-0.039-1.198-0.543-1.688-1.745-1.809
		c-0.981-0.099-1.973-0.105-3.099-0.159C267.267-107.706,267.267-103.357,267.267-99.094z M266.976-116.445
		c1.069,0,2.095,0.059,3.111-0.015c1.249-0.091,1.957-0.708,2.002-1.769c0.062-1.466,0.056-2.939,0.001-4.406
		c-0.037-1.009-0.629-1.644-1.658-1.692c-1.129-0.054-2.263-0.013-3.456-0.013C266.976-121.713,266.976-119.155,266.976-116.445z"/>
	<path fill-rule="evenodd" clip-rule="evenodd" fill="#195C3A" d="M-12.184-114.343c0.108,0.118,0.166,0.24,0.255,0.271
		c2.34,0.802,3.202,2.592,3.236,4.898c0.031,2.132-0.08,4.27,0.039,6.396c0.066,1.184,0.475,2.349,0.746,3.601
		c-1.61,0-3.495,0.016-5.378-0.023c-0.199-0.004-0.511-0.3-0.567-0.514c-0.229-0.873-0.506-1.762-0.534-2.653
		c-0.074-2.387-0.015-4.779-0.036-7.168c-0.016-1.807-0.486-2.347-2.294-2.516c-0.941-0.088-1.897-0.016-2.939-0.016
		c0,4.257,0,8.503,0,12.826c-1.871,0-3.652,0-5.513,0c0-9.769,0-19.565,0-29.44c0.193-0.022,0.435-0.073,0.676-0.074
		c3.493-0.005,6.989-0.092,10.477,0.046c1.173,0.047,2.404,0.519,3.462,1.075c1.056,0.556,1.457,1.719,1.482,2.904
		c0.05,2.304,0.091,4.61,0.039,6.913C-9.079-115.83-10.223-114.703-12.184-114.343z M-19.667-116.432
		c1.053,0,2.004,0.041,2.951-0.009c1.552-0.083,2.104-0.609,2.183-2.154c0.066-1.281,0.056-2.568,0.013-3.851
		c-0.034-1.023-0.539-1.791-1.622-1.871c-1.155-0.086-2.322-0.02-3.524-0.02C-19.667-121.678-19.667-119.123-19.667-116.432z"/>
	<path fill-rule="evenodd" clip-rule="evenodd" fill="#1A5D3A" d="M233.764-99.228c-1.867,0-3.661,0-5.561,0
		c0-4.462,0-8.892,0-13.375c-1.635,0-3.166,0-4.795,0c0,4.417,0,8.848,0,13.345c-1.908,0-3.721,0-5.564,0c0-9.83,0-19.63,0-29.475
		c1.836,0,3.619,0,5.5,0c0,3.842,0,7.65,0,11.508c1.628,0,3.16,0,4.791,0c0-3.797,0-7.601,0-11.478c1.917,0,3.736,0,5.629,0
		C233.764-118.924,233.764-109.124,233.764-99.228z"/>
	<path fill-rule="evenodd" clip-rule="evenodd" fill="#1A5C3A" d="M-48.337-128.749c1.831,0,3.587,0,5.444,0
		c0,3.831,0,7.639,0,11.543c1.651,0,3.205,0,4.866,0c0-3.807,0-7.615,0-11.495c1.921,0,3.738,0,5.636,0c0,9.801,0,19.599,0,29.453
		c-1.854,0-3.672,0-5.565,0c0-4.451,0-8.854,0-13.333c-1.633,0-3.195,0-4.858,0c0,4.41,0,8.841,0,13.331c-1.883,0-3.667,0-5.523,0
		C-48.337-109.042-48.337-118.843-48.337-128.749z"/>
	<path fill-rule="evenodd" clip-rule="evenodd" fill="#1A5D3A" d="M329.773-99.158c-1.732,0.27-3.271,0.306-3.432-1.746
		c-1.294,0.699-2.463,1.693-3.783,1.977c-4.755,1.022-8.646-1.804-8.715-6.73c-0.073-5.259,0.036-10.52-0.031-15.778
		c-0.067-5.219,3.949-8.052,8.786-7.471c4.565,0.549,6.934,3.429,6.935,8.047c0,0.622,0,1.244,0,1.936c-1.677,0-3.313,0-4.969,0
		c-0.184-1.148-0.287-2.345-0.58-3.493c-0.402-1.579-1.138-2.044-2.701-1.951c-1.188,0.071-1.699,0.618-1.996,2.181
		c-0.075,0.395-0.123,0.8-0.124,1.201c-0.007,4.855-0.01,9.71,0.004,14.565c0.005,1.95,0.566,2.826,1.929,3.123
		c1.558,0.341,2.892-0.5,3.097-2.091c0.191-1.48,0.218-2.981,0.325-4.587c-1.238,0-2.321,0-3.46,0c0-1.384,0-2.662,0-4.036
		c2.873,0,5.753,0,8.716,0C329.773-109.104,329.773-104.161,329.773-99.158z"/>
	<path fill-rule="evenodd" clip-rule="evenodd" fill="#1A5D3A" d="M-92.983-109.594c0.303-0.035,0.551-0.086,0.8-0.088
		c1.572-0.007,3.144-0.003,4.914-0.003c0,1.649-0.04,3.183,0.012,4.713c0.044,1.303,0.664,1.927,1.843,2.027
		c1.949,0.165,2.76-0.176,2.984-1.565c0.208-1.289,0.226-2.627,0.159-3.935c-0.061-1.174-0.895-1.979-1.809-2.611
		c-1.553-1.074-3.114-2.142-4.732-3.112c-3.455-2.071-4.267-5.232-3.905-8.96c0.412-4.232,3.37-5.92,6.979-6.086
		c1.267-0.058,2.581-0.036,3.811,0.232c3.273,0.714,4.884,2.751,5.025,6.115c0.038,0.916,0.006,1.835,0.006,2.839
		c-1.854,0-3.67,0-5.558,0c-0.048-0.973-0.157-1.988-0.134-3c0.028-1.202-0.804-1.995-2.071-1.994
		c-1.557,0.001-2.389,0.537-2.558,1.941c-0.241,2,0.109,3.719,2.057,4.921c2.132,1.316,4.165,2.809,6.153,4.338
		c1.571,1.209,2.488,2.817,2.375,4.916c-0.075,1.394-0.004,2.794-0.016,4.192c-0.024,2.815-1.648,4.996-4.351,5.729
		c-2.449,0.664-4.929,0.662-7.377-0.008c-2.783-0.762-4.426-2.786-4.59-5.705C-93.058-106.31-92.983-107.93-92.983-109.594z"/>
	<path fill-rule="evenodd" clip-rule="evenodd" fill="#195D3A" d="M155.311-119.992c-1.924,0-3.711,0-5.531,0
		c-0.059-1.104-0.135-2.161-0.165-3.22c-0.03-1.051-0.606-1.601-1.578-1.784c-1.36-0.255-2.389,0.181-2.808,1.153
		c-0.846,1.958-0.186,4.183,1.574,5.426c2.197,1.551,4.426,3.063,6.547,4.713c1.615,1.256,2.391,2.979,2.248,5.096
		c-0.086,1.281,0.003,2.573-0.018,3.86c-0.045,2.864-1.59,4.982-4.329,5.748c-2.519,0.705-5.076,0.707-7.587-0.07
		c-2.737-0.847-4.248-2.764-4.402-5.618c-0.088-1.61-0.016-3.23-0.016-4.923c1.873,0,3.688,0,5.716,0
		c0,1.604-0.06,3.173,0.018,4.735c0.065,1.325,0.683,1.874,1.913,1.946c1.951,0.114,2.699-0.241,2.92-1.658
		c0.189-1.22,0.234-2.482,0.172-3.718c-0.059-1.207-0.842-2.061-1.818-2.717c-1.535-1.036-3.027-2.146-4.627-3.074
		c-3.623-2.104-4.418-5.357-4.007-9.201c0.435-4.057,3.321-5.579,6.573-5.928c2.144-0.231,4.24-0.084,6.191,0.962
		c2.043,1.097,2.855,2.932,3.002,5.125C155.367-122.122,155.311-121.096,155.311-119.992z"/>
	<path fill-rule="evenodd" clip-rule="evenodd" fill="#1A5D3A" d="M-54.402-117.779c-1.915,0-3.675,0-5.606,0
		c0-1.216,0.003-2.415-0.002-3.614c-0.002-0.401-0.003-0.807-0.053-1.205c-0.23-1.83-0.952-2.463-2.71-2.405
		c-1.515,0.05-2.262,0.88-2.284,2.728c-0.039,3.273-0.011,6.547-0.011,9.821c0,2.244-0.032,4.488,0.007,6.731
		c0.037,2.124,0.923,2.907,3.01,2.769c1.169-0.078,1.8-0.624,1.932-1.817c0.1-0.907,0.091-1.828,0.107-2.743
		c0.017-0.882,0.004-1.764,0.004-2.74c1.843,0,3.658,0,5.8,0c-0.198,2.518-0.21,5.043-0.649,7.491
		c-0.342,1.911-1.87,3.085-3.714,3.657c-3.002,0.931-6.001,0.82-8.904-0.388c-2.086-0.869-3.19-2.563-3.209-4.794
		c-0.054-6.252-0.057-12.506,0-18.758c0.031-3.378,2.526-5.869,6.178-6.144c1.666-0.125,3.39-0.083,5.032,0.201
		c3.202,0.553,4.738,2.208,5.041,5.394C-54.256-121.708-54.402-119.79-54.402-117.779z"/>
	<path fill-rule="evenodd" clip-rule="evenodd" fill="#195C3A" d="M211.694-117.806c-1.835,0-3.622,0-5.571,0
		c0-1.596,0.03-3.163-0.008-4.729c-0.044-1.854-1.496-2.904-3.291-2.429c-1.089,0.289-1.751,1.187-1.757,2.615
		c-0.024,5.556-0.034,11.111,0.002,16.667c0.015,2.141,1.323,3.125,3.421,2.713c0.949-0.186,1.604-1.015,1.625-2.184
		c0.032-1.686,0.008-3.373,0.008-5.125c1.902,0,3.721,0,5.507,0c0,2.209,0.163,4.381-0.042,6.518
		c-0.251,2.626-2.053,4.307-4.983,4.942c-2.403,0.521-4.808,0.414-7.152-0.366c-2.673-0.888-3.95-2.712-3.948-5.521
		c0.002-5.923,0.069-11.848-0.025-17.77c-0.07-4.353,2.719-6.309,6.27-6.711c1.649-0.187,3.379-0.063,5.025,0.207
		c3.096,0.508,4.684,2.288,4.896,5.396C211.801-121.684,211.694-119.77,211.694-117.806z"/>
	<path fill-rule="evenodd" clip-rule="evenodd" fill="#195D3A" d="M297.379-105.536c-0.316,2.163-0.628,4.288-0.938,6.411
		c-1.767,0-3.441,0-5.271,0c1.9-9.856,3.783-19.621,5.668-29.398c2.253,0,4.418,0,6.7,0c1.886,9.769,3.771,19.535,5.671,29.38
		c-1.759,0-3.467,0-5.269,0c-0.313-2.1-0.629-4.219-0.953-6.393C301.113-105.536,299.255-105.536,297.379-105.536z M302.212-110.153
		c-0.619-3.688-1.227-7.305-1.834-10.922c-0.132,0.008-0.263,0.016-0.395,0.024c-0.601,3.61-1.201,7.22-1.813,10.898
		C299.527-110.153,300.8-110.153,302.212-110.153z"/>
	<path fill-rule="evenodd" clip-rule="evenodd" fill="#185C39" d="M167.363-111.355c0,4.092,0,8.053,0,12.091
		c-1.863,0-3.678,0-5.555,0c0-9.772,0-19.561,0-29.432c0.337-0.02,0.656-0.055,0.974-0.055c3.233-0.004,6.468,0.004,9.702-0.005
		c3.813-0.011,5.186,1.787,5.324,5.069c0.121,2.85-0.027,5.718-0.189,8.57c-0.121,2.126-1.424,3.356-3.538,3.552
		c-1.276,0.119-2.56,0.16-3.842,0.203C169.322-111.331,168.405-111.355,167.363-111.355z M167.394-124.14c0,2.877,0,5.606,0,8.39
		c1.132,0,2.192,0.032,3.251-0.009c1.079-0.042,1.666-0.634,1.689-1.73c0.035-1.648,0.042-3.298-0.004-4.946
		c-0.025-0.929-0.477-1.64-1.494-1.692C169.709-124.185,168.576-124.14,167.394-124.14z"/>
	<path fill-rule="evenodd" clip-rule="evenodd" fill="#1D5E3B" d="M255.309-128.683c0,1.542,0,3,0,4.558c-2.921,0-5.804,0-8.747,0
		c0,2.286,0,4.475,0,6.769c2.696,0,5.4,0,8.169,0c0,1.593,0,3.082,0,4.64c-2.719,0-5.39,0-8.145,0c0,2.95,0,5.833,0,8.819
		c2.982,0,6.015,0,9.116,0c0,1.588,0,3.077,0,4.65c-4.872,0-9.775,0-14.758,0c0-9.769,0-19.563,0-29.437
		C245.703-128.683,250.455-128.683,255.309-128.683z"/>
	<path fill-rule="evenodd" clip-rule="evenodd" fill="#1A5D3A" d="M103.4-112.698c0,3.034,0,5.894,0,8.829c3.051,0,6.059,0,9.15,0
		c0,1.59,0,3.106,0,4.663c-4.907,0-9.793,0-14.75,0c0-9.791,0-19.593,0-29.475c4.782,0,9.572,0,14.424,0c0,1.489,0,2.945,0,4.518
		c-2.902,0-5.82,0-8.807,0c0,2.303,0,4.49,0,6.791c2.698,0,5.396,0,8.164,0c0,1.596,0,3.083,0,4.675
		C108.891-112.698,106.188-112.698,103.4-112.698z"/>
	<path fill-rule="evenodd" clip-rule="evenodd" fill="#185C39" d="M11.388-112.663c-2.782,0-5.459,0-8.201,0
		c0,2.938,0,5.824,0,8.815c3.06,0,6.093,0,9.181,0c0,1.594,0,3.084,0,4.626c-4.917,0-9.829,0-14.799,0c0-9.806,0-19.601,0-29.467
		c4.779,0,9.542,0,14.4,0c0,1.457,0,2.939,0,4.525c-2.872,0-5.793,0-8.778,0c0,2.317,0,4.533,0,6.833c2.729,0,5.432,0,8.197,0
		C11.388-115.762,11.388-114.276,11.388-112.663z"/>
	<path fill-rule="evenodd" clip-rule="evenodd" fill="#175C39" d="M54.477-99.242c0-9.821,0-19.597,0-29.446
		c4.767,0,9.525,0,14.368,0c0,1.487,0,2.972,0,4.557c-2.897,0-5.819,0-8.793,0c0,2.289,0,4.479,0,6.781c2.745,0,5.481,0,8.272,0
		c0,1.595,0,3.079,0,4.639c-2.759,0-5.469,0-8.252,0c0,2.96,0,5.845,0,8.833c3.005,0,6.036,0,9.126,0c0,1.591,0,3.08,0,4.635
		C64.333-99.242,59.459-99.242,54.477-99.242z"/>
	<path fill-rule="evenodd" clip-rule="evenodd" fill="#165C39" d="M18.107-128.746c1.818,0,3.572,0,5.389,0
		c0,9.824,0,19.623,0,29.487c-1.756,0-3.538,0-5.389,0C18.107-109.043,18.107-118.841,18.107-128.746z"/>
	<path fill-rule="evenodd" clip-rule="evenodd" fill="#165C39" d="M118.326-128.745c1.824,0,3.578,0,5.396,0
		c0,9.825,0,19.625,0,29.489c-1.765,0-3.546,0-5.396,0C118.326-109.045,118.326-118.842,118.326-128.745z"/>
	<path fill-rule="evenodd" clip-rule="evenodd" fill="#165C39" d="M188.83-99.221c-1.814,0-3.569,0-5.389,0
		c0-9.818,0-19.617,0-29.484c1.76,0,3.54,0,5.389,0C188.83-118.925,188.83-109.127,188.83-99.221z"/>
</g>
</svg>
