<?xml version="1.0" encoding="utf-8"?>
<!-- Generator: Adobe Illustrator 17.1.0, SVG Export Plug-In . SVG Version: 6.00 Build 0)  -->
<!DOCTYPE svg PUBLIC "-//W3C//DTD SVG 1.1//EN" "http://www.w3.org/Graphics/SVG/1.1/DTD/svg11.dtd">
<svg version="1.1" id="Ebene_1" xmlns="http://www.w3.org/2000/svg" xmlns:xlink="http://www.w3.org/1999/xlink" x="0px" y="0px"
	 viewBox="0 0 70.1 17.8" enable-background="new 0 0 70.1 17.8" xml:space="preserve">
<polygon fill="#84282D" points="0.2,8.2 0.2,17.5 4.9,17.5 4.9,15.8 2.2,15.8 2.2,8.2 "/>
<polygon fill="#84282D" points="5.9,8.2 5.9,17.5 11.1,17.5 11.1,15.8 7.9,15.8 7.9,13.6 11.1,13.6 11.1,11.9 7.9,11.9 7.9,9.9 
	11.1,9.9 11.1,8.2 "/>
<g>
	<path fill="#84282D" d="M19.3,8.2l-1.5,4.7c-0.1,0.4-0.3,0.9-0.4,1.4c-0.1-0.5-0.2-0.9-0.3-1.4l-1.5-4.7h-2.1l-1.3,9.3h2
		c0.3-2.1,0.6-4.2,0.7-6.3c0.1,0.5,0.2,1,0.4,1.5l1.6,4.9h1.1l1.6-4.7c0.2-0.5,0.3-1.1,0.5-1.6c0,0.4,0,0.8,0.1,1.2l0.6,5.2h2
		l-1.3-9.3H19.3z"/>
	<path fill="#84282D" d="M27.8,16c-1.7,0-2.9-1.5-2.9-3.1c0-1.7,1.2-3.1,3-3.1c1.7,0,2.9,1.5,2.9,3.1C30.8,14.5,29.5,16,27.8,16
		 M27.8,8c-2.8,0-5,2-5,4.9c0,2.9,2.2,4.9,5,4.9c2.8,0,5-2.1,5-4.9C32.9,10,30.7,8,27.8,8"/>
	<path fill="#84282D" d="M40.1,13.4c0,0.4,0,0.8,0,1.2c-0.2-0.3-0.4-0.5-0.5-0.8l-4.1-5.6h-2v9.3h2v-4.8c0-0.5,0-1-0.1-1.5
		c0.2,0.3,0.4,0.5,0.5,0.8l4.1,5.5h2V8.2h-2V13.4z"/>
	<path fill="#84282D" d="M45.9,13.9c0.4-1.2,0.8-2.4,1-3.7c0.1,0.4,0.2,0.9,0.3,1.3l0.7,2.3H45.9z M45.9,8.2l-3.3,9.3h2.1l0.6-2h3.2
		l0.6,2h2L48,8.2H45.9z"/>
</g>
<rect x="52" y="8.2" fill="#84282D" width="2" height="9.3"/>
<g>
	<path fill="#84282D" d="M58.7,15.8h-0.9V9.9h0.9c1.7,0,2.8,1.3,2.8,3C61.5,14.6,60.4,15.8,58.7,15.8 M61.5,8.8
		c-0.9-0.5-1.8-0.6-2.8-0.6h-2.9v9.3h2.8c1,0,2.1-0.2,3-0.7c1.3-0.8,1.9-2.4,1.9-3.9C63.5,11.3,62.8,9.6,61.5,8.8"/>
</g>
<polygon fill="#84282D" points="64.6,1.7 64.6,5.3 61,5.3 61,7.2 64.6,7.2 64.6,10.8 66.5,10.8 66.5,7.2 70.1,7.2 70.1,5.3 
	66.5,5.3 66.5,1.7 "/>
<g>
	<path fill="#84282D" d="M39.2,1.4h-0.5v0.5h0.5V1.4z M39.2,3.1h-0.5v0.5h0.5V3.1z M36.5,1.1h0.6c0.2,0,0.3,0,0.4,0.1
		c0.1,0.1,0.1,0.2,0.1,0.3c0,0.2,0,0.3-0.1,0.3C37.4,2,37.2,2,37,2h-0.6V1.1z M37.1,2.4c0.1,0,0.3,0,0.4,0.1
		c0.1,0.1,0.1,0.2,0.1,0.4v0.2c0,0.1,0,0.2,0,0.3c0,0.1,0.1,0.2,0.1,0.2h0.5v0c-0.1,0-0.1-0.1-0.1-0.2c0-0.1,0-0.2,0-0.2V2.9
		c0-0.2,0-0.3-0.1-0.4c-0.1-0.1-0.2-0.2-0.4-0.3C37.8,2.1,37.9,2,38,1.9c0.1-0.1,0.1-0.2,0.1-0.4c0-0.3-0.1-0.5-0.3-0.6
		c-0.2-0.1-0.4-0.2-0.8-0.2H36v2.9h0.5V2.4H37.1z M35.4,1.9h-1.3V1.1h1.5V0.7h-1.9v2.9h2V3.2h-1.5V2.3h1.3V1.9z M33,0.7h-0.5v2.1
		l0,0l-1.3-2.1h-0.5v2.9h0.5V1.5l0,0l1.3,2.1H33V0.7z M30.4,0.7h-2.2v0.4H29v2.5h0.5V1.1h0.9V0.7z M26.2,1.1h0.6
		c0.2,0,0.3,0,0.4,0.1c0.1,0.1,0.1,0.2,0.1,0.3c0,0.2,0,0.3-0.1,0.3C27.1,2,27,2,26.8,2h-0.6V1.1z M26.9,2.4c0.1,0,0.3,0,0.4,0.1
		c0.1,0.1,0.1,0.2,0.1,0.4v0.2c0,0.1,0,0.2,0,0.3c0,0.1,0,0.2,0.1,0.2H28v0c-0.1,0-0.1-0.1-0.1-0.2c0-0.1,0-0.2,0-0.2V2.9
		c0-0.2,0-0.3-0.1-0.4c-0.1-0.1-0.2-0.2-0.4-0.3c0.1-0.1,0.3-0.2,0.3-0.3c0.1-0.1,0.1-0.2,0.1-0.4c0-0.3-0.1-0.5-0.3-0.6
		c-0.2-0.1-0.4-0.2-0.8-0.2h-1.1v2.9h0.5V2.4H26.9z M24.1,1.3L24.1,1.3l0.4,1.2h-0.9L24.1,1.3z M24.9,3.6h0.5l-1.1-2.9h-0.5
		l-1.1,2.9h0.5l0.2-0.7h1.1L24.9,3.6z M21.3,1.1H22c0.2,0,0.3,0,0.4,0.1c0.1,0.1,0.1,0.2,0.1,0.4c0,0.1,0,0.3-0.1,0.4
		c-0.1,0.1-0.2,0.1-0.4,0.1h-0.6V1.1z M22,2.5c0.3,0,0.6-0.1,0.8-0.2C22.9,2.1,23,1.9,23,1.6c0-0.3-0.1-0.5-0.3-0.7
		c-0.2-0.2-0.4-0.2-0.8-0.2h-1.1v2.9h0.5V2.5H22z M20.2,1.9H19V1.1h1.5V0.7h-1.9v2.9h2V3.2H19V2.3h1.3V1.9z M17.6,3.6h0.6L17,2.1
		l1.1-1.4h-0.6l-0.9,1.2h-0.3V0.7h-0.5v2.9h0.5V2.3h0.3L17.6,3.6z M15.2,0.7h-0.5v2.1l0,0l-1.3-2.1h-0.5v2.9h0.5V1.5l0,0l1.3,2.1
		h0.5V0.7z M11.1,0h-0.5v0.4h0.5V0z M12,0h-0.5v0.4H12V0z M11.3,1.3L11.3,1.3l0.4,1.2h-0.9L11.3,1.3z M12.1,3.6h0.5l-1.1-2.9h-0.5
		L10,3.6h0.5l0.2-0.7h1.1L12.1,3.6z M8.1,1.1h0.6c0.2,0,0.3,0,0.4,0.1c0.1,0.1,0.1,0.2,0.1,0.3c0,0.2,0,0.3-0.1,0.3C9,2,8.9,2,8.7,2
		H8.1V1.1z M8.7,2.4c0.1,0,0.3,0,0.4,0.1c0.1,0.1,0.1,0.2,0.1,0.4v0.2c0,0.1,0,0.2,0,0.3c0,0.1,0,0.2,0.1,0.2h0.5v0
		c-0.1,0-0.1-0.1-0.1-0.2c0-0.1,0-0.2,0-0.2V2.9c0-0.2,0-0.3-0.1-0.4C9.5,2.3,9.4,2.2,9.2,2.2C9.4,2.1,9.5,2,9.6,1.9
		c0.1-0.1,0.1-0.2,0.1-0.4c0-0.3-0.1-0.5-0.3-0.6C9.3,0.8,9,0.7,8.7,0.7H7.6v2.9h0.5V2.4H8.7z M7.2,0.7H5v0.4h0.9v2.5h0.5V1.1h0.9
		V0.7z M4.6,1.9H3.3V1.1h1.5V0.7H2.9v2.9h2V3.2H3.3V2.3h1.3V1.9z M2.3,2.1H1.2v0.4h0.6v0.6c0,0-0.1,0.1-0.2,0.1S1.4,3.2,1.2,3.2
		C1,3.2,0.8,3.2,0.7,3C0.5,2.9,0.5,2.7,0.5,2.4V1.8c0-0.2,0.1-0.4,0.2-0.6C0.8,1.1,0.9,1,1.2,1c0.2,0,0.3,0,0.4,0.1
		c0.1,0.1,0.2,0.2,0.2,0.4h0.5l0,0c0-0.3-0.1-0.5-0.3-0.7C1.8,0.7,1.5,0.7,1.1,0.7C0.8,0.7,0.5,0.8,0.3,1C0.1,1.2,0,1.5,0,1.8v0.6
		c0,0.3,0.1,0.6,0.3,0.9c0.2,0.2,0.5,0.3,0.9,0.3c0.3,0,0.5,0,0.7-0.1c0.2-0.1,0.3-0.2,0.4-0.3V2.1z"/>
</g>
</svg>
