<?xml version="1.0" encoding="utf-8"?>
<!-- Generator: Adobe Illustrator 16.0.0, SVG Export Plug-In . SVG Version: 6.00 Build 0)  -->
<!DOCTYPE svg PUBLIC "-//W3C//DTD SVG 1.1//EN" "http://www.w3.org/Graphics/SVG/1.1/DTD/svg11.dtd">
<svg version="1.1" id="Ebene_1" xmlns="http://www.w3.org/2000/svg" xmlns:xlink="http://www.w3.org/1999/xlink" x="0px" y="0px"
	 width="177.166px" height="77.952px" viewBox="0 0 177.166 77.952" enable-background="new 0 0 177.166 77.952"
	 xml:space="preserve">
<rect x="-200.531" y="111.496" fill="none" width="177.166" height="77.951"/>
<path fill="#155C39" d="M122.345,152.248h1.531c0.854,0,1.814,0.165,1.814,1.23c0,1.156-1.109,1.187-1.965,1.187h-1.381V152.248z
	 M120.007,160.888h2.338v-4.245h1.154l2.223,4.245h2.803l-2.697-4.485c1.498-0.27,2.293-1.423,2.293-2.909
	c0-2.475-1.83-3.224-4.004-3.224h-4.109V160.888z M109.968,160.888h7.484v-2.158h-5.146v-2.177h4.605v-2.158h-4.605v-1.967h4.875
	v-2.158h-7.213V160.888z M107.085,150.27h-2.338v6.436c0,1.305-0.9,2.295-2.131,2.295c-1.246,0-2.146-0.99-2.146-2.295v-6.436
	h-2.338v6.525c0,2.505,1.529,4.362,4.484,4.362c2.939,0,4.469-1.857,4.469-4.362V150.27z M92.591,156.659h-2.595l1.29-3.3
	L92.591,156.659z M85.797,160.888h2.579l0.885-2.25h4.125l0.914,2.25h2.641l-4.619-10.618h-1.936L85.797,160.888z M84.468,154.59
	h-4.153v2.158h1.905v1.726c-0.436,0.241-1.186,0.526-2.205,0.526c-1.996,0-3.303-1.441-3.303-3.421c0-1.98,1.307-3.422,3.303-3.422
	c1.185,0,1.949,0.346,2.58,1.007l1.648-1.801C83.18,150.375,81.694,150,80.015,150c-3.317,0-5.73,2.173-5.73,5.579
	c0,3.405,2.413,5.578,5.73,5.578c1.56,0,3.074-0.3,4.453-1.019V154.59z M66.586,152.248h1.531c0.854,0,1.816,0.165,1.816,1.23
	c0,1.156-1.111,1.187-1.967,1.187h-1.381V152.248z M64.248,160.888h2.338v-4.245h1.156l2.221,4.245h2.804l-2.698-4.485
	c1.499-0.27,2.293-1.423,2.293-2.909c0-2.475-1.829-3.224-4.005-3.224h-4.108V160.888z M58.119,156.659h-2.595l1.29-3.3
	L58.119,156.659z M51.325,160.888h2.58l0.885-2.25h4.124l0.915,2.25h2.64l-4.62-10.618h-1.934L51.325,160.888z M45.733,156.659
	h-2.595l1.29-3.3L45.733,156.659z M38.939,160.888h2.58l0.885-2.25h4.125l0.914,2.25h2.64l-4.619-10.618h-1.935L38.939,160.888z
	 M133.827,185.696h2.34v-8.146h0.029l2.686,8.146h1.785l2.791-8.146h0.029v8.146h2.338v-10.618h-3.523l-2.459,6.928h-0.031
	l-2.445-6.928h-3.539V185.696z M130.989,175.078h-2.338v6.435c0,1.305-0.9,2.295-2.131,2.295c-1.246,0-2.146-0.99-2.146-2.295
	v-6.435h-2.338v6.524c0,2.505,1.529,4.363,4.484,4.363c2.939,0,4.469-1.858,4.469-4.363V175.078z M116.653,185.696h2.338v-10.618
	h-2.338V185.696z M108.239,177.056h1.531c0.857,0,1.816,0.165,1.816,1.231c0,1.155-1.109,1.186-1.965,1.186h-1.383V177.056z
	 M105.901,185.696h2.338v-4.245h1.156l2.221,4.245h2.805l-2.699-4.485c1.5-0.271,2.293-1.423,2.293-2.909
	c0-2.475-1.828-3.224-4.004-3.224h-4.109V185.696z M94.555,180.387c0-1.98,1.306-3.421,3.302-3.421c1.994,0,3.299,1.44,3.299,3.421
	s-1.305,3.421-3.299,3.421C95.86,183.808,94.555,182.367,94.555,180.387 M92.126,180.387c0,3.406,2.414,5.579,5.73,5.579
	c3.314,0,5.729-2.173,5.729-5.579s-2.414-5.579-5.729-5.579C94.54,174.808,92.126,176.98,92.126,180.387 M85.378,185.696h2.338
	v-8.551h3.03v-2.067h-8.398v2.067h3.03V185.696z M78.623,181.468h-2.595l1.29-3.3L78.623,181.468z M71.829,185.696h2.579l0.885-2.25
	h4.124l0.915,2.25h2.64l-4.618-10.618h-1.936L71.829,185.696z M64.396,177.056h1.531c0.855,0,1.815,0.165,1.815,1.231
	c0,1.155-1.109,1.186-1.966,1.186h-1.381V177.056z M62.059,185.696h2.338v-4.245h1.156l2.221,4.245h2.804l-2.698-4.485
	c1.499-0.271,2.293-1.423,2.293-2.909c0-2.475-1.828-3.224-4.004-3.224h-4.109V185.696z M59.521,175.078h-2.338v6.435
	c0,1.305-0.901,2.295-2.131,2.295c-1.246,0-2.146-0.99-2.146-2.295v-6.435h-2.338v6.524c0,2.505,1.529,4.363,4.484,4.363
	c2.939,0,4.469-1.858,4.469-4.363V175.078z M39.491,185.696h2.339v-5.039l4.319,5.039h3.271l-5.13-5.685l4.725-4.934h-3.06
	l-4.125,4.409v-4.409h-2.339V185.696z M25.345,171.518c1.957,0,3.543-1.587,3.543-3.544c0-1.956-1.586-3.544-3.543-3.544
	s-3.543,1.588-3.543,3.544C21.802,169.931,23.388,171.518,25.345,171.518 M39.518,171.518c1.957,0,3.543-1.587,3.543-3.544
	c0-1.956-1.586-3.544-3.543-3.544s-3.543,1.588-3.543,3.544C35.975,169.931,37.561,171.518,39.518,171.518 M82.037,171.518
	c1.957,0,3.543-1.587,3.543-3.544c0-1.956-1.586-3.544-3.543-3.544s-3.543,1.588-3.543,3.544
	C78.494,169.931,80.08,171.518,82.037,171.518 M110.374,171.518c1.957,0,3.543-1.587,3.543-3.544c0-1.956-1.586-3.544-3.543-3.544
	s-3.543,1.588-3.543,3.544C106.831,169.931,108.417,171.518,110.374,171.518 M145.817,171.518c1.957,0,3.543-1.587,3.543-3.544
	c0-1.956-1.586-3.544-3.543-3.544s-3.543,1.588-3.543,3.544C142.274,169.931,143.86,171.518,145.817,171.518"/>
<g>
	<text transform="matrix(1 0 0 1 174.1523 142.9727)" fill="#145C38" font-family="'GillSans-Light'" font-size="10.7336">B</text>
	
		<text transform="matrix(1 0 0 1 181.4648 142.9727)" fill="#145C38" font-family="'Frutiger-Roman'" font-size="5.37" letter-spacing="1">EW</text>
	
		<text transform="matrix(1 0 0 1 192.7559 142.9727)" fill="#145C38" font-family="'Frutiger-Roman'" font-size="5.37" letter-spacing="1">EG</text>
	
		<text transform="matrix(1 0 0 1 202.7109 142.9727)" fill="#145C38" font-family="'Frutiger-Roman'" font-size="5.37" letter-spacing="1">UNG</text>
	<text transform="matrix(1 0 0 1 220 142.9727)" fill="#145C38" font-family="'Frutiger-Roman'" font-size="5.37">S</text>
	<text transform="matrix(1 0 0 1 224.8691 142.9727)" fill="#145C38" font-family="'GillSans-Light'" font-size="10.7336">R</text>
	
		<text transform="matrix(1 0 0 1 233.1719 142.9727)" fill="#145C38" font-family="'Frutiger-Roman'" font-size="5.37" letter-spacing="1">ÄUME</text>
	<text transform="matrix(1 0 0 1 275.5586 142.9727)" fill="#145C38" font-family="'GillSans-Light'" font-size="10.7336">B</text>
	
		<text transform="matrix(1 0 0 1 285.0117 142.9727)" fill="#145C38" font-family="'Frutiger-Roman'" font-size="5.37" letter-spacing="3">RUGG</text>
	<path fill="none" stroke="#145C38" stroke-width="0.4698" stroke-miterlimit="10" d="M174.508,108.697l34.117,21.975
		 M225.129,108.697l34.353,21.975 M276.067,108.697l33.959,21.975 M208.625,130.672v3.414"/>
	<path fill="none" stroke="#145C38" stroke-width="1.8793" stroke-miterlimit="10" d="M174.984,108.538v25.548 M225.682,108.455
		v25.631 M276.462,108.455v25.631"/>
	<path fill="none" stroke="#145C38" stroke-width="0.4698" stroke-miterlimit="10" d="M259.481,130.672v3.49 M310.026,130.672v3.414
		"/>
	<path fill="none" stroke="#145C38" stroke-width="1.8793" stroke-miterlimit="10" d="M174.984,135.674v7.299 M225.682,142.973
		v-7.299 M276.462,135.75v7.223"/>
	<path fill-rule="evenodd" clip-rule="evenodd" fill="#FFFFFF" d="M174.045,106.578l2.484,1.614l-0.676,1.043l-2.486-1.614
		L174.045,106.578z M310.577,167.982"/>
	<path fill-rule="evenodd" clip-rule="evenodd" fill="#FFFFFF" d="M275.837,106.732l2.854,1.854l-0.678,1.043l-2.854-1.854
		L275.837,106.732z M310.577,167.982"/>
	<path fill-rule="evenodd" clip-rule="evenodd" fill="#FFFFFF" d="M225.389,107.045l2.742,1.779l-0.676,1.038l-2.74-1.78
		L225.389,107.045z M310.577,167.982"/>
	<path fill="none" stroke="#145C38" stroke-width="0.4698" stroke-miterlimit="10" d="M259.563,134.004h16.98 M208.625,133.928
		h17.057"/>
	<path fill-rule="evenodd" clip-rule="evenodd" fill="#FFFFFF" d="M172.303,135.453l7.701-5.002l1.059,1.629l-7.703,5.002
		L172.303,135.453z M310.577,167.982"/>
	<path fill-rule="evenodd" clip-rule="evenodd" fill="#FFFFFF" d="M223.635,135.176l7.336-4.764l0.969,1.49l-7.336,4.764
		L223.635,135.176z M310.577,167.982"/>
	<path fill-rule="evenodd" clip-rule="evenodd" fill="#FFFFFF" d="M273.14,135.945l8.697-5.648l1.023,1.576l-8.699,5.648
		L273.14,135.945z M310.577,167.982"/>
</g>
<g>
	<rect x="-206.333" y="-25.502" fill="#FFFFFF" width="74.464" height="64.601"/>
	<rect x="-206.333" y="-21.277" fill="#127744" width="74.464" height="60.376"/>
	<path fill="#FFFFFF" d="M-166.494,10.392c-0.149-0.522-0.273-0.993-1.07-1.765c-0.447-0.396-1.392-1.217-3.032-1.217
		c-0.573,0-1.02,0.098-1.219,0.174c-1.393,0.373-2.163,1.244-2.46,1.691c-0.225,0.346-0.348,0.748-0.473,1.116H-166.494z
		 M-174.898,12.758c0.159,0.904,0.818,3.409,4.86,3.517c5.415,0.146,7.293-2.133,7.923-3c0-0.043,0.006-8.107,0-8.107h2.608
		l0.007,8.802c-2.309,3.365-5.587,4.733-9.896,4.716c-7.82-0.025-8.087-5.854-8.087-6.922c0-0.474,0.049-1.52,0.546-2.662
		c1.119-2.585,3.631-4.151,6.366-4.151c0.447,0,1.392,0.022,2.436,0.445c2.188,0.871,3.905,2.91,4.277,5.223
		c0.1,0.722,0.04,1.409-0.012,2.133L-174.898,12.758z"/>
	<polygon fill="#FFFFFF" points="-181.922,9.803 -189.849,18.401 -191.555,18.401 -191.555,9.711 -199.567,18.401 -202.892,18.401 
		-190.637,5.137 -188.939,5.129 -188.936,13.804 -180.94,5.137 -179.304,5.135 -179.304,18.401 -181.922,18.401 	"/>
	<g>
		<path fill="#158F4E" d="M-184.975-4.489c0,0-0.622-5.614,2.697-9.43c3.319-3.818,7.732-6.638,11.645-8.144
			c3.914-1.503,13.473-3.998,18.831-0.208c0,0,2.882,3.03,3.102,3.299c0.224,0.27,0.733,1.138,0.733,1.138l0.253,0.965
			c0,0-0.582-0.131-0.566,0.217c0.019,0.35,0.831,1.397,0.831,1.397l-0.15,0.53c0,0-1.01,0.447-0.681,1.917
			c0,0,0.148,1.301-0.122,1.523c0,0-1.509,0.227-1.507,1.466c0.005,1.241,0.131,0.956,0.131,0.956s0.037,0.399-0.511,0.668
			c-0.546,0.27-1.025,0.099-1.025,0.099s-1.01,1.217-0.985,1.739c0.023,0.523,0.162,0.884-1.204,1.173
			c-1.367,0.29-1.565,0.542-1.677,1.175c-0.11,0.633-0.321,1.011-0.764,1.238c-0.444,0.231-0.848-0.206-1.434-0.04
			c-0.586,0.168-1.351,0.639-1.655,1.23c-0.305,0.588-1.03,1.163-1.481,1.218c-0.452,0.056-1.325-0.673-2.535,0.326l-0.329,0.835
			l-1.318,0.567c0,0-0.943-0.762-1.703-0.589c-0.761,0.175-2.083,1.039-2.083,1.039s-0.024,0.246-0.659,0.133
			c-0.633-0.108-1.346-0.358-1.92-0.312c-0.575,0.042-1.472,0.556-1.472,0.556s-0.746,0.224-1.02-0.024
			c-0.272-0.25-0.557-0.848-1.429-0.808c-0.871,0.039-1.317,0.567-1.317,0.567s-0.976,0.079-1.3-0.92
			c-0.324-0.998-1.386-0.531-1.992-0.415c-0.557,0.104-0.983,0.803-1.426-0.634c-0.471-1.534-0.958-1.113-1.48-1.087
			c-0.522,0.025-0.963-0.042-0.946-1.23c0.014-1.189-0.571-1.022-0.718-0.789l-0.147,0.233
			C-184.312-2.915-184.948-3.494-184.975-4.489"/>
		<path fill="#0E4728" d="M-183.926-10.981c0,0-1.032,4.721,4.1,6.048c2.789,0.722,7.567,0.614,14.936-2.197
			c5.929-2.264,9.433-4.754,11.371-6.854c4.273-4.63,1.187-8.041,1.395-7.747c4.906,6.918-4.73,13.367-12.082,16.229
			C-175.618-1.056-186.648-2.843-183.926-10.981"/>
		<path fill="#0E4728" d="M-183.773-11.354c0,0,2.882-6.367,13.519-10.457c10.343-3.979,16.786-1.931,18.148-0.625
			c0.038,0.035,0.072,0.071,0.103,0.107c1.104,1.291-3.22-5.854-18.449,0.002C-182.198-17.81-183.773-11.354-183.773-11.354"/>
		<path fill="#FFFFFF" d="M-151.127-18.983c0,0,0.721,3.563-4.535,7.418c0,0-1.541,1.833-0.302,1.062
			C-154.724-11.277-150.085-14.892-151.127-18.983"/>
		<path fill="#0E4728" d="M-184.604-9.362c0,0-0.595,3.836-0.372,4.873c0,0-0.106,0.509,0.135,0.83c0,0,0.129,0.781,0.514,1.164
			c0,0,0.076-0.265,0.385-0.381c0,0,0.443,0.537,0.507,1.162c0.063,0.627,0.189,0.593,0.439,0.838
			c0.148,0.142,0.458,0.024,0.653-0.158c0.306-0.288,0.792,0.074,1.062,0.62c0.269,0.546,0.233,0.915,0.486,1.113
			c0.254,0.197,0.979,0.392,0.979,0.392s0.641-0.484,0.99-0.499c0.349-0.016,0.982,0.095,1.078,0.648
			c0.094,0.556,0.308,0.649,0.768,0.769c0.46,0.12,0.725,0.195,0.973-0.078c0.251-0.274,0.829-0.616,1.289-0.495
			c0.459,0.117,1.058,0.596,1.137,0.803c0.079,0.205,0.274,0.25,0.642,0.284c0.368,0.038,0.562,0.08,0.708-0.155
			c0.146-0.233,0.512-0.667,1.157-0.68c0.646-0.011,0.872-0.038,1.418,0.461c0,0,0.008,0.173,0.458,0.118
			c0.452-0.055,0.987-0.202,0.987-0.202s0.063-0.142,0.448-0.528c0,0,0.383-0.382,0.918-0.529c0.536-0.147,1.168-0.037,1.44,0.215
			c0.275,0.249,0.223,0.268,0.707,0.144c0.482-0.128,1.101-0.365,1.318-0.567c0.219-0.202,0.329-0.835,0.896-1.053
			c0.565-0.218,1.078-0.121,1.608,0.03c0.531,0.151,0.645-0.013,1.036-0.223c0.394-0.21,0.56-0.391,0.841-0.735
			c0.281-0.346,0.206-0.848,0.784-1.188c0.579-0.34,1.592-0.317,1.858-0.241c0.265,0.075,0.213,0.095,0.739-0.228
			c0.528-0.319,0.477-0.299,0.48-0.596c0.004-0.298,0.095-0.983,0.744-1.292c0.649-0.308,1.038-0.222,1.398-0.36
			c0.361-0.139,0.722-0.277,0.807-0.664c0.089-0.389,0.067-1.208,0.42-1.522c0.354-0.313,0.776-0.591,1.146-0.558
			c0.368,0.037,0.398-0.033,0.711-0.45c0.313-0.418,0.5-0.548,0.382-0.856c-0.119-0.309-0.487-1.112,0.051-1.557
			c0.539-0.444,0.733-0.4,1.121-0.313c0,0,0.392-0.209,0.419-0.753l0.029-0.541c0,0-0.544-0.797-0.318-1.594
			c0.227-0.794,0.889-0.459,0.889-0.459s0.194-0.725,0.114-0.931c0,0-0.554-0.673-0.629-1.175c-0.074-0.504,0.533-0.147,0.533-0.147
			s-0.653-1.699-1.075-2.186c-0.424-0.488-2.863-3.45-3.73-3.71c0,0,1.173,1.206,1.519,2.108c0,0,1.665,1.103,2.348,2.257
			l0.478,0.939c0,0-1.037-1.314-2.023-1.88c-0.986-0.567-0.084,0.092,0.056,0.45c0.138,0.362,0.709,1.383,0.709,1.383
			s-0.683-0.388-0.947-0.464c-0.266-0.076-0.187,0.131,0.139,0.36c0.324,0.231,1.684,1.304,2.017,1.709
			c0.331,0.403,0.231,0.915,0.231,0.915s-1.417-1.998-2.542-1.386c0,0-0.305,0.59,0.236,1.386l-0.731-0.37
			c0,0-0.246-0.022,0.067,0.33c0.312,0.353,1.874,1.644,2.15,2.364c0,0-0.032,0.839-0.186,0.899
			c-0.153,0.059-1.624-1.917-2.443-1.897c-0.821,0.02-0.123,1.525-0.006,1.833c0.121,0.31,0.56,1.146,0.56,1.146
			s-1.263-1.288-1.826-1.368c0,0,0.306,0.179,0.749,0.716c0.443,0.542,0.425,0.488,1.55,2.183c0.154,0.236-0.08,0.563-0.268,0.692
			c-0.186,0.134-1.416-1.226-2.138-1.718c-0.722-0.491-1.354-0.602-1.319,0.567c0.035,1.167,0.257,1.436,0.257,1.436
			s-1.233-1.666-1.464-1.503c-0.187,0.129,0.665,0.807,1.892,2.462c0,0,0.575,0.724,0.509,1.165
			c-0.069,0.438-0.437,0.402-0.632,0.361c-0.193-0.043-2.313-3.249-3.254-2.473c-0.944,0.776,0.1,2.564,0.1,2.564
			s-0.616-1.599-1.301-1.688c0,0-0.036-0.13,0.793,1.29c1.04,1.787,1.207,2.374,1.207,2.374s-0.022,0.244-0.436,0.404
			c-0.413,0.157-1.422-2.468-3.016-2.623c-1.599-0.155-0.639,3.259-0.639,3.259s-1.225-2.72-1.419-2.765
			c-0.194-0.043-0.257,0.1-0.1,0.51c0.16,0.413,1.405,3.657,1.405,3.657s-0.139,0.408-0.855,0.389c0,0-1.606-3.874-2.94-2.885
			c0,0-0.9,0.579,0.081,3.748c0,0,0.159,0.412-0.653,0.607l-0.277,0.047c0,0-1.445-3.761-1.79-4.042c0,0,0.224,1.04,0.456,1.955
			c0,0-1.343-1.494-2.166-1.179c-0.824,0.319-0.935,1.72-0.496,4.092c0,0-0.186,0.13-0.659,0.134c0,0-0.582-1.666-0.945-3.535
			c-0.137-0.704-0.111-0.904-0.111-0.904s-0.072,1.505,0.083,2.214c0,0-0.696-1.507-1.561-1.292
			c-0.863,0.214-0.958,1.963-0.783,3.494c0,0-0.146,0.232-0.495,0.249c-0.348,0.016-0.658-2.171-0.839-3.875l-0.057-0.45
			c0,0-0.161,1.42-0.098,2.046c0.063,0.626-0.277-1.488-1.458-1.331c-1.179,0.158-0.961,3.029-0.961,3.029s-0.571,0.516-0.808-0.101
			c-0.238-0.618-0.322-2.833-0.242-3.395l-0.35,0.785c0,0-0.673-0.982-1.223-1.184c-0.55-0.202-0.733,0.399-0.835,2.744
			c0,0-0.603,0.584-0.951-0.167c0,0,0-2.304,0.059-2.919c0.06-0.615,0.017-1.189-0.154-0.708c-0.171,0.479-0.167,0.949-0.167,0.949
			s-0.506-1.163-0.907-1.13c-0.4,0.037-0.831,0.91-0.899,2.12c0,0-0.431,0.107-0.404-0.437c0.028-0.542,0.166-2.485,0.166-2.485
			l-0.249,0.273c0,0-0.068-1.099-0.412-1.381c-0.344-0.28-0.61,1.951-0.607,2.423c0,0-0.423-0.487-0.367-1.575
			c0.055-1.083,0.229-3.398,0.229-3.398S-184.793-8.933-184.604-9.362"/>
		<path fill="#127744" d="M-182.311-1.556c0,0,0.234-1.388,0.591-1.23c0.355,0.157,0.625,1.474,0.657,2.17
			C-181.063-0.616-181.981-1.622-182.311-1.556"/>
		<path fill="#127744" d="M-179.118,0.29c0,0-0.009-0.943,0.241-1.215c0.25-0.273,0.575-0.043,0.768,0.769l0.063,0.624
			C-178.045,0.468-178.595,0.267-179.118,0.29"/>
		<path fill="#127744" d="M-175.475,1.313c0,0-0.229-1.21,0.531-1.385c0.761-0.173,1.081,1.12,1.169,1.501
			C-173.688,1.808-174.516,0.885-175.475,1.313"/>
		<path fill="#127744" d="M-171.759,1.598c0,0-0.294-1.837,0.446-2.061c0.742-0.227,1.696,1.947,1.673,2.191
			C-169.64,1.728-170.769,1.098-171.759,1.598"/>
		<path fill="#127744" d="M-168.038,1.29c0,0-0.355-1.694,0.43-2.114c0.784-0.42,1.6,1.393,1.6,1.393S-167.518,0.795-168.038,1.29"
			/>
		<path fill="#127744" d="M-163.05-0.035c0,0-0.194-0.814-0.177-1.233c0,0-0.229-0.739,0.391-0.979
			c0.414-0.159,1.383,0.829,1.383,0.829l-0.551-0.202c0,0,0.504,0.693,0.479,0.939C-161.526-0.682-162.345-0.664-163.05-0.035"/>
		<path fill="#127744" d="M-158.872-2.234c0,0-0.574-1.493-0.056-1.99c0.52-0.494,1.542,0.472,2.043,1.164
			C-156.884-3.06-158.444-2.813-158.872-2.234"/>
		<path fill="#127744" d="M-155.438-3.908c0,0,0.487-1.193,1.422-1.376c0,0-1.205-1.131-1.615-0.974
			C-156.043-6.098-155.971-5.299-155.438-3.908"/>
		<path fill="#127744" d="M-152.452-6.594c0,0,0.428-1.347,1.137-1.502c0,0-0.859-0.851-1.385-0.53
			C-153.228-8.307-152.634-6.761-152.452-6.594"/>
		<path fill="#127744" d="M-150.047-10.178c0,0-0.7-1.208-0.336-1.644c0.364-0.436,1.142,0.507,1.142,0.507
			S-149.999-10.67-150.047-10.178"/>
		<path fill="#127744" d="M-148.492-13.201c0,0-0.161-0.883,0.274-1.286c0,0-0.819-0.75-1.108-0.58
			C-149.615-14.896-148.732-13.522-148.492-13.201"/>
	</g>
	<path fill="#FFFFFF" d="M-146.868,10.48c-0.148-0.524-0.273-0.996-1.069-1.769c-0.447-0.396-1.391-1.216-3.034-1.216
		c-0.571,0-1.018,0.1-1.216,0.173c-1.394,0.376-2.165,1.245-2.463,1.693c-0.225,0.346-0.35,0.746-0.474,1.118H-146.868z
		 M-155.272,12.842c0.159,0.907,0.816,3.409,4.859,3.52c5.414,0.145,7.294-2.134,7.923-3.001c0-0.042,0.005-8.108,0-8.108h2.608
		l0.001,1.127c0,0,0.988-1.463,3.621-1.549c0,0.016-0.035,2.514-0.035,2.514s-3.546-0.482-3.582,3.684
		c0.002,0.824,0.002,3.028,0.002,3.028c-2.31,3.364-5.588,4.732-9.898,4.718c-7.817-0.03-8.086-5.855-8.086-6.925
		c0-0.474,0.051-1.519,0.547-2.66c1.12-2.587,3.632-4.153,6.368-4.153c0.446,0,1.391,0.023,2.436,0.445
		c2.188,0.872,3.904,2.91,4.277,5.223c0.098,0.725,0.039,1.409-0.012,2.135L-155.272,12.842z"/>
	<path fill="#62B87A" d="M-197.724,28.844c-0.618,0.303-1.417,0.477-2.219,0.477c-2.001,0-3.114-1.217-3.114-2.835
		c0-1.732,1.288-3.046,3.28-3.046c0.679,0,1.227,0.104,1.73,0.271v1.227c-0.478-0.226-0.999-0.391-1.625-0.391
		c-1.306,0-1.966,0.763-1.966,1.869c0,1.069,0.626,1.8,1.766,1.8c0.322,0,0.618-0.043,0.818-0.12v-1.698h1.331V28.844z"/>
	<polygon fill="#62B87A" points="-195.475,23.5 -192.029,23.5 -192.368,24.625 -194.144,24.625 -194.144,25.78 -192.343,25.78 
		-192.343,26.9 -194.144,26.9 -194.144,28.113 -192.046,28.113 -192.046,29.234 -195.475,29.234 	"/>
	<polygon fill="#62B87A" points="-188.737,24.625 -190.417,24.625 -190.417,23.5 -185.597,23.5 -185.936,24.625 -187.406,24.625 
		-187.406,29.234 -188.737,29.234 	"/>
	<path fill="#62B87A" d="M-182.195,26.066c0.243,0,0.392-0.043,0.523-0.111c0.209-0.124,0.347-0.34,0.347-0.639
		c0-0.284-0.148-0.537-0.4-0.66c-0.112-0.051-0.243-0.086-0.461-0.086h-0.426v1.496H-182.195z M-183.944,23.5h1.845
		c0.496,0,0.878,0.069,1.182,0.191c0.705,0.29,0.976,0.862,0.976,1.498c0,0.738-0.486,1.261-1.097,1.449v0.019
		c0.174,0.105,0.436,0.409,0.732,0.951l0.905,1.626h-1.515l-0.696-1.305c-0.295-0.558-0.486-0.767-0.617-0.793h-0.383v2.098h-1.332
		V23.5z"/>
	<path fill="#62B87A" d="M-174.898,22.526c0-0.357,0.287-0.643,0.635-0.643s0.636,0.285,0.636,0.643s-0.287,0.643-0.636,0.643
		S-174.898,22.884-174.898,22.526 M-174.584,26.805l-0.271-0.79c-0.13-0.389-0.2-0.633-0.243-0.817h-0.017
		c-0.043,0.19-0.123,0.437-0.27,0.826l-0.288,0.781H-174.584z M-176.629,22.526c0-0.357,0.287-0.643,0.635-0.643
		c0.347,0,0.634,0.285,0.634,0.643s-0.287,0.643-0.634,0.643C-176.342,23.169-176.629,22.884-176.629,22.526 M-175.681,23.476h1.097
		l2.374,5.759h-1.426l-0.548-1.364h-1.862l-0.522,1.364h-1.367L-175.681,23.476z"/>
	<path fill="#62B87A" d="M-166.377,29.234l-2.305-3.02c-0.182-0.236-0.347-0.461-0.54-0.714h-0.017
		c0.025,0.193,0.025,0.574,0.025,0.818v2.915h-1.331V23.5h1.331l2.227,2.896c0.184,0.236,0.35,0.454,0.515,0.697h0.017
		c-0.017-0.294-0.017-0.713-0.017-0.941V23.5h1.33v5.734H-166.377z"/>
	<polygon fill="#62B87A" points="-162.815,23.5 -161.483,23.5 -161.483,25.813 -161.458,25.813 -159.639,23.5 -158.125,23.5 
		-160.371,26.24 -158.012,29.234 -159.605,29.234 -161.458,26.79 -161.483,26.79 -161.483,29.234 -162.815,29.234 	"/>
	<polygon fill="#62B87A" points="-156.294,23.5 -152.849,23.5 -153.19,24.625 -154.964,24.625 -154.964,25.78 -153.164,25.78 
		-153.164,26.9 -154.964,26.9 -154.964,28.113 -152.868,28.113 -152.868,29.234 -156.294,29.234 	"/>
	<path fill="#62B87A" d="M-145.091,26.805l-0.269-0.79c-0.131-0.389-0.2-0.633-0.244-0.817h-0.017
		c-0.047,0.19-0.123,0.437-0.271,0.826l-0.287,0.781H-145.091z M-146.187,23.476h1.096l2.376,5.759h-1.426l-0.549-1.364h-1.862
		l-0.523,1.364h-1.365L-146.187,23.476z"/>
	<path fill="#62B87A" d="M-136.257,28.844c-0.619,0.303-1.419,0.477-2.22,0.477c-2.001,0-3.114-1.217-3.114-2.835
		c0-1.732,1.289-3.046,3.28-3.046c0.679,0,1.226,0.104,1.731,0.271v1.227c-0.479-0.226-1-0.391-1.629-0.391
		c-1.303,0-1.965,0.763-1.965,1.869c0,1.069,0.626,1.8,1.768,1.8c0.321,0,0.616-0.043,0.816-0.12v-1.698h1.332V28.844z"/>
</g>
<g>
	<g>
		
			<image overflow="visible" width="791" height="914" xlink:href="CA17D2EB.jpg"  transform="matrix(0.0282 7.147420e-005 -7.147420e-005 0.0282 -122.8169 119.0391)">
		</image>
	</g>
	<g>
		<path fill="#165C39" d="M-149.304,167.803l0.119-0.104c0.008-0.098,0.07-0.211,0.185-0.342c0.115-0.131,0.277-0.283,0.488-0.457
			c0.131-0.096,0.27-0.188,0.415-0.275s0.283-0.182,0.415-0.287c0.552-0.471,1.086-0.922,1.602-1.355
			c0.297-0.262,0.595-0.484,0.893-0.672c0.297-0.189,0.577-0.336,0.84-0.451c0.184-0.234,0.527-0.473,1.03-0.717
			c0.503-0.242,0.911-0.363,1.226-0.363c0.122,0,0.22,0.035,0.295,0.105c0.074,0.068,0.12,0.156,0.136,0.264l-0.001,0.719
			c-0.001,0.254-0.074,0.477-0.218,0.672c-0.145,0.197-0.362,0.379-0.65,0.543c-0.192,0.086-0.385,0.182-0.577,0.287
			c-0.193,0.104-0.385,0.197-0.577,0.285c-0.07,0.088-0.256,0.252-0.558,0.488c-0.302,0.24-0.711,0.559-1.228,0.961
			c-0.236,0.182-0.434,0.344-0.591,0.488c-0.157,0.145-0.267,0.258-0.328,0.346c-0.087,0.164-0.156,0.348-0.204,0.549
			s-0.074,0.432-0.074,0.693c0,0.201,0.03,0.373,0.09,0.518c0.061,0.143,0.152,0.26,0.274,0.348
			c0.086,0.061,0.207,0.123,0.359,0.184s0.342,0.121,0.568,0.186c0.131-0.053,0.304-0.104,0.518-0.15
			c0.214-0.047,0.451-0.109,0.713-0.188c0.297-0.174,0.601-0.355,0.911-0.547s0.618-0.387,0.924-0.584
			c0.043-0.027,0.099-0.055,0.164-0.086c0.065-0.029,0.133-0.076,0.203-0.137c0.087-0.113,0.208-0.244,0.36-0.391
			c0.153-0.148,0.339-0.318,0.558-0.51c0.352,0.76,0.527,1.16,0.527,1.203c-0.323,0.262-0.652,0.527-0.984,0.803
			c-0.333,0.273-0.713,0.498-1.142,0.67c-0.139,0.113-0.258,0.219-0.354,0.314c-0.438,0.434-0.947,0.764-1.529,0.982
			c-0.581,0.221-1.243,0.33-1.985,0.328c-0.166,0-0.314-0.014-0.445-0.039c-0.131-0.025-0.241-0.063-0.328-0.105
			c-0.261-0.176-0.483-0.328-0.666-0.461c-0.192-0.139-0.354-0.273-0.484-0.398c-0.131-0.127-0.227-0.248-0.287-0.361
			c-0.079-0.123-0.133-0.271-0.163-0.445c-0.03-0.176-0.045-0.389-0.044-0.641c0-0.07,0.022-0.184,0.066-0.34
			c0.044-0.158,0.067-0.268,0.067-0.328c-0.062-0.191-0.136-0.387-0.224-0.588C-149.088,168.217-149.189,168.012-149.304,167.803z"
			/>
		<path fill="#165C39" d="M-141.043,167.822c0.035-0.025,0.07-0.063,0.105-0.111c0.036-0.049,0.075-0.123,0.119-0.227
			c0.053-0.088,0.127-0.182,0.224-0.283c0.097-0.1,0.21-0.211,0.343-0.334c0.246-0.199,0.467-0.451,0.665-0.752
			c0.199-0.303,0.394-0.648,0.587-1.043c0.255-0.549,0.488-1.014,0.698-1.398c0.21-0.383,0.403-0.676,0.578-0.875
			c0.053-0.201,0.159-0.52,0.317-0.957c0.158-0.436,0.369-1.004,0.633-1.699c0.254-0.664,0.47-1.203,0.646-1.615
			c0.176-0.416,0.308-0.701,0.396-0.859c0.035-0.061,0.081-0.139,0.138-0.234c0.057-0.096,0.104-0.215,0.139-0.352
			c0.123-0.41,0.268-0.793,0.435-1.146c0.167-0.354,0.338-0.686,0.514-1c0.043-0.078,0.099-0.141,0.164-0.184
			s0.133-0.064,0.203-0.064c0.35,0.002,0.609,0.137,0.778,0.406c0.17,0.271,0.254,0.672,0.252,1.195
			c-0.001,0.584-0.191,1.393-0.57,2.426c-0.378,1.033-0.957,2.289-1.738,3.762c-0.158,0.33-0.33,0.736-0.514,1.217
			c-0.185,0.48-0.37,1.027-0.554,1.648c-0.15,0.48-0.295,0.969-0.437,1.467c-0.14,0.496-0.286,0.984-0.436,1.465
			c-0.141,0.463-0.247,0.826-0.317,1.094c-0.07,0.266-0.105,0.443-0.106,0.529c0,0.063,0.011,0.105,0.032,0.131
			c0.022,0.027,0.054,0.039,0.098,0.039c0.087,0,0.165-0.025,0.229-0.078c0.066-0.051,0.116-0.127,0.151-0.223
			c0.175-0.252,0.349-0.537,0.52-0.855c0.171-0.318,0.345-0.67,0.52-1.053l0.041-0.379c0.063-0.576,0.194-0.979,0.396-1.205
			s0.577-0.404,1.128-0.533c0.069-0.027,0.247-0.262,0.532-0.707c0.285-0.443,0.664-1.102,1.138-1.975
			c0.263-0.463,0.482-0.809,0.657-1.039c0.175-0.23,0.307-0.348,0.395-0.348c0.201,0,0.345,0.068,0.432,0.199
			c0.086,0.131,0.13,0.328,0.129,0.59c-0.002,0.672-0.379,1.518-1.133,2.535c-0.754,1.021-1.131,1.693-1.132,2.016
			c0,0.227,0.199,0.574,0.6,1.043c0.4,0.469,0.731,0.703,0.993,0.703c0.087,0,0.185-0.027,0.294-0.084
			c0.108-0.057,0.237-0.145,0.385-0.266c0.113-0.086,0.224-0.18,0.333-0.279c0.109-0.102,0.229-0.191,0.359-0.279l0.527,1.201
			c-0.228,0.201-0.444,0.4-0.649,0.602c-0.207,0.199-0.423,0.396-0.65,0.588c-0.254,0.242-0.508,0.424-0.761,0.541
			s-0.507,0.174-0.76,0.174c-0.262-0.002-0.705-0.27-1.327-0.809c-0.623-0.539-0.957-0.807-1-0.807
			c-0.324,0.295-0.609,0.592-0.854,0.889c-0.158,0.189-0.313,0.377-0.466,0.555c-0.153,0.18-0.309,0.363-0.467,0.555
			c-0.043,0.061-0.114,0.135-0.21,0.223c-0.097,0.088-0.206,0.188-0.328,0.301c-0.123,0.174-0.261,0.34-0.414,0.502
			s-0.344,0.242-0.57,0.24c-0.35,0-0.611-0.1-0.785-0.303c-0.174-0.201-0.261-0.506-0.26-0.916c0.001-0.42,0.04-0.865,0.115-1.336
			c0.075-0.471,0.192-0.963,0.35-1.479c0.062-0.244,0.11-0.459,0.146-0.646c0.035-0.189,0.053-0.352,0.053-0.492l-0.091-0.131
			c-0.114,0.141-0.258,0.305-0.434,0.496s-0.381,0.428-0.617,0.705c-0.035,0.025-0.072,0.072-0.112,0.137
			c-0.04,0.066-0.129,0.195-0.27,0.387c-0.044-0.113-0.099-0.248-0.165-0.404c-0.065-0.156-0.133-0.338-0.204-0.549
			c-0.018-0.055-0.04-0.102-0.066-0.145C-140.978,167.885-141.008,167.848-141.043,167.822z"/>
		<path fill="#165C39" d="M-128.989,165.594c0.244,0.061,0.449,0.129,0.615,0.197c0.296-0.053,0.597-0.107,0.903-0.168l2.434,0.006
			c0.235,0,0.405,0.064,0.509,0.186c0.104,0.123,0.156,0.305,0.156,0.551c-0.001,0.348-0.073,0.609-0.217,0.783
			s-0.353,0.262-0.623,0.262c-0.087,0-0.223-0.014-0.405-0.043c-0.183-0.025-0.319-0.039-0.406-0.039l-0.746-0.002
			c-0.315,0.059-0.629,0.115-0.943,0.168c-0.759-0.123-1.182-0.188-1.269-0.188c-0.113,0-0.263,0.016-0.451,0.045
			c-0.188,0.031-0.338,0.047-0.452,0.047c-0.157,0-0.283-0.035-0.379-0.1c-0.096-0.066-0.144-0.16-0.144-0.283
			c0-0.053,0.044-0.129,0.132-0.229s0.214-0.223,0.38-0.371c0.035-0.07,0.081-0.16,0.139-0.27c0.057-0.107,0.124-0.236,0.203-0.385
			c0.061-0.008,0.138-0.027,0.229-0.059C-129.231,165.674-129.12,165.637-128.989,165.594z"/>
		<path fill="#165C39" d="M-120.761,152.432c0.192,0,0.356,0.027,0.491,0.086c0.135,0.059,0.246,0.129,0.332,0.217
			c0.079,0.078,0.155,0.182,0.229,0.309s0.167,0.281,0.28,0.465c0.139,0.254,0.239,0.449,0.3,0.584
			c0.061,0.135,0.091,0.225,0.091,0.268c-0.063,0.506-0.121,0.992-0.174,1.453c-0.036,0.49-0.094,0.99-0.173,1.504
			c-0.036,0.123-0.067,0.258-0.093,0.406c0.034,0.219,0.063,0.451,0.084,0.693c0.021,0.246,0.035,0.49,0.043,0.734
			c0.017,0.191,0.025,0.408,0.024,0.646c0,0.24-0.01,0.514-0.028,0.82c-0.01,0.383-0.02,0.695-0.028,0.936
			c-0.01,0.24-0.014,0.404-0.015,0.49c0,0.061,0.003,0.131,0.013,0.209c0.008,0.078,0.025,0.166,0.051,0.264
			c0.017,0.121,0.047,0.273,0.09,0.459l-0.002,0.824c0.008,0.332,0.11,1.1,0.306,2.305c0.196,1.205,0.324,1.852,0.384,1.938
			c0.061-0.031,0.114-0.059,0.157-0.076l1.028-1.83c0.053-0.148,0.122-0.338,0.205-0.568c0.083-0.232,0.183-0.5,0.297-0.805
			c0.396-0.766,0.771-1.766,1.129-3c0.357-1.234,0.691-2.695,1.001-4.389c0.106-0.486,0.245-0.875,0.416-1.162
			s0.362-0.463,0.572-0.521l1.168-0.418c0.201,0.08,0.344,0.188,0.431,0.322c0.087,0.137,0.13,0.313,0.129,0.531
			c0,0.27-0.05,0.709-0.147,1.314c-0.097,0.607-0.248,1.365-0.452,2.281c-0.009,0.201-0.035,0.449-0.076,0.746
			c-0.041,0.297-0.089,0.646-0.144,1.047c-0.071,0.314-0.125,0.563-0.165,0.746c-0.04,0.184-0.06,0.297-0.06,0.34
			c0,0.227,0.003,0.486,0.011,0.779c0.009,0.291,0.017,0.621,0.024,0.986c0.017,0.445,0.024,0.816,0.023,1.113
			c0,0.299-0.001,0.506-0.001,0.629c0.007,0.584,0.026,1.027,0.056,1.328c0.03,0.301,0.071,0.451,0.123,0.451
			c0.087,0,0.226-0.188,0.415-0.563c0.188-0.373,0.418-0.941,0.691-1.699c0.22-0.574,0.42-1.121,0.6-1.637
			c0.18-0.514,0.34-0.996,0.481-1.449c0.087-0.098,0.158-0.232,0.211-0.406c0.053-0.176,0.088-0.398,0.105-0.668
			c0.141-0.375,0.277-0.77,0.408-1.184c0.133-0.414,0.273-0.844,0.423-1.289c0.088-0.262,0.183-0.59,0.284-0.98
			c0.102-0.393,0.223-0.859,0.363-1.4l-0.169-0.549c0.026-0.105,0.065-0.236,0.118-0.395c0.054-0.156,0.102-0.344,0.146-0.563
			c0.236-0.373,0.449-0.658,0.638-0.85s0.338-0.285,0.451-0.285c0.087,0,0.149,0.047,0.183,0.139
			c0.035,0.09,0.053,0.236,0.052,0.438c-0.001,0.531-0.013,0.945-0.035,1.236c-0.022,0.293-0.052,0.482-0.087,0.57
			c-0.063,0.121-0.113,0.238-0.158,0.346c-0.044,0.107-0.079,0.197-0.105,0.268l0.168,0.645c-0.052,0.119-0.113,0.338-0.184,0.658
			c-0.071,0.318-0.15,0.736-0.24,1.25c-0.088,0.49-0.168,0.877-0.238,1.166c-0.07,0.287-0.135,0.479-0.197,0.574
			c-0.026,0.164-0.084,0.365-0.172,0.602s-0.192,0.516-0.316,0.838c-0.053,0.113-0.109,0.291-0.171,0.531
			c-0.062,0.238-0.137,0.523-0.225,0.855c-0.062,0.199-0.142,0.438-0.237,0.713c-0.097,0.275-0.207,0.607-0.33,1.002
			c-0.088,0.111-0.174,0.264-0.256,0.455c-0.084,0.191-0.16,0.434-0.23,0.721c-0.045,0.139-0.126,0.342-0.244,0.609
			c-0.119,0.264-0.266,0.605-0.441,1.025c-0.184,0.436-0.342,0.771-0.474,1.006c-0.131,0.236-0.224,0.365-0.276,0.393l-0.314,0.184
			c-0.07,0.088-0.158,0.145-0.263,0.174c-0.104,0.031-0.24,0.041-0.405,0.033c-0.158,0.096-0.295,0.168-0.413,0.221
			c-0.119,0.053-0.213,0.078-0.283,0.078c-0.332-0.002-0.597-0.133-0.797-0.395c-0.2-0.262-0.343-0.664-0.429-1.205
			c-0.025-0.377-0.052-0.752-0.082-1.133c-0.03-0.379-0.062-0.766-0.096-1.158c-0.018-0.191-0.049-0.447-0.096-0.766
			c-0.047-0.318-0.123-0.701-0.227-1.146c-0.184,0.348-0.374,0.709-0.572,1.078c-0.197,0.371-0.401,0.76-0.612,1.17
			c0.008,0.078-0.053,0.27-0.185,0.576c-0.132,0.305-0.316,0.729-0.554,1.268c-0.246,0.566-0.509,1.139-0.79,1.711
			c-0.201,0.342-0.418,0.596-0.649,0.766s-0.492,0.254-0.78,0.252c-0.139,0-0.273-0.109-0.404-0.328
			c-0.13-0.217-0.26-0.551-0.39-0.996c-0.078-0.27-0.154-0.543-0.228-0.818c-0.073-0.273-0.148-0.557-0.227-0.844
			c0.044-0.123,0.075-0.223,0.092-0.301c-0.061-0.123-0.123-0.287-0.188-0.498s-0.136-0.465-0.214-0.76
			c-0.025-0.186-0.06-0.42-0.103-0.707c-0.042-0.289-0.09-0.629-0.141-1.021c-0.009-0.123-0.017-0.248-0.025-0.373
			c-0.009-0.129-0.017-0.252-0.025-0.373c-0.008-0.096-0.032-0.201-0.071-0.314c-0.039-0.113-0.098-0.244-0.176-0.393
			c-0.017-0.053-0.033-0.182-0.045-0.387s-0.026-0.49-0.042-0.859c-0.008-0.297-0.034-0.545-0.078-0.74
			c-0.043-0.195-0.107-0.324-0.195-0.387l-0.353-0.262c-0.053-0.121-0.093-0.311-0.123-0.568c-0.03-0.26-0.045-0.576-0.044-0.951
			c0.002-0.986,0.064-2.014,0.185-3.088c0.12-1.074,0.299-2.203,0.538-3.389c0.062-0.305,0.171-0.537,0.329-0.693
			C-121.193,152.508-120.997,152.43-120.761,152.432z"/>
		<path fill="#165C39" d="M-107.937,167.906c0.106-0.184,0.244-0.367,0.412-0.555c0.168-0.189,0.381-0.385,0.637-0.582
			c0.027-0.174,0.055-0.348,0.08-0.518c0.027-0.17,0.045-0.344,0.054-0.518c0.026-0.123,0.069-0.266,0.126-0.434
			c0.057-0.166,0.121-0.344,0.191-0.537c0.078-0.191,0.186-0.432,0.322-0.719c0.135-0.287,0.313-0.609,0.533-0.969
			c0.184-0.199,0.375-0.42,0.576-0.658c0.202-0.242,0.402-0.482,0.604-0.727c0.097-0.078,0.201-0.152,0.314-0.223
			c0.115-0.068,0.229-0.148,0.342-0.232c0.105-0.035,0.223-0.066,0.354-0.092c0.131-0.027,0.275-0.041,0.432-0.039
			c0.218,0,0.395,0.021,0.53,0.066c0.135,0.045,0.245,0.119,0.333,0.225c0.061,0.07,0.119,0.174,0.176,0.314
			c0.057,0.139,0.109,0.311,0.162,0.51c0.025,0.176,0.055,0.367,0.09,0.576c0-0.051-0.014-0.029-0.045,0.066
			s-0.078,0.25-0.139,0.459l-0.119,0.418c-0.124,0.42-0.399,0.902-0.828,1.453c-0.429,0.549-1.007,1.176-1.732,1.883
			c-0.061,0.061-0.113,0.137-0.158,0.227c-0.043,0.092-0.064,0.189-0.065,0.295c0,0.184,0.032,0.346,0.097,0.486
			s0.158,0.244,0.28,0.314c0.069,0.053,0.181,0.105,0.333,0.158s0.333,0.102,0.542,0.145c0.34-0.025,0.649-0.08,0.929-0.168
			c0.279-0.084,0.527-0.189,0.745-0.311c0.044-0.027,0.114-0.063,0.21-0.111c0.096-0.045,0.191-0.109,0.287-0.188
			c0.115,0.252,0.215,0.479,0.303,0.68c0.088,0.199,0.158,0.373,0.211,0.521c-0.498,0.49-0.951,0.857-1.359,1.105
			c-0.405,0.248-0.779,0.373-1.121,0.371c-0.14,0.088-0.299,0.15-0.479,0.189c-0.179,0.039-0.391,0.057-0.635,0.057
			c-0.323-0.002-0.609-0.049-0.858-0.145c-0.249-0.098-0.456-0.238-0.62-0.422c-0.088-0.088-0.176-0.217-0.262-0.387
			c-0.088-0.174-0.179-0.377-0.273-0.613c-0.078-0.191-0.152-0.334-0.223-0.426c-0.069-0.09-0.147-0.137-0.234-0.137
			c-0.07-0.002-0.149,0.031-0.236,0.096c-0.088,0.066-0.185,0.164-0.289,0.295c-0.035-0.131-0.098-0.291-0.185-0.482
			C-107.683,168.436-107.796,168.193-107.937,167.906z M-103.726,163.658c-0.19-0.002-0.449,0.25-0.772,0.75
			c-0.324,0.498-0.485,0.865-0.487,1.1c0,0.053,0.012,0.09,0.033,0.113c0.021,0.021,0.067,0.031,0.137,0.031
			c0.096,0,0.175-0.051,0.235-0.148c0.062-0.1,0.118-0.193,0.171-0.281c0.096-0.086,0.19-0.18,0.282-0.279s0.182-0.199,0.269-0.293
			c0.105-0.121,0.184-0.242,0.236-0.363c0.053-0.123,0.079-0.244,0.08-0.367c0-0.076-0.016-0.141-0.045-0.189
			C-103.619,163.684-103.664,163.658-103.726,163.658z"/>
		<path fill="#165C39" d="M-101.353,167.924l0.078-0.092l0.041-0.131c0.236-0.322,0.652-0.742,1.248-1.26s1.006-0.938,1.234-1.26
			c0.088-0.141,0.188-0.24,0.303-0.301c0.113-0.061,0.227-0.09,0.341-0.09c0.306,0,0.563,0.078,0.772,0.23s0.349,0.383,0.418,0.686
			c0.061,0.273,0.116,0.545,0.168,0.82s0.095,0.553,0.129,0.832c0.061,0.174,0.135,0.438,0.221,0.793
			c0.085,0.354,0.15,0.555,0.193,0.607c0.044,0.088,0.109,0.152,0.195,0.191c0.087,0.041,0.195,0.061,0.326,0.061
			c0.156,0,0.318-0.029,0.484-0.084c0.164-0.057,0.334-0.154,0.509-0.293c0.131-0.113,0.269-0.229,0.412-0.346
			s0.286-0.234,0.425-0.348l0.527,1.203c-0.14,0.139-0.325,0.299-0.557,0.477c-0.232,0.178-0.51,0.385-0.832,0.619
			c-0.359,0.262-0.666,0.453-0.918,0.58c-0.254,0.127-0.445,0.189-0.577,0.188c-0.794-0.002-1.308-0.094-1.543-0.279
			c-0.235-0.182-0.495-0.691-0.781-1.531c-0.034-0.07-0.087-0.154-0.156-0.25s-0.148-0.209-0.235-0.34
			c-0.104-0.201-0.195-0.352-0.273-0.451c-0.078-0.104-0.144-0.152-0.195-0.152c-0.14,0-0.327,0.094-0.563,0.281
			c-0.236,0.186-0.524,0.467-0.866,0.84c-0.044-0.113-0.099-0.248-0.164-0.404c-0.066-0.156-0.135-0.338-0.204-0.549
			c-0.019-0.053-0.04-0.1-0.067-0.143C-101.288,167.986-101.318,167.949-101.353,167.924z M-95.853,157.605
			c0.218,0,0.377,0.043,0.478,0.131c0.101,0.09,0.149,0.217,0.149,0.381c-0.054,0.244-0.098,0.449-0.133,0.613
			c-0.088,0.314-0.164,0.572-0.23,0.773c-0.066,0.199-0.117,0.344-0.152,0.432c-0.079,0.191-0.186,0.359-0.321,0.504
			c-0.136,0.143-0.3,0.27-0.492,0.383c-0.201,0.141-0.369,0.236-0.505,0.293c-0.135,0.057-0.229,0.082-0.281,0.072
			c-0.148-0.018-0.29-0.033-0.426-0.047c-0.135-0.014-0.269-0.02-0.399-0.02c-0.113-0.063-0.202-0.18-0.267-0.354
			c-0.064-0.178-0.098-0.412-0.097-0.709c0.001-0.262,0.161-0.59,0.48-0.986s0.601-0.607,0.845-0.633
			c0.149-0.184,0.324-0.391,0.525-0.627c0.088-0.061,0.201-0.111,0.342-0.15C-96.199,157.623-96.037,157.605-95.853,157.605z"/>
		<path fill="#165C39" d="M-93.865,167.941c0.034-0.061,0.08-0.127,0.138-0.201s0.126-0.162,0.204-0.268
			c0.088-0.07,0.201-0.17,0.342-0.301c0.139-0.129,0.297-0.283,0.473-0.457c0.157-0.176,0.35-0.393,0.577-0.646
			c0.229-0.258,0.505-0.568,0.829-0.936c0.14-0.148,0.314-0.338,0.525-0.568c0.209-0.23,0.459-0.508,0.749-0.83
			c0.245-0.287,0.508-0.5,0.788-0.641c0.279-0.137,0.576-0.207,0.891-0.205c0.314,0,0.545,0.098,0.693,0.295
			s0.222,0.484,0.221,0.857c0,0.201-0.076,0.586-0.225,1.15c-0.15,0.566-0.384,1.318-0.701,2.25
			c-0.078,0.174-0.152,0.338-0.223,0.496c-0.053,0.113-0.088,0.213-0.105,0.301s-0.027,0.152-0.027,0.195
			c0,0.053,0.031,0.119,0.092,0.197c0.043-0.027,0.086-0.061,0.125-0.104c0.039-0.045,0.084-0.096,0.137-0.156
			c0.07-0.131,0.178-0.27,0.322-0.412c0.144-0.145,0.316-0.303,0.518-0.477c0.08-0.148,0.182-0.295,0.309-0.439
			s0.27-0.277,0.427-0.396c0.035-0.035,0.081-0.092,0.138-0.172c0.057-0.078,0.125-0.16,0.204-0.25
			c0.113-0.113,0.249-0.23,0.406-0.35c0.157-0.123,0.341-0.25,0.551-0.381c0.235-0.121,0.448-0.217,0.636-0.287
			s0.352-0.102,0.49-0.102c0.271,0,0.511,0.064,0.721,0.199c0.209,0.131,0.387,0.336,0.534,0.615
			c0.173,0.543,0.338,1.047,0.493,1.51c0.096,0.271,0.201,0.473,0.319,0.604c0.118,0.133,0.25,0.197,0.398,0.197
			c0.112,0,0.214-0.021,0.304-0.064c0.092-0.043,0.175-0.104,0.253-0.191l0.527,1.201c-0.148,0.123-0.302,0.248-0.459,0.379
			s-0.311,0.256-0.458,0.379c-0.201,0.182-0.391,0.311-0.564,0.385c-0.176,0.072-0.35,0.109-0.523,0.109
			c-0.201-0.002-0.393-0.045-0.576-0.131c-0.183-0.088-0.34-0.221-0.47-0.396c-0.069-0.07-0.157-0.199-0.261-0.387
			c-0.104-0.188-0.227-0.422-0.365-0.703c-0.113-0.115-0.241-0.266-0.385-0.453c-0.143-0.188-0.311-0.408-0.502-0.664l-0.118-0.039
			c-0.165,0.051-0.33,0.131-0.491,0.236c-0.162,0.102-0.334,0.238-0.518,0.404c-0.395,0.348-0.68,0.566-0.854,0.652
			c-0.176,0.088-0.293,0.188-0.354,0.301c-0.123,0.209-0.333,0.48-0.63,0.814c-0.299,0.33-0.672,0.723-1.117,1.176
			c-0.114,0.113-0.228,0.225-0.342,0.334c-0.113,0.109-0.227,0.215-0.342,0.318c-0.113,0.098-0.242,0.166-0.387,0.205
			c-0.144,0.039-0.303,0.057-0.479,0.057c-0.348,0-0.537-0.121-0.567-0.363c-0.03-0.24-0.059-0.482-0.083-0.727
			c0.131-0.367,0.281-0.824,0.448-1.375c0.167-0.549,0.361-1.191,0.583-1.922c0-0.045,0.016-0.104,0.047-0.178
			c0.03-0.074,0.068-0.172,0.112-0.295c0.044-0.113,0.075-0.211,0.093-0.295c0.018-0.082,0.027-0.154,0.027-0.215
			c0-0.063-0.022-0.109-0.065-0.145c-0.044-0.035-0.113-0.053-0.21-0.053c-0.087,0-0.202,0.051-0.347,0.156
			c-0.145,0.104-0.316,0.27-0.519,0.496c-0.244,0.26-0.441,0.467-0.59,0.615c-0.149,0.146-0.25,0.232-0.303,0.26
			c-0.086,0.061-0.189,0.146-0.307,0.26c-0.119,0.115-0.252,0.242-0.4,0.379c-0.018,0.035-0.045,0.088-0.08,0.156
			c-0.035,0.07-0.092,0.148-0.17,0.236c-0.035-0.131-0.097-0.291-0.186-0.482C-93.61,168.471-93.724,168.23-93.865,167.941z"/>
		<path fill="#165C39" d="M-81.351,167.975c0.107-0.184,0.244-0.369,0.412-0.557c0.168-0.189,0.381-0.383,0.639-0.582
			c0.025-0.174,0.053-0.348,0.08-0.518c0.025-0.17,0.044-0.344,0.053-0.518c0.027-0.123,0.068-0.266,0.125-0.434
			c0.057-0.166,0.121-0.342,0.191-0.535c0.08-0.191,0.187-0.432,0.322-0.721c0.137-0.287,0.314-0.609,0.533-0.967
			c0.184-0.199,0.376-0.422,0.577-0.66c0.201-0.24,0.403-0.482,0.604-0.727c0.096-0.078,0.201-0.152,0.314-0.221
			s0.227-0.148,0.34-0.234c0.105-0.035,0.224-0.066,0.354-0.09c0.131-0.027,0.274-0.041,0.433-0.041
			c0.217,0,0.395,0.023,0.529,0.068c0.135,0.043,0.246,0.117,0.332,0.223c0.062,0.07,0.121,0.174,0.177,0.314
			c0.057,0.141,0.11,0.313,0.161,0.512c0.026,0.176,0.057,0.367,0.091,0.576c0-0.051-0.015-0.029-0.046,0.066
			s-0.076,0.25-0.139,0.459l-0.119,0.416c-0.123,0.42-0.398,0.904-0.826,1.453c-0.43,0.551-1.008,1.176-1.733,1.883
			c-0.062,0.061-0.114,0.139-0.157,0.229c-0.045,0.092-0.066,0.189-0.066,0.295c-0.001,0.184,0.031,0.346,0.098,0.486
			c0.064,0.139,0.158,0.242,0.279,0.313c0.068,0.053,0.181,0.105,0.332,0.16c0.152,0.053,0.334,0.1,0.543,0.143
			c0.34-0.023,0.649-0.08,0.928-0.166c0.279-0.086,0.527-0.191,0.746-0.311c0.043-0.027,0.113-0.063,0.21-0.111
			c0.095-0.047,0.191-0.111,0.288-0.189c0.113,0.252,0.215,0.479,0.303,0.682c0.088,0.199,0.157,0.373,0.21,0.521
			c-0.498,0.488-0.952,0.857-1.358,1.104c-0.406,0.25-0.78,0.373-1.121,0.373c-0.141,0.086-0.3,0.148-0.479,0.188
			c-0.179,0.041-0.392,0.059-0.636,0.057c-0.322,0-0.609-0.049-0.857-0.145s-0.456-0.236-0.621-0.422
			c-0.087-0.088-0.174-0.217-0.262-0.387c-0.087-0.172-0.178-0.375-0.273-0.611c-0.078-0.191-0.151-0.336-0.221-0.428
			c-0.07-0.09-0.148-0.137-0.236-0.137c-0.07,0-0.148,0.033-0.236,0.098c-0.087,0.066-0.184,0.162-0.289,0.293
			c-0.034-0.131-0.096-0.291-0.184-0.482S-81.21,168.262-81.351,167.975z M-77.138,163.725c-0.191,0-0.45,0.252-0.773,0.75
			c-0.324,0.5-0.486,0.865-0.486,1.1c0,0.053,0.011,0.09,0.033,0.115c0.021,0.021,0.066,0.031,0.136,0.031
			c0.097,0,0.175-0.051,0.235-0.15c0.062-0.1,0.118-0.193,0.172-0.281c0.096-0.086,0.189-0.18,0.281-0.277
			c0.092-0.1,0.182-0.199,0.27-0.293c0.104-0.123,0.183-0.244,0.234-0.365c0.054-0.123,0.08-0.244,0.08-0.367
			c0-0.076-0.014-0.141-0.045-0.189C-77.031,163.75-77.078,163.725-77.138,163.725z"/>
	</g>
	<g>
		<path fill="#165C39" d="M-150.687,183.76l-0.949-5.734l0.763,0.002l0.548,3.922l0.677-3.92l0.632,0.002l0.665,3.924l0.56-3.92
			l0.764,0.002l-0.971,5.729h-0.635l-0.7-4.07l-0.725,4.066L-150.687,183.76z"/>
		<path fill="#165C39" d="M-144.504,182.49v0.051c-0.001,0.404-0.104,0.723-0.309,0.953c-0.205,0.232-0.483,0.348-0.837,0.346
			c-0.432,0-0.747-0.162-0.946-0.482c-0.2-0.32-0.298-0.834-0.297-1.537c0.002-0.662,0.103-1.156,0.304-1.484
			c0.201-0.326,0.504-0.488,0.91-0.488c0.432,0.002,0.743,0.15,0.933,0.449c0.191,0.297,0.285,0.785,0.283,1.461l0,0.223
			l-1.759-0.004l0,0.115c-0.001,0.402,0.044,0.695,0.135,0.877c0.091,0.18,0.235,0.271,0.434,0.271
			c0.159,0.002,0.279-0.061,0.362-0.186s0.128-0.313,0.136-0.563L-144.504,182.49z M-146.221,181.426l1.076,0.002v-0.1
			c0.001-0.316-0.041-0.545-0.124-0.688c-0.083-0.141-0.217-0.213-0.401-0.215c-0.18,0-0.317,0.086-0.41,0.254
			C-146.173,180.85-146.221,181.098-146.221,181.426z"/>
		<path fill="#165C39" d="M-143.856,178.771c0-0.129,0.044-0.238,0.131-0.328s0.195-0.133,0.323-0.133
			c0.126,0,0.231,0.045,0.318,0.135s0.129,0.199,0.129,0.328c0,0.127-0.044,0.232-0.132,0.322c-0.088,0.086-0.194,0.129-0.317,0.129
			c-0.128,0-0.236-0.043-0.322-0.129C-143.813,179.008-143.856,178.9-143.856,178.771z M-143.771,183.777l0.01-3.854l0.706,0.002
			l-0.01,3.854L-143.771,183.777z"/>
		<path fill="#165C39" d="M-142.168,183.781l0.01-3.854l0.697,0.002l-0.001,0.387c0.095-0.141,0.209-0.246,0.344-0.316
			s0.292-0.104,0.47-0.104c0.283,0,0.492,0.078,0.629,0.236c0.137,0.158,0.205,0.396,0.205,0.719l-0.008,2.936l-0.712-0.002
			l0.007-2.586c0-0.262-0.033-0.439-0.101-0.533c-0.068-0.094-0.186-0.141-0.353-0.143c-0.157,0-0.275,0.047-0.354,0.146
			c-0.08,0.098-0.121,0.244-0.121,0.438l-0.007,2.676L-142.168,183.781z"/>
		<path fill="#165C39" d="M-136.775,182.51v0.051c-0.001,0.404-0.104,0.723-0.309,0.953c-0.205,0.232-0.483,0.348-0.836,0.346
			c-0.432,0-0.748-0.162-0.947-0.482c-0.199-0.32-0.298-0.834-0.296-1.537c0.002-0.662,0.103-1.156,0.304-1.484
			c0.201-0.326,0.504-0.488,0.91-0.488c0.432,0.002,0.742,0.15,0.932,0.449c0.191,0.297,0.285,0.785,0.284,1.461l0,0.223
			l-1.76-0.004l0,0.115c-0.001,0.402,0.044,0.695,0.135,0.877c0.091,0.18,0.234,0.271,0.433,0.271
			c0.159,0.002,0.279-0.061,0.362-0.186s0.128-0.313,0.137-0.563L-136.775,182.51z M-138.493,181.445l1.076,0.002l0-0.1
			c0.001-0.316-0.041-0.545-0.124-0.688c-0.083-0.141-0.217-0.213-0.402-0.215c-0.18,0-0.317,0.086-0.41,0.254
			C-138.445,180.869-138.492,181.117-138.493,181.445z"/>
		<path fill="#165C39" d="M-135.161,183.025l-0.733,2.021l-0.396-0.121l0.527-2.086L-135.161,183.025z"/>
		<path fill="#165C39" d="M-131.355,183.809l0.001-0.381c-0.097,0.156-0.208,0.27-0.333,0.34c-0.124,0.072-0.268,0.107-0.43,0.107
			c-0.34-0.002-0.59-0.162-0.749-0.486c-0.159-0.322-0.237-0.824-0.236-1.506c0.002-0.684,0.083-1.188,0.244-1.51
			c0.161-0.324,0.411-0.486,0.751-0.484c0.165,0,0.31,0.037,0.434,0.107c0.124,0.072,0.233,0.186,0.327,0.338l0.007-2.613
			l0.705,0.002l-0.016,6.088L-131.355,183.809z M-132.391,181.885c-0.001,0.49,0.039,0.836,0.12,1.031
			c0.08,0.197,0.217,0.297,0.409,0.297c0.191,0,0.328-0.098,0.411-0.295c0.082-0.195,0.124-0.541,0.125-1.031
			c0.001-0.494-0.039-0.838-0.119-1.037c-0.082-0.197-0.218-0.297-0.409-0.297c-0.192,0-0.329,0.098-0.41,0.295
			C-132.348,181.047-132.389,181.391-132.391,181.885z"/>
		<path fill="#165C39" d="M-129.879,178.807c0-0.129,0.043-0.238,0.131-0.328c0.086-0.09,0.194-0.133,0.323-0.133
			c0.126,0.002,0.231,0.045,0.318,0.135c0.086,0.09,0.129,0.199,0.128,0.328c0,0.127-0.044,0.232-0.132,0.322
			c-0.088,0.086-0.194,0.131-0.317,0.129c-0.128,0-0.236-0.043-0.322-0.129C-129.837,179.043-129.879,178.936-129.879,178.807z
			 M-129.794,183.813l0.01-3.854l0.705,0.002l-0.01,3.854L-129.794,183.813z"/>
		<path fill="#165C39" d="M-126.006,182.537v0.051c-0.001,0.404-0.104,0.723-0.309,0.953c-0.205,0.232-0.483,0.348-0.837,0.346
			c-0.432,0-0.747-0.162-0.947-0.482c-0.199-0.32-0.297-0.834-0.296-1.537c0.002-0.662,0.103-1.156,0.304-1.484
			c0.202-0.326,0.505-0.488,0.911-0.488c0.432,0.002,0.742,0.15,0.932,0.449c0.19,0.297,0.285,0.785,0.284,1.461l0,0.223
			l-1.76-0.004l0,0.115c-0.001,0.402,0.044,0.695,0.135,0.877c0.09,0.18,0.235,0.271,0.433,0.271
			c0.159,0.002,0.28-0.061,0.362-0.186s0.128-0.313,0.136-0.563L-126.006,182.537z M-127.725,181.473l1.075,0.002l0-0.1
			c0.001-0.316-0.041-0.545-0.124-0.688c-0.083-0.141-0.217-0.213-0.402-0.215c-0.18,0-0.316,0.086-0.409,0.254
			C-127.677,180.896-127.724,181.145-127.725,181.473z"/>
		<path fill="#165C39" d="M-122.138,183.832l0.001-0.381c-0.097,0.156-0.208,0.27-0.333,0.34c-0.124,0.072-0.268,0.107-0.43,0.107
			c-0.325-0.002-0.57-0.17-0.737-0.508s-0.249-0.836-0.248-1.496c0.002-0.654,0.085-1.15,0.253-1.486
			c0.167-0.336,0.414-0.504,0.741-0.502c0.165,0,0.31,0.035,0.435,0.105c0.124,0.074,0.233,0.186,0.327,0.338l0.001-0.371
			l0.705,0.002l-0.01,3.854L-122.138,183.832z M-123.173,181.895c-0.001,0.492,0.039,0.84,0.122,1.039
			c0.083,0.201,0.218,0.303,0.407,0.303s0.326-0.1,0.408-0.303c0.083-0.201,0.126-0.547,0.127-1.035
			c0.001-0.49-0.039-0.834-0.12-1.031c-0.082-0.197-0.217-0.297-0.409-0.297s-0.328,0.098-0.41,0.295
			C-123.131,181.063-123.172,181.404-123.173,181.895z"/>
		<path fill="#165C39" d="M-120.603,182.701l0.007-2.719l0.705,0.002l-0.007,2.76c0,0.178,0.039,0.313,0.118,0.404
			c0.079,0.092,0.196,0.137,0.351,0.137c0.152,0.002,0.269-0.043,0.348-0.135s0.119-0.227,0.119-0.404l0.007-2.76l0.719,0.002
			l-0.007,2.719c-0.001,0.424-0.095,0.73-0.283,0.92c-0.188,0.188-0.489,0.281-0.903,0.279c-0.415,0-0.714-0.096-0.898-0.285
			S-120.604,183.125-120.603,182.701z"/>
		<path fill="#165C39" d="M-117.597,183.025c0.099,0.09,0.198,0.156,0.295,0.201c0.098,0.043,0.198,0.064,0.3,0.064
			c0.149,0.002,0.271-0.043,0.366-0.131c0.094-0.09,0.142-0.205,0.142-0.344c0-0.166-0.128-0.371-0.385-0.617
			c-0.034-0.033-0.06-0.059-0.077-0.074c-0.252-0.24-0.421-0.439-0.507-0.596c-0.087-0.156-0.129-0.33-0.128-0.518
			c0.001-0.324,0.101-0.588,0.3-0.793c0.199-0.205,0.458-0.305,0.775-0.305c0.105,0,0.207,0.014,0.308,0.041
			c0.102,0.025,0.202,0.066,0.301,0.117l-0.002,0.73c-0.076-0.092-0.158-0.158-0.249-0.199c-0.09-0.047-0.194-0.068-0.312-0.068
			c-0.131,0-0.239,0.043-0.324,0.127c-0.086,0.084-0.128,0.189-0.128,0.318c0,0.172,0.122,0.371,0.369,0.6
			c0.049,0.045,0.086,0.078,0.109,0.102c0.233,0.217,0.395,0.41,0.486,0.584c0.09,0.172,0.135,0.363,0.134,0.576
			c0,0.326-0.101,0.588-0.301,0.783c-0.199,0.193-0.465,0.289-0.798,0.289c-0.108-0.002-0.218-0.014-0.331-0.035
			c-0.113-0.023-0.228-0.061-0.345-0.107L-117.597,183.025z"/>
		<path fill="#165C39" d="M-112.037,183.857l0.001-0.381c-0.097,0.156-0.208,0.27-0.333,0.34c-0.124,0.072-0.268,0.107-0.43,0.107
			c-0.341-0.002-0.59-0.162-0.75-0.486c-0.159-0.322-0.237-0.824-0.235-1.506c0.002-0.684,0.083-1.188,0.243-1.51
			c0.161-0.324,0.411-0.486,0.751-0.484c0.165,0,0.31,0.037,0.434,0.107c0.124,0.072,0.234,0.186,0.328,0.338l0.007-2.613
			l0.705,0.002l-0.016,6.088L-112.037,183.857z M-113.073,181.934c-0.001,0.49,0.038,0.836,0.12,1.031
			c0.081,0.197,0.218,0.297,0.409,0.297c0.192,0.002,0.329-0.098,0.411-0.295c0.082-0.195,0.124-0.541,0.125-1.031
			c0.001-0.494-0.039-0.838-0.119-1.037c-0.082-0.197-0.218-0.295-0.41-0.297c-0.191,0-0.328,0.098-0.41,0.295
			C-113.031,181.096-113.071,181.439-113.073,181.934z"/>
		<path fill="#165C39" d="M-108.299,182.582v0.051c-0.001,0.404-0.104,0.723-0.309,0.953c-0.204,0.232-0.483,0.348-0.837,0.346
			c-0.432,0-0.746-0.162-0.947-0.482c-0.199-0.32-0.298-0.834-0.296-1.537c0.002-0.662,0.104-1.156,0.304-1.484
			c0.202-0.326,0.504-0.488,0.91-0.488c0.432,0.002,0.743,0.15,0.934,0.447c0.19,0.299,0.283,0.787,0.282,1.463l-0.001,0.223
			l-1.76-0.004v0.115c0,0.402,0.045,0.695,0.135,0.877c0.092,0.18,0.235,0.271,0.434,0.271c0.16,0,0.279-0.061,0.363-0.186
			c0.082-0.125,0.126-0.313,0.135-0.563L-108.299,182.582z M-110.017,181.518l1.075,0.002l0.001-0.1
			c0-0.316-0.041-0.545-0.123-0.688c-0.084-0.141-0.218-0.215-0.402-0.215c-0.182,0-0.316,0.086-0.41,0.254
			C-109.969,180.941-110.016,181.189-110.017,181.518z"/>
		<path fill="#165C39" d="M-107.566,183.869l0.01-3.854l0.682,0.002l-0.001,0.563c0.097-0.205,0.222-0.359,0.374-0.463
			s0.338-0.158,0.558-0.168l-0.001,0.746h-0.119c-0.273-0.002-0.477,0.068-0.604,0.205s-0.192,0.354-0.194,0.646l-0.006,2.324
			L-107.566,183.869z"/>
		<path fill="#165C39" d="M-102.99,181.08l-0.008,2.801l-0.775-0.002l0.016-5.732l0.939,0.002c0.617,0.002,1.057,0.117,1.318,0.35
			c0.262,0.23,0.393,0.613,0.391,1.15c-0.001,0.424-0.092,0.754-0.272,0.99s-0.449,0.375-0.806,0.42l1.354,2.826l-0.83-0.002
			l-1.299-2.803H-102.99z M-102.99,180.641h0.243c0.312,0,0.532-0.07,0.661-0.217s0.193-0.406,0.194-0.777
			c0.001-0.309-0.061-0.521-0.183-0.641c-0.124-0.119-0.354-0.18-0.691-0.18h-0.22L-102.99,180.641z"/>
		<path fill="#165C39" d="M-98.301,182.607l-0.001,0.051c0,0.404-0.103,0.723-0.308,0.953c-0.204,0.232-0.483,0.348-0.836,0.346
			c-0.433,0-0.747-0.162-0.948-0.482c-0.198-0.32-0.297-0.834-0.295-1.537c0.002-0.662,0.103-1.156,0.303-1.484
			c0.202-0.326,0.505-0.488,0.911-0.488c0.431,0.002,0.743,0.15,0.933,0.447c0.19,0.299,0.284,0.787,0.283,1.463l-0.002,0.223
			l-1.759-0.006v0.115c-0.001,0.402,0.044,0.697,0.135,0.879c0.091,0.18,0.235,0.271,0.433,0.271c0.16,0,0.281-0.061,0.363-0.186
			s0.127-0.313,0.136-0.563L-98.301,182.607z M-100.019,181.541l1.076,0.004v-0.1c0-0.316-0.041-0.545-0.123-0.688
			c-0.084-0.141-0.217-0.215-0.402-0.215c-0.18,0-0.316,0.086-0.41,0.254C-99.971,180.967-100.017,181.213-100.019,181.541z"/>
		<path fill="#165C39" d="M-97.653,178.889c0.001-0.129,0.044-0.238,0.13-0.328c0.088-0.09,0.195-0.133,0.323-0.133
			c0.126,0,0.232,0.043,0.318,0.135c0.087,0.09,0.13,0.199,0.13,0.328c-0.001,0.127-0.045,0.232-0.133,0.322
			c-0.089,0.084-0.194,0.129-0.317,0.129c-0.128,0-0.235-0.043-0.323-0.129C-97.611,179.125-97.654,179.018-97.653,178.889z
			 M-97.568,183.895l0.01-3.854l0.705,0.002l-0.01,3.854L-97.568,183.895z"/>
		<path fill="#165C39" d="M-95.964,183.898l0.016-6.088l0.705,0.002l-0.007,2.623c0.081-0.139,0.188-0.244,0.325-0.316
			c0.134-0.072,0.295-0.107,0.48-0.105c0.283,0,0.492,0.078,0.629,0.236s0.205,0.396,0.205,0.719l-0.008,2.936l-0.713-0.002
			l0.007-2.586c0.001-0.262-0.032-0.439-0.101-0.533c-0.067-0.094-0.185-0.143-0.352-0.143c-0.158,0-0.275,0.047-0.355,0.146
			c-0.08,0.098-0.119,0.244-0.12,0.438l-0.007,2.676L-95.964,183.898z"/>
		<path fill="#165C39" d="M-90.572,182.627l-0.001,0.051c-0.001,0.404-0.104,0.723-0.309,0.953
			c-0.204,0.232-0.483,0.348-0.835,0.346c-0.434,0-0.748-0.162-0.948-0.482c-0.199-0.32-0.298-0.834-0.296-1.537
			c0.002-0.662,0.103-1.156,0.304-1.484c0.202-0.326,0.504-0.488,0.91-0.488c0.431,0.002,0.743,0.15,0.933,0.447
			c0.191,0.299,0.285,0.787,0.283,1.463l-0.001,0.223l-1.76-0.006v0.115c-0.001,0.402,0.044,0.697,0.135,0.879
			c0.091,0.18,0.235,0.271,0.434,0.271c0.159,0,0.28-0.061,0.362-0.186s0.127-0.313,0.137-0.563L-90.572,182.627z M-92.291,181.561
			l1.076,0.004v-0.1c0.001-0.316-0.04-0.545-0.123-0.688c-0.084-0.141-0.217-0.215-0.402-0.215c-0.18,0-0.316,0.086-0.41,0.254
			C-92.242,180.986-92.289,181.232-92.291,181.561z"/>
		<path fill="#165C39" d="M-88.26,183.918l0.009-3.332l-0.385-0.002l0.002-0.521l0.384,0.002l0.003-1.041l0.705,0.002l-0.003,1.041
			h0.53l-0.002,0.521h-0.529l-0.009,3.332L-88.26,183.918z"/>
		<path fill="#165C39" d="M-84.939,183.926v-0.381c-0.098,0.156-0.208,0.27-0.333,0.342c-0.124,0.07-0.269,0.105-0.431,0.105
			c-0.324,0-0.57-0.17-0.736-0.508c-0.167-0.338-0.25-0.836-0.248-1.496c0.001-0.654,0.086-1.15,0.254-1.486
			c0.166-0.336,0.413-0.502,0.74-0.502c0.165,0,0.311,0.035,0.435,0.107s0.233,0.184,0.327,0.336l0.002-0.371l0.705,0.002
			l-0.01,3.854L-84.939,183.926z M-85.975,181.99c-0.001,0.492,0.039,0.838,0.122,1.037c0.082,0.201,0.218,0.303,0.406,0.303
			c0.189,0.002,0.326-0.1,0.408-0.303c0.084-0.201,0.126-0.547,0.127-1.035c0.002-0.49-0.039-0.834-0.119-1.031
			c-0.082-0.197-0.217-0.295-0.41-0.297c-0.189,0-0.328,0.098-0.41,0.295S-85.974,181.5-85.975,181.99z"/>
		<path fill="#165C39" d="M-83.386,183.93l0.01-3.854l0.697,0.002l-0.001,0.387c0.095-0.141,0.209-0.246,0.345-0.316
			c0.135-0.068,0.291-0.104,0.469-0.104c0.283,0,0.493,0.08,0.63,0.236c0.138,0.158,0.205,0.396,0.204,0.719l-0.008,2.936
			l-0.712-0.002l0.007-2.586c0-0.262-0.033-0.439-0.1-0.533c-0.068-0.094-0.186-0.141-0.354-0.141
			c-0.156-0.002-0.275,0.045-0.355,0.145c-0.079,0.098-0.119,0.244-0.12,0.438l-0.007,2.676L-83.386,183.93z"/>
		<path fill="#165C39" d="M-80.512,183.938l1.436-3.229l-1.344-0.004l0.001-0.621l2.36,0.006l-1.448,3.213l1.328,0.004l-0.002,0.637
			L-80.512,183.938z"/>
		<path fill="#165C39" d="M-75.338,182.664l-0.001,0.051c0,0.404-0.104,0.723-0.309,0.955c-0.204,0.232-0.482,0.346-0.836,0.346
			c-0.432-0.002-0.748-0.162-0.947-0.482c-0.199-0.322-0.298-0.836-0.296-1.539c0.001-0.662,0.103-1.154,0.304-1.482
			c0.201-0.326,0.504-0.49,0.91-0.488c0.432,0,0.742,0.15,0.933,0.447s0.285,0.787,0.283,1.463l-0.001,0.223l-1.759-0.006v0.115
			c-0.001,0.402,0.043,0.695,0.135,0.877c0.09,0.182,0.235,0.273,0.433,0.273c0.159,0,0.279-0.063,0.362-0.188
			c0.081-0.123,0.128-0.311,0.136-0.561L-75.338,182.664z M-77.056,181.6l1.075,0.004l0.001-0.1c0-0.316-0.041-0.545-0.125-0.689
			c-0.082-0.141-0.217-0.213-0.401-0.213c-0.18,0-0.315,0.086-0.409,0.252C-77.008,181.023-77.054,181.271-77.056,181.6z"/>
		<path fill="#165C39" d="M-74.613,183.951l0.01-3.854l0.697,0.002l-0.001,0.387c0.095-0.141,0.209-0.244,0.345-0.314
			c0.135-0.07,0.291-0.105,0.469-0.105c0.283,0.002,0.492,0.08,0.629,0.236c0.138,0.158,0.205,0.396,0.205,0.719l-0.008,2.936
			h-0.712l0.007-2.586c0-0.262-0.033-0.441-0.101-0.535s-0.185-0.141-0.353-0.141c-0.156,0-0.275,0.047-0.355,0.145
			c-0.079,0.098-0.119,0.244-0.12,0.438l-0.007,2.676L-74.613,183.951z"/>
	</g>
	
		<image overflow="visible" width="1306" height="1489" xlink:href="CA17D2E9.jpg"  transform="matrix(0.0185 4.683729e-005 -4.683729e-005 0.0185 -124.9287 118.6094)">
	</image>
</g>
<g>
	<path fill-rule="evenodd" clip-rule="evenodd" fill="#175C39" d="M17.027,40.028c-2.59,0-5.155,0-7.755,0c0-4.895,0-9.781,0-14.712
		c2.566,0,5.142,0,7.755,0C17.027,30.195,17.027,35.083,17.027,40.028z"/>
	<path fill-rule="evenodd" clip-rule="evenodd" fill="#165C39" d="M24.667,25.289c2.602,0,5.165,0,7.772,0c0,4.909,0,9.813,0,14.735
		c-2.587,0-5.165,0-7.772,0C24.667,35.12,24.667,30.23,24.667,25.289z"/>
	<path fill-rule="evenodd" clip-rule="evenodd" fill="#165C39" d="M40.098,25.303c2.619,0,5.199,0,7.804,0c0,4.917,0,9.805,0,14.716
		c-2.606,0-5.189,0-7.804,0C40.098,35.12,40.098,30.23,40.098,25.303z"/>
	<path fill-rule="evenodd" clip-rule="evenodd" fill="#195C3A" d="M117.301,25.278c1.098,0,2.159-0.015,3.219,0.016
		c0.136,0.005,0.339,0.225,0.379,0.381c0.749,2.938,1.476,5.885,2.208,8.827c0.045,0.172,0.094,0.339,0.253,0.503
		c-0.059-3.22-0.119-6.439-0.183-9.693c0.821,0,1.665,0,2.538,0c0,4.895,0,9.769,0,14.683c-1.13,0-2.255,0-3.499,0
		c-0.808-3.367-1.631-6.792-2.456-10.223c-0.031,0.005-0.062,0.005-0.097,0.009c0.08,3.395,0.159,6.787,0.236,10.22
		c-0.863,0-1.714,0-2.599,0C117.301,35.116,117.301,30.228,117.301,25.278z"/>
	<path fill-rule="evenodd" clip-rule="evenodd" fill="#1C5D3B" d="M145.898,32.505c1.555,0.534,1.92,1.634,1.876,2.99
		c-0.028,0.876,0.004,1.761-0.01,2.639c-0.012,0.673,0.084,1.306,0.61,1.909c-1.013,0-1.932,0.009-2.854-0.012
		c-0.119-0.004-0.307-0.151-0.339-0.266c-0.119-0.417-0.246-0.845-0.26-1.271c-0.035-1.211-0.005-2.422-0.019-3.635
		c-0.007-0.859-0.3-1.178-1.155-1.243c-0.473-0.036-0.948-0.007-1.465-0.007c0,2.138,0,4.258,0,6.409c-0.954,0-1.861,0-2.802,0
		c0-4.892,0-9.78,0-14.733c0.545,0,1.071,0,1.595,0c1.303,0,2.605-0.002,3.906,0.001c1.685,0,2.493,0.646,2.637,2.323
		c0.096,1.069,0.032,2.16-0.063,3.231C147.463,31.875,147.067,32.23,145.898,32.505z M142.294,31.473
		c0.646-0.044,1.239-0.063,1.834-0.127c0.406-0.044,0.673-0.291,0.681-0.72c0.011-0.797,0.011-1.6-0.005-2.4
		c-0.01-0.466-0.347-0.688-0.749-0.719c-0.573-0.046-1.157-0.013-1.761-0.013C142.294,28.81,142.294,30.085,142.294,31.473z"/>
	<path fill-rule="evenodd" clip-rule="evenodd" fill="#185C3A" d="M118.434,60.146c-1.009,0-1.956,0-2.936,0
		c0-4.945,0-9.834,0-14.799c0.247,0,0.498,0,0.746,0c1.616,0,3.234-0.027,4.846,0.008c0.892,0.018,1.778,0.18,2.223,1.1
		c0.173,0.367,0.28,0.795,0.295,1.201c0.042,0.992,0.023,1.982,0.012,2.971c-0.02,1.084-0.521,1.678-1.651,1.916
		c0.213,0.111,0.381,0.189,0.547,0.277c0.807,0.418,1.195,1.105,1.214,1.994c0.017,1.137-0.005,2.273,0.007,3.414
		c0.005,0.66,0.105,1.303,0.681,1.875c-1.038,0-1.98,0.01-2.921-0.014c-0.112-0.002-0.293-0.172-0.318-0.287
		c-0.114-0.492-0.233-1-0.255-1.498c-0.049-1.23-0.03-2.459-0.07-3.689c-0.019-0.594-0.269-0.842-0.87-0.896
		c-0.488-0.053-0.984-0.057-1.548-0.082C118.434,55.85,118.434,58.02,118.434,60.146z M118.293,51.488
		c0.531,0,1.043,0.031,1.553-0.006c0.62-0.045,0.976-0.354,0.997-0.883c0.03-0.732,0.025-1.465,0-2.199
		c-0.017-0.502-0.313-0.818-0.828-0.844c-0.562-0.025-1.13-0.008-1.722-0.008C118.293,48.859,118.293,50.139,118.293,51.488z"/>
	<path fill-rule="evenodd" clip-rule="evenodd" fill="#195C3A" d="M96.023,32.477c0.055,0.06,0.083,0.121,0.127,0.133
		c1.168,0.402,1.598,1.294,1.615,2.443c0.015,1.064-0.041,2.132,0.018,3.193c0.035,0.592,0.238,1.17,0.373,1.795
		c-0.803,0-1.743,0.008-2.683-0.01c-0.1-0.004-0.255-0.15-0.282-0.257c-0.115-0.437-0.254-0.881-0.268-1.321
		c-0.036-1.193-0.008-2.387-0.019-3.578c-0.007-0.903-0.241-1.171-1.144-1.256c-0.469-0.044-0.946-0.007-1.468-0.007
		c0,2.123,0,4.241,0,6.397c-0.932,0-1.82,0-2.749,0c0-4.871,0-9.761,0-14.687c0.097-0.012,0.217-0.038,0.337-0.038
		c1.743-0.001,3.488-0.047,5.228,0.022c0.585,0.024,1.2,0.261,1.727,0.537c0.527,0.278,0.729,0.858,0.739,1.448
		c0.025,1.15,0.048,2.301,0.02,3.45C97.573,31.734,97.001,32.297,96.023,32.477z M92.29,31.434c0.525,0,1,0.021,1.473-0.006
		c0.775-0.039,1.048-0.303,1.088-1.071c0.033-0.641,0.028-1.283,0.008-1.923c-0.02-0.511-0.269-0.894-0.811-0.934
		c-0.574-0.043-1.158-0.008-1.758-0.008C92.29,28.816,92.29,30.092,92.29,31.434z"/>
	<path fill-rule="evenodd" clip-rule="evenodd" fill="#1A5D3A" d="M101.723,60.082c-0.934,0-1.828,0-2.775,0
		c0-2.229,0-4.439,0-6.672c-0.816,0-1.58,0-2.392,0c0,2.203,0,4.41,0,6.654c-0.951,0-1.858,0-2.776,0c0-4.9,0-9.795,0-14.708
		c0.915,0,1.807,0,2.746,0c0,1.919,0,3.819,0,5.747c0.809,0,1.571,0,2.388,0c0-1.898,0-3.797,0-5.73c0.956,0,1.863,0,2.81,0
		C101.723,50.254,101.723,55.143,101.723,60.082z"/>
	<path fill-rule="evenodd" clip-rule="evenodd" fill="#1A5C3A" d="M77.986,25.289c0.915,0,1.79,0,2.717,0c0,1.911,0,3.811,0,5.761
		c0.824,0,1.598,0,2.427,0c0-1.899,0-3.802,0-5.739c0.958,0,1.865,0,2.812,0c0,4.892,0,9.782,0,14.697c-0.924,0-1.831,0-2.777,0
		c0-2.222,0-4.419,0-6.653c-0.815,0-1.593,0-2.423,0c0,2.201,0,4.409,0,6.653c-0.939,0-1.829,0-2.755,0
		C77.986,35.12,77.986,30.23,77.986,25.289z"/>
	<path fill-rule="evenodd" clip-rule="evenodd" fill="#1A5D3A" d="M149.622,60.113c-0.865,0.137-1.633,0.154-1.712-0.871
		c-0.644,0.35-1.229,0.846-1.891,0.988c-2.371,0.51-4.311-0.898-4.346-3.357c-0.037-2.627,0.019-5.248-0.014-7.871
		c-0.035-2.604,1.967-4.019,4.383-3.73c2.276,0.273,3.457,1.711,3.462,4.016c0,0.311,0,0.619,0,0.967c-0.84,0-1.656,0-2.481,0
		c-0.092-0.574-0.143-1.172-0.293-1.746c-0.198-0.787-0.563-1.018-1.345-0.973c-0.597,0.037-0.849,0.311-0.996,1.086
		c-0.038,0.201-0.061,0.402-0.063,0.604c-0.002,2.424-0.002,4.844,0.005,7.268c0,0.973,0.28,1.41,0.961,1.555
		c0.777,0.172,1.443-0.248,1.542-1.041c0.098-0.738,0.109-1.488,0.166-2.287c-0.62,0-1.158,0-1.729,0c0-0.693,0-1.328,0-2.014
		c1.436,0,2.87,0,4.351,0C149.622,55.152,149.622,57.617,149.622,60.113z"/>
	<path fill-rule="evenodd" clip-rule="evenodd" fill="#1A5D3A" d="M55.712,34.845c0.15-0.016,0.275-0.042,0.4-0.044
		c0.784-0.002,1.568,0,2.45,0c0,0.821-0.021,1.589,0.007,2.352c0.022,0.648,0.331,0.959,0.92,1.01
		c0.97,0.082,1.375-0.086,1.488-0.781c0.105-0.643,0.112-1.309,0.08-1.962c-0.03-0.587-0.446-0.987-0.902-1.304
		c-0.775-0.536-1.554-1.07-2.362-1.551c-1.722-1.034-2.128-2.612-1.947-4.471c0.205-2.113,1.681-2.956,3.481-3.038
		c0.632-0.029,1.288-0.016,1.9,0.117c1.633,0.355,2.438,1.373,2.508,3.05c0.019,0.458,0.002,0.916,0.002,1.417
		c-0.924,0-1.83,0-2.773,0c-0.023-0.484-0.078-0.99-0.066-1.497c0.016-0.602-0.401-0.994-1.033-0.994
		c-0.777,0-1.191,0.266-1.276,0.968c-0.119,0.997,0.056,1.855,1.026,2.453c1.064,0.656,2.077,1.402,3.07,2.164
		c0.784,0.603,1.241,1.405,1.186,2.456c-0.038,0.693-0.002,1.395-0.008,2.091c-0.012,1.4-0.822,2.49-2.171,2.857
		c-1.22,0.329-2.459,0.329-3.68-0.006c-1.389-0.381-2.209-1.391-2.29-2.846C55.674,36.484,55.712,35.678,55.712,34.845z"/>
	<path fill-rule="evenodd" clip-rule="evenodd" fill="#195D3A" d="M62.582,49.721c-0.96,0-1.851,0-2.76,0
		c-0.031-0.551-0.067-1.078-0.084-1.609c-0.014-0.523-0.303-0.795-0.785-0.889c-0.678-0.127-1.192,0.094-1.402,0.576
		c-0.42,0.977-0.091,2.088,0.786,2.707c1.098,0.775,2.207,1.527,3.267,2.352c0.807,0.625,1.195,1.484,1.121,2.543
		c-0.041,0.639,0,1.285-0.009,1.924c-0.024,1.43-0.795,2.486-2.158,2.869c-1.261,0.35-2.537,0.352-3.788-0.035
		c-1.366-0.424-2.119-1.379-2.196-2.805c-0.043-0.803-0.006-1.609-0.006-2.457c0.932,0,1.841,0,2.852,0
		c0,0.803-0.031,1.586,0.008,2.365c0.033,0.66,0.339,0.934,0.957,0.971c0.972,0.057,1.345-0.119,1.454-0.828
		c0.096-0.607,0.118-1.24,0.087-1.857c-0.03-0.598-0.421-1.027-0.909-1.354c-0.766-0.516-1.511-1.07-2.307-1.533
		c-1.808-1.047-2.204-2.674-2.001-4.59c0.217-2.023,1.661-2.784,3.281-2.958c1.069-0.114,2.115-0.042,3.09,0.479
		c1.019,0.546,1.423,1.463,1.497,2.557C62.609,48.658,62.582,49.17,62.582,49.721z"/>
	<path fill-rule="evenodd" clip-rule="evenodd" fill="#1A5D3A" d="M74.961,30.762c-0.956,0-1.833,0-2.798,0
		c0-0.608,0.002-1.205-0.001-1.802c0-0.203,0-0.404-0.026-0.6c-0.114-0.915-0.476-1.233-1.353-1.202
		c-0.755,0.023-1.128,0.439-1.138,1.361c-0.02,1.631-0.007,3.266-0.007,4.9c0,1.119-0.015,2.236,0.005,3.358
		c0.018,1.061,0.461,1.449,1.501,1.381c0.584-0.037,0.899-0.311,0.964-0.908c0.051-0.452,0.045-0.91,0.054-1.367
		c0.009-0.438,0.001-0.879,0.001-1.367c0.92,0,1.825,0,2.895,0c-0.1,1.257-0.105,2.517-0.324,3.74
		c-0.171,0.953-0.933,1.539-1.854,1.822c-1.497,0.465-2.994,0.41-4.44-0.195c-1.042-0.434-1.593-1.277-1.603-2.389
		c-0.027-3.12-0.028-6.24,0-9.359c0.015-1.687,1.261-2.927,3.082-3.066c0.832-0.062,1.692-0.042,2.511,0.1
		c1.597,0.278,2.364,1.101,2.515,2.691C75.033,28.801,74.961,29.757,74.961,30.762z"/>
	<path fill-rule="evenodd" clip-rule="evenodd" fill="#195C3A" d="M90.712,50.811c-0.916,0-1.805,0-2.78,0
		c0-0.795,0.017-1.578-0.003-2.361c-0.021-0.926-0.749-1.445-1.642-1.209c-0.546,0.143-0.873,0.588-0.876,1.305
		c-0.014,2.771-0.02,5.543,0,8.314c0.011,1.068,0.66,1.561,1.704,1.352c0.478-0.096,0.8-0.504,0.813-1.088
		c0.016-0.842,0.003-1.682,0.003-2.559c0.949,0,1.855,0,2.748,0c0,1.104,0.082,2.186-0.02,3.254
		c-0.128,1.311-1.025,2.15-2.489,2.463c-1.197,0.262-2.397,0.205-3.565-0.182c-1.335-0.441-1.973-1.354-1.97-2.754
		c0-2.953,0.033-5.91-0.013-8.863c-0.038-2.17,1.353-3.148,3.125-3.352c0.823-0.092,1.688-0.029,2.506,0.107
		c1.548,0.25,2.34,1.139,2.446,2.689C90.764,48.873,90.712,49.83,90.712,50.811z"/>
	<path fill-rule="evenodd" clip-rule="evenodd" fill="#195D3A" d="M133.459,56.934c-0.159,1.078-0.313,2.139-0.468,3.201
		c-0.879,0-1.717,0-2.629,0c0.947-4.922,1.888-9.795,2.823-14.674c1.127,0,2.21,0,3.347,0c0.94,4.877,1.883,9.75,2.833,14.658
		c-0.88,0-1.733,0-2.634,0c-0.154-1.045-0.312-2.1-0.475-3.186C135.323,56.934,134.395,56.934,133.459,56.934z M135.871,54.627
		c-0.307-1.84-0.611-3.643-0.915-5.447c-0.067,0.002-0.131,0.008-0.196,0.014c-0.302,1.799-0.602,3.602-0.907,5.434
		C134.53,54.627,135.167,54.627,135.871,54.627z"/>
	<path fill-rule="evenodd" clip-rule="evenodd" fill="#185C39" d="M68.595,54.029c0,2.041,0,4.016,0,6.031c-0.93,0-1.835,0-2.773,0
		c0-4.875,0-9.758,0-14.684c0.167-0.01,0.329-0.029,0.489-0.029c1.613,0,3.226,0.006,4.838,0c1.903-0.006,2.586,0.893,2.655,2.529
		c0.061,1.422-0.013,2.852-0.092,4.275c-0.06,1.063-0.711,1.674-1.766,1.773c-0.635,0.057-1.276,0.078-1.917,0.1
		C69.57,54.041,69.114,54.029,68.595,54.029z M68.61,47.65c0,1.436,0,2.797,0,4.186c0.563,0,1.095,0.018,1.621-0.004
		c0.54-0.02,0.833-0.314,0.845-0.865c0.016-0.818,0.019-1.646-0.003-2.465c-0.013-0.467-0.237-0.816-0.743-0.846
		C69.764,47.629,69.199,47.65,68.61,47.65z"/>
	<path fill-rule="evenodd" clip-rule="evenodd" fill="#1D5E3B" d="M112.471,45.385c0,0.768,0,1.498,0,2.271
		c-1.459,0-2.896,0-4.364,0c0,1.143,0,2.234,0,3.379c1.345,0,2.694,0,4.074,0c0,0.795,0,1.537,0,2.313c-1.352,0-2.688,0-4.063,0
		c0,1.475,0,2.912,0,4.4c1.49,0,3.001,0,4.547,0c0,0.795,0,1.537,0,2.322c-2.428,0-4.877,0-7.361,0c0-4.875,0-9.762,0-14.686
		C107.679,45.385,110.053,45.385,112.471,45.385z"/>
	<path fill-rule="evenodd" clip-rule="evenodd" fill="#1A5D3A" d="M153.688,33.297c0,1.514,0,2.941,0,4.405c1.522,0,3.024,0,4.565,0
		c0,0.792,0,1.55,0,2.325c-2.446,0-4.884,0-7.358,0c0-4.885,0-9.773,0-14.705c2.388,0,4.778,0,7.197,0c0,0.744,0,1.47,0,2.253
		c-1.448,0-2.903,0-4.396,0c0,1.15,0,2.24,0,3.387c1.348,0,2.692,0,4.075,0c0,0.799,0,1.537,0,2.334
		C156.429,33.297,155.079,33.297,153.688,33.297z"/>
	<path fill-rule="evenodd" clip-rule="evenodd" fill="#185C39" d="M107.781,33.315c-1.387,0-2.723,0-4.091,0
		c0,1.463,0,2.904,0,4.396c1.529,0,3.04,0,4.579,0c0,0.796,0,1.539,0,2.311c-2.451,0-4.901,0-7.38,0c0-4.893,0-9.779,0-14.701
		c2.384,0,4.761,0,7.184,0c0,0.726,0,1.465,0,2.255c-1.434,0-2.891,0-4.378,0c0,1.157,0,2.262,0,3.41c1.361,0,2.708,0,4.086,0
		C107.781,31.769,107.781,32.509,107.781,33.315z"/>
	<path fill-rule="evenodd" clip-rule="evenodd" fill="#175C39" d="M129.279,40.01c0-4.9,0-9.775,0-14.689c2.381,0,4.753,0,7.169,0
		c0,0.742,0,1.481,0,2.272c-1.445,0-2.902,0-4.386,0c0,1.143,0,2.236,0,3.386c1.368,0,2.734,0,4.124,0c0,0.792,0,1.534,0,2.313
		c-1.375,0-2.725,0-4.114,0c0,1.479,0,2.916,0,4.409c1.499,0,3.013,0,4.554,0c0,0.793,0,1.533,0,2.311
		C134.196,40.01,131.768,40.01,129.279,40.01z"/>
	<path fill-rule="evenodd" clip-rule="evenodd" fill="#165C39" d="M111.138,25.291c0.905,0,1.78,0,2.688,0c0,4.901,0,9.79,0,14.709
		c-0.877,0-1.766,0-2.688,0C111.138,35.12,111.138,30.23,111.138,25.291z"/>
	<path fill-rule="evenodd" clip-rule="evenodd" fill="#165C39" d="M161.135,25.291c0.91,0,1.784,0,2.694,0c0,4.904,0,9.791,0,14.711
		c-0.882,0-1.772,0-2.694,0C161.135,35.12,161.135,30.23,161.135,25.291z"/>
	<path fill-rule="evenodd" clip-rule="evenodd" fill="#165C39" d="M79.306,60.082c-0.905,0-1.783,0-2.69,0c0-4.9,0-9.785,0-14.709
		c0.878,0,1.766,0,2.69,0C79.306,50.254,79.306,55.143,79.306,60.082z"/>
</g>
<g>
	<g>
		<path fill="#44714E" d="M260.404,8.537c0,1.561,1.275,2.836,2.835,2.836h51.241c1.559,0,2.834-1.275,2.834-2.836V0.394
			c0-1.56-1.275-2.835-2.834-2.835h-51.241c-1.56,0-2.835,1.275-2.835,2.835V8.537z"/>
	</g>
	<g>
		<path fill="#0C7741" d="M321.455,8.642c0,1.559,1.275,2.834,2.834,2.834h20.032c1.56,0,2.835-1.275,2.835-2.834V0.498
			c0-1.559-1.275-2.834-2.835-2.834h-20.032c-1.559,0-2.834,1.276-2.834,2.834V8.642z"/>
	</g>
	<g>
		<path fill="#286E4A" d="M351.241,8.695c0,1.559,1.275,2.834,2.835,2.834h42.43c1.56,0,2.835-1.275,2.835-2.834V0.447
			c0-1.56-1.275-2.835-2.835-2.835h-42.43c-1.56,0-2.835,1.275-2.835,2.835V8.695z"/>
	</g>
	<text transform="matrix(1 0 0 1 261.2393 18.4092)" fill="#145C38" font-family="'HelveticaNeue-LightExt'" font-size="5.8718">MALERGESCHÄFT</text>
	<g>
		<defs>
			<rect id="SVGID_1_" x="248.323" y="-39.444" width="178.322" height="89.147"/>
		</defs>
		<clipPath id="SVGID_2_">
			<use xlink:href="#SVGID_1_"  overflow="visible"/>
		</clipPath>
		<g clip-path="url(#SVGID_2_)">
			
				<text transform="matrix(1 0 0 1 259.8711 -4.5732)" fill="none" stroke="#006340" stroke-width="0" stroke-linejoin="round" stroke-miterlimit="1" font-family="'HelveticaNeue-LightExt'" font-size="21.495">PIANI</text>
		</g>
	</g>
	<text transform="matrix(1 0 0 1 259.8711 -4.5732)" fill="#145C38" font-family="'HelveticaNeue-LightExt'" font-size="21.495">PIANI</text>
	<g>
		<defs>
			<rect id="SVGID_3_" x="248.323" y="-39.444" width="178.322" height="89.147"/>
		</defs>
		<clipPath id="SVGID_4_">
			<use xlink:href="#SVGID_3_"  overflow="visible"/>
		</clipPath>
		<g clip-path="url(#SVGID_4_)">
			
				<text transform="matrix(1 0 0 1 317.1768 -4.5723)" fill="none" stroke="#006340" stroke-width="0" stroke-linejoin="round" stroke-miterlimit="12" font-family="'HelveticaNeue-ThinExt'" font-size="24.1164"> </text>
		</g>
	</g>
	<text transform="matrix(1 0 0 1 317.1768 -4.5723)" fill="#4A4A49" font-family="'HelveticaNeue-ThinExt'" font-size="24.1164"> </text>
	<g>
		<defs>
			<rect id="SVGID_5_" x="248.323" y="-39.444" width="178.322" height="89.147"/>
		</defs>
		<clipPath id="SVGID_6_">
			<use xlink:href="#SVGID_5_"  overflow="visible"/>
		</clipPath>
		<g clip-path="url(#SVGID_6_)">
			
				<text transform="matrix(1 0 0 1 317.8516 -4.5732)" fill="none" stroke="#006340" stroke-width="0" stroke-linejoin="round" stroke-miterlimit="12" font-family="'HelveticaNeue-ThinExt'" font-size="25.1649"> </text>
		</g>
	</g>
	<text transform="matrix(1 0 0 1 317.8516 -4.5732)" fill="#4A4A49" font-family="'HelveticaNeue-ThinExt'" font-size="25.1649"> </text>
	<g>
		<defs>
			<rect id="SVGID_7_" x="248.323" y="-39.444" width="178.322" height="89.147"/>
		</defs>
		<clipPath id="SVGID_8_">
			<use xlink:href="#SVGID_7_"  overflow="visible"/>
		</clipPath>
		<g clip-path="url(#SVGID_8_)">
			
				<text transform="matrix(1 0 0 1 317.8516 -4.5732)" fill="none" stroke="#006340" stroke-width="0" stroke-linejoin="round" stroke-miterlimit="12" font-family="'HelveticaNeue-ThinExt'" font-size="26.2134"> </text>
		</g>
		<g clip-path="url(#SVGID_8_)">
			
				<text transform="matrix(1 0 0 1 317.8516 -4.5732)" fill="none" stroke="#006340" stroke-width="0" stroke-linejoin="round" stroke-miterlimit="12" font-family="'HelveticaNeue-ThinExt'" font-size="26.2134"> </text>
		</g>
	</g>
	<text transform="matrix(1 0 0 1 317.8516 -4.5732)" fill="#4A4A49" font-family="'HelveticaNeue-ThinExt'" font-size="26.2134"> </text>
	<text transform="matrix(1 0 0 1 317.8516 -4.5732)" fill="#4A4A49" font-family="'HelveticaNeue-ThinExt'" font-size="26.2134"> </text>
	<text transform="matrix(1 0 0 1 322.96 18.3271)" fill="#145C38" font-family="'HelveticaNeue-LightExt'" font-size="5.767">BRUGG</text>
	<text transform="matrix(1 0 0 1 352.5762 18.3271)" fill="#145C38" font-family="'HelveticaNeue-LightExt'" font-size="5.767">WWW</text>
	<text transform="matrix(1 0 0 1 370.5273 18.3271)" fill="#145C38" font-family="'HelveticaNeue-LightExt'" font-size="5.767">.PIANI.CH</text>
</g>
</svg>
