<?xml version="1.0" encoding="utf-8"?>
<!-- Generator: Adobe Illustrator 19.1.0, SVG Export Plug-In . SVG Version: 6.00 Build 0)  -->
<svg version="1.1" id="Ebene_1" xmlns="http://www.w3.org/2000/svg" xmlns:xlink="http://www.w3.org/1999/xlink" x="0px" y="0px"
	 viewBox="0 0 365.7 32.1" style="enable-background:new 0 0 365.7 32.1;" xml:space="preserve">
<style type="text/css">
	.st0{fill:#E7A135;}
	.st1{fill:#F4D236;}
	.st2{fill:none;stroke:#E7A135;stroke-width:1.504;stroke-linecap:round;stroke-linejoin:round;stroke-dasharray:0,5.09;}
	.st3{fill:none;stroke:#E7A135;stroke-width:1.504;stroke-linecap:round;stroke-linejoin:round;stroke-dasharray:0,5.118;}
	.st4{fill:none;stroke:#E7A135;stroke-width:1.504;stroke-linecap:round;stroke-linejoin:round;}
	.st5{fill:none;stroke:#F4D236;stroke-width:1.504;stroke-linecap:round;stroke-linejoin:round;stroke-dasharray:0,4.786;}
	.st6{fill:none;stroke:#F4D236;stroke-width:1.504;stroke-linecap:round;stroke-linejoin:round;}
</style>
<g>
	<path class="st0" d="M183.9,20.1c1,0,1.8,0.5,2.3,1.3l2.8,0v-1.5c0-0.6-0.5-1-1-1h-10.4c-0.6,0-1,0.4-1,1l0,1.5l5,0
		C182.1,20.6,182.9,20.1,183.9,20.1"/>
</g>
<polygon class="st0" points="178.3,18.4 178.2,18.8 179.3,18.8 179.2,18.4 "/>
<polygon class="st0" points="186.3,18.3 186.1,18.8 187.8,18.8 187.6,18.3 "/>
<path class="st0" d="M182.3,18.1h1.1v0.5h-1.1V18.1z M181.3,17.9l-0.6,0.9h4.2l-0.6-0.9H181.3z"/>
<g>
	<path class="st0" d="M186.4,21.7c0.2,0.3,0.2,0.7,0.2,1.1c0,1.5-1.2,2.7-2.7,2.7c-1.5,0-2.7-1.2-2.7-2.7c0-0.4,0.1-0.8,0.2-1.1
		h-4.8v4.1c0,0.6,0.4,1,1,1H188c0.6,0,1-0.4,1-1l0-4.1H186.4z"/>
	<path class="st0" d="M185.4,21.9c0-0.1-0.1-0.1-0.2-0.2c-0.3-0.4-0.8-0.6-1.3-0.6c-0.5,0-1,0.2-1.3,0.6c-0.1,0.1-0.1,0.1-0.2,0.2
		c-0.2,0.3-0.3,0.6-0.3,0.9c0,0.9,0.8,1.7,1.7,1.7c1,0,1.7-0.8,1.7-1.7C185.7,22.4,185.6,22.1,185.4,21.9"/>
</g>
<rect x="158.7" y="4.5" class="st1" width="6.7" height="7.8"/>
<rect x="172.1" y="4.5" class="st1" width="6.7" height="7.8"/>
<rect x="185.5" y="4.5" class="st1" width="6.7" height="7.8"/>
<rect x="198.8" y="4.5" class="st1" width="6.7" height="7.8"/>
<polygon class="st0" points="145.3,12.3 152,12.3 152,4.5 146.7,4.5 "/>
<polygon class="st0" points="220.4,12.3 212.2,12.3 212.2,4.5 215.4,4.5 "/>
<rect x="75.2" y="30.4" class="st0" width="32.9" height="1.7"/>
<g>
	<path class="st1" d="M158.1,22.6l10.5-3.5c0,0-0.8,2-0.8,3.5v0.1c0,1.6,0.9,3.5,0.9,3.5L158.1,22.6L158.1,22.6z M172.4,16.4
		l-17.2,6.2l17.2,6.1c-1.2-1.2-2.9-3-2.9-6.1C169.5,20.7,170.3,18.2,172.4,16.4"/>
	<path class="st0" d="M166.6,22.6c0-0.6-0.5-1.1-1.1-1.1c-0.6,0-1.1,0.5-1.1,1.1s0.5,1.1,1.1,1.1C166.1,23.7,166.6,23.2,166.6,22.6"
		/>
</g>
<path class="st1" d="M117.1,26.5l2.2-2.2h-9.7v4.2l9.6,0L117.1,26.5z M120.7,24.4l2.2,2.2l-2.1,2.1l20.3,0l-2.1-2.1l2.2-2.2H120.7z
	 M153.9,24.4h-11.2l2.2,2.2l-2.1,2.1l22.4,0"/>
<rect x="118.7" y="25.3" transform="matrix(-0.7071 -0.7071 0.7071 -0.7071 186.0757 130.1572)" class="st0" width="2.6" height="2.6"/>
<rect x="140.7" y="25.3" transform="matrix(-0.7071 -0.7071 0.7071 -0.7071 223.6369 145.7159)" class="st0" width="2.6" height="2.6"/>
<path class="st1" d="M117.1,18.4l2.2,2.2h-9.7v-4.2l9.6,0L117.1,18.4z M120.7,20.5l2.2-2.2l-2.1-2.1l20.3,0l-2.1,2.1l2.2,2.2H120.7z
	 M153.9,20.5h-11.2l2.2-2.2l-2.1-2.1l22.4,0"/>
<rect x="118.7" y="17.1" transform="matrix(-0.7071 0.7071 -0.7071 -0.7071 217.8358 -53.4815)" class="st0" width="2.6" height="2.6"/>
<rect x="140.7" y="17.1" transform="matrix(-0.7071 0.7071 -0.7071 -0.7071 255.3971 -69.0402)" class="st0" width="2.6" height="2.6"/>
<g>
	<path class="st1" d="M11.3,20.3c-0.9,0-1.6-0.7-1.6-1.6c0-0.9,0.7-1.6,1.6-1.6c0.9,0,1.6,0.7,1.6,1.6
		C12.9,19.6,12.2,20.3,11.3,20.3"/>
	<path class="st0" d="M43.8,7.2c-0.6,0-1-0.5-1-1c0-0.6,0.5-1,1-1c0.6,0,1,0.5,1,1C44.8,6.7,44.3,7.2,43.8,7.2"/>
	<path class="st0" d="M43.8,12.5c-0.6,0-1-0.5-1-1c0-0.6,0.5-1,1-1c0.6,0,1,0.5,1,1C44.8,12,44.3,12.5,43.8,12.5"/>
	<path class="st0" d="M43.8,18.5c-0.6,0-1-0.5-1-1c0-0.6,0.5-1,1-1c0.6,0,1,0.5,1,1C44.8,18.1,44.3,18.5,43.8,18.5"/>
	<path class="st1" d="M32,22.8h-8.1c0.6-5.1,3.8-9.5,8.3-11.6L32,22.8z"/>
	<path class="st0" d="M3.3,24.2h12.3C15.8,11,26.5,0.2,39.8,0.2l49.8-0.1v4H39.8c-11.2,0.1-20.3,9.2-20.3,20.4v3.7H0L3.3,24.2z"/>
</g>
<rect x="34.8" y="5.8" class="st0" width="5" height="2.4"/>
<rect x="34.8" y="10.1" class="st1" width="5" height="2.4"/>
<rect x="34.8" y="14.5" class="st0" width="5" height="2.4"/>
<rect x="34.8" y="18.8" class="st1" width="5" height="2.4"/>
<rect x="34.8" y="23.2" class="st0" width="5" height="2.4"/>
<rect x="34.8" y="27.5" class="st1" width="5" height="2.4"/>
<g>
	<path class="st0" d="M43.4,26c0,0.7,0.5,1.2,1.2,1.2c0.7,0,1.2-0.5,1.2-1.2c0-0.7-0.5-1.2-1.2-1.2C44,24.8,43.4,25.4,43.4,26
		 M42.1,29.4v-7.5l8.8,4v3.5H42.1z"/>
</g>
<rect x="85.9" y="0" class="st0" width="3.8" height="13.5"/>
<rect x="85.9" y="9.9" class="st0" width="41.5" height="3.8"/>
<rect x="23.8" y="25.1" class="st0" width="8.2" height="2.8"/>
<rect x="66.9" y="21.4" transform="matrix(-0.7071 -0.7071 0.7071 -0.7071 100.7279 88.0692)" class="st0" width="3.5" height="3.5"/>
<g>
	<path class="st1" d="M83.6,21.6c-0.8-7.6-7.2-13.6-15-13.6s-14.2,5.9-15,13.6h1.9C56.3,15.1,61.8,10,68.6,10
		c6.8,0,12.3,5.1,13.1,11.6H83.6z"/>
	<path class="st1" d="M74.4,23.2c0,3.2-2.6,5.8-5.8,5.8s-5.8-2.6-5.8-5.8s2.6-5.8,5.8-5.8S74.4,20,74.4,23.2 M76.3,23.2
		c0-4.2-3.4-7.7-7.7-7.7s-7.7,3.4-7.7,7.7s3.4,7.7,7.7,7.7S76.3,27.4,76.3,23.2"/>
	<path class="st2" d="M77.3,17c-1.5-2.1-3.6-3.6-6.2-4.2"/>
	<path class="st3" d="M63.7,13.7c-2.3,1.2-4.1,3.2-5,5.6"/>
	<path class="st4" d="M58,21.8L58,21.8 M68.6,12.5L68.6,12.5 M79.2,21.7L79.2,21.7"/>
</g>
<rect x="81.7" y="21.5" class="st1" width="26.4" height="1.7"/>
<rect x="81.7" y="24.4" class="st0" width="26.4" height="1.7"/>
<rect x="85.8" y="16.3" class="st0" width="22.3" height="1.7"/>
<line class="st5" x1="84.1" y1="28.3" x2="105.6" y2="28.3"/>
<path class="st6" d="M108,28.3L108,28.3 M79.3,28.3L79.3,28.3"/>
<g>
	<path class="st1" d="M207.6,22.6l-10.5-3.5c0,0,0.8,2,0.8,3.5v0.1c0,1.6-0.9,3.5-0.9,3.5L207.6,22.6L207.6,22.6z M193.3,16.4
		l17.2,6.2l-17.2,6.1c1.2-1.2,2.9-3,2.9-6.1C196.2,20.7,195.4,18.2,193.3,16.4"/>
	<path class="st0" d="M199.1,22.6c0-0.6,0.5-1.1,1.1-1.1c0.6,0,1.1,0.5,1.1,1.1s-0.5,1.1-1.1,1.1C199.6,23.7,199.1,23.2,199.1,22.6"
		/>
</g>
<path class="st1" d="M248.6,26.5l-2.2-2.2h9.7v4.2l-9.6,0L248.6,26.5z M244.9,24.4l-2.2,2.2l2.1,2.1l-20.3,0l2.1-2.1l-2.2-2.2H244.9
	z M211.8,24.4h11.2l-2.2,2.2l2.1,2.1l-22.4,0"/>
<rect x="244.4" y="25.3" transform="matrix(0.7071 -0.7071 0.7071 0.7071 53.1888 181.4915)" class="st0" width="2.6" height="2.6"/>
<rect x="222.4" y="25.3" transform="matrix(0.7071 -0.7071 0.7071 0.7071 46.7443 165.933)" class="st0" width="2.6" height="2.6"/>
<path class="st1" d="M248.6,18.4l-2.2,2.2h9.7v-4.2l-9.6,0L248.6,18.4z M244.9,20.5l-2.2-2.2l2.1-2.1l-20.3,0l2.1,2.1l-2.2,2.2
	H244.9z M211.8,20.5h11.2l-2.2-2.2l2.1-2.1l-22.4,0"/>
<rect x="244.4" y="17.1" transform="matrix(0.7071 0.7071 -0.7071 0.7071 84.9488 -168.336)" class="st0" width="2.6" height="2.6"/>
<rect x="222.4" y="17.1" transform="matrix(0.7071 0.7071 -0.7071 0.7071 78.5043 -152.7776)" class="st0" width="2.6" height="2.6"/>
<g>
	<path class="st1" d="M354.3,20.3c0.9,0,1.6-0.7,1.6-1.6c0-0.9-0.7-1.6-1.6-1.6c-0.9,0-1.6,0.7-1.6,1.6
		C352.8,19.6,353.5,20.3,354.3,20.3"/>
	<path class="st0" d="M321.9,7.2c0.6,0,1-0.5,1-1c0-0.6-0.5-1-1-1c-0.6,0-1,0.5-1,1C320.9,6.7,321.3,7.2,321.9,7.2"/>
	<path class="st0" d="M321.9,12.5c0.6,0,1-0.5,1-1c0-0.6-0.5-1-1-1c-0.6,0-1,0.5-1,1C320.9,12,321.3,12.5,321.9,12.5"/>
	<path class="st0" d="M321.9,18.5c0.6,0,1-0.5,1-1c0-0.6-0.5-1-1-1c-0.6,0-1,0.5-1,1C320.9,18.1,321.3,18.5,321.9,18.5"/>
	<path class="st1" d="M333.6,22.8h8.1c-0.6-5.1-3.8-9.5-8.3-11.6L333.6,22.8z"/>
	<path class="st0" d="M362.4,24.2h-12.3c-0.1-13.3-10.9-24-24.2-24.1l-49.8-0.1v4h49.8c11.2,0.1,20.3,9.2,20.3,20.4v3.7h19.5
		L362.4,24.2z"/>
</g>
<rect x="325.9" y="5.8" class="st0" width="5" height="2.4"/>
<rect x="325.9" y="10.1" class="st1" width="5" height="2.4"/>
<rect x="325.9" y="14.5" class="st0" width="5" height="2.4"/>
<rect x="325.9" y="18.8" class="st1" width="5" height="2.4"/>
<rect x="325.9" y="23.2" class="st0" width="5" height="2.4"/>
<rect x="325.9" y="27.5" class="st1" width="5" height="2.4"/>
<g>
	<path class="st0" d="M322.2,26c0,0.7-0.5,1.2-1.2,1.2c-0.7,0-1.2-0.5-1.2-1.2c0-0.7,0.5-1.2,1.2-1.2
		C321.7,24.8,322.2,25.4,322.2,26 M323.6,29.4v-7.5l-8.8,4v3.5H323.6z"/>
</g>
<rect x="276" y="0" class="st0" width="3.8" height="13.5"/>
<rect x="238.3" y="9.9" class="st0" width="41.5" height="3.8"/>
<rect x="333.6" y="25.1" class="st0" width="8.2" height="2.8"/>
<rect x="295.3" y="21.4" transform="matrix(0.7071 -0.7071 0.7071 0.7071 70.6218 216.8432)" class="st0" width="3.5" height="3.5"/>
<g>
	<path class="st1" d="M282,21.6c0.8-7.6,7.2-13.6,15-13.6s14.2,5.9,15,13.6h-1.9c-0.8-6.6-6.3-11.6-13.1-11.6
		c-6.8,0-12.3,5.1-13.1,11.6H282z"/>
	<path class="st1" d="M291.3,23.2c0,3.2,2.6,5.8,5.8,5.8c3.2,0,5.8-2.6,5.8-5.8s-2.6-5.8-5.8-5.8C293.9,17.4,291.3,20,291.3,23.2
		 M289.4,23.2c0-4.2,3.4-7.7,7.7-7.7c4.2,0,7.7,3.4,7.7,7.7s-3.4,7.7-7.7,7.7C292.8,30.9,289.4,27.4,289.4,23.2"/>
	<path class="st2" d="M288.4,17c1.5-2.1,3.6-3.6,6.2-4.2"/>
	<path class="st3" d="M302,13.7c2.3,1.2,4.1,3.2,5,5.6"/>
	<path class="st4" d="M307.6,21.8L307.6,21.8 M297.1,12.5L297.1,12.5 M286.5,21.7L286.5,21.7"/>
</g>
<rect x="257.5" y="21.5" class="st1" width="26.4" height="1.7"/>
<rect x="257.5" y="24.4" class="st0" width="26.4" height="1.7"/>
<rect x="257.5" y="16.3" class="st0" width="22.3" height="1.7"/>
<line class="st5" x1="281.6" y1="28.3" x2="260.1" y2="28.3"/>
<path class="st6" d="M257.7,28.3L257.7,28.3 M286.4,28.3L286.4,28.3"/>
<rect x="257.6" y="29.7" class="st0" width="32.9" height="1.7"/>
</svg>
