<?xml version="1.0" encoding="utf-8"?>
<!-- Generator: Adobe Illustrator 15.1.0, SVG Export Plug-In . SVG Version: 6.00 Build 0)  -->
<!DOCTYPE svg PUBLIC "-//W3C//DTD SVG 1.1//EN" "http://www.w3.org/Graphics/SVG/1.1/DTD/svg11.dtd">
<svg version="1.1" id="Ebene_1" xmlns="http://www.w3.org/2000/svg" xmlns:xlink="http://www.w3.org/1999/xlink" x="0px" y="0px"
	 width="2834.65px" height="248.816px" viewBox="0 296.537 2834.65 248.816" enable-background="new 0 296.537 2834.65 248.816"
	 xml:space="preserve">
<rect x="1230.131" y="331.418" fill="#F4D236" width="51.934" height="60.46"/>
<rect x="1333.999" y="331.418" fill="#F4D236" width="51.934" height="60.46"/>
<rect x="1437.866" y="331.418" fill="#F4D236" width="51.934" height="60.46"/>
<rect x="1540.959" y="331.418" fill="#F4D236" width="51.934" height="60.46"/>
<polygon fill="#E7A135" points="1126.264,391.878 1178.197,391.878 1178.197,331.418 1137.115,331.418 "/>
<polygon fill="#E7A135" points="1708.387,391.878 1644.826,391.878 1644.826,331.418 1669.63,331.418 "/>
<rect x="582.897" y="532.177" fill="#E7A135" width="255.019" height="13.177"/>
<g>
	<path fill="#F4D236" d="M1225.48,471.717l81.389-27.13c0,0-6.201,15.503-6.201,27.13v0.775c0,12.401,6.977,27.129,6.977,27.129
		L1225.48,471.717L1225.48,471.717z M1336.324,423.658l-133.322,48.059l133.322,47.282c-9.302-9.301-22.479-23.253-22.479-47.282
		C1313.846,456.989,1320.047,437.611,1336.324,423.658"/>
	<path fill="#E7A135" d="M1291.367,471.717c0-4.651-3.876-8.526-8.527-8.526c-4.65,0-8.526,3.875-8.526,8.526
		c0,4.65,3.876,8.526,8.526,8.526C1287.491,480.243,1291.367,476.367,1291.367,471.717"/>
</g>
<path fill="#F4D236" d="M907.678,501.946l17.053-17.053h-75.188v32.556h74.412L907.678,501.946z M935.582,485.669l17.053,17.053
	L936.357,519h157.351l-16.277-16.278l17.053-17.053H935.582z M1192.925,485.669h-86.814l17.053,17.053L1106.886,519h173.629"/>
<rect x="920.332" y="491.841" transform="matrix(0.7071 0.7071 -0.7071 0.7071 627.4193 -510.8898)" fill="#E7A135" width="20.153" height="20.153"/>
<rect x="1090.899" y="491.861" transform="matrix(0.7071 0.7071 -0.7071 0.7071 677.4299 -631.5079)" fill="#E7A135" width="20.153" height="20.153"/>
<path fill="#F4D236" d="M907.678,439.161l17.053,17.053h-75.188v-32.556h74.412L907.678,439.161z M935.582,455.438l17.053-17.053
	l-16.277-16.277h157.351l-16.277,16.277l17.053,17.053H935.582z M1192.925,455.438h-86.814l17.053-17.053l-16.277-16.277h173.629"/>
<rect x="919.871" y="428.773" transform="matrix(0.7071 -0.7071 0.7071 0.7071 -37.9379 786.1084)" fill="#E7A135" width="20.153" height="20.153"/>
<rect x="1090.439" y="428.752" transform="matrix(0.7071 -0.7071 0.7071 0.7071 12.0345 906.7117)" fill="#E7A135" width="20.153" height="20.153"/>
<g>
	<path fill="#F4D236" d="M87.59,453.888c-6.977,0-12.402-5.426-12.402-12.402c0-6.976,5.426-12.402,12.402-12.402
		c6.976,0,12.402,5.427,12.402,12.402C99.992,448.463,94.566,453.888,87.59,453.888"/>
	<path fill="#E7A135" d="M339.507,352.346c-4.65,0-7.751-3.876-7.751-7.751c0-4.651,3.875-7.752,7.751-7.752
		c4.651,0,7.751,3.876,7.751,7.752C347.258,348.47,343.383,352.346,339.507,352.346"/>
	<path fill="#E7A135" d="M339.507,393.428c-4.65,0-7.751-3.876-7.751-7.752c0-4.65,3.875-7.751,7.751-7.751
		c4.651,0,7.751,3.876,7.751,7.751C347.258,389.552,343.383,393.428,339.507,393.428"/>
	<path fill="#E7A135" d="M339.507,439.936c-4.65,0-7.751-3.876-7.751-7.752c0-4.65,3.875-7.751,7.751-7.751
		c4.651,0,7.751,3.876,7.751,7.751C347.258,436.836,343.383,439.936,339.507,439.936"/>
	<path fill="#F4D236" d="M248.042,473.266h-62.786c4.651-39.531,29.455-73.637,64.336-89.915L248.042,473.266z"/>
	<path fill="#E7A135" d="M25.579,484.119h95.341c1.55-102.317,84.489-186.032,187.582-186.032l386.015-0.774v31.005H308.502
		c-86.815,0.775-157.352,71.313-157.352,158.127v28.68H0L25.579,484.119z"/>
</g>
<rect x="269.745" y="341.495" fill="#E7A135" width="38.757" height="18.603"/>
<rect x="269.745" y="374.825" fill="#F4D236" width="38.757" height="18.604"/>
<rect x="269.745" y="408.93" fill="#E7A135" width="38.757" height="18.604"/>
<rect x="269.745" y="442.261" fill="#F4D236" width="38.757" height="18.604"/>
<rect x="269.745" y="476.367" fill="#E7A135" width="38.757" height="18.604"/>
<rect x="269.745" y="509.698" fill="#F4D236" width="38.757" height="18.603"/>
<g>
	<path fill="#E7A135" d="M336.406,498.071c0,5.426,3.876,9.302,9.302,9.302s9.302-3.876,9.302-9.302s-3.876-9.302-9.302-9.302
		C341.057,488.769,336.406,493.42,336.406,498.071 M326.33,524.426v-58.135l68.211,31.005v27.13H326.33z"/>
</g>
<rect x="665.837" y="296.537" fill="#E7A135" width="29.455" height="104.643"/>
<rect x="665.837" y="373.275" fill="#E7A135" width="321.679" height="29.455"/>
<rect x="184.481" y="491.094" fill="#E7A135" width="63.561" height="21.704"/>
<rect x="517.824" y="462.472" transform="matrix(0.7071 0.7071 -0.7071 0.7071 492.2668 -236.3217)" fill="#E7A135" width="27.129" height="27.128"/>
<g>
	<path fill="#F4D236" d="M648.009,463.965c-6.201-58.909-55.81-105.417-116.27-105.417S421.671,404.28,415.47,463.965h14.728
		c6.201-50.383,48.833-89.915,101.542-89.915s95.341,39.532,101.542,89.915H648.009z"/>
	<path fill="#F4D236" d="M576.697,476.367c0,24.805-20.154,44.958-44.958,44.958c-24.805,0-44.958-20.153-44.958-44.958
		c0-24.804,20.154-44.957,44.958-44.957S576.697,451.563,576.697,476.367 M591.424,476.367c0-32.556-26.354-59.685-59.685-59.685
		s-59.685,26.354-59.685,59.685c0,33.331,26.354,59.686,59.685,59.686S591.424,508.923,591.424,476.367"/>
	
		<path fill="none" stroke="#E7A135" stroke-width="1.504" stroke-linecap="round" stroke-linejoin="round" stroke-dasharray="0,5.09" d="
		M599.176,428.309c-11.627-16.278-27.905-27.905-48.059-32.556"/>
	
		<path fill="none" stroke="#E7A135" stroke-width="1.504" stroke-linecap="round" stroke-linejoin="round" stroke-dasharray="0,5.118" d="
		M493.758,402.73c-17.828,9.301-31.78,24.804-38.757,43.407"/>
	<path fill="none" stroke="#E7A135" stroke-width="1.504" stroke-linecap="round" stroke-linejoin="round" d="M449.575,465.515
		L449.575,465.515 M531.739,393.428L531.739,393.428 M613.903,464.74L613.903,464.74"/>
</g>
<rect x="633.281" y="463.19" fill="#F4D236" width="204.635" height="13.177"/>
<rect x="633.281" y="485.669" fill="#E7A135" width="204.635" height="13.177"/>
<rect x="665.062" y="422.884" fill="#E7A135" width="172.854" height="13.177"/>
<line fill="none" stroke="#F4D236" stroke-width="1.504" stroke-linecap="round" stroke-linejoin="round" stroke-dasharray="0,4.786" x1="651.885" y1="515.899" x2="818.537" y2="515.899"/>
<path fill="none" stroke="#F4D236" stroke-width="1.504" stroke-linecap="round" stroke-linejoin="round" d="M837.141,515.899
	L837.141,515.899 M614.678,515.899L614.678,515.899"/>
<g>
	<path fill="#F4D236" d="M1609.17,471.717l-81.389-27.13c0,0,6.201,15.503,6.201,27.13v0.775c0,12.401-6.977,27.129-6.977,27.129
		L1609.17,471.717L1609.17,471.717z M1498.326,423.658l133.322,48.059l-133.322,47.282c9.302-9.301,22.479-23.253,22.479-47.282
		C1520.805,456.989,1514.604,437.611,1498.326,423.658"/>
	<path fill="#E7A135" d="M1543.284,471.717c0-4.651,3.875-8.526,8.526-8.526c4.65,0,8.526,3.875,8.526,8.526
		c0,4.65-3.876,8.526-8.526,8.526C1547.159,480.243,1543.284,476.367,1543.284,471.717"/>
</g>
<path fill="#F4D236" d="M1926.973,501.946l-17.053-17.053h75.188v32.556h-74.412L1926.973,501.946z M1898.293,485.669
	l-17.053,17.053L1897.519,519h-157.352l16.277-16.278l-17.053-17.053H1898.293z M1641.726,485.669h86.814l-17.053,17.053
	L1727.765,519h-173.629"/>
<rect x="1894.667" y="492.38" transform="matrix(-0.7071 0.7071 -0.7071 -0.7071 3606.8582 -489.1685)" fill="#E7A135" width="20.153" height="20.153"/>
<rect x="1724.133" y="492.363" transform="matrix(-0.7071 0.7071 -0.7071 -0.7071 3315.7588 -368.5539)" fill="#E7A135" width="20.153" height="20.153"/>
<path fill="#F4D236" d="M1926.973,439.161l-17.053,17.053h75.188v-32.556h-74.412L1926.973,439.161z M1898.293,455.438
	l-17.053-17.053l16.278-16.277h-157.352l16.277,16.277l-17.053,17.053H1898.293z M1641.726,455.438h86.814l-17.053-17.053
	l16.277-16.277h-173.629"/>
<rect x="1894.206" y="429.155" transform="matrix(-0.7071 -0.7071 0.7071 -0.7071 2940.2864 2096.3105)" fill="#E7A135" width="20.153" height="20.154"/>
<rect x="1723.671" y="429.172" transform="matrix(-0.7071 -0.7071 0.7071 -0.7071 2649.0977 1975.7887)" fill="#E7A135" width="20.154" height="20.153"/>
<g>
	<path fill="#F4D236" d="M2746.285,453.888c6.977,0,12.402-5.426,12.402-12.402c0-6.976-5.426-12.402-12.402-12.402
		c-6.976,0-12.402,5.427-12.402,12.402C2734.658,448.463,2740.084,453.888,2746.285,453.888"/>
	<path fill="#E7A135" d="M2495.144,352.346c4.65,0,7.751-3.876,7.751-7.751c0-4.651-3.875-7.752-7.751-7.752
		c-4.651,0-7.751,3.876-7.751,7.752C2487.393,348.47,2490.492,352.346,2495.144,352.346"/>
	<path fill="#E7A135" d="M2495.144,393.428c4.65,0,7.751-3.876,7.751-7.752c0-4.65-3.875-7.751-7.751-7.751
		c-4.651,0-7.751,3.876-7.751,7.751C2487.393,389.552,2490.492,393.428,2495.144,393.428"/>
	<path fill="#E7A135" d="M2495.144,439.936c4.65,0,7.751-3.876,7.751-7.752c0-4.65-3.875-7.751-7.751-7.751
		c-4.651,0-7.751,3.876-7.751,7.751C2487.393,436.836,2490.492,439.936,2495.144,439.936"/>
	<path fill="#F4D236" d="M2585.834,473.266h62.785c-4.65-39.531-29.455-73.637-64.336-89.915L2585.834,473.266z"/>
	<path fill="#E7A135" d="M2809.071,484.119h-95.341c-0.775-103.093-84.489-186.032-187.582-186.807l-386.015-0.775v31.005h386.015
		c86.814,0.775,157.352,71.313,157.352,158.127v28.68h151.15L2809.071,484.119z"/>
</g>
<rect x="2526.148" y="341.495" fill="#E7A135" width="38.757" height="18.603"/>
<rect x="2526.148" y="374.825" fill="#F4D236" width="38.757" height="18.604"/>
<rect x="2526.148" y="408.93" fill="#E7A135" width="38.757" height="18.604"/>
<rect x="2526.148" y="442.261" fill="#F4D236" width="38.757" height="18.604"/>
<rect x="2526.148" y="476.367" fill="#E7A135" width="38.757" height="18.604"/>
<rect x="2526.148" y="509.698" fill="#F4D236" width="38.757" height="18.603"/>
<g>
	<path fill="#E7A135" d="M2497.469,498.071c0,5.426-3.875,9.302-9.302,9.302c-5.426,0-9.302-3.876-9.302-9.302
		s3.876-9.302,9.302-9.302C2493.594,488.769,2497.469,493.42,2497.469,498.071 M2508.32,524.426v-58.135l-68.211,31.005v27.13
		H2508.32z"/>
</g>
<rect x="2139.358" y="296.537" fill="#E7A135" width="29.455" height="104.643"/>
<rect x="1847.135" y="373.275" fill="#E7A135" width="321.679" height="29.455"/>
<rect x="2585.834" y="491.094" fill="#E7A135" width="63.561" height="21.704"/>
<rect x="2288.845" y="462.559" transform="matrix(-0.7071 0.7071 -0.7071 -0.7071 4267.1616 -815.2068)" fill="#E7A135" width="27.129" height="27.128"/>
<g>
	<path fill="#F4D236" d="M2185.866,463.965c6.201-58.909,55.81-105.417,116.27-105.417s110.069,45.732,116.27,105.417h-14.728
		c-6.2-51.158-48.833-89.915-101.542-89.915c-52.708,0-95.341,39.532-101.542,89.915H2185.866z"/>
	<path fill="#F4D236" d="M2257.953,476.367c0,24.805,20.154,44.958,44.958,44.958s44.957-20.153,44.957-44.958
		c0-24.804-20.153-44.957-44.957-44.957S2257.953,451.563,2257.953,476.367 M2243.227,476.367c0-32.556,26.354-59.685,59.685-59.685
		c32.556,0,59.686,26.354,59.686,59.685c0,33.331-26.354,59.686-59.686,59.686S2243.227,508.923,2243.227,476.367"/>
	
		<path fill="none" stroke="#E7A135" stroke-width="1.504" stroke-linecap="round" stroke-linejoin="round" stroke-dasharray="0,5.09" d="
		M2235.475,428.309c11.627-16.278,27.905-27.905,48.059-32.556"/>
	
		<path fill="none" stroke="#E7A135" stroke-width="1.504" stroke-linecap="round" stroke-linejoin="round" stroke-dasharray="0,5.118" d="
		M2340.893,402.73c17.828,9.301,31.78,24.804,38.757,43.407"/>
	<path fill="none" stroke="#E7A135" stroke-width="1.504" stroke-linecap="round" stroke-linejoin="round" d="M2384.3,465.515
		L2384.3,465.515 M2302.911,393.428L2302.911,393.428 M2220.747,464.74L2220.747,464.74"/>
</g>
<rect x="1995.96" y="463.19" fill="#F4D236" width="204.634" height="13.177"/>
<rect x="1995.96" y="485.669" fill="#E7A135" width="204.634" height="13.177"/>
<rect x="1995.96" y="422.884" fill="#E7A135" width="172.854" height="13.177"/>
<line fill="none" stroke="#F4D236" stroke-width="1.504" stroke-linecap="round" stroke-linejoin="round" stroke-dasharray="0,4.786" x1="2182.766" y1="515.899" x2="2016.113" y2="515.899"/>
<path fill="none" stroke="#F4D236" stroke-width="1.504" stroke-linecap="round" stroke-linejoin="round" d="M1997.51,515.899
	L1997.51,515.899 M2219.973,515.899L2219.973,515.899"/>
<rect x="1995.96" y="532.177" fill="#E7A135" width="255.018" height="13.177"/>
<g>
	<path fill="#E7A135" d="M1413.063,532.952c33.33,0,60.46-27.13,60.46-60.46c0-33.331-27.13-60.461-60.46-60.461
		c-33.331,0-60.461,27.13-60.461,60.461C1352.602,505.822,1379.731,532.952,1413.063,532.952"/>
</g>
</svg>
