<?xml version="1.0" encoding="utf-8"?>
<!-- Generator: Adobe Illustrator 15.1.0, SVG Export Plug-In . SVG Version: 6.00 Build 0)  -->
<!DOCTYPE svg PUBLIC "-//W3C//DTD SVG 1.1//EN" "http://www.w3.org/Graphics/SVG/1.1/DTD/svg11.dtd">
<svg version="1.1" id="Ebene_1" xmlns="http://www.w3.org/2000/svg" xmlns:xlink="http://www.w3.org/1999/xlink" x="0px" y="0px"
	 width="2834.65px" height="249.592px" viewBox="0 296.537 2834.65 249.592" enable-background="new 0 296.537 2834.65 249.592"
	 xml:space="preserve">
<rect x="1552.586" y="450.012" fill="#F4D236" width="51.934" height="60.46"/>
<rect x="1448.718" y="450.012" fill="#F4D236" width="51.934" height="60.46"/>
<rect x="1344.851" y="450.012" fill="#F4D236" width="51.934" height="60.46"/>
<rect x="1240.983" y="450.012" fill="#F4D236" width="51.934" height="60.46"/>
<polygon fill="#E7A135" points="1708.387,450.012 1656.453,450.012 1656.453,510.472 1697.535,510.472 "/>
<polygon fill="#E7A135" points="1126.264,450.012 1189.049,450.012 1189.049,510.472 1164.245,510.472 "/>
<rect x="1995.96" y="296.537" fill="#E7A135" width="255.018" height="13.178"/>
<g>
	<path fill="#F4D236" d="M1609.17,370.175l-81.389,27.129c0,0,6.201-15.502,6.201-27.129l0,0c0-12.402-6.977-27.13-6.977-27.13
		L1609.17,370.175L1609.17,370.175z M1498.326,418.232l133.322-48.058l-133.322-47.283c9.302,9.302,22.479,23.254,22.479,47.283
		C1520.805,384.902,1514.604,405.055,1498.326,418.232"/>
	<path fill="#E7A135" d="M1543.284,370.949c0,4.651,3.875,8.527,8.526,8.527c4.65,0,8.526-3.876,8.526-8.527
		c0-4.65-3.876-8.526-8.526-8.526C1547.159,361.648,1543.284,365.523,1543.284,370.949"/>
</g>
<path fill="#F4D236" d="M1926.973,339.944l-17.053,17.053h75.188v-33.33h-74.412L1926.973,339.944z M1898.293,356.997
	l-17.053-17.053l16.278-16.277h-157.352l16.277,16.277l-17.053,17.053H1898.293z M1641.726,356.997h86.814l-17.053-17.053
	l16.277-16.277h-173.629"/>
<rect x="1894.369" y="330.003" transform="matrix(-0.7071 -0.7071 0.7071 -0.7071 3010.6206 1927.1986)" fill="#E7A135" width="20.154" height="20.153"/>
<rect x="1723.837" y="330.018" transform="matrix(-0.7071 -0.7071 0.7071 -0.7071 2719.5435 1806.6071)" fill="#E7A135" width="20.153" height="20.154"/>
<path fill="#F4D236" d="M1926.973,403.505l-17.053-17.053h75.188v32.556h-74.412L1926.973,403.505z M1898.293,386.452
	l-17.053,17.053l16.278,16.278h-157.352l16.277-16.278l-17.053-17.053H1898.293z M1641.726,386.452h86.814l-17.053,17.053
	l16.277,16.278h-173.629"/>
<rect x="1894.508" y="393.234" transform="matrix(-0.7071 0.7071 -0.7071 -0.7071 3536.5491 -658.1948)" fill="#E7A135" width="20.153" height="20.153"/>
<rect x="1723.977" y="393.219" transform="matrix(-0.7071 0.7071 -0.7071 -0.7071 3245.3872 -537.692)" fill="#E7A135" width="20.153" height="20.153"/>
<g>
	<path fill="#F4D236" d="M2746.285,388.777c6.977,0,12.402,5.426,12.402,12.402s-5.426,12.402-12.402,12.402
		c-6.976,0-12.402-5.426-12.402-12.402C2734.658,394.203,2740.084,388.777,2746.285,388.777"/>
	<path fill="#E7A135" d="M2495.144,490.319c4.65,0,7.751,3.876,7.751,7.752c0,4.65-3.875,7.751-7.751,7.751
		s-7.751-3.876-7.751-7.751C2487.393,493.42,2490.492,490.319,2495.144,490.319"/>
	<path fill="#E7A135" d="M2495.144,449.238c4.65,0,7.751,3.875,7.751,7.751c0,4.65-3.875,7.751-7.751,7.751
		s-7.751-3.875-7.751-7.751S2490.492,449.238,2495.144,449.238"/>
	<path fill="#E7A135" d="M2495.144,401.955c4.65,0,7.751,3.875,7.751,7.751c0,4.651-3.875,7.751-7.751,7.751
		s-7.751-3.875-7.751-7.751S2490.492,401.955,2495.144,401.955"/>
	<path fill="#F4D236" d="M2585.834,369.399h62.785c-4.65,39.531-29.455,73.638-64.336,89.915L2585.834,369.399z"/>
	<path fill="#E7A135" d="M2809.071,357.772h-95.341c-0.775,103.093-84.489,186.031-187.582,186.807l-386.015,0.774v-31.005h386.015
		c86.814-0.775,157.352-71.312,157.352-158.126v-28.681h151.15L2809.071,357.772z"/>
</g>
<rect x="2526.148" y="482.568" fill="#E7A135" width="38.757" height="18.604"/>
<rect x="2526.148" y="448.463" fill="#F4D236" width="38.757" height="18.603"/>
<rect x="2526.148" y="415.132" fill="#E7A135" width="38.757" height="18.604"/>
<rect x="2526.148" y="381.026" fill="#F4D236" width="38.757" height="18.604"/>
<rect x="2526.148" y="347.695" fill="#E7A135" width="38.757" height="18.604"/>
<rect x="2526.148" y="313.59" fill="#F4D236" width="38.757" height="18.604"/>
<g>
	<path fill="#E7A135" d="M2497.469,343.82c0-5.426-3.875-9.302-9.302-9.302c-5.426,0-9.302,3.876-9.302,9.302
		s3.876,9.302,9.302,9.302C2493.594,353.122,2497.469,349.246,2497.469,343.82 M2508.32,318.241v58.135l-68.211-31.006v-27.129
		H2508.32z"/>
</g>
<rect x="2139.358" y="441.486" fill="#E7A135" width="29.455" height="104.643"/>
<rect x="1847.135" y="439.936" fill="#E7A135" width="321.679" height="29.455"/>
<rect x="2585.834" y="329.093" fill="#E7A135" width="63.561" height="21.703"/>
<rect x="2289.101" y="352.295" transform="matrix(-0.7071 -0.7071 0.7071 -0.7071 3672.1453 2252.8264)" fill="#E7A135" width="27.129" height="27.128"/>
<g>
	<path fill="#F4D236" d="M2185.866,377.926c6.201,58.91,55.81,105.418,116.27,105.418s110.069-45.732,116.27-105.418h-14.728
		c-6.2,51.158-48.833,89.915-101.542,89.915c-52.708,0-95.341-39.531-101.542-89.915H2185.866z"/>
	<path fill="#F4D236" d="M2257.953,366.299c0-24.804,20.154-44.957,44.958-44.957s44.957,20.153,44.957,44.957
		c0,24.805-20.153,44.958-44.957,44.958S2257.953,391.103,2257.953,366.299 M2243.227,366.299c0,32.556,26.354,59.686,59.685,59.686
		c32.556,0,59.686-26.354,59.686-59.686c0-33.33-26.354-59.685-59.686-59.685S2243.227,332.969,2243.227,366.299"/>
	
		<path fill="none" stroke="#E7A135" stroke-width="1.504" stroke-linecap="round" stroke-linejoin="round" stroke-dasharray="0,5.09" d="
		M2235.475,413.582c11.627,16.277,27.905,27.904,48.059,32.556"/>
	
		<path fill="none" stroke="#E7A135" stroke-width="1.504" stroke-linecap="round" stroke-linejoin="round" stroke-dasharray="0,5.118" d="
		M2340.893,439.161c17.828-9.302,31.78-24.804,38.757-43.407"/>
	<path fill="none" stroke="#E7A135" stroke-width="1.504" stroke-linecap="round" stroke-linejoin="round" d="M2384.3,377.15
		L2384.3,377.15 M2302.911,448.463L2302.911,448.463 M2220.747,377.15L2220.747,377.15"/>
</g>
<rect x="1995.96" y="365.523" fill="#F4D236" width="204.634" height="13.178"/>
<rect x="1995.96" y="343.82" fill="#E7A135" width="204.634" height="13.177"/>
<rect x="1995.96" y="406.605" fill="#E7A135" width="172.854" height="13.178"/>
<line fill="none" stroke="#F4D236" stroke-width="1.504" stroke-linecap="round" stroke-linejoin="round" stroke-dasharray="0,4.786" x1="2182.766" y1="326.767" x2="2016.113" y2="326.767"/>
<path fill="none" stroke="#F4D236" stroke-width="1.504" stroke-linecap="round" stroke-linejoin="round" d="M1997.51,326.767
	L1997.51,326.767 M2219.973,326.767L2219.973,326.767"/>
<g>
	<path fill="#F4D236" d="M1225.48,370.175l81.389,27.129c0,0-6.201-15.502-6.201-27.129l0,0c0-12.402,6.977-27.13,6.977-27.13
		L1225.48,370.175L1225.48,370.175z M1336.324,418.232l-133.322-48.058l133.322-47.283c-9.302,9.302-22.479,23.254-22.479,47.283
		C1313.846,384.902,1320.047,405.055,1336.324,418.232"/>
	<path fill="#E7A135" d="M1291.367,370.949c0,4.651-3.876,8.527-8.527,8.527c-4.65,0-8.526-3.876-8.526-8.527
		c0-4.65,3.876-8.526,8.526-8.526C1287.491,361.648,1291.367,365.523,1291.367,370.949"/>
</g>
<path fill="#F4D236" d="M907.678,339.944l17.053,17.053h-75.188v-33.33h74.412L907.678,339.944z M935.582,356.997l17.053-17.053
	l-16.277-16.277h157.351l-16.277,16.277l17.053,17.053H935.582z M1192.925,356.997h-86.814l17.053-17.053l-16.277-16.277h173.629"/>
<rect x="920.033" y="329.947" transform="matrix(0.7071 -0.7071 0.7071 0.7071 31.9758 757.2467)" fill="#E7A135" width="20.153" height="20.153"/>
<rect x="1090.603" y="329.929" transform="matrix(0.7071 -0.7071 0.7071 0.7071 81.9796 877.9179)" fill="#E7A135" width="20.153" height="20.154"/>
<path fill="#F4D236" d="M907.678,403.505l17.053-17.053h-75.188v32.556h74.412L907.678,403.505z M935.582,386.452l17.053,17.053
	l-16.277,16.278h157.351l-16.277-16.278l17.053-17.053H935.582z M1192.925,386.452h-86.814l17.053,17.053l-16.277,16.278h173.629"/>
<rect x="920.172" y="393.012" transform="matrix(0.7071 0.7071 -0.7071 0.7071 557.4907 -539.7233)" fill="#E7A135" width="20.154" height="20.153"/>
<rect x="1090.742" y="393.03" transform="matrix(0.7071 0.7071 -0.7071 0.7071 607.4981 -660.3458)" fill="#E7A135" width="20.153" height="20.153"/>
<g>
	<path fill="#F4D236" d="M87.59,388.777c-6.977,0-12.402,5.426-12.402,12.402s5.426,12.402,12.402,12.402
		c6.976,0,12.402-5.426,12.402-12.402S94.566,388.777,87.59,388.777"/>
	<path fill="#E7A135" d="M339.507,490.319c-4.65,0-7.751,3.876-7.751,7.752c0,4.65,3.875,7.751,7.751,7.751
		c4.651,0,7.751-3.876,7.751-7.751C347.258,493.42,343.383,490.319,339.507,490.319"/>
	<path fill="#E7A135" d="M339.507,449.238c-4.65,0-7.751,3.875-7.751,7.751c0,4.65,3.875,7.751,7.751,7.751
		c4.651,0,7.751-3.875,7.751-7.751S343.383,449.238,339.507,449.238"/>
	<path fill="#E7A135" d="M339.507,401.955c-4.65,0-7.751,3.875-7.751,7.751c0,4.651,3.875,7.751,7.751,7.751
		c4.651,0,7.751-3.875,7.751-7.751S343.383,401.955,339.507,401.955"/>
	<path fill="#F4D236" d="M248.042,369.399h-62.786c4.651,39.531,29.455,73.638,64.336,89.915L248.042,369.399z"/>
	<path fill="#E7A135" d="M25.579,357.772h95.341c0.775,103.093,84.489,186.031,187.582,186.807l386.015,0.774v-31.005H308.502
		c-86.815-0.775-157.352-71.312-157.352-158.901v-27.905H0L25.579,357.772z"/>
</g>
<rect x="269.745" y="482.568" fill="#E7A135" width="38.757" height="18.604"/>
<rect x="269.745" y="448.463" fill="#F4D236" width="38.757" height="18.603"/>
<rect x="269.745" y="415.132" fill="#E7A135" width="38.757" height="18.604"/>
<rect x="269.745" y="381.026" fill="#F4D236" width="38.757" height="18.604"/>
<rect x="269.745" y="347.695" fill="#E7A135" width="38.757" height="18.604"/>
<rect x="269.745" y="313.59" fill="#F4D236" width="38.757" height="18.604"/>
<g>
	<path fill="#E7A135" d="M336.406,343.82c0-5.426,3.876-9.302,9.302-9.302s9.302,3.876,9.302,9.302s-3.876,9.302-9.302,9.302
		C341.057,353.122,336.406,349.246,336.406,343.82 M326.33,318.241v58.135l68.211-31.006v-27.129H326.33z"/>
</g>
<rect x="665.837" y="441.486" fill="#E7A135" width="29.455" height="104.643"/>
<rect x="665.837" y="439.936" fill="#E7A135" width="321.679" height="29.455"/>
<rect x="184.481" y="329.093" fill="#E7A135" width="63.561" height="21.703"/>
<rect x="518.074" y="352.888" transform="matrix(0.7071 -0.7071 0.7071 0.7071 -103.408 483.2569)" fill="#E7A135" width="27.13" height="27.13"/>
<g>
	<path fill="#F4D236" d="M648.009,377.926c-6.201,58.91-55.81,105.418-116.27,105.418s-110.068-45.732-116.27-105.418h14.728
		c6.201,51.158,48.833,89.915,101.542,89.915s95.341-39.531,101.542-89.915H648.009z"/>
	<path fill="#F4D236" d="M576.697,366.299c0-24.804-20.154-44.957-44.958-44.957s-44.958,20.153-44.958,44.957
		c0,24.805,20.154,44.958,44.958,44.958S576.697,391.103,576.697,366.299 M591.424,366.299c0,32.556-26.354,59.686-59.685,59.686
		c-32.556,0-59.685-26.354-59.685-59.686c0-33.33,26.354-59.685,59.685-59.685S591.424,332.969,591.424,366.299"/>
	
		<path fill="none" stroke="#E7A135" stroke-width="1.504" stroke-linecap="round" stroke-linejoin="round" stroke-dasharray="0,5.09" d="
		M599.176,413.582c-11.627,16.277-27.905,27.904-48.059,32.556"/>
	
		<path fill="none" stroke="#E7A135" stroke-width="1.504" stroke-linecap="round" stroke-linejoin="round" stroke-dasharray="0,5.118" d="
		M493.758,439.161c-17.828-9.302-31.78-24.804-38.757-43.407"/>
	<path fill="none" stroke="#E7A135" stroke-width="1.504" stroke-linecap="round" stroke-linejoin="round" d="M449.575,377.15
		L449.575,377.15 M531.739,448.463L531.739,448.463 M613.903,377.15L613.903,377.15"/>
</g>
<rect x="633.281" y="365.523" fill="#F4D236" width="204.635" height="13.178"/>
<rect x="633.281" y="343.82" fill="#E7A135" width="204.635" height="13.177"/>
<rect x="665.062" y="406.605" fill="#E7A135" width="172.854" height="13.178"/>
<line fill="none" stroke="#F4D236" stroke-width="1.504" stroke-linecap="round" stroke-linejoin="round" stroke-dasharray="0,4.786" x1="651.885" y1="326.767" x2="818.537" y2="326.767"/>
<path fill="none" stroke="#F4D236" stroke-width="1.504" stroke-linecap="round" stroke-linejoin="round" d="M837.141,326.767
	L837.141,326.767 M614.678,326.767L614.678,326.767"/>
<rect x="582.897" y="296.537" fill="#E7A135" width="255.019" height="13.178"/>
<g>
	<path fill="#E7A135" d="M1421.588,309.715c-33.33,0-60.46,27.129-60.46,60.46c0,33.33,27.13,60.46,60.46,60.46
		c33.331,0,60.461-27.13,60.461-60.46C1482.049,336.844,1454.919,309.715,1421.588,309.715"/>
</g>
</svg>
