<?xml version="1.0" encoding="utf-8"?>
<!-- Generator: Adobe Illustrator 19.1.0, SVG Export Plug-In . SVG Version: 6.00 Build 0)  -->
<svg version="1.1" id="Ebene_1" xmlns="http://www.w3.org/2000/svg" xmlns:xlink="http://www.w3.org/1999/xlink" x="0px" y="0px"
	 viewBox="0 0 365.7 32.1" style="enable-background:new 0 0 365.7 32.1;" xml:space="preserve">
<style type="text/css">
	.st0{fill:#F4D236;}
	.st1{fill:#E7A135;}
	.st2{fill:none;stroke:#E7A135;stroke-width:1.504;stroke-linecap:round;stroke-linejoin:round;stroke-dasharray:0,5.09;}
	.st3{fill:none;stroke:#E7A135;stroke-width:1.504;stroke-linecap:round;stroke-linejoin:round;stroke-dasharray:0,5.118;}
	.st4{fill:none;stroke:#E7A135;stroke-width:1.504;stroke-linecap:round;stroke-linejoin:round;}
	.st5{fill:none;stroke:#F4D236;stroke-width:1.504;stroke-linecap:round;stroke-linejoin:round;stroke-dasharray:0,4.786;}
	.st6{fill:none;stroke:#F4D236;stroke-width:1.504;stroke-linecap:round;stroke-linejoin:round;}
</style>
<rect x="158.7" y="19.8" class="st0" width="6.7" height="7.8"/>
<rect x="172.1" y="19.8" class="st0" width="6.7" height="7.8"/>
<rect x="185.5" y="19.8" class="st0" width="6.7" height="7.8"/>
<rect x="198.8" y="19.8" class="st0" width="6.7" height="7.8"/>
<polygon class="st1" points="145.3,19.8 152,19.8 152,27.6 146.7,27.6 "/>
<polygon class="st1" points="220.4,19.8 212.2,19.8 212.2,27.6 215.4,27.6 "/>
<rect x="75.2" y="0" class="st1" width="32.9" height="1.7"/>
<g>
	<path class="st0" d="M158.1,9.5l10.5,3.5c0,0-0.8-2-0.8-3.5V9.5c0-1.6,0.9-3.5,0.9-3.5L158.1,9.5L158.1,9.5z M172.4,15.7l-17.2-6.2
		l17.2-6.1c-1.2,1.2-2.9,3-2.9,6.1C169.5,11.4,170.3,14,172.4,15.7"/>
	<path class="st1" d="M166.6,9.6c0,0.6-0.5,1.1-1.1,1.1c-0.6,0-1.1-0.5-1.1-1.1c0-0.6,0.5-1.1,1.1-1.1
		C166.1,8.4,166.6,8.9,166.6,9.6"/>
</g>
<path class="st0" d="M117.1,5.6l2.2,2.2h-9.7V3.5l9.6,0L117.1,5.6z M120.7,7.8l2.2-2.2l-2.1-2.1l20.3,0l-2.1,2.1l2.2,2.2H120.7z
	 M153.9,7.8h-11.2l2.2-2.2l-2.1-2.1l22.4,0"/>
<rect x="118.7" y="4.3" transform="matrix(-0.7071 0.7071 -0.7071 -0.7071 208.8058 -75.2819)" class="st1" width="2.6" height="2.6"/>
<rect x="140.7" y="4.3" transform="matrix(-0.7071 0.7071 -0.7071 -0.7071 246.3671 -90.8406)" class="st1" width="2.6" height="2.6"/>
<path class="st0" d="M117.1,13.8l2.2-2.2h-9.7v4.2l9.6,0L117.1,13.8z M120.7,11.6l2.2,2.2l-2.1,2.1l20.3,0l-2.1-2.1l2.2-2.2H120.7z
	 M153.9,11.6h-11.2l2.2,2.2l-2.1,2.1l22.4,0"/>
<rect x="118.7" y="12.5" transform="matrix(-0.7071 -0.7071 0.7071 -0.7071 195.1057 108.3568)" class="st1" width="2.6" height="2.6"/>
<rect x="140.7" y="12.5" transform="matrix(-0.7071 -0.7071 0.7071 -0.7071 232.6669 123.9154)" class="st1" width="2.6" height="2.6"/>
<g>
	<path class="st0" d="M11.3,11.9c-0.9,0-1.6,0.7-1.6,1.6c0,0.9,0.7,1.6,1.6,1.6c0.9,0,1.6-0.7,1.6-1.6
		C12.9,12.6,12.2,11.9,11.3,11.9"/>
	<path class="st1" d="M43.8,25c-0.6,0-1,0.5-1,1c0,0.6,0.5,1,1,1c0.6,0,1-0.5,1-1C44.8,25.4,44.3,25,43.8,25"/>
	<path class="st1" d="M43.8,19.7c-0.6,0-1,0.5-1,1s0.5,1,1,1c0.6,0,1-0.5,1-1S44.3,19.7,43.8,19.7"/>
	<path class="st1" d="M43.8,13.6c-0.6,0-1,0.5-1,1c0,0.6,0.5,1,1,1c0.6,0,1-0.5,1-1C44.8,14.1,44.3,13.6,43.8,13.6"/>
	<path class="st0" d="M32,9.4h-8.1c0.6,5.1,3.8,9.5,8.3,11.6L32,9.4z"/>
	<path class="st1" d="M3.3,7.9h12.3c0.1,13.3,10.9,24,24.2,24.1l49.8,0.1v-4H39.8C28.6,28,19.5,18.9,19.5,7.6V4H0L3.3,7.9z"/>
</g>
<rect x="34.8" y="24" class="st1" width="5" height="2.4"/>
<rect x="34.8" y="19.6" class="st0" width="5" height="2.4"/>
<rect x="34.8" y="15.3" class="st1" width="5" height="2.4"/>
<rect x="34.8" y="10.9" class="st0" width="5" height="2.4"/>
<rect x="34.8" y="6.6" class="st1" width="5" height="2.4"/>
<rect x="34.8" y="2.2" class="st0" width="5" height="2.4"/>
<g>
	<path class="st1" d="M43.4,6.1c0-0.7,0.5-1.2,1.2-1.2c0.7,0,1.2,0.5,1.2,1.2c0,0.7-0.5,1.2-1.2,1.2C44,7.3,43.4,6.8,43.4,6.1
		 M42.1,2.8v7.5l8.8-4V2.8H42.1z"/>
</g>
<rect x="85.9" y="18.7" class="st1" width="3.8" height="13.5"/>
<rect x="85.9" y="18.5" class="st1" width="41.5" height="3.8"/>
<rect x="23.8" y="4.2" class="st1" width="8.2" height="2.8"/>
<rect x="66.9" y="7.2" transform="matrix(-0.7071 0.7071 -0.7071 -0.7071 123.458 -33.194)" class="st1" width="3.5" height="3.5"/>
<g>
	<path class="st0" d="M83.6,10.5c-0.8,7.6-7.2,13.6-15,13.6s-14.2-5.9-15-13.6h1.9c0.8,6.6,6.3,11.6,13.1,11.6
		c6.8,0,12.3-5.1,13.1-11.6H83.6z"/>
	<path class="st0" d="M74.4,9c0-3.2-2.6-5.8-5.8-5.8S62.8,5.8,62.8,9s2.6,5.8,5.8,5.8S74.4,12.2,74.4,9 M76.3,9
		c0,4.2-3.4,7.7-7.7,7.7s-7.7-3.4-7.7-7.7s3.4-7.7,7.7-7.7S76.3,4.7,76.3,9"/>
	<path class="st2" d="M77.3,15.1c-1.5,2.1-3.6,3.6-6.2,4.2"/>
	<path class="st3" d="M63.7,18.4c-2.3-1.2-4.1-3.2-5-5.6"/>
	<path class="st4" d="M58,10.4L58,10.4 M68.6,19.6L68.6,19.6 M79.2,10.4L79.2,10.4"/>
</g>
<rect x="81.7" y="8.9" class="st0" width="26.4" height="1.7"/>
<rect x="81.7" y="6.1" class="st1" width="26.4" height="1.7"/>
<rect x="85.8" y="14.2" class="st1" width="22.3" height="1.7"/>
<line class="st5" x1="84.1" y1="3.9" x2="105.6" y2="3.9"/>
<path class="st6" d="M108,3.9L108,3.9 M79.3,3.9L79.3,3.9"/>
<g>
	<path class="st0" d="M207.6,9.5l-10.5,3.5c0,0,0.8-2,0.8-3.5V9.5c0-1.6-0.9-3.5-0.9-3.5L207.6,9.5L207.6,9.5z M193.3,15.7l17.2-6.2
		l-17.2-6.1c1.2,1.2,2.9,3,2.9,6.1C196.2,11.4,195.4,14,193.3,15.7"/>
	<path class="st1" d="M199.1,9.6c0,0.6,0.5,1.1,1.1,1.1c0.6,0,1.1-0.5,1.1-1.1c0-0.6-0.5-1.1-1.1-1.1C199.6,8.4,199.1,8.9,199.1,9.6
		"/>
</g>
<path class="st0" d="M248.6,5.6l-2.2,2.2h9.7V3.5l-9.6,0L248.6,5.6z M244.9,7.8l-2.2-2.2l2.1-2.1l-20.3,0l2.1,2.1l-2.2,2.2H244.9z
	 M211.8,7.8h11.2l-2.2-2.2l2.1-2.1l-22.4,0"/>
<rect x="244.4" y="4.3" transform="matrix(0.7071 0.7071 -0.7071 0.7071 75.9189 -172.0763)" class="st1" width="2.6" height="2.6"/>
<rect x="222.4" y="4.3" transform="matrix(0.7071 0.7071 -0.7071 0.7071 69.4744 -156.5179)" class="st1" width="2.6" height="2.6"/>
<path class="st0" d="M248.6,13.8l-2.2-2.2h9.7v4.2l-9.6,0L248.6,13.8z M244.9,11.6l-2.2,2.2l2.1,2.1l-20.3,0l2.1-2.1l-2.2-2.2H244.9
	z M211.8,11.6h11.2l-2.2,2.2l2.1,2.1l-22.4,0"/>
<rect x="244.4" y="12.5" transform="matrix(0.7071 -0.7071 0.7071 0.7071 62.2189 177.7512)" class="st1" width="2.6" height="2.6"/>
<rect x="222.4" y="12.5" transform="matrix(0.7071 -0.7071 0.7071 0.7071 55.7744 162.1927)" class="st1" width="2.6" height="2.6"/>
<g>
	<path class="st0" d="M354.3,11.9c0.9,0,1.6,0.7,1.6,1.6c0,0.9-0.7,1.6-1.6,1.6c-0.9,0-1.6-0.7-1.6-1.6
		C352.8,12.6,353.5,11.9,354.3,11.9"/>
	<path class="st1" d="M321.9,25c0.6,0,1,0.5,1,1c0,0.6-0.5,1-1,1c-0.6,0-1-0.5-1-1C320.9,25.4,321.3,25,321.9,25"/>
	<path class="st1" d="M321.9,19.7c0.6,0,1,0.5,1,1s-0.5,1-1,1c-0.6,0-1-0.5-1-1S321.3,19.7,321.9,19.7"/>
	<path class="st1" d="M321.9,13.6c0.6,0,1,0.5,1,1c0,0.6-0.5,1-1,1c-0.6,0-1-0.5-1-1C320.9,14.1,321.3,13.6,321.9,13.6"/>
	<path class="st0" d="M333.6,9.4h8.1c-0.6,5.1-3.8,9.5-8.3,11.6L333.6,9.4z"/>
	<path class="st1" d="M362.4,7.9h-12.3c-0.1,13.3-10.9,24-24.2,24.1l-49.8,0.1v-4h49.8c11.2-0.1,20.3-9.2,20.3-20.4V4h19.5
		L362.4,7.9z"/>
</g>
<rect x="325.9" y="24" class="st1" width="5" height="2.4"/>
<rect x="325.9" y="19.6" class="st0" width="5" height="2.4"/>
<rect x="325.9" y="15.3" class="st1" width="5" height="2.4"/>
<rect x="325.9" y="10.9" class="st0" width="5" height="2.4"/>
<rect x="325.9" y="6.6" class="st1" width="5" height="2.4"/>
<rect x="325.9" y="2.2" class="st0" width="5" height="2.4"/>
<g>
	<path class="st1" d="M322.2,6.1c0-0.7-0.5-1.2-1.2-1.2c-0.7,0-1.2,0.5-1.2,1.2c0,0.7,0.5,1.2,1.2,1.2
		C321.7,7.3,322.2,6.8,322.2,6.1 M323.6,2.8v7.5l-8.8-4V2.8H323.6z"/>
</g>
<rect x="276" y="18.7" class="st1" width="3.8" height="13.5"/>
<rect x="238.3" y="18.5" class="st1" width="41.5" height="3.8"/>
<rect x="333.6" y="4.2" class="st1" width="8.2" height="2.8"/>
<rect x="295.3" y="7.2" transform="matrix(0.7071 0.7071 -0.7071 0.7071 93.3517 -207.4281)" class="st1" width="3.5" height="3.5"/>
<g>
	<path class="st0" d="M282,10.5c0.8,7.6,7.2,13.6,15,13.6s14.2-5.9,15-13.6h-1.9c-0.8,6.6-6.3,11.6-13.1,11.6
		c-6.8,0-12.3-5.1-13.1-11.6H282z"/>
	<path class="st0" d="M291.3,9c0-3.2,2.6-5.8,5.8-5.8c3.2,0,5.8,2.6,5.8,5.8s-2.6,5.8-5.8,5.8C293.9,14.8,291.3,12.2,291.3,9
		 M289.4,9c0,4.2,3.4,7.7,7.7,7.7c4.2,0,7.7-3.4,7.7-7.7s-3.4-7.7-7.7-7.7C292.8,1.3,289.4,4.7,289.4,9"/>
	<path class="st2" d="M288.4,15.1c1.5,2.1,3.6,3.6,6.2,4.2"/>
	<path class="st3" d="M302,18.4c2.3-1.2,4.1-3.2,5-5.6"/>
	<path class="st4" d="M307.6,10.4L307.6,10.4 M297.1,19.6L297.1,19.6 M286.5,10.4L286.5,10.4"/>
</g>
<rect x="257.5" y="8.9" class="st0" width="26.4" height="1.7"/>
<rect x="257.5" y="6.1" class="st1" width="26.4" height="1.7"/>
<rect x="257.5" y="14.2" class="st1" width="22.3" height="1.7"/>
<line class="st5" x1="281.6" y1="3.9" x2="260.1" y2="3.9"/>
<path class="st6" d="M257.7,3.9L257.7,3.9 M286.4,3.9L286.4,3.9"/>
<rect x="257.5" y="0" class="st1" width="32.9" height="1.7"/>
<path class="st1" d="M188.7,7.5h-0.8V5.8h0.8V7.5z M188.7,10.8h-0.8V9.1h0.8V10.8z M188.7,14.2h-0.8v-1.7h0.8V14.2z M187,14.2h-8.4
	V5.8h8.4V14.2z M177.8,7.5H177V5.8h0.8V7.5z M177.8,10.8H177V9.1h0.8V10.8z M177.8,14.2H177v-1.7h0.8V14.2z M176.1,15h13.4V5h-13.4
	V15z M185.3,10l-5,2.5v-5L185.3,10z"/>
</svg>
