<?xml version="1.0" encoding="utf-8"?>
<!-- Generator: Adobe Illustrator 15.1.0, SVG Export Plug-In . SVG Version: 6.00 Build 0)  -->
<!DOCTYPE svg PUBLIC "-//W3C//DTD SVG 1.1//EN" "http://www.w3.org/Graphics/SVG/1.1/DTD/svg11.dtd">
<svg version="1.1" id="Ebene_1" xmlns="http://www.w3.org/2000/svg" xmlns:xlink="http://www.w3.org/1999/xlink" x="0px" y="0px"
	 width="1190.549px" height="328px" viewBox="0 331.445 1190.549 328" enable-background="new 0 331.445 1190.549 328"
	 xml:space="preserve">
<g>
	<g>
		<g>
			<path fill="#EFC64F" d="M1159.63,630.686c0,10.577,7.321,17.088,17.088,17.088c4.882,0,8.138-0.813,9.766-1.626v-16.276h-11.392
				v4.068h6.51v9.766c-0.813,0-1.626,0.814-4.882,0.814c-6.511,0-12.206-4.883-12.206-13.022c0-7.324,4.882-13.02,12.206-13.02
				c4.069,0,6.512,0.812,8.954,2.441v-4.882c-2.442-0.813-4.883-1.628-9.767-1.628
				C1166.951,614.407,1159.63,620.919,1159.63,630.686 M1095.34,630.686c0,10.577,7.324,17.088,17.09,17.088
				c4.882,0,8.136-0.813,9.764-1.626v-16.276h-11.392v4.068h6.512v9.766c-0.813,0-1.628,0.814-4.882,0.814
				c-6.512,0-12.208-4.883-12.208-13.022c0-7.324,4.882-13.02,12.208-13.02c4.068,0,6.51,0.812,8.952,2.441v-4.882
				c-2.442-0.813-4.882-1.628-9.766-1.628C1102.664,614.407,1095.34,620.919,1095.34,630.686 M1037.561,614.407h-4.882v19.532
				c0,8.951,4.882,13.834,13.021,13.834c8.136,0,13.021-4.883,13.021-13.834v-19.532h-4.883v18.718
				c0,6.51-1.625,10.578-8.136,10.578c-5.697,0-8.138-4.068-8.138-10.578v-18.718H1037.561z M978.155,619.291h4.883
				c4.069,0,6.512,1.628,6.512,4.882c0,3.256-2.442,4.883-7.324,4.883h-4.069L978.155,619.291L978.155,619.291z M981.411,614.407
				h-8.139v32.552h4.883v-14.647h2.441c2.442,0,4.07,0,5.698,3.256l4.882,11.392h5.696l-6.51-13.021
				c-0.813-1.626-1.627-2.442-3.255-3.254l0,0c4.068-0.814,6.511-3.257,6.511-7.324
				C994.431,616.037,987.921,614.407,981.411,614.407 M900.033,587.554h5.698c11.392,0,17.901,4.067,17.901,13.02
				c0,8.138-5.695,13.022-17.901,13.022h-6.51v-26.042H900.033z M900.033,617.663h10.58c13.02,0,18.716,4.068,18.716,13.022
				c0,4.067-1.626,7.323-4.067,9.764c-2.442,2.441-7.324,3.256-12.209,3.256h-13.021v-26.042H900.033z M889.455,589.995v57.778
				h4.883h5.695h13.021c6.511,0,12.209-1.626,15.461-4.883c4.069-3.254,5.697-7.321,5.697-12.205
				c0-8.954-4.882-13.836-14.647-16.278c6.51-3.254,8.952-8.136,8.952-14.646c0-4.883-1.627-8.954-5.696-12.208
				c-3.256-3.256-8.952-4.068-16.276-4.068h-8.138L889.455,589.995z M702.287,614.407h-18.717v32.552h18.717v-4.07h-13.834v-10.577
				h12.208v-4.068h-12.208v-9.766h13.834V614.407z M629.862,614.407h-8.138v32.552h4.882v-28.481l0,0l10.58,28.481h4.882
				l10.578-28.481l0,0v28.481h4.882v-32.552h-8.136l-9.767,27.67L629.862,614.407z M575.338,614.407h-4.883v19.532
				c0,8.951,4.883,13.834,13.022,13.834c8.136,0,13.02-4.883,13.02-13.834v-19.532h-4.882v18.718c0,6.51-1.626,10.578-8.136,10.578
				c-5.698,0-8.138-4.068-8.138-10.578v-18.718H575.338z M525.698,635.567l6.51-16.278l6.512,16.278H525.698z M529.766,614.407
				l-13.834,32.552h4.883l3.256-8.138h16.275l3.256,8.138h4.882l-13.836-32.552H529.766z M533.836,611.967h4.068v-4.88h-4.068
				V611.967z M526.512,611.967h4.068v-4.88h-4.068V611.967z M454.899,587.554h10.58c5.695,0,9.766,0.813,12.208,3.254
				c3.254,2.441,4.067,4.882,4.067,8.954c0,4.067-1.628,7.323-4.067,8.951c-3.256,2.442-7.324,3.255-12.208,3.255h-10.58V587.554z
				 M454.084,583.485l-9.764,6.51v57.778h5.696h4.882l0,0V616.85h8.952c4.069,0,7.323,0.813,8.954,2.441
				c2.441,1.628,4.88,4.882,8.951,11.395l11.393,17.901h5.697l-14.647-21.972c-3.256-5.696-6.51-8.952-8.952-9.766
				c8.136-3.254,12.206-8.137,12.206-15.46c0-4.882-1.626-8.952-5.696-12.208c-3.256-3.254-8.951-4.882-15.462-4.882h-12.208v-0.814
				H454.084z M415.839,638.821c0,4.067-4.07,5.697-6.512,5.697c-2.442,0-4.88-0.813-6.511-1.628l-0.812,4.07
				c2.441,0.813,4.067,1.626,6.51,1.626c6.51,0,12.208-2.442,12.208-9.766c0-10.578-13.836-9.767-13.836-15.46
				c0-3.256,3.256-4.07,5.698-4.07c2.441,0,4.067,0.814,6.51,1.628l0.813-4.069c-2.441-0.813-4.882-0.813-7.323-0.813
				c-5.698,0-10.578,3.254-10.578,8.952C402.005,633.127,415.839,631.497,415.839,638.821 M351.552,630.686
				c0,10.577,7.323,17.088,17.09,17.088c4.882,0,8.136-0.813,9.766-1.626v-16.276h-11.395v4.068h7.324v9.766
				c-0.812,0-1.626,0.814-4.882,0.814c-6.51,0-12.208-4.883-12.208-13.022c0-7.324,4.882-13.02,12.208-13.02
				c4.07,0,6.512,0.812,8.954,2.441v-4.882c-2.442-0.813-4.882-1.628-9.766-1.628C358.875,614.407,351.552,620.919,351.552,630.686
				 M309.234,614.407h-6.51v32.552h4.88v-26.855l0,0l14.648,26.855h5.697v-32.552h-4.882v26.042l0,0L309.234,614.407z
				 M257.153,614.407h-4.883v19.532c0,8.951,4.883,13.834,13.021,13.834s13.021-4.883,13.021-13.834v-19.532h-4.882v18.718
				c0,6.51-1.626,10.578-8.138,10.578c-6.51,0-8.136-4.068-8.136-10.578v-18.718H257.153z M201.002,630.686
				c0,10.577,6.511,17.088,17.088,17.088c4.883,0,8.139-0.813,9.767-1.626v-16.276h-11.393v4.068h6.511v9.766
				c-0.813,0-1.626,0.814-4.883,0.814c-6.51,0-12.205-4.883-12.205-13.022c0-7.324,4.882-13.02,12.205-13.02
				c4.07,0,6.513,0.812,8.954,2.441v-4.882c-2.441-0.813-4.882-1.628-9.766-1.628C208.326,614.407,201.002,620.919,201.002,630.686
				 M183.912,614.407h-18.716v32.552h18.716v-4.07h-13.834v-10.577h12.208v-4.068h-12.208v-9.766h13.834V614.407z M109.047,614.407
				h-4.882l9.764,32.552h6.512l7.324-28.481l0,0l7.324,28.481h5.696l9.766-32.552h-4.882l-8.138,28.481l0,0l-7.322-28.481h-6.512
				l-7.324,28.481l0,0L109.047,614.407z M84.633,614.407H66.73v32.552h18.718v-4.07H70.799v-10.577h12.208v-4.068H70.799v-9.766
				h13.834V614.407z M10.578,587.554h6.51c11.394,0,17.903,4.067,17.903,13.02c0,8.138-5.697,13.022-17.903,13.022h-6.51V587.554z
				 M10.578,617.663H21.97c12.208,0,18.716,4.068,18.716,13.022c0,4.067-1.626,7.323-4.068,9.764
				c-2.441,2.441-7.323,3.256-12.208,3.256H10.578V617.663z M10.578,583.485L0,589.995v57.778h5.695h4.883h13.833
				c6.513,0,12.208-1.626,15.462-4.883c4.068-3.254,5.696-7.321,5.696-12.205c0-8.954-4.882-13.836-14.646-16.278
				c6.51-3.254,8.951-8.136,8.951-14.646c0-4.883-1.626-8.954-5.697-12.208c-3.254-3.256-8.952-4.068-16.276-4.068H10.578
				L10.578,583.485z M444.321,569.649v-2.441H301.096v-26.854h-1.626l0.814-0.813L10.578,351.559v-1.628l-7.324-4.069H0v223.788l0,0
				l10.578-6.51V354.815l288.075,185.54v29.294h2.442l0,0H444.321z M446.763,569.649h-2.442l0,0H446.763L446.763,569.649z
				 M889.455,569.649v-1.626H747.044v-27.668h-1.626l0.814-0.813L454.901,352.375v-1.628l-8.952-5.696h-1.626v2.442v0.813l0,0
				v218.905h4.882v0.813l4.88-3.256V354.815l290.519,185.54v30.11h2.442l0,0L889.455,569.649h0.814H889.455z M1190.552,539.542
				h-1.626l0.813-0.813L900.035,351.562v-1.628l-7.324-4.883h-3.256v222.975h4.068l6.51-4.067V354.001l288.076,186.354v29.294h2.442
				V539.542L1190.552,539.542z"/>
		</g>
	</g>
</g>
</svg>
