<?xml version="1.0" encoding="utf-8"?>
<!-- Generator: Adobe Illustrator 15.1.0, SVG Export Plug-In . SVG Version: 6.00 Build 0)  -->
<!DOCTYPE svg PUBLIC "-//W3C//DTD SVG 1.1//EN" "http://www.w3.org/Graphics/SVG/1.1/DTD/svg11.dtd">
<svg version="1.1" id="Ebene_1" xmlns="http://www.w3.org/2000/svg" xmlns:xlink="http://www.w3.org/1999/xlink" x="0px" y="0px"
	 width="1190.549px" height="336.052px" viewBox="0 265.365 1190.549 336.052" enable-background="new 0 265.365 1190.549 336.052"
	 xml:space="preserve">
<g>
	<g>
		<g>
			<g>
				<defs>
					<rect id="SVGID_1_" x="0" y="265.365" width="1190.549" height="336.052"/>
				</defs>
				<clipPath id="SVGID_2_">
					<use xlink:href="#SVGID_1_"  overflow="visible"/>
				</clipPath>
				<path clip-path="url(#SVGID_2_)" fill="#EFC64F" d="M33.161,466.552c18.792,0,33.164-14.37,33.164-33.162
					c0-18.791-14.372-33.163-33.164-33.163C14.372,400.227,0,414.599,0,433.39C0,451.078,14.372,466.552,33.161,466.552
					 M1157.388,466.552c18.792,0,33.161-14.37,33.161-33.162c0-18.791-14.369-33.163-33.161-33.163s-33.164,14.372-33.164,33.163
					C1124.224,451.078,1138.596,466.552,1157.388,466.552 M826.865,466.552c18.792,0,33.163-14.37,33.163-33.162
					c0-18.791-14.371-33.163-33.163-33.163s-33.162,14.372-33.162,33.163C793.701,451.078,808.071,466.552,826.865,466.552
					 M361.478,466.552c18.792,0,33.163-14.37,33.163-33.162c0-18.791-14.371-33.163-33.163-33.163s-33.162,14.372-33.162,33.163
					C328.314,451.078,343.789,466.552,361.478,466.552 M164.711,466.552c18.792,0,33.161-14.37,33.161-33.162
					c0-18.791-14.371-33.163-33.161-33.163c-18.792,0-33.164,14.372-33.164,33.163C131.547,451.078,145.917,466.552,164.711,466.552
					 M164.711,598.101h22.106v-47.534l39.796,47.534h30.952l-47.533-53.062l44.218-46.428h-28.742l-38.691,40.899v-40.899h-22.104
					L164.711,598.101L164.711,598.101z M351.528,499.716H329.42v59.693c0,12.16-8.845,21.004-19.898,21.004
					c-12.16,0-19.896-8.844-19.896-21.004v-59.693h-22.11v60.798c0,23.214,14.372,40.901,42.008,40.901
					c27.634,0,42.006-17.688,42.006-40.901L351.528,499.716L351.528,499.716z M375.847,598.101h22.109v-39.795h11.055l21.002,39.795
					h26.532l-25.428-42.008c14.372-2.21,21.004-13.266,21.004-27.634c0-23.213-16.58-29.848-37.583-29.848h-38.69L375.847,598.101
					L375.847,598.101z M397.957,517.403h14.371c7.735,0,16.579,1.105,16.579,11.054c0,11.053-9.948,11.053-18.791,11.053h-12.159
					V517.403z M466.491,598.101h24.32l7.735-21.004h38.691l8.844,21.004h24.319l-43.113-99.488h-17.688L466.491,598.101z
					 M530.608,559.409h-24.319l12.16-30.952L530.608,559.409z M593.616,598.101h22.11V518.51h28.739v-18.792h-78.483v18.792h28.74
					v79.591H593.616z M656.627,548.355c0,32.058,22.109,51.957,53.062,51.957s53.06-19.897,53.06-51.957
					c0-32.057-22.108-51.956-53.06-51.956C678.735,496.399,656.627,517.403,656.627,548.355 M678.735,548.355
					c0-18.793,12.16-32.057,30.954-32.057c18.792,0,30.952,13.266,30.952,32.057s-12.16,32.058-30.952,32.058
					C690.895,580.413,678.735,567.146,678.735,548.355 M784.859,598.101h22.107v-39.795h11.054l21.004,39.795h26.532l-25.426-42.008
					c14.372-2.21,21.004-13.266,21.004-27.634c0-23.213-16.582-29.848-37.586-29.848h-38.689V598.101z M806.966,517.403h14.372
					c7.737,0,16.582,1.105,16.582,11.054c0,11.053-9.95,11.053-18.792,11.053h-12.16v-22.105L806.966,517.403L806.966,517.403z
					 M885.45,598.101h22.11v-99.488h-22.11V598.101z M1019.211,499.716h-22.11v59.693c0,12.16-8.844,21.004-19.897,21.004
					c-12.159,0-19.897-8.844-19.897-21.004v-59.693h-22.107v60.798c0,23.214,14.372,40.901,42.007,40.901
					c27.636,0,42.008-17.688,42.008-40.901v-60.798H1019.211z M1045.739,598.101h22.109v-76.274l0,0l25.427,76.274h16.581
					l26.53-76.274l0,0v76.274h22.11v-99.488h-33.164l-24.318,65.22l0,0l-23.214-64.115h-33.163V598.1L1045.739,598.101
					L1045.739,598.101L1045.739,598.101z M160.289,367.064h24.316l7.738-21.003h38.691l8.844,21.003h24.317l-43.111-99.489h-17.688
					L160.289,367.064z M223.298,327.269h-24.319l12.16-30.951L223.298,327.269z M275.252,367.064h24.318l7.738-21.003h38.689
					l8.845,21.003h24.319l-43.111-99.489h-17.688L275.252,367.064z M339.367,327.269H315.05l12.16-30.951L339.367,327.269z
					 M395.745,367.064h22.106v-39.797h11.054l21.004,39.797h25.427l-25.427-42.007c14.372-2.21,21.004-13.264,21.004-27.636
					c0-23.214-16.582-29.846-37.586-29.846h-38.688v99.489L395.745,367.064L395.745,367.064z M417.853,286.367h14.372
					c7.738,0,16.582,1.105,16.582,11.054c0,11.054-9.95,11.054-18.792,11.054h-13.267v-22.108L417.853,286.367L417.853,286.367z
					 M584.774,308.477h-38.689v19.898h17.688v16.582c-4.422,2.21-11.054,4.422-21.004,4.422c-18.792,0-30.953-13.266-30.953-32.058
					c0-18.792,12.159-32.058,30.953-32.058c11.054,0,17.688,3.315,24.32,9.949l15.474-16.582
					c-9.948-9.947-23.212-13.264-39.794-13.264c-30.953,0-53.061,19.898-53.061,51.956c0,32.058,22.108,51.955,53.061,51.955
					c14.372,0,28.742-3.315,42.006-9.949L584.774,308.477L584.774,308.477z M596.934,367.064h24.319l7.737-21.003h38.689
					l8.844,21.003h24.32l-43.114-99.489h-17.688L596.934,367.064z M661.049,327.269H636.73l12.159-30.951L661.049,327.269z
					 M795.909,267.575h-22.106v59.692c0,12.16-8.846,21.005-19.898,21.005c-12.16,0-19.896-8.845-19.896-21.005v-59.692h-22.11
					v60.798c0,23.214,14.372,40.901,42.008,40.901s42.006-17.687,42.006-40.901v-60.798H795.909z M822.442,367.064h69.643v-19.897
					H844.55v-21.004h43.11v-19.898h-43.11v-18.792h45.32v-19.897H822.44v99.489L822.442,367.064L822.442,367.064z M916.404,367.064
					h22.109v-39.797h11.055l21.001,39.797h26.532l-25.426-42.007c14.372-2.21,21.004-13.264,21.004-27.636
					c0-23.214-16.582-29.846-37.584-29.846h-38.691V367.064z M938.513,286.367h14.372c7.736,0,16.58,1.105,16.58,11.054
					c0,11.054-9.95,11.054-18.792,11.054h-13.267v-22.108L938.513,286.367L938.513,286.367L938.513,286.367z"/>
			</g>
		</g>
	</g>
</g>
</svg>
