<?xml version="1.0" encoding="utf-8"?>
<!-- Generator: Adobe Illustrator 15.1.0, SVG Export Plug-In . SVG Version: 6.00 Build 0)  -->
<!DOCTYPE svg PUBLIC "-//W3C//DTD SVG 1.1//EN" "http://www.w3.org/Graphics/SVG/1.1/DTD/svg11.dtd">
<svg version="1.1" id="Ebene_1" xmlns="http://www.w3.org/2000/svg" xmlns:xlink="http://www.w3.org/1999/xlink" x="0px" y="0px"
	 width="595.281px" height="132px" viewBox="0 0 595.281 132" enable-background="new 0 0 595.281 132" xml:space="preserve">
<g>
	<path fill="#EFC64F" d="M382.267,96.519c1.176,8.146,7.895,11.927,15.539,11.927c8.481,0,14.278-6.636,18.646-6.636
		c3.527,0,6.72,3.528,6.72,7.14c0,7.141-14.615,13.943-26.878,13.943c-18.563,0-30.912-13.523-30.912-31.75
		c0-16.716,12.097-31.918,29.566-31.918c17.894,0,29.652,16.295,29.652,29.987c0,4.954-2.187,7.308-7.225,7.308L382.267,96.519
		L382.267,96.519z M408.136,85.515c-0.924-7.225-5.459-12.601-13.188-12.601c-7.307,0-12.262,5.628-13.018,12.601H408.136z"/>
	<path fill="#EFC64F" d="M0,42.509c0-5.46,3.444-9.156,8.231-9.156c4.788,0,8.231,3.696,8.231,9.156v22.427
		c4.368-3.78,9.996-5.711,15.707-5.711c17.808,0,26.627,16.631,26.627,32.59c0,15.623-10.5,31.078-27.131,31.078
		c-5.628,0-12.011-2.521-15.119-7.561c-1.008,4.368-3.695,6.889-8.231,6.889c-4.788,0-8.231-3.695-8.231-9.155V42.509H0z
		 M29.398,107.773c8.567,0,12.852-8.903,12.852-16.631c0-7.813-4.2-16.8-12.852-16.8c-8.819,0-12.936,8.231-12.936,16.296
		C16.463,98.618,20.411,107.773,29.398,107.773"/>
	<path fill="#EFC64F" d="M83.996,44.188c0,5.124-4.116,9.492-9.24,9.492c-4.956,0-9.238-4.452-9.238-9.492
		c0-4.704,4.368-9.071,9.238-9.071C79.712,35.117,83.996,39.4,83.996,44.188 M66.525,69.052c0-5.459,3.444-9.155,8.23-9.155
		c4.788,0,8.232,3.696,8.232,9.155v44.014c0,5.46-3.444,9.155-8.232,9.155c-4.787,0-8.23-3.695-8.23-9.155V69.052z"/>
	<path fill="#EFC64F" d="M174.628,69.052c0-5.459,3.444-9.155,8.231-9.155c4.2,0,6.972,2.268,7.56,6.216
		c4.032-4.368,9.324-6.888,15.372-6.888c6.889,0,12.684,2.855,17.051,8.398c4.62-5.292,11.76-8.398,17.388-8.398
		c13.354,0,22.595,7.812,22.595,22.175v31.582c0,5.46-3.444,9.155-8.231,9.155s-8.231-3.695-8.231-9.155V84.255
		c0-6.637-3.696-11.341-9.575-11.341c-6.048,0-9.744,4.704-9.744,11.341v28.727c0,5.46-3.443,9.155-8.23,9.155
		c-4.788,0-8.232-3.695-8.232-9.155V84.255c0-6.637-3.696-11.341-9.576-11.341c-6.719,0-9.743,4.704-9.743,11.341v28.727
		c0,5.46-3.443,9.155-8.231,9.155s-8.231-3.695-8.231-9.155v-43.93H174.628z"/>
	<path fill="#EFC64F" d="M311.541,85.515h-26.206c0.84-6.973,5.712-12.601,13.021-12.601
		C306.082,72.915,310.701,78.375,311.541,85.515 M321.117,70.563c-5.207-6.552-13.104-11.339-22.762-11.339
		c-17.389,0-29.567,15.203-29.567,31.918c0,18.228,12.348,31.75,30.911,31.75c12.264,0,26.879-6.888,26.879-13.943
		c0-3.526-3.192-7.14-6.721-7.14c-4.367,0-10.164,6.636-18.646,6.636c-7.644,0-14.447-3.779-15.54-11.927h35.194
		c5.041,0,7.225-2.438,7.225-7.309c0-4.703-1.428-9.575-3.864-14.11l-1.008,1.176l-3.947-0.168l-2.521-1.26l3.779-3.192
		L321.117,70.563z"/>
	<path fill="#EFC64F" d="M144.137,74.511c-1.513-3.107-3.528-6.383-5.965-9.071c-2.1-2.352-5.292-5.543-8.23-6.888
		c-2.101,1.092-4.536,3.191-6.72,5.208c-2.017,1.848-3.864,4.199-5.375,6.3c-3.276,4.704-5.713,10.163-6.133,17.051
		c-0.588,9.744,3.444,16.884,6.889,23.184c-7.057-4.535-12.601-15.287-13.607-18.479c-1.008-3.023-1.68-6.132-1.68-6.132
		s-1.092,1.596-1.344,2.436c-3.444,11.088,0.336,25.115,9.155,32.339c8.735,7.225,20.663,7.813,30.238,3.948
		c8.148-3.275,13.691-10.836,15.204-20.579c1.596-10.08-1.428-19.15-5.292-25.199c-0.504-0.84-2.1-2.268-2.1-2.268
		s0.168,1.848,0.336,2.771c1.428,7.392-0.841,15.959-3.276,20.41C149.094,91.311,147.245,81.146,144.137,74.511 M126.918,53.849
		c10.835-0.84,21.503,3.864,27.72,9.492c6.216,5.712,11.76,14.362,12.6,25.45c1.008,12.348-3.612,21.671-9.492,28.224
		c-5.88,6.552-14.027,11.759-25.451,12.599c-12.264,0.924-21.923-3.863-28.307-9.575c-6.552-5.88-11.844-14.782-12.516-25.535
		c-0.757-12.263,4.031-21.839,9.743-28.138C107.095,59.813,115.243,54.772,126.918,53.849"/>
	<path fill="#EFC64F" d="M430.9,68.128c0-5.46,4.367-8.231,8.484-8.231c4.366,0,7.979,1.596,7.979,6.888h0.252
		c3.107-4.62,6.386-6.888,11.593-6.888c4.03,0,7.979,2.856,7.979,8.819c0,5.375-4.957,5.711-9.828,7.979
		c-4.955,2.269-9.996,4.451-9.996,11.003v25.283c0,5.46-3.442,9.155-8.229,9.155c-4.789,0-8.232-3.695-8.232-9.155L430.9,68.128
		L430.9,68.128z"/>
	<path fill="#EFC64F" d="M468.531,105.003c4.955,0,8.902,4.03,8.902,8.902c0,4.956-4.031,8.903-8.902,8.903
		c-4.957,0-8.903-4.031-8.903-8.903S463.574,105.003,468.531,105.003"/>
	<path fill="#EFC64F" d="M528.672,77.535c-4.115,0-7.813-3.191-13.021-3.191c-9.408,0-13.859,8.399-13.859,16.8
		c0,8.146,4.955,16.631,13.859,16.631c4.115,0,10.332-3.443,12.264-3.443c3.863,0,7.056,3.359,7.056,7.225
		c0,8.482-14.195,11.339-20.158,11.339c-17.723,0-29.566-14.531-29.566-31.75c0-16.716,12.181-31.918,29.566-31.918
		c6.551,0,20.158,2.436,20.158,10.416C534.97,73.083,532.619,77.535,528.672,77.535"/>
	<path fill="#EFC64F" d="M540.935,42.509c0-5.46,3.443-9.156,8.229-9.156c4.789,0,8.232,3.696,8.232,9.156v22.427h0.252
		c3.443-4.2,9.828-5.711,15.035-5.711c12.936,0,22.596,8.23,22.596,22.175v31.582c0,5.46-3.442,9.155-8.231,9.155
		c-4.787,0-8.23-3.695-8.23-9.155V84.255c0-7.645-4.789-11.341-10.752-11.341c-6.721,0-10.5,4.956-10.5,11.341v28.727
		c0,5.46-3.443,9.155-8.229,9.155c-4.789,0-8.232-3.695-8.232-9.155V42.509H540.935z"/>
	<path fill="#EFC64F" d="M338.167,77.703l4.705-6.804l1.849,10.163l5.375,5.208V71.319l1.26,1.092l2.604,3.612v2.604v34.438
		c0,5.46-3.444,9.155-8.231,9.155s-8.232-3.695-8.232-9.155V77.787L338.167,77.703z"/>
	<path fill="#EFC64F" stroke="#FDFDFD" stroke-width="2.616" stroke-miterlimit="10" d="M378.486,63.844
		c-2.604-1.681-3.023-3.696-3.023-3.696s3.275-0.336,5.039-0.336c1.767,0,5.545-2.604,5.545-2.604s-4.789-1.344-7.477-2.1
		c-2.771-0.756-4.871-2.436-4.871-2.436s4.199-1.429,7.644-3.444c3.36-2.016,3.276-5.628,3.276-5.628s-2.352,1.008-3.276,1.764
		c-0.841,0.672-10.835-0.252-10.835-0.252s2.101-1.596,3.947-2.688c1.848-1.093,8.148-3.696,8.148-3.696s-4.873-2.016-9.576-2.521
		c-4.619-0.504-6.301,0.505-6.301,0.505s5.125-5.124,6.889-7.729c1.764-2.604,1.512-4.2,1.512-4.2s-6.299,1.933-9.491,2.94
		c-3.191,1.008-4.619,2.016-4.619,2.016s0.84-2.1,1.344-3.443c0.504-1.345-0.42-3.696,1.512-6.048
		c1.933-2.352,1.429-5.124,1.429-5.124s-6.3,0.673-9.07,1.849c-2.771,1.26-4.789,8.65-4.789,8.65s-0.504-6.972-0.42-8.482
		c0.084-1.597-2.437-7.141-2.437-7.141s-1.26,0.505-3.778,3.023c-2.437,2.52-3.443,12.348-3.443,12.348s-2.1-3.527-3.697-5.796
		c-1.596-2.268-9.489-6.72-9.489-6.72s1.008,3.948,2.184,8.652c0.756,3.023,1.68,8.986,1.68,8.986s-4.619-0.168-8.567-2.436
		c-3.947-2.185-6.3-7.225-6.3-7.225s0.673,7.477,1.261,9.575c0.588,2.101,7.729,8.82,7.729,8.82s-7.393-4.62-9.828-5.124
		c-2.352-0.42-10.752,0-10.752,0s6.049,5.46,7.562,7.728c1.512,2.269,10.918,7.393,10.918,7.393s-7.308,0.336-13.607,2.268
		c-6.299,1.849-5.459,6.553-5.459,6.553s10.416,3.359,13.859,3.191c3.442-0.084,6.301-0.84,6.301-0.84s-1.934,6.132-2.773,8.483
		s-8.565,9.491-8.565,9.491s5.711,0.841,10.918-0.84c5.209-1.68,10.248-6.132,10.248-6.132s-1.092,6.468-0.924,7.729
		c0.168,1.26-1.177,10.5-1.177,10.5s4.787-8.82,5.964-11.257c1.178-2.436,3.864-6.132,3.864-6.132s0.756,9.492,2.353,12.601
		c1.68,3.106,6.383,5.04,6.383,5.04s-1.68-8.484-1.932-12.013c-0.337-3.527,0.336-5.46,0.336-5.46s2.52,4.452,4.536,5.964
		c2.017,1.429,9.826,8.651,9.826,8.651s-1.68-4.451-1.848-5.712c-0.168-1.26,0.084-2.855-0.42-6.215
		c-0.504-3.444-2.269-6.132-2.269-6.132s5.039,4.367,7.98,5.04c2.854,0.588,6.299,3.863,6.299,3.863s-0.924-3.863-2.52-6.972
		c-1.513-3.108-4.199-4.62-4.199-4.62s4.703,1.008,7.811,1.176c3.107,0.084,5.459,1.765,5.459,1.765S381.173,65.523,378.486,63.844z
		"/>
	<path fill="#EFC64F" d="M346.148,35.537c-7.478,0-14.111,6.637-14.111,13.775c0,7.644,6.635,14.447,14.111,14.447
		c7.813,0,14.111-6.637,14.111-14.447C360.26,42.005,353.625,35.537,346.148,35.537"/>
</g>
</svg>
