<?xml version="1.0" encoding="utf-8"?>
<!-- Generator: Adobe Illustrator 15.1.0, SVG Export Plug-In . SVG Version: 6.00 Build 0)  -->
<!DOCTYPE svg PUBLIC "-//W3C//DTD SVG 1.1//EN" "http://www.w3.org/Graphics/SVG/1.1/DTD/svg11.dtd">
<svg version="1.1" id="Ebene_1" xmlns="http://www.w3.org/2000/svg" xmlns:xlink="http://www.w3.org/1999/xlink" x="0px" y="0px"
	 width="1190.549px" height="841.891px" viewBox="0 0 1190.549 841.891" enable-background="new 0 0 1190.549 841.891"
	 xml:space="preserve">
<g>
	<path fill="#EFC64F" d="M-0.211,422.902c-0.85-15.316,3.402-37.441,10.214-59.141c7.234-22.122,17.869-42.546,31.056-61.692
		c22.974-33.187,52.33-60.416,84.667-83.817c22.548-16.595,46.8-31.058,71.902-43.398c13.613-6.806,27.229-13.613,40.844-19.146
		c16.168-6.806,32.76-12.764,49.777-18.295c17.02-5.53,34.464-11.062,51.481-15.744c17.02-4.682,34.465-8.507,51.482-11.909
		c24.254-4.258,48.079-8.085,72.326-11.487c16.169-2.128,32.335-2.554,48.077-4.681c35.74-4.258,71.481-3.404,106.792-2.978
		c20.848,0,41.269,2.126,62.12,3.825c26.376,2.552,52.331,5.531,78.283,9.361c17.871,2.552,35.313,6.806,52.758,10.635
		c13.614,2.979,27.228,6.383,40.846,10.212c11.908,3.404,23.823,7.236,35.736,11.487c10.21,3.404,20.848,6.382,30.632,10.212
		c14.041,5.53,28.078,11.487,41.696,17.871c19.143,8.935,37.865,18.298,56.16,28.933c15.742,9.36,31.06,19.996,45.95,31.06
		c23.404,17.018,44.673,36.162,62.969,58.713c8.932,11.059,17.018,23.399,24.675,35.313c5.956,9.355,11.065,19.567,16.17,29.782
		c3.827,7.233,6.806,14.889,10.214,22.548c0.424,1.273,0,2.555,0.424,3.828c2.553,7.233,5.952,14.463,7.233,22.122
		c0.424,1.703,2.129,3.404,2.553,5.107c1.275,8.933,2.98,17.441,3.404,26.378c0.423,8.087,0.423,16.594,0,25.103
		c-0.424,5.105-1.705,10.636-2.553,15.745c-0.424,2.552,0,5.104-0.424,7.657c-0.852,3.827-1.705,7.659-2.557,11.063
		c-0.424,2.126-0.847,3.825-1.705,5.954c-1.273,3.827-2.124,7.659-3.399,11.487c-1.275,4.257-2.553,8.933-4.258,12.767
		c-4.254,8.93-8.509,17.438-13.19,25.952c-2.124,4.26-5.528,7.659-8.081,11.912c-3.831,5.957-6.808,12.339-10.637,18.721
		c-1.275,1.703-2.553,3.404-4.258,5.107c-4.682,4.679-11.485,8.083-12.339,16.166c0,1.275-1.705,2.553-2.98,3.404
		c-4.681,4.681-9.786,9.786-14.465,14.465c-2.977,2.979-5.105,6.378-10.21,5.957c-1.275,0-2.553,1.7-3.828,2.552
		c-3.827,3.826-7.233,7.657-11.065,11.062c-3.399,2.977-7.657,5.107-11.057,7.659c-2.98,2.553-5.532,5.531-8.509,8.083
		c-2.129,1.703-4.258,2.979-6.808,4.256c-0.852,0.426-1.701,0.426-2.553,0.85c-5.532,4.258-11.062,8.511-17.018,12.339
		c-4.682,2.978-9.786,5.53-14.889,8.509c-1.275,0.849-2.977,1.274-4.682,2.126c-7.661,4.258-15.319,8.935-22.974,13.192
		c-7.658,4.256-14.89,8.085-22.547,11.485c-4.258,2.131-9.36,3.403-13.617,5.109c-5.105,2.126-9.787,4.679-14.462,6.378
		c-7.661,2.552-14.889,7.235-23.403,8.085c-2.977,0.424-5.957,2.552-8.933,3.827c-5.957,2.553-12.341,4.682-18.295,6.806
		c-2.98,0.852-6.38,1.275-9.36,2.131c-2.129,0.422-3.828,1.273-5.529,2.127c-1.274,0.426-2.129,1.703-2.979,1.703
		c-9.786-0.426-17.441,4.682-25.952,8.083c-0.424,0-0.852,0.426-0.852,0.426c-9.787-2.553-17.867,6.806-27.651,4.682
		c-2.98-0.85-6.808,2.552-10.638,3.401c-11.489,2.129-23.404,3.83-34.889,5.957c-1.706,0.426-2.98,1.272-4.682,1.702
		c-3.828,0.85-8.085,1.706-11.913,1.706c-4.681,0-8.933-0.426-13.19,2.126c-3.827,2.129-8.509,2.979-12.766,2.555
		c-11.485-0.852-22.547,1.273-33.607,3.402c-3.404,0.849-7.662,0.426-11.062,0.426c-7.662-0.426-14.889-0.852-22.123,2.126
		c-2.98,1.273-7.237,0.426-10.638,0.426c-7.661,0.424-14.889,0.424-22.55,0.85c-5.529,0.424-10.638,0.85-16.167,0.85
		c-13.613,0-27.655,0.426-41.269,0c-8.509-0.426-17.018-1.703-25.526-2.553c-2.98,0-5.957,1.273-8.937,0.85
		c-4.254-0.426-8.081-1.705-12.339-1.705c-10.636-0.848-21.271-1.273-31.909-2.127c-3.827-0.426-7.235-1.703-10.64-2.129
		c-4.255-0.423-8.507-0.849-13.188-1.274c-3.828,0-8.935,1.705-11.487,0c-8.507-5.957-18.721-2.553-27.653-5.105
		c-8.935-2.552-19.146-2.978-28.505-4.681c-7.659-1.705-14.891-4.258-22.124-5.957c-2.127-0.426-3.828-0.85-5.957-0.85
		c-1.7,0-3.401,0.424-5.104,0c-8.509-2.128-17.018-4.681-25.526-6.806c-6.38-1.703-13.19-3.403-19.57-5.106
		c-6.38-1.705-12.767-3.404-19.145-5.531c-6.806-2.552-13.618-5.106-20.422-7.659c-11.486-4.258-22.974-8.085-34.463-12.767
		c-11.489-4.681-22.549-9.786-33.609-15.316c-9.36-4.684-18.721-10.212-28.081-14.891c-4.256-1.701-8.083-3.402-10.212-7.658
		c-0.424-0.426-0.85-0.851-1.275-0.851c-4.68,0.851-8.083-2.127-11.062-4.68c-2.553-2.129-5.104-4.258-8.083-6.382
		c-1.273-0.848-2.979-1.273-4.256-2.129c-2.128-0.85-4.681-1.701-5.956-2.977c-2.553-2.978-4.256-7.233-9.786-5.532
		c-0.852,0-2.131-2.127-3.404-3.4c-3.403-4.683-6.806-9.788-13.615-9.788c-0.424,0-1.275-0.852-1.703-1.703
		c-6.806-7.661-14.889-14.039-23.402-19.996c-8.935-5.956-16.168-14.465-23.401-22.548c-11.487-12.767-22.549-25.103-32.761-38.717
		c-14.039-18.721-25.101-39.565-32.762-61.692C4.897,473.108,0.639,452.259-0.211,422.902z M112.11,330.152
		c22.975,0,45.952,0,68.925,0c6.808,0,7.659-1.273,6.382-8.085c-1.275-4.68-2.553-9.356-3.404-14.464
		c-0.426-1.274,0.426-3.827,1.275-4.257c0.85-0.424,2.979,0,4.682,0.852c2.552,1.272,5.104,2.978,7.659,4.255
		c6.806,3.402,6.806,3.402,11.911-2.552c14.463-17.441,28.933-34.89,43.823-51.481c17.018-19.572,34.033-38.717,51.906-57.438
		c15.743-16.594,32.761-32.336,49.353-48.079c5.53-5.106,11.911-10.636,19.994-11.487c17.018-1.274,34.035-2.978,51.482-2.978
		c13.616,0,25.952,3.403,32.337,17.871c3.401,7.235,7.657,13.192,16.592,16.592c20.848,8.085,40.843,18.723,61.263,27.229
		c11.489,4.684,20.422,11.913,25.104,23.404c5.956,13.614,2.552,23.825-11.062,26.378c-5.533,1.277-11.062,0.852-16.595,0
		c-10.637-0.847-16.592-10.21-9.355-20.847c2.129-2.979,3.827-7.66,8.933-5.957c3.403,1.275,2.976,5.107-0.848,10.638
		c-2.553,3.402-2.129,5.956,2.125,6.806c5.108,0.426,10.638,0.426,16.17-0.426c3.828-0.424,5.528-4.257,4.258-8.083
		c-1.705-4.683-4.258-9.788-7.238-13.615c-7.233-9.358-18.295-11.911-28.074-16.593c-17.446-8.083-35.317-15.318-52.759-22.974
		c-5.106-2.127-10.638-5.104-11.912-11.487c-0.426-2.127-1.703-3.399-2.979-5.53c-3.826-8.083-9.356-13.19-18.721-14.463
		c-15.317-1.275-31.058-1.275-46.376,0.849c-7.231,0.85-14.889,1.275-20.848,6.807c-17.443,16.168-35.314,31.91-51.906,48.928
		c-16.169,16.593-31.058,34.033-46.376,51.481c-16.593,18.721-32.761,37.865-48.929,57.438c-5.107,5.954-4.682,7.235,2.552,10.636
		c10.215,5.106,20.422,11.061,30.634,16.168c5.105,2.553,10.214,5.53,15.319,5.53c13.189-0.424,26.38-2.553,39.563-3.401
		c17.443-1.275,34.89-2.129,52.333,1.703c2.126,0.426,4.681,0,6.806-0.426c10.212-3.402,20.419-6.807,30.207-10.21
		c12.339-3.83,25.099-7.659,37.441-11.913c7.657-2.553,8.935-1.703,11.487,5.956c0.422,1.275,1.703,2.553,2.979,3.828
		c1.272-1.275,2.553-2.129,3.399-3.402c3.83-5.532,6.808-11.488,10.638-17.443c11.487-17.441,27.655-25.952,48.079-22.548
		c11.065,1.703,21.697,0,32.335-2.555c3.403-0.848,6.808-3.399,9.79-5.954c3.399-2.979,2.553-7.66-0.852-8.933
		c-4.682-2.129-8.933-3.83-14.466-2.129c-2.552,0.85-5.956,0.85-8.508,0.426c-1.275-0.426-3.404-2.555-3.404-4.258
		c0-1.273,2.129-3.404,3.827-3.83c4.682-0.847,9.36-1.7,13.618-1.272c5.528,0.852,11.908,1.272,15.742,4.681
		c8.933,7.66,5.105,22.549-5.956,27.23c-13.19,5.956-27.228,6.806-41.269,5.53c-6.383-0.422-12.767,0-19.146,1.275
		c-9.789,2.129-15.745,9.786-21.275,17.018c-10.212,13.616-17.016,28.505-22.125,44.671c-4.679,15.744-13.613,29.36-23.399,42.551
		c-5.531,7.231-11.487,14.039-17.019,20.847c-2.128,2.553-2.554,5.105,0.85,6.807c3.404,1.7,7.234,2.978,10.638,4.681
		c11.911,4.682,23.4,9.786,35.313,14.466c9.358,3.825,18.295,7.657,27.655,11.486c8.51,3.4,16.593,6.378,25.102,9.786
		c9.357,3.404,18.295,6.807,27.657,10.212c1.701,0.426,3.823,0,5.104-0.849c7.657-4.258,15.319-8.509,22.971-13.19
		c17.445-10.638,34.465-21.699,51.91-32.337c5.105-3.401,7.657-2.978,11.058,2.553c10.214,15.321,11.065,31.913,3.831,48.929
		c-5.956,14.039-15.318,26.382-27.231,36.59c-2.976,2.552-4.681,5.53-2.552,9.786c1.272,2.552,1.7,5.956,1.7,8.935
		c0.428,10.21,0.428,20.85,0.428,31.057c0.424,8.509,4.258,14.89,9.786,21.273c10.638,12.339,20.848,25.103,29.784,38.291
		c6.807,9.786,6.807,21.273,5.105,32.337c-0.424,2.126-3.404,3.827-5.105,5.956c-1.274-2.129-2.979-3.83-3.827-6.382
		c-1.275-3.826-1.705-7.66-2.98-11.487c-1.701-3.825-4.682-7.233-9.356-6.378c-6.808,1.272-12.338,4.679-14.041,12.338
		c-0.848,4.684-2.125,9.358-2.125,14.04c-0.428,9.788-2.552,12.339-11.913,14.039c-11.912,2.129-23.827,4.258-35.74,5.957
		c-15.314,2.129-30.208,4.681-45.522,5.53c-11.487,0.852-23.404,0.852-35.313,0c-12.769-0.85-25.103-2.979-37.443-5.956
		c-14.889-3.402-27.655-11.062-39.994-19.57c-5.956-4.256-11.487-9.786-17.02-14.889c-2.127-2.127-2.977-4.682-0.424-7.236
		c2.553-2.126,5.104-1.7,7.235,0.852c0.422,0.426,0.848,0.85,1.273,1.275c15.316,16.168,34.035,25.952,55.309,31.911
		c22.549,6.38,45.524,5.53,68.499,3.827c25.528-2.131,51.055-7.661,76.581-11.487c3.828-0.426,5.533-2.552,5.533-6.382
		c0-3.827,0.424-7.657,1.272-11.062c2.98-15.742,14.466-24.677,28.084-22.122c1.7,0.424,2.976-0.426,4.677-0.426
		c-0.42-1.703-0.42-3.402-1.273-4.682c-9.36-11.913-19.57-22.974-28.937-34.889c-2.976-3.828-5.952-8.083-7.657-12.767
		c-4.254-10.636-3.404-22.12-3.404-33.607c0-6.806,0-14.466-2.124-20.422c-8.509-22.122-26.809-32.76-48.507-39.143
		c-11.062-3.399-22.123-5.952-33.185-10.209c-16.168-5.957-31.91-12.767-47.651-19.572c-19.993-8.084-39.563-16.593-59.565-24.678
		c-1.701-0.848-4.256-0.424-5.955,0c-0.849,0.426-0.849,3.404-0.423,5.107c0.423,8.935,1.703,17.443,1.703,26.382
		c0,6.378-0.852,12.765-0.852,19.145c0.426,11.062,4.257,20.85,12.338,28.933c5.957,5.956,11.062,12.339,15.743,19.146
		c2.552,3.401,1.702,7.235-2.129,10.212c-2.127,1.703-4.258,3.827-5.957,5.532c-5.53,6.378-3.827,13.188,4.256,15.743
		c4.684,1.701,5.532,3.825,3.404,8.083c-0.85,1.703-2.127,2.979-3.404,4.681c-7.657,8.51-17.869,11.062-28.931,11.911
		c-11.912,0.85-23.403,0.426-35.314,2.129c-5.956,0.85-12.767,2.979-17.871,6.806c-5.531,4.258-9.786,10.64-13.19,16.592
		c-13.19,22.975-33.611,34.892-59.141,35.317c-18.721,0-32.76,6.806-45.097,19.567c-3.403,3.404-2.978,6.383,1.275,8.084
		c4.256,2.131,8.935,3.829,13.19,5.532c8.509,3.402,16.592,6.806,25.101,10.212c9.786,3.828,19.146,7.659,28.933,11.063
		c10.638,3.825,21.699,7.233,32.76,10.212c14.04,3.827,27.656,7.657,41.695,11.062c15.742,3.403,31.057,6.806,46.8,9.355
		c15.318,2.979,30.207,5.533,45.524,7.662c14.891,2.129,30.208,2.979,45.099,4.681c11.91,1.273,24.251,2.979,36.586,3.402
		c26.384,0.85,52.758,0.426,79.138,0.426c9.36,0,19.146,0,28.503-0.85c13.19-0.852,26.809-2.129,39.998-3.403
		c17.441-1.703,34.461-3.404,51.907-5.957c11.908-1.703,23.827-4.255,36.16-6.806c12.338-2.551,24.679-4.684,37.018-7.659
		c12.339-2.979,24.251-5.954,36.592-9.358c16.166-4.682,32.332-8.935,48.075-14.466c19.57-7.233,38.717-15.316,57.863-23.401
		c13.613-5.956,27.227-11.911,39.993-19.57c19.146-11.062,37.87-22.974,56.163-35.738c25.526-17.443,48.078-38.291,67.648-62.119
		c17.441-21.272,31.913-44.247,41.693-70.203c5.532-14.464,9.36-29.782,11.061-44.671c3.828-35.738-2.124-69.774-17.441-102.108
		c-15.742-33.612-38.293-62.119-65.52-86.796c-13.19-11.911-27.232-22.549-41.27-33.184c-11.062-8.086-22.975-15.321-34.889-22.551
		c-11.489-6.806-22.975-12.765-34.89-19.145c-9.36-4.681-19.146-9.358-28.933-13.615c-12.766-5.531-25.103-10.636-38.293-15.317
		c-18.719-6.382-37.441-12.767-56.16-18.297c-14.041-4.256-28.507-7.659-42.974-11.063c-15.743-3.825-31.913-7.233-48.079-9.786
		c-14.466-2.553-28.933-4.258-43.398-5.956c-25.103-2.553-49.777-6.381-74.881-7.234c-43.821-1.274-87.643-2.978-131.467,2.129
		c-21.272,2.553-42.546,3.826-63.819,6.38c-13.613,1.703-27.229,4.682-40.417,7.234c-12.765,2.555-25.524,4.681-37.867,7.659
		c-12.765,2.979-25.101,6.382-37.441,9.788c-11.487,2.979-22.549,5.954-33.609,9.786c-13.616,4.682-27.23,9.788-40.42,15.319
		c-11.913,4.681-23.828,8.933-35.313,14.465c-20.852,10.636-42.121,21.273-62.121,33.609
		c-19.146,11.911-37.016,25.104-54.459,39.564c-13.19,10.638-25.524,22.974-36.588,35.738
		c-11.062,12.769-20.42,26.806-30.206,40.846c-3.829,5.106-2.555,6.806,4.256,6.806C66.159,330.152,89.136,330.152,112.11,330.152z
		 M229.963,392.269c-1.273-0.424-2.553-0.85-3.402-1.705c-5.107-3.399-10.212-7.657-15.744-10.21
		c-8.931-3.829-18.296-7.233-27.653-10.212c-8.507-2.552-17.441-4.681-25.953-6.806c-7.233-1.275-9.788,0.424-10.212,8.083
		c-0.849,12.339-1.274,24.252,2.553,36.164c4.256,12.339,11.911,21.273,22.973,27.23c15.744,8.509,32.76,9.788,50.629,7.657
		c5.104-0.424,9.356-3.826,10.636-8.507c2.979-9.358,7.659-19.145,5.532-29.784c-0.426-2.553,0.424-4.256,3.402-3.402
		c3.827,1.273,5.954-0.424,8.509-2.978c11.485-10.636,15.742-24.252,16.168-39.566c0-2.553-2.552-6.806-5.104-8.083
		c-19.148-10.212-38.717-20.42-58.289-30.208c-2.127-1.273-4.679-1.703-8.509-2.979c3.404,14.466,7.233,27.229,13.616,38.717
		C215.497,368.869,222.731,380.358,229.963,392.269z M552.036,479.488c0.428,1.273,0.428,1.703,0.852,1.703
		c0.424,0.426,0.847,0.852,1.275,0.852c14.887,5.954,28.078,14.465,37.441,27.653c2.124,2.555,4.257,2.555,6.38,0
		c4.253-4.68,8.933-9.358,12.762-14.466c11.065-14.887,18.723-30.631,11.065-50.203c-2.128-4.68-4.257-5.952-8.513-3.4
		c-12.762,8.083-25.952,16.169-38.717,24.252C567.355,470.128,559.698,474.809,552.036,479.488z M437.587,333.982
		c0.426-6.383-1.703-8.084-6.806-6.383c-5.53,1.705-11.062,3.83-17.018,5.533c-14.04,4.257-28.081,8.509-42.118,13.189
		c-1.275,0.424-2.979,3.402-2.553,4.682c2.553,9.358,5.104,18.721,8.507,27.655c3.827,10.636,4.257,10.636,14.039,4.682
		c13.616-8.086,26.809-17.443,37.018-30.208C433.332,348.021,436.312,341.214,437.587,333.982z M289.103,425.029
		c-0.426,0.426-0.426,0.85-0.852,1.275c-0.849,0-2.126,0-2.978,0.423c-6.38,0.852-13.188,7.234-14.04,13.19
		c-0.847,5.53,2.129,11.062,9.36,13.616c7.657,2.978,15.743,4.681,23.826,6.38c5.956,1.272,8.083-1.275,6.806-7.234
		c-0.424-1.705-0.85-3.827-1.703-5.106c-3.402-5.53-6.806-11.063-11.063-15.742C295.908,428.436,292.081,427.158,289.103,425.029z
		 M433.332,367.168c-0.426-0.426-0.85-0.852-1.703-1.275c-1.705,1.275-3.402,2.129-4.682,3.402
		c-7.659,5.956-15.319,11.912-22.972,17.871c-5.107,3.399-10.638,5.954-15.321,9.786c-1.273,0.85-2.553,3.827-2.127,5.956
		c0.424,3.826,2.127,7.657,3.402,11.062c1.703,5.53,4.255,5.956,7.659,2.129c8.083-9.786,16.592-19.572,24.251-29.358
		C426.1,380.358,429.504,373.548,433.332,367.168z M374.194,571.387c8.085,0,13.189-4.256,13.189-10.212
		c0-4.679-4.257-9.786-8.508-10.21c-8.935-1.277-14.04,0.424-16.169,6.378C359.731,565.431,364.833,572.24,374.194,571.387z"/>
	<path fill="#EFC64F" d="M1040.466,354.827c-0.852,2.131-1.275,4.258-2.134,6.383c-4.253,11.912-8.08,23.825-12.762,35.738
		c-0.852,1.703-2.98,3.827-5.105,4.255c-1.274,0.426-4.257-1.703-4.685-3.401c-2.553-5.954-4.682-11.911-6.806-18.297
		c-2.553-6.807-4.682-13.614-7.234-20.42c-0.424-1.705-1.705-2.979-3.404-4.258c-0.423,1.703-1.274,3.402-1.274,5.107
		c-1.701,11.91-2.977,24.251-5.105,36.162c-0.423,1.705-2.976,3.401-4.681,4.681h-0.42c-11.912,1.703-13.613,0-11.912-11.91
		c3.827-24.252,8.085-48.503,12.34-72.754c0.424-2.979,1.701-5.533,5.105-5.957c3.827,0,8.085-1.275,9.79,3.826
		c4.253,11.061,8.505,22.548,12.763,33.611c1.274,2.979,2.552,6.38,3.827,9.358c0.424,1.273,1.705,2.553,2.553,3.825
		c1.274-1.272,2.976-2.127,3.827-3.825c2.129-5.107,3.828-10.636,5.533-15.745c2.976-8.509,5.956-17.441,8.933-25.952
		c1.7-4.681,5.532-5.956,10.638-5.53c4.681,0.426,5.528,3.404,5.956,7.659c2.976,19.145,5.956,38.717,8.509,57.861
		c0.848,6.806,1.701,13.615,2.553,20.419c0,0.85-0.424,2.555-0.424,2.979c-4.258,0.85-8.937,1.705-13.19,1.705
		c-3.403,0-4.686-2.553-5.108-5.956c-1.275-10.638-2.129-21.273-3.828-31.911c-0.424-2.979-1.275-5.53-2.125-8.509
		C1041.742,355.253,1041.315,354.827,1040.466,354.827z"/>
	<path fill="#EFC64F" d="M748.602,476.936c1.273-1.705,2.977-3.401,3.823-5.53c3.404-9.788,6.808-19.996,10.214-29.782
		c1.275-4.258,2.553-8.935,5.109-12.339c1.701-2.126,5.952-2.976,8.933-2.976c2.129,0,4.253,2.127,5.952,4.258
		c0.852,1.272,0.852,3.399,1.275,4.679c1.705,12.339,3.403,24.677,5.109,37.016c1.705,11.913,3.399,23.404,5.104,35.317
		c0.852,5.954-0.424,8.083-6.38,8.083c-9.786,0.426-11.485-1.705-12.339-11.487c-0.852-10.636-2.553-21.273-3.827-31.913
		c0-1.273-0.848-2.553-1.275-3.825c-0.424,0-0.852,0-1.273-0.426c-1.275,3.829-2.98,8.085-4.258,11.913
		c-3.831,10.638-7.233,21.272-11.065,31.484c-0.847,1.705-4.253,4.258-5.528,3.828c-2.129-0.85-4.682-3.402-5.532-5.531
		c-4.682-12.338-8.509-24.677-12.763-37.018c-0.428-1.703-1.275-2.979-2.553-5.53c-1.274,2.127-2.129,3.403-2.129,4.258
		c-1.274,10.637-2.979,21.698-4.257,32.334c-1.275,10.212-4.258,12.767-14.466,11.063c-3.827-0.426-5.532-2.555-5.104-6.382
		c2.553-15.317,5.104-31.058,7.657-46.374c1.705-10.212,3.404-20.85,5.109-31.06c0.424-3.399,2.129-5.53,5.952-5.954
		c3.827,0,8.085-0.85,9.79,4.255c5.105,14.042,10.638,28.081,15.742,41.695c0.424,1.703,1.275,2.979,1.701,4.681
		C747.748,476.936,748.174,476.936,748.602,476.936z"/>
	<path fill="#EFC64F" d="M727.326,366.316c0.428-2.127,0.848-3.825,0.848-5.954c0-13.19,0-26.38,0-39.996
		c0-6.806,0.852-7.657,7.661-7.657c0.848,0,2.129,0,2.977,0c5.956,0,7.237,1.272,7.661,7.657c0,11.063,0,21.699,0,32.763
		c0,13.613,0,27.652,0,41.269c0,2.553-1.275,6.806-2.553,7.233c-3.403,0.85-7.661,0-11.061-0.849
		c-1.705-0.424-2.98-2.553-4.258-4.258c-11.489-14.887-22.551-30.208-34.035-45.097c-0.852-0.852-2.553-1.275-3.828-2.131
		c-0.424,1.705-1.701,2.978-1.701,4.683c0,13.616,0,27.23,0,40.846c0,6.378-0.851,7.233-7.237,7.657c-1.701,0-2.977,0-4.682,0
		c-4.681,0-6.38-2.126-6.38-6.806c0-24.677,0-49.777,0-74.455c0-3.404-1.275-7.235,3.404-8.509
		c4.677-1.275,8.933-1.275,12.338,2.979c6.809,8.935,13.618,18.295,20.422,27.229c5.957,8.083,12.339,16.166,18.295,24.251
		C726.049,366.316,726.903,366.316,727.326,366.316z"/>
	<path fill="#EFC64F" d="M1052.804,468.853c4.682,0,9.786-0.426,14.466,0c1.701,0.426,5.104,2.979,4.681,4.256
		c-1.274,11.91-2.552,23.825-11.489,33.186c-6.38,6.806-13.613,10.636-23.399,11.062c-11.062,0.426-22.122-0.426-31.06-8.083
		c-8.509-7.659-14.465-17.02-15.314-28.507c-1.275-14.461,0-28.503,9.786-40.418c14.889-19.146,48.503-19.572,62.968-0.852
		c2.125,2.553,5.529,5.531,1.275,8.935c-7.238,6.383-11.062,6.807-15.318,2.553c-2.98-2.979-6.381-5.53-9.786-7.657
		c-8.938-5.107-19.146,0-24.252,7.233c-8.937,12.339-8.937,34.466,3.399,45.527c10.215,9.355,27.656,4.681,31.913-8.083
		c0.848-2.979,0-5.107-3.403-5.107c-2.553,0-5.105,0-7.657,0c-4.682,0-6.809-2.129-6.809-6.806c0-5.531,1.275-7.659,6.38-7.659
		C1043.442,468.427,1048.123,468.427,1052.804,468.853C1052.804,468.427,1052.804,468.853,1052.804,468.853z"/>
	<path fill="#EFC64F" d="M824.33,357.806c0-11.909,0-23.826,0-35.738c0-8.509,0.852-9.356,9.36-8.931
		c7.657,0.422,15.314,1.273,23.399,1.701c11.485,0.852,18.295,11.063,19.57,18.721c1.705,11.912-0.424,22.124-11.485,28.935
		c-4.257,2.553-4.257,4.256-1.274,7.659c5.956,8.509,11.908,17.018,17.441,25.524c2.128,3.402,1.274,5.533-2.553,5.957
		c-4.258,0.423-8.933,0.423-13.19-0.426c-1.705-0.424-3.827-2.129-5.104-3.826c-4.258-6.382-8.086-13.615-12.339-19.996
		c-0.852-1.274-2.557-2.128-3.827-3.403c-0.429,1.705-1.705,3.403-1.705,5.106c0,5.107,0,10.638,0.423,15.743
		c0.429,4.681-1.7,6.38-6.38,6.38c-0.424,0-0.848,0-0.848,0c-10.637,0.426-11.061,0-11.061-11.06
		C824.33,379.933,824.33,368.869,824.33,357.806z M842.625,340.364L842.625,340.364c0,2.976-0.424,6.378,0.424,8.931
		c0.428,1.705,3.403,3.829,4.685,3.829c7.657-0.852,12.763-8.935,10.634-16.168c-1.275-5.104-7.233-8.935-12.339-8.083
		c-5.532,1.273-2.979,5.954-3.403,9.356C842.625,339.087,842.625,339.938,842.625,340.364z"/>
	<path fill="#EFC64F" d="M894.108,345.895c0-8.509,0-17.443,0-25.952c0-5.956,1.275-7.233,7.234-6.806c0.852,0,2.129,0,2.976,0
		c6.385,0,7.662,1.273,7.662,7.657c0,13.616,0,26.804,0,40.42c0,3.827-0.429,8.083,0.423,11.487
		c0.852,3.825,2.553,8.083,5.533,11.061c2.976,3.828,8.081,5.531,13.19,3.404c5.528-2.553,8.933-7.236,9.355-13.192
		c0.852-11.91,0.852-24.251,1.275-36.162c0-4.681,0-9.358,0-14.465c0-10.21,4.258-13.614,14.037-10.636
		c1.705,0.426,3.828,3.402,3.828,5.53c0,19.994,0.428,39.994-1.701,59.564c-1.275,14.465-10.638,24.251-29.36,25.103
		c-8.509,0.426-16.59-1.274-23.4-6.806c-2.552-2.129-5.104-5.106-5.956-8.085c-2.129-6.378-4.257-12.765-5.104-19.57
		C893.685,361.638,894.108,353.552,894.108,345.895L894.108,345.895z"/>
	<path fill="#EFC64F" d="M561.397,401.629c-8.509,0-16.594,0-25.104,0c-6.806,0-7.657-1.272-4.257-7.233
		c10.638-19.996,21.698-40.42,32.336-60.416c1.705-3.403,0.424-4.255-2.552-4.255c-6.381,0-12.767,0-18.723,0
		c-6.381,0-7.658-1.275-7.658-6.383c0-8.509,0.848-10.209,7.658-10.209c14.889,0,29.783,0,44.249,0c6.38,0,8.085,2.552,5.104,8.507
		c-8.933,16.592-17.871,33.184-26.804,49.777c-1.705,2.979-2.976,5.53-4.681,8.509c-2.129,3.828-0.848,5.531,3.403,5.957
		c7.233,0,14.466,0,22.123,0c6.38,0,7.233,1.272,7.233,9.785c0,5.531-1.275,6.807-6.806,6.807
		C577.987,401.629,569.906,401.629,561.397,401.629L561.397,401.629z"/>
	<path fill="#EFC64F" d="M949.838,515.652c-8.081,0-16.166,0-24.675,0c-5.952,0-7.657-2.553-4.682-7.659
		c7.662-14.04,15.319-28.079,22.975-42.119c2.979-5.53,6.38-11.061,9.355-17.018c1.705-3.403-0.423-4.681-3.399-4.681
		c-6.38,0-12.767,0-18.723,0c-6.38,0-7.234-0.85-7.234-7.66c0-8.085,1.275-9.357,7.234-9.357c15.318,0,30.212,0,45.526,0
		c6.38,0,7.233,0.849,4.682,6.806c-6.38,12.764-13.19,25.101-19.57,37.441c-3.828,7.233-7.657,14.465-11.489,21.699
		c-2.125,4.255-1.273,5.53,3.404,5.53c7.237,0,14.465,0,21.275,0c5.956,0,7.233,1.272,7.233,6.806c0,8.509-0.848,9.788-7.233,10.214
		C966.008,515.652,957.928,515.652,949.838,515.652L949.838,515.652z"/>
	<path fill="#EFC64F" d="M607.347,357.806c0-12.339,0-24.675,0-36.586c0-6.806,1.275-8.083,8.085-8.083c10.21,0,20.848,0,31.056,0
		c6.38,0,7.657,2.127,7.657,10.636c0,5.53-3.4,5.954-7.657,5.954c-5.105,0-10.214,0-15.319,0c-3.827,0-5.956,1.275-5.956,5.956
		c0,11.911,0,11.911,11.913,11.487c2.976,0,5.956,0,9.355,0c4.258,0,6.385,2.127,6.385,5.956c0,1.701,0,3.402,0,5.105
		c0,3.827-1.705,5.53-5.533,5.53c-5.528,0-11.062,0-16.166,0c-3.828,0-5.533,1.275-5.533,5.531c0,2.978,0,5.956,0,9.36
		c0,5.53,1.275,6.806,6.807,7.233c5.108,0,10.214,0,15.318,0c5.533,0,6.38,2.127,6.38,10.212c0,4.258-2.129,6.38-5.952,6.38
		c-11.489,0-22.974,0-34.893,0c-4.254,0-5.953-2.127-5.953-6.38C607.347,382.91,607.347,370.146,607.347,357.806L607.347,357.806z"
		/>
	<path fill="#EFC64F" d="M805.61,471.831c0-11.913,0-24.254,0-36.164c0-6.383,1.274-7.66,7.661-7.66c11.062,0,22.123,0,33.184-0.423
		c3.828,0,5.533,1.7,5.533,5.104c0,1.703,0,2.979,0,4.682c0,6.38-0.852,7.235-6.806,7.235c-5.109,0-10.215,0-15.323,0
		c-4.254,0-6.376,1.703-5.956,5.954c0,1.275,0,2.553,0,4.258c0,5.956,1.279,7.233,7.237,7.233c4.682,0,9.356,0,13.614,0
		c4.681,0,6.38,2.127,6.38,8.083c0,4.258-1.275,7.236-6.38,7.66c-5.105,0-9.786,0-14.89,0c-4.257,0-6.38,1.703-5.956,6.38
		c0,3.404,0,6.382,0,9.788c-0.424,3.828,1.705,5.53,5.533,5.53c5.528,0,11.061,0,17.018,0c4.258,0,6.38,1.703,5.956,5.955
		c0,1.705,0,3.403,0,5.106c0,3.828-2.129,5.957-5.956,5.957c-11.065,0-21.699,0-32.761,0c-5.956,0-7.661-1.703-7.661-7.66
		C805.61,496.082,805.61,483.741,805.61,471.831z"/>
	<path fill="#EFC64F" d="M402.275,263.354c0.424,21.699-6.38,39.141-17.441,55.311c-3.404,4.68-5.956,5.531-10.638,2.127
		c-17.441-12.339-34.035-25.526-44.247-45.097c-3.827-7.233-5.53-14.889-4.258-23.828c2.979-17.443,10.638-32.334,20.422-46.8
		c1.703-2.552,4.256-5.956,7.659-3.403c3.402,2.555,1.275,5.956-0.426,8.509c-7.233,11.063-13.189,22.124-17.441,34.889
		c-4.683,13.618-0.849,25.104,7.66,34.892c8.935,10.212,19.995,19.145,30.207,28.933c2.979,2.552,5.105,2.126,6.807-1.275
		c12.338-22.123,17.443-45.526,6.806-69.774c-2.553-6.38-7.236-11.91-11.062-17.869c-0.426-0.852-1.705-1.705-1.705-2.131
		c0-2.126,0.852-4.681,1.275-6.806c2.129,0.426,4.681,0,5.53,1.273c5.53,7.659,11.063,15.318,14.891,23.404
		C400.572,245.485,403.124,254.846,402.275,263.354z"/>
	<path fill="#EFC64F" d="M426.1,487.573c0-3.829,0-8.935,0-14.039c0-3.404,2.553-5.107,5.957-4.256
		c17.871,5.53,35.313,12.339,50.201,24.251c9.788,7.658,15.742,17.87,20.422,28.931c3.825,9.36,6.378,19.146,8.931,28.507
		c0.852,2.977,2.557,7.231-2.553,8.083c-3.399,0.85-5.53-1.705-6.378-7.235c-3.404-14.889-7.662-29.358-17.018-41.692
		c-8.086-11.062-19.572-18.298-31.911-23.404c-4.684-1.701-8.935-3.826-13.616-5.531c-3.401-1.703-5.106-0.423-5.53,3.404
		c-1.275,14.04,1.273,27.655,6.806,40.844c6.809,15.318,16.169,28.504,28.507,39.993c3.4,3.404,7.657,6.383,11.062,9.791
		c2.553,2.126,2.979,5.104,0.848,7.657c-2.553,2.978-4.256,0.426-6.378-0.85c-19.996-14.463-34.466-33.187-43.4-56.162
		C426.951,513.525,424.397,501.188,426.1,487.573z"/>
	<path fill="#EFC64F" d="M776.257,364.615c0-9.79,0-19.572,0-28.935c0-4.681-1.705-6.38-6.384-6.38c-0.424,0-0.848,0-1.701,0
		c-8.933,0-11.913-3.828-8.933-12.339c0.424-1.703,3.399-3.825,5.104-3.825c13.614-0.426,27.655-0.426,41.27-0.426
		c3.404,0,5.104,2.127,5.528,5.53c1.275,9.356,0,11.062-9.786,11.062c-6.38,0-7.233,0.85-7.233,7.233c0,19.572,0,39.143,0,58.713
		c0,4.256-1.705,6.38-5.957,6.38c-0.423,0-0.847,0-1.7,0c-10.638,0-11.065-0.426-11.065-10.638
		C776.257,382.482,776.257,373.548,776.257,364.615L776.257,364.615z"/>
	<path fill="#EFC64F" d="M895.383,479.488c0,9.358,0,18.721,0,28.081c0,6.806-1.275,8.083-8.085,8.083
		c-8.085,0-9.356-1.275-9.356-8.509c0-18.721,0-37.018,0-55.734c0-6.382-0.428-7.233-6.808-7.233c-0.852,0-1.701,0-2.553,0
		c-8.937,0-8.937-0.426-8.937-9.358c0.428-6.38,1.279-7.233,8.085-7.233c12.341,0,24.68,0,37.446,0c2.552,0,6.806,1.272,7.233,2.976
		c1.275,3.402,0.848,7.659,0,11.485c-0.428,1.277-4.258,2.131-6.808,2.131c-10.638,0.426-10.638,0-10.638,10.638
		C895.383,462.896,895.383,471.405,895.383,479.488L895.383,479.488z"/>
	<path fill="#EFC64F" d="M774.976,539.055c-1.701,5.104-2.977,8.935-4.254,12.338c-4.257,11.911-8.513,23.402-12.771,35.313
		c-0.419,1.274-1.701,2.554-2.552,2.554c-0.848,0-2.553-1.274-2.977-2.128c-2.976-5.957-5.528-12.339-8.085-18.724
		c-1.273-2.978-2.129-6.378-3.823-9.355c-0.428-1.275-1.705-2.129-2.557-3.404c-1.275,0.852-2.977,1.703-3.4,2.979
		c-3.403,8.509-6.806,17.018-10.214,25.526c-0.848,1.703-2.129,3.401-2.976,4.681c-1.275-1.702-3.404-2.552-4.258-4.681
		c-3.828-9.358-7.233-19.145-10.638-28.505c-1.701-4.256-3.399-8.935-4.682-13.19c-0.423-1.7,0.424-3.827,0.852-5.954
		c2.129,1.275,5.105,1.701,5.952,3.402c2.98,7.233,5.533,14.465,8.086,22.124c0.423,1.273,0.423,2.553,1.274,3.826
		c0.852,1.275,2.553,2.131,3.828,2.978c0.848-1.272,1.705-2.129,2.553-3.825c2.979-8.085,6.38-15.744,9.355-23.83
		c0.428-1.272,1.279-2.552,2.133-3.399c2.125-2.555,4.254-2.555,5.529,0.848c3.403,8.083,6.38,16.594,9.786,24.677
		c0.428,1.275,0.852,2.553,1.274,3.402c0.852,0.851,1.705,1.702,2.977,2.128c0.428,0,1.705-1.702,2.133-2.552
		c2.977-8.509,5.952-17.016,8.933-25.524c0.424-1.705,2.129-3.83,3.827-4.258C771.576,536.926,773.277,538.627,774.976,539.055z"/>
	<path fill="#EFC64F" d="M841.778,574.367c0.424-2.979,0.848-5.105,1.273-6.806c0-8.509-0.424-16.592,0-25.104
		c0-1.7,1.705-5.104,2.98-5.104c3.403-0.426,3.827,2.553,3.827,5.104c0,14.042,0,28.081,0,41.695c0,1.703-0.852,4.256-1.705,4.256
		c-1.701,0.425-3.827-0.424-4.682-1.701c-9.355-9.791-18.718-19.998-28.502-29.784c-1.275-1.275-2.977-2.129-4.258-2.979
		c-0.424,1.703-1.701,3.402-1.701,5.533c0,7.657,0.424,15.742,0,23.399c0,2.129-2.129,5.53-3.403,5.53
		c-3.828,0.426-3.828-2.978-3.828-5.53c0-13.613,0-26.804,0-40.42c0-1.703,0.848-3.827,1.705-5.53
		c1.701,0.85,4.254,1.703,5.528,2.979c9.786,10.212,19.146,20.419,28.503,30.633C838.369,571.387,839.649,572.664,841.778,574.367z"
		/>
	<path fill="#EFC64F" d="M874.11,589.682c-13.189,0-13.189,0-13.189-12.767c0-11.062,0-22.122,0-33.184
		c0-5.107,2.129-7.233,6.806-7.233c10.214-0.426,19.998-0.852,27.231,7.657c8.081,9.36,9.356,19.996,4.258,31.484
		C894.531,586.28,885.599,590.533,874.11,589.682z M869.433,562.878L869.433,562.878c0,5.106,0,9.788,0,14.891
		c0,4.256,1.701,5.957,5.952,5.531c11.485-0.426,19.57-9.36,19.57-20.422c0-11.485-8.933-19.568-19.994-19.994
		c-3.403,0-5.104,1.273-5.104,4.682C869.433,552.668,869.433,557.773,869.433,562.878z"/>
	<path fill="#EFC64F" d="M1022.596,563.304c0-6.806,0-13.19,0-19.994c0-2.978,0.424-6.382,4.258-6.382
		c4.258-0.424,4.258,2.979,4.258,5.956c0.424,14.463,0.424,14.463,14.889,14.889c1.273,0,2.553,0,3.4,0
		c4.681,0.424,6.38-1.702,6.38-6.38c0-2.978-0.424-6.38,0-8.935c0.428-2.127,2.552-3.827,3.831-5.53
		c1.273,1.703,4.254,3.403,4.254,5.106c0.424,14.04,0.424,28.079,0,42.117c0,1.705-2.977,3.403-4.254,5.108
		c-1.279-1.705-3.403-3.403-3.831-5.108c-0.424-4.68,0-9.786,0-14.887c0-3.83-1.701-5.531-5.528-5.531c-4.682,0-9.361,0-13.614,0
		c-3.832,0-5.532,1.273-5.532,5.105c0,4.257,0,8.935,0,13.189c0,2.979,0.423,6.806-4.258,6.806c-4.258,0-4.258-3.401-4.258-6.806
		C1022.596,576.068,1022.596,569.686,1022.596,563.304L1022.596,563.304z"/>
	<path fill="#EFC64F" d="M556.717,602.448c-2.552-0.852-5.956-0.852-8.932-2.555c-8.51-4.679-16.595-3.401-25.104-0.424
		c-1.272,0.424-2.976,1.275-4.253,1.275c-0.852,0-2.129-0.426-2.555-1.275c-0.424-0.426,0-2.129,0.426-2.555
		c6.806-7.657,13.613-15.742,20.847-22.974c5.533-5.53,11.062-4.68,16.595,0.426c4.681,4.258,9.786,8.509,14.465,12.767
		c5.957,5.53,5.105,11.063-2.552,13.615C563.102,602.022,560.121,602.022,556.717,602.448z M557.146,592.66
		c0.423-0.422,0.423-1.273,0.847-1.701c-3.827-3.404-7.661-6.806-11.912-9.788c-0.848-0.424-3.828,0.85-4.678,2.129
		c-0.428,0.85,0.42,3.403,1.273,4.255c2.129,1.705,4.681,2.979,6.808,3.828C552.036,592.66,554.588,592.66,557.146,592.66z"/>
	<path fill="#EFC64F" d="M945.163,534.373c3.827,1.703,7.657,2.979,11.062,5.107c1.274,0.849,1.274,3.825,1.705,5.954
		c-2.133,0-3.828,0-5.957-0.424c-3.403-0.426-6.808-2.129-9.79-1.705c-1.701,0-3.827,3.402-4.253,5.533
		c-0.429,1.703,1.272,4.255,2.976,5.104c4.258,2.555,8.509,4.682,12.767,7.233c12.339,6.809,8.509,21.275,0.848,26.807
		c-7.658,5.53-19.994,2.978-25.1-5.107c-0.851-1.703-0.428-4.682-0.428-6.806c2.129,0.847,5.105,0.847,6.385,2.553
		c6.376,6.38,11.484,7.233,16.166,1.702c3.404-3.825,2.553-9.786-1.705-12.338c-4.258-2.555-8.933-4.684-12.767-7.236
		c-6.38-4.255-8.509-8.509-6.806-14.465C932.824,538.201,936.653,535.225,945.163,534.373z"/>
	<path fill="#EFC64F" d="M975.795,563.304c0,15.742,15.318,25.101,29.36,17.871c0.847-0.424,2.128-1.275,3.399-1.275
		c1.275,0,3.404,0,3.404,0.852c0.428,1.273,0.428,3.402,0,4.256c-1.275,1.705-3.404,3.401-5.529,4.258
		c-9.786,3.401-24.679,2.126-33.611-9.36c-6.806-8.931-6.806-23.4,0-32.335c7.657-10.638,21.699-14.889,33.611-10.212
		c0.848,0.426,2.125,0.426,2.553,1.273c1.275,2.131,2.125,4.683,3.404,7.235c-2.129,0-5.109,0.426-6.809-0.426
		C990.688,536.502,973.67,549.689,975.795,563.304z"/>
	<path fill="#EFC64F" d="M408.655,214.426c0-6.806,3.404-11.486,10.212-13.189c10.638-2.555,21.275,2.978,25.103,13.189
		c2.127,5.107,4.258,10.212,1.275,16.169c-2.131,3.825-4.684,5.956-8.935,6.38C423.974,239.104,409.082,226.767,408.655,214.426z
		 M423.122,209.747c-0.85,0.424-3.402,1.275-4.258,2.553c-0.848,2.128-0.848,5.956,0.426,7.235
		c3.827,3.404,8.083,6.378,12.767,8.509c2.976,1.273,5.528-0.85,5.528-4.258C438.013,218.256,429.928,209.747,423.122,209.747z"/>
	<path fill="#EFC64F" d="M782.213,536.502c2.977,0,5.529,0,8.929,0c0,17.871,0,35.738,0,53.607c-2.976,0-5.528,0-8.929,0
		C782.213,572.24,782.213,554.795,782.213,536.502z"/>
	<path fill="#EFC64F" d="M909.851,537.352c2.976,0,5.532,0,8.933,0c0,17.016,0,33.609,0,51.48c-2.553,0-5.529,0.426-8.933,0.426
		C909.851,571.387,909.851,554.795,909.851,537.352z"/>
</g>
</svg>
