<?xml version="1.0" encoding="utf-8"?>
<!-- Generator: Adobe Illustrator 15.1.0, SVG Export Plug-In . SVG Version: 6.00 Build 0)  -->
<!DOCTYPE svg PUBLIC "-//W3C//DTD SVG 1.1//EN" "http://www.w3.org/Graphics/SVG/1.1/DTD/svg11.dtd">
<svg version="1.1" id="Ebene_1" xmlns="http://www.w3.org/2000/svg" xmlns:xlink="http://www.w3.org/1999/xlink" x="0px" y="0px"
	 width="1190.549px" height="176.378px" viewBox="0 332.756 1190.549 176.378" enable-background="new 0 332.756 1190.549 176.378"
	 xml:space="preserve">
<title>logo-2015-07-23--c1</title>
<desc>Created with Sketch.</desc>
<g id="Page-1">
	<g id="logo-2015-07-23--c1">
		<g id="c1-_x2F_-c4">
			<path id="Fill-2" fill="#EFC64F" d="M263.831,332.756H0v78.636h128.608v97.742h67.611v-97.742h67.611V332.756"/>
			<path id="Fill-3" fill="#EFC64F" d="M348.346,509.134V372.441h-49.238v-39.686h143.307v39.686h-49.239v136.692H348.346"/>
			<path id="Fill-4" fill="#EFC64F" d="M562.203,509.134l-29.396-59.527H509.29v59.527h-45.564V332.756h88.189
				c38.95,0,60.997,25.722,60.997,58.793c0,30.866-18.373,47.034-35.275,52.913l36.011,64.672H562.203L562.203,509.134z
				 M566.614,391.549c0-12.493-9.554-19.107-22.048-19.107h-36.01v37.48h36.01C557.06,409.922,566.614,403.308,566.614,391.549
				L566.614,391.549z"/>
			<path id="Fill-5" fill="#EFC64F" d="M637.9,509.134V332.756h128.608v39.686h-83.045v27.191h81.575v39.685h-81.575v30.132h83.78
				v39.685H637.9"/>
			<path id="Fill-6" fill="#EFC64F" d="M798.109,332.756h45.564v176.378h-45.564V332.756z"/>
			<path id="Fill-7" fill="#EFC64F" d="M880.418,509.134V332.756h128.609v39.686h-83.045v27.191h81.575v39.685h-81.575v30.132
				h83.779v39.685H880.418"/>
			<path id="Fill-8" fill="#EFC64F" d="M1138.371,509.134l-29.396-59.527h-23.518v59.527h-45.563V332.756h88.188
				c38.95,0,60.998,25.722,60.998,58.793c0,30.866-18.373,47.034-35.276,52.913l36.745,64.672H1138.371L1138.371,509.134z
				 M1143.516,391.549c0-12.493-9.554-19.107-22.048-19.107h-36.01v37.48h36.01C1133.962,409.922,1143.516,403.308,1143.516,391.549
				L1143.516,391.549z"/>
		</g>
	</g>
</g>
</svg>
