<?xml version="1.0" encoding="utf-8"?>
<!-- Generator: Adobe Illustrator 15.1.0, SVG Export Plug-In . SVG Version: 6.00 Build 0)  -->
<!DOCTYPE svg PUBLIC "-//W3C//DTD SVG 1.1//EN" "http://www.w3.org/Graphics/SVG/1.1/DTD/svg11.dtd">
<svg version="1.1" id="Ebene_1" xmlns="http://www.w3.org/2000/svg" xmlns:xlink="http://www.w3.org/1999/xlink" x="0px" y="0px"
	 width="1190.549px" height="563.688px" viewBox="0 177.276 1190.549 563.688" enable-background="new 0 177.276 1190.549 563.688"
	 xml:space="preserve">
<g>
	<g>
		<g>
			<g>
				<g>
					<defs>
						<rect id="SVGID_1_" x="-0.003" y="136.542" width="1190.548" height="604.422"/>
					</defs>
					<clipPath id="SVGID_2_">
						<use xlink:href="#SVGID_1_"  overflow="visible"/>
					</clipPath>
					<path clip-path="url(#SVGID_2_)" fill="#EFC64F" d="M278.891,416.349L278.891,416.349c4.572-4.569,8.229-8.227,11.886-11.882
						c1.83-1.828,3.658-4.574,6.4-6.401c1.83-1.828,3.658-3.656,5.486-6.397c1.829-1.832,3.656-3.66,5.486-6.402
						c3.654-3.659,8.228-8.229,11.884-11.89c1.828-1.828,3.658-3.656,5.486-6.398c1.828-1.827,3.658-3.654,5.486-6.4
						c3.657-3.656,7.313-8.23,11.886-11.887c3.656-3.655,7.313-7.315,10.97-10.973c0,0,0.916-0.914,0.916-1.828
						c-1.83,0-2.744-0.914-3.657-0.914c-7.315-1.832-14.629-3.658-21.945-4.572c-3.658-0.914-8.23-0.914-11.89-0.914
						c-3.654,0-7.312,0-10.97,0c-2.742,0-6.398,0.914-9.144,0.914c-5.486,0.918-10.973,2.746-16.458,4.572
						c-0.914,0-0.914,0.914-0.914,1.828c0,25.606,0,51.208,0,76.809v2.741h-0.91L278.891,416.349L278.891,416.349z M278.891,416.349
						v0.918v80.464c0,0,0,0,0,0.913c0,0,0,0.918,0.914,0.918c2.744,0.914,6.4,1.828,9.146,2.742
						c4.57,0.914,9.144,1.828,13.714,2.742c3.656,0.913,7.314,0.913,10.056,0.913c2.744,0,4.572,0,7.315,0
						c4.571,0,8.229-0.913,12.801-0.913c2.743,0,6.4-0.914,9.144-1.828c5.484-1.828,10.97-3.656,17.374-4.574
						c0.916,0,2.744-0.913,4.571-1.827l-0.913-0.914c-3.658-3.656-7.314-6.397-10.059-10.059
						c-3.656-3.656-7.313-6.397-10.971-10.058c-3.657-3.656-6.399-6.398-10.058-10.056c-3.658-3.658-7.314-6.4-10.06-10.058
						c-3.654-3.66-6.398-6.401-10.058-10.058c-3.654-3.66-7.312-6.398-10.056-10.059c-3.656-3.655-7.314-6.397-10.974-10.059
						c-2.74-2.742-5.484-5.483-8.228-8.227C279.805,418.18,279.805,417.267,278.891,416.349 M265.173,344.115
						c-5.486,3.654-10.972,7.314-14.63,11.886c-1.828,1.828-3.656,4.569-5.486,6.401c-4.569,5.483-7.312,10.968-10.056,16.458
						c-2.742,5.483-4.572,11.886-6.399,18.29c-0.914,5.487-1.828,10.972-2.742,16.458c0,3.659,0,7.314,0,10.972
						c0,2.746,0,5.488,0.914,9.145c0.914,4.569,1.828,9.145,2.742,12.801c1.829,6.4,4.571,12.8,8.229,19.203
						c2.741,4.573,5.485,8.229,8.226,11.887c1.83,2.741,4.572,4.568,6.402,6.4c1.828,1.828,4.571,3.656,7.313,5.484
						c1.827,0.914,2.743,1.828,4.571,2.742V344.111h0.914L265.173,344.115L265.173,344.115z M309.065,316.681h10.057
						c1.827,0,3.655,0,5.485,0c1.828,0,3.656,0,5.486,0.914c3.655,0.914,7.313,0.914,10.972,1.828
						c4.57,0.918,9.143,1.832,14.628,3.66c5.486,1.828,10.973,3.656,16.458,5.483c3.658,0.914,7.313,2.746,10.971,4.573
						c0.914,0,0.914,0.914,0.914,1.828c0,5.484,0,10.055,0,15.542v0.914c-2.742-0.914-5.486-2.742-8.227-3.656
						c-2.744-0.914-5.486-2.745-8.229-3.659c-0.914,0-0.914,0-1.828,0c-1.83,1.832-3.658,4.573-6.401,6.401
						c-3.656,3.655-6.4,7.315-10.059,10.973c-3.655,3.659-6.397,7.315-10.055,10.058c-3.657,3.656-6.401,7.313-10.058,10.059
						c-3.658,3.655-7.316,7.315-10.975,10.973c-1.827,1.828-2.741,2.741-4.569,4.573c-3.656,3.655-6.4,7.313-10.056,10.969
						c-2.744,2.742-6.402,6.4-9.146,9.144l0,0c0.914,0.914,0.914,0.914,1.828,1.828c3.658,3.66,7.316,6.402,10.972,10.058
						c3.656,3.66,7.314,7.316,10.971,10.974c3.657,3.655,7.315,7.314,10.975,10.058c3.655,3.656,7.313,7.313,10.972,10.973
						c3.654,3.655,7.313,7.315,10.971,10.054c4.571,3.66,8.229,8.229,12.8,11.887c2.744,2.746,5.485,5.487,8.229,8.229
						c0,0,0,0,0.914,0c0,0.914,0.914,0,0.914,0c2.741-0.914,4.569-2.742,7.313-3.656h0.914c0,5.483,0,10.059,0,15.542
						c0,0,0,0.914-0.914,0.914c-4.572,1.828-8.229,4.569-12.8,5.487c-4.572,1.828-9.145,3.656-14.631,5.483
						c-3.655,0.914-8.228,2.742-11.884,3.656c-4.572,0.914-8.229,1.832-12.8,1.832c-3.658,0-6.402,0.914-10.059,0.914h-0.916
						h-10.971c0,0,0,0-0.914,0c-2.74,0-5.484,0-8.228-0.914c-3.658-0.914-8.23-0.914-11.888-1.832
						c-8.229-1.828-16.458-4.569-23.774-8.227c-4.571-2.746-9.144-4.573-13.716-8.229c-3.658-2.741-8.229-5.483-10.97-9.145
						c-1.828-1.828-4.572-4.569-6.4-6.396c-1.829-1.828-3.657-3.66-4.571-5.488c-2.744-3.656-4.571-7.313-6.401-10.059
						c-2.742-4.569-5.485-10.055-7.313-14.628c-1.826-6.397-4.57-12.801-4.57-19.203c0-3.656-0.913-7.313-0.913-10.974v-0.912
						v-10.06c0-0.914,0-2.741,0-3.655c0-2.741,0-5.483,0.913-8.229c0.914-4.569,1.83-9.14,3.656-13.714
						c1.828-7.316,5.485-14.628,9.145-21.032c3.655-6.397,8.229-12.8,13.714-18.289c2.744-2.742,5.485-4.57,8.229-7.316
						c3.655-3.655,8.229-6.396,12.798-9.14c6.401-3.66,13.717-7.316,20.119-10.059c6.4-1.832,12.802-3.659,19.204-4.573
						C300.835,317.595,304.493,317.595,309.065,316.681C308.151,316.681,309.065,316.681,309.065,316.681"/>
				</g>
			</g>
		</g>
	</g>
	<g>
		<g>
			<g>
				<g>
					<defs>
						<rect id="SVGID_3_" x="-0.003" y="136.542" width="1190.548" height="604.422"/>
					</defs>
					<clipPath id="SVGID_4_">
						<use xlink:href="#SVGID_3_"  overflow="visible"/>
					</clipPath>
					<path clip-path="url(#SVGID_4_)" fill="#EFC64F" d="M-0.003,703.477l0.914-0.914c0-0.913,0.914-1.827,1.826-2.745
						c0.914-0.914,1.83-1.828,3.658-3.656c0.914-0.914,1.826-1.828,2.742-2.741c0.914-0.914,1.828-1.828,3.656-1.828
						c4.571-3.66,8.229-7.315,12.802-10.973c2.742-1.832,4.572-3.655,7.313-5.483c2.743-1.832,4.571-2.746,6.399-3.66
						c1.83-1.827,4.57-3.655,8.229-5.483c3.657-1.827,7.313-2.745,10.059-2.745c0.914,0,1.828,0,2.741,0.918
						c0.916,0.913,0.916,0.913,0.916,1.827v5.484c0,1.827-0.916,3.659-1.829,5.487c-0.914,1.823-2.742,2.737-5.486,4.569
						c-1.828,0.914-2.742,1.828-4.571,1.828c-1.828,0.914-3.655,1.828-4.571,2.742c-0.914,0.913-1.828,1.827-4.568,3.655
						c-2.744,1.832-5.488,4.573-10.058,7.315c-1.83,1.828-3.658,2.742-4.572,3.66c-0.914,0.914-1.83,1.828-2.744,2.741
						c-0.914,0.914-0.914,2.742-1.828,4.569c0,1.828-0.914,3.656-0.914,5.484s0,2.746,0.914,3.66
						c0.914,0.913,0.914,1.827,1.828,2.74c0.914,0.914,1.83,0.914,2.744,1.828s2.742,0.914,4.572,1.828
						c0.914,0,2.741-0.914,3.655-0.914c2.743-0.914,4.571-0.914,7.315-1.828c2.74-1.827,4.57-2.741,7.313-4.568
						c2.743-1.832,4.571-2.746,7.315-4.574c0,0,0.914,0,0.914-0.914c0.914,0,0.914-0.914,1.828-0.914
						c0.914-0.913,1.827-1.827,2.743-2.741c0.914-0.914,2.742-2.742,4.572-3.656c2.741,6.397,4.569,9.141,4.569,9.141
						c-2.742,1.828-5.485,4.574-8.229,6.401c-2.743,1.828-5.485,3.656-9.145,5.483c-0.914,0.914-1.828,1.832-2.742,2.746
						c-3.657,3.656-7.314,6.397-11.886,8.227c-4.572,1.832-10.058,2.746-15.544,2.746c-0.914,0-2.742,0-3.658,0
						c-0.914,0-1.828-0.914-2.74-0.914c-1.828-1.832-3.658-2.746-5.486-3.66c-1.828-0.913-2.744-1.827-3.656-2.741
						c-0.914-0.914-1.828-1.828-1.828-2.742c-0.914-0.914-0.914-1.828-0.914-3.66c0-1.827,0-2.741,0-5.483
						c0-0.913,0-1.827,0.914-2.741c0-0.914,0.914-1.828,0.914-2.742c-0.914-1.827-0.914-2.741-1.828-4.573
						C1.825,706.219,0.911,704.391-0.003,703.477"/>
				</g>
			</g>
		</g>
	</g>
	<g>
		<g>
			<g>
				<g>
					<defs>
						<rect id="SVGID_5_" x="-0.003" y="136.542" width="1190.548" height="604.422"/>
					</defs>
					<clipPath id="SVGID_6_">
						<use xlink:href="#SVGID_5_"  overflow="visible"/>
					</clipPath>
					<path clip-path="url(#SVGID_6_)" fill="#EFC64F" d="M65.834,703.477C65.834,702.563,65.834,702.563,65.834,703.477
						c0.914-0.914,1.828-1.827,1.828-2.741c0-0.918,0.914-1.832,1.827-1.832c0.914-0.914,1.83-1.828,2.744-2.742
						c0.914-1.828,2.742-4.569,4.57-6.401c1.827-2.742,2.741-5.483,4.571-8.227c1.828-4.569,3.655-8.229,5.485-10.973
						c1.828-2.741,2.742-5.482,4.57-7.314c0-1.828,0.916-4.57,2.743-7.313c0.914-3.659,2.744-8.229,4.572-13.714
						c1.828-5.487,3.657-9.144,5.485-12.8c1.828-3.66,2.744-5.488,2.744-6.401c0-0.914,0.913-0.914,0.913-1.828
						s0.912-1.827,0.912-2.741c0.914-3.66,1.828-6.402,3.658-9.146c0.914-2.74,2.742-5.482,3.656-8.229
						c0-0.914,0.913-0.914,0.913-1.828c0.916,0,0.916-0.914,1.83-0.914c2.741,0,4.571,0.914,6.399,3.656
						c0.914,1.832,1.828,5.487,1.828,9.144c0,4.57-1.828,10.974-4.57,19.204c-2.743,8.229-7.314,18.29-13.716,30.176
						c-0.912,2.742-2.741,5.488-3.655,10.059c-1.828,3.655-2.742,8.229-4.571,12.801c-0.914,3.655-2.742,7.314-3.656,11.886
						c-0.916,3.655-1.83,8.229-3.658,11.886c-0.913,3.66-1.827,6.401-2.743,8.227c0.914,1.832,0.914,3.66,0.914,3.66
						c0,0.914,0,0.914,0,0.914s0,0,0.916,0c0.913,0,0.913,0,1.827-0.914c0.914,0,0.914-0.914,0.914-1.828
						c1.83-1.832,2.744-4.569,3.658-6.397c0.914-2.746,2.741-5.487,3.657-8.229v-2.746c0.914-4.569,1.828-7.313,2.742-9.14
						c1.83-1.832,4.569-3.66,9.143-4.574c0.914,0,1.828-1.827,4.571-5.483c1.828-3.656,5.485-9.145,9.145-15.542
						c1.828-3.66,3.656-6.401,5.485-8.229c1.828-1.827,2.741-2.741,2.741-2.741c1.83,0,2.744,0.914,3.658,1.828
						s0.914,2.741,0.914,4.568c0,5.488-2.742,11.887-9.144,20.122c-5.486,8.227-9.144,13.71-9.144,15.542
						c0,1.828,1.828,4.569,4.57,8.227c2.744,3.66,5.485,5.487,8.229,5.487c0.914,0,1.827,0,2.743-0.913
						c0.914-0.914,1.828-0.914,2.742-1.828c0.912-0.914,1.826-1.828,2.742-1.828c0.914-0.918,1.828-1.832,2.742-1.832l4.57,9.145
						c-1.827,1.828-3.656,2.741-5.484,4.573c-1.828,1.828-3.656,2.738-5.484,4.57c-1.828,1.828-3.657,3.656-6.399,4.57
						c-1.829,0.912-3.657,1.826-6.401,1.826c-1.828,0-5.485-1.826-10.973-6.396c-4.571-4.57-7.313-6.402-8.226-6.402
						c-2.744,2.746-4.572,4.574-6.402,7.316c-0.914,1.828-2.741,2.742-3.655,4.57c-0.914,1.826-2.744,2.74-3.658,4.572
						c0,0.914-0.913,0.914-1.827,1.828c-0.916,0.914-1.83,1.828-2.744,2.742c-0.914,1.828-1.828,2.742-3.658,3.656
						c-0.914,0.914-2.741,1.832-4.569,1.832c-2.744,0-4.569-0.918-6.399-2.746c-1.828-1.828-1.828-3.656-1.828-7.313
						c0-3.66,0-6.4,0.914-10.972c0.914-3.656,1.828-7.316,2.744-11.886c0.912-1.828,0.912-3.66,0.912-5.488s0-2.742,0-3.656
						l-0.912-0.913c-0.916,0.913-1.83,2.741-3.658,3.655c-1.828,1.828-2.744,3.66-4.571,5.488l-0.914,0.914
						c0,0.914-0.914,1.828-1.828,2.741c0-0.913-0.916-1.827-0.916-2.741c-0.913-0.914-0.913-2.742-1.827-4.574
						C66.748,704.391,66.748,704.391,65.834,703.477L65.834,703.477"/>
				</g>
			</g>
		</g>
	</g>
	<g>
		<g>
			<g>
				<g>
					<defs>
						<rect id="SVGID_7_" x="-0.003" y="136.542" width="1190.548" height="604.422"/>
					</defs>
					<clipPath id="SVGID_8_">
						<use xlink:href="#SVGID_7_"  overflow="visible"/>
					</clipPath>
					<path clip-path="url(#SVGID_8_)" fill="#EFC64F" d="M160.932,685.188c1.828,0.913,3.658,0.913,4.572,1.827
						c2.742,0,4.571-0.914,7.313-0.914h19.204c1.828,0,3.658,0.914,3.658,1.828c0.914,0.914,0.914,2.741,0.914,4.569
						c0,2.746-0.914,4.574-1.828,6.402c-0.916,1.827-2.744,1.827-4.572,1.827c-0.916,0-1.83,0-3.657,0c-1.828,0-2.743,0-3.657,0
						h-5.486c-2.74,0.914-4.57,0.914-7.312,0.914c-6.4-0.914-9.146-1.827-10.06-1.827s-1.83,0-3.658,0c-1.826,0-2.74,0-3.656,0
						c-0.914,0-1.828,0-2.742-0.914s-0.914-0.914-0.914-1.828c0,0,0-0.914,0.914-1.828c0.914-0.918,1.828-1.832,2.742-2.746
						c0-0.914,0.916-0.914,0.916-1.828s0.914-1.827,1.826-2.741c0.914,0,0.914,0,1.828-0.914
						C159.104,686.101,160.018,685.188,160.932,685.188"/>
				</g>
			</g>
		</g>
	</g>
	<g>
		<g>
			<g>
				<g>
					<defs>
						<rect id="SVGID_9_" x="-0.003" y="136.542" width="1190.548" height="604.422"/>
					</defs>
					<clipPath id="SVGID_10_">
						<use xlink:href="#SVGID_9_"  overflow="visible"/>
					</clipPath>
					<path clip-path="url(#SVGID_10_)" fill="#EFC64F" d="M225.856,580.941c1.828,0,2.742,0,3.655,0.918
						c0.914,0.914,1.83,0.914,2.744,1.828c0.914,0.913,0.914,1.826,1.828,2.74s0.914,1.828,1.83,3.656
						c0.914,1.832,1.828,3.66,2.741,4.574c0.914,0.914,0.914,1.828,0.914,1.828c-0.914,3.654-0.914,8.229-0.914,11.886
						s-0.913,8.226-0.913,11.886c0,0.914-0.914,1.828-0.914,3.656s0.914,3.655,0.914,5.487c0,1.827,0,3.655,0,5.483s0,3.66,0,5.484
						c0,1.827,0,3.659,0,6.4c0,2.742,0,5.484,0,7.316c0,1.828,0,3.655,0,3.655c0,0.914,0,0.914,0,1.828s0,0.914,0,1.828
						c0,0.913,0,1.827,0.913,3.659v6.398c0,2.741,0.914,9.144,2.744,18.289c1.828,9.145,2.741,14.628,2.741,15.546
						c0.912,0,0.912-0.918,0.912-0.918l8.23-14.628c0-0.914,0.913-2.741,1.827-4.569c0.914-1.832,1.83-3.66,2.744-6.401
						c2.741-6.397,6.399-13.715,9.145-23.773c2.742-10.059,5.485-21.032,8.228-34.75c0.914-3.656,1.83-7.312,3.656-9.144
						c0.914-1.828,2.742-3.656,4.572-4.57l9.144-3.656c1.828,0.914,2.742,1.828,3.656,2.742s0.914,2.742,0.914,4.57
						c0,1.827,0,5.486-0.914,10.058c-0.914,4.574-1.828,10.972-3.656,18.292c0,1.823,0,3.651-0.916,5.483
						c0,2.741-0.914,5.483-0.914,8.227c-0.914,2.745-0.914,4.573-0.914,5.487c0,1.828-0.914,2.742-0.914,2.742
						c0,1.827,0,3.659,0,6.401c0,2.741,0,4.569,0,8.227c0,3.656,0,6.4,0,9.144v4.57c0,4.573,0,8.229,0.914,10.972
						c0,2.746,0.914,3.66,0.914,3.66c0.914,0,1.83-1.828,3.658-4.574c1.828-2.741,3.658-7.312,5.486-13.714
						c1.826-4.569,3.656-9.144,4.57-12.8c1.828-3.655,2.742-8.227,3.658-11.886c0.914-0.914,0.914-1.828,1.828-3.656
						c0-1.828,0.912-2.741,0.912-5.487c0.914-2.742,1.828-6.397,3.658-9.145c0.913-3.651,1.826-6.397,3.654-10.055
						c0.916-1.828,1.83-4.573,1.83-8.229c0.914-2.742,1.828-6.402,2.742-10.974l-0.914-4.568c0-0.914,0.914-1.832,0.914-2.746
						c0-0.91,0.916-2.738,0.916-4.57c1.828-2.742,3.656-5.482,5.486-6.396c1.827-1.828,2.74-1.828,3.654-1.828s0.914,0,1.83,0.914
						c0,0.914,0,1.828,0,3.655c0,4.569,0,7.315,0,10.055c0,2.746,0,3.66-0.914,4.573c-0.916,0.914-0.916,1.827-0.916,2.741
						s-0.914,1.828-0.914,1.828l0.914,5.488c0,0.914-0.914,2.741-1.827,5.483c-0.914,2.745-0.914,5.487-1.827,10.059
						c-0.916,3.655-0.916,7.315-1.83,9.144c-0.914,1.829-0.914,3.656-1.828,4.57c0,0.913-0.914,2.745-0.914,4.573
						c-0.914,1.828-1.83,3.656-2.744,6.397c0,0.914-0.914,2.746-0.914,4.574c-0.914,1.827-0.914,4.569-1.828,6.397
						s-0.914,3.655-1.83,5.483c-0.914,1.832-1.827,4.573-2.74,8.229c-0.914,0.914-1.83,1.828-1.83,3.66
						c-0.914,1.827-0.914,3.655-1.828,5.482c0,0.914-0.912,2.742-1.826,4.574c-0.914,1.828-1.83,4.565-3.658,8.226
						c-1.828,3.656-2.744,6.398-3.657,8.23c-0.913,1.828-1.827,2.742-1.827,2.742l-2.744,1.828
						c-0.914,0.912-0.914,0.912-1.828,1.826c-0.914,0-1.828,0-3.658,0c-0.914,0.914-2.742,0.914-3.656,1.828
						c-0.916,0-1.828,0.918-1.828,0.918c-2.742,0-4.572-0.918-6.4-2.746c-1.826-1.826-2.742-5.482-3.656-9.144
						c0-2.742,0-6.397-0.914-9.145c0-2.741-0.914-6.397-0.914-9.141c0-1.828,0-3.656-0.914-6.4c0-2.742-0.913-5.484-1.829-9.142
						c-1.827,2.742-2.741,5.484-4.569,8.228c-1.83,2.745-2.744,6.4-4.572,9.144c0,0.914,0,1.828-1.83,4.574
						c-0.914,2.736-2.741,5.482-4.571,10.054c-1.827,4.574-3.655,9.145-6.399,13.718c-1.828,2.742-3.658,4.57-5.483,6.398
						c-1.828,0.913-3.658,1.827-6.399,1.827c-0.914,0-1.83-0.913-3.658-2.741c-0.914-1.828-1.828-4.57-2.742-8.23
						c-0.916-1.827-0.916-4.568-1.829-6.396c-0.914-1.832-0.914-4.574-1.828-6.402c0-0.914,0.914-1.828,0.914-2.741
						c-0.914-0.913-0.914-1.827-1.828-3.655s-0.914-3.66-1.83-6.402c0-1.828-0.914-3.656-0.914-5.482
						c0-1.828-0.913-4.574-0.913-8.23c0-0.914,0-1.828,0-2.742c0-0.913,0-1.832,0-2.745s0-1.827-0.914-2.741
						c0-0.91-0.914-1.828-1.83-2.742c0,0,0-1.828,0-2.742c0-1.827,0-3.655,0-6.401c0-2.741,0-4.569-0.914-5.483
						c0-1.828-0.914-2.742-1.828-2.742l-2.744-1.832c0-0.913-0.913-2.741-0.913-4.569c0-1.827,0-4.569,0-7.313
						c0-8.229,0.913-15.546,1.829-24.691c0.914-8.226,2.742-17.376,4.57-26.52c0.916-2.742,0.916-4.57,2.744-5.484
						C222.198,581.859,224.026,580.941,225.856,580.941"/>
				</g>
			</g>
		</g>
	</g>
	<g>
		<g>
			<g>
				<g>
					<defs>
						<rect id="SVGID_11_" x="-0.003" y="136.542" width="1190.548" height="604.422"/>
					</defs>
					<clipPath id="SVGID_12_">
						<use xlink:href="#SVGID_11_"  overflow="visible"/>
					</clipPath>
					<path clip-path="url(#SVGID_12_)" fill="#EFC64F" d="M361.187,669.645c-1.83,0-3.658,1.828-6.399,6.397
						c-2.744,3.656-3.658,7.313-3.658,9.146v0.913h0.914c0.914,0,1.828,0,1.828-0.913c0.916-0.919,0.916-1.832,0.916-1.832
						c0.914-0.914,1.827-1.828,1.827-1.828c0.914-0.914,1.828-1.828,1.828-2.742c0.914-0.914,1.83-1.828,1.83-2.741
						c0-0.914,0.914-1.828,0.914-2.742s0-0.914,0-1.828C362.101,669.645,361.187,669.645,361.187,669.645 M327.353,703.477
						c0.914-1.827,1.83-2.741,3.658-4.573c0.914-1.828,2.744-2.742,5.485-4.57c0-1.827,0-2.741,0.914-3.655
						c0.913-0.918,0-2.746,0-3.66s0.913-1.827,0.913-3.655c0-0.914,0.916-2.742,1.83-4.574c0.914-1.823,1.828-3.651,2.742-5.483
						c0.914-1.828,2.742-4.569,4.57-7.313c1.829-1.827,2.743-3.659,4.571-5.487c1.827-1.828,2.743-3.656,4.571-5.483
						c0.914-0.914,1.828-0.914,2.742-1.832c0.916-0.914,1.83-0.914,2.744-1.828c0.913,0,1.827-0.914,2.743-0.914
						c0.914,0,1.828,0,3.656,0c1.829,0,2.743,0,4.571,0.914c0.914,0,1.828,0.914,2.744,1.828c0.914,0.918,0.914,1.832,1.825,2.746
						c0.914,0.913,0.914,2.741,0.914,3.655c0,1.828,0,2.741,0.914,4.573c0,0,0,0,0,0.914s-0.914,1.828-0.914,3.656l-3.655,0.914
						c-0.914,3.655-2.742,7.314-6.399,11.886c-3.656,4.57-8.229,9.144-13.715,14.628c-0.916,0.914-0.916,0.914-0.916,1.828
						s-0.913,1.828-0.913,2.746c0,1.828,0,2.742,0.913,3.655c0.916,0.913,0.916,1.827,1.83,2.741c0.914,0,1.828,0.914,2.742,0.914
						s2.744,0.914,4.571,0.914c2.744,0,5.486-0.914,7.315-0.914c1.828-0.914,4.57-1.828,5.486-2.742c0,0,0.914-0.913,1.825-0.913
						c0.914,0,1.828-0.913,1.828-1.827c0.916,1.827,1.83,3.654,2.744,5.482s0.914,2.746,1.828,4.574
						c-3.656,3.656-7.313,6.396-10.971,9.14c-3.658,1.828-6.399,2.742-9.145,2.742c-0.914,0.914-2.741,0.914-3.655,1.832
						c-1.83,0-2.744,0.914-4.572,0.914c-2.743,0-4.571,0-6.399-0.914c-1.83-0.918-3.657-1.832-4.571-3.66
						c-0.914-0.914-1.828-1.828-1.828-2.742c-0.914-0.914-1.828-2.74-1.828-4.572c-0.914-1.828-0.914-2.738-1.828-3.652
						c-0.916-0.914-0.916-0.914-1.829-0.914c-0.914,0-0.914,0-1.828,0.914c-0.914,0.91-1.83,0.91-1.83,2.738
						c0-0.914-0.913-2.738-1.827-3.656C330.097,707.133,329.183,705.305,327.353,703.477"/>
				</g>
			</g>
		</g>
	</g>
	<g>
		<g>
			<g>
				<g>
					<defs>
						<rect id="SVGID_13_" x="-0.003" y="136.542" width="1190.548" height="604.422"/>
					</defs>
					<clipPath id="SVGID_14_">
						<use xlink:href="#SVGID_13_"  overflow="visible"/>
					</clipPath>
					<path clip-path="url(#SVGID_14_)" fill="#EFC64F" d="M423.365,621.175c1.828,0,2.742,0,3.658,0.914
						c0.914,0.918,0.914,1.832,0.914,2.746c0,1.828-0.914,3.656-0.914,4.569c-0.916,2.741-0.916,4.573-1.83,6.401
						s-0.914,2.742-0.914,3.656c-0.914,1.828-1.828,2.741-2.741,3.655c-0.916,0.914-2.743,1.828-3.657,2.742
						c-1.83,0.914-2.744,1.827-3.658,2.741c-0.912,0-1.826,0.918-1.826,0.918c-0.914,0-2.744,0-3.657,0c-0.914,0-1.828,0-2.742,0
						c-0.916-0.918-1.83-1.831-1.83-2.745c-1.827-1.828-1.827-3.656-1.827-6.397c0-1.828,0.914-4.57,3.657-8.229
						c2.742-2.742,4.569-4.569,6.399-4.569c0.914-1.828,2.74-2.742,4.57-4.57c0.914-0.918,1.828-0.918,2.741-0.918
						C420.621,622.089,421.537,621.175,423.365,621.175 M379.477,703.477L379.477,703.477l0.914-1.827
						c1.827-2.746,5.485-5.488,10.056-10.059c4.571-4.574,8.229-7.315,10.059-10.059c0.916-0.914,1.829-1.828,2.743-2.746
						c0.914-0.909,1.828-0.909,2.742-0.909c2.743,0,4.571,0.909,6.401,1.827c1.826,0.914,2.74,2.742,3.654,5.484
						c0.916,1.827,0.916,4.569,0.916,6.401c0,1.827,0.913,4.569,0.913,6.397c0.914,1.828,0.914,3.659,1.828,6.401
						c0.913,2.741,0.913,4.569,1.829,4.569c0,0.914,0.914,0.914,1.828,1.832c0.914,0,1.828,0.91,2.742,0.91
						c0.916,0,2.744,0,3.658-0.91c0.914,0,2.744-0.918,3.657-2.746c0.914-0.913,1.828-1.827,3.657-2.741
						c0.914-0.914,1.828-1.828,3.656-2.742l4.57,9.145c-0.912,0.91-2.74,2.738-4.57,3.656c-1.828,1.827-3.656,2.741-6.399,4.569
						c-2.743,1.827-5.485,3.655-7.313,4.569c-1.83,0.914-3.658,1.832-4.572,1.832c-6.4,0-10.056-0.918-11.886-1.832
						c-1.828-1.828-3.655-5.483-6.399-11.886c0-0.91-0.913-0.91-0.913-1.824c-0.914-0.918-0.914-1.832-1.828-2.746
						c-0.916-1.827-1.83-2.741-1.83-3.655c-0.914-0.914-0.914-0.914-1.828-0.914s-2.744,0.914-4.572,1.828
						c-1.827,1.828-4.57,3.655-6.398,6.401c0-0.914-0.914-1.832-0.914-2.746c-0.916-0.913-0.916-2.741-1.83-4.569
						C381.304,704.391,380.391,704.391,379.477,703.477C380.391,703.477,380.391,703.477,379.477,703.477"/>
				</g>
			</g>
		</g>
	</g>
	<g>
		<g>
			<g>
				<g>
					<defs>
						<rect id="SVGID_15_" x="-0.003" y="136.542" width="1190.548" height="604.422"/>
					</defs>
					<clipPath id="SVGID_16_">
						<use xlink:href="#SVGID_15_"  overflow="visible"/>
					</clipPath>
					<path clip-path="url(#SVGID_16_)" fill="#EFC64F" d="M438.908,703.477c0-0.914,0.914-0.914,0.914-1.827
						c0-0.914,0.914-0.914,1.828-1.832c0.916-0.914,1.83-0.914,2.744-2.742c0.914-0.914,2.742-1.828,3.656-3.656
						c0.914-1.827,2.74-2.741,4.57-5.487c1.828-1.828,3.656-4.569,6.4-7.313c0.914-0.914,2.742-2.741,4.572-4.569
						c1.828-1.832,3.654-3.66,5.484-6.401c1.828-1.828,3.656-3.656,6.4-5.483c1.828-0.918,4.569-1.832,7.313-1.832
						s4.571,0.913,5.485,2.745c0.916,1.828,1.83,3.656,1.83,6.398c0,1.827-0.914,4.573-1.83,9.144
						c-0.914,4.57-2.742,10.059-5.485,17.376c-0.914,1.828-0.914,2.742-1.828,3.656c0,0.914-0.914,1.828-0.914,2.742
						c0,0.918,0,0.918,0,1.832c0,0,0,0.913,0.914,1.826l0.914-0.913l0.914-0.913c0.915-0.914,1.829-1.832,2.743-3.66
						s2.742-2.742,3.658-3.656c0.914-0.914,1.828-2.742,2.742-3.656c0.914-0.918,1.83-1.832,3.658-2.745l0.913-0.914
						c0,0,0.914-0.914,1.828-1.827c0.915-0.914,1.829-1.828,3.657-2.742c0.914-0.914,2.744-1.828,4.572-2.742
						c1.828-0.913,3.658-1.827,4.569-1.827c1.828-0.914,2.741-0.914,3.657-0.914c1.828,0,3.656,0.914,5.486,1.828
						c1.828,0.913,2.742,2.741,4.572,4.569c1.827,4.569,2.741,8.229,3.655,11.886c0.914,1.828,1.83,3.656,2.744,4.569
						c0.913,0.919,1.827,1.832,2.741,1.832c0.916,0,1.83,0,2.744-0.914c0.914,0,1.828-0.918,1.828-1.831l4.571,9.144
						c-0.914,0.914-2.741,1.828-3.657,2.742c-0.914,0.918-2.742,1.832-3.656,2.746c-1.83,1.828-2.744,2.742-4.571,2.742
						c-1.83,0.913-2.744,0.913-4.572,0.913c-1.827,0-2.743,0-4.571-0.913c-1.828-0.914-2.742-1.828-3.658-2.742
						c-0.914-0.914-0.914-1.828-1.828-2.742c-0.914-1.832-1.827-3.66-2.743-5.487c-0.914-0.914-1.828-1.828-2.742-3.656
						c-0.914-1.831-2.741-3.659-3.655-5.487h-0.914c-0.914,0-2.744,0.914-3.658,1.828s-2.742,1.828-3.655,3.659
						c-2.744,2.742-5.485,4.569-6.401,5.483c-1.828,0.914-2.742,1.828-2.742,2.742c-0.914,1.832-2.744,3.66-4.572,6.401
						c-2.743,2.741-5.484,5.483-9.142,9.141c-0.914,0.914-1.828,1.832-2.742,2.746c-0.916,0.914-1.83,1.828-2.744,2.741
						c-0.914,0.914-1.828,0.914-2.742,1.828c-0.914,0-2.742,0.913-3.656,0.913c-2.744,0-4.572-0.913-4.572-2.741
						c0-1.827-0.914-3.655-0.914-5.487c0.914-2.742,1.828-6.398,3.658-10.972c0.914-4.57,2.742-9.142,4.57-15.543
						c0,0,0-0.913,0-1.827s0.914-0.914,0.914-2.742c0-0.914,0.914-1.828,0.914-2.742c0-0.913,0-0.913,0-1.832
						c0-0.913,0-0.913-0.914-0.913c0,0-0.914,0-1.828,0s-1.828,0-2.742,0.913c-0.914,0.918-2.744,1.832-3.658,3.66
						c-1.828,1.828-3.658,3.656-4.572,4.57c-0.914,0.913-1.828,1.827-2.742,1.827c-0.914,0.918-1.828,0.918-2.742,1.832
						s-1.828,1.828-2.744,2.741c0,0,0,0.914-0.914,0.914c0,0.914-0.914,0.914-0.914,1.828c0-0.914-0.912-2.742-1.826-3.656
						C440.738,707.133,439.823,705.305,438.908,703.477"/>
				</g>
			</g>
		</g>
	</g>
	<g>
		<g>
			<g>
				<g>
					<defs>
						<rect id="SVGID_17_" x="-0.003" y="136.542" width="1190.548" height="604.422"/>
					</defs>
					<clipPath id="SVGID_18_">
						<use xlink:href="#SVGID_17_"  overflow="visible"/>
					</clipPath>
					<path clip-path="url(#SVGID_18_)" fill="#EFC64F" d="M571.498,669.645c-1.829,0-3.657,1.828-6.401,6.397
						c-2.742,3.656-3.656,7.313-3.656,9.146v0.913h0.914c0.914,0,1.828,0,1.828-0.913c0.914-0.919,0.914-1.832,0.914-1.832
						c0.916-0.914,1.83-1.828,1.83-1.828c0.914-0.914,1.828-1.828,1.828-2.742c0.914-0.914,1.828-1.828,1.828-2.741
						c0-0.914,0.916-1.828,0.916-2.742s0-0.914,0-1.828C572.412,669.645,572.412,669.645,571.498,669.645 M538.578,703.477
						c0.914-1.827,1.83-2.741,3.657-4.573c1.828-1.828,2.744-2.742,5.486-4.57c0-1.827,0-2.741,0.912-3.655
						c0.914-0.918,0-2.746,0-3.66s0.914-1.827,0.914-3.655c0-0.914,0.916-2.742,1.83-4.574c0.913-1.823,1.827-3.651,2.741-5.483
						c0.914-1.828,2.744-4.569,4.571-7.313c1.83-1.827,2.744-3.659,4.572-5.487s2.744-3.656,4.572-5.483
						c0.913-0.914,1.827-0.914,2.741-1.832c0.916-0.914,1.83-0.914,2.743-1.828c0.914,0,1.828-0.914,2.744-0.914
						c0.914,0,1.828,0,3.656,0c1.83,0,2.744,0,4.569,0.914c0.914,0,1.828,0.914,2.744,1.828c0.914,0.918,0.914,1.832,1.827,2.746
						c0,0.913,0.914,2.741,0.914,3.655c0,1.828,0,2.741,0.914,4.573c0,0,0,0,0,0.914s-0.914,1.828-0.914,3.656l-4.571,0.914
						c-0.913,3.655-2.739,7.314-6.397,11.886s-8.229,9.144-13.716,14.628c-0.914,0.914-0.914,0.914-0.914,1.828
						s-0.914,1.828-0.914,2.746c0,1.828,0,2.742,0.914,3.655c0.914,0.914,0.914,1.827,1.83,2.741c0.914,0,1.828,0.914,2.742,0.914
						s2.743,0.914,4.571,0.914c2.743,0,5.485-0.914,7.313-0.914c1.83-0.914,4.57-1.828,5.483-2.742c0,0,0.916-0.913,1.83-0.913
						s1.827-0.913,1.827-1.827c0.914,1.827,1.828,3.654,2.744,5.482c0.914,1.828,0.914,2.746,1.828,4.574
						c-3.658,3.656-7.313,6.396-10.97,9.14c-3.658,1.828-6.4,2.742-9.145,2.742c-0.914,0.914-2.741,0.914-3.657,1.832
						c-1.828,0-2.742,0.914-5.486,0.914c-2.742,0-4.572,0-6.399-0.914c-1.828-0.918-3.658-1.832-4.571-3.66
						c-0.914-0.914-1.828-1.828-1.828-2.742c-0.912-0.914-1.826-2.74-1.826-4.572c-0.916-2.738-1.83-3.652-1.83-4.566
						c-0.914-0.918-0.914-0.918-1.828-0.918s-0.914,0-1.83,0.918c-0.913,0.914-1.827,0.914-1.827,2.738
						c0-0.91-0.914-2.738-1.828-3.656C540.408,707.133,539.492,705.305,538.578,703.477"/>
				</g>
			</g>
		</g>
	</g>
	<g>
		<g>
			<g>
				<g>
					<defs>
						<rect id="SVGID_19_" x="-0.003" y="136.542" width="1190.548" height="604.422"/>
					</defs>
					<clipPath id="SVGID_20_">
						<use xlink:href="#SVGID_19_"  overflow="visible"/>
					</clipPath>
					<path clip-path="url(#SVGID_20_)" fill="#EFC64F" d="M865.937,643.121c-0.916,0-1.83-0.91-2.744-0.91h-3.658v10.054h2.744
						c1.828,0,2.742,0,3.658-0.914c0.914-0.913,1.828-1.827,1.828-4.569C868.679,645.867,867.765,644.039,865.937,643.121
						 M1099.11,652.265l-1.83,5.488h7.315l-1.827-5.488c-0.916-2.741-0.916-4.569-1.83-5.483l0,0
						C1100.938,647.694,1100.024,649.521,1099.11,652.265 M907.084,652.265l-1.83,5.488h7.313l-1.83-5.488
						c-0.912-2.741-0.912-4.569-1.826-5.483l0,0C908.911,647.694,907.998,649.521,907.084,652.265 M914.397,542.539
						c-1.828,1.828-1.828,4.57-2.744,7.313h53.953c-0.914-3.655-1.827-6.397-7.314-11.882c-2.742-2.746-9.143-8.229-20.116-8.229
						c-3.658,0-6.401,0.914-8.229,0.914C921.714,534.31,916.225,539.798,914.397,542.539 M1042.414,543.453
						c-1.828,1.828-1.828,4.57-2.742,7.315h53.951c-0.914-3.659-1.83-6.401-7.316-11.886c-2.741-2.742-9.143-8.229-20.117-8.229
						c-3.656,0-6.4,0.914-8.229,0.914C1049.728,535.224,1044.242,540.712,1042.414,543.453 M1162.202,670.559
						c-3.657,1.828-9.145,2.742-14.631,2.742c-12.798,0-20.116-8.229-20.116-18.29c0-10.973,8.229-20.118,21.03-20.118
						c4.572,0,8.23,0.914,10.974,1.828v8.227c-2.742-1.828-6.4-2.742-10.974-2.742c-8.226,0-12.798,4.57-12.798,11.887
						c0,7.315,3.658,11.887,11.884,11.887c1.83,0,3.658,0,5.486-0.914v-10.973h8.229v16.46h0.913L1162.202,670.559L1162.202,670.559
						z M1162.202,514.191v16.46c0,0-22.859-2.746-23.775,23.773c0,5.483,0,20.117,0,20.117
						c-14.628,21.946-36.576,31.09-64.922,31.09c-51.207,0-53.037-38.4-53.037-44.804c0-2.741,0-10.059,3.655-17.376
						c7.315-16.457,23.775-27.435,41.147-27.435c2.744,0,9.144,0,15.542,2.742c14.63,5.488,25.605,19.208,28.35,33.836
						c0.914,4.569,0,9.145,0,13.714h-72.234c0.914,5.488,5.484,21.945,32.004,22.859c35.661,0.914,47.545-13.714,52.121-19.203
						V516.93h17.376v7.313C1138.427,524.25,1144.828,514.191,1162.202,514.191 M1004.924,654.097l15.544,19.204h-10.058
						l-11.888-15.546l0,0v15.546h-8.228v-37.492h8.228v15.542l0,0l11.888-15.542h10.058L1004.924,654.097z M1010.411,573.629
						c-14.631,21.946-36.577,31.09-64.926,31.09c-51.208,0-53.036-38.4-53.036-44.804c0-2.741,0-10.058,3.656-17.376
						c7.314-16.457,23.775-27.434,41.146-27.434c2.744,0,9.144,0,15.543,2.741c14.63,5.488,25.604,19.208,28.348,33.836
						c0.914,4.569,0,9.141,0,13.715h-72.235c0.914,5.482,5.484,21.944,32.004,22.858c35.662,0.914,47.546-13.714,52.122-19.203
						v-53.036h17.376v57.611L1010.411,573.629L1010.411,573.629z M903.427,633.979c-1.83,0-4.572-1.827-4.572-4.568
						c0-2.746,1.828-4.574,4.572-4.574c2.741,0,4.571,1.828,4.571,4.574C907.084,632.15,905.254,633.979,903.427,633.979
						 M914.397,633.979c-1.828,0-4.57-1.827-4.57-4.568c0-2.746,1.826-4.574,4.57-4.574s4.572,1.828,4.572,4.574
						C918.971,632.15,916.225,633.979,914.397,633.979 M905.254,635.809h7.313l15.544,37.492h-9.144l-3.658-9.145h-11.884
						l-3.658,9.145h-9.145L905.254,635.809z M939.088,635.809h8.227l14.63,19.204c0.914,1.828,1.827,2.742,3.657,4.574l0,0
						c0-1.832,0-4.574,0-6.402v-17.376h8.229v37.492h-8.229l-14.63-20.122c-0.913-1.828-1.827-2.741-3.657-4.569l0,0
						c0,0.914,0,3.655,0,5.487v19.204h-8.227V635.809z M1031.444,635.809h22.86l-1.828,7.313h-11.886v7.315h11.886v7.315h-11.886
						v8.229h13.714v7.313h-21.946v-37.488h-0.914V635.809z M1082.648,673.301l14.628-37.492h7.315l15.542,37.492h-9.143
						l-3.658-9.145h-11.886l-3.657,9.145H1082.648z M881.479,602.891h-17.376v-55.78l-51.208,55.78h-10.97v-56.694l-53.037,56.694
						h-21.946l79.552-86.871h10.971v56.695l52.124-56.695h10.97L881.479,602.891z M726.948,655.011
						c0-10.972,8.229-20.118,21.032-20.118c4.572,0,8.228,0.914,10.972,1.828v8.227c-2.744-1.828-6.398-2.741-10.972-2.741
						c-8.229,0-12.8,4.569-12.8,11.886c0,7.315,3.658,11.886,11.884,11.886c1.83,0,3.658,0,5.488-0.913v-10.973h8.228v15.546
						c-3.658,1.824-9.144,2.737-14.63,2.737C734.262,674.215,726.948,665.982,726.948,655.011 M776.322,635.809h22.864l-1.83,7.313
						h-11.887v7.315h11.887v7.315h-11.887v8.229h13.717v7.313h-21.95v-37.488h-0.914V635.809L776.322,635.809z M809.242,635.809
						h31.09l-1.83,7.313h-9.144v30.18h-8.229v-30.18h-10.971v-7.313H809.242z M851.305,635.809h11.886c3.658,0,5.486,0,7.314,0.914
						c4.57,1.832,6.398,5.484,6.398,10.059c0,4.569-2.742,8.229-7.313,9.145l0,0c0.914,0.914,2.743,2.741,4.57,6.397l5.484,10.972
						H869.59l-4.572-8.226c-1.828-3.66-2.742-4.574-3.656-5.488h-1.83v13.714h-8.228L851.305,635.809L851.305,635.809z
						 M1190.549,737.308V344.115h-123.443c5.485,6.396,12.8,13.714,13.712,14.628c1.83,1.832,4.571,7.314,4.571,7.314l1.828,6.402
						c0,0-3.655-0.918-3.655,1.828c0,1.827,5.485,9.144,5.485,9.144l-0.914,3.66c0,0-6.401,2.742-4.571,12.8
						c0,0,0.913,8.227-0.912,10.055c0,0-10.058,1.832-10.058,9.145c0,8.229,0.913,6.401,0.913,6.401s0,2.742-3.657,4.569
						c-3.658,1.828-6.4,0.914-6.4,0.914s-6.399,8.229-6.399,10.973c0,3.655,0.913,5.483-8.229,7.315
						c-9.144,1.827-10.058,3.655-10.972,7.313c-0.914,4.574-1.828,6.402-4.572,8.229c-2.744,1.828-5.486-0.913-9.145,0
						c-3.655,0.914-9.145,4.574-10.971,8.228c-1.827,3.66-6.398,7.314-10.058,8.229c-2.742,0-8.229-4.568-16.458,1.828l-1.828,5.488
						l-8.229,3.655c0,0-6.399-4.569-10.972-3.655s-13.716,6.401-13.716,6.401s0,1.827-4.57,0.913
						c-4.572-0.913-9.143-2.745-12.8-1.832c-3.658,0-9.144,3.66-9.144,3.66s-4.572,1.828-6.4,0s-3.656-5.487-9.143-5.487
						c-5.485,0-8.229,3.659-8.229,3.659s-6.399,0.914-8.228-6.4c-1.828-6.402-9.146-3.656-12.802-2.742
						c-3.655,0.914-6.398,5.483-9.142-4.574c-2.744-10.058-6.401-7.312-10.059-7.312s-6.401,0-6.401-8.23
						c0-7.312-3.656-6.396-4.567-5.482l-0.918,1.827c0,0-4.568-3.655-4.568-10.059c0,0-3.657-36.577,17.375-61.266
						c18.289-21.031,42.062-37.491,64.922-47.55H705v394.11h485.546v-0.908h0.003V737.308z"/>
				</g>
			</g>
		</g>
	</g>
	<g>
		<g>
			<g>
				<g>
					<defs>
						<rect id="SVGID_21_" x="-0.003" y="136.542" width="1190.548" height="604.422"/>
					</defs>
					<clipPath id="SVGID_22_">
						<use xlink:href="#SVGID_21_"  overflow="visible"/>
					</clipPath>
					<path clip-path="url(#SVGID_22_)" fill="#010000" d="M1065.276,360.57c0-0.914,0-0.914,0-1.828
						C1065.276,358.742,1065.276,359.656,1065.276,360.57c5.486,25.605-23.772,48.464-32.004,53.949
						c-8.229,5.487,1.828-7.313,1.828-7.313C1065.276,385.263,1066.19,366.061,1065.276,360.57 M1061.618,345.942
						c3.656,8.229,7.314,24.688-11.888,45.718c-12.798,13.714-35.662,30.176-74.063,44.804
						c-48.465,18.29-79.555,19.204-97.842,14.628c-33.834-8.226-26.521-39.314-26.521-39.314
						c-17.376,53.034,53.952,64.922,128.934,35.659C1025.957,428.238,1086.303,388.918,1061.618,345.942 M1058.875,340.455
						c0.913,1.828,1.827,3.655,2.743,4.569C1059.788,342.283,1057.961,340.455,1058.875,340.455"/>
				</g>
			</g>
		</g>
	</g>
	<g>
		<g>
			<g>
				<g>
					<defs>
						<rect id="SVGID_23_" x="-0.003" y="136.542" width="1190.548" height="604.422"/>
					</defs>
					<clipPath id="SVGID_24_">
						<use xlink:href="#SVGID_23_"  overflow="visible"/>
					</clipPath>
					<path clip-path="url(#SVGID_24_)" fill="#010000" d="M852.221,408.122c0,0,19.206-41.147,87.785-68.581
						c67.666-25.606,109.726-12.8,117.957-3.656l0.914,0.914c7.313,8.227-21.031-38.406-120.701,0
						C862.279,366.061,852.221,408.122,852.221,408.122"/>
				</g>
			</g>
		</g>
	</g>
	<g>
		<g>
			<g>
				<g>
					<defs>
						<rect id="SVGID_25_" x="-0.003" y="136.542" width="1190.548" height="604.422"/>
					</defs>
					<clipPath id="SVGID_26_">
						<use xlink:href="#SVGID_25_"  overflow="visible"/>
					</clipPath>
					<path clip-path="url(#SVGID_26_)" fill="#010000" d="M1023.214,436.47L1023.214,436.47L1023.214,436.47 M846.731,423.664
						c0-1.828,0-2.742,0-2.742C846.731,421.836,846.731,422.75,846.731,423.664 M1084.475,388.005
						c-2.743,2.741-1.827,8.229-1.827,8.229c-1.83-1.832-7.313-10.977-5.484-11.891
						C1078.99,383.431,1084.475,388.005,1084.475,388.005 M1077.162,409.036c0,0-4.571,4.57-5.484,7.313
						c0,0-4.572-8.227-1.83-10.969C1072.591,402.639,1077.162,409.036,1077.162,409.036 M1064.362,430.066
						c-4.572,0.914-7.313,10.058-7.313,10.058c-0.916-0.914-5.485-10.972-1.829-13.714
						C1058.875,423.664,1064.362,430.066,1064.362,430.066 M1046.072,448.356c-6.398,0.912-9.142,9.14-9.142,9.14
						c-3.658-9.14-3.658-14.628-0.914-15.542C1038.758,441.04,1046.072,448.356,1046.072,448.356 M1027.784,462.07
						c0,0-10.058,1.832-12.802,5.486c0,0-3.654-10.058,0-12.8C1017.724,452.012,1024.128,458.414,1027.784,462.07 M997.61,473.044
						l-3.658-0.914c0,0,3.658,4.57,2.744,6.402c0,0-5.484,0-10.058,4.568c0,0-0.914-5.487-0.914-8.229c0,0-1.83-4.57,2.742-6.398
						C991.209,466.646,997.61,473.044,997.61,473.044 M968.348,485.844c0,0-10.059,1.828-12.8,4.574c0,0-2.744-10.973,2.741-13.718
						C962.863,473.958,968.348,485.844,968.348,485.844 M944.573,494.073c0,0-7.313-3.655-13.714-0.913
						c0,0-1.828-11.887,2.744-13.714C938.174,477.614,944.573,492.246,944.573,494.073 M917.141,492.246
						c0.914,2.741-4.572-3.66-10.973-0.914c0,0-1.828-8.23,3.657-9.145S917.141,489.504,917.141,492.246 M889.711,485.844
						c0,0-3.658-0.914-7.314-0.914c0,0,0-6.396,1.828-8.229c1.828-1.828,3.658,0,4.572,4.573L889.711,485.844z M869.593,478.532
						c0,0-6.4-6.402-8.229-6.402c0,0,1.828-9.144,3.656-8.226C867.765,465.729,869.593,473.958,869.593,478.532 M1089.965,374.286
						c0,0-4.572-10.968-7.313-14.628c-2.742-2.741-18.29-22.859-24.689-23.773c0,0,7.313,8.229,10.059,13.714
						c0,0,10.972,7.316,15.542,14.633l2.741,6.396c0,0-6.399-8.229-12.798-11.886c-6.399-3.66-0.913,0.914,0,2.742
						c0.914,2.746,4.569,9.144,4.569,9.144s-4.569-2.741-6.399-2.741c-1.827-0.914-0.913,0.914,0.916,2.741
						c1.828,1.832,10.97,8.23,12.798,10.973c1.828,2.743,1.828,6.401,1.828,6.401s-9.141-12.804-16.458-9.144
						c0,0-1.827,3.655,1.83,9.144l-4.571-2.746c0,0-1.83,0,0,1.832c1.827,2.742,11.884,10.973,13.711,15.542
						c0,0,0,5.484-0.913,5.484c-0.914,0-10.97-12.8-15.542-12.8c-5.486,0-0.914,10.058,0,11.886s3.658,7.315,3.658,7.315
						s-8.23-8.229-11.888-9.145c0,0,1.828,0.918,4.57,4.57c2.744,3.659,2.744,2.746,10.059,14.632
						c0.916,1.828-0.914,3.655-1.828,4.568c-0.914,0.914-9.145-8.229-13.717-10.972c-4.568-3.656-9.14-3.656-8.228,3.656
						c0,7.314,1.828,9.144,1.828,9.144s-8.226-10.972-9.142-10.058c-0.914,0.914,4.568,5.488,12.8,16.46
						c0,0,3.657,4.569,3.657,7.312c-0.916,2.742-2.744,2.742-4.571,2.742c-0.914,0-14.628-21.031-21.032-16.458
						c-4.572,3.66-1.83,10.059-0.916,13.714c0.916,1.828,0.916,2.742,0.916,2.742s-0.916-0.914-0.916-2.742
						c-1.828-2.741-4.57-7.312-7.313-8.226c0,0,0.912,1.828,5.484,8.226c6.4,11.887,8.23,15.547,8.23,15.547s0,1.827-2.744,2.741
						c-2.742,0.914-9.146-16.46-20.12-17.376c-10.056-0.914-4.572,21.032-4.572,21.032s-8.226-17.376-9.14-18.29
						c-0.916,0-1.83,0.914-0.916,3.655c0.916,2.746,9.142,23.778,9.142,23.778s-0.913,2.741-5.482,2.741
						c0,0-10.06-25.603-19.206-19.204c0,0-5.486,3.656,0.916,24.691c0,0,0.914,2.742-4.572,3.656h-1.83
						c0,0-9.14-24.691-11.884-26.521c0,0,1.828,6.401,2.744,12.8c0,0-9.145-10.054-13.716-7.313
						c-5.486,1.828-6.4,10.969-3.658,26.517c0,0-0.914,0.918-4.572,0.918c0,0-3.655-10.977-6.399-22.863
						c-0.913-4.57-0.913-5.484-0.913-5.484s-0.912,10.055,0.913,14.628c0,0-4.569-10.058-10.056-8.229
						c-5.486,1.832-6.4,12.8-5.486,22.863c0,0-0.914,1.827-3.658,1.827c-1.827,0-4.57-13.718-5.484-25.604v-2.742
						c0,0-0.914,9.141-0.914,13.714c0,3.656-1.828-10.058-9.145-8.229c-7.313,0.914-6.397,20.122-6.397,20.122
						s-3.658,3.655-5.486-0.918c-1.828-3.655-1.828-18.29-1.828-21.945l-0.916,3.655c0,0-4.568-6.397-8.228-7.313
						s-4.572,2.742-5.486,18.29c0,0-3.658,3.656-6.396-0.914c0,0,0-14.628,0-19.203c0-3.66,0-7.315-0.919-4.574
						c-0.911,2.746-0.911,6.402-0.911,6.402s-3.656-7.316-5.486-7.316c-2.742,0-5.486,5.488-5.486,13.714c0,0-2.74,0.914-2.74-2.741
						s0.914-16.458,0.914-16.458l-1.83,1.828c0,0,0-7.315-2.742-9.145c-1.828-1.828-3.658,12.8-3.658,15.542
						c0,0-2.742-2.742-2.742-10.054c0-7.316,1.828-21.95,1.828-21.95s-0.914-3.656-0.914-6.398
						c-0.914,6.398-2.744,23.774-1.83,29.264c0,0-0.914,3.654,0.916,5.482c0,0,0.914,5.488,3.656,7.316c0,0,0.916-1.828,2.744-2.742
						c0,0,2.742,3.656,3.658,7.313c0,3.655,0.914,3.655,2.74,5.483c0.914,0.914,2.744,0,4.572-0.914
						c1.828-1.828,5.486,0.914,7.313,3.66c1.83,3.656,1.83,6.397,2.744,7.313c1.827,0.914,6.399,2.746,6.399,2.746
						s4.572-2.746,6.4-3.66c1.83-0.913,6.4,0.914,7.314,4.574c0.914,3.655,1.828,4.569,4.572,4.569
						c2.742,0.914,4.571,0.914,6.399-0.914c1.826-1.828,5.483-3.655,8.229-3.655c2.742,0.913,7.313,3.655,7.313,5.483
						c0.913,0.914,1.827,1.828,4.571,1.828s3.658,0.913,4.572-0.914c0.914-1.828,3.657-4.57,7.313-4.57c4.569,0,5.483,0,9.143,2.742
						c0,0,0,0.914,2.744,0.914c2.741,0,6.399-0.914,6.399-0.914s0-0.914,2.741-3.656c0,0,2.744-2.745,6.401-3.659
						c3.656-0.914,7.314,0,9.143,1.832c1.828,1.827,1.828,1.827,4.57,0.914c2.743-0.914,7.315-2.746,8.229-3.66
						c1.828-0.914,1.828-5.483,5.485-7.313c3.658-1.832,7.314-0.914,10.06,0c3.658,0.914,4.571,0,6.396-1.832
						c2.744-1.828,3.658-2.742,5.486-4.57c1.828-1.827,0.914-5.482,5.484-7.312c3.658-1.828,10.06-1.828,11.89-1.828
						c1.828,0.914,1.828,0.914,4.568-1.832c3.656-1.828,2.744-1.828,2.744-3.656c0-1.827,0.912-6.4,4.57-8.229
						c4.571-1.828,6.399-1.828,9.144-2.742c2.742-0.914,4.57-1.828,5.486-4.57c0.914-2.744,0-8.229,2.742-10.058
						c2.743-1.828,5.484-3.656,7.314-3.656c2.742,0,2.742,0,4.572-2.745c1.826-2.741,3.653-3.655,2.739-5.483s-2.739-7.316,0-10.059
						c3.657-2.741,4.571-2.741,7.315-1.828c0,0,2.742-1.827,2.742-4.569v-3.66c0,0-3.658-5.483-1.828-10.058
						c1.828-5.484,5.486-2.742,5.486-2.742s0.913-4.573,0.913-6.401c0,0-3.657-4.574-3.657-7.315
						C1086.303,371.545,1089.965,374.286,1089.965,374.286"/>
				</g>
			</g>
		</g>
	</g>
</g>
<path fill="#EFC64F" d="M988.614,208.206H974.44V219.8h14.174V208.206z M988.614,249.438H974.44v11.6h14.174V249.438z
	 M920.319,204.34h11.594c3.868,0,6.444,1.286,7.729,2.576c1.291,1.29,2.577,3.865,2.577,7.726c0,2.58-1.288,5.156-2.577,7.736
	c-1.286,1.287-5.148,2.571-9.019,2.571h-11.597v-20.611h1.292V204.34z M933.199,233.974c3.87,0,6.442,1.292,7.731,2.582
	c1.288,2.576,2.576,5.156,2.576,7.731v5.15c0,2.582,0,3.872,0,6.448c0,2.576,1.29,3.868,2.577,5.151h14.175v-1.292
	c-1.288-1.286-2.576-2.575-2.576-5.151c0-2.58-1.287-3.872-1.287-6.446v-3.868c0-3.865-1.293-7.731-2.58-10.308
	c-1.29-2.58-5.151-5.156-9.021-6.446c3.867-1.288,6.443-3.868,7.729-6.443c1.29-2.574,2.577-5.15,2.577-9.019
	c0-6.441-2.577-11.598-6.441-14.174c-3.867-3.865-10.309-5.151-18.041-5.151h-25.771v68.295h14.17V233.97h14.18L933.199,233.974
	L933.199,233.974z M888.101,221.09H859.75v-16.75h32.217v-10.308h-46.389v68.293h46.389v-11.598H859.75v-19.33h28.351V221.09
	L888.101,221.09z M828.823,194.032h-14.172v46.384l0,0l-27.061-46.384h-12.887v68.293h12.887v-47.678l0,0l27.061,46.388h14.172
	V194.032z M761.82,194.032h-51.546v10.308h19.332v56.697h14.174V204.34h18.036v-10.308H761.82z M662.596,204.34h11.599
	c3.867,0,6.443,1.286,7.731,2.576s2.576,3.865,2.576,7.726c0,2.58-1.29,5.156-2.576,7.736c-1.29,2.571-5.156,2.571-9.021,2.571
	h-11.601v-20.611h1.29L662.596,204.34L662.596,204.34z M675.48,233.974c3.868,0,6.446,1.292,7.732,2.582
	c1.29,1.286,2.579,5.156,2.579,7.731v5.15c0,2.582,0,3.872,0,6.448c0,2.576,1.288,3.868,2.576,5.151h14.172v-1.292
	c-1.289-1.286-2.577-2.575-2.577-5.151c0-2.58-1.29-3.872-1.29-6.446v-3.868c0-3.865-1.29-7.731-2.578-10.308
	c-1.284-2.58-5.15-5.156-9.017-6.446c3.866-1.288,6.443-3.868,7.731-6.443c1.284-2.574,2.572-5.15,2.572-9.019
	c0-6.441-2.572-11.598-6.44-14.174c-3.865-3.865-10.308-5.151-18.039-5.151h-25.769v68.295h14.17V233.97h14.176L675.48,233.974
	L675.48,233.974z M607.189,209.489L607.189,209.489l9.019,27.063h-16.748L607.189,209.489z M623.939,261.037h14.176l-23.197-68.295
	h-14.171l-23.194,68.295h14.176l5.152-14.176h23.192L623.939,261.037z M537.601,204.34h12.886c3.864,0,6.442,1.286,9.018,2.576
	c2.58,2.573,2.58,5.149,2.58,7.726c0,2.58-1.292,6.442-2.58,7.736c-2.576,2.571-5.152,2.571-9.018,2.571h-12.886V204.34z
	 M551.777,236.556c7.729,0,14.17-2.582,18.038-6.448c3.864-3.868,6.444-9.018,6.444-15.458c0-6.443-2.58-11.6-6.444-15.464
	c-3.868-3.868-10.31-6.443-18.038-6.443h-27.064v68.295h14.174v-24.481L551.777,236.556L551.777,236.556z M506.673,221.09h-28.353
	v-16.75h32.214v-10.308h-46.388v68.293h46.388v-11.598h-32.214v-19.33h28.354L506.673,221.09L506.673,221.09z M437.09,261.037
	h16.754l-24.488-36.086l23.196-30.924H435.8l-18.038,28.353h-6.442v-28.353h-14.174v68.298h14.174v-29.642h7.729L437.09,261.037z
	 M380.393,194.032h-14.175v46.384l0,0l-27.063-46.384h-14.174v68.293h14.174v-47.678l0,0l27.063,46.388h14.175V194.032z
	 M278.593,177.276h-12.884v9.023h12.884V177.276z M301.787,177.276H288.9v9.023h12.888V177.276z M285.033,209.489L285.033,209.489
	l9.021,27.063h-16.752L285.033,209.489z M301.787,261.037h14.174l-23.198-68.295h-14.172l-23.193,68.295h14.174l5.151-14.176h23.194
	L301.787,261.037z M206.432,204.34h11.596c3.866,0,6.439,1.286,7.729,2.576c1.29,1.29,2.58,3.865,2.58,7.726
	c0,2.58-1.29,5.156-2.58,7.736c-1.288,1.287-5.149,2.571-9.017,2.571h-11.6v-20.611h1.292V204.34z M219.314,233.974
	c3.866,0,6.439,1.292,7.729,2.582c1.29,1.286,2.578,5.156,2.578,7.731v5.15c0,2.582,0,3.872,0,6.448
	c0,2.576,1.288,3.868,2.578,5.151h14.172v-1.292c-1.288-1.286-2.574-2.575-2.574-5.151c0-2.58-1.288-3.872-1.288-6.446v-3.868
	c0-3.865-1.292-7.731-2.58-10.308c-1.287-2.58-5.153-5.156-9.02-6.446c3.865-1.288,6.443-3.868,7.731-6.443
	c1.287-2.574,2.573-5.15,2.573-9.019c0-6.441-2.573-11.598-6.439-14.174c-3.868-3.865-10.311-5.151-18.04-5.151H190.96v68.295
	h14.174V233.97h14.18V233.974z M180.656,194.032h-51.543v10.308h19.329v56.697h14.175V204.34h19.325v-10.313h-1.288v0.005H180.656z
	 M114.936,221.09H86.588v-16.75h32.22v-10.308H72.416v68.293h46.392v-11.598h-32.22v-19.33h28.354V221.09H114.936z M56.95,226.239
	H31.175v9.024h11.6v12.884c-1.288,1.29-2.578,2.574-3.865,2.574c-2.58,0-3.867,1.296-7.733,1.296c-3.862,0-7.729-1.296-10.304-5.158
	c-2.576-2.574-3.864-7.729-3.864-12.888v-14.174c0-5.15,1.288-9.018,3.864-12.882c1.287-2.576,5.152-3.868,9.018-3.868
	s6.439,1.292,9.021,2.58c2.577,2.576,2.577,5.152,3.865,9.02H55.66l0,0c0-6.443-2.578-11.6-6.443-15.464
	c-5.156-5.151-11.599-6.443-19.328-6.443s-14.174,2.582-19.326,7.731c-5.154,5.156-7.73,11.604-7.73,19.332v14.174
	c0,7.732,2.576,15.458,7.73,20.616c5.152,5.158,11.597,7.731,20.612,7.731c6.443,0,11.6-1.29,16.754-2.579
	c3.863-2.576,7.731-3.866,9.021-7.727L56.95,226.239L56.95,226.239z"/>
</svg>
