<?xml version="1.0" encoding="utf-8"?>
<!-- Generator: Adobe Illustrator 16.0.0, SVG Export Plug-In . SVG Version: 6.00 Build 0)  -->
<!DOCTYPE svg PUBLIC "-//W3C//DTD SVG 1.1//EN" "http://www.w3.org/Graphics/SVG/1.1/DTD/svg11.dtd">
<svg version="1.1" id="Ebene_1" xmlns="http://www.w3.org/2000/svg" xmlns:xlink="http://www.w3.org/1999/xlink" x="0px" y="0px"
	 width="1099.68px" height="663.4px" viewBox="0 0 1099.68 663.4" enable-background="new 0 0 1099.68 663.4" xml:space="preserve">
<g>
	<g>
		<path fill="#260022" d="M764.883,301.781c0.258-1.29,0.258-1.548,0.519-1.806c0.772-10.316,1.549-20.893,2.319-31.21
			c0.259-4.9,0.519-9.802,0.773-14.702c0-0.516,0-1.032,0-1.29c-0.519-4.127-0.26-7.996-0.519-12.122
			c-0.258-4.386,0.261-8.771-0.258-13.154c-0.258-2.063-0.258-4.127,0.517-6.448c0.772,0.258,1.03,0.258,1.549,0.516
			c2.063,0.26,4.385,0.774,6.447,0.26c1.03-0.26,2.319-0.26,3.354-0.26c3.354,0,6.965,0,10.316-0.516
			c2.063-0.258,3.866,0.516,5.676,1.548c0,0.773,0.258,1.548,0.258,2.321c0,8.77,0.258,17.797,0.258,26.566
			c0,5.416-0.258,10.833-0.516,16.249c-0.258,5.159-0.519,10.317-0.519,15.478c0,9.285,0,18.57,0,27.855
			c0,3.869-0.258,7.48-0.258,11.351c0,8.254-0.258,16.25-0.258,24.504c0,3.096,0,6.447,0,9.543c0,1.031,0,2.322-0.258,3.354
			c-1.291,0.773-2.838,1.031-4.127,1.031c-2.322,0-4.646,0-6.965,0c-2.322,0-4.646-0.258-6.966-0.258
			c-1.03,0-2.319,0.258-3.354,0.258c-0.516,0-0.773,0.258-1.289,0.258c-3.611,0.773-5.418,0-6.965-3.354s-3.097-6.705-4.644-10.061
			c-2.063-4.385-3.869-8.771-5.934-13.152c-1.807-3.87-4.127-7.48-5.418-11.607c-0.258-1.032-1.031-2.063-1.547-3.097
			c-1.289-2.32-2.32-4.644-3.611-7.222c-1.547-3.354-3.354-6.447-4.898-9.802c-1.807-3.869-3.61-7.996-5.157-12.123
			c-2.063-5.158-4.9-10.059-7.479-14.96c0,0-0.26,0-0.518-0.258c-0.771,1.29-0.771,2.837-0.517,4.127c0,5.675,0,11.349,0,16.766
			c0,2.579-0.258,5.159-0.258,7.996c0,6.19,0,12.382,0.258,18.571c0,1.548,0,3.095,0,4.899c0,1.549,0,3.097,0,4.899
			c0,1.291,0,2.58,0,3.869c0,2.838-0.258,5.676-0.518,8.512c0,2.322,0,4.902,0.26,7.225c0.258,2.322,0.258,4.643,0,6.707
			c-1.549,1.289-3.098,1.805-4.901,1.547c-3.095,0-6.447-0.258-9.543-0.518c-1.548,0-3.097,0-4.386,0
			c-2.838,0.26-5.934,0.26-9.026,0.26c-0.259-0.773-0.517-1.547-0.517-2.32c0.258-2.322,0-4.645-0.518-6.707
			c-0.258-1.031-0.258-2.322-0.258-3.354c-0.259-5.676-0.519-11.352-0.773-16.767c-0.258-4.644-0.518-9.286-0.518-13.671
			c0-9.027,0.26-18.055,0.772-27.083c0.26-8.77,0.773-17.539,0.26-26.566c-0.26-2.838,0-5.417,0-8.254c0-3.354,0-6.707,0-10.06
			c0-1.032,0.259-2.321,0.259-3.354c0.26-2.063,0.518-3.868,0.772-5.674c0.258-4.9,0.517-9.544,0.771-14.443
			c0-0.259,0-0.517,0-0.774c0.26-1.805,0.518-2.321,2.319-2.579c1.55-0.258,2.839-0.516,4.388-0.516
			c4.645,0,9.285-0.258,14.188-0.517c2.58-0.258,4.898,0.517,7.224,1.289c3.608,7.48,7.223,14.702,10.573,21.925
			c3.353,7.223,6.965,14.187,9.802,21.666c1.809,4.9,4.387,9.545,6.448,14.444c1.547,3.611,3.097,7.222,4.644,10.575
			c0.26,0.772,0.772,1.548,1.289,2.579c1.291,2.837,2.838,5.417,4.127,8.254C763.336,299.201,763.852,299.975,764.883,301.781"/>
		<path fill="none" stroke="#260022" stroke-width="0.278" stroke-miterlimit="10" d="M764.883,301.781
			c0.258-1.29,0.258-1.548,0.519-1.806c0.772-10.316,1.549-20.893,2.319-31.21c0.259-4.9,0.519-9.802,0.773-14.702
			c0-0.516,0-1.032,0-1.29c-0.519-4.127-0.26-7.996-0.519-12.122c-0.258-4.386,0.261-8.771-0.258-13.154
			c-0.258-2.063-0.258-4.127,0.517-6.448c0.772,0.258,1.03,0.258,1.549,0.516c2.063,0.26,4.385,0.774,6.447,0.26
			c1.03-0.26,2.319-0.26,3.354-0.26c3.354,0,6.965,0,10.316-0.516c2.063-0.258,3.866,0.516,5.676,1.548
			c0,0.773,0.258,1.548,0.258,2.321c0,8.77,0.258,17.797,0.258,26.566c0,5.416-0.258,10.833-0.516,16.249
			c-0.258,5.159-0.519,10.317-0.519,15.478c0,9.285,0,18.57,0,27.855c0,3.869-0.258,7.48-0.258,11.351
			c0,8.254-0.258,16.25-0.258,24.504c0,3.096,0,6.447,0,9.543c0,1.031,0,2.322-0.258,3.354c-1.291,0.773-2.838,1.031-4.127,1.031
			c-2.322,0-4.646,0-6.965,0c-2.322,0-4.646-0.258-6.966-0.258c-1.03,0-2.319,0.258-3.354,0.258c-0.516,0-0.773,0.258-1.289,0.258
			c-3.611,0.773-5.418,0-6.965-3.354s-3.097-6.705-4.644-10.061c-2.063-4.385-3.869-8.771-5.934-13.152
			c-1.807-3.87-4.127-7.48-5.418-11.607c-0.258-1.032-1.031-2.063-1.547-3.097c-1.289-2.32-2.32-4.644-3.611-7.222
			c-1.547-3.354-3.354-6.447-4.898-9.802c-1.807-3.869-3.61-7.996-5.157-12.123c-2.063-5.158-4.9-10.059-7.479-14.96
			c0,0-0.26,0-0.518-0.258c-0.771,1.29-0.771,2.837-0.517,4.127c0,5.675,0,11.349,0,16.766c0,2.579-0.258,5.159-0.258,7.996
			c0,6.19,0,12.382,0.258,18.571c0,1.548,0,3.095,0,4.899c0,1.549,0,3.097,0,4.899c0,1.291,0,2.58,0,3.869
			c0,2.838-0.258,5.676-0.518,8.512c0,2.322,0,4.902,0.26,7.225c0.258,2.322,0.258,4.643,0,6.707
			c-1.549,1.289-3.098,1.805-4.901,1.547c-3.095,0-6.447-0.258-9.543-0.518c-1.548,0-3.097,0-4.386,0
			c-2.838,0.26-5.934,0.26-9.026,0.26c-0.259-0.773-0.517-1.547-0.517-2.32c0.258-2.322,0-4.645-0.518-6.707
			c-0.258-1.031-0.258-2.322-0.258-3.354c-0.259-5.676-0.519-11.352-0.773-16.767c-0.258-4.644-0.518-9.286-0.518-13.671
			c0-9.027,0.26-18.055,0.772-27.083c0.26-8.77,0.773-17.539,0.26-26.566c-0.26-2.838,0-5.417,0-8.254c0-3.354,0-6.707,0-10.06
			c0-1.032,0.259-2.321,0.259-3.354c0.26-2.063,0.518-3.868,0.772-5.674c0.258-4.9,0.517-9.544,0.771-14.443
			c0-0.259,0-0.517,0-0.774c0.26-1.805,0.518-2.321,2.319-2.579c1.55-0.258,2.839-0.516,4.388-0.516
			c4.645,0,9.285-0.258,14.188-0.517c2.58-0.258,4.898,0.517,7.224,1.289c3.608,7.48,7.223,14.702,10.573,21.925
			c3.353,7.223,6.965,14.187,9.802,21.666c1.809,4.9,4.387,9.545,6.448,14.444c1.547,3.611,3.097,7.222,4.644,10.575
			c0.26,0.772,0.772,1.548,1.289,2.579c1.291,2.837,2.838,5.417,4.127,8.254C763.336,299.201,763.852,299.975,764.883,301.781z"/>
		<path fill="#260022" d="M325.883,221.048h0.258l-0.258-0.258V221.048L325.883,221.048 M339.295,219.5
			c0,4.644,0,9.286,0.258,13.929c0.261,4.643,0.773,9.285,0.773,14.187c0,4.644,0,9.285,0,13.671c0,4.643,0,9.285,0,13.929
			c1.033,0.772,2.063,0.516,2.58-0.258c0.516-0.774,1.289-1.807,1.807-2.579c1.547-2.838,2.836-5.675,4.385-8.513
			c4.388-7.995,9.027-15.733,12.642-23.987c2.578-5.675,5.416-11.091,8.254-16.767c0.771-1.548,1.547-2.837,2.317-4.127
			c0.519-0.772,1.55-1.289,2.322-1.289c1.289-0.259,2.578-0.259,3.869-0.259c4.385,0,8.771,0,13.154,0.259
			c4.897,0.259,9.801,0.773,14.701,1.289c0.258,0.774,0.771,1.29,1.03,1.807c0,0.258,0,0.516,0,0.772
			c-2.063,5.675-4.899,10.834-7.996,15.992c-5.416,8.512-10.573,17.281-15.731,25.793c-3.869,6.448-7.48,12.896-11.351,19.345
			c-1.03,1.549-1.289,3.097-0.26,4.901c2.322,4.645,4.387,9.027,6.965,13.412c1.549,2.58,2.838,5.159,4.388,7.738
			c2.577,4.899,4.897,9.544,7.479,14.443c2.578,4.9,5.416,9.801,8.254,14.702c0.519,1.031,1.031,2.322,1.547,3.355
			c2.064,4.127,4.388,7.994,6.449,12.123c0.773,1.547,1.807,3.096,2.578,4.898c0.258,0.772,0.258,1.547,0.516,2.321
			c-2.575,0.517-5.155,1.031-7.733,0.771c-4.127-0.516-8.254-0.771-12.381-1.291c-1.033,0-2.322,0-3.355,0.263
			c-2.578,0.258-5.158,0.258-7.994,0.517c-1.549-1.55-2.58-3.097-3.354-4.902c-1.81-4.127-3.611-8.252-5.418-12.379
			c-2.063-4.388-4.127-8.771-6.447-12.897c-2.838-5.416-5.934-10.574-8.771-15.991c-1.809-3.354-3.61-6.706-5.157-10.061
			c-0.775-1.548-1.81-2.578-3.611-2.32c-1.807,0-3.354,0-5.158,0c-0.26,0.772-0.26,1.548-0.518,2.063
			c-0.517,5.675-0.771,11.35-0.258,16.768c0,0.516,0,1.029,0,1.806c-0.259,4.644-0.259,9.285-0.519,14.187c0,1.289,0,2.838,0,4.127
			c0.26,3.096,0,6.189-0.258,9.285c-0.258,1.289-0.258,2.838-0.258,4.127c0,1.549,0,3.096-0.258,4.387
			c-0.261,2.063-1.031,2.578-2.839,2.836c-2.577,0.258-5.157,0.518-7.995,0.773c-1.808,0.26-3.354,0.26-4.9,1.031
			c-1.289,0.518-2.578,0.772-4.127,0.258c-1.289-0.516-2.836-0.516-4.127-0.258c-1.289,0.258-2.32,0-3.354-0.258
			c-1.03-0.259-1.807-1.031-2.063-2.064c-0.258-0.771-0.516-1.805-0.516-2.576c0-3.355,0-6.967,0-10.318
			c0-6.705,0.771-13.412,0.516-19.861c0-1.03,0-2.319,0-3.353c0-4.385,0.258-8.771,0.258-13.154
			c0.26-7.996,0.26-15.992,0.518-23.988c0.259-9.802,0.259-19.604,0.517-29.146c0.258-9.285,0-18.313-0.258-27.599
			c0-2.063-0.259-4.386-0.259-6.448c0-0.773,0-1.548,0-2.321c0-1.032,0.517-1.806,1.55-1.806c0.771-0.258,1.547-0.258,2.317-0.258
			c4.9,0,9.543-0.259,14.445-0.773c3.352-0.259,6.705,0,10.059,0C338.522,218.984,338.522,218.984,339.295,219.5"/>
		<path fill="none" stroke="#260022" stroke-width="0.278" stroke-miterlimit="10" d="M325.883,221.048h0.258l-0.258-0.258V221.048
			L325.883,221.048z M339.295,219.5c0,4.644,0,9.286,0.258,13.929c0.261,4.643,0.773,9.285,0.773,14.187c0,4.644,0,9.285,0,13.671
			c0,4.643,0,9.285,0,13.929c1.033,0.772,2.063,0.516,2.58-0.258c0.516-0.774,1.289-1.807,1.807-2.579
			c1.547-2.838,2.836-5.675,4.385-8.513c4.388-7.995,9.027-15.733,12.642-23.987c2.578-5.675,5.416-11.091,8.254-16.767
			c0.771-1.548,1.547-2.837,2.317-4.127c0.519-0.772,1.55-1.289,2.322-1.289c1.289-0.259,2.578-0.259,3.869-0.259
			c4.385,0,8.771,0,13.154,0.259c4.897,0.259,9.801,0.773,14.701,1.289c0.258,0.774,0.771,1.29,1.03,1.807c0,0.258,0,0.516,0,0.772
			c-2.063,5.675-4.899,10.834-7.996,15.992c-5.416,8.512-10.573,17.281-15.731,25.793c-3.869,6.448-7.48,12.896-11.351,19.345
			c-1.03,1.549-1.289,3.097-0.26,4.901c2.322,4.645,4.387,9.027,6.965,13.412c1.549,2.58,2.838,5.159,4.388,7.738
			c2.577,4.899,4.897,9.544,7.479,14.443c2.578,4.9,5.416,9.801,8.254,14.702c0.519,1.031,1.031,2.322,1.547,3.355
			c2.064,4.127,4.388,7.994,6.449,12.123c0.773,1.547,1.807,3.096,2.578,4.898c0.258,0.772,0.258,1.547,0.516,2.321
			c-2.575,0.517-5.155,1.031-7.733,0.771c-4.127-0.516-8.254-0.771-12.381-1.291c-1.033,0-2.322,0-3.355,0.263
			c-2.578,0.258-5.158,0.258-7.994,0.517c-1.549-1.55-2.58-3.097-3.354-4.902c-1.81-4.127-3.611-8.252-5.418-12.379
			c-2.063-4.388-4.127-8.771-6.447-12.897c-2.838-5.416-5.934-10.574-8.771-15.991c-1.809-3.354-3.61-6.706-5.157-10.061
			c-0.775-1.548-1.81-2.578-3.611-2.32c-1.807,0-3.354,0-5.158,0c-0.26,0.772-0.26,1.548-0.518,2.063
			c-0.517,5.675-0.771,11.35-0.258,16.768c0,0.516,0,1.029,0,1.806c-0.259,4.644-0.259,9.285-0.519,14.187c0,1.289,0,2.838,0,4.127
			c0.26,3.096,0,6.189-0.258,9.285c-0.258,1.289-0.258,2.838-0.258,4.127c0,1.549,0,3.096-0.258,4.387
			c-0.261,2.063-1.031,2.578-2.839,2.836c-2.577,0.258-5.157,0.518-7.995,0.773c-1.808,0.26-3.354,0.26-4.9,1.031
			c-1.289,0.518-2.578,0.772-4.127,0.258c-1.289-0.516-2.836-0.516-4.127-0.258c-1.289,0.258-2.32,0-3.354-0.258
			c-1.03-0.259-1.807-1.031-2.063-2.064c-0.258-0.771-0.516-1.805-0.516-2.576c0-3.355,0-6.967,0-10.318
			c0-6.705,0.771-13.412,0.516-19.861c0-1.03,0-2.319,0-3.353c0-4.385,0.258-8.771,0.258-13.154
			c0.26-7.996,0.26-15.992,0.518-23.988c0.259-9.802,0.259-19.604,0.517-29.146c0.258-9.285,0-18.313-0.258-27.599
			c0-2.063-0.259-4.386-0.259-6.448c0-0.773,0-1.548,0-2.321c0-1.032,0.517-1.806,1.55-1.806c0.771-0.258,1.547-0.258,2.317-0.258
			c4.9,0,9.543-0.259,14.445-0.773c3.352-0.259,6.705,0,10.059,0C338.522,218.984,338.522,218.984,339.295,219.5z"/>
		<path fill="#260022" d="M457.428,336.601c0.519,0,1.031,0.258,1.549,0.258c13.154-0.258,26.054-0.258,39.205-0.516
			c2.063,0,4.386,0,6.447-0.258c1.549,0,2.838,0,4.387,0.771c0.773,2.063,0.519,4.387,0.519,6.449c0,1.03-0.26,2.321,0,3.354
			c0.258,3.867,0,7.736-0.775,11.605c-0.258,1.805-0.771,2.321-2.578,2.063c-6.188-0.521-12.639,0.258-18.83,0
			c-2.577-0.263-5.157-0.263-7.479,0c-7.225,0.517-14.443,0.258-21.666,0.258c-3.355,0-6.965,0.259-10.318-0.521
			c-5.674,0.521-11.348-0.516-16.766,1.033c-1.031,0.258-2.063-0.516-2.32-1.549c-0.258-0.516-0.258-1.031,0-1.805
			c0.773-4.127,0-7.996,0.258-12.123c0-3.098,0-5.934,0-9.027c0-2.322,0-4.898-0.771-7.223c-0.26-0.773-0.26-1.807-0.26-2.836
			c0-4.388,0-9.029,0.26-13.414c0-3.354,0.258-6.706,0-10.061c-0.26-2.837,0.258-5.933,0.516-9.026
			c0.259-8.771,0.517-17.539,0.773-26.053c0.258-5.157,0.258-10.574,0.516-15.732c0.258-6.706-0.516-13.412-0.771-19.86
			c-0.26-3.61,0-7.223,0-11.092c0-1.547,0.771-2.321,2.063-2.579c0.773-0.258,1.289-0.258,2.063-0.516c0.518,0,1.03,0,1.289,0
			c5.416,0.258,11.094,0.258,16.51,0.516c1.287,0,2.836,0,4.127-0.258c0.771,0,1.287,0,2.063,0c1.288,0.258,2.063,1.29,2.063,2.321
			c-0.773,10.06,0.516,20.118,0.258,30.178c0,4.644,0,9.286-0.516,14.187c-0.773,10.833-1.291,21.666-1.031,32.759
			c0.258,7.479,0,14.96-0.26,22.439c0,3.868-0.258,7.479-0.258,11.351C457.17,333.507,457.428,335.054,457.428,336.601"/>
		<path fill="none" stroke="#260022" stroke-width="0.278" stroke-miterlimit="10" d="M457.428,336.601
			c0.519,0,1.031,0.258,1.549,0.258c13.154-0.258,26.054-0.258,39.205-0.516c2.063,0,4.386,0,6.447-0.258
			c1.549,0,2.838,0,4.387,0.771c0.773,2.063,0.519,4.387,0.519,6.449c0,1.03-0.26,2.321,0,3.354c0.258,3.867,0,7.736-0.775,11.605
			c-0.258,1.805-0.771,2.321-2.578,2.063c-6.188-0.521-12.639,0.258-18.83,0c-2.577-0.263-5.157-0.263-7.479,0
			c-7.225,0.517-14.443,0.258-21.666,0.258c-3.355,0-6.965,0.259-10.318-0.521c-5.674,0.521-11.348-0.516-16.766,1.033
			c-1.031,0.258-2.063-0.516-2.32-1.549c-0.258-0.516-0.258-1.031,0-1.805c0.773-4.127,0-7.996,0.258-12.123
			c0-3.098,0-5.934,0-9.027c0-2.322,0-4.898-0.771-7.223c-0.26-0.773-0.26-1.807-0.26-2.836c0-4.388,0-9.029,0.26-13.414
			c0-3.354,0.258-6.706,0-10.061c-0.26-2.837,0.258-5.933,0.516-9.026c0.259-8.771,0.517-17.539,0.773-26.053
			c0.258-5.157,0.258-10.574,0.516-15.732c0.258-6.706-0.516-13.412-0.771-19.86c-0.26-3.61,0-7.223,0-11.092
			c0-1.547,0.771-2.321,2.063-2.579c0.773-0.258,1.289-0.258,2.063-0.516c0.518,0,1.03,0,1.289,0
			c5.416,0.258,11.094,0.258,16.51,0.516c1.287,0,2.836,0,4.127-0.258c0.771,0,1.287,0,2.063,0c1.288,0.258,2.063,1.29,2.063,2.321
			c-0.773,10.06,0.516,20.118,0.258,30.178c0,4.644,0,9.286-0.516,14.187c-0.773,10.833-1.291,21.666-1.031,32.759
			c0.258,7.479,0,14.96-0.26,22.439c0,3.868-0.258,7.479-0.258,11.351C457.17,333.507,457.428,335.054,457.428,336.601z"/>
		<path fill="#260022" d="M668.417,216.147c0.516,1.289,1.033,2.579,1.291,3.869c0.258,2.579,0.516,4.9,0.516,7.479
			c0,9.285,0.261,18.828,0,28.114c0,12.122-0.516,23.987-0.516,36.11c0,7.48,0,15.218,0,22.698c0,1.031,0.258,2.32,0.516,3.353
			c0.519,1.548,0.773,3.354,0.773,5.158c-0.258,5.416-0.773,11.093-1.031,16.509c-0.258,4.387-0.258,8.771-0.516,13.153
			c0,2.063,0,4.386,0,6.449c0,0.517-0.26,1.028-0.26,1.805c-0.773,0.259-1.289,0.259-2.063,0.517c-0.772,0.26-2.063,0-2.58,0.518
			c-1.547,1.291-3.352,1.033-5.158,1.033c-1.805,0-3.354,0-5.155,0.258c-1.808,0-3.355,0-5.158,0c-1.806,0-3.611,0-5.418,0
			c-0.773,0-1.289,0-2.063,0c-1.547-0.258-2.063-0.775-2.58-2.322c-1.028-2.838-0.771-5.674-0.771-8.77
			c0.258-6.967,0.771-13.672,0.516-20.637c0-4.384,0.26-9.025,0.519-13.412c0-6.188,0-12.122,0.258-18.313
			c0.26-8.254,0.774-16.508,1.033-24.762c0.258-8.254,0.258-16.25,0.516-24.504c0-6.706,0.258-13.412,0.258-19.86
			c0-2.838-0.258-5.417-0.258-8.254c0-1.29,0-2.837,0.258-4.127s1.031-2.063,2.32-2.063c1.549-0.258,3.096-0.258,4.385-0.258
			C654.489,215.889,661.196,215.115,668.417,216.147"/>
		<path fill="none" stroke="#260022" stroke-width="0.278" stroke-miterlimit="10" d="M668.417,216.147
			c0.516,1.289,1.033,2.579,1.291,3.869c0.258,2.579,0.516,4.9,0.516,7.479c0,9.285,0.261,18.828,0,28.114
			c0,12.122-0.516,23.987-0.516,36.11c0,7.48,0,15.218,0,22.698c0,1.031,0.258,2.32,0.516,3.353
			c0.519,1.548,0.773,3.354,0.773,5.158c-0.258,5.416-0.773,11.093-1.031,16.509c-0.258,4.387-0.258,8.771-0.516,13.153
			c0,2.063,0,4.386,0,6.449c0,0.517-0.26,1.028-0.26,1.805c-0.773,0.259-1.289,0.259-2.063,0.517c-0.772,0.26-2.063,0-2.58,0.518
			c-1.547,1.291-3.352,1.033-5.158,1.033c-1.805,0-3.354,0-5.155,0.258c-1.808,0-3.355,0-5.158,0c-1.806,0-3.611,0-5.418,0
			c-0.773,0-1.289,0-2.063,0c-1.547-0.258-2.063-0.775-2.58-2.322c-1.028-2.838-0.771-5.674-0.771-8.77
			c0.258-6.967,0.771-13.672,0.516-20.637c0-4.384,0.26-9.025,0.519-13.412c0-6.188,0-12.122,0.258-18.313
			c0.26-8.254,0.774-16.508,1.033-24.762c0.258-8.254,0.258-16.25,0.516-24.504c0-6.706,0.258-13.412,0.258-19.86
			c0-2.838-0.258-5.417-0.258-8.254c0-1.29,0-2.837,0.258-4.127s1.031-2.063,2.32-2.063c1.549-0.258,3.096-0.258,4.385-0.258
			C654.489,215.889,661.196,215.115,668.417,216.147z"/>
		<path fill="#260022" d="M588.715,272.377c0.519-1.548,0.258-3.097,0-4.645c-0.771-5.416-1.805-10.833-2.578-16.249
			c-0.516-2.58-1.807-4.9-3.354-6.965c-3.097-3.869-6.965-5.416-11.607-6.189c-3.608-0.517-6.963,0.258-9.543,3.096
			c-1.289,1.548-2.58,2.837-3.869,4.643c-5.155,7.48-7.735,15.733-9.024,24.504c0,0.773,0.258,1.289,0.258,2.321
			c1.031,0,1.805,0.258,2.838,0.258c3.611,0,7.223-0.258,10.832-0.516c2.322,0,4.645,0,6.965-0.258
			c5.676-0.774,11.092-0.774,16.769,0C587.426,272.377,587.942,272.377,588.715,272.377 M546.415,298.427
			c-1.031,2.837-1.031,5.417-0.773,8.254c0.773,5.933,2.58,11.607,5.158,17.022c2.58,5.418,6.449,10.062,11.607,13.153
			c4.385,2.58,9.285,3.61,14.188,3.098c0.519,0,1.289-0.26,1.808-0.26c3.868,1.031,7.479-0.258,10.834-1.805
			c3.352-1.55,6.188-3.354,9.284-5.677c2.318-1.547,4.127-3.611,5.416-5.934c1.289-2.063,3.609-1.806,4.644,0.26
			c0,0,0,0.258,0.258,0.258c1.031,3.096,2.58,5.933,4.387,8.513c1.808,2.321,2.839,4.899,3.869,7.737
			c-0.26,0.517-0.772,1.289-1.291,1.806c-3.354,2.58-6.188,5.676-10.061,7.737c-3.354,1.808-6.447,3.611-9.801,5.158
			c-3.869,1.808-7.996,2.063-11.865,3.097c-3.611,0.772-6.963,1.288-10.832,1.03c-2.838-0.258-5.418,0-8.254-0.258
			c-4.127-0.261-8.254-0.772-12.123-1.55c-4.385-0.771-7.996-3.096-11.607-5.674c-6.188-4.127-10.571-10.061-14.959-15.992
			c-4.643-6.188-7.223-13.41-8.512-20.894c-0.519-3.611-0.773-7.479-0.773-11.091c-0.26-5.159-0.518-10.317-0.518-15.734
			c0-2.837,0-5.675,0.258-8.512c0.519-7.222,1.549-14.444,3.099-21.666c1.288-5.417,3.096-10.833,5.416-15.734
			c2.577-5.416,5.418-10.575,9.545-14.96c0.771-0.772,1.286-1.806,2.063-2.579c1.807-2.063,3.867-3.61,6.447-4.643
			c2.322-1.032,4.385-2.321,6.449-3.611c2.577-1.548,4.897-3.095,8.254-3.354c2.578,0,5.155-1.031,7.735-1.031
			c2.578-0.258,5.416,0,8.255,0c3.096,0.258,6.188,0.773,9.284,1.29c3.354,0.516,6.189,1.547,9.027,3.353
			c3.869,2.321,7.738,4.901,11.35,7.738c1.808,1.289,3.354,3.095,4.644,4.9c3.096,4.385,5.16,8.77,6.707,13.929
			c1.805,6.19,2.838,12.381,3.869,18.571c0.258,1.805,0.258,3.609,0,5.674c-0.259,1.548-0.259,3.096,0,4.901
			c0.516,5.157,1.03,10.059,1.805,15.218c0,0.516,0,1.03,0,1.548c-0.258,2.063-1.031,3.095-2.836,3.353
			c-1.549,0.259-3.096,0.259-4.9,0.259c-9.026-0.517-17.799-0.773-26.824-0.259c-0.518,0-1.289,0-1.807,0
			c-5.676,0.774-11.604,0.774-17.279,2.063c-1.032,0.258-2.063,0.258-2.84,0.258c-5.416,0.258-10.834,0.774-16.25,1.032
			C547.448,298.17,546.932,298.427,546.415,298.427"/>
		<path fill="none" stroke="#260022" stroke-width="0.301" stroke-miterlimit="10" d="M588.715,272.377
			c0.519-1.548,0.258-3.097,0-4.645c-0.771-5.416-1.805-10.833-2.578-16.249c-0.516-2.58-1.807-4.9-3.354-6.965
			c-3.097-3.869-6.965-5.416-11.607-6.189c-3.608-0.517-6.963,0.258-9.543,3.096c-1.289,1.548-2.58,2.837-3.869,4.643
			c-5.155,7.48-7.735,15.733-9.024,24.504c0,0.773,0.258,1.289,0.258,2.321c1.031,0,1.805,0.258,2.838,0.258
			c3.611,0,7.223-0.258,10.832-0.516c2.322,0,4.645,0,6.965-0.258c5.676-0.774,11.092-0.774,16.769,0
			C587.426,272.377,587.942,272.377,588.715,272.377z M546.415,298.427c-1.031,2.837-1.031,5.417-0.773,8.254
			c0.773,5.933,2.58,11.607,5.158,17.022c2.58,5.418,6.449,10.062,11.607,13.153c4.385,2.58,9.285,3.61,14.188,3.098
			c0.519,0,1.289-0.26,1.808-0.26c3.868,1.031,7.479-0.258,10.834-1.805c3.352-1.55,6.188-3.354,9.284-5.677
			c2.318-1.547,4.127-3.611,5.416-5.934c1.289-2.063,3.609-1.806,4.644,0.26c0,0,0,0.258,0.258,0.258
			c1.031,3.096,2.58,5.933,4.387,8.513c1.808,2.321,2.839,4.899,3.869,7.737c-0.26,0.517-0.772,1.289-1.291,1.806
			c-3.354,2.58-6.188,5.676-10.061,7.737c-3.354,1.808-6.447,3.611-9.801,5.158c-3.869,1.808-7.996,2.063-11.865,3.097
			c-3.611,0.772-6.963,1.288-10.832,1.03c-2.838-0.258-5.418,0-8.254-0.258c-4.127-0.261-8.254-0.772-12.123-1.55
			c-4.385-0.771-7.996-3.096-11.607-5.674c-6.188-4.127-10.571-10.061-14.959-15.992c-4.643-6.188-7.223-13.41-8.512-20.894
			c-0.519-3.611-0.773-7.479-0.773-11.091c-0.26-5.159-0.518-10.317-0.518-15.734c0-2.837,0-5.675,0.258-8.512
			c0.519-7.222,1.549-14.444,3.099-21.666c1.288-5.417,3.096-10.833,5.416-15.734c2.577-5.416,5.418-10.575,9.545-14.96
			c0.771-0.772,1.286-1.806,2.063-2.579c1.807-2.063,3.867-3.61,6.447-4.643c2.322-1.032,4.385-2.321,6.449-3.611
			c2.577-1.548,4.897-3.095,8.254-3.354c2.578,0,5.155-1.031,7.735-1.031c2.578-0.258,5.416,0,8.255,0
			c3.096,0.258,6.188,0.773,9.284,1.29c3.354,0.516,6.189,1.547,9.027,3.353c3.869,2.321,7.738,4.901,11.35,7.738
			c1.808,1.289,3.354,3.095,4.644,4.9c3.096,4.385,5.16,8.77,6.707,13.929c1.805,6.19,2.838,12.381,3.869,18.571
			c0.258,1.805,0.258,3.609,0,5.674c-0.259,1.548-0.259,3.096,0,4.901c0.516,5.157,1.03,10.059,1.805,15.218c0,0.516,0,1.03,0,1.548
			c-0.258,2.063-1.031,3.095-2.836,3.353c-1.549,0.259-3.096,0.259-4.9,0.259c-9.026-0.517-17.799-0.773-26.824-0.259
			c-0.518,0-1.289,0-1.807,0c-5.676,0.774-11.604,0.774-17.279,2.063c-1.032,0.258-2.063,0.258-2.84,0.258
			c-5.416,0.258-10.834,0.774-16.25,1.032C547.448,298.17,546.932,298.427,546.415,298.427z"/>
		<path fill="#260022" d="M585.104,399.278c-0.259,0.26-0.259,0.26-0.517,0.518c0.258,0,0.258,0.258,0.517,0.258
			c0.26,0,0.26-0.258,0.518-0.516C585.622,399.538,585.364,399.278,585.104,399.278 M607.545,398.763
			c0.516,2.322,0.258,4.646,0,6.965c-0.258,3.354-0.516,6.963-0.516,10.316c-0.261,11.605-0.519,23.473-0.773,35.078
			c0,9.027,0.258,18.057,1.289,27.082c0.516,5.16,2.838,9.029,6.705,12.383c0.518,0.516,1.549,1.031,2.322,1.289
			c0.516,0.258,1.289,0.258,2.063,0.258c4.646,1.291,8.771-0.258,12.642-3.096c2.063-1.547,3.352-3.354,3.866-5.935
			c0.519-2.577,0.773-5.157,0.773-7.735c0-8.254,0.258-16.25,0.258-24.504c0-4.388-0.258-9.027-0.258-13.412
			c0-6.965-0.258-13.928,0.516-20.895c0.261-3.869,0.261-7.479,0-11.349c0-1.81,0.261-3.354,1.031-5.16
			c0.519-1.288,1.031-1.547,2.322-1.547c1.547,0,3.094,0.259,4.385,0.259c2.063,0,4.385-0.259,6.447-0.773
			c2.062-0.516,4.385-0.516,6.449-0.516c1.805,0,2.577,0.772,2.577,2.577c0,1.033,0,2.063,0.259,3.097
			c0.258,7.996,0.516,15.733,0.771,23.729c0.262,4.643,0.262,9.285,0.262,13.67c0,4.127-0.52,8.254-0.52,12.381
			c-0.258,3.869-0.516,7.738-0.516,11.605c-0.259,5.676-1.031,11.35-2.32,17.022c-0.771,3.097-1.291,6.447-2.838,9.285
			c-3.354,6.449-7.738,12.123-14.443,15.732c-1.549,0.772-3.096,1.807-4.643,2.838c-2.58,1.549-5.16,2.58-7.996,2.58
			c-3.096,0-6.189,0.516-9.287,0c-5.416-0.773-10.059-2.838-14.701-5.676c-2.32-1.55-4.643-3.097-6.965-4.386
			c-1.289-0.772-2.578-1.807-3.354-3.354l-0.259-0.258c-5.418-5.416-3.354-4.127-6.188-11.351c-3.611-9.287-4.385-18.83-4.9-28.631
			c-0.258-6.707-0.771-13.412-0.771-19.858c0-5.16-0.519-10.062,0.258-15.22c0.516-3.354,0.258-6.965,0.258-10.318
			c0.258-3.608,0.518-7.223,0.773-11.092c0-1.029,0.258-1.805,0.516-2.836s0.772-1.549,1.807-1.807
			c1.55-0.258,3.097-0.518,4.388-0.518c5.155,0.26,10.313,0.518,15.475,0.772C605.739,398.249,606.514,398.507,607.545,398.763"/>
		<path fill="none" stroke="#260022" stroke-width="0.278" stroke-miterlimit="10" d="M585.104,399.278
			c-0.259,0.26-0.259,0.26-0.517,0.518c0.258,0,0.258,0.258,0.517,0.258c0.26,0,0.26-0.258,0.518-0.516
			C585.622,399.538,585.364,399.278,585.104,399.278z M607.545,398.763c0.516,2.322,0.258,4.646,0,6.965
			c-0.258,3.354-0.516,6.963-0.516,10.316c-0.261,11.605-0.519,23.473-0.773,35.078c0,9.027,0.258,18.057,1.289,27.082
			c0.516,5.16,2.838,9.029,6.705,12.383c0.518,0.516,1.549,1.031,2.322,1.289c0.516,0.258,1.289,0.258,2.063,0.258
			c4.646,1.291,8.771-0.258,12.642-3.096c2.063-1.547,3.352-3.354,3.866-5.935c0.519-2.577,0.773-5.157,0.773-7.735
			c0-8.254,0.258-16.25,0.258-24.504c0-4.388-0.258-9.027-0.258-13.412c0-6.965-0.258-13.928,0.516-20.895
			c0.261-3.869,0.261-7.479,0-11.349c0-1.81,0.261-3.354,1.031-5.16c0.519-1.288,1.031-1.547,2.322-1.547
			c1.547,0,3.094,0.259,4.385,0.259c2.063,0,4.385-0.259,6.447-0.773c2.062-0.516,4.385-0.516,6.449-0.516
			c1.805,0,2.577,0.772,2.577,2.577c0,1.033,0,2.063,0.259,3.097c0.258,7.996,0.516,15.733,0.771,23.729
			c0.262,4.643,0.262,9.285,0.262,13.67c0,4.127-0.52,8.254-0.52,12.381c-0.258,3.869-0.516,7.738-0.516,11.605
			c-0.259,5.676-1.031,11.35-2.32,17.022c-0.771,3.097-1.291,6.447-2.838,9.285c-3.354,6.449-7.738,12.123-14.443,15.732
			c-1.549,0.772-3.096,1.807-4.643,2.838c-2.58,1.549-5.16,2.58-7.996,2.58c-3.096,0-6.189,0.516-9.287,0
			c-5.416-0.773-10.059-2.838-14.701-5.676c-2.32-1.55-4.643-3.097-6.965-4.386c-1.289-0.772-2.578-1.807-3.354-3.354l-0.259-0.258
			c-5.418-5.416-3.354-4.127-6.188-11.351c-3.611-9.287-4.385-18.83-4.9-28.631c-0.258-6.707-0.771-13.412-0.771-19.858
			c0-5.16-0.519-10.062,0.258-15.22c0.516-3.354,0.258-6.965,0.258-10.318c0.258-3.608,0.518-7.223,0.773-11.092
			c0-1.029,0.258-1.805,0.516-2.836s0.772-1.549,1.807-1.807c1.55-0.258,3.097-0.518,4.388-0.518
			c5.155,0.26,10.313,0.518,15.475,0.772C605.739,398.249,606.514,398.507,607.545,398.763z"/>
		<path fill="#260022" d="M332.59,490.071c0.773,0.258,1.031,0.258,1.547,0.258c3.869,0,7.48-0.258,11.353,0
			c5.932,0,11.604,0.26,17.537,0.26c1.807,0,3.354-0.26,5.157-0.518c3.354-0.258,4.646,1.032,4.646,4.385c0,0.518,0,1.033,0,1.291
			c-0.773,4.385-0.519,8.77,0.516,12.895c0.258,1.291,0,2.58-0.771,3.869c-0.773,0-1.808,0-2.578,0c-5.676,0-11.353,0-16.769,0
			c-1.03,0-2.063,0-3.096,0c-6.449-0.258-12.896-0.516-19.346-0.772c-4.127-0.258-8.254-0.771-12.381-1.289
			c-2.578-0.258-4.9-0.517-7.48,0c-2.063,0.26-2.578-0.258-3.094-2.32c-0.258-0.773-0.258-1.289-0.258-2.063
			c0.258-3.869,0.258-7.738,0.516-11.605c0-1.031,0.258-2.322,0.258-3.354c0.26-3.355,0.519-6.968,0.519-10.318
			c0-2.838,0.258-5.416,0.258-8.254c0.258-6.189,0.258-12.123,0.258-18.313c0-1.03,0-2.063,0-3.096
			c0.518-7.223,0.773-14.188,0.773-21.408c0-8.254-0.259-16.25-0.259-24.504c0-1.805,0-3.354,0.259-5.158
			c0.258-1.804,0.771-2.322,2.579-2.58c4.386,0,8.771-1.028,13.412,0c1.289,0.258,2.838,0,4.386,0c1.549,0,2.063,0.258,2.321,1.81
			c0.259,1.805,0.259,3.608,0.517,5.416c0.516,6.965,0.771,13.67,1.03,20.635c0.259,5.158,0.259,10.062,0.259,15.219
			c0,6.188-0.259,12.121-0.517,18.313c-0.26,5.934-0.772,11.606-1.03,17.541c-0.259,3.867-0.259,7.479-0.259,11.35
			C332.59,488.782,332.59,489.298,332.59,490.071"/>
		<path fill="none" stroke="#260022" stroke-width="0.278" stroke-miterlimit="10" d="M332.59,490.071
			c0.773,0.258,1.031,0.258,1.547,0.258c3.869,0,7.48-0.258,11.353,0c5.932,0,11.604,0.26,17.537,0.26
			c1.807,0,3.354-0.26,5.157-0.518c3.354-0.258,4.646,1.032,4.646,4.385c0,0.518,0,1.033,0,1.291
			c-0.773,4.385-0.519,8.77,0.516,12.895c0.258,1.291,0,2.58-0.771,3.869c-0.773,0-1.808,0-2.578,0c-5.676,0-11.353,0-16.769,0
			c-1.03,0-2.063,0-3.096,0c-6.449-0.258-12.896-0.516-19.346-0.772c-4.127-0.258-8.254-0.771-12.381-1.289
			c-2.578-0.258-4.9-0.517-7.48,0c-2.063,0.26-2.578-0.258-3.094-2.32c-0.258-0.773-0.258-1.289-0.258-2.063
			c0.258-3.869,0.258-7.738,0.516-11.605c0-1.031,0.258-2.322,0.258-3.354c0.26-3.355,0.519-6.968,0.519-10.318
			c0-2.838,0.258-5.416,0.258-8.254c0.258-6.189,0.258-12.123,0.258-18.313c0-1.03,0-2.063,0-3.096
			c0.518-7.223,0.773-14.188,0.773-21.408c0-8.254-0.259-16.25-0.259-24.504c0-1.805,0-3.354,0.259-5.158
			c0.258-1.804,0.771-2.322,2.579-2.58c4.386,0,8.771-1.028,13.412,0c1.289,0.258,2.838,0,4.386,0c1.549,0,2.063,0.258,2.321,1.81
			c0.259,1.805,0.259,3.608,0.517,5.416c0.516,6.965,0.771,13.67,1.03,20.635c0.259,5.158,0.259,10.062,0.259,15.219
			c0,6.188-0.259,12.121-0.517,18.313c-0.26,5.934-0.772,11.606-1.03,17.541c-0.259,3.867-0.259,7.479-0.259,11.35
			C332.59,488.782,332.59,489.298,332.59,490.071z"/>
		<path fill="#260022" d="M770.042,509.931c-2.578,0-4.643,0-6.705,0c-1.031,0-2.064-0.258-3.096,0
			c-2.32,0.773-4.646,1.033-6.965,1.291c-0.773,0-1.289,0.259-2.063,0.259c-2.838-0.259-4.127-1.55-4.385-4.386
			c0-0.772,0-1.549,0-2.319c0.258-3.611,0.516-6.966,1.031-10.576c0-0.517,0-1.031,0-1.289c0-8.771,0-17.797,0-26.566
			c0-8.512,0.258-17.021,0.258-25.535c0-3.866,0-7.479,0-11.35c0-2.838,0-5.416,0-8.254c0-0.772,0-1.289-0.258-2.063
			c0-1.031-0.773-1.805-1.808-1.805c-1.807-0.26-3.608-0.26-5.418-0.26c-2.063,0-3.869-0.26-5.932-0.26c-1.289,0-2.58,0-3.869,0
			c-2.064,0-4.127,0.26-6.189,0.26c-1.807,0-2.838-0.773-3.096-2.578c0-0.518,0-1.031,0-1.289c0.258-4.387,0.773-8.771,1.289-13.156
			c0.773-0.773,1.809-1.547,3.096-1.031c2.063,0.519,4.127,0.258,6.189,0c7.738-1.03,15.477-1.289,23.473-1.03
			c5.416,0,10.834,0,16.25,0.26c3.354,0.258,6.965,0,10.316-0.772c0.516,0,1.033-0.259,1.807-0.259
			c3.611,0,7.223,0.259,11.092,1.031c0.258,0.771,0.258,1.289,0.258,2.063c0,4.645,0,9.285-0.258,14.188
			c0,0.773-0.26,1.807-0.518,2.58c-2.578,0.516-4.9,0.771-7.223,0.516c-3.354-0.258-6.705,0-10.062,0c-2.063,0-4.385,0-6.445,0.258
			c-0.774,1.808-0.774,3.355-0.774,4.9c0,2.32,0,4.646,0.258,6.965c0.775,4.385,0,8.513-0.258,12.64
			c-0.258,3.61-0.517,7.223-0.517,11.092c0,3.096-0.26,5.934-0.26,9.026c0,1.031-0.258,2.32,0,3.354
			c0.773,4.387,0.519,9.027,0.26,13.412c0,3.096-0.26,6.449-0.26,9.543c0,1.291,0,2.58-0.258,3.869
			c-0.258,3.096-0.258,5.934,0.516,9.026c0.519,2.58,0.261,5.158,0.519,7.736C770.559,509.157,770.301,509.415,770.042,509.931"/>
		<path fill="none" stroke="#260022" stroke-width="0.278" stroke-miterlimit="10" d="M770.042,509.931c-2.578,0-4.643,0-6.705,0
			c-1.031,0-2.064-0.258-3.096,0c-2.32,0.773-4.646,1.033-6.965,1.291c-0.773,0-1.289,0.259-2.063,0.259
			c-2.838-0.259-4.127-1.55-4.385-4.386c0-0.772,0-1.549,0-2.319c0.258-3.611,0.516-6.966,1.031-10.576c0-0.517,0-1.031,0-1.289
			c0-8.771,0-17.797,0-26.566c0-8.512,0.258-17.021,0.258-25.535c0-3.866,0-7.479,0-11.35c0-2.838,0-5.416,0-8.254
			c0-0.772,0-1.289-0.258-2.063c0-1.031-0.773-1.805-1.808-1.805c-1.807-0.26-3.608-0.26-5.418-0.26c-2.063,0-3.869-0.26-5.932-0.26
			c-1.289,0-2.58,0-3.869,0c-2.064,0-4.127,0.26-6.189,0.26c-1.807,0-2.838-0.773-3.096-2.578c0-0.518,0-1.031,0-1.289
			c0.258-4.387,0.773-8.771,1.289-13.156c0.773-0.773,1.809-1.547,3.096-1.031c2.063,0.519,4.127,0.258,6.189,0
			c7.738-1.03,15.477-1.289,23.473-1.03c5.416,0,10.834,0,16.25,0.26c3.354,0.258,6.965,0,10.316-0.772
			c0.516,0,1.033-0.259,1.807-0.259c3.611,0,7.223,0.259,11.092,1.031c0.258,0.771,0.258,1.289,0.258,2.063
			c0,4.645,0,9.285-0.258,14.188c0,0.773-0.26,1.807-0.518,2.58c-2.578,0.516-4.9,0.771-7.223,0.516c-3.354-0.258-6.705,0-10.062,0
			c-2.063,0-4.385,0-6.445,0.258c-0.774,1.808-0.774,3.355-0.774,4.9c0,2.32,0,4.646,0.258,6.965c0.775,4.385,0,8.513-0.258,12.64
			c-0.258,3.61-0.517,7.223-0.517,11.092c0,3.096-0.26,5.934-0.26,9.026c0,1.031-0.258,2.32,0,3.354
			c0.773,4.387,0.519,9.027,0.26,13.412c0,3.096-0.26,6.449-0.26,9.543c0,1.291,0,2.58-0.258,3.869
			c-0.258,3.096-0.258,5.934,0.516,9.026c0.519,2.58,0.261,5.158,0.519,7.736C770.559,509.157,770.301,509.415,770.042,509.931z"/>
		<path fill="#260022" d="M491.475,475.886c-0.258-3.869-0.516-7.223-0.771-10.576c0-0.258,0-0.516,0-0.771
			c0-0.258,0-0.773-0.258-1.031c-0.519-2.58-1.031-3.096-3.355-3.354c-1.031,0-2.063,0-3.094,0c-3.355,0-6.707,1.028-9.803,1.289
			c-2.063,0.258-3.611,1.03-5.158,2.319s-3.096,3.097-4.127,4.9c-3.096,5.158-4.127,10.574-4.127,16.508
			c0.258,4.646,2.838,8.512,8.512,8.771c3.869,0.258,7.223-0.775,10.576-2.322c3.352-1.547,5.674-4.127,7.994-6.705
			C491.733,481.044,491.733,481.044,491.475,475.886 M520.106,508.901c-1.031,2.063-2.32,2.577-4.127,2.836
			c-2.32,0-4.646,0.26-6.707,0.518c-3.867,0.258-7.994,0.519-11.863,0.519c-0.26,0-0.773,0-1.033,0c-2.32,0-3.094-0.519-3.867-2.841
			c-0.258-1.547-0.518-3.094-0.774-4.897c-0.771,0.258-1.287,0.516-1.806,0.772c-3.096,2.32-6.188,4.386-9.801,5.933
			c-3.611,1.549-7.479,2.58-11.352,3.354c-1.547,0.258-3.354,0.258-4.898,0.258c-3.869-0.258-7.479-1.289-11.092-2.577
			c-6.189-2.578-11.09-6.705-14.188-12.382c-1.807-3.096-2.838-6.965-3.608-10.315c-0.519-2.838-0.519-5.676-0.519-8.515
			c0.259-4.127,1.031-7.993,1.808-12.12c1.028-5.416,4.127-9.543,7.479-13.673c2.838-3.096,5.935-5.674,9.803-7.223
			c3.097-1.289,6.189-2.063,9.543-3.096c1.808-0.517,3.611-1.031,5.675-1.289c4.899-0.773,9.805-1.547,14.963-1.289
			c1.805,0,3.608,0,5.416,0c1.028,0,1.549-0.519,1.807-1.549c0-0.517,0.258-1.289,0.258-1.808
			c0.259-5.674-0.258-11.348-1.549-16.766c-1.031-4.9-4.385-7.736-9.285-8.514c-1.547-0.258-2.838-0.258-4.385-0.258
			c-2.58-0.259-4.9,0.258-7.223,1.809c-2.064,1.547-3.869,3.609-4.646,6.188c-0.516,1.808-1.031,3.611-1.289,5.677
			c-0.258,1.547-0.258,2.838-1.028,4.127c-1.291,0.518-2.841,0.518-4.127,0.518c-4.9-0.773-9.548,0-14.189,0.258
			c-1.031,0-1.805,0-2.578,0.258c-1.291-0.516-1.549-1.549-1.807-2.319c-0.258-2.58-0.773-5.418,0.258-7.996
			c2.063-5.158,3.869-10.316,6.965-14.959c1.289-1.809,2.838-3.611,4.646-4.9c2.838-2.064,6.188-4.127,9.282-5.934
			c3.355-1.549,6.968-2.578,10.576-2.84c2.32-0.258,4.646-0.258,7.226-0.258c3.094,0,5.932,0.258,8.77,1.291
			c1.289,0.518,2.836,0.772,4.127,1.03c5.932,1.289,10.316,4.644,13.928,9.285c0.519,0.517,0.773,1.289,1.289,1.808
			c2.064,2.063,3.355,4.385,4.646,6.705c1.549,2.579,2.58,5.157,3.354,7.995c1.031,4.9,2.064,9.803,2.322,14.961
			c0,2.578,0.516,5.158,0.516,7.736c0,3.611,0,7.479,0,11.092c-0.258,6.707-0.258,13.412-0.516,20.119c0,0.258,0,0.773,0,1.031
			c-0.775,7.479-0.26,14.701,0,22.182c0,1.807,0.516,3.869,0.771,5.676C517.268,505.548,518.559,507.353,520.106,508.901"/>
		<path fill="none" stroke="#260022" stroke-width="0.29" stroke-miterlimit="10" d="M491.475,475.886
			c-0.258-3.869-0.516-7.223-0.771-10.576c0-0.258,0-0.516,0-0.771c0-0.258,0-0.773-0.258-1.031
			c-0.519-2.58-1.031-3.096-3.355-3.354c-1.031,0-2.063,0-3.094,0c-3.355,0-6.707,1.028-9.803,1.289
			c-2.063,0.258-3.611,1.03-5.158,2.319s-3.096,3.097-4.127,4.9c-3.096,5.158-4.127,10.574-4.127,16.508
			c0.258,4.646,2.838,8.512,8.512,8.771c3.869,0.258,7.223-0.775,10.576-2.322c3.352-1.547,5.674-4.127,7.994-6.705
			C491.733,481.044,491.733,481.044,491.475,475.886z M520.106,508.901c-1.031,2.063-2.32,2.577-4.127,2.836
			c-2.32,0-4.646,0.26-6.707,0.518c-3.867,0.258-7.994,0.519-11.863,0.519c-0.26,0-0.773,0-1.033,0c-2.32,0-3.094-0.519-3.867-2.841
			c-0.258-1.547-0.518-3.094-0.774-4.897c-0.771,0.258-1.287,0.516-1.806,0.772c-3.096,2.32-6.188,4.386-9.801,5.933
			c-3.611,1.549-7.479,2.58-11.352,3.354c-1.547,0.258-3.354,0.258-4.898,0.258c-3.869-0.258-7.479-1.289-11.092-2.577
			c-6.189-2.578-11.09-6.705-14.188-12.382c-1.807-3.096-2.838-6.965-3.608-10.315c-0.519-2.838-0.519-5.676-0.519-8.515
			c0.259-4.127,1.031-7.993,1.808-12.12c1.028-5.416,4.127-9.543,7.479-13.673c2.838-3.096,5.935-5.674,9.803-7.223
			c3.097-1.289,6.189-2.063,9.543-3.096c1.808-0.517,3.611-1.031,5.675-1.289c4.899-0.773,9.805-1.547,14.963-1.289
			c1.805,0,3.608,0,5.416,0c1.028,0,1.549-0.519,1.807-1.549c0-0.517,0.258-1.289,0.258-1.808
			c0.259-5.674-0.258-11.348-1.549-16.766c-1.031-4.9-4.385-7.736-9.285-8.514c-1.547-0.258-2.838-0.258-4.385-0.258
			c-2.58-0.259-4.9,0.258-7.223,1.809c-2.064,1.547-3.869,3.609-4.646,6.188c-0.516,1.808-1.031,3.611-1.289,5.677
			c-0.258,1.547-0.258,2.838-1.028,4.127c-1.291,0.518-2.841,0.518-4.127,0.518c-4.9-0.773-9.548,0-14.189,0.258
			c-1.031,0-1.805,0-2.578,0.258c-1.291-0.516-1.549-1.549-1.807-2.319c-0.258-2.58-0.773-5.418,0.258-7.996
			c2.063-5.158,3.869-10.316,6.965-14.959c1.289-1.809,2.838-3.611,4.646-4.9c2.838-2.064,6.188-4.127,9.282-5.934
			c3.355-1.549,6.968-2.578,10.576-2.84c2.32-0.258,4.646-0.258,7.226-0.258c3.094,0,5.932,0.258,8.77,1.291
			c1.289,0.518,2.836,0.772,4.127,1.03c5.932,1.289,10.316,4.644,13.928,9.285c0.519,0.517,0.773,1.289,1.289,1.808
			c2.064,2.063,3.355,4.385,4.646,6.705c1.549,2.579,2.58,5.157,3.354,7.995c1.031,4.9,2.064,9.803,2.322,14.961
			c0,2.578,0.516,5.158,0.516,7.736c0,3.611,0,7.479,0,11.092c-0.258,6.707-0.258,13.412-0.516,20.119c0,0.258,0,0.773,0,1.031
			c-0.775,7.479-0.26,14.701,0,22.182c0,1.807,0.516,3.869,0.771,5.676C517.268,505.548,518.559,507.353,520.106,508.901z"/>
		<path fill="#260022" d="M470.583,567.194c-0.258-1.033-0.516-1.808-0.773-2.839c-0.257-1.03-0.516-2.063-1.028-2.838
			c-0.773-1.289-1.808-2.063-3.355-2.319c-4.897-0.519-8.254,2.836-7.479,7.735c0.258,2.064,2.063,3.354,4.127,4.388
			c1.807,0.771,3.869,1.547,5.676,2.319c2.578,1.031,5.158,2.063,7.479,3.609c4.127,3.096,6.967,6.707,6.706,12.123
			c0,1.031,0,1.807,0,2.836c0,5.16-2.063,9.029-6.446,11.607c-1.808,1.03-3.354,2.063-5.158,2.838c-2.322,1.03-4.9,1.547-7.48,0.772
			c-2.063-0.518-4.385-1.033-6.446-1.549c-4.646-1.289-8.256-3.611-10.832-7.738c-1.81-3.094-2.064-6.188-1.289-9.801
			c3.352-0.518,6.705-0.772,9.801-0.772c0.773,0,1.289,0.518,1.547,1.291c0.258,0.771,0.519,1.547,0.773,2.319
			c0.772,2.063,2.063,3.869,3.867,5.158c2.321,1.805,4.645,1.289,7.225,0.516c1.031-0.258,1.289-1.288,1.547-2.063
			c0.519-3.096,0.519-5.932-2.063-8.254c-1.55-1.289-3.097-2.578-4.646-3.354c-2.063-1.289-4.385-2.063-6.447-3.096
			c-1.805-1.031-3.608-2.063-5.416-3.096c-2.321-1.289-3.608-3.609-4.899-5.674c-0.519-0.773-0.773-2.064-0.519-3.099
			c0-3.096,0.519-5.934,1.81-8.77c2.578-6.449,7.479-9.545,14.186-10.316c3.869-0.518,7.738,0.258,11.607,1.289
			c1.028,0.258,1.805,1.031,2.578,1.547c1.549,1.291,3.096,2.838,4.387,4.387c2.318,2.578,3.094,5.933,2.578,9.285
			c0,0.771-0.519,1.289-1.289,1.289C477.29,566.935,473.936,567.194,470.583,567.194"/>
		<path fill="none" stroke="#260022" stroke-width="0.278" stroke-miterlimit="10" d="M470.583,567.194
			c-0.258-1.033-0.516-1.808-0.773-2.839c-0.257-1.03-0.516-2.063-1.028-2.838c-0.773-1.289-1.808-2.063-3.355-2.319
			c-4.897-0.519-8.254,2.836-7.479,7.735c0.258,2.064,2.063,3.354,4.127,4.388c1.807,0.771,3.869,1.547,5.676,2.319
			c2.578,1.031,5.158,2.063,7.479,3.609c4.127,3.096,6.967,6.707,6.706,12.123c0,1.031,0,1.807,0,2.836
			c0,5.16-2.063,9.029-6.446,11.607c-1.808,1.03-3.354,2.063-5.158,2.838c-2.322,1.03-4.9,1.547-7.48,0.772
			c-2.063-0.518-4.385-1.033-6.446-1.549c-4.646-1.289-8.256-3.611-10.832-7.738c-1.81-3.094-2.064-6.188-1.289-9.801
			c3.352-0.518,6.705-0.772,9.801-0.772c0.773,0,1.289,0.518,1.547,1.291c0.258,0.771,0.519,1.547,0.773,2.319
			c0.772,2.063,2.063,3.869,3.867,5.158c2.321,1.805,4.645,1.289,7.225,0.516c1.031-0.258,1.289-1.288,1.547-2.063
			c0.519-3.096,0.519-5.932-2.063-8.254c-1.55-1.289-3.097-2.578-4.646-3.354c-2.063-1.289-4.385-2.063-6.447-3.096
			c-1.805-1.031-3.608-2.063-5.416-3.096c-2.321-1.289-3.608-3.609-4.899-5.674c-0.519-0.773-0.773-2.064-0.519-3.099
			c0-3.096,0.519-5.934,1.81-8.77c2.578-6.449,7.479-9.545,14.186-10.316c3.869-0.518,7.738,0.258,11.607,1.289
			c1.028,0.258,1.805,1.031,2.578,1.547c1.549,1.291,3.096,2.838,4.387,4.387c2.318,2.578,3.094,5.933,2.578,9.285
			c0,0.771-0.519,1.289-1.289,1.289C477.29,566.935,473.936,567.194,470.583,567.194z"/>
		<path fill="#260022" d="M640.561,587.827c1.808-4.646,2.578-9.027,3.611-13.154c1.289-4.127,2.063-8.512,3.094-12.639
			c1.033-4.127,2.064-8.514,2.839-12.642c4.387-1.028,8.256-0.516,11.864,1.808c-0.516,3.098-1.291,6.188-2.063,9.287
			c-2.322,7.479-4.9,14.959-7.226,22.694c-1.028,3.355-1.805,6.707-2.578,10.318c-0.518,2.578-0.772,5.158-1.549,7.736
			c0,0.26-0.258,0.772-0.258,1.031c-1.031,3.096-1.807,3.61-4.9,3.868c-2.577,0-5.155,0-7.993,0c-1.289,0-2.58-0.516-3.099-1.807
			c-0.771-1.807-1.805-3.354-2.317-5.416c-1.033-3.611-1.81-7.223-2.58-10.574c-0.773-2.838-1.547-5.418-2.064-8.254
			c-1.029-5.934-2.836-11.606-4.385-17.281c-0.771-3.096-1.805-6.188-2.32-9.286c-0.771-3.609,0-4.128,3.869-3.867
			c1.031,0,2.063,0,3.096,0c1.031,0,1.808,0,2.839,0c2.838,0.258,3.354,0.518,4.127,3.354c0.516,1.805,0.771,3.869,1.286,5.674
			c1.033,6.189,2.064,12.642,3.869,18.83c0.775,2.578,1.291,5.416,1.81,7.994C639.788,585.765,640.045,586.538,640.561,587.827"/>
		<path fill="none" stroke="#260022" stroke-width="0.278" stroke-miterlimit="10" d="M640.561,587.827
			c1.808-4.646,2.578-9.027,3.611-13.154c1.289-4.127,2.063-8.512,3.094-12.639c1.033-4.127,2.064-8.514,2.839-12.642
			c4.387-1.028,8.256-0.516,11.864,1.808c-0.516,3.098-1.291,6.188-2.063,9.287c-2.322,7.479-4.9,14.959-7.226,22.694
			c-1.028,3.355-1.805,6.707-2.578,10.318c-0.518,2.578-0.772,5.158-1.549,7.736c0,0.26-0.258,0.772-0.258,1.031
			c-1.031,3.096-1.807,3.61-4.9,3.868c-2.577,0-5.155,0-7.993,0c-1.289,0-2.58-0.516-3.099-1.807
			c-0.771-1.807-1.805-3.354-2.317-5.416c-1.033-3.611-1.81-7.223-2.58-10.574c-0.773-2.838-1.547-5.418-2.064-8.254
			c-1.029-5.934-2.836-11.606-4.385-17.281c-0.771-3.096-1.805-6.188-2.32-9.286c-0.771-3.609,0-4.128,3.869-3.867
			c1.031,0,2.063,0,3.096,0c1.031,0,1.808,0,2.839,0c2.838,0.258,3.354,0.518,4.127,3.354c0.516,1.805,0.771,3.869,1.286,5.674
			c1.033,6.189,2.064,12.642,3.869,18.83c0.775,2.578,1.291,5.416,1.81,7.994C639.788,585.765,640.045,586.538,640.561,587.827z"/>
		<path fill="#260022" d="M322.788,561.003c-0.258,1.031-0.258,1.549-0.258,2.32c0,2.58,0.258,5.158,0.516,7.479
			c0,1.291,0.775,1.808,2.063,1.808c2.321,0,4.899-0.259,7.225-0.259c2.063,0,3.869-0.258,5.932,0
			c2.322,0.259,3.099,1.55,3.099,3.869c0,1.547-0.261,3.097-0.261,4.898c0,1.291-1.03,2.322-2.319,2.58
			c-1.549,0.26-3.097,0.518-4.9,0.518c-2.836,0.258-5.416,0.517-8.254,1.031c-0.772,0-1.547,0.516-2.32,0.773
			c-0.516,5.932,0.259,11.862-0.258,17.797c-0.772,0.258-1.549,0.771-2.063,0.516c-2.578,0-5.156,0.258-7.479-0.516
			c-0.518-0.261-1.289,0-2.32-0.261c-0.258-0.772-0.772-1.289-0.772-2.063c-0.258-0.773-0.258-1.807,0-2.838
			c0.772-4.9,0.518-10.062,0.518-15.219c0-4.386,0.259-8.771,0.517-13.154c0-0.771,0-1.547,0-2.32
			c-0.258-5.158-0.517-10.315-1.029-15.477c0-1.547,0.258-2.58,0.771-4.127c2.319,0,4.643-0.258,7.223,0
			c4.9,0.258,9.543,0,14.443-0.519c3.61-0.258,7.223-0.258,10.575,1.291c1.031,2.32,1.031,4.644,1.031,7.224
			c0,1.289-0.518,1.805-1.809,2.063c-2.32,0.516-4.386,1.031-6.705,0.773c-2.32-0.261-4.644,0-6.707,0.516
			C326.657,560.745,324.852,560.745,322.788,561.003"/>
		<path fill="none" stroke="#260022" stroke-width="0.278" stroke-miterlimit="10" d="M322.788,561.003
			c-0.258,1.031-0.258,1.549-0.258,2.32c0,2.58,0.258,5.158,0.516,7.479c0,1.291,0.775,1.808,2.063,1.808
			c2.321,0,4.899-0.259,7.225-0.259c2.063,0,3.869-0.258,5.932,0c2.322,0.259,3.099,1.55,3.099,3.869
			c0,1.547-0.261,3.097-0.261,4.898c0,1.291-1.03,2.322-2.319,2.58c-1.549,0.26-3.097,0.518-4.9,0.518
			c-2.836,0.258-5.416,0.517-8.254,1.031c-0.772,0-1.547,0.516-2.32,0.773c-0.516,5.932,0.259,11.862-0.258,17.797
			c-0.772,0.258-1.549,0.771-2.063,0.516c-2.578,0-5.156,0.258-7.479-0.516c-0.518-0.261-1.289,0-2.32-0.261
			c-0.258-0.772-0.772-1.289-0.772-2.063c-0.258-0.773-0.258-1.807,0-2.838c0.772-4.9,0.518-10.062,0.518-15.219
			c0-4.386,0.259-8.771,0.517-13.154c0-0.771,0-1.547,0-2.32c-0.258-5.158-0.517-10.315-1.029-15.477
			c0-1.547,0.258-2.58,0.771-4.127c2.319,0,4.643-0.258,7.223,0c4.9,0.258,9.543,0,14.443-0.519
			c3.61-0.258,7.223-0.258,10.575,1.291c1.031,2.32,1.031,4.644,1.031,7.224c0,1.289-0.518,1.805-1.809,2.063
			c-2.32,0.516-4.386,1.031-6.705,0.773c-2.32-0.261-4.644,0-6.707,0.516C326.657,560.745,324.852,560.745,322.788,561.003z"/>
		<path fill="#260022" d="M522.944,559.97c-1.81-0.516-3.611-0.516-5.416,0.258c-1.81,0.773-3.355,1.033-5.418,0.261
			c-1.55-3.354-1.808-6.707-0.261-10.316c0.519-1.031,1.289-1.807,2.58-2.063c4.127-1.033,8.254-1.033,12.381-0.775
			c3.354,0,6.966,0.26,10.316,0c2.838,0,5.416-0.258,8.254-0.258c2.064,0,3.354,0.772,3.354,2.58c0,2.58-0.261,5.158-0.519,7.735
			c0,0.519-0.258,0.773-0.516,1.291c-4.127,0.259-7.996-0.258-12.123,0.771c-0.773,1.291-0.517,2.58-0.258,3.869
			c0.258,5.416,0.516,11.092,0.771,16.508c0,0.518,0.258,1.031,0,1.807c-0.516,5.158,0,10.576,0.258,15.732
			c0.261,2.063,0,4.127-0.258,6.188c-0.516,2.58-2.063,3.611-4.643,3.611c-1.031,0-2.32,0-3.354,0c-1.031,0-1.805-0.26-2.838-0.26
			c-0.516,0-0.771-0.258-1.289-0.516c0-0.773-0.258-1.289-0.258-2.063c0-2.578,0-5.158,0-7.479
			c0.258-7.479,0.516-14.959,0.516-22.439c0-4.385-0.516-9.025-1.03-13.41C523.459,560.487,523.202,560.229,522.944,559.97"/>
		<path fill="none" stroke="#260022" stroke-width="0.278" stroke-miterlimit="10" d="M522.944,559.97
			c-1.81-0.516-3.611-0.516-5.416,0.258c-1.81,0.773-3.355,1.033-5.418,0.261c-1.55-3.354-1.808-6.707-0.261-10.316
			c0.519-1.031,1.289-1.807,2.58-2.063c4.127-1.033,8.254-1.033,12.381-0.775c3.354,0,6.966,0.26,10.316,0
			c2.838,0,5.416-0.258,8.254-0.258c2.064,0,3.354,0.772,3.354,2.58c0,2.58-0.261,5.158-0.519,7.735
			c0,0.519-0.258,0.773-0.516,1.291c-4.127,0.259-7.996-0.258-12.123,0.771c-0.773,1.291-0.517,2.58-0.258,3.869
			c0.258,5.416,0.516,11.092,0.771,16.508c0,0.518,0.258,1.031,0,1.807c-0.516,5.158,0,10.576,0.258,15.732
			c0.261,2.063,0,4.127-0.258,6.188c-0.516,2.58-2.063,3.611-4.643,3.611c-1.031,0-2.32,0-3.354,0c-1.031,0-1.805-0.26-2.838-0.26
			c-0.516,0-0.771-0.258-1.289-0.516c0-0.773-0.258-1.289-0.258-2.063c0-2.578,0-5.158,0-7.479
			c0.258-7.479,0.516-14.959,0.516-22.439c0-4.385-0.516-9.025-1.03-13.41C523.459,560.487,523.202,560.229,522.944,559.97z"/>
		<path fill="#260022" d="M774.944,594.534c1.028,0,1.805,0.258,2.836,0.258c2.838-0.258,5.676,0.258,8.512,0.773
			c1.807,0.258,3.869,0.516,5.676,0.772c1.808,0.257,2.063,0.516,2.578,2.32c0.516,2.063,0.773,4.385-1.031,6.705
			c-2.58,1.031-5.674,1.031-8.77,1.031c-6.189,0-12.123-0.259-18.314-0.259c-1.547,0-2.838,0-4.643-0.258
			c-0.258-0.772-0.516-1.549-0.516-2.322c0-5.416,0-10.832,0-16.25c0-2.063,0-3.866,0.516-5.932
			c0.516-2.838,0.772-5.676,0.516-8.514c0-1.547,0-3.097,0-4.386c0-5.416-0.258-10.834-0.258-16.25c0-2.063,0.258-3.608,3.096-3.096
			c2.063,0.258,4.127,0.519,6.189,0.258c1.807-0.258,2.58,0.261,3.096,2.064c0.258,1.547,0.517,2.838,0.517,4.385
			c0,6.447-0.259,12.896-0.259,19.346c0,3.869,0,7.479,0,11.351c0,1.031,0,2.319,0,3.354
			C774.426,591.438,774.168,592.729,774.944,594.534"/>
		<path fill="none" stroke="#260022" stroke-width="0.278" stroke-miterlimit="10" d="M774.944,594.534
			c1.028,0,1.805,0.258,2.836,0.258c2.838-0.258,5.676,0.258,8.512,0.773c1.807,0.258,3.869,0.516,5.676,0.772
			c1.808,0.257,2.063,0.516,2.578,2.32c0.516,2.063,0.773,4.385-1.031,6.705c-2.58,1.031-5.674,1.031-8.77,1.031
			c-6.189,0-12.123-0.259-18.314-0.259c-1.547,0-2.838,0-4.643-0.258c-0.258-0.772-0.516-1.549-0.516-2.322
			c0-5.416,0-10.832,0-16.25c0-2.063,0-3.866,0.516-5.932c0.516-2.838,0.772-5.676,0.516-8.514c0-1.547,0-3.097,0-4.386
			c0-5.416-0.258-10.834-0.258-16.25c0-2.063,0.258-3.608,3.096-3.096c2.063,0.258,4.127,0.519,6.189,0.258
			c1.807-0.258,2.58,0.261,3.096,2.064c0.258,1.547,0.517,2.838,0.517,4.385c0,6.447-0.259,12.896-0.259,19.346
			c0,3.869,0,7.479,0,11.351c0,1.031,0,2.319,0,3.354C774.426,591.438,774.168,592.729,774.944,594.534z"/>
		<path fill="#260022" d="M578.657,605.884c-0.26-0.518-0.519-0.772-0.519-1.031c-0.258-5.418-0.258-10.834-0.258-16.25
			c0-0.516,0-1.03,0-1.288c1.031-9.546,0.517-19.347,0.258-28.89c0-2.58-0.258-5.16,0.261-7.996
			c0.516-0.258,1.289-0.518,1.805-0.772c1.549-0.258,2.838-0.519,4.385-0.519c0.775,0,1.81,0,2.58,0.261
			c1.547,0.516,2.064,1.03,2.064,2.838c-0.263,3.354-0.521,6.705-0.521,10.059c0,5.158,0.26,10.062,0.775,15.219
			c0.258,3.097,0,6.189-0.258,9.285c0,3.611,0,7.224-0.263,11.092c0,2.063-0.258,4.386-0.516,6.447
			c-0.258,1.807-1.547,2.838-3.354,2.58h-0.26C582.784,605.366,580.721,605.366,578.657,605.884"/>
		<path fill="none" stroke="#260022" stroke-width="0.278" stroke-miterlimit="10" d="M578.657,605.884
			c-0.26-0.518-0.519-0.772-0.519-1.031c-0.258-5.418-0.258-10.834-0.258-16.25c0-0.516,0-1.03,0-1.288
			c1.031-9.546,0.517-19.347,0.258-28.89c0-2.58-0.258-5.16,0.261-7.996c0.516-0.258,1.289-0.518,1.805-0.772
			c1.549-0.258,2.838-0.519,4.385-0.519c0.775,0,1.81,0,2.58,0.261c1.547,0.516,2.064,1.03,2.064,2.838
			c-0.263,3.354-0.521,6.705-0.521,10.059c0,5.158,0.26,10.062,0.775,15.219c0.258,3.097,0,6.189-0.258,9.285
			c0,3.611,0,7.224-0.263,11.092c0,2.063-0.258,4.386-0.516,6.447c-0.258,1.807-1.547,2.838-3.354,2.58h-0.26
			C582.784,605.366,580.721,605.366,578.657,605.884z"/>
		<path fill="#260022" d="M386.754,569.771c2.064,0.517,9.803,0.517,12.898,0c0.516,0,0.771-0.516,1.287-0.772
			c0-3.354-1.029-6.447-2.578-9.285c-0.773-1.549-2.32-2.836-4.127-2.578c-2.063,0-4.127,1.289-5.416,2.836
			c-1.289,1.55-1.55,3.355-2.064,5.16C386.497,566.419,386.239,568.224,386.754,569.771 M414.354,580.347
			c-9.283,1.55-18.826,1.031-27.855,2.58c-0.258,0.258-0.516,0.517-0.516,0.773c0,3.354,2.063,5.932,4.127,8.252
			c1.549,1.549,3.608,2.322,5.934,2.063c2.578-0.258,5.158-0.516,7.479-2.063c1.549-1.029,3.098-1.805,4.645-2.32
			c1.547-0.771,2.838-0.258,3.354,1.291c1.03,2.063,1.807,4.385,2.838,6.705c0.26,0.517,0.26,1.031,0.26,1.289
			c-2.064,2.58-6.707,5.676-10.063,6.449c-2.577,0.771-5.155,1.289-7.735,1.028c-3.611-0.258-7.224-0.258-10.832-1.286
			c-0.773-0.261-1.81-0.519-2.58-0.775c-4.127-2.578-6.965-5.932-8.514-10.832c-0.259-1.289-0.771-2.32-1.029-3.611
			c-0.773-2.577-1.289-5.155-1.031-7.735c0.258-4.386,0-8.513,0.258-12.896c0.258-5.158,1.547-10.061,4.386-14.442
			c1.807-2.839,4.127-4.646,6.446-6.705c0.519-0.521,1.031-0.775,1.549-1.033c6.447-2.32,12.896-2.578,19.089,1.033
			c2.319,1.289,3.866,3.352,5.416,5.674c1.807,2.838,2.577,5.934,3.354,9.285c0.773,3.354,1.031,6.707,1.549,10.059
			C415.385,575.704,414.87,577.769,414.354,580.347"/>
		<path fill="none" stroke="#260022" stroke-width="0.306" stroke-miterlimit="10" d="M386.754,569.771
			c2.064,0.517,9.803,0.517,12.898,0c0.516,0,0.771-0.516,1.287-0.772c0-3.354-1.029-6.447-2.578-9.285
			c-0.773-1.549-2.32-2.836-4.127-2.578c-2.063,0-4.127,1.289-5.416,2.836c-1.289,1.55-1.55,3.355-2.064,5.16
			C386.497,566.419,386.239,568.224,386.754,569.771z M414.354,580.347c-9.283,1.55-18.826,1.031-27.855,2.58
			c-0.258,0.258-0.516,0.517-0.516,0.773c0,3.354,2.063,5.932,4.127,8.252c1.549,1.549,3.608,2.322,5.934,2.063
			c2.578-0.258,5.158-0.516,7.479-2.063c1.549-1.029,3.098-1.805,4.645-2.32c1.547-0.771,2.838-0.258,3.354,1.291
			c1.03,2.063,1.807,4.385,2.838,6.705c0.26,0.517,0.26,1.031,0.26,1.289c-2.064,2.58-6.707,5.676-10.063,6.449
			c-2.577,0.771-5.155,1.289-7.735,1.028c-3.611-0.258-7.224-0.258-10.832-1.286c-0.773-0.261-1.81-0.519-2.58-0.775
			c-4.127-2.578-6.965-5.932-8.514-10.832c-0.259-1.289-0.771-2.32-1.029-3.611c-0.773-2.577-1.289-5.155-1.031-7.735
			c0.258-4.386,0-8.513,0.258-12.896c0.258-5.158,1.547-10.061,4.386-14.442c1.807-2.839,4.127-4.646,6.446-6.705
			c0.519-0.521,1.031-0.775,1.549-1.033c6.447-2.32,12.896-2.578,19.089,1.033c2.319,1.289,3.866,3.352,5.416,5.674
			c1.807,2.838,2.577,5.934,3.354,9.285c0.773,3.354,1.031,6.707,1.549,10.059C415.385,575.704,414.87,577.769,414.354,580.347z"/>
		<path fill="#260022" d="M717.682,581.896c-2.319-0.259-4.385,0-6.188,0.772c-3.611,1.289-5.937,5.416-5.16,9.283
			c0.258,1.807,1.549,3.098,2.838,3.869c3.097,1.549,7.738-1.031,8.513-4.386C717.938,588.345,717.938,585.247,717.682,581.896
			 M717.167,572.866c0.258-0.258,0.516-0.517,0.516-0.771c0.773-3.354,0.261-6.965-0.516-10.315
			c-0.516-1.549-1.547-2.58-3.354-2.838c-2.32-0.517-4.646,0-6.447,1.289c-1.291,0.772-1.81,2.063-1.81,3.61
			c0,1.031,0,1.808,0.261,2.836c-1.031,1.031-2.578,1.031-3.869,1.031c-2.836,0.26-5.677,0.519-8.513,0
			c-0.518-3.096-0.26-5.932,1.289-8.77c2.32-4.128,5.158-7.738,9.543-9.804c1.031-0.516,2.063-1.028,3.099-1.028
			c4.127-0.519,7.996-0.261,11.862,1.289c2.578,1.03,5.158,2.063,6.966,4.127c0.258,0.258,0.771,0.516,1.028,1.03
			c1.291,3.097,3.099,5.935,3.869,9.285c0.519,3.096,1.291,6.189,0.519,9.543c-0.261,1.808,0,3.867,0,5.674c0,1.55,0,3.099,0,4.646
			c-0.261,2.58,0,4.9,0.258,7.479c0.26,1.808,0,3.611-0.258,5.419c-0.519,2.577-0.519,5.157,0.772,7.735
			c-0.518,0.519-1.031,1.031-1.549,1.289c-2.836,0.773-5.932,0.519-8.771,0.26c-0.518,0-1.03-0.518-1.291-1.03
			c-0.516-0.519-0.771-1.031-1.028-1.291c-2.58,1.291-5.16,2.321-7.48,3.61c-2.063,1.031-4.385,1.289-6.707,0.773
			c-1.547-0.519-3.354-0.519-4.897-1.031c-2.838-0.772-4.9-2.58-6.447-5.158c-4.127-6.965-3.096-13.67,0.771-20.377
			c0.772-1.289,2.063-2.58,3.61-3.61c2.32-1.548,4.644-3.097,7.224-3.609c1.03-0.258,2.063-0.518,3.096-0.773
			c2.32-0.772,4.898-1.289,7.479-0.518C716.393,572.866,716.909,572.866,717.167,572.866"/>
		<path fill="none" stroke="#260022" stroke-width="0.289" stroke-miterlimit="10" d="M717.682,581.896
			c-2.319-0.259-4.385,0-6.188,0.772c-3.611,1.289-5.937,5.416-5.16,9.283c0.258,1.807,1.549,3.098,2.838,3.869
			c3.097,1.549,7.738-1.031,8.513-4.386C717.938,588.345,717.938,585.247,717.682,581.896z M717.167,572.866
			c0.258-0.258,0.516-0.517,0.516-0.771c0.773-3.354,0.261-6.965-0.516-10.315c-0.516-1.549-1.547-2.58-3.354-2.838
			c-2.32-0.517-4.646,0-6.447,1.289c-1.291,0.772-1.81,2.063-1.81,3.61c0,1.031,0,1.808,0.261,2.836
			c-1.031,1.031-2.578,1.031-3.869,1.031c-2.836,0.26-5.677,0.519-8.513,0c-0.518-3.096-0.26-5.932,1.289-8.77
			c2.32-4.128,5.158-7.738,9.543-9.804c1.031-0.516,2.063-1.028,3.099-1.028c4.127-0.519,7.996-0.261,11.862,1.289
			c2.578,1.03,5.158,2.063,6.966,4.127c0.258,0.258,0.771,0.516,1.028,1.03c1.291,3.097,3.099,5.935,3.869,9.285
			c0.519,3.096,1.291,6.189,0.519,9.543c-0.261,1.808,0,3.867,0,5.674c0,1.55,0,3.099,0,4.646c-0.261,2.58,0,4.9,0.258,7.479
			c0.26,1.808,0,3.611-0.258,5.419c-0.519,2.577-0.519,5.157,0.772,7.735c-0.518,0.519-1.031,1.031-1.549,1.289
			c-2.836,0.773-5.932,0.519-8.771,0.26c-0.518,0-1.03-0.518-1.291-1.03c-0.516-0.519-0.771-1.031-1.028-1.291
			c-2.58,1.291-5.16,2.321-7.48,3.61c-2.063,1.031-4.385,1.289-6.707,0.773c-1.547-0.519-3.354-0.519-4.897-1.031
			c-2.838-0.772-4.9-2.58-6.447-5.158c-4.127-6.965-3.096-13.67,0.771-20.377c0.772-1.289,2.063-2.58,3.61-3.61
			c2.32-1.548,4.644-3.097,7.224-3.609c1.03-0.258,2.063-0.518,3.096-0.773c2.32-0.772,4.898-1.289,7.479-0.518
			C716.393,572.866,716.909,572.866,717.167,572.866z"/>
	</g>
	<polygon fill="#E7A135" points="550.799,170.235 525.264,85.118 574.014,85.118 	"/>
	<polygon fill="#F4D236" points="525.264,0 550.799,85.118 574.014,0 	"/>
	<polygon fill="#F4D236" points="610.383,145.99 610.383,123.292 795.061,150.633 795.061,177.198 	"/>
	<polygon fill="#F4D236" points="490.959,145.99 490.959,123.292 306.28,150.633 306.28,177.198 	"/>
	<polygon fill="#E7A135" points="700.143,96.467 610.383,83.312 610.383,106.01 700.143,121.228 	"/>
	<polygon fill="#E7A135" points="401.2,96.467 490.959,83.312 490.959,106.01 401.2,121.228 	"/>
	<g>
		<path fill="#005A7C" d="M265.012,653.858h48.748v9.543h-49.266c1.291-1.289,1.807-3.097,1.807-4.898
			C266.559,656.696,265.786,655.146,265.012,653.858 M174.477,565.903v-31.47l9.543-8.254v34.564l73.771,90.533
			c-3.355,0.258-6.189,2.838-6.707,6.446L174.477,565.903z"/>
		<path fill="#005A7C" d="M174.477,541.142v-17.797c18.314-3.354,31.984-19.346,31.984-38.688c0-21.666-17.539-39.463-39.465-39.463
			c-21.666,0-39.463,17.539-39.463,39.463c0,17.281,11.605,32.758,27.082,37.916l-3.609,9.285
			c-21.15-6.966-33.271-23.729-33.271-47.201c0-29.402,19.857-49.267,49.264-49.267s49.523,19.859,49.523,49.267
			c0,23.473-14.188,39.979-35.338,47.201L174.477,541.142z"/>
		<path fill="#41B9B8" d="M89.102,404.954c0,0-23.986,93.887,52.104,144.184l-3.611-1.289
			c-39.463-9.284-68.607-44.623-68.607-86.666c0-20.893,7.223-39.979,19.088-54.938L89.102,404.954z"/>
		<path fill="none" stroke="#41B9B8" stroke-width="0.889" stroke-linecap="round" stroke-linejoin="round" d="M89.102,404.954
			c0,0-23.986,93.887,52.104,144.184l-3.611-1.289c-39.463-9.284-68.607-44.623-68.607-86.666c0-20.893,7.223-39.979,19.088-54.938
			L89.102,404.954z"/>
		<path fill="#005A7C" d="M58.149,412.433c0,0-31.209,93.89,67.578,144.187l-4.645-1.289c-51.328-9.285-89.244-44.621-89.244-86.666
			c0-20.893,9.285-39.979,24.762-54.938L58.149,412.433z"/>
		<path fill="none" stroke="#005A7C" stroke-width="0.889" stroke-linecap="round" stroke-linejoin="round" d="M58.149,412.433
			c0,0-31.209,93.89,67.578,144.187l-4.645-1.289c-51.328-9.285-89.244-44.621-89.244-86.666c0-20.893,9.285-39.979,24.762-54.938
			L58.149,412.433z"/>
		<path fill="#41B9B8" d="M26.167,437.712c0,0-35.596,69.641,59.324,113.23l-4.387-1.289c-49.266-7.996-80.217-26.824-80.217-63.451
			c0-18.055,9.027-34.564,23.73-47.717L26.167,437.712z"/>
		<path fill="none" stroke="#41B9B8" stroke-width="0.889" stroke-linecap="round" stroke-linejoin="round" d="M26.167,437.712
			c0,0-35.596,69.641,59.324,113.23l-4.387-1.289c-49.266-7.996-80.217-26.824-80.217-63.451c0-18.055,9.027-34.564,23.73-47.717
			L26.167,437.712z"/>
		<path fill="#41B9B8" d="M90.133,612.073h39.98h9.801c0,5.158,4.127,9.285,9.285,9.285c2.838,0,5.158-1.289,6.965-3.097
			l46.428,42.562l-56.229-20.896h-34.307L90.133,612.073z"/>
		<path fill="#41B9B8" d="M88.844,572.351h46.43h9.801c0,5.16,4.127,9.287,9.285,9.287c2.32,0,4.385-0.772,6.189-2.321
			l69.125,80.989l-78.152-59.84h-40.754L88.844,572.351z"/>
		<path fill="#005A7C" d="M149.2,616.974c-2.838,0-4.9-2.319-4.9-4.899c0-2.836,2.32-4.898,4.9-4.898
			c2.838,0,4.898,2.32,4.898,4.898C154.358,614.653,152.038,616.974,149.2,616.974"/>
		<path fill="#005A7C" d="M54.797,634.255c-2.838,0-4.898-2.32-4.898-4.897c0-2.839,2.318-4.9,4.898-4.9c2.578,0,4.9,2.32,4.9,4.9
			C59.698,631.935,57.375,634.255,54.797,634.255"/>
		<path fill="#005A7C" d="M54.282,594.276c-2.838,0-4.902-2.322-4.902-4.9c0-2.838,2.322-4.9,4.902-4.9
			c2.578,0,4.898,2.322,4.898,4.9S56.86,594.276,54.282,594.276"/>
		<path fill="#005A7C" d="M154.358,577.511c-2.838,0-4.9-2.321-4.9-4.899c0-2.838,2.322-4.9,4.9-4.9c2.838,0,4.898,2.32,4.898,4.9
			C159.518,575.188,157.196,577.511,154.358,577.511"/>
		<path fill="#005A7C" d="M166.739,330.153l-28.113,83.313c0,0,15.475-6.189,28.113-6.189h0.516c12.639,0,28.115,6.966,28.115,6.966
			l-28.373-84.087L166.739,330.153L166.739,330.153z M117.991,443.386l49.264-136.188l48.234,135.933
			c-9.543-9.545-23.988-22.698-47.979-22.698C151.78,420.429,131.661,426.362,117.991,443.386"/>
		<path fill="#41B9B8" d="M258.821,663.401c-2.838,0-4.9-2.32-4.9-4.898c0-2.838,2.322-4.9,4.9-4.9c2.838,0,4.898,2.32,4.898,4.9
			C263.721,661.079,261.659,663.401,258.821,663.401"/>
		<path fill="#005A7C" d="M248.247,451.64c0,7.479,6.188,13.67,13.67,13.67s13.67-6.188,13.67-13.67
			c0-7.48-6.188-13.672-13.67-13.672S248.247,444.159,248.247,451.64 M240.766,451.64c0-11.606,9.543-21.149,21.15-21.149
			s21.15,9.543,21.15,21.149c0,11.605-9.543,21.148-21.15,21.148S240.766,463.505,240.766,451.64"/>
		<path fill="#41B9B8" d="M261.917,459.636c-4.385,0-7.996-3.61-7.996-7.996c0-4.385,3.611-7.996,7.996-7.996
			s7.996,3.611,7.996,7.996C269.913,456.025,266.301,459.636,261.917,459.636"/>
		<path fill="#41B9B8" d="M166.223,394.894c-4.385,0-7.996-3.608-7.996-7.996c0-4.385,3.611-7.996,7.996-7.996
			c4.387,0,7.996,3.611,7.996,7.996C174.219,391.284,170.608,394.894,166.223,394.894"/>
		<path fill="#41B9B8" d="M166.223,373.228c-3.609,0-6.445-2.838-6.445-6.446c0-3.609,2.836-6.447,6.445-6.447
			c3.611,0,6.449,2.838,6.449,6.447C172.415,370.134,169.577,373.228,166.223,373.228"/>
		<path fill="#41B9B8" d="M261.659,594.792c-3.611,0-6.449-2.838-6.449-6.447c0-3.61,2.838-6.446,6.449-6.446
			c3.609,0,6.447,2.836,6.447,6.446C268.106,591.954,265.27,594.792,261.659,594.792"/>
		<path fill="#41B9B8" d="M238.444,543.979c-2.063,0-3.611-1.549-3.611-3.61c0-2.063,1.549-3.609,3.611-3.609
			s3.609,1.547,3.609,3.609C242.055,542.431,240.508,543.979,238.444,543.979"/>
		<path fill="#41B9B8" d="M238.444,561.003c-2.063,0-3.611-1.549-3.611-3.611c0-2.062,1.549-3.608,3.611-3.608
			s3.609,1.547,3.609,3.608C242.055,559.454,240.508,561.003,238.444,561.003"/>
		<path fill="#41B9B8" d="M238.444,578.026c-2.063,0-3.611-1.548-3.611-3.611s1.549-3.609,3.611-3.609s3.609,1.547,3.609,3.609
			C242.055,576.479,240.508,578.026,238.444,578.026"/>
		<path fill="#41B9B8" d="M238.444,595.05c-2.063,0-3.611-1.547-3.611-3.608c0-2.064,1.549-3.611,3.611-3.611
			s3.609,1.549,3.609,3.611C242.053,593.501,240.508,595.05,238.444,595.05"/>
		<path fill="#005A7C" d="M262.688,567.194c-8.512,0-15.219-6.968-15.219-15.222c0-8.512,6.965-15.217,15.219-15.217
			c8.514,0,15.221,6.965,15.221,15.217C277.909,560.229,271.202,567.194,262.688,567.194"/>
		<path fill="#005A7C" d="M262.688,518.444c-8.512,0-15.219-6.966-15.219-15.22c0-8.512,6.965-15.219,15.219-15.219
			c8.514,0,15.221,6.965,15.221,15.219S271.202,518.444,262.688,518.444"/>
	</g>
	<polygon fill="#005A7C" points="69.499,572.351 80.075,572.351 101.741,600.466 91.165,600.466 	"/>
	<polygon fill="#005A7C" points="70.272,612.073 80.848,612.073 102.514,639.929 91.938,639.929 	"/>
	<polygon fill="#41B9B8" points="52.217,572.351 62.793,572.351 84.717,600.466 74.141,600.466 	"/>
	<polygon fill="#41B9B8" points="53.249,612.073 63.825,612.073 85.491,639.929 74.915,639.929 	"/>
	<g>
		<path fill="#41B9B8" d="M214.715,581.12l-19.604-24.76V539.85c0,0,10.834-4.899,19.859-15.731L214.715,581.12z"/>
		<path fill="#41B9B8" d="M159,460.151c1.807-0.517,3.611-1.031,5.418-1.289l26.824,26.823c-0.26,1.808-0.518,3.611-1.289,5.416
			L159,460.151z M145.073,471.759c0.771-1.289,1.547-2.58,2.838-3.869l34.818,34.82c-1.287,1.031-2.578,2.064-3.867,2.838
			L145.073,471.759z M162.87,507.868c-4.9-0.773-9.801-3.096-13.67-6.965c-3.869-3.869-6.189-8.513-6.965-13.67L162.87,507.868z"/>
		<path fill="#005A7C" d="M150.747,464.794c1.291-1.031,2.58-2.063,3.869-2.838l33.531,33.531c-0.773,1.289-1.549,2.58-2.838,3.869
			L150.747,464.794z M142.235,481.302c0.26-1.807,0.518-3.608,1.291-5.416l31.209,31.209c-1.807,0.519-3.611,1.033-5.416,1.291
			L142.235,481.302z M170.608,459.378c4.898,0.773,9.803,3.096,13.67,6.965c3.869,3.869,6.189,8.513,6.965,13.67L170.608,459.378z"
			/>
	</g>
	<rect x="226.579" y="537.274" fill="#41B9B8" width="4.645" height="58.032"/>
	<rect x="218.584" y="531.341" fill="#005A7C" width="4.643" height="55.197"/>
	
		<rect x="191.17" y="251.709" transform="matrix(-0.7072 -0.707 0.707 -0.7072 153.9473 578.2671)" fill="#41B9B8" width="11.092" height="11.093"/>
	<polygon fill="#41B9B8" points="251.598,218.726 282.551,218.726 251.856,302.297 	"/>
	<polygon fill="#41B9B8" points="222.194,302.039 252.889,302.039 222.194,337.892 	"/>
	<rect x="185.053" y="301.523" fill="#005A7C" width="32.498" height="10.06"/>
	<path fill="#41B9B8" d="M130.372,282.177h24.76v-7.479h-24.76V282.177z M174.993,274.698h-15.217v7.479h15.217V274.698z
		 M246.698,274.698h-29.146v7.479h29.146V274.698z"/>
	<path fill="#41B9B8" d="M147.911,264.381h21.148v-7.48h-21.148V264.381L147.911,264.381z M246.698,257.157h-21.926v7.48h21.926
		V257.157z"/>
	<g>
		<path fill="#005A7C" d="M244.377,252.515c-2.322-23.987-22.699-42.816-47.461-42.816c-24.76,0-44.879,18.829-47.459,42.816h6.191
			c2.318-20.635,19.857-36.884,41.268-36.884s38.949,15.991,41.27,36.884H244.377z"/>
		<path fill="#005A7C" d="M215.229,257.416c0,10.06-8.254,18.313-18.313,18.313s-18.313-8.254-18.313-18.313
			c0-10.06,8.254-18.313,18.313-18.313C206.977,239.103,215.229,247.357,215.229,257.416 M221.163,257.416
			c0-13.412-10.832-24.245-24.246-24.245c-13.412,0-24.244,10.833-24.244,24.245c0,13.413,10.832,24.246,24.244,24.246
			C210.331,281.662,221.163,270.829,221.163,257.416"/>
		
			<path fill="none" stroke="#41B9B8" stroke-width="1.84" stroke-linecap="round" stroke-linejoin="round" stroke-dasharray="0,6.228" d="
			M224.258,237.813c-4.643-6.448-11.605-11.349-19.604-13.153"/>
		
			<path fill="none" stroke="#41B9B8" stroke-width="1.84" stroke-linecap="round" stroke-linejoin="round" stroke-dasharray="0,6.262" d="
			M181.442,227.496c-7.225,3.868-12.896,10.06-15.734,17.54"/>
		<path fill="none" stroke="#41B9B8" stroke-width="1.84" stroke-linecap="round" stroke-linejoin="round" d="M163.645,253.031
			L163.645,253.031 M196.917,223.627L196.917,223.627 M230.19,252.773L230.19,252.773"/>
		<path fill="#005A7C" d="M835.813,653.858h-48.748v9.543h49.266c-1.289-1.289-1.807-3.097-1.807-4.898
			C834.268,656.696,834.784,655.146,835.813,653.858 M926.09,565.903v-31.47l-9.543-8.254v34.564l-73.768,90.533
			c3.352,0.258,6.188,2.838,6.705,6.446L926.09,565.903z"/>
		<path fill="#005A7C" d="M926.09,541.142v-17.797c-18.313-3.354-31.981-19.346-31.981-38.688c0-21.666,17.539-39.463,39.465-39.463
			c21.924,0,39.465,17.539,39.465,39.463c0,17.281-11.607,32.758-27.084,37.916l3.609,9.285
			c21.149-6.966,33.272-23.729,33.272-47.201c0-29.402-19.86-49.267-49.266-49.267s-49.267,19.859-49.267,49.267
			c0,23.473,14.188,39.979,35.336,47.201L926.09,541.142z"/>
		<path fill="#41B9B8" d="M1011.725,404.954c0,0,23.986,93.887-52.104,144.184l3.611-1.289
			c39.465-9.284,68.608-44.623,68.608-86.666c0-20.893-7.223-39.979-19.088-54.938L1011.725,404.954z"/>
		<path fill="none" stroke="#41B9B8" stroke-width="0.889" stroke-linecap="round" stroke-linejoin="round" d="M1011.725,404.954
			c0,0,23.986,93.887-52.104,144.184l3.611-1.289c39.465-9.284,68.608-44.623,68.608-86.666c0-20.893-7.223-39.979-19.088-54.938
			L1011.725,404.954z"/>
		<path fill="#005A7C" d="M1042.418,412.433c0,0,31.211,93.89-67.578,144.187l4.646-1.289c51.326-9.285,89.241-44.621,89.241-86.666
			c0-20.893-9.282-39.979-24.762-54.938L1042.418,412.433z"/>
		<path fill="none" stroke="#005A7C" stroke-width="0.889" stroke-linecap="round" stroke-linejoin="round" d="M1042.418,412.433
			c0,0,31.211,93.89-67.578,144.187l4.646-1.289c51.326-9.285,89.241-44.621,89.241-86.666c0-20.893-9.282-39.979-24.762-54.938
			L1042.418,412.433z"/>
		<path fill="#41B9B8" d="M1074.403,437.712c0,0,35.594,69.641-59.324,113.23l4.385-1.289c49.264-7.996,80.217-26.824,80.217-63.451
			c0-18.055-9.024-34.564-23.729-47.717L1074.403,437.712z"/>
		<path fill="none" stroke="#41B9B8" stroke-width="0.889" stroke-linecap="round" stroke-linejoin="round" d="M1074.403,437.712
			c0,0,35.594,69.641-59.324,113.23l4.385-1.289c49.264-7.996,80.217-26.824,80.217-63.451c0-18.055-9.024-34.564-23.729-47.717
			L1074.403,437.712z"/>
		<path fill="#41B9B8" d="M1010.434,612.073h-39.979h-9.801c0,5.158-4.127,9.285-9.285,9.285c-2.838,0-5.158-1.289-6.965-3.097
			l-46.431,42.562l56.23-20.896h34.563L1010.434,612.073z"/>
		<path fill="#41B9B8" d="M1011.725,572.351h-46.428h-9.803c0,5.16-4.127,9.287-9.285,9.287c-2.32,0-4.385-0.772-6.188-2.321
			l-69.128,80.989l78.154-59.84h41.012L1011.725,572.351z"/>
		<path fill="#005A7C" d="M951.368,616.974c2.838,0,4.899-2.319,4.899-4.899c0-2.836-2.319-4.898-4.899-4.898
			c-2.836,0-4.9,2.32-4.9,4.898C946.467,614.653,948.532,616.974,951.368,616.974"/>
		<path fill="#005A7C" d="M1046.03,634.255c2.838,0,4.897-2.32,4.897-4.897c0-2.839-2.317-4.9-4.897-4.9c-2.838,0-4.9,2.32-4.9,4.9
			C1040.872,631.933,1043.192,634.255,1046.03,634.255"/>
		<path fill="#005A7C" d="M1046.545,594.276c2.838,0,4.9-2.322,4.9-4.9c0-2.838-2.32-4.9-4.9-4.9c-2.838,0-4.899,2.322-4.899,4.9
			C1041.387,591.954,1043.708,594.276,1046.545,594.276"/>
		<path fill="#005A7C" d="M946.209,577.511c2.838,0,4.9-2.321,4.9-4.899c0-2.838-2.32-4.9-4.9-4.9c-2.836,0-4.9,2.32-4.9,4.9
			C941.309,575.188,943.374,577.511,946.209,577.511"/>
		<path fill="#005A7C" d="M934.086,330.153l28.115,83.313c0,0-15.478-6.189-28.115-6.189h-0.516
			c-12.642,0-28.113,6.966-28.113,6.966l28.113-84.087L934.086,330.153L934.086,330.153z M982.579,443.386l-49.008-135.932
			l-48.232,135.932c9.543-9.545,23.986-22.699,47.975-22.699C948.79,420.429,968.909,426.362,982.579,443.386"/>
		<path fill="#41B9B8" d="M841.747,663.401c2.838,0,4.9-2.32,4.9-4.898c0-2.838-2.32-4.9-4.9-4.9c-2.836,0-4.9,2.32-4.9,4.9
			C836.846,661.079,839.168,663.401,841.747,663.401"/>
		<path fill="#005A7C" d="M852.323,451.64c0,7.479-6.189,13.67-13.67,13.67c-7.482,0-13.672-6.188-13.672-13.67
			c0-7.48,6.188-13.672,13.672-13.672C846.133,437.968,852.323,444.159,852.323,451.64 M860.061,451.64
			c0-11.606-9.543-21.149-21.147-21.149c-11.607,0-21.15,9.543-21.15,21.149c0,11.605,9.543,21.148,21.15,21.148
			C850.518,473.048,860.061,463.505,860.061,451.64"/>
		<path fill="#41B9B8" d="M838.653,459.636c4.385,0,7.994-3.61,7.994-7.996c0-4.385-3.609-7.996-7.994-7.996
			c-4.388,0-7.996,3.611-7.996,7.996C830.657,456.025,834.268,459.636,838.653,459.636"/>
		<path fill="#41B9B8" d="M934.602,394.894c4.39,0,7.996-3.608,7.996-7.996c0-4.385-3.606-7.996-7.996-7.996
			c-4.385,0-7.991,3.611-7.991,7.996C926.608,391.284,930.217,394.894,934.602,394.894"/>
		<path fill="#41B9B8" d="M934.602,373.228c3.611,0,6.449-2.838,6.449-6.446c0-3.609-2.838-6.447-6.449-6.447
			c-3.606,0-6.444,2.838-6.444,6.447C928.155,370.134,930.993,373.228,934.602,373.228"/>
		<path fill="#41B9B8" d="M839.168,594.792c3.611,0,6.447-2.838,6.447-6.447c0-3.61-2.836-6.446-6.447-6.446
			s-6.449,2.836-6.449,6.446C832.719,591.954,835.557,594.792,839.168,594.792"/>
		<path fill="#41B9B8" d="M862.124,543.979c2.063,0,3.611-1.549,3.611-3.61c0-2.063-1.549-3.609-3.611-3.609
			s-3.611,1.547-3.611,3.609C858.772,542.431,860.319,543.979,862.124,543.979"/>
		<path fill="#41B9B8" d="M862.124,561.003c2.063,0,3.611-1.549,3.611-3.611c0-2.062-1.549-3.608-3.611-3.608
			s-3.611,1.547-3.611,3.608C858.772,559.454,860.319,561.003,862.124,561.003"/>
		<path fill="#41B9B8" d="M862.124,578.026c2.063,0,3.611-1.548,3.611-3.611s-1.549-3.609-3.611-3.609s-3.611,1.547-3.611,3.609
			C858.772,576.479,860.319,578.026,862.124,578.026"/>
		<path fill="#41B9B8" d="M862.124,595.05c2.063,0,3.611-1.547,3.611-3.608c0-2.064-1.549-3.611-3.611-3.611
			s-3.611,1.549-3.611,3.611C858.512,593.501,860.319,595.05,862.124,595.05"/>
		<path fill="#005A7C" d="M837.879,567.194c8.512,0,15.217-6.968,15.217-15.222c0-8.512-6.965-15.217-15.217-15.217
			c-8.512,0-15.219,6.965-15.219,15.217C822.661,560.229,829.625,567.194,837.879,567.194"/>
		<path fill="#005A7C" d="M837.879,518.444c8.512,0,15.217-6.966,15.217-15.22c0-8.512-6.965-15.219-15.217-15.219
			c-8.512,0-15.219,6.965-15.219,15.219S829.625,518.444,837.879,518.444"/>
	</g>
	<polygon fill="#005A7C" points="1031.327,572.351 1020.752,572.351 998.829,600.466 1009.403,600.466 	"/>
	<polygon fill="#005A7C" points="1030.553,612.073 1019.979,612.073 998.055,639.929 1008.629,639.929 	"/>
	<polygon fill="#41B9B8" points="1048.35,572.351 1037.776,572.351 1016.11,600.466 1026.684,600.466 	"/>
	<polygon fill="#41B9B8" points="1047.577,612.073 1037.002,612.073 1015.079,639.929 1025.653,639.929 	"/>
	<g>
		<path fill="#41B9B8" d="M885.854,581.12l19.604-24.76V539.85c0,0-10.834-4.899-19.861-15.731L885.854,581.12z"/>
		<path fill="#41B9B8" d="M941.825,460.151c-1.808-0.517-3.611-1.031-5.416-1.289l-26.824,26.823
			c0.258,1.808,0.516,3.611,1.289,5.416L941.825,460.151z M955.495,471.759c-0.773-1.289-1.547-2.58-2.836-3.869l-34.564,34.564
			c1.289,1.031,2.58,2.063,3.869,2.836L955.495,471.759z M937.956,507.868c4.9-0.773,9.803-3.096,13.672-6.965
			c3.867-3.869,6.188-8.513,6.963-13.67L937.956,507.868z"/>
		<path fill="#005A7C" d="M949.821,464.794c-1.289-1.031-2.58-2.063-3.869-2.838l-33.531,33.531c0.773,1.289,1.549,2.58,2.838,3.869
			L949.821,464.794z M958.59,481.302c-0.258-1.807-0.516-3.608-1.289-5.416l-31.211,31.209c1.808,0.519,3.611,1.033,5.418,1.291
			L958.59,481.302z M929.959,459.378c-4.9,0.773-9.801,3.096-13.67,6.965s-6.189,8.513-6.963,13.67L929.959,459.378z"/>
	</g>
	<rect x="869.346" y="537.274" fill="#41B9B8" width="4.646" height="58.032"/>
	<rect x="877.6" y="531.341" fill="#005A7C" width="4.646" height="55.197"/>
	
		<rect x="898.192" y="251.782" transform="matrix(0.7071 -0.7071 0.7071 0.7071 82.7541 714.4345)" fill="#41B9B8" width="11.092" height="11.093"/>
	<polygon fill="#41B9B8" points="848.969,218.726 818.276,218.726 848.711,302.297 	"/>
	<polygon fill="#41B9B8" points="878.631,302.039 847.938,302.039 878.374,337.892 	"/>
	<rect x="883.016" y="301.523" fill="#005A7C" width="32.5" height="10.06"/>
	<path fill="#41B9B8" d="M970.456,282.177h-24.762v-7.479h24.762V282.177z M925.575,274.698h15.219v7.479h-15.219V274.698z
		 M853.87,274.698h29.146v7.479H853.87V274.698z"/>
	<path fill="#41B9B8" d="M952.659,264.381h-21.15v-7.48h21.15V264.381z M853.87,257.157h21.926v7.48H853.87V257.157z"/>
	<g>
		<path fill="#005A7C" d="M856.45,252.515c2.32-23.987,22.697-42.816,47.459-42.816s44.881,18.829,47.459,42.816h-6.189
			c-2.322-20.635-19.858-36.884-41.27-36.884s-38.947,15.991-41.271,36.884H856.45z"/>
		<path fill="#005A7C" d="M885.338,257.416c0,10.06,8.254,18.313,18.313,18.313c10.059,0,18.313-8.254,18.313-18.313
			c0-10.06-8.252-18.313-18.313-18.313C893.59,239.103,885.338,247.357,885.338,257.416 M879.405,257.416
			c0-13.412,10.834-24.245,24.246-24.245s24.244,10.833,24.244,24.245c0,13.413-10.832,24.246-24.244,24.246
			C890.497,281.662,879.405,270.829,879.405,257.416"/>
		
			<path fill="none" stroke="#41B9B8" stroke-width="1.84" stroke-linecap="round" stroke-linejoin="round" stroke-dasharray="0,6.228" d="
			M876.311,237.813c4.646-6.448,11.605-11.349,19.604-13.153"/>
		
			<path fill="none" stroke="#41B9B8" stroke-width="1.84" stroke-linecap="round" stroke-linejoin="round" stroke-dasharray="0,6.262" d="
			M919.385,227.496c7.226,3.868,12.896,10.06,15.734,17.54"/>
		<path fill="none" stroke="#41B9B8" stroke-width="1.84" stroke-linecap="round" stroke-linejoin="round" d="M937.182,253.031
			L937.182,253.031 M903.651,223.627L903.651,223.627 M870.377,252.773L870.377,252.773"/>
	</g>
</g>
<g>
	<path d="M427.575,656.53h-16.998v-2.95l8.332-9.073c1.359-1.488,2.297-2.71,2.813-3.665s0.773-1.89,0.773-2.804
		c0-1.148-0.334-2.109-1.002-2.883s-1.57-1.16-2.707-1.16c-1.5,0-2.613,0.422-3.34,1.266s-1.09,2.004-1.09,3.48h-4.131l-0.035-0.105
		c-0.059-2.273,0.686-4.187,2.232-5.739s3.668-2.329,6.363-2.329c2.461,0,4.406,0.68,5.836,2.039s2.145,3.135,2.145,5.326
		c0,1.465-0.413,2.865-1.239,4.201s-2.106,2.959-3.841,4.869l-5.695,5.994l0.053,0.105h11.531V656.53z"/>
	<path d="M447.209,637.687c0,1.289-0.352,2.432-1.055,3.428s-1.658,1.758-2.865,2.285c1.395,0.539,2.505,1.348,3.331,2.426
		s1.239,2.32,1.239,3.727c0,2.379-0.785,4.198-2.355,5.458s-3.615,1.89-6.135,1.89c-2.555,0-4.617-0.63-6.188-1.89
		s-2.355-3.079-2.355-5.458c0-1.406,0.407-2.648,1.222-3.727s1.931-1.893,3.349-2.443c-1.219-0.516-2.174-1.269-2.865-2.259
		s-1.037-2.136-1.037-3.437c0-2.273,0.718-4.028,2.153-5.265s3.331-1.854,5.687-1.854c2.332,0,4.228,0.618,5.687,1.854
		S447.209,635.413,447.209,637.687z M443.606,649.332c0-1.251-0.401-2.269-1.204-3.053c-0.803-0.783-1.825-1.175-3.067-1.175
		c-1.266,0-2.288,0.389-3.067,1.166c-0.779,0.778-1.169,1.799-1.169,3.062c0,1.286,0.387,2.298,1.16,3.035
		c0.773,0.736,1.811,1.104,3.111,1.104c1.254,0,2.273-0.371,3.059-1.113C443.213,651.615,443.606,650.606,443.606,649.332z
		 M442.938,637.845c0-1.125-0.334-2.048-1.002-2.769s-1.535-1.081-2.602-1.081c-1.102,0-1.972,0.349-2.61,1.046
		s-0.958,1.632-0.958,2.804c0,1.16,0.325,2.089,0.976,2.786s1.526,1.046,2.628,1.046c1.078,0,1.942-0.349,2.593-1.046
		S442.938,639.005,442.938,637.845z"/>
	<path d="M456.526,656.53h-4.254v-4.096h4.254V656.53z"/>
	<path d="M479.079,647.354h-9.229v-3.428h9.229V647.354z"/>
	<path d="M508.293,656.53h-16.998v-2.95l8.332-9.073c1.359-1.488,2.297-2.71,2.813-3.665s0.773-1.89,0.773-2.804
		c0-1.148-0.334-2.109-1.002-2.883s-1.57-1.16-2.707-1.16c-1.5,0-2.613,0.422-3.34,1.266s-1.09,2.004-1.09,3.48h-4.131l-0.035-0.105
		c-0.059-2.273,0.686-4.187,2.232-5.739s3.668-2.329,6.363-2.329c2.461,0,4.406,0.68,5.836,2.039s2.145,3.135,2.145,5.326
		c0,1.465-0.413,2.865-1.239,4.201s-2.106,2.959-3.841,4.869l-5.695,5.994l0.053,0.105h11.531V656.53z"/>
	<path d="M518.893,653.472c1.523,0,2.754-0.563,3.691-1.69c0.938-1.128,1.406-2.772,1.406-4.937v-1.178
		c-0.574,0.785-1.274,1.38-2.101,1.784s-1.731,0.606-2.716,0.606c-2.438,0-4.362-0.771-5.774-2.312s-2.118-3.653-2.118-6.337
		c0-2.555,0.791-4.667,2.373-6.337s3.539-2.505,5.871-2.505c2.648,0,4.764,0.87,6.346,2.61s2.373,4.245,2.373,7.515v5.994
		c0,3.234-0.87,5.745-2.61,7.532s-3.987,2.681-6.741,2.681c-0.879,0-1.787-0.089-2.725-0.265c-0.938-0.177-1.799-0.442-2.584-0.796
		l0.563-3.281c0.715,0.328,1.447,0.563,2.197,0.703S517.944,653.472,518.893,653.472z M519.579,644.735
		c1.066,0,1.975-0.211,2.725-0.633s1.313-0.967,1.688-1.635v-2.285c0-2.027-0.381-3.565-1.143-4.614s-1.846-1.573-3.252-1.573
		c-1.148,0-2.109,0.513-2.883,1.538s-1.16,2.317-1.16,3.876c0,1.594,0.354,2.88,1.063,3.858S518.313,644.735,519.579,644.735z"/>
	<path d="M537.245,656.53h-4.254v-4.096h4.254V656.53z"/>
	<path d="M562.592,630.937h4.271v18.193c0,2.391-0.762,4.283-2.285,5.678s-3.48,2.092-5.871,2.092c-2.566,0-4.6-0.639-6.1-1.916
		s-2.221-3.146-2.162-5.607l0.035-0.105h4.131c0,1.447,0.361,2.51,1.082,3.186c0.721,0.678,1.725,1.016,3.014,1.016
		c1.125,0,2.055-0.393,2.787-1.177s1.098-1.844,1.098-3.18V630.937z"/>
	<path d="M583.598,653.753c-0.598,1.008-1.354,1.784-2.268,2.329s-1.969,0.817-3.164,0.817c-2.039,0-3.633-0.65-4.781-1.951
		s-1.723-3.322-1.723-6.064v-11.373h4.254v11.408c0,1.664,0.27,2.83,0.809,3.498s1.354,1.002,2.443,1.002
		c1.031,0,1.896-0.185,2.594-0.554s1.244-0.905,1.643-1.608v-13.746h4.271v19.02h-3.727L583.598,653.753z"/>
	<path d="M596.693,656.53h-4.271v-27.422h4.271V656.53z"/>
	<path d="M606.027,632.853h-4.271v-3.744h4.271V632.853z M606.027,656.53h-4.271v-19.02h4.271V656.53z"/>
	<path d="M636.438,656.53h-16.998v-2.95l8.332-9.073c1.359-1.488,2.297-2.71,2.813-3.665s0.773-1.89,0.773-2.804
		c0-1.148-0.334-2.109-1.002-2.883s-1.57-1.16-2.707-1.16c-1.5,0-2.613,0.422-3.34,1.266s-1.09,2.004-1.09,3.48h-4.131l-0.035-0.105
		c-0.059-2.273,0.686-4.187,2.232-5.739s3.668-2.329,6.363-2.329c2.461,0,4.406,0.68,5.836,2.039s2.145,3.135,2.145,5.326
		c0,1.465-0.413,2.865-1.239,4.201s-2.106,2.959-3.841,4.869l-5.695,5.994l0.053,0.105h11.531V656.53z"/>
	<path d="M656.6,646.669c0,3.328-0.75,5.865-2.25,7.611s-3.539,2.619-6.117,2.619c-2.59,0-4.641-0.873-6.152-2.619
		s-2.268-4.283-2.268-7.611v-5.854c0-3.316,0.75-5.854,2.25-7.611s3.545-2.637,6.135-2.637c2.578,0,4.623,0.879,6.135,2.637
		s2.268,4.295,2.268,7.611V646.669z M652.328,640.159c0-2.096-0.352-3.646-1.055-4.653s-1.729-1.511-3.076-1.511
		s-2.37,0.504-3.067,1.511s-1.046,2.558-1.046,4.653v7.113c0,2.107,0.354,3.667,1.063,4.68c0.709,1.014,1.737,1.52,3.085,1.52
		s2.367-0.504,3.059-1.511s1.037-2.569,1.037-4.688V640.159z"/>
	<path d="M671.066,656.53h-4.271v-21.533h-5.203v-3.146l9.475-0.914V656.53z"/>
	<path d="M697.803,634.364c-2.941,3.457-4.928,6.574-5.959,9.352s-1.781,6.146-2.25,10.107l-0.264,2.707h-4.271l0.264-2.707
		c0.457-3.867,1.371-7.374,2.742-10.521s3.24-6.126,5.607-8.938h-13.553v-3.428h17.684V634.364z"/>
</g>
</svg>
