<?xml version="1.0" encoding="utf-8"?>
<!-- Generator: Adobe Illustrator 21.0.0, SVG Export Plug-In . SVG Version: 6.00 Build 0)  -->
<svg version="1.1" id="Ebene_1" xmlns="http://www.w3.org/2000/svg" xmlns:xlink="http://www.w3.org/1999/xlink" x="0px" y="0px"
	 viewBox="0 0 208.1 208.1" style="enable-background:new 0 0 208.1 208.1;" xml:space="preserve">
<style type="text/css">
	.st0{fill:#FF7E5F;}
	.st1{fill:#415682;}
	.st2{clip-path:url(#SVGID_2_);fill:#1D1D1B;}
	.st3{clip-path:url(#SVGID_2_);fill:#FFFFFF;}
</style>
<polygon class="st0" points="0,0 0,208.1 208.1,0 "/>
<polygon class="st1" points="208.1,0 0,208.1 208.1,208.1 "/>
<g>
	<defs>
		<rect id="SVGID_1_" x="0" width="208.1" height="208.1"/>
	</defs>
	<clipPath id="SVGID_2_">
		<use xlink:href="#SVGID_1_"  style="overflow:visible;"/>
	</clipPath>
	<path class="st2" d="M97.9,106.7l-5.3,5.3l1.7,1.7l5.3-5.3L97.9,106.7z M53.7,151.7l-2.6,2.6l-4.1-4.1l2.6-2.6
		c1.5-1.5,3.1-1.4,4.3-0.2C55.1,148.7,55.3,150.2,53.7,151.7 M56.2,145.1c-2.4-2.4-5.6-2.5-8.5,0.4l-5,5l7.4,7.4l7.8-7.8
		C58.3,148.3,57.7,146.6,56.2,145.1 M66.7,138.1l-3.1,3.1l-3.8-3.8l3-3c1.3-1.3,3-1.2,4-0.2C68.1,135.4,68,136.8,66.7,138.1
		 M70.5,137.5c0.7-1.9,0.3-4-1.3-5.6c-2-2-5.3-2.6-8.3,0.5l-5.4,5.4l7.4,7.4L70.5,137.5z M85.1,120.8c-2.1-2.1-4-3.5-6.8-3.5
		c-1.9,0-3.7,0.9-5.1,2.2c-1.4,1.4-2.2,3.2-2.2,5.1c0,2.8,1.5,4.7,3.5,6.8c0.4,0.4,0.7,0.7,1.1,1l2.3-2.3c-0.4-0.3-0.8-0.7-1.1-1
		c-1.2-1.2-2.7-2.8-2.7-4.6c0-1,0.4-2.1,1.2-2.8c0.7-0.7,1.8-1.2,2.8-1.2c1.8,0,3.4,1.6,4.6,2.7c0.3,0.3,0.7,0.7,1,1.1l2.3-2.3
		C85.8,121.6,85.4,121.2,85.1,120.8 M93.6,107.2l2.4-2.4c-1.2-1-2.5-1.4-3.7-1.4c-1.7,0-3.7,0.8-5.2,2.3c-1.4,1.4-2.3,3.3-2.3,5.3
		c0,2.8,1.4,4.7,3.5,6.8c0.4,0.4,0.7,0.7,1.1,1l2.4-2.4c-0.4-0.3-0.8-0.7-1.1-1c-1.2-1.2-2.6-2.8-2.7-4.6c0-1,0.5-2.2,1.2-2.9
		c0.9-0.9,1.8-1.3,2.8-1.3C92.5,106.6,93.1,106.7,93.6,107.2 M107.6,97.2l-3.1,3.1l-3.8-3.8l3-3c1.3-1.3,3-1.2,4-0.2
		C109,94.5,108.9,95.9,107.6,97.2 M111.5,96.6c0.7-1.9,0.3-4-1.3-5.6c-2-2-5.3-2.6-8.3,0.5l-5.4,5.4l7.4,7.4L111.5,96.6z
		 M125.4,82.7l-10-4.8l-2.5,2.5l4.8,10l2.3-2.3l-3-6.1l6.1,3L125.4,82.7z M136.2,71.9L126,67.2l-3.1,3.1l7.4,7.4l2.2-2.2l-3.9-3.9
		l5.3,2.5L136.2,71.9z M143.1,65l-7.4-7.4l-3,3l4.7,10.2l2.1-2.1l-2.4-5.2l3.8,3.8L143.1,65z M153.5,54.5l-10.1-4.7l-3.1,3.1
		l7.4,7.4l2.2-2.2l-3.9-3.9l5.3,2.5L153.5,54.5z M160.4,47.6l-7.4-7.4l-3,3l4.7,10.2l2.1-2.1l-2.4-5.2l3.8,3.8L160.4,47.6z"/>
	<path class="st3" d="M158.2,49.9l5.3,5.3l2.2-2.2l-5.3-5.3L158.2,49.9z M151.3,56.7l7,3.2l1.7-1.7l-3.2-7l-2.1,2.1l1,2.2l-2.2-1
		L151.3,56.7z M147.7,60.4l5.3,5.3l2.2-2.2l-5.3-5.3L147.7,60.4z M140.8,67.2l5.3,5.3l2.2-2.2l-5.3-5.3L140.8,67.2z M134,74.1l7,3.2
		l1.7-1.7l-3.2-7l-2.1,2.1l1,2.2l-2.2-1L134,74.1z M130.3,77.7l5.3,5.3l2.2-2.2l-5.3-5.3L130.3,77.7z M117.6,90.4l3.4,7.1l2.3-2.3
		l-1.6-3.3l5.1-5.1l3.3,1.6l2.4-2.4l-7.1-3.4L123,85l1,0.5l-3.6,3.6l-0.5-1L117.6,90.4z M103.8,104.2l5.3,5.3l2.3-2.3l-4.8-4.8
		l2.8-2.8l6.9,2.7l2.5-2.5l-7.5-2.9c0-0.1,0.1-0.2,0.1-0.3L103.8,104.2z M89.3,118.7c1.7,1.5,3.5,2.4,5.7,2.5
		c2.1,0.1,3.7-0.9,5.2-2.4c1.6-1.6,1.9-3.7,1.6-4.8l1.7,1.1l1.5-1.5l-5.3-5.3l-5.3,5.3l0.2,0.2l3-3c1,1,1.6,1.9,1.6,3.3
		c0,0.9-0.3,1.8-1.2,2.6c-0.7,0.7-1.8,1.3-2.9,1.3c-1.3,0-2.6-0.8-3.6-1.7L89.3,118.7z M75.6,132.4c1.7,1.5,3.4,2.5,5.7,2.5
		c1.9,0,3.7-0.9,5.1-2.2c1.4-1.4,2.2-3.2,2.2-5.1c0-2.3-1-4-2.5-5.7l-2.3,2.3c0.9,1,1.7,2.2,1.7,3.5c0,1-0.4,2.1-1.2,2.8
		s-1.8,1.2-2.8,1.2c-1.3,0-2.5-0.8-3.5-1.7L75.6,132.4z M62.9,145.1l5.3,5.3l2.3-2.3l-4.8-4.8l2.8-2.8l6.9,2.7l2.5-2.5l-7.5-2.9
		c0-0.1,0.1-0.2,0.1-0.3L62.9,145.1z M50.1,157.9l5.3,5.3l2.3-2.3l-4.5-4.5l2.7-2.7c1.2-1.2,1.8-2.4,2.1-3.5L50.1,157.9z"/>
</g>
</svg>
