<?xml version="1.0" encoding="utf-8"?>
<!-- Generator: Adobe Illustrator 21.0.0, SVG Export Plug-In . SVG Version: 6.00 Build 0)  -->
<svg version="1.1" id="Ebene_1" xmlns="http://www.w3.org/2000/svg" xmlns:xlink="http://www.w3.org/1999/xlink" x="0px" y="0px"
	 viewBox="0 0 208.2 208.2" style="enable-background:new 0 0 208.2 208.2;" xml:space="preserve">
<style type="text/css">
	.st0{fill:#415682;}
	.st1{fill:#FBE27C;}
	.st2{clip-path:url(#SVGID_2_);fill:#FFFFFF;}
	.st3{clip-path:url(#SVGID_2_);fill:#1D1D1B;}
</style>
<polygon class="st0" points="0,0 0,208.2 208.2,0 "/>
<polygon class="st1" points="208.2,0 0,208.2 208.2,208.2 "/>
<g>
	<defs>
		<rect id="SVGID_1_" x="0" width="208.2" height="208.2"/>
	</defs>
	<clipPath id="SVGID_2_">
		<use xlink:href="#SVGID_1_"  style="overflow:visible;"/>
	</clipPath>
	<path class="st2" d="M41.7,164.5l-3.1,3.1l-3.8-3.8l3-3c1.3-1.3,3-1.2,4-0.2C43.1,161.8,43,163.2,41.7,164.5 M44.2,158.3
		c-2-2-5.3-2.6-8.3,0.5l-5.4,5.4l6.8,6.8l8.5-8.5C45.9,160.9,45.4,159.5,44.2,158.3 M52.7,155.5l-6.8-6.8l-2.3,2.3l6.8,6.8
		L52.7,155.5z M60.3,147.9l-6.8-6.8l-2.3,2.3l6.8,6.8L60.3,147.9z M71.3,136.9l-11.1-2.5l-2.5,2.5l6.8,6.8l2.3-2.3l-2.8-2.8l4.6,1.1
		L71.3,136.9z M74.7,133.5l-6.8-6.8l-2.3,2.3l6.8,6.8L74.7,133.5z M89.3,118.9c-0.2-0.2-0.3-0.3-0.5-0.5c-1.8-1.8-3.8-3.5-6.5-3.5
		c-1.7,0-3.5,0.8-4.9,2.2l-4.9,4.9l6.8,6.8l2.3-2.3l-4.7-4.7l2.6-2.6c0.7-0.7,1.6-1.1,2.5-1.1c1.8,0,3.3,1.5,4.5,2.6
		c0.2,0.2,0.3,0.3,0.5,0.5L89.3,118.9z M100.5,107.8l-6.8-6.8l-2.3,2.3l6.8,6.8L100.5,107.8z M108.1,100.1l-6.8-6.8L99,95.6l6.8,6.8
		L108.1,100.1z M118,90.2l-9.3-4.3l-3.1,3.1l6.8,6.8l2.2-2.2l-3.3-3.3l4.5,2.1L118,90.2z M125.1,83.1l-6.8-6.8l-3,3l4.3,9.4l2.1-2.1
		l-2-4.4l3.2,3.2L125.1,83.1z M137,71.2l-6.8-6.8l-2.3,2.3l6.8,6.8L137,71.2z M144.6,63.6l-6.8-6.8l-2.3,2.3l6.8,6.8L144.6,63.6z
		 M155.6,52.6l-11.1-2.5l-2.5,2.5l6.8,6.8l2.3-2.3l-2.8-2.8l4.6,1.1L155.6,52.6z M159,49.2l-6.8-6.8l-2.3,2.3l6.8,6.8L159,49.2z
		 M162,39.6c-0.5-0.5-0.6-0.9-0.6-1.5c0-1.1,0.6-2,1.4-2.8c0.7-0.7,1.8-1.3,2.6-1.3c0.6,0,1.3,0.3,1.8,0.7l2.4-2.4
		c-1.1-1-2.5-1.5-4-1.4c-1.7,0.1-3.4,0.9-4.8,2.3c-1.5,1.5-2.4,3.4-2.4,5.1c0,1.3,0.4,2.6,1.4,3.6c1.6,1.6,3.6,1.8,5.3,1.1l7.1-7.1
		c-1.5-0.2-3.1,0.3-4.4,1.3c-0.9,0.7-2.2,1.8-3.1,2.4C163.8,40.4,162.8,40.5,162,39.6"/>
	<path class="st3" d="M164.5,47.4c1.2,1.2,2.8,1.7,4.3,1.6c2-0.1,3.8-1.1,5.1-2.5c1.6-1.6,2.6-3.4,2.6-5.4c0-1.3-0.4-2.5-1.6-3.7
		c-0.8-0.8-1.8-1.3-2.7-1.4l-7.1,7.1c0.5-0.2,1-0.5,1.5-0.8c1-0.7,2.1-1.8,3.2-2.5c0.9-0.6,2.1-0.9,3,0c0.6,0.6,0.7,1.1,0.7,1.7
		c0,1-0.6,2-1.5,2.9c-0.7,0.7-1.7,1.5-2.8,1.5c-0.8,0-1.6-0.3-2.2-0.9L164.5,47.4z M152.9,55.3l9.6,2.2l2.4-2.4l-5.9-5.9l-2.3,2.3
		l1.8,1.8l-2.9-0.7L152.9,55.3z M148.9,59.4l5.9,5.9L157,63l-5.9-5.9L148.9,59.4z M134.7,73.5l1,1c3,3,6.8,3.4,10.1,0.1
		c3.3-3.3,2.9-7.1-0.1-10.1l-1-1l-2.3,2.3l1,1c1.8,1.8,2.2,3.9,0.4,5.7s-3.9,1.4-5.7-0.4l-1-1L134.7,73.5z M122.8,85.4l5.9,5.9
		L131,89l-5.9-5.9L122.8,85.4z M115.8,92.4l7.8,3.6l1.7-1.7l-3.6-7.8l-2.1,2.1l1.4,3l-3-1.4L115.8,92.4z M112.3,95.9l5.9,5.9
		l2.2-2.2l-5.9-5.9L112.3,95.9z M98.1,110.1l1,1c3,3,6.8,3.4,10.1,0.1c3.3-3.3,2.9-7.1-0.1-10.1l-1-1l-2.3,2.3l1,1
		c1.8,1.8,2.2,3.9,0.4,5.7c-1.8,1.8-3.9,1.4-5.7-0.4l-1-1L98.1,110.1z M79.3,128.9l5.9,5.9l4.9-4.9c1.4-1.5,2.2-3.2,2.2-4.9
		c0-2.4-1.5-4.3-3-6l-2.3,2.3c1.1,1.1,2.2,2.4,2.2,4c0,0.9-0.3,1.8-1.1,2.5l-2.6,2.6l-3.8-3.8L79.3,128.9z M68.6,139.6l9.6,2.2
		l2.4-2.4l-5.9-5.9l-2.3,2.3l1.8,1.8l-2.9-0.7L68.6,139.6z M64.5,143.7l5.9,5.9l2.3-2.3l-5.9-5.9L64.5,143.7z M51.4,158.9
		c3,3,6.8,3.4,10.1,0.1c3.3-3.3,2.9-7.1-0.1-10.1l-1-1l-2.3,2.3l1,1c1.8,1.8,2.2,3.9,0.4,5.7c-1.8,1.8-3.9,1.4-5.7-0.4l-1-1
		l-2.3,2.3L51.4,158.9z M37.3,170.9l5.9,5.9l2.3-2.3l-4.8-4.8l2.8-2.8l6.9,2.7l2.5-2.5l-7.5-2.9c0.3-0.6,0.4-1.2,0.4-1.8L37.3,170.9
		z"/>
</g>
</svg>
