<?xml version="1.0" encoding="utf-8"?>
<!-- Generator: Adobe Illustrator 21.0.0, SVG Export Plug-In . SVG Version: 6.00 Build 0)  -->
<svg version="1.1" id="Ebene_1" xmlns="http://www.w3.org/2000/svg" xmlns:xlink="http://www.w3.org/1999/xlink" x="0px" y="0px"
	 viewBox="0 0 208.1 208.1" style="enable-background:new 0 0 208.1 208.1;" xml:space="preserve">
<style type="text/css">
	.st0{fill:#FBFB83;}
	.st1{fill:#25B3C4;}
	.st2{clip-path:url(#SVGID_2_);fill:#1D1D1B;}
	.st3{clip-path:url(#SVGID_2_);fill:#FFFFFF;}
</style>
<polygon class="st0" points="1,-0.2 1,208 209.2,-0.2 "/>
<polygon class="st1" points="209.2,-0.2 1,208 209.2,208 "/>
<g>
	<defs>
		<rect id="SVGID_1_" x="1" y="-0.2" width="208.2" height="208.2"/>
	</defs>
	<clipPath id="SVGID_2_">
		<use xlink:href="#SVGID_1_"  style="overflow:visible;"/>
	</clipPath>
	<path class="st2" d="M32.7,176.3l-6.5-6.5l-2.3,2.3l5,5l-5.2,5.2l-5-5l-2.3,2.3l6.5,6.5L32.7,176.3z M35.1,165l6.7-6.7l-2.1-2.1
		l-9,9l6.5,6.5l8.2-8.2l-1.5-1.5l-5.9,5.9L35.1,165z M52.4,156.6l-6.5-6.5l-2.3,2.3l6.5,6.5L52.4,156.6z M59.5,140.7l6.5-6.5
		l-2.1-2.1l-8.8,8.8l6.5,6.5l8.1-8.1l-1-1l-5.8,5.8L59.5,140.7z M71.6,128.6l6.7-6.7l-2.1-2.1l-9,9l6.5,6.5L82,127l-1.5-1.5
		l-5.9,5.9L71.6,128.6z M93.1,115.9l-10.6-2.4l-2.5,2.5l6.5,6.5l2.3-2.3l-2.5-2.5l4.1,0.9L93.1,115.9z M96.7,112.3l-6.5-6.5
		l-2.3,2.3l6.5,6.5L96.7,112.3z M106.8,101.3c0.1-1.5-0.2-3-1.4-4.3c-2-2-5.1-1.9-7.5,0.5c-2.4,2.4-3,5.6-0.5,8.1l2.3-2.3
		c-1.2-1.2-1-2.6,0.1-3.7c1.1-1.1,2.5-1,3.2-0.2c0.6,0.6,0.6,1.3,0.6,2c-0.1,1.3-0.4,2.5,0.1,3.9l3-3
		C106.8,102,106.8,101.7,106.8,101.3 M127.1,81.9c-0.1-0.1-0.1-0.1-0.2-0.2c-1.8-1.8-3.8-3.5-6.5-3.5c-1.7,0-3.5,0.8-4.9,2.2
		l-4.9,4.9l6.5,6.5l2.3-2.3l-4.4-4.4l2.6-2.6c0.7-0.7,1.6-1.1,2.5-1.1c1.8,0,3.3,1.5,4.5,2.6c0.1,0.1,0.1,0.1,0.2,0.2L127.1,81.9z
		 M138.6,70.4l-8.8-4.2l-2.5,2.5l4.2,8.8l2.3-2.3l-2.4-4.9l4.9,2.4L138.6,70.4z M150.4,58.6l-10.6-2.4l-2.5,2.5l6.5,6.5l2.3-2.3
		l-2.5-2.5l4.1,0.9L150.4,58.6z M154,55l-6.5-6.5l-2.3,2.3l6.5,6.5L154,55z M165.7,43.3l-2.7-0.7l-0.7-8.9l-2.8,2.8l0.8,10.9
		l-5.9-5.9l-2.3,2.3l6.5,6.5L165.7,43.3z M173.2,32.9l-3-3l6.7-6.7l-2.1-2.1l-9,9l6.5,6.5l8.2-8.2l-1.5-1.5L173.2,32.9z M187.9,21.1
		l-2.3-2.8l-4-4l-2.3,2.3l4,4l2.8,2.3L187.9,21.1z"/>
	<path class="st3" d="M192,24.6l-2.4,2.4l2.4,2.4l2.4-2.4L192,24.6z M186.1,22.9l2.6,2.1l1.3-1.3l-2.1-2.6L186.1,22.9z M172.3,36.7
		l6.2,6.2l9-9l-2.1-2.1l-6.7,6.7l-3.5-3.5l5.9-5.9l-0.6-0.6L172.3,36.7z M158.6,50.4l6.2,6.2l2.3-2.3l-3.4-3.4l-0.4-4.7l9.4,2.6
		l2.7-2.7l-9.8-2.6L158.6,50.4z M147.7,61.3l10.1,2.3l2.4-2.4L154,55l-2.3,2.3l2.1,2.1l-3.4-0.8L147.7,61.3z M143.8,65.2l6.2,6.2
		l2.3-2.3l-6.2-6.2L143.8,65.2z M131.5,77.5l4,8.4l2.3-2.3l-1.6-3.3l5.1-5.1l3.3,1.6l2.4-2.4l-8.4-4l-2.4,2.4l2.2,1.1l-3.6,3.6
		l-1.1-2.2L131.5,77.5z M117.1,91.9l6.2,6.2l4.9-4.9c1.5-1.5,2.2-3.2,2.2-4.9c0-2.6-1.6-4.6-3.3-6.3l-2.3,2.3
		c1.1,1.1,2.5,2.6,2.5,4.3c0,0.9-0.3,1.8-1.1,2.5l-2.6,2.6l-4.1-4.1L117.1,91.9z M109.4,107l-2.5,2.5l2.5,2.5l2.5-2.5L109.4,107z
		 M103.7,105.3c0.1,0.4,0.3,0.7,0.5,1.1c0.4,0.6,1.1,1.3,1.6,1.8l2.2-2.2l-0.5-0.5c-1.1-1.1-1-2-0.9-3.2L103.7,105.3z M90.4,118.6
		l10.1,2.3l2.4-2.4l-6.2-6.2l-2.3,2.3l2.1,2.1l-3.4-0.8L90.4,118.6z M86.6,122.4l6.2,6.2l2.3-2.3l-6.2-6.2L86.6,122.4z M73.7,135.3
		l6.2,6.2l9-9l-2.1-2.1l-6.7,6.7l-3.5-3.5l5.9-5.9L82,127L73.7,135.3z M61.6,147.4l6.2,6.2l2.3-2.3l-5.1-5.1l5.8-5.8l-1.1-1.1
		L61.6,147.4z M50.1,158.9l6.2,6.2l8.2-8.2l-2.2-2.2l-5.9,5.9l-4-4L50.1,158.9z M37.2,171.8l6.2,6.2l9-9l-2.1-2.1l-6.7,6.7l-3.5-3.5
		l5.9-5.9l-0.6-0.6L37.2,171.8z M22.8,186.2l6.2,6.2l2.3-2.3l-5.5-5.5l5.2-5.2l5.5,5.5l2.3-2.3l-6.2-6.2L22.8,186.2z"/>
</g>
</svg>
