<?xml version="1.0" encoding="utf-8"?>
<!-- Generator: Adobe Illustrator 21.0.0, SVG Export Plug-In . SVG Version: 6.00 Build 0)  -->
<svg version="1.1" id="Ebene_1" xmlns="http://www.w3.org/2000/svg" xmlns:xlink="http://www.w3.org/1999/xlink" x="0px" y="0px"
	 viewBox="0 0 507.6 507.6" style="enable-background:new 0 0 507.6 507.6;" xml:space="preserve">
<style type="text/css">
	.st0{fill:#FBE27C;}
	.st1{fill:#25B3C4;}
	.st2{clip-path:url(#SVGID_2_);fill:#FFFFFF;}
	.st3{clip-path:url(#SVGID_2_);fill:#1D1D1B;}
</style>
<polygon class="st0" points="0,0 0,507.6 507.6,507.6 "/>
<polygon class="st1" points="0,0 507.6,507.6 507.6,0 "/>
<g>
	<defs>
		<rect id="SVGID_1_" width="507.6" height="507.6"/>
	</defs>
	<clipPath id="SVGID_2_">
		<use xlink:href="#SVGID_1_"  style="overflow:visible;"/>
	</clipPath>
	<path class="st2" d="M215.6,215.7l27.5,27.5C240.8,225.6,232.1,216.4,215.6,215.7 M279.4,214.3h-19.6v45.6l19.6,19.6V214.3z
		 M378.7,368.5h-10.1v0.2l10.1,10.1V368.5z M145.5,118.3l18.1-36.1h-16.2l-16.2,37.8c-0.6,1.3-1.3,3.7-2.2,6.9V82.1h-16.3v30.5
		l22.3,22.3l0.1-0.2l0.1,0.3l21.5,21.5L145.5,118.3z M188,188h35.2v-15.3h-25.3V82.1h-16.2v99.5L188,188z M250.9,120.4v-10.8
		c0-8.3,2.2-12.4,8.7-12.4c6.3,0,8.5,4.1,8.5,12.4v10.8H250.9z M288.5,157.4v-7.9h-20.3v7.3c0,9.8-0.6,14.8-8.7,14.8
		c-6.9,0-8.5-4.9-8.5-14.8v-19.9h37.6v-27c0-20.5-10.4-31.1-28-31.1c-17.3,0-29.9,12.4-29.9,31.1v47.5c0,20.9,11.2,32.7,28.4,32.7
		C278.5,190.1,288.5,179.1,288.5,157.4 M318.9,214.3h-19.6v85.1l18.6,18.6c0.6-3.2,1-6.7,1-10.5V214.3z M302.4,188h16.6V82.1h-16.6
		V188z M394.5,214.3h-59.3v18h19.9v106.5h19.2V232.2h20.1V214.3z M379.6,188h15.3V82.1h-15.3v60.3c0,1.8,0.4,6.7,1.8,14.2
		c-1.6-6.6-2.8-10.3-3.1-11.2l-20.7-63.3h-14.7V188h15.1v-55.3c0-2.2-0.6-7.2-1.8-14.7c1.2,5.1,2.5,8.8,3.4,11.5L379.6,188z"/>
	<path class="st3" d="M181.6,188h6.4l-6.4-6.4V188z M148.8,188h16.9l-9.1-31.4l-21.5-21.5L148.8,188z M368.6,368.7v65.8h25.9v-9.5
		h-15.8v-46.2L368.6,368.7z M335.6,417.5c0-7.1,3.2-11.1,11.2-16.3v16.6c-1.8,3.8-4.9,5.9-7.5,5.9
		C337,423.8,335.6,421.6,335.6,417.5 M323.3,420.6c0,9.2,3.9,14.2,10.5,14.2c4.6,0,9.5-2.7,13.4-8.1c0.1,2.8,0.4,5.3,1.1,7.3h12
		c-0.6-2.7-1.1-8.9-1.1-18.4v-27.4c0-13.3-4.9-20.1-16-20.1c-10.1,0-18,7.4-18,18.4c0,0.6,0.1,1.1,0.1,1.7h12.1v-3.6
		c0-3.2,2-5.4,5.4-5.4c2.7,0,4.1,2.1,4.1,5.9v6.9C330.7,400.6,323.3,407.5,323.3,420.6 M294.6,368.5h-9.9l11.8,66h10.7l11.7-66h-10
		l-5.9,39.1c-0.5,3.3-0.9,8.2-1.1,15v-1.2c0-5.7-0.6-10.2-1.1-13.7L294.6,368.5z M274.2,368.5h-10.4v66h10.4V368.5z M259.8,259.8v47
		c0,22.8,10.6,34.6,29.6,34.6c15.4,0,25.5-8.2,28.5-23.5l-18.6-18.6v11.4c0,7.6-3.9,11.8-9.7,11.8c-5.8,0-10.2-4.2-10.2-11.8v-31.3
		L259.8,259.8z M254.5,368.5h-31.4v9.5h10.6v56.5h10.2V378h10.7V368.5z M194.2,416.2l-9.7,1.5c0.5,11.6,6.9,18.2,16.8,18.2
		c9.1,0,15.8-6.7,15.8-16.5c0-9.2-4.4-14.1-11.4-20.9c-5.8-5.6-10.2-9.6-10.2-15.6c0-3.7,2.2-6.1,5.4-6.1c3.7,0,5.2,2.5,5.6,8.2
		l9.9-1.4c-0.7-10.3-6.8-16.4-15.2-16.4c-8.6,0-15.8,7-15.8,16.5c0,8.7,5.2,14.1,12.6,21.5c5.4,5.4,9.2,8.8,9.2,14.3
		c0,3.8-2.5,6.4-6.3,6.4C196.7,426.1,194.6,422.9,194.2,416.2 M199.4,308.8c0-13.5,6-20.9,21.2-30.7v31.4
		c-3.5,7.2-9.3,11.2-14.2,11.2C201.9,320.7,199.4,316.5,199.4,308.8 M176.1,314.7c0,17.4,7.4,26.7,19.8,26.7
		c8.6,0,17.9-5.1,25.3-15.3c0.2,5.3,0.7,10,2.1,13.7h22.6c-1.2-5.1-2.1-16.7-2.1-34.6v-51.6c0-3.7-0.2-7.2-0.6-10.3l-27.5-27.5
		c-0.7,0-1.4-0.1-2.1-0.1c-19.1,0-34,14-34,34.6c0,1.2,0.2,2.1,0.2,3.3h22.8v-6.7c0-6,3.7-10.2,10.2-10.2c5.1,0,7.7,4,7.7,11.2v13
		C190.1,277,176.1,290,176.1,314.7 M156.8,386.5c0-5.2,1.4-7.7,5.4-7.7c3.9,0,5.3,2.5,5.3,7.7v6.7h-10.8V386.5z M144.1,386.6v29.6
		c0,13,7,20.4,17.7,20.4c12.2,0,18.4-6.8,18.4-20.4v-4.9h-12.7v4.6c0,6.1-0.4,9.2-5.4,9.2c-4.3,0-5.3-3-5.3-9.2v-12.4h23.4v-16.9
		c0-12.8-6.5-19.4-17.5-19.4C152,367.2,144.1,374.9,144.1,386.6 M139.2,368.5h-26.5v66h10.2v-29.6h11.8v-9.5h-11.8V378h16.4V368.5z
		 M131.7,214.3h-19v124.5h48.9v-18h-29.8V214.3z M112.6,112.7V188H129v-41.2l5.9-11.8L112.6,112.7z"/>
	<path class="st2" d="M394.5,43.8v-2.2h-10.5v2.5h7.6l-6,12.8h3L394.5,43.8z M373.5,56.9V41.6h-2.4l-3.8,2.7v3l3.4-2.4v12H373.5z
		 M355.7,49.3c0,2,0.2,5.4-2.6,5.4s-2.6-3.4-2.6-5.4c0-2-0.2-5.4,2.6-5.4S355.7,47.3,355.7,49.3 M358.5,49.3c0-2.5-0.2-5.1-1.8-6.6
		c-0.8-0.8-1.9-1.4-3.6-1.4s-2.8,0.6-3.6,1.4c-1.6,1.5-1.8,4.1-1.8,6.6s0.2,5.1,1.8,6.6c0.8,0.8,1.9,1.4,3.6,1.4s2.8-0.6,3.6-1.4
		C358.3,54.3,358.5,51.8,358.5,49.3 M339.9,56.9v-2.5h-6.1l4.2-5.1c0.9-1,1.7-2.4,1.7-3.7c0-2.7-2.1-4.3-4.7-4.3
		c-3.1,0-4.9,1.9-4.9,4.6h2.8c0-1.2,0.7-2.2,2-2.2c1.3,0,1.9,0.8,1.9,1.9c0,0.6-0.3,1.3-0.8,2l-6,7.1v2.2H339.9z M311.4,41.3h-2.9
		v15.6h2.9V41.3z M301,56.9v-2.7h-7.2V41.3h-2.8v15.6H301z M282.2,50.9v-9.6h-2.8v9.6c0,2.2-1,3.7-3.3,3.7s-3.3-1.5-3.3-3.7v-9.6
		h-2.8v9.6c0,3.7,2.1,6.3,6.1,6.3S282.2,54.6,282.2,50.9 M261.7,52.4v-11h-2.8v11.3c0,1.3-0.6,2.1-1.9,2.1c-0.6,0-1.1-0.2-1.4-0.6
		c-0.5-0.5-0.6-1.3-0.6-2.1h-2.8c0,1.7,0.4,3,1.4,3.9c0.8,0.8,1.8,1.3,3.3,1.3C259.9,57.2,261.7,55.3,261.7,52.4 M236.7,53.5h-3.3
		v3.4h3.3V53.5z M222.3,46.7c0,1.6-0.9,2.9-2.4,2.9c-1.7,0-2.5-1.3-2.5-2.9c0-1.8,0.8-3,2.5-3C221.5,43.8,222.3,45.1,222.3,46.7
		 M225.3,49c0-1-0.1-1.9-0.2-2.9c-0.5-2.8-2.3-4.8-5.2-4.8c-3.5,0-5.3,2.3-5.3,5.3c0,3.1,1.7,5.2,5,5.2c0.9,0,2.2-0.3,2.9-1.1
		c0,1.3-0.2,2.7-1.1,3.5c-0.4,0.4-0.8,0.6-1.5,0.6c-0.7,0-1.3-0.2-1.6-0.5c-0.3-0.3-0.5-0.7-0.5-1.2h-2.8c0,0.9,0.4,2,1.3,2.8
		c0.8,0.7,1.9,1.3,3.5,1.3c1.8,0,2.9-0.7,3.7-1.5C225.2,54,225.3,51.2,225.3,49 M206.9,56.9v-2.5h-6.1l4.2-5.1
		c0.9-1,1.7-2.4,1.7-3.7c0-2.7-2.1-4.3-4.7-4.3c-3.1,0-4.9,1.9-4.9,4.6h2.8c0-1.2,0.7-2.2,2-2.2c1.3,0,1.9,0.8,1.9,1.9
		c0,0.6-0.3,1.3-0.8,2l-6,7.1v2.2H206.9z M178.9,48.9H167v2.5h11.9V48.9z M149.6,53.5h-3.3v3.4h3.3V53.5z M135.5,52.4
		c0,1.4-1,2.3-2.5,2.3c-1.5,0-2.5-0.9-2.5-2.3c0-1.3,0.9-2.3,2.5-2.3C134.6,50.2,135.5,51.2,135.5,52.4 M135.2,45.7
		c0,1.1-0.7,2-2.2,2c-1.5,0-2.2-0.9-2.2-2c0-1.1,0.7-2,2.2-2C134.4,43.7,135.2,44.6,135.2,45.7 M138.3,52.6c0-1.5-0.8-3-2.2-3.7
		c1.1-0.6,1.9-2,1.9-3.3c0-2.9-2.3-4.4-5-4.4c-2.7,0-5,1.5-5,4.4c0,1.3,0.8,2.7,1.9,3.3c-1.5,0.7-2.2,2.1-2.2,3.7
		c0,3,2.5,4.6,5.3,4.6S138.3,55.6,138.3,52.6 M119.8,56.9v-2.5h-6.1l4.2-5.1c0.9-1,1.7-2.4,1.7-3.7c0-2.7-2.1-4.3-4.7-4.3
		c-3.1,0-4.9,1.9-4.9,4.6h2.8c0-1.2,0.7-2.2,2-2.2c1.3,0,1.9,0.8,1.9,1.9c0,0.6-0.3,1.3-0.8,2l-6,7.1v2.2H119.8z"/>
	<path class="st3" d="M395.2,470.1v-8.5h-6.5v2.4h3.7c0,1.2-0.2,2.2-1,3c-0.5,0.5-1.3,0.9-2.3,0.9c-0.9,0-1.9-0.3-2.5-1
		c-1.1-1.1-1.2-3.1-1.2-4.6s0.1-3.4,1.2-4.5c0.6-0.7,1.7-1.1,2.6-1.1c1.1,0,1.9,0.3,2.5,0.9c0.3,0.4,0.6,0.8,0.7,1.4h2.9
		c-0.1-1.4-0.7-2.4-1.4-3.1c-1.1-1.1-2.7-1.8-4.6-1.8c-1.7,0-3.5,0.6-4.6,1.8c-1.7,1.7-2,3.7-2,6.3s0.4,4.6,2,6.3
		c1.2,1.3,2.8,1.8,4.6,1.7c2,0,3.5-1.1,3.9-2l0.3,1.7H395.2z M374.7,470.1v-8.5h-6.5v2.4h3.7c0,1.2-0.2,2.2-1,3
		c-0.5,0.5-1.3,0.9-2.3,0.9c-0.9,0-1.9-0.3-2.5-1c-1.1-1.1-1.2-3.1-1.2-4.6s0.1-3.4,1.2-4.5c0.6-0.7,1.6-1.1,2.6-1.1
		c1.1,0,1.9,0.3,2.5,0.9c0.3,0.4,0.6,0.8,0.7,1.4h2.9c-0.1-1.4-0.7-2.4-1.4-3.1c-1.1-1.1-2.7-1.8-4.6-1.8c-1.7,0-3.5,0.6-4.6,1.8
		c-1.7,1.7-2,3.7-2,6.3s0.4,4.6,2,6.3c1.2,1.3,2.8,1.8,4.6,1.7c2,0,3.5-1.1,3.9-2l0.3,1.7H374.7z M354.1,464.1v-9.6h-2.8v9.6
		c0,2.2-1,3.7-3.3,3.7c-2.3,0-3.3-1.5-3.3-3.7v-9.6h-2.8v9.6c0,3.7,2.1,6.3,6.1,6.3S354.1,467.8,354.1,464.1 M331.5,459.3
		c0,1.5-0.9,2.3-2.5,2.3h-3.8v-4.7h3.7C330.5,456.9,331.5,458,331.5,459.3 M334.3,470.1l-2.9-6.4c1.7-0.6,2.9-2.3,2.9-4.4
		c0-2.5-1.7-4.8-5.4-4.8h-6.6v15.6h2.9v-5.9h3.5l2.6,5.9H334.3z M311.3,465.5c0,1.6-1.4,2.1-2.8,2.1H305v-4.3h3.6
		C310.1,463.2,311.3,463.8,311.3,465.5 M311,458.9c0,1.5-1.1,1.9-2.4,1.9H305v-3.9h3.5C309.8,456.9,311,457.4,311,458.9
		 M314.2,465.5c0-1.5-0.8-2.8-2.2-3.5c1.3-0.6,1.9-2,1.9-3.3c0-1.3-0.7-2.6-1.8-3.4c-1.1-0.7-2.4-0.9-3.6-0.9h-6.2v15.6h6.2
		c1.5,0,2.9-0.1,4.2-1.1C313.7,468.2,314.2,466.9,314.2,465.5 M284.4,469.8v-3.2H281v3.4h1.6c0,1.2-0.2,1.9-1.5,2.5l0.8,1.3
		C283.8,473,284.4,471.7,284.4,469.8 M272.1,470.1v-15.6h-2.8V465l-6.7-10.6h-3v15.6h2.8v-10.7l6.8,10.7H272.1z M251.5,470.1v-2.6
		h-8.3v-4.3h7.3v-2.6h-7.3V457h8.3v-2.6h-11.1v15.6H251.5z M233,470.1l-5.6-9.7l5-5.9H229l-6.2,7.2v-7.2h-2.8v15.6h2.8v-4.2l2.7-3.1
		l4.2,7.4H233z M210.8,454.5h-2.9v15.6h2.9V454.5z M198.8,470.1v-15.6H196V465l-6.7-10.6h-3v15.6h2.8v-10.7l6.8,10.7H198.8z
		 M177.1,454.5h-2.9v15.6h2.9V454.5z M163.4,459.3c0,1.5-0.9,2.3-2.5,2.3h-3.8v-4.7h3.7C162.4,456.9,163.4,458,163.4,459.3
		 M166.2,470.1l-2.9-6.4c1.7-0.6,2.9-2.3,2.9-4.4c0-2.5-1.7-4.8-5.4-4.8h-6.6v15.6h2.9v-5.9h3.5l2.6,5.9H166.2z M135,470.1v-15.6
		h-2.8V465l-6.7-10.6h-3v15.6h2.8v-10.7l6.8,10.7H135z M113.4,454.5h-2.9v15.6h2.9V454.5z"/>
</g>
</svg>
