<?xml version="1.0" encoding="utf-8"?>
<!-- Generator: Adobe Illustrator 21.0.0, SVG Export Plug-In . SVG Version: 6.00 Build 0)  -->
<svg version="1.1" id="Ebene_1" xmlns="http://www.w3.org/2000/svg" xmlns:xlink="http://www.w3.org/1999/xlink" x="0px" y="0px"
	 viewBox="0 0 113.9 113.9" style="enable-background:new 0 0 113.9 113.9;" xml:space="preserve">
<style type="text/css">
	.st0{fill:#FFFFFF;}
	.st1{fill:#1D1D1B;}
	.st2{clip-path:url(#SVGID_2_);fill:#FFFFFF;}
	.st3{clip-path:url(#SVGID_2_);fill:#1D1D1B;}
</style>
<polygon class="st0" points="0,0 0,113.9 113.9,113.9 "/>
<polygon class="st1" points="0,0 112.8,112.5 0,112.5 0,113.9 113.9,113.9 113.9,0 "/>
<g>
	<defs>
		<rect id="SVGID_1_" y="0" width="113.9" height="113.9"/>
	</defs>
	<clipPath id="SVGID_2_">
		<use xlink:href="#SVGID_1_"  style="overflow:visible;"/>
	</clipPath>
	<path class="st2" d="M48.4,48.4l6.2,6.2C54,50.6,52.1,48.5,48.4,48.4 M62.7,48.1h-4.4v10.2l4.4,4.4V48.1z M84.9,82.6h-2.3v0
		l2.3,2.3V82.6z M32.6,26.5l4.1-8.1h-3.6l-3.6,8.5c-0.1,0.3-0.3,0.8-0.5,1.5v-10h-3.7v6.8l5,5l0,0l0,0.1l4.8,4.8L32.6,26.5z
		 M42.2,42.2H50v-3.4h-5.7V18.4h-3.6v22.3L42.2,42.2z M56.3,27v-2.4c0-1.9,0.5-2.8,2-2.8c1.4,0,1.9,0.9,1.9,2.8V27H56.3z M64.7,35.3
		v-1.8h-4.6v1.6c0,2.2-0.1,3.3-2,3.3c-1.5,0-1.9-1.1-1.9-3.3v-4.5h8.4v-6.1c0-4.6-2.3-7-6.3-7c-3.9,0-6.7,2.8-6.7,7v10.7
		c0,4.7,2.5,7.3,6.4,7.3C62.5,42.6,64.7,40.2,64.7,35.3 M71.5,48.1h-4.4v19.1l4.2,4.2c0.1-0.7,0.2-1.5,0.2-2.4V48.1z M67.8,42.2h3.7
		V18.4h-3.7V42.2z M88.5,48.1H75.2v4h4.5V76H84V52.1h4.5V48.1z M85.2,42.2h3.4V18.4h-3.4v13.5c0,0.4,0.1,1.5,0.4,3.2
		c-0.4-1.5-0.6-2.3-0.7-2.5l-4.6-14.2h-3.3v23.7h3.4V29.8c0-0.5-0.1-1.6-0.4-3.3c0.3,1.1,0.6,2,0.8,2.6L85.2,42.2z"/>
	<path class="st3" d="M40.7,42.2h1.4l-1.4-1.4V42.2z M33.4,42.2h3.8l-2-7l-4.8-4.8L33.4,42.2z M82.7,82.7v14.8h5.8v-2.1h-3.5V85
		L82.7,82.7z M75.3,93.6c0-1.6,0.7-2.5,2.5-3.6v3.7c-0.4,0.9-1.1,1.3-1.7,1.3C75.6,95.1,75.3,94.6,75.3,93.6 M72.5,94.3
		c0,2.1,0.9,3.2,2.3,3.2c1,0,2.1-0.6,3-1.8c0,0.6,0.1,1.2,0.2,1.6h2.7c-0.1-0.6-0.2-2-0.2-4.1v-6.1c0-3-1.1-4.5-3.6-4.5
		c-2.3,0-4,1.7-4,4.1c0,0.1,0,0.2,0,0.4h2.7v-0.8c0-0.7,0.4-1.2,1.2-1.2c0.6,0,0.9,0.5,0.9,1.3v1.5C74.2,89.9,72.5,91.4,72.5,94.3
		 M66.1,82.6h-2.2l2.6,14.8h2.4l2.6-14.8h-2.2L68,91.4c-0.1,0.7-0.2,1.8-0.3,3.4v-0.3c0-1.3-0.1-2.3-0.3-3.1L66.1,82.6z M61.5,82.6
		h-2.3v14.8h2.3V82.6z M58.3,58.3v10.5c0,5.1,2.4,7.8,6.6,7.8c3.5,0,5.7-1.8,6.4-5.3l-4.2-4.2v2.6c0,1.7-0.9,2.7-2.2,2.7
		c-1.3,0-2.3-1-2.3-2.7v-7L58.3,58.3z M57.1,82.6h-7v2.1h2.4v12.7h2.3V84.8h2.4V82.6z M43.6,93.4l-2.2,0.3c0.1,2.6,1.6,4.1,3.8,4.1
		c2,0,3.5-1.5,3.5-3.7c0-2.1-1-3.2-2.6-4.7c-1.3-1.3-2.3-2.2-2.3-3.5c0-0.8,0.5-1.4,1.2-1.4c0.8,0,1.2,0.6,1.3,1.8l2.2-0.3
		c-0.2-2.3-1.5-3.7-3.4-3.7c-1.9,0-3.5,1.6-3.5,3.7c0,1.9,1.2,3.2,2.8,4.8c1.2,1.2,2.1,2,2.1,3.2c0,0.9-0.6,1.4-1.4,1.4
		C44.1,95.6,43.7,94.8,43.6,93.4 M44.7,69.3c0-3,1.4-4.7,4.7-6.9v7c-0.8,1.6-2.1,2.5-3.2,2.5C45.3,71.9,44.7,71,44.7,69.3
		 M39.5,70.6c0,3.9,1.7,6,4.4,6c1.9,0,4-1.1,5.7-3.4c0.1,1.2,0.2,2.2,0.5,3.1h5.1c-0.3-1.1-0.5-3.8-0.5-7.8V56.9
		c0-0.8-0.1-1.6-0.1-2.3l-6.2-6.2c-0.2,0-0.3,0-0.5,0c-4.3,0-7.6,3.1-7.6,7.8c0,0.3,0.1,0.5,0.1,0.7h5.1v-1.5c0-1.4,0.8-2.3,2.3-2.3
		c1.1,0,1.7,0.9,1.7,2.5v2.9C42.6,62.1,39.5,65,39.5,70.6 M35.2,86.7c0-1.2,0.3-1.7,1.2-1.7c0.9,0,1.2,0.6,1.2,1.7v1.5h-2.4V86.7z
		 M32.3,86.7v6.6c0,2.9,1.6,4.6,4,4.6c2.7,0,4.1-1.5,4.1-4.6v-1.1h-2.8v1c0,1.4-0.1,2.1-1.2,2.1c-1,0-1.2-0.7-1.2-2.1v-2.8h5.3v-3.8
		c0-2.9-1.4-4.3-3.9-4.3C34.1,82.4,32.3,84.1,32.3,86.7 M31.2,82.6h-6v14.8h2.3v-6.6h2.6v-2.1h-2.6v-3.9h3.7V82.6z M29.5,48.1h-4.3
		V76h11v-4h-6.7V48.1z M25.3,25.3v16.9h3.7v-9.2l1.3-2.7L25.3,25.3z"/>
</g>
</svg>
