<?xml version="1.0" encoding="utf-8"?>
<!-- Generator: Adobe Illustrator 21.0.0, SVG Export Plug-In . SVG Version: 6.00 Build 0)  -->
<svg version="1.1" id="Ebene_1" xmlns="http://www.w3.org/2000/svg" xmlns:xlink="http://www.w3.org/1999/xlink" x="0px" y="0px"
	 viewBox="0 0 132.2 27.7" style="enable-background:new 0 0 132.2 27.7;" xml:space="preserve">
<style type="text/css">
	.st0{clip-path:url(#SVGID_2_);fill:#1D1D1B;}
</style>
<g>
	<defs>
		<rect id="SVGID_1_" width="132.2" height="27.7"/>
	</defs>
	<clipPath id="SVGID_2_">
		<use xlink:href="#SVGID_1_"  style="overflow:visible;"/>
	</clipPath>
	<path class="st0" d="M45.5,7l-0.7-0.3c-1,0.2-2.4,0-2.9,0.8c0.4,0.5,0.2,1.3,0.6,1.8C44,9.7,45.9,8.8,45.5,7 M46.9,14.6
		c0.8-1.4-0.3-3.7-2-3.3c-0.6-0.2-1.2,0.3-1.8,0.2c-0.7,1,0.3,2.2,0.1,3.4c0.3,1.2,1.5,0.7,2.2,0.7C45.8,15.2,46.6,14.7,46.9,14.6
		 M47.2,10C47.2,10,47.3,10,47.2,10C47.3,10,47.3,9.9,47.2,10C47.2,9.9,47.2,10,47.2,10 M53.6,14.5c1-2.6,0.1-5.7-1.6-7.9
		c-0.2-0.2-0.4-0.1-0.7-0.2c-1.7,0.4-1.7,2.3-2,3.7c-0.1,1.5,0.7,2.9,1.2,4.3c0.5,0.5,1.1,1,1.9,0.9C52.9,15,53.2,14.7,53.6,14.5
		 M59.4,16.8c-0.2,0-0.5,0-0.7,0c-0.5,0.3-0.3,0.9-0.4,1.4C59.1,19,60.8,17.3,59.4,16.8 M63.1,16.7c0.5,0.4,1.1-0.4,1.5,0.3
		c0.1,1.1-1.1,0.5-1.6,0.7c-0.9,1.6,0.8,1.8,1.9,1.9c0,1.2-1.8,0.5-2.7,0.7c-0.1-0.2-0.3-0.2-0.4-0.4c0.6-1.8-1.2-6.1,2.1-5.2
		C67.1,15.9,61.4,14.7,63.1,16.7 M60.9,18.5c-0.1,0.4-0.6,0.5-0.7,0.8c-0.1,0.8,1.7,2.6-0.2,2.6c-0.9-3.9-1.5-0.5-2.8-0.3
		c-0.1-1.9,0.3-3.8,0.2-5.7c0.1-0.3,0.7-0.6,0.9-0.1C59.8,15.2,62,16.8,60.9,18.5 M56.3,12.8c-0.2,0.7-0.3,1.5-0.6,2.2
		c-1.2,3-4.9,2.4-6.8,0.5c-0.5,0.7-1.4,1.1-1.7,1.9c-2,0-4.3,2.3-6,0.4c-0.3-1.9-0.5-3.9-0.9-5.8c-0.2-1.9-0.8-4-0.9-6
		c0-0.3,0.3-0.5,0.5-0.7c1.9-0.1,3.8-0.9,5.6-0.4C46.8,5.2,47.4,6,47.7,7c0.5-1.3,2.3-1.4,3-1.8c1.7-0.7,3.3,0.9,4.4,2
		C55.9,8.8,56.3,10.9,56.3,12.8 M67.2,18.6c0.2-0.4,0.4-0.8,0.6-1.2c0.5,0.2,1,0.4,1.5,0.4c0.1-0.9-0.6-0.8-1.3-0.9
		c1.9-5.5,0-9.8-3.8-12.6c0,0.6,0,1.2,0.2,2.2c-0.2,2.1,1.4,3.7,0.4,5.8c-0.4,0.1-0.5,0.8-0.6,1.2c-1.7,0.3-3.5,1.8-5.1,0.6
		c-0.7-0.5-1.2-1.3-1.5-2.2c0.1-3.1-1.1-7.5,0.9-9.3c1.1,2.7,1,6.3,1.6,9.4c0.6,1.3,1.8,0.7,2.5,0.2c0.1-0.3,0.3-0.6,0.5-0.9
		c-0.4-1.2,0.3-2.5,0-3.6c0-1.1-0.1-2.1-0.6-3.1c0.1-0.3,0.1-0.8,0-1.2C58.9,1.1,54.2,0,49.3,0C37.6,0,36.1,8.7,19.8,11
		c-0.2,0.3,1.6,0.3-19.8,0.6v1.9c9.1,0.1,13.6-0.4,16.9,0c6.8-0.3,12.7-1.1,14.3,0.6c12.8,13.7,25.3,9.3,27.9,8.5
		c0.4-0.1-0.2,0.3-0.2,0.6c-13.9,7-25.3-6.1-30.4-7.3c-13.1-1.6-11.7-0.3-12.8-0.3c-1.3,0.1-2,0.2-2,0.1c0,0-0.1,0-0.1,0
		c-0.1,0-0.5,0-1.2,0.1C8.4,15.9,4.2,16.2,0,16.5v2.3c12.4-0.4,18.3-2.7,19-2.6c11.6,1.5,17.8,6.3,18.7,7c2.2,1.8,5.9,2.5,7.8,3.1
		c6.9,0.2,16.4-0.7,21-6.7c0.2,0.2,0.5,0.4,0.8,0.5c0.3,0,0.5-0.1,0.6-0.2c2.3,1.9-1.3,2.9-2.1,1c-0.3,0.1-0.1,0.5-0.2,0.7
		c0.4,0.4,0.3,1.1,0.9,1.3c1.8,1,4.4-0.8,3.1-2.8C69.3,19.2,67.9,19.1,67.2,18.6"/>
	<path class="st0" d="M109.6,18c-0.1,0-0.1,0-0.2,0c-0.2,0.2,0,0.5-0.2,0.6c0.1,0.5,0.1,0.9,0.1,1.4c-0.7-0.1-1.5-0.2-1.8,0.5
		c0,0.1,0,0.1,0,0.2c0.2,0.2,0.5,0,0.6,0.2c0.4-0.1,0.7-0.1,1.1-0.1c0,0.7,0,1.3,0.4,1.9c0.9-0.2,0.2-1.1,0.5-1.7c0,0,0-0.1,0-0.1
		c0.7,0.1,1.4,0,2-0.4c-0.2-0.9-1.1-0.2-1.7-0.5c-0.2,0-0.3,0.1-0.5,0.1C110.1,19.3,110.3,18.4,109.6,18"/>
	<path class="st0" d="M118.1,23.9c0.1-0.6-0.4-1.2-0.1-1.7c0.3,0,0.6-0.2,0.9-0.1c0.9-0.2,1.4,0.9,1,1.6c-0.2,0-0.6,0.3-0.8,0.5
		C118.8,24.2,118.2,24.4,118.1,23.9 M117.7,21.1c-0.2-0.3-0.1-0.7-0.3-0.9c0.2-0.4,1-0.3,1.5-0.4l0.3,0.2
		C119.4,20.8,118.5,21.3,117.7,21.1 M120.1,25.1c0.2-0.6,1.2-0.8,1-1.6c-0.2-0.7-0.1-1.6-0.8-2.1c-0.1,0-0.2,0-0.2,0
		c0.5-0.9,0.3-2.3-0.8-2.5c-0.9-0.3-1.9,0.1-2.8,0.2c-0.1,0.1-0.2,0.2-0.2,0.4c0,1,0.4,2,0.4,3c0.2,0.9,0.3,1.9,0.4,2.9
		C118,26.2,119.1,25.1,120.1,25.1"/>
	<path class="st0" d="M72.3,21c0.1-1.2-0.2-2.3-0.1-3.5c0.2-0.5,0.7-1.1,1.1-1.3c-1.5-0.3-1.3,0.3-2.7-0.1c-0.3,0.1-1,0.4-0.5,0.8
		c0.4,0.2,0.9-0.3,1.3,0.1C71.6,18.3,70.3,23.3,72.3,21"/>
	<path class="st0" d="M104,25c0.8-1.5-0.4-3.1-0.2-4.7c2.4-2.2-1.8-0.8-1.8-0.9c-2.2,1.1,0.5,0.4,0.7,0.8c0.4,1.1,0.6,3.1,0.7,4.4
		C103.4,24.8,103.8,24.9,104,25"/>
	<path class="st0" d="M97.3,21c-1-0.9-2-2.6-3.3-2.6c0.1,1.8,0.6,5.1,2,5c0-1-0.6-1.9-0.6-2.9c2.8,5.9,3.8-0.5,2-2.9
		C96.1,17.9,97.3,19.9,97.3,21"/>
	<path class="st0" d="M78.5,23.8c0.9,0.4,1.4,0,2.3-0.2c1.4-1.7-0.1-3.7,0.1-5.5c-1,1.3,0,3.2-0.9,4.8c-0.1,0.3-0.5,0-0.6,0.3
		C79.3,23,79,22.9,79,22.8c1.1-4.9-2.4-4.6-1.2,0.1C77.9,23.3,78.2,23.6,78.5,23.8"/>
	<path class="st0" d="M84.1,18.6c0.2,0.1,0.3,0.2,0.4,0.3c0.3,1.4-2.2,1.5-1.3-0.2C83.3,18.4,83.8,18.6,84.1,18.6 M82,23.1
		c1.7,0.8,0.4-1.5,1.3-2.1c0.9,0.5,0.6,2.7,1.9,2c0.1-0.7-0.3-1.4-0.5-2c2-1.4-0.2-4.1-2.1-3.3l0-0.1C81.7,18.8,81.9,21.2,82,23.1"
		/>
	<path class="st0" d="M130.8,23.1c0.2,0.1,0.3,0.2,0.4,0.4c0.2,1.4-2.3,1.4-1.3-0.3C130.1,22.9,130.5,23.1,130.8,23.1 M128.4,27.4
		c1.6,0.9,0.5-1.5,1.5-2c0.9,0.6,0.4,2.7,1.8,2.1c0.2-0.7-0.2-1.4-0.3-2.1c2.1-1.3,0.1-4.1-1.8-3.5l0-0.1
		C128.4,23.1,128.4,25.6,128.4,27.4"/>
	<path class="st0" d="M75.4,19.4L75.4,19.4C76.8,21.2,73.8,20.9,75.4,19.4 M73.8,23.6c0.7-0.6,0.9-2.5,2.4-1.4
		c0,0.3,0.2,0.6,0.2,0.9c1.8,0-0.2-3.6-0.6-5.4c-0.4-0.5-0.7,0-1.2,0C74.4,19.7,72.8,22,73.8,23.6"/>
	<path class="st0" d="M125.9,17.8C127.2,19.5,124.1,19.2,125.9,17.8L125.9,17.8z M124.2,21.9c0.7-0.6,0.9-2.5,2.4-1.4
		c0,0.3,0.2,0.6,0.2,0.9c1.8,0-0.2-3.6-0.6-5.4c-0.4-0.5-0.8,0-1.2,0C124.8,18,123.2,20.3,124.2,21.9"/>
	<path class="st0" d="M89.1,19.5c0.1,0,0.1,0.1,0.1,0.2C90.4,21.5,87.6,20.8,89.1,19.5 M90.1,23.2c2.1-0.1-0.4-3.6-0.6-5.4
		c-2.3,0.8-2.4,4.2-2.1,5.9c0.8-0.4,0.7-2.3,2.2-1.7C90.1,22.2,90.1,22.8,90.1,23.2"/>
	<path class="st0" d="M85.7,0.4c-0.2,0.5-0.3,0.9-0.4,1.3c0.2,3.5,0.1,7.3,0.9,10.4c1.7,0.4,4,0.7,5.5-0.5c0-0.8-0.7-1.4-1.5-1.6
		c-0.6,0.4-1.4,0.3-2.1,0.3c-1.8-3.2,0.4-6.9-1.4-10C86.4,0,86,0.4,85.7,0.4"/>
	<path class="st0" d="M100.7,2.6c0.9,1.6,0.6,3.5,0.6,5.3c-0.3,0.9-0.4,2.1-1.3,2.7c-0.8,0.4-1.7,0.6-2.3-0.1c-1-1-0.5-2.4-0.8-3.5
		c-0.2-1.8,1-3.2,2-4.5C99.6,2.5,100.3,2,100.7,2.6 M96.6,1.9c-2.1,2-1.1,5.1-1.6,7.6c1,1.3,1.5,3.4,3.5,3.3
		c1.8,0.7,3.2-0.9,4.2-2.1c0.8-1,0.4-2.3,1.1-3.4c0.5-2.8-1-6.1-3.9-6.4c-0.5-0.4-1.4,0.1-2.1,0.2C97.3,1.2,96.8,1.4,96.6,1.9"/>
	<path class="st0" d="M70.5,2c-0.5,0.5,0,1.3-0.5,1.6c1,3.5-1.2,7.5,1.2,10.6c2.3-0.4,0.6-2.9,1.4-4.3c-0.2-0.5-0.2-1-0.4-1.4
		c-0.3-2.1,1-5.3-1.3-6.4C70.8,1.9,70.7,2.1,70.5,2"/>
	<path class="st0" d="M76.1,2.4c-0.4-0.4-0.8-0.2-1.2,0c-0.2,0.5-0.2,0.9-0.3,1.4c1,3.7-0.4,12.1,5.9,10.2c0.5-0.4,1.2-0.2,1.4-0.9
		c0-0.9-0.8-1.2-1.4-1.5C75.5,12.9,78,5.3,76.1,2.4"/>
	<path class="st0" d="M110.2,12.9c-0.4,1.1,0.9,2.5,1.9,1.4c0.5-2.1,0.9-4,1.4-6c0.9,2.2,1.7,4.9,2.2,7.4c3.3-0.4,3.2-7.2,4.1-10.9
		c0-0.2-0.2-0.4-0.4-0.5c-0.3-0.4-0.7,0-1,0c-0.8,8.7-2.8,4.7-4.4-1c-0.3-0.1-0.6-0.2-0.9-0.3c-0.8,0.9-0.8,2.3-1.3,3.5
		C111.7,8.7,110.7,10.8,110.2,12.9"/>
</g>
</svg>
