<?xml version="1.0" encoding="utf-8"?>
<!-- Generator: Adobe Illustrator 19.0.0, SVG Export Plug-In . SVG Version: 6.00 Build 0)  -->
<svg version="1.1" id="Ebene_1" xmlns="http://www.w3.org/2000/svg" xmlns:xlink="http://www.w3.org/1999/xlink" x="0px" y="0px"
	 viewBox="-126 277.9 342 287" style="enable-background:new -126 277.9 342 287;" xml:space="preserve">
<path d="M-1024.4,1036.2v-34.3h21.7v4.2l-16.9,0v10.5l16.1-0.1v4.2h-16.1v11.5l17.3-0.1v4.2L-1024.4,1036.2L-1024.4,1036.2z
	 M-997.1,1036.2v-24.1h4.5v24.1H-997.1z M-997.5,1001.6h5.4v5h-5.4V1001.6z M-981.7,1036.2h-4.5v-21.3l0-3h4.5l0,4.1
	c0.2-0.4,0.4-0.7,0.6-1.1c0.7-1,1.7-1.9,2.9-2.4c1.3-0.6,2.7-0.8,4.1-0.8c1,0,2,0.1,3,0.4c0.9,0.2,1.7,0.6,2.5,1.1
	c1,0.7,1.9,1.6,2.5,2.7c0.5,0.9,0.8,2,0.8,3.1c0,0.3,0,0.6,0,0.8v16.4h-4.6v-15.8c0-0.2,0-0.5,0-0.7c0-0.5-0.1-1.1-0.3-1.6
	c-0.3-0.6-0.7-1.2-1.2-1.7c-0.5-0.4-1-0.7-1.6-0.9c-0.7-0.3-1.5-0.4-2.3-0.4c-0.7,0-1.4,0.1-2,0.3c-0.6,0.2-1.2,0.5-1.8,0.9
	c-0.6,0.5-1.2,1-1.5,1.7c-0.5,0.7-0.7,1.6-0.8,2.5c-0.1,0.6-0.1,1.2-0.1,1.8L-981.7,1036.2L-981.7,1036.2z M-956.7,1023.7
	c0,1.4,0.1,2.8,0.5,4.1c0.3,0.9,0.6,1.8,1.2,2.5c0.5,0.7,1.3,1.3,2.1,1.6c0.8,0.4,1.7,0.5,2.7,0.5c1.2,0,2.5-0.2,3.5-0.8
	c0.9-0.5,1.7-1.2,2.2-2.1c0.6-0.9,0.9-1.9,1.1-2.9c0.3-1.3,0.3-2.6,0.2-3.9c0-1.2-0.1-2.3-0.5-3.4c-0.3-0.9-0.8-1.7-1.5-2.4
	c-0.6-0.6-1.4-1.1-2.2-1.4c-0.9-0.4-1.8-0.5-2.8-0.5c-1.2,0-2.4,0.2-3.3,0.9c-0.7,0.4-1.3,1-1.7,1.6c-0.6,0.9-1,2-1.2,3
	C-956.6,1021.5-956.7,1022.6-956.7,1023.7z M-960.1,1038h4.8c0,0.4,0.1,0.8,0.2,1.2c0.1,0.5,0.2,0.9,0.5,1.3
	c0.3,0.5,0.6,0.9,1.1,1.2c0.5,0.3,1,0.6,1.6,0.7c0.8,0.2,1.5,0.3,2.3,0.3c0.8,0,1.6-0.1,2.4-0.3c1-0.3,1.9-0.8,2.5-1.6
	c0.6-0.7,0.9-1.5,1.1-2.3c0.3-1.2,0.4-2.5,0.4-3.7c0-1,0-2.1,0-3.1c-0.1,0.2-0.2,0.4-0.3,0.6c-0.3,0.4-0.5,0.8-0.9,1.1
	c-0.5,0.5-1.2,0.9-1.8,1.3c-0.6,0.3-1.3,0.6-1.9,0.8c-1,0.3-2,0.3-3.1,0.3c-1.3,0-2.5-0.1-3.7-0.6c-1.4-0.5-2.7-1.3-3.6-2.5
	c-1-1.1-1.6-2.5-2-3.9c-0.5-1.6-0.7-3.3-0.7-5c0-1.6,0.2-3.1,0.6-4.6c0.4-1.4,1.2-2.8,2.1-3.9c0.9-1.1,2.1-2,3.4-2.6
	c1.5-0.7,3.3-1,4.9-0.9c0.4,0,0.9,0,1.3,0.1c0.5,0.1,1.1,0.2,1.7,0.4c0.7,0.2,1.3,0.5,1.9,0.8c0.5,0.3,0.9,0.6,1.3,1
	c0.3,0.3,0.5,0.6,0.8,0.9c0.1,0.2,0.2,0.3,0.3,0.5l0-3.3h4.4l-0.1,4.4l0,15c0,1.2,0,2.3,0,3.5c0,1.3,0,2.6-0.3,3.8
	c-0.3,1.4-1,2.8-2,3.9c-0.8,0.9-1.9,1.5-3,2c-1.8,0.8-3.8,1.1-5.7,1.1c-1.3,0-2.7,0-4-0.3c-1.1-0.2-2.1-0.5-3-1.1
	c-0.8-0.4-1.5-1.1-1.9-1.9c-0.7-1-1-2.2-1.2-3.4C-960,1038.8-960.1,1038.4-960.1,1038z M-920.6,1024.3c-0.5,0-0.9,0-1.4,0
	c-1.3,0-2.6,0.1-3.8,0.5c-0.7,0.2-1.4,0.5-2,0.9c-0.6,0.4-1.2,1-1.5,1.7c-0.3,0.5-0.4,1.1-0.4,1.7c0,0.7,0.1,1.3,0.4,1.9
	c0.3,0.5,0.6,1,1.1,1.4c0.4,0.3,0.9,0.6,1.5,0.7c0.7,0.2,1.3,0.3,2,0.3c1,0,2-0.2,2.9-0.6c0.6-0.3,1.2-0.7,1.7-1.3
	c0.6-0.6,1-1.4,1.2-2.2c0.3-0.9,0.3-1.9,0.4-2.9c0-0.7,0.1-1.3,0.1-2L-920.6,1024.3z M-918.5,1021.3c0-0.5,0-1,0-1.5
	c0-0.7,0-1.4-0.2-2.2c-0.1-0.6-0.3-1.3-0.8-1.7c-0.4-0.5-1.1-0.9-1.8-1.1c-0.8-0.3-1.6-0.4-2.4-0.3c-0.9,0-1.7,0.1-2.5,0.5
	c-0.7,0.3-1.3,0.7-1.6,1.3c-0.3,0.4-0.5,1-0.5,1.5c0,0.3-0.1,0.5-0.1,0.8h-4.5c0-0.3,0.1-0.6,0.1-1c0.1-0.8,0.3-1.6,0.6-2.3
	c0.4-0.8,1-1.6,1.8-2.1c0.7-0.6,1.6-1,2.5-1.2c1.3-0.4,2.7-0.6,4.1-0.6c1.2,0,2.3,0.1,3.5,0.3c1.2,0.3,2.4,0.7,3.5,1.3
	c0.7,0.5,1.4,1,1.8,1.8c0.5,0.8,0.8,1.9,0.8,2.9c0,0.3,0,0.6,0,0.9l-0.1,6.2c0,0.5,0,1.1,0,1.7c0,1.2,0,2.4,0,3.6
	c0,1.5,0,3.1,0.2,4.6c0,0.5,0.1,1,0.2,1.4h-4.1c0-0.1,0-0.2-0.1-0.2c-0.1-0.4-0.2-0.9-0.3-1.3c0-0.4,0-0.8,0-1.2c0-0.3,0-0.6,0-0.8
	c-0.1,0.2-0.2,0.4-0.3,0.6c-0.7,1-1.5,2-2.6,2.6c-1.3,0.9-3,1.2-4.7,1.2c-1,0-2-0.1-3-0.4c-1-0.3-2-0.8-2.9-1.4
	c-0.7-0.5-1.3-1.2-1.7-2c-0.5-0.9-0.8-2-0.8-3.1c0-1.2,0.2-2.4,0.7-3.4c0.5-1,1.2-2,2-2.7c1-0.9,2.2-1.5,3.5-1.9
	c2-0.7,4.1-0.7,6.1-0.7C-920.8,1021.3-919.7,1021.3-918.5,1021.3z M-903.4,1036.2h-4.5v-21.3l-0.1-3h4.5l0,4.1
	c0.2-0.4,0.4-0.7,0.6-1.1c0.7-1,1.7-1.9,2.9-2.4c1.3-0.6,2.7-0.8,4.1-0.8c1,0,2,0.1,3,0.4c0.9,0.2,1.7,0.6,2.5,1.1
	c1,0.7,1.9,1.6,2.5,2.7c0.5,0.9,0.8,2,0.8,3.1c0,0.3,0,0.6,0,0.8v16.4h-4.6v-15.8c0-0.2,0-0.5,0-0.7c0-0.5-0.1-1.1-0.3-1.6
	c-0.3-0.6-0.7-1.2-1.2-1.7c-0.5-0.4-1-0.7-1.6-0.9c-0.7-0.3-1.5-0.4-2.3-0.4c-0.7,0-1.4,0.1-2,0.3c-0.6,0.2-1.2,0.5-1.8,0.9
	c-0.6,0.5-1.2,1-1.5,1.7c-0.5,0.7-0.7,1.6-0.8,2.5c-0.1,0.6-0.1,1.2-0.1,1.8L-903.4,1036.2L-903.4,1036.2z M-878.4,1023.7
	c0,1.4,0.1,2.8,0.5,4.1c0.3,0.9,0.6,1.8,1.2,2.5c0.5,0.7,1.3,1.3,2.1,1.6c0.8,0.4,1.7,0.5,2.7,0.5c1.2,0,2.5-0.2,3.5-0.8
	c0.9-0.5,1.7-1.2,2.2-2.1c0.6-0.9,0.9-1.9,1.1-2.9c0.3-1.3,0.3-2.6,0.2-3.9c0-1.2-0.1-2.3-0.5-3.4c-0.3-0.9-0.8-1.7-1.5-2.4
	c-0.6-0.6-1.4-1.1-2.2-1.4c-0.9-0.4-1.8-0.5-2.8-0.5c-1.2,0-2.4,0.2-3.3,0.9c-0.7,0.4-1.3,1-1.7,1.6c-0.6,0.9-1,2-1.2,3
	C-878.3,1021.5-878.4,1022.6-878.4,1023.7z M-881.8,1038h4.8c0,0.4,0.1,0.8,0.2,1.2c0.1,0.5,0.2,0.9,0.5,1.3
	c0.3,0.5,0.6,0.9,1.1,1.2c0.5,0.3,1,0.6,1.6,0.7c0.8,0.2,1.5,0.3,2.3,0.3c0.8,0,1.6-0.1,2.4-0.3c1-0.3,1.9-0.8,2.5-1.6
	c0.6-0.7,0.9-1.5,1.1-2.3c0.3-1.2,0.4-2.5,0.4-3.7c0-1,0-2.1,0-3.1c-0.1,0.2-0.2,0.4-0.3,0.6c-0.3,0.4-0.5,0.8-0.9,1.1
	c-0.5,0.5-1.2,0.9-1.8,1.3c-0.6,0.3-1.3,0.6-1.9,0.8c-1,0.3-2,0.3-3.1,0.3c-1.3,0-2.5-0.1-3.7-0.6c-1.4-0.5-2.7-1.3-3.6-2.5
	c-1-1.1-1.6-2.5-2-3.9c-0.5-1.6-0.7-3.3-0.7-5c0-1.6,0.2-3.1,0.6-4.6c0.4-1.4,1.2-2.8,2.1-3.9c0.9-1.1,2.1-2,3.4-2.6
	c1.5-0.7,3.3-1,4.9-0.9c0.4,0,0.9,0,1.3,0.1c0.6,0.1,1.1,0.2,1.7,0.4c0.7,0.2,1.3,0.5,1.9,0.8c0.5,0.3,0.9,0.6,1.3,1
	c0.3,0.3,0.5,0.6,0.8,0.9c0.1,0.2,0.2,0.3,0.3,0.5l0-3.3h4.4l-0.1,4.4l0,15c0,1.2,0,2.3,0,3.5c0,1.3,0,2.6-0.3,3.8
	c-0.3,1.4-1,2.8-2,3.9c-0.8,0.9-1.9,1.5-3,2c-1.8,0.8-3.8,1.1-5.7,1.1c-1.3,0-2.7,0-4-0.3c-1.1-0.2-2.1-0.5-3-1.1
	c-0.8-0.4-1.5-1.1-1.9-1.9c-0.7-1-1-2.2-1.2-3.4C-881.8,1038.8-881.8,1038.4-881.8,1038z M-835.6,1016.3h6.7c0.4,0,0.8,0,1.2,0
	c1,0,2-0.2,2.9-0.6c0.7-0.3,1.3-0.6,1.7-1.1c0.4-0.4,0.8-1,1-1.5c0.3-0.6,0.4-1.3,0.4-2c0-0.8-0.1-1.6-0.4-2.4
	c-0.3-0.6-0.6-1.2-1.1-1.7c-0.5-0.5-1.3-0.8-2-1c-0.7-0.2-1.4-0.3-2.1-0.3c-0.5,0-1,0-1.5,0h-6.9L-835.6,1016.3L-835.6,1016.3z
	 M-835.6,1032.3h8.2c0.5,0,1,0,1.5-0.1c0.8-0.1,1.6-0.3,2.3-0.8c0.7-0.4,1.3-0.9,1.8-1.5c0.4-0.5,0.7-1.1,0.9-1.7
	c0.2-0.7,0.3-1.3,0.3-2c0-0.9-0.2-1.8-0.6-2.6c-0.3-0.6-0.7-1.2-1.2-1.6c-0.6-0.6-1.4-1-2.2-1.3c-0.5-0.2-1.1-0.3-1.7-0.3
	c-0.3,0-0.7,0-1,0h-8.4L-835.6,1032.3L-835.6,1032.3z M-840.3,1036.2v-34.5h12.4c0.6,0,1.3,0,1.9,0c1.1,0,2.3,0.2,3.3,0.5
	c1.1,0.3,2.2,0.9,3,1.7c0.8,0.7,1.6,1.5,2,2.5c0.6,1.1,0.8,2.4,0.8,3.7c0,1.7-0.3,3.4-1.3,4.7c-0.9,1.5-2.5,2.5-4.2,3.1
	c-0.1,0-0.3,0.1-0.4,0.1c0.2,0,0.4,0.1,0.6,0.1c0.8,0.2,1.6,0.5,2.3,1c0.9,0.5,1.6,1.2,2.2,2c0.6,0.9,1,1.9,1.3,2.9
	c0.3,1,0.4,2,0.4,3c0,1.1-0.2,2.1-0.6,3.1c-0.4,1.1-1,2-1.8,2.8c-0.9,0.9-2,1.7-3.2,2.2c-1.3,0.5-2.6,0.8-4,0.9
	c-0.4,0-0.8,0.1-1.2,0.1H-840.3z M-811.4,1036.2v-34.6h4.5v34.6H-811.4z M-798.3,1024.1c0,1.5,0.2,2.9,0.6,4.3
	c0.3,1.1,0.8,2.1,1.6,3c0.6,0.8,1.5,1.3,2.4,1.7c0.8,0.3,1.7,0.5,2.6,0.5c1.2,0,2.5-0.3,3.5-0.9c0.9-0.5,1.6-1.3,2.2-2.1
	c0.6-0.9,1.1-1.9,1.3-3c0.3-1.2,0.4-2.4,0.4-3.6c0-1.4-0.2-2.8-0.5-4.1c-0.3-1-0.7-2-1.4-2.8c-0.7-0.8-1.5-1.5-2.5-1.8
	c-0.9-0.4-1.8-0.5-2.8-0.5c-1.1,0-2.3,0.2-3.3,0.8c-0.9,0.5-1.7,1.3-2.3,2.2c-0.6,0.9-1.1,1.9-1.3,3
	C-798.2,1021.8-798.3,1022.9-798.3,1024.1z M-803,1024.7c0-1.6,0.1-3.3,0.5-4.9c0.4-1.6,1.2-3.2,2.4-4.5c1.1-1.3,2.5-2.4,4.2-3
	c1.6-0.7,3.4-0.9,5.2-0.8c1.5,0,3,0.2,4.4,0.7c1.5,0.5,2.9,1.3,4,2.5c1,0.9,1.7,2,2.2,3.3c0.8,1.9,1.2,4,1.1,6.1
	c0,1.9-0.2,3.7-0.8,5.4c-0.5,1.6-1.4,3-2.5,4.2c-1.1,1.2-2.5,2.1-4,2.6c-1.6,0.6-3.4,0.8-5.1,0.8c-1.5,0-3-0.2-4.3-0.7
	c-1.4-0.5-2.7-1.3-3.7-2.3c-1.1-1.1-2-2.5-2.5-4C-802.7,1028.3-803,1026.5-803,1024.7z M-758.1,1021.8c0-0.3,0-0.6,0-1
	c0-0.9-0.2-1.8-0.5-2.6c-0.3-0.8-0.8-1.5-1.4-2.1c-0.6-0.6-1.3-1-2.1-1.2c-0.6-0.2-1.1-0.2-1.7-0.2c-0.9,0-1.9,0.1-2.8,0.4
	c-0.7,0.3-1.3,0.7-1.9,1.2c-0.6,0.6-1.2,1.3-1.5,2.1c-0.4,0.8-0.6,1.8-0.6,2.7c0,0.2,0,0.5,0,0.7L-758.1,1021.8L-758.1,1021.8z
	 M-753.5,1024.9h-17.3c0,0.3,0,0.6,0,0.9c0,0.9,0.1,1.7,0.3,2.6c0.2,0.9,0.6,1.9,1.2,2.7c0.5,0.7,1.2,1.3,2,1.8
	c1,0.6,2.1,0.8,3.2,0.8c0.6,0,1.2,0,1.8-0.2c0.6-0.1,1.1-0.3,1.6-0.6c0.6-0.4,1.1-0.9,1.5-1.5c0.4-0.6,0.7-1.3,0.8-2
	c0-0.2,0.1-0.4,0.1-0.6h4.5c0,0.2,0,0.4-0.1,0.6c-0.2,1-0.5,2-1,2.9c-0.6,1.1-1.4,2.1-2.4,2.8c-0.9,0.7-2,1.2-3.1,1.5
	c-1.2,0.4-2.5,0.5-3.7,0.5c-1.5,0-3-0.2-4.4-0.6c-1.2-0.4-2.3-1-3.3-1.8c-1.1-1-2-2.3-2.5-3.7c-0.8-1.8-1-3.8-1.1-5.7
	c-0.1-1.8,0-3.7,0.5-5.4c0.4-1.6,1.1-3.2,2.2-4.5c0.9-1.2,2.2-2.2,3.6-2.8c1.6-0.7,3.4-1,5.2-0.9c1.3,0,2.6,0.2,3.9,0.6
	c1.5,0.5,2.9,1.3,3.9,2.5c0.9,1,1.5,2.2,1.9,3.5c0.6,1.8,0.7,3.6,0.7,5.5C-753.4,1023.9-753.5,1024.4-753.5,1024.9z M-750.1,1029
	h4.8c0,0.2,0,0.4,0,0.5c0,0.5,0.2,0.9,0.3,1.3c0.2,0.5,0.6,1,1,1.3c0.4,0.4,0.9,0.7,1.4,0.8c0.7,0.3,1.5,0.3,2.3,0.3
	c0.3,0,0.5,0,0.8,0c0.6,0,1.2-0.1,1.8-0.3c0.5-0.2,0.9-0.4,1.3-0.8c0.3-0.3,0.7-0.6,0.9-1c0.3-0.5,0.4-1,0.4-1.6
	c0-0.3-0.1-0.7-0.2-1c-0.1-0.4-0.4-0.8-0.7-1.1c-0.2-0.2-0.4-0.3-0.6-0.4c-0.7-0.3-1.4-0.5-2.1-0.7c-1.1-0.3-2.2-0.5-3.3-0.8
	c-1.1-0.3-2.2-0.5-3.3-0.9c-0.8-0.3-1.5-0.6-2.2-1.1c-0.5-0.4-1-1-1.4-1.6c-0.5-1-0.8-2-0.8-3.1c0-0.9,0.1-1.8,0.5-2.6
	c0.4-1,1.1-1.8,1.9-2.5c0.8-0.7,1.7-1.1,2.7-1.5c1.4-0.5,2.9-0.7,4.3-0.7c1.1,0,2.2,0.1,3.3,0.3c1.1,0.2,2.2,0.6,3.2,1.2
	c0.7,0.4,1.4,1,1.8,1.7c0.5,0.8,0.8,1.7,0.9,2.7c0,0.4,0.1,0.8,0.1,1.3h-4.6c0-0.3,0-0.7-0.1-1c-0.1-0.4-0.2-0.8-0.3-1.1
	c-0.2-0.4-0.5-0.7-0.9-1c-0.4-0.3-0.9-0.5-1.3-0.6c-0.7-0.2-1.5-0.2-2.3-0.2c-0.1,0-0.2,0-0.3,0c-0.5,0-1.1,0-1.6,0.2
	c-0.5,0.1-0.9,0.3-1.3,0.6c-0.4,0.3-0.8,0.6-1.1,1c-0.3,0.4-0.5,1-0.5,1.5c0,0.4,0,0.7,0.2,1.1c0.1,0.4,0.3,0.8,0.7,1
	c0.2,0.2,0.5,0.4,0.8,0.5c0.5,0.2,1,0.3,1.5,0.5c0.3,0.1,0.7,0.2,1,0.3c1.8,0.4,3.6,0.8,5.3,1.4c1.1,0.3,2.1,0.7,3,1.4
	c0.6,0.4,1.2,1,1.5,1.7c0.6,1,0.8,2.1,0.8,3.2c0,1-0.2,2-0.6,2.9c-0.5,1-1.2,1.9-2,2.6c-0.8,0.7-1.9,1.2-2.9,1.5
	c-1.5,0.5-3.1,0.6-4.7,0.7c-1,0-2.1,0-3.1-0.2c-0.9-0.2-1.8-0.5-2.7-1c-1-0.5-1.8-1.2-2.5-2.1c-0.7-0.9-1.1-2-1.2-3.1
	C-750.1,1030-750.1,1029.5-750.1,1029z M-727.4,1029h4.8c0,0.2,0,0.4,0,0.5c0,0.5,0.1,0.9,0.3,1.3c0.2,0.5,0.6,1,1,1.3
	c0.4,0.4,0.9,0.7,1.4,0.8c0.8,0.3,1.6,0.3,2.3,0.3c0.3,0,0.5,0,0.8,0c0.6,0,1.2-0.1,1.8-0.3c0.5-0.2,0.9-0.4,1.3-0.8
	c0.4-0.3,0.7-0.6,0.9-1c0.3-0.5,0.4-1,0.4-1.6c0-0.3-0.1-0.7-0.2-1c-0.1-0.4-0.4-0.8-0.7-1.1c-0.2-0.2-0.4-0.3-0.6-0.4
	c-0.7-0.3-1.4-0.5-2.1-0.7c-1.1-0.3-2.2-0.5-3.3-0.8c-1.1-0.3-2.2-0.5-3.3-0.9c-0.8-0.3-1.5-0.6-2.2-1.1c-0.5-0.4-1-1-1.4-1.6
	c-0.5-1-0.8-2-0.8-3.1c0-0.9,0.1-1.8,0.5-2.6c0.4-1,1.1-1.8,1.9-2.5c0.8-0.7,1.7-1.1,2.7-1.5c1.4-0.5,2.9-0.7,4.3-0.7
	c1.1,0,2.2,0.1,3.3,0.3c1.1,0.2,2.2,0.6,3.2,1.2c0.7,0.4,1.4,1,1.8,1.7c0.5,0.8,0.8,1.7,0.9,2.7c0,0.4,0.1,0.8,0.1,1.3h-4.6
	c0-0.3,0-0.7-0.1-1c-0.1-0.4-0.2-0.8-0.3-1.1c-0.2-0.4-0.5-0.7-0.9-1c-0.4-0.3-0.9-0.5-1.3-0.6c-0.7-0.2-1.5-0.2-2.3-0.2
	c-0.1,0-0.2,0-0.3,0c-0.5,0-1.1,0-1.6,0.2c-0.5,0.1-0.9,0.3-1.3,0.6c-0.4,0.3-0.8,0.6-1.1,1c-0.3,0.4-0.5,1-0.5,1.5
	c0,0.4,0,0.7,0.2,1.1c0.1,0.4,0.3,0.8,0.7,1c0.2,0.2,0.5,0.4,0.8,0.5c0.5,0.2,1,0.3,1.5,0.5c0.3,0.1,0.7,0.2,1,0.3
	c1.8,0.4,3.6,0.8,5.3,1.4c1.1,0.3,2.1,0.7,3,1.4c0.6,0.4,1.2,1,1.5,1.7c0.6,1,0.8,2.1,0.8,3.2c0,1-0.2,2-0.6,2.9
	c-0.4,1-1.2,1.9-2,2.6c-0.8,0.7-1.9,1.2-2.9,1.5c-1.5,0.5-3.1,0.6-4.7,0.7c-1,0-2.1,0-3.1-0.2c-0.9-0.2-1.8-0.5-2.7-1
	c-1-0.5-1.8-1.2-2.5-2.1c-0.7-0.9-1.1-2-1.2-3.1C-727.4,1030-727.4,1029.5-727.4,1029z M-687.8,1021.8c0-0.3,0-0.6,0-1
	c0-0.9-0.2-1.8-0.5-2.6c-0.3-0.8-0.8-1.5-1.4-2.1c-0.6-0.6-1.3-1-2.1-1.2c-0.6-0.2-1.2-0.2-1.7-0.2c-0.9,0-1.9,0.1-2.8,0.4
	c-0.7,0.3-1.3,0.7-1.9,1.2c-0.7,0.6-1.2,1.3-1.5,2.1c-0.4,0.8-0.6,1.8-0.6,2.7c0,0.2,0,0.5,0,0.7L-687.8,1021.8L-687.8,1021.8z
	 M-683.2,1024.9h-17.3c0,0.3,0,0.6,0,0.9c0,0.9,0.1,1.7,0.3,2.6c0.2,0.9,0.6,1.9,1.2,2.7c0.5,0.7,1.2,1.3,2,1.8
	c1,0.6,2.1,0.8,3.3,0.8c0.6,0,1.2,0,1.8-0.2c0.6-0.1,1.1-0.3,1.6-0.6c0.6-0.4,1.1-0.9,1.5-1.5c0.4-0.6,0.7-1.3,0.8-2
	c0-0.2,0.1-0.4,0.1-0.6h4.5c0,0.2,0,0.4-0.1,0.6c-0.1,1-0.5,2-1,2.9c-0.6,1.1-1.4,2.1-2.4,2.8c-0.9,0.7-2,1.2-3.1,1.5
	c-1.2,0.4-2.5,0.5-3.7,0.5c-1.5,0-3-0.2-4.4-0.6c-1.2-0.4-2.3-1-3.3-1.8c-1.1-1-2-2.3-2.6-3.7c-0.8-1.8-1-3.8-1.1-5.7
	c-0.1-1.8,0-3.7,0.5-5.4c0.4-1.6,1.1-3.2,2.2-4.5c0.9-1.2,2.2-2.2,3.6-2.8c1.6-0.7,3.4-1,5.2-0.9c1.3,0,2.6,0.2,3.9,0.6
	c1.5,0.5,2.9,1.3,3.9,2.5c0.9,1,1.5,2.2,1.9,3.5c0.6,1.8,0.7,3.6,0.7,5.5C-683.2,1023.9-683.2,1024.4-683.2,1024.9z M-678.6,1012.1
	h4.5l0.1,4.7c0.1-0.2,0.1-0.5,0.2-0.7c0.2-0.5,0.5-1,0.8-1.5c0.5-0.7,1.2-1.2,1.9-1.6c0.5-0.3,1-0.5,1.6-0.7
	c0.6-0.2,1.3-0.3,1.9-0.4c0.6,0,1.3,0,1.9,0c0.2,0,0.3,0,0.5,0v4.4c-0.2,0-0.5-0.1-0.7-0.1c-0.4-0.1-0.8-0.1-1.2-0.1
	c-0.8,0-1.7,0-2.5,0.2c-0.8,0.2-1.6,0.5-2.2,1c-0.7,0.5-1.3,1.3-1.6,2.1c-0.4,1-0.5,2.1-0.6,3.2c0,0.3,0,0.5,0,0.8v12.8h-4.6v-19.2
	c0-0.3,0-0.5,0-0.8c0-0.5,0-1,0-1.6c0-0.6-0.1-1.2-0.1-1.8C-678.5,1012.5-678.6,1012.3-678.6,1012.1z M-639.5,1018.4
	c0,2.4,0.1,4.8,0.8,7.1c0.4,1.5,1.1,3,2.1,4.2c0.9,1.1,2.1,2,3.4,2.5c1.4,0.6,2.9,0.8,4.4,0.8c1.6,0,3.3-0.2,4.7-0.9
	c1.3-0.6,2.5-1.6,3.4-2.8c1.1-1.4,1.7-3.1,2.1-4.8c0.4-1.6,0.5-3.2,0.6-4.8c0.1-2.3,0-4.6-0.6-6.8c-0.4-1.6-1-3.2-2-4.5
	c-0.9-1.2-2.1-2.3-3.4-2.8c-1.4-0.6-2.9-0.8-4.5-0.8c-1.7,0-3.4,0.2-4.8,0.9c-1.3,0.6-2.5,1.5-3.4,2.7c-1,1.2-1.6,2.7-2,4.2
	C-639.2,1014.4-639.4,1016.4-639.5,1018.4z M-644.6,1019.4c0-2.8,0.3-5.5,1.1-8.1c0.7-2.1,1.7-4.2,3.2-5.8c1.3-1.5,3-2.8,4.9-3.5
	c2.2-1,4.5-1.3,6.9-1.3c2.3,0,4.5,0.3,6.6,1.2c2,0.8,3.8,2.1,5.2,3.7c1.2,1.4,2,3,2.6,4.8c0.9,2.7,1.3,5.6,1.2,8.4
	c0,2.3-0.2,4.6-0.8,6.8c-0.6,2.3-1.5,4.5-3,6.3c-1.2,1.6-2.9,2.8-4.7,3.7c-2.3,1.1-4.9,1.5-7.5,1.5c-2,0-4-0.2-6-0.9
	c-1.9-0.6-3.8-1.7-5.2-3.2c-1.5-1.5-2.6-3.5-3.3-5.5C-644.2,1024.8-644.5,1022.2-644.6,1019.4z M-603.2,1024.2c0,1.6,0,3.2,0.4,4.7
	c0.2,0.9,0.6,1.8,1.1,2.5c0.6,0.9,1.5,1.6,2.5,1.9c0.8,0.3,1.8,0.5,2.7,0.4c1,0,2.1-0.2,3-0.7c1-0.5,1.8-1.3,2.4-2.2
	c0.7-1.1,1.1-2.3,1.3-3.6c0.2-1.2,0.3-2.3,0.3-3.5c0-1.4-0.1-2.9-0.6-4.2c-0.3-1-0.7-1.9-1.4-2.6c-0.6-0.7-1.4-1.2-2.3-1.5
	c-0.8-0.3-1.6-0.4-2.4-0.3c-1.2,0-2.4,0.3-3.4,0.9c-0.9,0.5-1.6,1.2-2.2,2c-0.6,0.9-1,2-1.2,3
	C-603.1,1022-603.2,1023.1-603.2,1024.2z M-603.1,1033.5v11.9h-4.5V1016l-0.1-3.9h4.5l0.1,4c0.2-0.2,0.3-0.5,0.5-0.7
	c0.8-1,1.8-2,2.9-2.5c1.5-0.8,3.2-1.2,4.9-1.1c1.3,0,2.5,0.2,3.7,0.7c1.4,0.5,2.6,1.5,3.5,2.6c1,1.2,1.6,2.5,2.1,4
	c0.6,1.8,0.8,3.7,0.7,5.5c0,1.5-0.2,2.9-0.6,4.3c-0.4,1.6-1.1,3.1-2.1,4.3c-0.9,1.2-2.1,2.3-3.5,2.9c-1.5,0.7-3.1,1-4.7,1
	c-1.3,0-2.6-0.2-3.9-0.7c-1.3-0.5-2.5-1.3-3.3-2.4C-602.9,1033.8-603,1033.7-603.1,1033.5z M-569.3,1036.2c-0.7,0.1-1.4,0.1-2.1,0.2
	c-0.1,0-0.2,0-0.3,0c-0.4,0.1-0.8,0.1-1.2,0.1c-0.8,0-1.6,0-2.4-0.2c-0.6-0.1-1.2-0.3-1.7-0.6c-0.6-0.3-1.1-0.8-1.4-1.3
	c-0.4-0.6-0.7-1.3-0.8-2c-0.1-0.3-0.1-0.7-0.1-1l0.2-16.1l-4.3,0v-3.3l4.3,0l0.1-5.1l4.5-1.4l-0.2,6.5l5.4-0.1v3.4l-5.4,0l-0.1,15.1
	c0,0.2,0,0.3,0,0.5c0,0.3,0.1,0.6,0.3,0.8c0.2,0.3,0.4,0.6,0.7,0.7c0.2,0.2,0.5,0.3,0.7,0.3c0.4,0.1,0.9,0.2,1.4,0.2
	c0.2,0,0.4,0,0.6,0c0.4,0,0.8,0,1.1-0.1c0.1,0,0.3,0,0.4-0.1V1036.2L-569.3,1036.2z M-565.4,1036.2v-24.1h4.5v24.1H-565.4z
	 M-565.9,1001.6h5.4v5h-5.4V1001.6z M-554.7,1036.2v-34.9h4.4v20.6l9.1-9.8h5.9l-10.1,10.2l10.8,13.9h-5.9l-9.7-13v13H-554.7z
	 M-1024.4,1088.1v-34.5h20.7v4.1l-15.8-0.1v10.9l14.8-0.1v4h-14.8v15.6H-1024.4z M-985.1,1073.7c0-0.3,0-0.6,0-1
	c0-0.9-0.2-1.8-0.5-2.6c-0.3-0.8-0.8-1.6-1.4-2.1c-0.6-0.6-1.3-1-2.1-1.2c-0.6-0.2-1.1-0.2-1.7-0.2c-0.9,0-1.9,0.1-2.8,0.4
	c-0.7,0.3-1.3,0.7-1.9,1.2c-0.6,0.6-1.2,1.3-1.5,2.1c-0.4,0.8-0.6,1.8-0.6,2.7c0,0.2,0,0.5,0,0.7H-985.1L-985.1,1073.7z
	 M-980.5,1076.9h-17.3c0,0.3,0,0.6,0,0.9c0,0.9,0.1,1.7,0.3,2.6c0.2,1,0.6,1.9,1.2,2.7c0.5,0.7,1.2,1.3,2,1.8c1,0.5,2.1,0.8,3.2,0.8
	c0.6,0,1.2,0,1.8-0.2c0.6-0.1,1.1-0.3,1.6-0.6c0.6-0.4,1.1-0.9,1.5-1.5c0.4-0.6,0.7-1.3,0.8-2c0-0.2,0.1-0.4,0.1-0.6h4.5
	c0,0.2,0,0.4-0.1,0.6c-0.2,1-0.5,2-1,2.9c-0.6,1.1-1.4,2.1-2.4,2.8c-0.9,0.7-2,1.2-3.1,1.5c-1.2,0.3-2.5,0.5-3.7,0.5
	c-1.5,0-3-0.1-4.4-0.6c-1.2-0.4-2.3-1-3.3-1.8c-1.1-1-2-2.3-2.5-3.7c-0.8-1.8-1-3.8-1.1-5.7c-0.1-1.8,0-3.7,0.5-5.5
	c0.4-1.6,1.1-3.2,2.2-4.5c1-1.2,2.2-2.2,3.6-2.8c1.6-0.7,3.4-1,5.2-0.9c1.3,0,2.6,0.2,3.9,0.6c1.5,0.5,2.9,1.3,3.9,2.5
	c0.9,1,1.5,2.2,1.9,3.5c0.6,1.8,0.7,3.6,0.7,5.5C-980.5,1075.9-980.5,1076.4-980.5,1076.9z M-976.2,1088.1v-34.6h4.5v34.6H-976.2z
	 M-963,1076c0,1.6,0,3.2,0.5,4.7c0.3,1,0.7,1.9,1.4,2.6c0.6,0.7,1.4,1.3,2.3,1.7c0.8,0.3,1.6,0.4,2.4,0.4c1.1,0,2.3-0.2,3.2-0.8
	c1-0.5,1.9-1.3,2.5-2.3c0.6-0.9,0.9-2,1.1-3.1c0.2-1.1,0.3-2.3,0.3-3.4c0-1.5-0.1-2.9-0.6-4.3c-0.3-0.9-0.7-1.9-1.3-2.6
	c-0.6-0.8-1.4-1.3-2.3-1.7c-0.9-0.4-1.9-0.6-2.9-0.6c-1,0-2.1,0.2-3,0.7c-1,0.5-1.8,1.4-2.3,2.4c-0.6,1-0.9,2-1.1,3.1
	C-962.9,1073.8-963,1074.9-963,1076z M-949.4,1067.3v-13.8h4.5v30.8l0.2,3.8h-4.5l-0.1-3.8c-0.1,0.2-0.2,0.4-0.3,0.6
	c-0.6,1-1.5,1.8-2.5,2.4c-1.5,0.9-3.3,1.3-5.1,1.3c-1.3,0-2.5-0.2-3.7-0.6c-1.3-0.4-2.5-1.2-3.5-2.2c-0.9-0.9-1.7-2-2.2-3.2
	c-0.9-2-1.1-4.2-1.1-6.3c0-1.9,0.2-3.7,0.8-5.4c0.5-1.4,1.2-2.7,2.1-3.9c0.8-1.1,1.9-2,3.1-2.6c1.5-0.8,3.2-1.2,4.8-1.1
	c0.6,0,1.1,0,1.7,0.1c0.8,0.1,1.5,0.3,2.3,0.6c0.7,0.3,1.3,0.6,1.9,1.1c0.6,0.5,1.1,1.1,1.5,1.7
	C-949.6,1067-949.5,1067.2-949.4,1067.3z M-936.2,1075.7c0,1.4,0.1,2.8,0.5,4.1c0.3,0.9,0.6,1.8,1.2,2.5c0.5,0.7,1.3,1.3,2.1,1.6
	c0.8,0.4,1.7,0.5,2.7,0.5c1.2,0,2.5-0.2,3.5-0.8c0.9-0.5,1.7-1.2,2.2-2.1c0.6-0.9,0.9-1.9,1.1-2.9c0.3-1.3,0.3-2.6,0.2-3.9
	c0-1.2-0.1-2.3-0.5-3.4c-0.3-0.9-0.8-1.8-1.5-2.4c-0.6-0.6-1.4-1.1-2.2-1.4c-0.9-0.4-1.8-0.5-2.8-0.5c-1.2,0-2.4,0.2-3.4,0.8
	c-0.7,0.4-1.2,1-1.7,1.6c-0.6,0.9-1,2-1.2,3C-936.1,1073.5-936.2,1074.6-936.2,1075.7z M-939.6,1090h4.8c0,0.4,0.1,0.8,0.2,1.2
	c0.1,0.5,0.2,0.9,0.5,1.3c0.3,0.5,0.6,0.9,1.1,1.2c0.5,0.3,1,0.6,1.6,0.7c0.8,0.2,1.5,0.3,2.3,0.3c0.8,0,1.6-0.1,2.4-0.3
	c1-0.3,1.9-0.8,2.5-1.6c0.6-0.7,0.9-1.5,1.1-2.3c0.3-1.2,0.4-2.4,0.4-3.7c0-1,0-2.1,0-3.1c-0.1,0.2-0.2,0.4-0.3,0.6
	c-0.2,0.4-0.5,0.8-0.9,1.1c-0.5,0.5-1.2,0.9-1.8,1.3c-0.6,0.3-1.3,0.6-1.9,0.7c-1,0.3-2,0.4-3,0.4c-1.3,0-2.5-0.1-3.7-0.5
	c-1.4-0.5-2.7-1.3-3.6-2.5c-1-1.1-1.6-2.5-2-4c-0.5-1.6-0.7-3.3-0.7-5c0-1.5,0.2-3.1,0.6-4.6c0.4-1.4,1.2-2.8,2.2-3.9
	c0.9-1.1,2.1-2,3.4-2.6c1.5-0.7,3.3-1,4.9-0.9c0.4,0,0.9,0,1.3,0.1c0.6,0.1,1.1,0.2,1.7,0.4c0.7,0.2,1.3,0.5,1.9,0.8
	c0.5,0.3,0.9,0.6,1.3,1c0.3,0.3,0.5,0.6,0.8,0.9c0.1,0.2,0.2,0.3,0.3,0.5l0.1-3.3h4.4l-0.1,4.4l0,15c0,1.2,0,2.3-0.1,3.5
	c0,1.3,0,2.6-0.3,3.8c-0.3,1.4-1,2.8-2,3.9c-0.8,0.9-1.9,1.5-3,2c-1.8,0.8-3.8,1.1-5.7,1.1c-1.3,0.1-2.7,0-4-0.3
	c-1.1-0.2-2.1-0.5-3-1c-0.8-0.5-1.5-1.1-1.9-1.9c-0.7-1-1-2.3-1.2-3.5C-939.5,1090.7-939.6,1090.4-939.6,1090z M-912.2,1064h4.5
	l0.1,4.7c0.1-0.2,0.1-0.5,0.2-0.7c0.2-0.5,0.5-1,0.8-1.5c0.5-0.7,1.2-1.2,1.9-1.7c0.5-0.3,1-0.5,1.6-0.7c0.6-0.2,1.3-0.3,1.9-0.4
	c0.7-0.1,1.3,0,1.9,0c0.2,0,0.3,0,0.5,0v4.4c-0.2,0-0.5-0.1-0.7-0.1c-0.4-0.1-0.8-0.1-1.2-0.1c-0.8,0-1.7,0-2.5,0.2
	c-0.8,0.2-1.6,0.5-2.2,1c-0.7,0.5-1.3,1.3-1.6,2.1c-0.4,1-0.5,2.1-0.6,3.2c0,0.3,0,0.5,0,0.8v12.8h-4.5v-19.2c0-0.3,0-0.5,0-0.8
	c0-0.5,0-1.1,0-1.6c0-0.6-0.1-1.2-0.1-1.8C-912.2,1064.5-912.2,1064.3-912.2,1064z M-891.9,1076c0,1.5,0.2,2.9,0.6,4.3
	c0.3,1.1,0.8,2.1,1.6,3c0.6,0.8,1.5,1.3,2.4,1.7c0.8,0.3,1.7,0.5,2.6,0.5c1.2,0,2.5-0.3,3.5-0.9c0.9-0.5,1.6-1.3,2.2-2.1
	c0.6-0.9,1.1-1.9,1.3-3c0.3-1.2,0.4-2.4,0.4-3.6c0-1.4-0.2-2.8-0.5-4.1c-0.3-1-0.7-2-1.4-2.8c-0.6-0.8-1.5-1.4-2.5-1.8
	c-0.9-0.4-1.8-0.5-2.8-0.5c-1.1,0-2.3,0.2-3.3,0.8c-0.9,0.5-1.7,1.3-2.3,2.2c-0.6,0.9-1.1,1.9-1.3,3
	C-891.8,1073.8-891.9,1074.9-891.9,1076z M-896.6,1076.6c0-1.7,0.1-3.3,0.5-4.9c0.4-1.6,1.2-3.2,2.4-4.5c1.1-1.3,2.5-2.4,4.2-3
	c1.6-0.7,3.4-0.9,5.2-0.8c1.5,0,3,0.2,4.4,0.7c1.5,0.5,2.9,1.3,4,2.5c1,0.9,1.7,2,2.2,3.3c0.8,1.9,1.1,4,1.1,6.1
	c0,1.9-0.2,3.7-0.8,5.4c-0.5,1.5-1.4,3-2.5,4.2c-1.1,1.2-2.5,2.1-4,2.6c-1.6,0.6-3.4,0.8-5.1,0.8c-1.5,0-3-0.2-4.3-0.7
	c-1.4-0.5-2.7-1.3-3.7-2.3c-1.1-1.1-2-2.5-2.5-4C-896.3,1080.2-896.6,1078.4-896.6,1076.6z M-882.3,1058.9v-4.9h4.3v4.9H-882.3z
	 M-887,1058.9h-4.4v-4.9h4.4V1058.9z M-869.3,1080.9h4.8c0,0.2,0,0.4,0,0.6c0,0.5,0.1,0.9,0.3,1.3c0.2,0.5,0.6,0.9,1,1.3
	c0.4,0.4,0.9,0.7,1.4,0.8c0.8,0.3,1.6,0.3,2.3,0.3c0.3,0,0.5,0,0.8,0c0.6,0,1.2-0.1,1.8-0.3c0.5-0.2,0.9-0.4,1.3-0.8
	c0.4-0.3,0.7-0.6,0.9-1c0.3-0.5,0.4-1,0.4-1.6c0-0.3-0.1-0.7-0.2-1c-0.1-0.4-0.4-0.8-0.7-1.1c-0.2-0.2-0.4-0.3-0.6-0.4
	c-0.7-0.3-1.4-0.5-2.1-0.7c-1.1-0.3-2.2-0.5-3.3-0.8c-1.1-0.3-2.2-0.5-3.3-0.9c-0.8-0.3-1.5-0.6-2.2-1.2c-0.5-0.4-1-1-1.4-1.6
	c-0.5-0.9-0.8-2-0.8-3.1c0-0.9,0.1-1.8,0.5-2.6c0.4-1,1.1-1.8,1.9-2.5c0.8-0.7,1.7-1.1,2.7-1.5c1.4-0.5,2.9-0.7,4.3-0.7
	c1.1,0,2.2,0.1,3.3,0.3c1.1,0.2,2.2,0.6,3.2,1.2c0.7,0.4,1.4,1,1.8,1.7c0.5,0.8,0.8,1.7,0.9,2.7c0,0.4,0.1,0.8,0.1,1.3h-4.6
	c0-0.3,0-0.7-0.1-1c-0.1-0.4-0.2-0.8-0.3-1.1c-0.2-0.4-0.5-0.7-0.9-1c-0.4-0.3-0.9-0.5-1.3-0.6c-0.7-0.2-1.5-0.3-2.3-0.3
	c-0.1,0-0.2,0-0.3,0c-0.5,0-1.1,0.1-1.6,0.2c-0.5,0.1-0.9,0.3-1.3,0.6c-0.4,0.3-0.8,0.6-1.1,1c-0.3,0.4-0.5,1-0.5,1.5
	c0,0.4,0,0.7,0.2,1.1c0.1,0.4,0.3,0.8,0.7,1c0.2,0.2,0.5,0.4,0.8,0.5c0.5,0.2,1,0.3,1.5,0.5c0.3,0.1,0.7,0.2,1,0.3
	c1.8,0.5,3.6,0.8,5.3,1.4c1.1,0.3,2.1,0.7,3,1.4c0.6,0.5,1.2,1,1.5,1.7c0.6,0.9,0.8,2.1,0.8,3.2c0,1-0.2,2-0.6,2.9
	c-0.4,1-1.2,1.9-2,2.6c-0.8,0.7-1.9,1.2-2.9,1.5c-1.5,0.5-3.1,0.7-4.7,0.7c-1,0-2.1,0-3.1-0.2c-0.9-0.2-1.8-0.5-2.7-1
	c-1-0.5-1.8-1.2-2.5-2.1c-0.7-0.9-1.1-2-1.2-3.1C-869.3,1082-869.3,1081.5-869.3,1080.9z M-846.6,1080.9h4.8c0,0.2,0,0.4,0,0.6
	c0,0.5,0.1,0.9,0.3,1.3c0.2,0.5,0.6,0.9,1,1.3c0.4,0.4,0.9,0.7,1.4,0.8c0.7,0.3,1.6,0.3,2.3,0.3c0.3,0,0.5,0,0.8,0
	c0.6,0,1.2-0.1,1.8-0.3c0.5-0.2,0.9-0.4,1.3-0.8c0.4-0.3,0.7-0.6,0.9-1c0.3-0.5,0.4-1,0.4-1.6c0-0.3-0.1-0.7-0.2-1
	c-0.1-0.4-0.4-0.8-0.7-1.1c-0.2-0.2-0.4-0.3-0.6-0.4c-0.7-0.3-1.4-0.5-2.1-0.7c-1.1-0.3-2.2-0.5-3.3-0.8c-1.1-0.3-2.2-0.5-3.3-0.9
	c-0.8-0.3-1.5-0.6-2.2-1.2c-0.6-0.4-1-1-1.4-1.6c-0.5-0.9-0.8-2-0.8-3.1c0-0.9,0.1-1.8,0.5-2.6c0.4-1,1.1-1.8,1.9-2.5
	c0.8-0.7,1.7-1.1,2.7-1.5c1.4-0.5,2.9-0.7,4.3-0.7c1.1,0,2.2,0.1,3.3,0.3c1.1,0.2,2.2,0.6,3.2,1.2c0.7,0.4,1.4,1,1.8,1.7
	c0.5,0.8,0.8,1.7,0.9,2.7c0,0.4,0.1,0.8,0.1,1.3h-4.6c0-0.3,0-0.7-0.1-1c-0.1-0.4-0.2-0.8-0.4-1.1c-0.2-0.4-0.5-0.7-0.9-1
	c-0.4-0.3-0.9-0.5-1.3-0.6c-0.7-0.2-1.5-0.3-2.3-0.3c-0.1,0-0.2,0-0.3,0c-0.5,0-1.1,0.1-1.6,0.2c-0.4,0.1-0.9,0.3-1.3,0.6
	c-0.4,0.3-0.8,0.6-1.1,1c-0.3,0.4-0.5,1-0.5,1.5c0,0.4,0,0.7,0.2,1.1c0.1,0.4,0.3,0.8,0.7,1c0.2,0.2,0.5,0.4,0.8,0.5
	c0.5,0.2,1,0.3,1.5,0.5c0.3,0.1,0.7,0.2,1,0.3c1.8,0.5,3.6,0.8,5.3,1.4c1.1,0.3,2.1,0.7,3,1.4c0.6,0.5,1.1,1,1.5,1.7
	c0.6,0.9,0.8,2.1,0.8,3.2c0,1-0.2,2-0.6,2.9c-0.4,1-1.2,1.9-2,2.6c-0.8,0.7-1.9,1.2-2.9,1.5c-1.5,0.5-3.1,0.7-4.7,0.7
	c-1,0-2.1,0-3.1-0.2c-0.9-0.2-1.8-0.5-2.7-1c-1-0.5-1.8-1.2-2.5-2.1c-0.7-0.9-1.1-2-1.2-3.1C-846.6,1082-846.6,1081.5-846.6,1080.9z
	 M-807,1073.7c0-0.3,0-0.6,0-1c0-0.9-0.2-1.8-0.5-2.6c-0.3-0.8-0.8-1.6-1.4-2.1c-0.6-0.6-1.3-1-2.1-1.2c-0.6-0.2-1.2-0.2-1.7-0.2
	c-0.9,0-1.9,0.1-2.8,0.4c-0.7,0.3-1.3,0.7-1.9,1.2c-0.6,0.6-1.1,1.3-1.5,2.1c-0.4,0.8-0.6,1.8-0.6,2.7c0,0.2,0,0.5,0,0.7H-807
	L-807,1073.7z M-802.4,1076.9h-17.3c0,0.3,0,0.6,0,0.9c0,0.9,0.1,1.7,0.3,2.6c0.2,1,0.6,1.9,1.2,2.7c0.5,0.7,1.2,1.3,2,1.8
	c1,0.5,2.1,0.8,3.3,0.8c0.6,0,1.2,0,1.8-0.2c0.6-0.1,1.1-0.3,1.6-0.6c0.6-0.4,1.1-0.9,1.5-1.5c0.4-0.6,0.7-1.3,0.8-2
	c0-0.2,0.1-0.4,0.1-0.6h4.5c0,0.2,0,0.4-0.1,0.6c-0.1,1-0.5,2-1,2.9c-0.6,1.1-1.4,2.1-2.4,2.8c-0.9,0.7-2,1.2-3.1,1.5
	c-1.2,0.3-2.5,0.5-3.7,0.5c-1.5,0-3-0.1-4.4-0.6c-1.2-0.4-2.3-1-3.3-1.8c-1.1-1-2-2.3-2.6-3.7c-0.8-1.8-1-3.8-1.1-5.7
	c-0.1-1.8,0-3.7,0.5-5.5c0.4-1.6,1.1-3.2,2.2-4.5c0.9-1.2,2.2-2.2,3.6-2.8c1.6-0.7,3.4-1,5.2-0.9c1.3,0,2.6,0.2,3.9,0.6
	c1.5,0.5,2.9,1.3,3.9,2.5c0.9,1,1.5,2.2,1.9,3.5c0.6,1.8,0.7,3.6,0.7,5.5C-802.4,1075.9-802.4,1076.4-802.4,1076.9z M-776.2,1064.9
	c0,1.2,0.2,2.3,0.6,3.3c0.3,0.6,0.6,1.2,1.1,1.7c0.6,0.7,1.4,1.2,2.2,1.5c0.8,0.3,1.6,0.4,2.4,0.4c1,0,1.9-0.2,2.8-0.6
	c0.7-0.3,1.3-0.8,1.8-1.4c0.5-0.6,0.9-1.3,1.1-2.1c0.3-0.8,0.4-1.7,0.4-2.6c0-1.1-0.1-2.2-0.6-3.3c-0.2-0.6-0.6-1.2-1-1.7
	c-0.5-0.7-1.3-1.2-2-1.6c-0.8-0.4-1.8-0.6-2.7-0.6c-0.9,0-1.8,0.2-2.6,0.6c-0.7,0.3-1.3,0.8-1.8,1.4c-0.6,0.7-1,1.5-1.3,2.3
	C-776.1,1063.1-776.2,1064-776.2,1064.9z M-780.8,1080.2h5.1c0,0.4,0,0.8,0.1,1.2c0.1,0.4,0.2,0.9,0.4,1.3c0.2,0.5,0.6,1,1,1.3
	c0.4,0.4,1,0.6,1.5,0.8c0.7,0.2,1.5,0.3,2.2,0.3c1,0,2-0.1,2.8-0.5c1-0.5,1.8-1.3,2.4-2.2c0.7-1,1-2.1,1.3-3.2
	c0.5-1.9,0.7-3.8,0.7-5.8c0-0.4,0-0.8,0-1.2c0-0.3,0-0.6,0-0.9c-0.1,0.2-0.3,0.4-0.4,0.6c-0.7,1-1.6,1.9-2.7,2.5
	c-1.3,0.7-2.8,1.1-4.2,1.1c-1.2,0-2.5-0.1-3.6-0.5c-1.3-0.4-2.5-1.1-3.5-2.1c-1-0.9-1.8-2.1-2.3-3.4c-0.5-1.3-0.8-2.8-0.8-4.2
	c0-1.3,0.1-2.6,0.5-3.8c0.4-1.3,1-2.5,1.8-3.6c0.9-1.1,2-1.9,3.3-2.5c1.5-0.8,3.3-1.1,5-1.1c1.3,0,2.6,0.2,3.8,0.6
	c1.4,0.4,2.8,1.1,3.8,2.1c1.1,0.9,1.9,2.1,2.5,3.4c0.8,1.7,1.2,3.6,1.4,5.5c0.2,1.4,0.2,2.8,0.2,4.3c0,0.3,0,0.7,0,1
	c0,2.3,0,4.5-0.4,6.8c-0.3,2.3-1,4.5-2.3,6.3c-0.9,1.4-2.2,2.5-3.6,3.3c-1.8,1-4,1.4-6,1.3c-1,0-1.9-0.1-2.8-0.3
	c-1.2-0.2-2.4-0.6-3.4-1.3c-1-0.6-1.8-1.4-2.4-2.4c-0.6-1-1-2.1-1.1-3.3C-780.7,1081.1-780.7,1080.6-780.8,1080.2z M-750,1076
	c0,1.5,0.2,2.9,0.6,4.3c0.3,1.1,0.8,2.1,1.6,3c0.6,0.8,1.5,1.3,2.4,1.7c0.8,0.3,1.7,0.5,2.6,0.5c1.2,0,2.5-0.3,3.5-0.9
	c0.9-0.5,1.6-1.3,2.2-2.1c0.6-0.9,1.1-1.9,1.3-3c0.3-1.2,0.4-2.4,0.4-3.6c0-1.4-0.2-2.8-0.5-4.1c-0.3-1-0.7-2-1.4-2.8
	c-0.6-0.8-1.5-1.4-2.5-1.8c-0.9-0.3-1.8-0.5-2.8-0.5c-1.1,0-2.3,0.2-3.3,0.8c-0.9,0.5-1.7,1.3-2.3,2.2c-0.6,0.9-1.1,1.9-1.3,3
	C-749.8,1073.8-750,1074.9-750,1076z M-754.7,1076.6c0-1.7,0.1-3.3,0.5-4.9c0.4-1.7,1.2-3.2,2.4-4.5c1.1-1.3,2.5-2.4,4.2-3
	c1.6-0.7,3.4-0.9,5.2-0.8c1.5,0,3,0.2,4.4,0.7c1.5,0.5,2.9,1.3,4,2.5c1,0.9,1.7,2.1,2.2,3.3c0.8,1.9,1.1,4,1.1,6.1
	c0,1.9-0.2,3.7-0.8,5.4c-0.5,1.6-1.4,3-2.5,4.2c-1.1,1.2-2.5,2.1-4,2.6c-1.6,0.6-3.4,0.8-5.1,0.8c-1.5,0-3-0.2-4.3-0.7
	c-1.4-0.5-2.7-1.3-3.7-2.3c-1.1-1.1-2-2.5-2.5-4C-754.4,1080.2-754.6,1078.5-754.7,1076.6z M-722.2,1076c0,1.5,0.2,2.9,0.6,4.3
	c0.3,1.1,0.8,2.1,1.6,3c0.6,0.8,1.5,1.3,2.4,1.7c0.8,0.3,1.7,0.5,2.6,0.5c1.2,0,2.5-0.3,3.5-0.9c0.9-0.5,1.6-1.3,2.2-2.1
	c0.6-0.9,1.1-1.9,1.3-3c0.3-1.2,0.4-2.4,0.4-3.6c0-1.4-0.2-2.8-0.5-4.1c-0.3-1-0.7-2-1.4-2.8c-0.6-0.8-1.5-1.4-2.5-1.8
	c-0.9-0.3-1.8-0.5-2.8-0.5c-1.1,0-2.3,0.2-3.3,0.8c-0.9,0.5-1.7,1.3-2.3,2.2c-0.6,0.9-1.1,1.9-1.3,3
	C-722.1,1073.8-722.2,1074.9-722.2,1076z M-726.9,1076.6c0-1.7,0.1-3.3,0.5-4.9c0.4-1.7,1.2-3.2,2.4-4.5c1.1-1.3,2.5-2.4,4.1-3
	c1.6-0.7,3.4-0.9,5.2-0.8c1.5,0,3,0.2,4.4,0.7c1.5,0.5,2.9,1.3,4,2.5c1,0.9,1.7,2.1,2.2,3.3c0.8,1.9,1.1,4,1.1,6.1
	c0,1.9-0.2,3.7-0.8,5.4c-0.5,1.6-1.4,3-2.5,4.2c-1.1,1.2-2.5,2.1-4,2.6c-1.6,0.6-3.4,0.8-5.1,0.8c-1.5,0-3-0.2-4.3-0.7
	c-1.4-0.5-2.7-1.3-3.7-2.3c-1.1-1.1-2-2.5-2.5-4C-726.6,1080.2-726.9,1078.5-726.9,1076.6z M-666.7,1075.8l9.4,12.3h-5.9l-6.9-9.6
	l-6.8,9.6h-5.3l9.5-12.6l-9-11.5h5.9l6.4,9.1l6.7-9.1h5.3L-666.7,1075.8z M-636.9,1080.2h5c0,0.3,0,0.5,0.1,0.8
	c0.1,0.4,0.2,0.8,0.3,1.2c0.3,0.6,0.7,1.1,1.2,1.5c0.5,0.4,1,0.7,1.5,0.9c0.6,0.3,1.3,0.4,2,0.4c0.8,0.1,1.5,0,2.3-0.2
	c0.9-0.3,1.8-0.7,2.5-1.4c0.7-0.7,1.2-1.5,1.5-2.4c0.4-1.1,0.6-2.3,0.6-3.5c0-1-0.1-1.9-0.4-2.9c-0.3-0.9-0.7-1.7-1.3-2.4
	c-0.5-0.6-1.2-1.1-2-1.5c-0.9-0.4-2-0.6-3-0.5c-0.5,0-0.9,0.1-1.3,0.2c-0.6,0.2-1.3,0.4-1.8,0.7c-0.5,0.3-1,0.8-1.4,1.3
	c-0.3,0.5-0.6,1-0.8,1.5c-0.1,0.3-0.2,0.6-0.3,0.8h-4.4l0.9-19.8h18.7v3.9h-14.5l-0.6,10.8c0.4-0.4,0.8-0.8,1.2-1.1
	c0.8-0.6,1.7-1.1,2.6-1.5c1-0.4,2.2-0.6,3.3-0.5c1.2,0,2.5,0.2,3.6,0.7c1.2,0.5,2.4,1.2,3.3,2.2c0.9,0.9,1.5,2.1,2,3.3
	c0.6,1.5,0.9,3.1,0.8,4.8c0,1.5-0.2,3-0.7,4.3c-0.5,1.3-1.3,2.6-2.3,3.6c-1,1.1-2.3,2-3.6,2.5c-1.6,0.7-3.3,1-5.1,1
	c-1.2,0-2.3-0.1-3.4-0.4c-1-0.3-2-0.7-2.9-1.3c-0.8-0.5-1.6-1.2-2.2-2c-0.8-1.1-1.3-2.3-1.5-3.6
	C-636.8,1081.2-636.8,1080.7-636.9,1080.2z M-606.4,1076c0,1.5,0.2,2.9,0.6,4.3c0.3,1.1,0.8,2.1,1.6,3c0.6,0.8,1.5,1.3,2.4,1.7
	c0.8,0.3,1.7,0.5,2.6,0.5c1.2,0,2.4-0.3,3.5-0.9c0.9-0.5,1.6-1.3,2.2-2.1c0.6-0.9,1.1-1.9,1.3-3c0.3-1.2,0.4-2.4,0.4-3.6
	c0-1.4-0.2-2.8-0.5-4.1c-0.3-1-0.7-2-1.4-2.8c-0.6-0.8-1.5-1.4-2.5-1.8c-0.9-0.3-1.8-0.5-2.8-0.5c-1.1,0-2.3,0.2-3.3,0.8
	c-0.9,0.5-1.7,1.3-2.3,2.2c-0.6,0.9-1.1,1.9-1.3,3C-606.3,1073.8-606.3,1074.9-606.4,1076z M-611.1,1076.6c0-1.7,0.1-3.3,0.5-4.9
	c0.4-1.7,1.2-3.2,2.4-4.5c1.1-1.3,2.5-2.4,4.2-3c1.6-0.7,3.4-0.9,5.2-0.8c1.5,0,3,0.2,4.4,0.7c1.5,0.5,2.9,1.3,4,2.5
	c1,0.9,1.7,2.1,2.2,3.3c0.8,1.9,1.1,4,1.1,6.1c0,1.9-0.2,3.7-0.8,5.4c-0.5,1.6-1.4,3-2.5,4.2c-1.1,1.2-2.5,2.1-4,2.6
	c-1.6,0.6-3.4,0.8-5.1,0.8c-1.5,0-3-0.2-4.3-0.7c-1.4-0.5-2.7-1.3-3.7-2.3c-1.1-1.1-2-2.5-2.5-4
	C-610.8,1080.2-611,1078.5-611.1,1076.6z M-578.6,1076c0,1.5,0.2,2.9,0.6,4.3c0.3,1.1,0.8,2.1,1.6,3c0.6,0.8,1.5,1.3,2.4,1.7
	c0.8,0.3,1.7,0.5,2.6,0.5c1.2,0,2.4-0.3,3.5-0.9c0.9-0.5,1.6-1.3,2.2-2.1c0.6-0.9,1.1-1.9,1.3-3c0.3-1.2,0.4-2.4,0.4-3.6
	c0-1.4-0.2-2.8-0.5-4.1c-0.3-1-0.7-2-1.4-2.8c-0.6-0.8-1.5-1.4-2.5-1.8c-0.9-0.3-1.8-0.5-2.8-0.5c-1.1,0-2.3,0.2-3.3,0.8
	c-0.9,0.5-1.7,1.3-2.3,2.2c-0.6,0.9-1.1,1.9-1.3,3C-578.5,1073.8-578.6,1074.9-578.6,1076z M-583.3,1076.6c0-1.7,0.1-3.3,0.5-4.9
	c0.4-1.7,1.2-3.2,2.4-4.5c1.1-1.3,2.5-2.4,4.2-3c1.6-0.7,3.4-0.9,5.2-0.8c1.5,0,3,0.2,4.4,0.7c1.5,0.5,2.9,1.3,4,2.5
	c1,0.9,1.7,2.1,2.2,3.3c0.8,1.9,1.1,4,1.1,6.1c0,1.9-0.2,3.7-0.8,5.4c-0.5,1.6-1.4,3-2.5,4.2c-1.1,1.2-2.5,2.1-4,2.6
	c-1.6,0.6-3.4,0.8-5.1,0.8c-1.5,0-3-0.2-4.3-0.7c-1.4-0.5-2.7-1.3-3.7-2.3c-1.1-1.1-2-2.5-2.5-4
	C-583,1080.2-583.3,1078.5-583.3,1076.6z M-535.7,1067.2l-0.1-3.2h4.5v3.5c0.3-0.4,0.6-0.8,0.9-1.2c0.8-0.9,1.7-1.7,2.8-2.2
	c1.2-0.6,2.6-0.8,3.9-0.7c0.5,0,1,0,1.5,0.1c0.8,0.1,1.7,0.3,2.5,0.6c0.6,0.2,1.2,0.6,1.7,1c0.7,0.5,1.3,1.1,1.7,1.9
	c0.2,0.3,0.4,0.6,0.5,1c0.3-0.5,0.6-0.9,1-1.4c0.7-0.9,1.7-1.7,2.7-2.2c1.3-0.7,2.8-1,4.3-1c1.1,0,2.2,0.1,3.2,0.4
	c0.8,0.2,1.6,0.6,2.3,1c0.9,0.6,1.8,1.4,2.3,2.3c0.6,0.9,0.9,2,1,3.1c0.1,0.6,0.1,1.1,0.1,1.7v16.2h-4.6v-15.4c0-0.3,0-0.7,0-1.1
	c0-0.6-0.1-1.1-0.4-1.6c-0.2-0.5-0.5-1.1-0.9-1.5c-0.5-0.5-1.1-0.9-1.8-1.2c-0.8-0.3-1.6-0.5-2.4-0.5c-0.6,0-1.3,0.1-1.9,0.3
	c-0.7,0.2-1.5,0.6-2,1.1c-0.5,0.4-0.9,0.9-1.2,1.4c-0.4,0.7-0.7,1.5-0.8,2.3c-0.2,0.9-0.2,1.7-0.2,2.6v13.5h-4.5v-15.9
	c0-0.3,0-0.5,0-0.8c-0.1-0.5-0.2-1.1-0.4-1.6c-0.3-0.7-0.7-1.3-1.3-1.8c-0.4-0.3-0.9-0.6-1.4-0.8c-0.6-0.2-1.3-0.4-2-0.4
	c-0.7,0-1.3,0.1-1.9,0.3c-1,0.3-1.9,0.7-2.6,1.4c-0.6,0.5-1.1,1.2-1.4,2c-0.3,0.8-0.5,1.7-0.5,2.5c0,0.5,0,0.9,0,1.3v13.7h-4.5
	L-535.7,1067.2L-535.7,1067.2z M-493,1067.2l-0.1-3.2h4.5v3.5c0.3-0.4,0.6-0.8,0.9-1.2c0.8-0.9,1.7-1.7,2.8-2.2
	c1.2-0.6,2.6-0.8,3.9-0.7c0.5,0,1,0,1.5,0.1c0.8,0.1,1.7,0.3,2.5,0.6c0.6,0.2,1.2,0.6,1.7,1c0.7,0.5,1.3,1.1,1.7,1.9
	c0.2,0.3,0.4,0.6,0.5,1c0.3-0.5,0.6-0.9,1-1.4c0.7-0.9,1.7-1.7,2.7-2.2c1.3-0.7,2.9-1,4.4-1c1.1,0,2.2,0.1,3.2,0.4
	c0.8,0.2,1.6,0.6,2.3,1c0.9,0.6,1.8,1.4,2.3,2.3c0.6,0.9,0.9,2,1,3.1c0.1,0.6,0.1,1.1,0.1,1.7v16.2h-4.6v-15.4c0-0.3,0-0.7,0-1.1
	c0-0.6-0.1-1.1-0.4-1.6c-0.2-0.5-0.5-1.1-0.9-1.5c-0.5-0.5-1.1-0.9-1.8-1.2c-0.8-0.3-1.6-0.5-2.4-0.5c-0.6,0-1.3,0.1-1.9,0.3
	c-0.7,0.2-1.5,0.6-2,1.1c-0.5,0.4-0.9,0.9-1.2,1.4c-0.4,0.7-0.7,1.5-0.8,2.3c-0.2,0.9-0.2,1.7-0.2,2.6v13.5h-4.5v-15.9
	c0-0.3,0-0.5,0-0.8c-0.1-0.5-0.2-1.1-0.4-1.6c-0.3-0.7-0.7-1.3-1.3-1.8c-0.4-0.3-0.9-0.6-1.4-0.8c-0.6-0.2-1.3-0.4-2-0.4
	c-0.6,0-1.3,0.1-1.9,0.3c-1,0.3-1.9,0.7-2.6,1.4c-0.6,0.5-1.1,1.2-1.4,2c-0.3,0.8-0.5,1.7-0.5,2.5c0,0.5,0,0.9,0,1.3v13.7h-4.5
	L-493,1067.2L-493,1067.2z M-1024.4,1192v-34.5h20.7v4.1l-15.8-0.1v10.9l14.8,0v4h-14.8v15.6H-1024.4z M-997.6,1179.9
	c0,1.5,0.2,2.9,0.6,4.3c0.3,1.1,0.8,2.1,1.6,3c0.6,0.8,1.5,1.3,2.4,1.7c0.8,0.3,1.7,0.5,2.6,0.5c1.2,0,2.5-0.3,3.5-0.9
	c0.9-0.5,1.6-1.3,2.2-2.1c0.6-0.9,1.1-1.9,1.3-3c0.3-1.2,0.4-2.4,0.4-3.6c0-1.4-0.2-2.8-0.5-4.1c-0.3-1-0.7-2-1.4-2.8
	c-0.7-0.8-1.5-1.5-2.5-1.8c-0.9-0.4-1.8-0.5-2.8-0.5c-1.1,0-2.3,0.2-3.3,0.8c-0.9,0.5-1.7,1.3-2.3,2.2c-0.6,0.9-1.1,1.9-1.3,3
	C-997.5,1177.7-997.6,1178.8-997.6,1179.9z M-1002.3,1180.5c0-1.7,0.1-3.3,0.5-4.9c0.4-1.6,1.2-3.2,2.4-4.5c1.1-1.3,2.5-2.4,4.1-3
	c1.6-0.7,3.4-0.9,5.2-0.8c1.5,0,3,0.2,4.4,0.7c1.5,0.5,2.9,1.3,4,2.5c1,0.9,1.7,2.1,2.2,3.3c0.8,1.9,1.2,4,1.1,6.1
	c0,1.8-0.2,3.7-0.8,5.4c-0.5,1.6-1.4,3-2.5,4.2c-1.1,1.2-2.5,2.1-4,2.6c-1.6,0.6-3.4,0.8-5.1,0.8c-1.5,0-3-0.2-4.3-0.7
	c-1.4-0.5-2.7-1.3-3.7-2.3c-1.1-1.1-2-2.5-2.5-4C-1002,1184.2-1002.2,1182.4-1002.3,1180.5z M-974,1192v-34.6h4.5v34.6H-974z
	 M-963.2,1192v-24.1h4.5v24.1H-963.2z M-963.7,1157.5h5.4v4.9h-5.4V1157.5z M-937.2,1177.7c0-0.3,0-0.6,0-1c0-0.9-0.2-1.8-0.5-2.6
	c-0.3-0.8-0.8-1.6-1.4-2.1c-0.6-0.6-1.3-1-2.1-1.2c-0.6-0.2-1.2-0.2-1.7-0.2c-0.9,0-1.9,0.1-2.8,0.4c-0.7,0.3-1.3,0.7-1.9,1.2
	c-0.6,0.6-1.1,1.3-1.5,2.1c-0.4,0.8-0.6,1.8-0.6,2.7c0,0.2,0,0.5,0,0.7L-937.2,1177.7L-937.2,1177.7z M-932.6,1180.8h-17.3
	c0,0.3,0,0.6,0,0.9c0,0.9,0.1,1.7,0.3,2.6c0.2,1,0.6,1.9,1.2,2.7c0.5,0.7,1.2,1.3,2,1.8c1,0.6,2.1,0.8,3.3,0.8c0.6,0,1.2,0,1.8-0.2
	c0.6-0.1,1.1-0.3,1.6-0.6c0.6-0.4,1.1-0.9,1.5-1.6c0.4-0.6,0.7-1.3,0.8-2c0-0.2,0.1-0.4,0.1-0.6h4.5c0,0.2,0,0.4-0.1,0.6
	c-0.1,1-0.5,2-1,2.9c-0.6,1.1-1.4,2.1-2.4,2.8c-0.9,0.7-2,1.2-3.1,1.5c-1.2,0.4-2.5,0.5-3.7,0.5c-1.5,0-3-0.2-4.4-0.6
	c-1.2-0.4-2.3-1-3.3-1.8c-1.1-1-2-2.3-2.6-3.7c-0.8-1.8-1-3.8-1.1-5.7c-0.1-1.8,0-3.7,0.5-5.4c0.4-1.6,1.1-3.2,2.2-4.5
	c0.9-1.2,2.2-2.2,3.6-2.8c1.6-0.7,3.4-1,5.2-0.9c1.3,0,2.6,0.2,3.9,0.6c1.5,0.5,2.9,1.3,3.9,2.5c0.9,1,1.5,2.2,1.9,3.5
	c0.6,1.8,0.7,3.6,0.7,5.5C-932.6,1179.8-932.6,1180.3-932.6,1180.8z M-923.4,1192h-4.5v-21.3l-0.1-3h4.5l0,4.1
	c0.2-0.4,0.4-0.7,0.6-1.1c0.7-1,1.8-1.9,2.9-2.4c1.3-0.6,2.7-0.8,4.1-0.8c1,0,2.1,0.1,3,0.4c0.9,0.2,1.7,0.6,2.5,1.1
	c1,0.7,2,1.6,2.5,2.7c0.5,0.9,0.8,2,0.8,3.1c0,0.3,0,0.6,0,0.8v16.4h-4.6v-15.8c0-0.2,0-0.5,0-0.7c0-0.5-0.2-1.1-0.4-1.6
	c-0.2-0.6-0.6-1.2-1.2-1.7c-0.5-0.4-1-0.7-1.6-0.9c-0.8-0.3-1.5-0.4-2.3-0.4c-0.7,0-1.4,0.1-2,0.3c-0.6,0.2-1.2,0.5-1.8,0.9
	c-0.6,0.5-1.2,1.1-1.5,1.7c-0.5,0.8-0.7,1.6-0.8,2.5c-0.1,0.6-0.1,1.2-0.2,1.8V1192z M-901.2,1192v-34.6h4.5v34.6H-901.2z
	 M-888.1,1179.9c0,1.5,0.2,2.9,0.6,4.3c0.3,1.1,0.8,2.1,1.6,3c0.6,0.8,1.5,1.3,2.4,1.7c0.8,0.3,1.7,0.5,2.6,0.5
	c1.2,0,2.5-0.3,3.5-0.9c0.9-0.5,1.6-1.3,2.2-2.1c0.6-0.9,1.1-1.9,1.3-3c0.3-1.2,0.4-2.4,0.4-3.6c0-1.4-0.2-2.8-0.5-4.1
	c-0.3-1-0.7-2-1.4-2.8c-0.6-0.8-1.5-1.5-2.5-1.8c-0.9-0.4-1.8-0.5-2.8-0.5c-1.1,0-2.3,0.2-3.2,0.8c-0.9,0.5-1.7,1.3-2.3,2.2
	c-0.6,0.9-1.1,1.9-1.3,3C-888,1177.7-888.1,1178.8-888.1,1179.9z M-892.8,1180.5c0-1.7,0.1-3.3,0.5-4.9c0.5-1.6,1.3-3.2,2.4-4.5
	c1.1-1.3,2.5-2.4,4.2-3c1.6-0.7,3.4-0.9,5.2-0.8c1.5,0,3,0.2,4.4,0.7c1.5,0.5,2.9,1.3,4,2.5c0.9,0.9,1.7,2.1,2.2,3.3
	c0.8,1.9,1.1,4,1.1,6.1c0,1.8-0.2,3.7-0.8,5.4c-0.5,1.6-1.4,3-2.6,4.2c-1.1,1.2-2.5,2.1-4,2.6c-1.6,0.6-3.4,0.8-5.1,0.8
	c-1.5,0-2.9-0.2-4.3-0.7c-1.4-0.5-2.7-1.3-3.7-2.3c-1.2-1.1-2-2.5-2.5-4C-892.5,1184.2-892.8,1182.4-892.8,1180.5z M-860.4,1179.6
	c0,1.4,0.1,2.8,0.5,4.1c0.3,0.9,0.6,1.8,1.2,2.5c0.5,0.7,1.3,1.3,2.1,1.6c0.8,0.4,1.7,0.5,2.7,0.5c1.2,0,2.5-0.2,3.5-0.8
	c0.9-0.5,1.7-1.2,2.2-2.1c0.6-0.9,0.9-1.9,1.1-2.9c0.3-1.3,0.3-2.6,0.2-3.9c0-1.2-0.1-2.3-0.5-3.4c-0.3-0.9-0.8-1.8-1.5-2.4
	c-0.6-0.6-1.4-1.1-2.2-1.4c-0.9-0.3-1.8-0.5-2.8-0.5c-1.2,0-2.4,0.2-3.3,0.8c-0.7,0.4-1.3,1-1.7,1.6c-0.6,0.9-1,1.9-1.2,3
	C-860.3,1177.4-860.4,1178.5-860.4,1179.6z M-863.8,1193.9h4.8c0,0.4,0.1,0.8,0.2,1.2c0.1,0.5,0.2,0.9,0.5,1.3
	c0.3,0.5,0.6,0.9,1.1,1.2c0.5,0.3,1,0.6,1.6,0.7c0.8,0.2,1.5,0.3,2.3,0.3c0.8,0,1.6-0.1,2.4-0.3c1-0.3,1.9-0.8,2.5-1.6
	c0.6-0.7,0.9-1.5,1.1-2.3c0.3-1.2,0.4-2.4,0.4-3.7c0-1,0-2.1,0-3.1c-0.1,0.2-0.2,0.4-0.3,0.6c-0.2,0.4-0.5,0.8-0.9,1.1
	c-0.5,0.5-1.2,0.9-1.8,1.3c-0.6,0.3-1.3,0.6-1.9,0.8c-1,0.3-2,0.4-3,0.3c-1.3,0-2.5-0.1-3.7-0.6c-1.4-0.5-2.7-1.3-3.6-2.5
	c-1-1.1-1.6-2.5-2-4c-0.5-1.6-0.7-3.3-0.7-5c0-1.6,0.2-3.1,0.6-4.6c0.4-1.4,1.2-2.8,2.2-3.9c0.9-1.1,2.1-2,3.4-2.6
	c1.5-0.7,3.3-1,4.9-0.9c0.4,0,0.9,0,1.3,0.1c0.6,0.1,1.1,0.2,1.7,0.4c0.7,0.2,1.3,0.5,1.9,0.9c0.5,0.3,0.9,0.6,1.3,1
	c0.3,0.3,0.5,0.6,0.8,0.9c0.1,0.1,0.2,0.3,0.3,0.4l0.1-3.3h4.4l-0.1,4.4l0,15c0,1.2,0,2.3-0.1,3.5c0,1.3,0,2.5-0.3,3.8
	c-0.3,1.4-1,2.8-2,3.9c-0.8,0.9-1.9,1.5-3,2c-1.8,0.8-3.8,1.1-5.7,1.1c-1.3,0-2.7,0-4-0.3c-1.1-0.2-2.1-0.5-3-1.1
	c-0.8-0.4-1.5-1.1-1.9-1.9c-0.7-1-1-2.2-1.2-3.4C-863.8,1194.7-863.8,1194.3-863.8,1193.9z M-833.8,1179.9c0,1.5,0.2,2.9,0.6,4.3
	c0.3,1.1,0.8,2.1,1.5,3c0.6,0.8,1.5,1.3,2.4,1.7c0.8,0.3,1.7,0.5,2.6,0.5c1.2,0,2.5-0.3,3.5-0.9c0.9-0.5,1.6-1.3,2.2-2.1
	c0.6-0.9,1.1-1.9,1.3-3c0.3-1.2,0.4-2.4,0.4-3.6c0-1.4-0.2-2.8-0.5-4.1c-0.3-1-0.7-2-1.4-2.8c-0.6-0.8-1.5-1.5-2.5-1.8
	c-0.9-0.4-1.8-0.5-2.8-0.5c-1.1,0-2.3,0.2-3.2,0.8c-0.9,0.5-1.7,1.3-2.3,2.2c-0.6,0.9-1.1,1.9-1.3,3
	C-833.6,1177.7-833.8,1178.8-833.8,1179.9z M-838.5,1180.5c0-1.7,0.1-3.3,0.5-4.9c0.5-1.6,1.3-3.2,2.4-4.5c1.1-1.3,2.5-2.4,4.2-3
	c1.6-0.7,3.4-0.9,5.2-0.8c1.5,0,3,0.2,4.4,0.7c1.5,0.5,2.9,1.3,4,2.5c0.9,0.9,1.7,2.1,2.2,3.3c0.8,1.9,1.2,4,1.1,6.1
	c0,1.8-0.2,3.7-0.8,5.4c-0.5,1.6-1.4,3-2.6,4.2c-1.1,1.2-2.5,2.1-4,2.6c-1.6,0.6-3.4,0.8-5.1,0.8c-1.5,0-2.9-0.2-4.3-0.7
	c-1.4-0.5-2.7-1.3-3.7-2.3c-1.2-1.1-2-2.5-2.5-4C-838.2,1184.2-838.4,1182.4-838.5,1180.5z M-779.5,1184.2h5c0,0.3,0,0.5,0.1,0.8
	c0.1,0.4,0.2,0.8,0.3,1.2c0.3,0.6,0.7,1.1,1.3,1.5c0.5,0.4,1,0.7,1.5,0.9c0.6,0.3,1.3,0.4,2,0.4c0.8,0,1.5,0,2.3-0.3
	c0.9-0.3,1.8-0.7,2.5-1.4c0.7-0.7,1.2-1.5,1.5-2.4c0.4-1.1,0.7-2.3,0.6-3.5c0-1-0.1-1.9-0.4-2.9c-0.3-0.9-0.7-1.7-1.3-2.4
	c-0.5-0.6-1.2-1.2-2-1.5c-0.9-0.4-2-0.6-3-0.5c-0.5,0-0.9,0.1-1.3,0.2c-0.6,0.1-1.3,0.4-1.8,0.7c-0.5,0.3-1,0.8-1.4,1.3
	c-0.3,0.5-0.6,1-0.8,1.5c-0.1,0.3-0.2,0.5-0.3,0.8h-4.4l0.9-19.8h18.7v3.9h-14.5l-0.6,10.8c0.4-0.4,0.8-0.8,1.2-1.1
	c0.8-0.6,1.7-1.1,2.6-1.5c1.1-0.4,2.2-0.6,3.3-0.5c1.2,0,2.5,0.2,3.6,0.7c1.3,0.5,2.4,1.2,3.3,2.2c0.9,0.9,1.6,2.1,2,3.3
	c0.6,1.5,0.9,3.1,0.8,4.8c0,1.5-0.2,3-0.7,4.3c-0.5,1.3-1.3,2.6-2.3,3.6c-1,1.1-2.3,2-3.6,2.6c-1.6,0.7-3.3,1-5.1,1
	c-1.2,0-2.3-0.1-3.4-0.4c-1-0.3-2-0.7-2.9-1.3c-0.8-0.5-1.6-1.2-2.2-2c-0.8-1-1.3-2.3-1.5-3.6
	C-779.5,1185.1-779.5,1184.6-779.5,1184.2z M-754.6,1192v-4.4c0.4-0.4,0.8-0.8,1.2-1.1c1.6-1.6,3.2-3.1,4.8-4.7
	c0.9-0.9,1.8-1.8,2.7-2.7c0.9-0.9,1.8-1.9,2.7-2.8c0.8-0.9,1.6-1.8,2.3-2.8c0.5-0.7,1-1.4,1.5-2.2c0.3-0.6,0.7-1.2,0.8-1.9
	c0.2-0.7,0.3-1.4,0.3-2.1c0-0.7-0.1-1.3-0.3-2c-0.2-0.7-0.6-1.3-1.1-1.8c-0.4-0.5-1-0.8-1.6-1c-0.8-0.3-1.6-0.4-2.4-0.4
	c-0.6,0-1.2,0.1-1.8,0.2c-0.8,0.2-1.5,0.6-2,1.2c-0.3,0.3-0.6,0.7-0.8,1.2c-0.4,0.8-0.6,1.6-0.7,2.5c0,0.3,0,0.5,0,0.8h-5
	c0-0.4,0.1-0.8,0.1-1.1c0.1-1,0.3-2.1,0.7-3c0.5-1.2,1.3-2.3,2.3-3.1c0.9-0.8,1.9-1.4,3-1.8c1.3-0.5,2.7-0.7,4.1-0.7
	c1.3,0,2.6,0.1,3.8,0.5c1.2,0.3,2.4,0.9,3.3,1.7c0.9,0.7,1.7,1.7,2.2,2.8c0.6,1.2,1,2.6,1,4c0.1,1.8-0.3,3.6-1.1,5.2
	c-0.9,1.9-2.3,3.6-3.8,5.1c-0.4,0.4-0.7,0.8-1.1,1.2c-1.3,1.4-2.6,2.8-3.9,4.1c-1.4,1.4-2.9,2.8-4.3,4.2c-0.5,0.5-1,0.9-1.4,1.4
	h15.8v3.8L-754.6,1192L-754.6,1192z M-724.7,1181.9c0,1,0.2,2,0.5,2.9c0.3,0.8,0.8,1.7,1.4,2.3c0.6,0.6,1.3,1.1,2,1.4
	c0.7,0.3,1.5,0.5,2.2,0.5c1,0,2-0.2,2.9-0.6c0.7-0.3,1.4-0.8,1.9-1.4c0.7-0.8,1.2-1.8,1.5-2.8c0.2-0.8,0.3-1.7,0.3-2.5
	c0-1.2-0.1-2.4-0.5-3.5c-0.3-0.8-0.7-1.6-1.3-2.2c-0.6-0.7-1.5-1.3-2.3-1.5c-0.7-0.3-1.5-0.4-2.3-0.3c-1,0-2.1,0.2-3,0.8
	c-0.7,0.3-1.2,0.8-1.7,1.4c-0.6,0.7-1.1,1.6-1.3,2.6C-724.6,1179.9-724.7,1180.9-724.7,1181.9z M-707.7,1166.7h-4.9
	c0-0.3,0-0.5,0-0.8c0-0.4-0.2-0.8-0.3-1.2c-0.2-0.6-0.6-1.2-1.1-1.7c-0.3-0.3-0.7-0.5-1.1-0.7c-0.7-0.3-1.5-0.5-2.2-0.5
	c-0.8,0-1.7,0.1-2.5,0.4c-1,0.4-1.9,1-2.6,1.9c-0.8,0.9-1.2,2.1-1.5,3.3c-0.5,2-0.8,4.1-1,6.2c0,0.4,0,0.7-0.1,1.1
	c0-0.1,0.1-0.1,0.1-0.2c0.7-1.2,1.7-2.2,3-2.9c1.4-0.8,3-1.2,4.7-1.1c1.2,0,2.3,0.2,3.4,0.5c1.3,0.4,2.6,1.2,3.6,2.2
	c0.9,0.9,1.6,2,2.1,3.2c0.6,1.4,0.8,2.9,0.8,4.4c0,0.2,0,0.3,0,0.5c0,1.4-0.2,2.9-0.7,4.3c-0.4,1.3-1.2,2.6-2.2,3.7
	c-0.9,1-1.9,1.8-3.1,2.4c-1.6,0.8-3.3,1.2-5.1,1.2c-1.7,0-3.4-0.3-5-1c-1.5-0.7-2.9-1.8-3.8-3.2c-0.9-1.2-1.4-2.6-1.8-4
	c-0.7-2.6-0.9-5.3-0.8-8c0-2.4,0.3-4.8,0.7-7.2c0.5-2.4,1.2-4.7,2.6-6.7c1-1.5,2.3-2.7,3.8-3.5c1.6-0.8,3.5-1.2,5.3-1.1
	c1.2,0,2.4,0.2,3.5,0.6c1,0.3,1.9,0.7,2.7,1.3c0.9,0.6,1.7,1.4,2.2,2.3c0.6,1,1,2.2,1,3.4C-707.8,1166.1-707.7,1166.4-707.7,1166.7z
	 M-673.7,1179.7l9.4,12.3h-5.9l-6.9-9.7l-6.8,9.7h-5.3l9.5-12.6l-9-11.5h5.9l6.5,9.1l6.7-9.1h5.3L-673.7,1179.7z M-641.1,1180.9
	h11.4l0.2-17.7L-641.1,1180.9z M-625.2,1192h-4.6v-7.2h-15v-5.7l14.4-20.8h5.2v22.5h4.8v3.9h-4.8V1192z M-618.2,1183.5h5.1
	c0,0.2,0,0.4,0,0.6c0,0.6,0.2,1.2,0.4,1.8c0.2,0.6,0.6,1.1,1.1,1.5c0.5,0.5,1.1,0.8,1.7,1.1c0.9,0.3,1.8,0.5,2.7,0.5
	c0.8,0,1.6,0,2.4-0.2c0.8-0.2,1.6-0.6,2.3-1.2c0.7-0.5,1.2-1.2,1.6-2c0.4-0.8,0.5-1.7,0.5-2.5c0-0.8-0.1-1.6-0.4-2.3
	c-0.3-0.8-0.8-1.6-1.5-2.2c-0.6-0.6-1.4-1-2.2-1.2c-1.2-0.4-2.4-0.4-3.7-0.4c-0.5,0-1.1,0-1.6,0v-3.9c0.5,0,1,0,1.6,0
	c1,0,1.9-0.2,2.8-0.4c0.9-0.2,1.8-0.6,2.5-1.2c0.6-0.5,1.1-1.2,1.4-1.9c0.3-0.8,0.5-1.6,0.5-2.4c0-0.6-0.1-1.2-0.3-1.8
	c-0.2-0.7-0.6-1.4-1.1-1.9c-0.5-0.5-1.2-0.9-1.8-1.1c-0.8-0.3-1.7-0.4-2.6-0.4c-0.7,0-1.3,0.1-2,0.2c-0.7,0.2-1.4,0.5-2,0.9
	c-0.5,0.3-0.9,0.7-1.2,1.2c-0.4,0.6-0.7,1.3-0.9,2c0,0.3-0.1,0.5-0.1,0.8h-4.9c0-0.3,0-0.5,0.1-0.8c0.1-1,0.3-2,0.7-2.8
	c0.5-1.1,1.2-2,2.1-2.8c0.9-0.8,1.9-1.3,2.9-1.8c1.5-0.6,3.2-0.9,4.8-0.8c1.2,0,2.5,0.1,3.7,0.4c1.4,0.3,2.7,0.9,3.8,1.7
	c1,0.7,1.8,1.6,2.3,2.7c0.7,1.2,1.1,2.6,1.1,4c0,0.8-0.1,1.6-0.3,2.4c-0.2,0.9-0.6,1.7-1.2,2.4c-0.6,0.8-1.3,1.4-2,1.9
	c-0.8,0.5-1.7,0.9-2.7,1.2c-0.1,0-0.3,0.1-0.4,0.1c0.3,0.1,0.5,0.1,0.8,0.1c0.8,0.2,1.5,0.4,2.2,0.8c0.8,0.4,1.6,1,2.2,1.7
	c0.6,0.7,1,1.5,1.4,2.3c0.4,1,0.6,2.1,0.6,3.2c0,1.2-0.2,2.4-0.7,3.5c-0.6,1.3-1.5,2.5-2.6,3.5c-1.1,1-2.5,1.7-3.9,2.1
	c-1.5,0.5-3.1,0.7-4.7,0.6c-1.3,0-2.5-0.2-3.8-0.5c-1.4-0.4-2.7-1-3.9-1.9c-0.8-0.7-1.5-1.5-2-2.4c-0.6-1.1-0.9-2.3-0.9-3.5
	C-618.1,1184.2-618.2,1183.8-618.2,1183.5z M-591.5,1184.2h5c0,0.3,0.1,0.5,0.1,0.8c0.1,0.4,0.2,0.8,0.3,1.2
	c0.3,0.6,0.7,1.1,1.2,1.5c0.5,0.4,1,0.7,1.5,0.9c0.6,0.3,1.3,0.4,2,0.4c0.8,0,1.5,0,2.3-0.3c0.9-0.3,1.8-0.7,2.5-1.4
	c0.7-0.7,1.2-1.5,1.5-2.4c0.4-1.1,0.6-2.3,0.6-3.5c0-1-0.1-1.9-0.4-2.9c-0.3-0.9-0.7-1.7-1.3-2.4c-0.5-0.6-1.2-1.2-2-1.5
	c-0.9-0.4-2-0.6-3-0.5c-0.5,0-0.9,0.1-1.3,0.2c-0.6,0.1-1.3,0.4-1.8,0.7c-0.5,0.3-1,0.8-1.4,1.3c-0.4,0.5-0.6,1-0.8,1.5
	c-0.1,0.3-0.2,0.5-0.3,0.8h-4.4l0.9-19.8h18.7v3.9h-14.5l-0.6,10.8c0.4-0.4,0.8-0.8,1.2-1.1c0.8-0.6,1.7-1.1,2.6-1.5
	c1.1-0.4,2.2-0.6,3.3-0.5c1.3,0,2.5,0.2,3.6,0.7c1.2,0.5,2.4,1.2,3.3,2.2c0.9,0.9,1.5,2.1,2,3.3c0.6,1.5,0.9,3.1,0.9,4.8
	c0,1.5-0.2,3-0.7,4.3c-0.5,1.3-1.3,2.6-2.3,3.6c-1,1.1-2.3,2-3.6,2.6c-1.6,0.7-3.3,1-5.1,1c-1.2,0-2.3-0.1-3.4-0.4
	c-1-0.3-2-0.7-2.9-1.3c-0.8-0.5-1.6-1.2-2.1-2c-0.8-1-1.3-2.3-1.5-3.6C-591.5,1185.1-591.5,1184.6-591.5,1184.2z M-549.7,1171.2
	l-0.1-3.2h4.5v3.5c0.3-0.4,0.6-0.8,0.9-1.2c0.8-0.9,1.7-1.7,2.8-2.1c1.2-0.6,2.6-0.8,3.9-0.8c0.5,0,1,0.1,1.5,0.1
	c0.8,0.1,1.7,0.3,2.5,0.6c0.6,0.2,1.2,0.6,1.7,1c0.7,0.5,1.3,1.2,1.7,1.9c0.2,0.3,0.4,0.7,0.6,1c0.3-0.5,0.6-0.9,1-1.4
	c0.7-0.9,1.7-1.7,2.7-2.2c1.3-0.7,2.8-1,4.3-1c1.1,0,2.2,0.1,3.2,0.4c0.8,0.2,1.6,0.6,2.3,1c0.9,0.6,1.7,1.4,2.3,2.3
	c0.6,0.9,0.9,2,1,3.1c0.1,0.5,0.1,1.1,0.1,1.7v16.2h-4.6v-15.4c0-0.4,0-0.7,0-1.1c0-0.6-0.2-1.1-0.3-1.6c-0.2-0.5-0.5-1.1-0.9-1.5
	c-0.5-0.5-1.1-0.9-1.8-1.2c-0.8-0.3-1.6-0.5-2.4-0.4c-0.6,0-1.3,0.1-1.9,0.3c-0.7,0.2-1.5,0.6-2,1.1c-0.5,0.4-0.9,0.9-1.2,1.4
	c-0.4,0.7-0.7,1.5-0.8,2.3c-0.2,0.9-0.2,1.7-0.2,2.6v13.5h-4.5v-15.9c0-0.3,0-0.5-0.1-0.8c-0.1-0.6-0.2-1.1-0.4-1.6
	c-0.3-0.7-0.7-1.3-1.3-1.8c-0.4-0.3-0.9-0.6-1.4-0.8c-0.7-0.3-1.3-0.4-2-0.4c-0.7,0-1.3,0.1-1.9,0.3c-0.9,0.3-1.9,0.7-2.6,1.4
	c-0.6,0.5-1.1,1.2-1.4,2c-0.3,0.8-0.5,1.7-0.5,2.5c0,0.4,0,0.9,0,1.3v13.7h-4.5L-549.7,1171.2L-549.7,1171.2z M-507.1,1171.2
	l-0.1-3.2h4.5v3.5c0.3-0.4,0.6-0.8,0.9-1.2c0.8-0.9,1.7-1.7,2.8-2.1c1.2-0.6,2.6-0.8,3.9-0.8c0.5,0,1,0.1,1.5,0.1
	c0.8,0.1,1.7,0.3,2.5,0.6c0.6,0.2,1.2,0.6,1.7,1c0.7,0.5,1.3,1.2,1.7,1.9c0.2,0.3,0.4,0.7,0.5,1c0.3-0.5,0.6-0.9,1-1.4
	c0.7-0.9,1.7-1.7,2.7-2.2c1.3-0.7,2.8-1,4.4-1c1.1,0,2.2,0.1,3.2,0.4c0.8,0.2,1.6,0.6,2.3,1c0.9,0.6,1.7,1.4,2.3,2.3
	c0.6,0.9,0.9,2,1,3.1c0.1,0.5,0.1,1.1,0.1,1.7v16.2h-4.6v-15.4c0-0.4,0-0.7,0-1.1c0-0.6-0.1-1.1-0.4-1.6c-0.2-0.5-0.5-1.1-0.9-1.5
	c-0.5-0.5-1.1-0.9-1.8-1.2c-0.8-0.3-1.6-0.5-2.4-0.4c-0.6,0-1.3,0.1-1.9,0.3c-0.7,0.2-1.5,0.6-2,1.1c-0.5,0.4-0.9,0.9-1.2,1.4
	c-0.4,0.7-0.7,1.5-0.8,2.3c-0.2,0.9-0.2,1.7-0.2,2.6v13.5h-4.5v-15.9c0-0.3,0-0.5,0-0.8c-0.1-0.6-0.2-1.1-0.4-1.6
	c-0.3-0.7-0.7-1.3-1.3-1.8c-0.4-0.3-0.9-0.6-1.4-0.8c-0.6-0.3-1.3-0.4-2-0.4c-0.6,0-1.3,0.1-1.9,0.3c-1,0.3-1.9,0.7-2.6,1.4
	c-0.6,0.5-1.1,1.2-1.4,2c-0.3,0.8-0.5,1.7-0.5,2.5c0,0.4,0,0.9,0,1.3v13.7h-4.5L-507.1,1171.2L-507.1,1171.2z"/>
<path d="M101,413.6H28.1l8.4,33.8c2.3-2.2,4.6-4.5,6.9-6.7c3.6-3.4,7.2-6.8,11.2-9.6c4.7-3.5,9.9-6.3,15.2-8.7
	c6.1-2.8,12.3-5,18.8-6.5C92.7,414.9,96.9,414.2,101,413.6z M78.6,438.5c-2,0.7-4,1.4-6,2.2c-3.6,1.4-7,3.2-10.3,5.2
	c-1.9,1.1-3.7,2.2-5.5,3.4c-3.3,2.2-6.6,4.6-9.5,7.4c-1.8,1.7-3.4,3.6-5,5.5c3,2.8,5.9,5.5,9.1,8c2.5,1.9,5.1,3.7,7.8,5.4
	c3.3,2,6.8,3.9,10.4,5.5c3.6,1.6,7.2,3,10.9,4.1c2.8,0.9,5.7,1.7,8.5,2.3c1.7,0.4,3.5,0.7,5.2,1c-2.4-1.8-4.8-3.6-6.9-5.7
	c-1.7-1.6-3.2-3.4-4.5-5.3c-1.7-2.3-3.1-4.8-4.3-7.5c-1.2-2.6-2-5.4-2.5-8.3c-0.7-3.5-0.9-7.2-0.5-10.7c0.2-1.6,0.4-3.1,0.7-4.6
	c0.3-1.7,0.7-3.4,1.2-5c0.2-0.8,0.5-1.7,0.8-2.5C78.5,438.7,78.5,438.6,78.6,438.5z M101,509.7c-0.6-0.1-1.2-0.2-1.9-0.2
	c-3.5-0.5-6.9-1.2-10.3-2.1c-3.2-0.8-6.3-1.8-9.4-2.9c-3.8-1.4-7.6-3-11.2-4.8c-3.7-1.8-7.2-3.9-10.6-6.2c-3.7-2.5-7.2-5.1-10.5-8.1
	c-0.5-0.4-1-0.9-1.4-1.3l6.2,25.6L101,509.7L101,509.7z M126.7,433.5c-1.8-0.2-3.5-0.5-5.3-0.6c-1.4-0.1-2.8-0.2-4.2-0.3
	c-1.8-0.1-3.5-0.1-5.3-0.1c-1.8,0-3.6,0-5.3,0.2c-2.2,0.2-4.5,0.5-6.7,0.8l13.5,36.9L126.7,433.5z M185.1,443.8v-30.3h-60.8
	c4.6,0.8,9.1,1.7,13.7,2.8c3.5,0.9,7,2,10.4,3.2c4.3,1.6,8.4,3.4,12.4,5.6c4,2.2,7.9,4.6,11.6,7.4c4,2.9,7.8,6.2,11.3,9.7
	C184.1,442.8,184.6,443.3,185.1,443.8z M183.7,461.9c-2-2-3.9-3.9-6-5.8c-1.6-1.4-3.3-2.8-5.1-4.1c-2.2-1.6-4.4-3.1-6.7-4.5
	c-2.3-1.4-4.6-2.7-7-3.8c-2.8-1.4-5.7-2.6-8.6-3.8c1,3.4,1.9,6.9,2.3,10.4c0.3,2.6,0.3,5.2,0,7.8c-0.2,2.4-0.6,4.7-1.3,7
	c-0.8,2.8-1.8,5.6-3.2,8.1c-1.4,2.6-3,5.1-5,7.3c-2.1,2.4-4.6,4.4-7,6.4c-0.5,0.5-1.1,0.9-1.6,1.4c1.7-0.4,3.4-0.8,5.1-1.2
	c1.2-0.3,2.5-0.6,3.7-1c1.5-0.4,3.1-0.9,4.6-1.4c1.5-0.5,3-1.1,4.5-1.7c1.8-0.7,3.5-1.5,5.2-2.3c1.9-0.9,3.8-1.9,5.6-2.9
	c1.5-0.8,3-1.7,4.4-2.6c1.8-1.1,3.6-2.3,5.4-3.6c1.8-1.3,3.5-2.6,5.1-4.1C180.1,465.8,181.9,463.8,183.7,461.9z M185.1,509.7
	l-0.1-27.8c-0.5,0.5-1,1-1.4,1.4c-2.7,2.6-5.5,5.1-8.5,7.3c-2.7,2.1-5.5,4-8.5,5.8c-3.6,2.2-7.3,4.1-11.2,5.8
	c-3.8,1.7-7.7,3.2-11.8,4.3c-4.9,1.4-9.9,2.2-14.9,3L185.1,509.7L185.1,509.7z M215.9,543.2H29L1.4,432.7l-26.8-0.1l-28,110.7h-72.5
	v-33.5h49.6l24.4-96.1h-74v-33.8h341.8V543.2z"/>
<path d="M-103.5,323.3c-1.9,0-3.9,0.3-5.6,1.1c-1.8,0.7-3.5,1.9-4.9,3.4c-1.5,1.6-2.6,3.6-3.2,5.7c-1,2.8-1.2,5.7-1.2,8.6
	c0,2.6,0.2,5.3,1,7.8c0.6,2.2,1.6,4.2,3,5.9c1.4,1.7,3.2,3,5.2,3.8c1.8,0.8,3.7,1.1,5.6,1.1c2,0,4.1-0.4,6-1.3
	c1.8-0.8,3.4-2.1,4.6-3.7c1.4-1.7,2.4-3.8,3.1-5.9c0.8-2.5,1.1-5.1,1.1-7.7c0-2.8-0.3-5.7-1.2-8.4c-0.6-2.1-1.6-4.1-3-5.7
	c-1.3-1.5-2.9-2.7-4.7-3.5C-99.6,323.7-101.5,323.3-103.5,323.3z M-118.2,299.8v17.5l0,7.3c0.2-0.3,0.5-0.7,0.7-1
	c0.5-0.6,1-1.2,1.5-1.7c0.9-0.9,1.9-1.7,3-2.4c1.2-0.8,2.6-1.3,4-1.8c2-0.6,4.2-0.9,6.3-1c2.7-0.1,5.5,0.4,8.1,1.4
	c3,1.1,5.8,3,7.9,5.5c2,2.2,3.4,4.8,4.3,7.6c1.2,3.5,1.6,7.3,1.6,11c0,3.5-0.4,7-1.6,10.3c-1,3-2.6,5.9-4.7,8.2
	c-1.8,2-4.1,3.7-6.6,4.8c-2.9,1.4-6.2,1.9-9.5,1.8c-2.4,0-4.8-0.4-7.1-1.2c-1.4-0.5-2.8-1.2-4.1-2.1c-0.8-0.6-1.6-1.3-2.3-2
	c-0.4-0.4-0.8-0.9-1.1-1.4c-0.4-0.5-0.7-1.1-1-1.7v6.9h-7.3v-66H-118.2z M-65,299.8v66h-7.9v-66H-65z M-34.4,323.2
	c-1.8,0-3.6,0.3-5.3,1c-1.9,0.7-3.7,1.9-5.1,3.5c-1.9,2-3.1,4.5-3.8,7.1c-0.7,2.3-0.9,4.7-0.9,7.1c0,2.8,0.3,5.6,1.2,8.3
	c0.7,2.2,1.7,4.3,3.3,6c1.5,1.7,3.5,3,5.6,3.7c1.6,0.6,3.3,0.8,5,0.8c1.7,0,3.4-0.2,5-0.7c1.9-0.6,3.6-1.7,5-3.1
	c1.6-1.6,2.8-3.6,3.5-5.7c1.1-2.9,1.5-6,1.5-9.1c0-2.9-0.3-5.7-1.2-8.4c-0.7-2.1-1.7-4.2-3.2-5.9c-1.4-1.6-3.2-2.9-5.2-3.6
	C-30.6,323.5-32.5,323.2-34.4,323.2z M-34.4,316.5c3.1,0,6.1,0.4,9,1.5c3.1,1.1,6,3,8.2,5.6c2.3,2.5,3.9,5.5,4.8,8.7
	c1,3.2,1.3,6.5,1.3,9.8c0,3.4-0.4,6.8-1.4,10.1c-1.1,3.5-3,6.9-5.7,9.4c-2.2,2.2-5,3.8-7.9,4.6c-2.6,0.8-5.3,1.1-8,1.1
	c-3.1,0-6.1-0.4-9-1.5c-3.2-1.2-6.2-3.2-8.4-5.8c-2.1-2.4-3.5-5.2-4.5-8.2c-1-3.1-1.4-6.3-1.5-9.6c-0.1-3.3,0.3-6.6,1.3-9.8
	c0.8-2.8,2.1-5.4,4-7.7c2.1-2.7,4.9-4.9,8.1-6.2C-41.1,317.1-37.8,316.6-34.4,316.5z M31.2,337.6c-0.1-0.6-0.1-1.2-0.2-1.8
	c-0.3-2.3-1-4.6-2.3-6.5c-1.3-2.2-3.3-4-5.6-5c-1.7-0.8-3.6-1.2-5.5-1.2c-2-0.1-4.1,0.3-5.9,1.1c-2.2,0.9-4,2.5-5.4,4.5
	c-1.5,2.1-2.4,4.6-2.7,7.1c-0.1,0.6-0.2,1.2-0.3,1.9L31.2,337.6L31.2,337.6z M38.7,350.7c-0.1,0.4-0.2,0.9-0.3,1.3c-0.3,1-0.6,2-1,3
	c-0.6,1.6-1.4,3.1-2.4,4.6c-1.9,2.7-4.5,4.9-7.5,6.2c-3,1.4-6.4,1.8-9.7,1.7c-3.1,0-6.1-0.4-9-1.5c-3.4-1.2-6.4-3.5-8.6-6.4
	c-1.8-2.3-3-4.9-3.8-7.7c-1-3.3-1.4-6.7-1.3-10.2c0-3.4,0.6-6.9,1.8-10.1c1-2.8,2.4-5.4,4.4-7.6c2.1-2.5,4.8-4.5,7.8-5.7
	c2.6-1.2,5.6-1.7,8.5-1.6c3.1,0,6.2,0.6,9,1.9c2.9,1.3,5.4,3.3,7.4,5.8c2.1,2.5,3.4,5.6,4.2,8.7c0.8,3,1.1,6.1,1.1,9.2
	c0,0.6,0,1.2,0,1.9h-36c0,0.5,0,1,0.1,1.5c0.1,0.9,0.1,1.7,0.3,2.6c0.2,1.5,0.6,3,1.2,4.5c1,2.5,2.7,4.9,5,6.3
	c2.3,1.6,5.2,2.1,8.1,2.1c2.5,0.1,4.9-0.3,7-1.5c1.6-0.8,2.9-2.2,3.9-3.7c0.9-1.3,1.5-2.7,1.9-4.1c0.1-0.3,0.2-0.7,0.3-1L38.7,350.7
	L38.7,350.7z M84.1,331.9h-7.9c-0.1-0.5-0.1-0.9-0.2-1.4c-0.2-1.3-0.7-2.5-1.5-3.5c-1-1.4-2.5-2.3-4.1-2.9c-1.8-0.7-3.8-0.9-5.7-0.9
	c-1.6,0-3.1,0.1-4.7,0.5c-1.5,0.4-3,1.1-4,2.3c-0.8,0.9-1.3,2.2-1.3,3.5c-0.1,1.4,0.3,2.8,1.2,3.8c1,1.2,2.5,1.8,4,2.2
	c2.6,0.8,5,1.3,7.5,1.9c2.2,0.5,4.4,1,6.6,1.7c2.6,0.8,5.3,1.7,7.4,3.5c1.7,1.3,3.1,3.2,3.8,5.2c0.6,1.6,0.8,3.4,0.7,5.2
	c-0.2,2.3-0.9,4.5-2.1,6.4c-1.1,1.8-2.5,3.3-4.2,4.4c-2.1,1.5-4.5,2.4-7,2.9c-2.3,0.5-4.6,0.7-6.9,0.6c-2.2,0-4.5-0.2-6.7-0.7
	c-2.1-0.4-4.2-1.2-6.1-2.3c-2.1-1.2-3.9-3-5.1-5.1c-1.2-2-1.9-4.3-2.1-6.6c-0.1-0.6-0.1-1.3-0.1-1.9h7.7c0.1,0.5,0.1,1.1,0.2,1.6
	c0.3,1.7,0.9,3.3,2,4.6c1.2,1.5,3,2.6,4.9,3.1c1.9,0.6,3.8,0.8,5.8,0.8c2.2,0,4.5-0.2,6.5-1.1c1.3-0.5,2.5-1.3,3.5-2.3
	c1.2-1.3,1.9-3,1.8-4.7c0-1.5-0.7-3.1-1.8-4.1c-1.2-1.2-2.9-1.9-4.6-2.4c-1.9-0.6-3.8-1.1-5.7-1.6c-2.6-0.6-5.2-1.2-7.9-1.9
	c-2-0.5-4-1.1-5.8-2.2c-1.8-1.1-3.4-2.6-4.4-4.5c-1-1.8-1.3-4-1.2-6.1c0.1-2.7,1-5.3,2.6-7.3c1.8-2.4,4.5-4,7.4-4.9
	c3-1,6.1-1.3,9.1-1.2c2.6,0.1,5.3,0.4,7.8,1.3c2.7,0.9,5.3,2.3,7.1,4.6c1.7,2,2.8,4.6,3.1,7.2C83.9,330.4,84,331.1,84.1,331.9z
	 M130.4,331.9h-7.9c-0.1-0.5-0.1-0.9-0.2-1.4c-0.2-1.3-0.7-2.5-1.5-3.5c-1-1.4-2.5-2.3-4.1-2.9c-1.8-0.7-3.8-0.9-5.7-0.9
	c-1.6,0-3.1,0.1-4.7,0.5c-1.5,0.4-3,1.1-4,2.3c-0.8,0.9-1.3,2.2-1.3,3.5c-0.1,1.4,0.3,2.8,1.2,3.8c1,1.2,2.5,1.8,4,2.2
	c2.6,0.8,5,1.3,7.5,1.9c2.2,0.5,4.4,1,6.6,1.7c2.6,0.8,5.3,1.7,7.4,3.5c1.7,1.3,3.1,3.2,3.8,5.2c0.6,1.6,0.8,3.4,0.7,5.2
	c-0.2,2.3-0.9,4.5-2.1,6.4c-1.1,1.8-2.5,3.3-4.2,4.4c-2.1,1.5-4.5,2.4-7,2.9c-2.3,0.5-4.6,0.7-6.9,0.6c-2.2,0-4.5-0.2-6.7-0.7
	c-2.1-0.4-4.2-1.2-6.1-2.3c-2.1-1.2-3.9-3-5.1-5.1c-1.2-2-1.9-4.3-2.1-6.6c-0.1-0.6-0.1-1.3-0.1-1.9h7.7c0.1,0.5,0.1,1.1,0.2,1.6
	c0.3,1.7,0.9,3.3,2,4.6c1.2,1.5,3,2.6,4.9,3.1c1.9,0.6,3.8,0.8,5.8,0.8c2.2,0,4.5-0.2,6.5-1.1c1.3-0.5,2.5-1.3,3.5-2.3
	c1.2-1.3,1.9-3,1.8-4.7c0-1.5-0.7-3.1-1.8-4.1c-1.2-1.2-2.9-1.9-4.6-2.4c-1.9-0.6-3.8-1.1-5.7-1.6c-2.6-0.6-5.2-1.2-7.9-1.9
	c-2-0.5-4-1.1-5.8-2.2c-1.8-1.1-3.4-2.6-4.4-4.5c-1-1.8-1.3-4-1.2-6.1c0.1-2.7,1-5.3,2.6-7.3c1.8-2.4,4.5-4,7.4-4.9
	c3-1,6-1.3,9.1-1.2c2.6,0.1,5.3,0.4,7.8,1.3c2.7,0.9,5.3,2.3,7.1,4.6c1.7,2,2.8,4.6,3.1,7.2C130.3,330.4,130.4,331.1,130.4,331.9z
	 M174.1,337.6c-0.1-0.6-0.1-1.2-0.2-1.8c-0.3-2.3-1-4.6-2.3-6.5c-1.3-2.2-3.3-4-5.6-5c-1.7-0.8-3.6-1.2-5.5-1.2
	c-2-0.1-4.1,0.3-5.9,1.1c-2.2,0.9-4,2.5-5.4,4.5c-1.5,2.1-2.4,4.6-2.7,7.1c-0.1,0.6-0.2,1.2-0.3,1.9L174.1,337.6L174.1,337.6z
	 M181.7,350.7c-0.1,0.4-0.2,0.9-0.3,1.3c-0.3,1-0.6,2-1,3c-0.6,1.6-1.4,3.1-2.4,4.6c-1.9,2.7-4.5,4.9-7.5,6.2
	c-3,1.4-6.4,1.8-9.7,1.7c-3.1,0-6.1-0.4-9-1.5c-3.4-1.2-6.4-3.5-8.6-6.4c-1.8-2.3-3-4.9-3.8-7.7c-1-3.3-1.4-6.7-1.3-10.2
	c0-3.4,0.6-6.9,1.8-10.1c1-2.8,2.4-5.4,4.4-7.6c2.1-2.5,4.8-4.5,7.8-5.7c2.6-1.2,5.6-1.7,8.5-1.6c3.1,0,6.2,0.6,9,1.9
	c2.9,1.3,5.4,3.3,7.4,5.8c2.1,2.5,3.4,5.6,4.2,8.7c0.8,3,1.1,6.1,1.1,9.2c0,0.6,0,1.2,0,1.9h-36c0,0.5,0,1,0.1,1.5
	c0.1,0.9,0.1,1.7,0.3,2.6c0.2,1.5,0.6,3,1.2,4.5c1,2.5,2.7,4.9,5,6.3c2.3,1.6,5.2,2.1,8.1,2.1c2.5,0.1,4.9-0.3,7-1.5
	c1.6-0.8,2.9-2.2,3.9-3.7c0.9-1.3,1.5-2.7,1.9-4.1c0.1-0.3,0.2-0.7,0.3-1L181.7,350.7L181.7,350.7z M216,316.8v8.2
	c-0.6-0.1-1.2-0.1-1.8-0.1c-0.9,0-1.9,0-2.8,0.1c-1.1,0.1-2.1,0.4-3.1,0.8c-1.9,0.7-3.7,1.8-5.1,3.3c-1.7,1.7-2.9,4-3.5,6.3
	c-0.6,1.9-0.7,3.8-0.8,5.8c-0.1,2.1-0.1,4.2-0.2,6.3v18.4h-7.9V318h7.5v10.2c0.4-0.8,0.8-1.6,1.2-2.3c0.6-1.1,1.4-2.2,2.2-3.1
	c1-1.2,2.2-2.2,3.4-3.1c1.5-1,3.2-1.8,5-2.2c1.6-0.4,3.2-0.6,4.8-0.6C215.3,316.8,215.6,316.8,216,316.8z"/>
</svg>
