<?xml version="1.0" encoding="utf-8"?>
<!-- Generator: Adobe Illustrator 21.0.0, SVG Export Plug-In . SVG Version: 6.00 Build 0)  -->
<svg version="1.1" id="Ebene_1" xmlns="http://www.w3.org/2000/svg" xmlns:xlink="http://www.w3.org/1999/xlink" x="0px" y="0px"
	 viewBox="0 0 173.2 10.4" style="enable-background:new 0 0 173.2 10.4;" xml:space="preserve">
<style type="text/css">
	.st0{fill:#1D1D1B;}
	.st1{clip-path:url(#SVGID_2_);fill:#1D1D1B;}
</style>
<rect y="0.2" class="st0" width="5.7" height="9.9"/>
<rect x="10.1" y="0.2" class="st0" width="5.7" height="9.9"/>
<rect x="20.6" y="0.2" class="st0" width="5.7" height="9.9"/>
<g>
	<defs>
		<rect id="SVGID_1_" width="173.2" height="10.4"/>
	</defs>
	<clipPath id="SVGID_2_">
		<use xlink:href="#SVGID_1_"  style="overflow:visible;"/>
	</clipPath>
	<path class="st1" d="M173.2,10.2v-5h-2.3v1.2h0.8v1.8c0,0.4-0.3,0.8-0.8,0.8c-0.5,0-0.8-0.4-0.8-0.8v-6c0-0.4,0.3-0.8,0.8-0.8
		c0.5,0,0.8,0.3,0.8,0.8v1.4h1.5V2.3c0-1.3-0.8-2.3-2.3-2.3c-1.5,0-2.4,1.1-2.4,2.3v5.8c0,1.4,0.8,2.3,2.2,2.3
		c0.7,0,1.3-0.3,1.5-0.9l0.2,0.7H173.2z M164.1,6.9H163l0.6-4.1L164.1,6.9z M166.1,10.2l-1.7-10h-1.8l-1.7,10h1.5l0.3-2h1.5l0.3,2
		H166.1z M153.3,4c0,0.5-0.2,0.7-0.6,0.7h-0.8V1.6h0.8c0.4,0,0.5,0.2,0.5,0.6V4z M155.2,10.3V9.8c-0.2-0.3-0.3-0.6-0.3-1V6.7
		c0-0.6-0.3-1.2-1-1.4c0.6-0.2,1-0.7,1-1.4V2.2c0-1.4-0.9-2-2-2h-2.6v10h1.6V6h0.8c0.4,0,0.6,0.3,0.6,0.7v2.2c0,0.8,0.2,1.4,0.9,1.4
		H155.2z M147.6,10.2V8.8h-2.4V5.7h1.7V4.4h-1.7V1.6h2.4V0.2h-4v10H147.6z M140.7,10.2v-10h-1.6v4.4h-1.7V0.2h-1.6v10h1.6V6h1.7v4.2
		H140.7z M133.1,8.1V6.6h-1.4v1.5c0,0.5-0.3,0.8-0.8,0.8c-0.6,0-0.8-0.3-0.8-0.8V2.3c0-0.5,0.3-0.8,0.8-0.8c0.6,0,0.8,0.3,0.8,0.8
		v1.5h1.4V2.3c0-1.3-0.8-2.3-2.3-2.3c-1.5,0-2.4,1-2.4,2.4V8c0,1.4,1,2.4,2.4,2.4C132.3,10.4,133.1,9.4,133.1,8.1 M125.6,0.2H124v10
		h1.6V0.2z M119.7,4.3c0,0.4-0.2,0.7-0.5,0.7h-0.8V1.6h0.8c0.4,0,0.5,0.2,0.5,0.7V4.3z M121.3,4.2v-2c0-1.4-0.8-2-2-2h-2.6v10h1.6
		v-4h1C120.5,6.3,121.3,5.6,121.3,4.2 M114.1,7.9c0-1.3-0.7-2.3-1.7-3.3c-0.9-1-1.4-1.5-1.4-2.5c0-0.5,0.3-0.8,0.8-0.8
		c0.5,0,0.8,0.4,0.8,0.9v0.9h1.4V2.3c0-1.4-0.9-2.3-2.2-2.3c-1.6,0-2.3,1.1-2.3,2.5c0,1.3,1,2.5,1.8,3.3c0.8,0.9,1.3,1.5,1.3,2.4
		c0,0.6-0.3,0.9-0.8,0.9c-0.6,0-0.8-0.4-0.8-1V7.2h-1.5v0.9c0,1.4,0.9,2.3,2.4,2.3C113,10.4,114.1,9.5,114.1,7.9 M102.9,0.2h-1.6v10
		h1.6V0.2z M98.6,10.2V8.8h-2.4V5.7h1.7V4.4h-1.7V1.6h2.4V0.2h-4v10H98.6z M90.2,4c0,0.5-0.2,0.7-0.6,0.7h-0.8V1.6h0.8
		c0.4,0,0.5,0.2,0.5,0.6V4z M92.1,10.3V9.8c-0.2-0.3-0.3-0.6-0.3-1V6.7c0-0.6-0.3-1.2-1-1.4c0.6-0.2,0.9-0.7,0.9-1.4V2.2
		c0-1.4-0.9-2-2-2h-2.6v10h1.6V6h0.8c0.4,0,0.6,0.3,0.6,0.7v2.2c0,0.8,0.2,1.4,0.9,1.4H92.1z M84.5,10.2V8.8h-2.4V5.7h1.7V4.4h-1.7
		V1.6h2.4V0.2h-4v10H84.5z M77.6,10.2v-10h-1.4v6.2l-0.5-1.6l-1.6-4.6h-1.4v10h1.4V4.1l0.6,1.5l1.7,4.6H77.6z M69.7,0.2h-1.6v10h1.6
		V0.2z M65.5,10.2V8.8h-2.4V5.7h1.7V4.4h-1.7V1.6h2.4V0.2h-4v10H65.5z M57,4c0,0.5-0.2,0.7-0.6,0.7h-0.8V1.6h0.8
		c0.4,0,0.5,0.2,0.5,0.6V4z M58.9,10.3V9.8c-0.2-0.3-0.3-0.6-0.3-1V6.7c0-0.6-0.3-1.2-1-1.4c0.6-0.2,1-0.7,1-1.4V2.2
		c0-1.4-0.9-2-2-2H54v10h1.6V6h0.8c0.4,0,0.6,0.3,0.6,0.7v2.2c0,0.8,0.2,1.4,0.9,1.4H58.9z M51.1,10.2v-10h-1.6v4.4h-1.7V0.2h-1.6
		v10h1.6V6h1.7v4.2H51.1z M43.5,8.1V6.6h-1.4v1.5c0,0.5-0.3,0.8-0.8,0.8c-0.6,0-0.8-0.3-0.8-0.8V2.3c0-0.5,0.3-0.8,0.8-0.8
		c0.6,0,0.8,0.3,0.8,0.8v1.5h1.4V2.3C43.5,1,42.7,0,41.2,0c-1.5,0-2.4,1-2.4,2.4V8c0,1.4,1,2.4,2.4,2.4C42.7,10.4,43.5,9.4,43.5,8.1
		 M36.2,7.9c0-1.3-0.7-2.3-1.7-3.3c-0.9-1-1.4-1.5-1.4-2.5c0-0.5,0.3-0.8,0.8-0.8c0.5,0,0.8,0.4,0.8,0.9v0.9h1.4V2.3
		c0-1.4-0.9-2.3-2.2-2.3c-1.6,0-2.3,1.1-2.3,2.5c0,1.3,1,2.5,1.8,3.3c0.8,0.9,1.3,1.5,1.3,2.4c0,0.6-0.3,0.9-0.8,0.9
		c-0.6,0-0.8-0.4-0.8-1V7.2h-1.5v0.9c0,1.4,0.9,2.3,2.4,2.3C35.2,10.4,36.2,9.5,36.2,7.9"/>
</g>
</svg>
