<?xml version="1.0" encoding="utf-8"?>
<!-- Generator: Adobe Illustrator 21.0.0, SVG Export Plug-In . SVG Version: 6.00 Build 0)  -->
<svg version="1.1" id="Ebene_1" xmlns="http://www.w3.org/2000/svg" xmlns:xlink="http://www.w3.org/1999/xlink" x="0px" y="0px"
	 viewBox="0 0 107.7 30.4" style="enable-background:new 0 0 107.7 30.4;" xml:space="preserve">
<style type="text/css">
	.st0{clip-path:url(#SVGID_2_);fill:#1D1D1B;}
</style>
<g>
	<defs>
		<rect id="SVGID_1_" width="107.7" height="30.4"/>
	</defs>
	<clipPath id="SVGID_2_">
		<use xlink:href="#SVGID_1_"  style="overflow:visible;"/>
	</clipPath>
	<path class="st0" d="M3,18.2c1.7,0,3-1.3,3-3c0-1.7-1.3-3-3-3s-3,1.3-3,3C0,16.8,1.3,18.2,3,18.2 M104.7,18.2c1.7,0,3-1.3,3-3
		c0-1.7-1.3-3-3-3c-1.7,0-3,1.3-3,3C101.7,16.8,103,18.2,104.7,18.2 M74.8,18.2c1.7,0,3-1.3,3-3c0-1.7-1.3-3-3-3c-1.7,0-3,1.3-3,3
		C71.8,16.8,73.1,18.2,74.8,18.2 M32.7,18.2c1.7,0,3-1.3,3-3c0-1.7-1.3-3-3-3s-3,1.3-3,3C29.7,16.8,31.1,18.2,32.7,18.2 M14.9,18.2
		c1.7,0,3-1.3,3-3c0-1.7-1.3-3-3-3s-3,1.3-3,3C11.9,16.8,13.2,18.2,14.9,18.2 M14.9,30.1h2v-4.3l3.6,4.3h2.8L19,25.3l4-4.2h-2.6
		l-3.5,3.7v-3.7h-2V30.1z M31.8,21.2h-2v5.4c0,1.1-0.8,1.9-1.8,1.9c-1.1,0-1.8-0.8-1.8-1.9v-5.4h-2v5.5c0,2.1,1.3,3.7,3.8,3.7
		c2.5,0,3.8-1.6,3.8-3.7V21.2z M34,30.1h2v-3.6h1l1.9,3.6h2.4l-2.3-3.8c1.3-0.2,1.9-1.2,1.9-2.5c0-2.1-1.5-2.7-3.4-2.7H34V30.1z
		 M36,22.8h1.3c0.7,0,1.5,0.1,1.5,1c0,1-0.9,1-1.7,1H36V22.8z M42.2,30.1h2.2l0.7-1.9h3.5l0.8,1.9h2.2l-3.9-9h-1.6L42.2,30.1z
		 M48,26.6h-2.2l1.1-2.8L48,26.6z M53.7,30.1h2v-7.2h2.6v-1.7h-7.1v1.7h2.6V30.1z M59.4,25.6c0,2.9,2,4.7,4.8,4.7
		c2.8,0,4.8-1.8,4.8-4.7s-2-4.7-4.8-4.7C61.4,20.9,59.4,22.8,59.4,25.6 M61.4,25.6c0-1.7,1.1-2.9,2.8-2.9c1.7,0,2.8,1.2,2.8,2.9
		c0,1.7-1.1,2.9-2.8,2.9C62.5,28.5,61.4,27.3,61.4,25.6 M71,30.1h2v-3.6h1l1.9,3.6h2.4l-2.3-3.8c1.3-0.2,1.9-1.2,1.9-2.5
		c0-2.1-1.5-2.7-3.4-2.7H71V30.1z M73,22.8h1.3c0.7,0,1.5,0.1,1.5,1c0,1-0.9,1-1.7,1H73V22.8z M80.1,30.1h2v-9h-2V30.1z M92.2,21.2
		h-2v5.4c0,1.1-0.8,1.9-1.8,1.9c-1.1,0-1.8-0.8-1.8-1.9v-5.4h-2v5.5c0,2.1,1.3,3.7,3.8,3.7c2.5,0,3.8-1.6,3.8-3.7V21.2z M94.6,30.1
		h2v-6.9h0l2.3,6.9h1.5l2.4-6.9h0v6.9h2v-9h-3L99.6,27h0l-2.1-5.8h-3V30.1z M14.5,9.2h2.2l0.7-1.9h3.5l0.8,1.9h2.2l-3.9-9h-1.6
		L14.5,9.2z M20.2,5.6H18l1.1-2.8L20.2,5.6z M24.9,9.2h2.2l0.7-1.9h3.5l0.8,1.9h2.2l-3.9-9h-1.6L24.9,9.2z M30.7,5.6h-2.2l1.1-2.8
		L30.7,5.6z M35.8,9.2h2V5.6h1l1.9,3.6H43l-2.3-3.8c1.3-0.2,1.9-1.2,1.9-2.5c0-2.1-1.5-2.7-3.4-2.7h-3.5V9.2z M37.8,1.9h1.3
		c0.7,0,1.5,0.1,1.5,1c0,1-0.9,1-1.7,1h-1.2V1.9z M52.9,3.9h-3.5v1.8H51v1.5c-0.4,0.2-1,0.4-1.9,0.4c-1.7,0-2.8-1.2-2.8-2.9
		c0-1.7,1.1-2.9,2.8-2.9c1,0,1.6,0.3,2.2,0.9l1.4-1.5C51.8,0.3,50.6,0,49.1,0c-2.8,0-4.8,1.8-4.8,4.7c0,2.9,2,4.7,4.8,4.7
		c1.3,0,2.6-0.3,3.8-0.9V3.9z M54,9.2h2.2l0.7-1.9h3.5l0.8,1.9h2.2l-3.9-9h-1.6L54,9.2z M59.8,5.6h-2.2l1.1-2.8L59.8,5.6z M72,0.2
		h-2v5.4c0,1.1-0.8,1.9-1.8,1.9c-1.1,0-1.8-0.8-1.8-1.9V0.2h-2v5.5c0,2.1,1.3,3.7,3.8,3.7c2.5,0,3.8-1.6,3.8-3.7V0.2z M74.4,9.2h6.3
		V7.4h-4.3V5.5h3.9V3.7h-3.9V2h4.1V0.2h-6.1V9.2z M82.9,9.2h2V5.6h1l1.9,3.6h2.4l-2.3-3.8c1.3-0.2,1.9-1.2,1.9-2.5
		c0-2.1-1.5-2.7-3.4-2.7h-3.5V9.2z M84.9,1.9h1.3c0.7,0,1.5,0.1,1.5,1c0,1-0.9,1-1.7,1h-1.2V1.9z"/>
</g>
</svg>
