<?xml version="1.0" encoding="utf-8"?>
<!-- Generator: Adobe Illustrator 19.0.0, SVG Export Plug-In . SVG Version: 6.00 Build 0)  -->
<svg version="1.1" id="Ebene_1" xmlns="http://www.w3.org/2000/svg" xmlns:xlink="http://www.w3.org/1999/xlink" x="0px" y="0px"
	 viewBox="-158 309.1 294.9 174.9" style="enable-background:new -158 309.1 294.9 174.9;" xml:space="preserve">
<style type="text/css">
	.st0{fill:#FFFFFF;}
</style>
<g>
	<path class="st0" d="M-158,309.1c98.3,0,196.6,0,294.9,0c0,58.3,0,116.6,0,174.9c-98.3,0-196.6,0-294.9,0
		C-158,425.7-158,367.4-158,309.1z M-152.3,392.1c0.2,6.9,1.2,11.8,2.9,16.6c1.8,5.3,4.4,10.1,7.7,14.5c2.4,3.2,5,6.2,7.7,9.1
		c1.7,1.9,3.4,3.9,5.5,5.3c2,1.4,3.9,2.9,5.5,4.7c0.1,0.1,0.3,0.4,0.4,0.4c1.7,0,2.4,1.3,3.2,2.3c0.2,0.3,0.6,0.9,0.8,0.8
		c1.3-0.4,1.7,0.6,2.3,1.3c0.3,0.4,0.9,0.5,1.4,0.7c0.3,0.2,0.7,0.3,1,0.5c0.6,0.5,1.2,1,1.9,1.5c0.8,0.6,1.5,1.3,2.7,1.1
		c0.1,0,0.2,0.1,0.3,0.2c0.5,1,1.4,1.4,2.4,1.8c2.3,1,4.4,2.4,6.6,3.5c2.6,1.3,5.2,2.5,7.9,3.6c2.7,1.1,5.4,2,8.1,3
		c1.6,0.6,3.2,1.3,4.8,1.8c1.5,0.5,3,0.9,4.5,1.3c1.5,0.4,3.1,0.8,4.6,1.2c2,0.5,4,1.1,6,1.6c0.4,0.1,0.8,0,1.2,0
		c0.5,0,1,0.1,1.4,0.2c1.7,0.5,3.5,1.1,5.2,1.4c2.2,0.4,4.5,0.5,6.7,1.1c2.1,0.6,4.5-0.3,6.5,1.2c0.6,0.4,1.8,0,2.7,0
		c1,0,2.1,0.1,3.1,0.3c0.9,0.1,1.7,0.4,2.5,0.5c2.5,0.2,5,0.3,7.5,0.5c1,0.1,1.9,0.4,2.9,0.4c0.7,0,1.4-0.3,2.1-0.2
		c2,0.1,4,0.5,6,0.6c3.2,0.1,6.5,0,9.7,0c1.3,0,2.5-0.2,3.8-0.2c1.8-0.1,3.5-0.2,5.3-0.2c0.8,0,1.8,0.2,2.5-0.1
		c1.7-0.8,3.4-0.7,5.2-0.5c0.9,0.1,1.8,0.1,2.6-0.1c2.6-0.5,5.2-1,7.9-0.8c1,0.1,2.1-0.2,3-0.6c1-0.6,2-0.5,3.1-0.5
		c0.9,0,1.9-0.2,2.8-0.4c0.4-0.1,0.7-0.3,1.1-0.4c2.7-0.5,5.5-0.9,8.2-1.4c0.9-0.2,1.7-0.9,2.5-0.8c2.4,0.5,4.2-1.7,6.5-1.1
		c0.1,0,0.2,0,0.2-0.1c2-0.8,3.9-1.9,6.1-1.9c0.2,0,0.5-0.3,0.7-0.4c0.4-0.2,0.9-0.4,1.3-0.5c0.7-0.2,1.5-0.3,2.2-0.5
		c1.4-0.5,2.9-1,4.3-1.6c0.7-0.3,1.3-0.8,2.1-0.9c2-0.3,3.7-1.3,5.5-1.9c1.2-0.4,2.3-1.1,3.4-1.5c1.1-0.4,2.2-0.8,3.2-1.2
		c1.8-0.9,3.6-1.8,5.3-2.7c1.8-1,3.6-2.1,5.4-3.1c0.3-0.2,0.7-0.3,1.1-0.5c1.2-0.6,2.4-1.2,3.5-2c1.4-0.9,2.7-1.9,4-2.9
		c0.2-0.1,0.4-0.1,0.6-0.2c0.5-0.3,1.1-0.6,1.6-1c0.7-0.6,1.3-1.3,2-1.9c0.8-0.7,1.8-1.2,2.6-1.8c0.9-0.8,1.8-1.7,2.6-2.6
		c0.3-0.2,0.6-0.6,0.9-0.6c1.1,0,1.7-0.8,2.4-1.4c1.1-1.1,2.3-2.3,3.4-3.4c0.3-0.3,0.6-0.5,0.7-0.8c0.2-1.9,1.8-2.7,2.9-3.8
		c0.4-0.4,0.8-0.7,1-1.2c0.9-1.4,1.6-2.9,2.5-4.4c0.6-1,1.4-1.8,1.9-2.8c1.1-2,2.1-4.1,3.1-6.1c0.4-1,0.7-2,1-3
		c0.3-0.9,0.5-1.8,0.8-2.7c0.1-0.5,0.2-0.9,0.4-1.4c0.2-0.9,0.4-1.8,0.6-2.6c0.1-0.6,0.1-1.2,0.1-1.8c0.2-1.2,0.5-2.5,0.6-3.7
		c0.1-1.9,0.1-3.9,0-5.9c-0.1-2.1-0.5-4.2-0.8-6.2c-0.1-0.4-0.5-0.8-0.6-1.2c-0.3-1.8-1-3.5-1.7-5.2c-0.1-0.3,0-0.7-0.1-0.9
		c-0.8-1.8-1.5-3.5-2.4-5.3c-1.2-2.4-2.4-4.8-3.8-7c-1.8-2.9-3.7-5.7-5.8-8.3c-4.3-5.2-9.3-9.8-14.8-13.8c-3.5-2.5-7.1-5.1-10.8-7.3
		c-4.3-2.5-8.7-4.6-13.2-6.8c-3.2-1.5-6.5-2.9-9.8-4.2c-2.4-0.9-4.8-1.7-7.2-2.4c-2.8-0.9-5.6-1.9-8.4-2.7c-3.2-0.9-6.4-1.7-9.6-2.4
		c-4.1-0.9-8.3-1.9-12.4-2.5c-6.1-0.9-12.3-1.6-18.4-2.2c-4.8-0.5-9.7-0.9-14.6-0.9c-8.4-0.1-16.8-0.3-25.1,0.7
		c-3.8,0.5-7.6,0.6-11.3,1.1c-5.7,0.8-11.4,1.7-17,2.7c-4.1,0.8-8.1,1.7-12.1,2.8c-4.1,1.1-8.1,2.4-12.1,3.7
		c-3.9,1.3-7.8,2.7-11.7,4.3c-3.3,1.4-6.4,3-9.6,4.5c-5.9,2.9-11.6,6.3-16.9,10.2c-7.6,5.6-14.5,11.9-19.9,19.7
		c-3.1,4.5-5.6,9.3-7.3,14.5C-151.5,383.3-152.5,388.5-152.3,392.1z"/>
	<path d="M-152.3,392.1c-0.2-3.6,0.8-8.8,2.4-13.9c1.7-5.2,4.2-10,7.3-14.5c5.4-7.8,12.3-14.2,19.9-19.7c5.3-3.9,11-7.3,16.9-10.2
		c3.2-1.6,6.4-3.2,9.6-4.5c3.8-1.6,7.7-3,11.7-4.3c4-1.3,8.1-2.6,12.1-3.7c4-1.1,8.1-2,12.1-2.8c5.7-1,11.3-1.9,17-2.7
		c3.8-0.5,7.6-0.6,11.3-1.1c8.4-1,16.8-0.8,25.1-0.7c4.9,0,9.7,0.5,14.6,0.9c6.2,0.6,12.3,1.3,18.4,2.2c4.2,0.6,8.3,1.6,12.4,2.5
		c3.2,0.7,6.4,1.5,9.6,2.4c2.8,0.8,5.6,1.7,8.4,2.7c2.4,0.8,4.9,1.5,7.2,2.4c3.3,1.3,6.6,2.7,9.8,4.2c4.5,2.1,8.9,4.3,13.2,6.8
		c3.7,2.2,7.3,4.7,10.8,7.3c5.5,4,10.5,8.5,14.8,13.8c2.1,2.6,4,5.5,5.8,8.3c1.4,2.2,2.6,4.6,3.8,7c0.9,1.7,1.6,3.5,2.4,5.3
		c0.1,0.3,0,0.6,0.1,0.9c0.6,1.7,1.4,3.4,1.7,5.2c0.1,0.4,0.5,0.8,0.6,1.2c0.3,2.1,0.7,4.1,0.8,6.2c0.1,1.9,0.1,3.9,0,5.9
		c-0.1,1.2-0.4,2.5-0.6,3.7c-0.1,0.6,0,1.2-0.1,1.8c-0.2,0.9-0.4,1.8-0.6,2.6c-0.1,0.5-0.2,0.9-0.4,1.4c-0.3,0.9-0.5,1.8-0.8,2.7
		c-0.3,1-0.6,2.1-1,3c-1,2.1-2,4.1-3.1,6.1c-0.5,1-1.3,1.8-1.9,2.8c-0.9,1.4-1.6,2.9-2.5,4.4c-0.3,0.4-0.6,0.8-1,1.2
		c-1.1,1.1-2.7,1.9-2.9,3.8c0,0.3-0.4,0.6-0.7,0.8c-1.1,1.1-2.3,2.3-3.4,3.4c-0.7,0.7-1.2,1.5-2.4,1.4c-0.3,0-0.6,0.4-0.9,0.6
		c-0.9,0.9-1.7,1.8-2.6,2.6c-0.8,0.7-1.8,1.2-2.6,1.8c-0.7,0.6-1.3,1.3-2,1.9c-0.5,0.4-1,0.7-1.6,1c-0.2,0.1-0.4,0.1-0.6,0.2
		c-1.3,1-2.6,2-4,2.9c-1.1,0.7-2.3,1.3-3.5,2c-0.3,0.2-0.7,0.3-1.1,0.5c-1.8,1-3.6,2.1-5.4,3.1c-1.8,1-3.5,1.9-5.3,2.7
		c-1,0.5-2.2,0.8-3.2,1.2c-1.2,0.5-2.3,1.1-3.4,1.5c-1.8,0.6-3.5,1.7-5.5,1.9c-0.7,0.1-1.4,0.6-2.1,0.9c-1.4,0.6-2.9,1.1-4.3,1.6
		c-0.7,0.2-1.5,0.3-2.2,0.5c-0.5,0.1-0.9,0.3-1.3,0.5c-0.3,0.1-0.5,0.4-0.7,0.4c-2.3-0.1-4.1,1.1-6.1,1.9c-0.1,0-0.2,0.1-0.2,0.1
		c-2.3-0.6-4.2,1.6-6.5,1.1c-0.7-0.2-1.6,0.6-2.5,0.8c-2.7,0.5-5.5,0.9-8.2,1.4c-0.4,0.1-0.7,0.3-1.1,0.4c-0.9,0.2-1.9,0.4-2.8,0.4
		c-1.1,0-2.1-0.1-3.1,0.5c-0.9,0.5-2,0.7-3,0.6c-2.7-0.2-5.3,0.3-7.9,0.8c-0.8,0.2-1.8,0.1-2.6,0.1c-1.8-0.1-3.5-0.2-5.2,0.5
		c-0.7,0.3-1.7,0.1-2.5,0.1c-1.8,0.1-3.5,0.1-5.3,0.2c-1.3,0.1-2.5,0.2-3.8,0.2c-3.2,0-6.5,0.1-9.7,0c-2-0.1-4-0.4-6-0.6
		c-0.7,0-1.4,0.3-2.1,0.2c-1-0.1-1.9-0.4-2.9-0.4c-2.5-0.2-5-0.3-7.5-0.5c-0.9-0.1-1.7-0.4-2.5-0.5c-1-0.1-2-0.2-3.1-0.3
		c-0.9,0-2.1,0.4-2.7,0c-2-1.4-4.4-0.6-6.5-1.2c-2.1-0.6-4.5-0.7-6.7-1.1c-1.8-0.4-3.5-1-5.2-1.4c-0.5-0.1-0.9-0.2-1.4-0.2
		c-0.4,0-0.8,0.1-1.2,0c-2-0.5-4-1.1-6-1.6c-1.5-0.4-3.1-0.8-4.6-1.2c-1.5-0.4-3-0.8-4.5-1.3c-1.6-0.6-3.2-1.2-4.8-1.8
		c-2.7-1-5.4-1.9-8.1-3c-2.7-1.1-5.3-2.3-7.9-3.6c-2.2-1.1-4.4-2.4-6.6-3.5c-1-0.4-1.9-0.8-2.4-1.8c-0.1-0.1-0.2-0.2-0.3-0.2
		c-1.1,0.2-1.9-0.5-2.6-1.1c-0.6-0.5-1.2-1-1.9-1.5c-0.3-0.2-0.7-0.3-1-0.5c-0.5-0.2-1.1-0.4-1.4-0.7c-0.6-0.7-1-1.7-2.3-1.3
		c-0.2,0-0.5-0.5-0.8-0.8c-0.8-1.1-1.6-2.3-3.2-2.3c-0.1,0-0.3-0.2-0.4-0.4c-1.6-1.8-3.5-3.3-5.5-4.7c-2.1-1.4-3.8-3.4-5.5-5.3
		c-2.7-3-5.3-5.9-7.7-9.1c-3.3-4.4-5.9-9.3-7.7-14.5C-151.1,403.9-152.1,399-152.3,392.1z M-125.9,370.3c5.4,0,10.8,0,16.2,0
		c1.6,0,1.8-0.3,1.5-1.9c-0.3-1.1-0.6-2.2-0.8-3.4c-0.1-0.3,0.1-0.9,0.3-1c0.2-0.1,0.7,0,1.1,0.2c0.6,0.3,1.2,0.7,1.8,1
		c1.6,0.8,1.6,0.8,2.8-0.6c3.4-4.1,6.8-8.2,10.3-12.1c4-4.6,8-9.1,12.2-13.5c3.7-3.9,7.7-7.6,11.6-11.3c1.3-1.2,2.8-2.5,4.7-2.7
		c4-0.3,8-0.7,12.1-0.7c3.2,0,6.1,0.8,7.6,4.2c0.8,1.7,1.8,3.1,3.9,3.9c4.9,1.9,9.6,4.4,14.4,6.4c2.7,1.1,4.8,2.8,5.9,5.5
		c1.4,3.2,0.6,5.6-2.6,6.2c-1.3,0.3-2.6,0.2-3.9,0c-2.5-0.2-3.9-2.4-2.2-4.9c0.5-0.7,0.9-1.8,2.1-1.4c0.8,0.3,0.7,1.2-0.2,2.5
		c-0.6,0.8-0.5,1.4,0.5,1.6c1.2,0.1,2.5,0.1,3.8-0.1c0.9-0.1,1.3-1,1-1.9c-0.4-1.1-1-2.3-1.7-3.2c-1.7-2.2-4.3-2.8-6.6-3.9
		c-4.1-1.9-8.3-3.6-12.4-5.4c-1.2-0.5-2.5-1.2-2.8-2.7c-0.1-0.5-0.4-0.8-0.7-1.3c-0.9-1.9-2.2-3.1-4.4-3.4
		c-3.6-0.3-7.3-0.3-10.9,0.2c-1.7,0.2-3.5,0.3-4.9,1.6c-4.1,3.8-8.3,7.5-12.2,11.5c-3.8,3.9-7.3,8-10.9,12.1
		c-3.9,4.4-7.7,8.9-11.5,13.5c-1.2,1.4-1.1,1.7,0.6,2.5c2.4,1.2,4.8,2.6,7.2,3.8c1.2,0.6,2.4,1.3,3.6,1.3c3.1-0.1,6.2-0.6,9.3-0.8
		c4.1-0.3,8.2-0.5,12.3,0.4c0.5,0.1,1.1,0,1.6-0.1c2.4-0.8,4.8-1.6,7.1-2.4c2.9-0.9,5.9-1.8,8.8-2.8c1.8-0.6,2.1-0.4,2.7,1.4
		c0.1,0.3,0.4,0.6,0.7,0.9c0.3-0.3,0.6-0.5,0.8-0.8c0.9-1.3,1.6-2.7,2.5-4.1c2.7-4.1,6.5-6.1,11.3-5.3c2.6,0.4,5.1,0,7.6-0.6
		c0.8-0.2,1.6-0.8,2.3-1.4c0.8-0.7,0.6-1.8-0.2-2.1c-1.1-0.5-2.1-0.9-3.4-0.5c-0.6,0.2-1.4,0.2-2,0.1c-0.3-0.1-0.8-0.6-0.8-1
		c0-0.3,0.5-0.8,0.9-0.9c1.1-0.2,2.2-0.4,3.2-0.3c1.3,0.2,2.8,0.3,3.7,1.1c2.1,1.8,1.2,5.3-1.4,6.4c-3.1,1.4-6.4,1.6-9.7,1.3
		c-1.5-0.1-3,0-4.5,0.3c-2.3,0.5-3.7,2.3-5,4c-2.4,3.2-4,6.7-5.2,10.5c-1.1,3.7-3.2,6.9-5.5,10c-1.3,1.7-2.7,3.3-4,4.9
		c-0.5,0.6-0.6,1.2,0.2,1.6c0.8,0.4,1.7,0.7,2.5,1.1c2.8,1.1,5.5,2.3,8.3,3.4c2.2,0.9,4.3,1.8,6.5,2.7c2,0.8,3.9,1.5,5.9,2.3
		c2.2,0.8,4.3,1.6,6.5,2.4c0.4,0.1,0.9,0,1.2-0.2c1.8-1,3.6-2,5.4-3.1c4.1-2.5,8.1-5.1,12.2-7.6c1.2-0.8,1.8-0.7,2.6,0.6
		c2.4,3.6,2.6,7.5,0.9,11.5c-1.4,3.3-3.6,6.2-6.4,8.6c-0.7,0.6-1.1,1.3-0.6,2.3c0.3,0.6,0.4,1.4,0.4,2.1c0.1,2.4,0.1,4.9,0.1,7.3
		c0.1,2,1,3.5,2.3,5c2.5,2.9,4.9,5.9,7,9c1.6,2.3,1.6,5,1.2,7.6c-0.1,0.5-0.8,0.9-1.2,1.4c-0.3-0.5-0.7-0.9-0.9-1.5
		c-0.3-0.9-0.4-1.8-0.7-2.7c-0.4-0.9-1.1-1.7-2.2-1.5c-1.6,0.3-2.9,1.1-3.3,2.9c-0.2,1.1-0.5,2.2-0.5,3.3c-0.1,2.3-0.6,2.9-2.8,3.3
		c-2.8,0.5-5.6,1-8.4,1.4c-3.6,0.5-7.1,1.1-10.7,1.3c-2.7,0.2-5.5,0.2-8.3,0c-3-0.2-5.9-0.7-8.8-1.4c-3.5-0.8-6.5-2.6-9.4-4.6
		c-1.4-1-2.7-2.3-4-3.5c-0.5-0.5-0.7-1.1-0.1-1.7c0.6-0.5,1.2-0.4,1.7,0.2c0.1,0.1,0.2,0.2,0.3,0.3c3.6,3.8,8,6.1,13,7.5
		c5.3,1.5,10.7,1.3,16.1,0.9c6-0.5,12-1.8,18-2.7c0.9-0.1,1.3-0.6,1.3-1.5c0-0.9,0.1-1.8,0.3-2.6c0.7-3.7,3.4-5.8,6.6-5.2
		c0.4,0.1,0.7-0.1,1.1-0.1c-0.1-0.4-0.1-0.8-0.3-1.1c-2.2-2.8-4.6-5.4-6.8-8.2c-0.7-0.9-1.4-1.9-1.8-3c-1-2.5-0.8-5.2-0.8-7.9
		c0-1.6,0-3.4-0.5-4.8c-2-5.2-6.3-7.7-11.4-9.2c-2.6-0.8-5.2-1.4-7.8-2.4c-3.8-1.4-7.5-3-11.2-4.6c-4.7-1.9-9.3-3.9-14-5.8
		c-0.4-0.2-1-0.1-1.4,0c-0.2,0.1-0.2,0.8-0.1,1.2c0.1,2.1,0.4,4.1,0.4,6.2c0,1.5-0.2,3-0.2,4.5c0.1,2.6,1,4.9,2.9,6.8
		c1.4,1.4,2.6,2.9,3.7,4.5c0.6,0.8,0.4,1.7-0.5,2.4c-0.5,0.4-1,0.9-1.4,1.3c-1.3,1.5-0.9,3.1,1,3.7c1.1,0.4,1.3,0.9,0.8,1.9
		c-0.2,0.4-0.5,0.7-0.8,1.1c-1.8,2-4.2,2.6-6.8,2.8c-2.8,0.2-5.5,0.1-8.3,0.5c-1.4,0.2-3,0.7-4.2,1.6c-1.3,1-2.3,2.5-3.1,3.9
		c-3.1,5.4-7.9,8.2-13.9,8.3c-4.4,0-7.7,1.6-10.6,4.6c-0.8,0.8-0.7,1.5,0.3,1.9c1,0.5,2.1,0.9,3.1,1.3c2,0.8,3.9,1.6,5.9,2.4
		c2.3,0.9,4.5,1.8,6.8,2.6c2.5,0.9,5.1,1.7,7.7,2.4c3.3,0.9,6.5,1.8,9.8,2.6c3.7,0.8,7.3,1.6,11,2.2c3.6,0.7,7.1,1.3,10.7,1.8
		c3.5,0.5,7.1,0.7,10.6,1.1c2.8,0.3,5.7,0.7,8.6,0.8c6.2,0.2,12.4,0.1,18.6,0.1c2.2,0,4.5,0,6.7-0.2c3.1-0.2,6.3-0.5,9.4-0.8
		c4.1-0.4,8.1-0.8,12.2-1.4c2.8-0.4,5.6-1,8.5-1.6c2.9-0.6,5.8-1.1,8.7-1.8c2.9-0.7,5.7-1.4,8.6-2.2c3.8-1.1,7.6-2.1,11.3-3.4
		c4.6-1.7,9.1-3.6,13.6-5.5c3.2-1.4,6.4-2.8,9.4-4.6c4.5-2.6,8.9-5.4,13.2-8.4c6-4.1,11.3-9,15.9-14.6c4.1-5,7.5-10.4,9.8-16.5
		c1.3-3.4,2.2-7,2.6-10.5c0.9-8.4-0.5-16.4-4.1-24c-3.7-7.9-9-14.6-15.4-20.4c-3.1-2.8-6.4-5.3-9.7-7.8c-2.6-1.9-5.4-3.6-8.2-5.3
		c-2.7-1.6-5.4-3-8.2-4.5c-2.2-1.1-4.5-2.2-6.8-3.2c-3-1.3-5.9-2.5-9-3.6c-4.4-1.5-8.8-3-13.2-4.3c-3.3-1-6.7-1.8-10.1-2.6
		c-3.7-0.9-7.5-1.7-11.3-2.3c-3.4-0.6-6.8-1-10.2-1.4c-5.9-0.6-11.7-1.5-17.6-1.7c-10.3-0.3-20.6-0.7-30.9,0.5c-5,0.6-10,0.9-15,1.5
		c-3.2,0.4-6.4,1.1-9.5,1.7c-3,0.6-6,1.1-8.9,1.8c-3,0.7-5.9,1.5-8.8,2.3c-2.7,0.7-5.3,1.4-7.9,2.3c-3.2,1.1-6.4,2.3-9.5,3.6
		c-2.8,1.1-5.6,2.1-8.3,3.4c-4.9,2.5-9.9,5-14.6,7.9c-4.5,2.8-8.7,5.9-12.8,9.3c-3.1,2.5-6,5.4-8.6,8.4c-2.6,3-4.8,6.3-7.1,9.6
		c-0.9,1.2-0.6,1.6,1,1.6C-136.7,370.3-131.3,370.3-125.9,370.3z M-98.2,384.9c-0.3-0.1-0.6-0.2-0.8-0.4c-1.2-0.8-2.4-1.8-3.7-2.4
		c-2.1-0.9-4.3-1.7-6.5-2.4c-2-0.6-4.1-1.1-6.1-1.6c-1.7-0.3-2.3,0.1-2.4,1.9c-0.2,2.9-0.3,5.7,0.6,8.5c1,2.9,2.8,5,5.4,6.4
		c3.7,2,7.7,2.3,11.9,1.8c1.2-0.1,2.2-0.9,2.5-2c0.7-2.2,1.8-4.5,1.3-7c-0.1-0.6,0.1-1,0.8-0.8c0.9,0.3,1.4-0.1,2-0.7
		c2.7-2.5,3.7-5.7,3.8-9.3c0-0.6-0.6-1.6-1.2-1.9c-4.5-2.4-9.1-4.8-13.7-7.1c-0.5-0.3-1.1-0.4-2-0.7c0.8,3.4,1.7,6.4,3.2,9.1
		C-101.6,379.4-99.9,382.1-98.2,384.9z M-22.5,405.4c0.1,0.3,0.1,0.4,0.2,0.4c0.1,0.1,0.2,0.2,0.3,0.2c3.5,1.4,6.6,3.4,8.8,6.5
		c0.5,0.6,1,0.6,1.5,0c1-1.1,2.1-2.2,3-3.4c2.6-3.5,4.4-7.2,2.6-11.8c-0.5-1.1-1-1.4-2-0.8c-3,1.9-6.1,3.8-9.1,5.7
		C-18.9,403.2-20.7,404.3-22.5,405.4z M-49.4,371.2c0.1-1.5-0.4-1.9-1.6-1.5c-1.3,0.4-2.6,0.9-4,1.3c-3.3,1-6.6,2-9.9,3.1
		c-0.3,0.1-0.7,0.8-0.6,1.1c0.6,2.2,1.2,4.4,2,6.5c0.9,2.5,1,2.5,3.3,1.1c3.2-1.9,6.3-4.1,8.7-7.1
		C-50.4,374.5-49.7,372.9-49.4,371.2z M-84.3,392.6c-0.1,0.1-0.1,0.2-0.2,0.3c-0.2,0-0.5,0-0.7,0.1c-1.5,0.2-3.1,1.7-3.3,3.1
		c-0.2,1.3,0.5,2.6,2.2,3.2c1.8,0.7,3.7,1.1,5.6,1.5c1.4,0.3,1.9-0.3,1.6-1.7c-0.1-0.4-0.2-0.9-0.4-1.2c-0.8-1.3-1.6-2.6-2.6-3.7
		C-82.7,393.4-83.6,393.1-84.3,392.6z M-50.4,379c-0.1-0.1-0.2-0.2-0.4-0.3c-0.4,0.3-0.8,0.5-1.1,0.8c-1.8,1.4-3.6,2.8-5.4,4.2
		c-1.2,0.8-2.5,1.4-3.6,2.3c-0.3,0.2-0.6,0.9-0.5,1.4c0.1,0.9,0.5,1.8,0.8,2.6c0.4,1.3,1,1.4,1.8,0.5c1.9-2.3,3.9-4.6,5.7-6.9
		C-52.1,382.1-51.3,380.5-50.4,379z M-64.3,427c1.9,0,3.1-1,3.1-2.4c0-1.1-1-2.3-2-2.4c-2.1-0.3-3.3,0.1-3.8,1.5
		C-67.7,425.6-66.5,427.2-64.3,427z"/>
	<path class="st0" d="M-125.9,370.3c-5.4,0-10.8,0-16.2,0c-1.6,0-1.9-0.4-1-1.6c2.3-3.3,4.5-6.6,7.1-9.6c2.6-3,5.5-5.9,8.6-8.4
		c4.1-3.3,8.3-6.5,12.8-9.3c4.7-2.9,9.7-5.4,14.6-7.9c2.7-1.3,5.5-2.3,8.3-3.4c3.2-1.2,6.3-2.5,9.5-3.6c2.6-0.9,5.3-1.6,7.9-2.3
		c2.9-0.8,5.8-1.6,8.8-2.3c3-0.7,5.9-1.2,8.9-1.8c3.2-0.6,6.3-1.3,9.5-1.7c5-0.6,10-0.9,15-1.5c10.3-1.2,20.6-0.8,30.9-0.5
		c5.9,0.2,11.7,1,17.6,1.7c3.4,0.4,6.8,0.8,10.2,1.4c3.8,0.7,7.5,1.5,11.3,2.3c3.4,0.8,6.8,1.6,10.1,2.6c4.4,1.3,8.8,2.8,13.2,4.3
		c3,1.1,6,2.3,9,3.6c2.3,1,4.6,2.1,6.8,3.2c2.8,1.4,5.5,2.9,8.2,4.5c2.8,1.7,5.6,3.4,8.2,5.3c3.3,2.5,6.6,5,9.7,7.8
		c6.4,5.8,11.7,12.5,15.4,20.4c3.6,7.6,5,15.7,4.1,24c-0.4,3.6-1.3,7.1-2.6,10.5c-2.3,6.1-5.7,11.5-9.8,16.5
		c-4.6,5.6-9.9,10.5-15.9,14.6c-4.3,2.9-8.7,5.7-13.2,8.4c-3,1.8-6.2,3.2-9.4,4.6c-4.5,1.9-9,3.8-13.6,5.5
		c-3.7,1.3-7.5,2.4-11.3,3.4c-2.8,0.8-5.7,1.6-8.6,2.2c-2.9,0.7-5.8,1.2-8.7,1.8c-2.8,0.6-5.6,1.2-8.5,1.6c-4,0.6-8.1,0.9-12.2,1.4
		c-3.1,0.3-6.3,0.6-9.4,0.8c-2.2,0.1-4.5,0.2-6.7,0.2c-6.2,0-12.4,0-18.6-0.1c-2.9-0.1-5.7-0.5-8.6-0.8c-3.5-0.4-7.1-0.6-10.6-1.1
		c-3.6-0.5-7.2-1.1-10.7-1.8c-3.7-0.7-7.4-1.4-11-2.2c-3.3-0.8-6.6-1.7-9.8-2.6c-2.6-0.7-5.1-1.5-7.7-2.4c-2.3-0.8-4.6-1.7-6.8-2.6
		c-2-0.8-3.9-1.6-5.9-2.4c-1-0.4-2.1-0.8-3.1-1.3c-1-0.5-1.1-1.1-0.3-1.9c2.9-3,6.2-4.6,10.6-4.6c6,0,10.8-2.9,13.9-8.3
		c0.8-1.4,1.9-2.9,3.1-3.9c1.1-0.9,2.7-1.4,4.2-1.6c2.7-0.4,5.5-0.3,8.3-0.5c2.6-0.2,5-0.8,6.8-2.8c0.3-0.3,0.6-0.7,0.8-1.1
		c0.6-1,0.3-1.5-0.8-1.9c-1.8-0.7-2.3-2.2-1-3.7c0.4-0.5,0.9-0.9,1.4-1.3c0.9-0.7,1.1-1.6,0.5-2.4c-1.2-1.6-2.4-3.1-3.7-4.5
		c-1.9-1.9-2.8-4.1-2.9-6.8c0-1.5,0.2-3,0.2-4.5c-0.1-2.1-0.3-4.1-0.4-6.2c0-0.4-0.1-1.1,0.1-1.2c0.4-0.2,1-0.2,1.4,0
		c4.7,1.9,9.3,3.9,14,5.8c3.7,1.5,7.4,3.2,11.2,4.6c2.5,0.9,5.2,1.6,7.8,2.4c5,1.5,9.4,4,11.4,9.2c0.6,1.5,0.6,3.2,0.5,4.8
		c-0.1,2.7-0.3,5.4,0.8,7.9c0.4,1.1,1.1,2.1,1.8,3c2.2,2.8,4.5,5.5,6.8,8.2c0.2,0.3,0.2,0.7,0.3,1.1c-0.4,0-0.8,0.1-1.1,0.1
		c-3.2-0.5-5.8,1.5-6.6,5.2c-0.2,0.9-0.3,1.7-0.3,2.6c0,0.9-0.4,1.4-1.3,1.5c-6,0.9-12,2.2-18,2.7c-5.3,0.5-10.8,0.6-16.1-0.9
		c-5-1.4-9.4-3.8-13-7.5c-0.1-0.1-0.2-0.2-0.3-0.3c-0.5-0.5-1.1-0.7-1.7-0.2c-0.6,0.6-0.4,1.2,0.1,1.7c1.3,1.2,2.5,2.5,4,3.5
		c2.9,2,6,3.8,9.4,4.6c2.9,0.7,5.9,1.1,8.8,1.4c2.7,0.2,5.5,0.2,8.3,0c3.6-0.3,7.1-0.8,10.7-1.3c2.8-0.4,5.6-1,8.4-1.4
		c2.3-0.4,2.8-1,2.8-3.3c0-1.1,0.3-2.2,0.5-3.3c0.4-1.8,1.7-2.6,3.3-2.9c1.1-0.2,1.8,0.5,2.2,1.5c0.3,0.8,0.4,1.8,0.7,2.7
		c0.2,0.5,0.6,1,0.9,1.5c0.4-0.4,1.2-0.8,1.2-1.4c0.4-2.6,0.4-5.4-1.2-7.6c-2.2-3.1-4.6-6.2-7-9c-1.3-1.5-2.2-3-2.3-5
		c-0.1-2.4-0.1-4.9-0.1-7.3c0-0.7-0.1-1.5-0.4-2.1c-0.5-1-0.1-1.7,0.6-2.3c2.8-2.4,5-5.2,6.4-8.6c1.7-3.9,1.4-7.8-0.9-11.5
		c-0.8-1.2-1.3-1.3-2.6-0.6c-4.1,2.5-8.1,5.1-12.2,7.6c-1.8,1.1-3.6,2.1-5.4,3.1c-0.3,0.2-0.9,0.3-1.2,0.2c-2.2-0.8-4.3-1.6-6.5-2.4
		c-2-0.7-4-1.5-5.9-2.3c-2.2-0.9-4.3-1.8-6.5-2.7c-2.8-1.1-5.5-2.3-8.3-3.4c-0.8-0.4-1.7-0.7-2.5-1.1c-0.8-0.4-0.7-0.9-0.2-1.6
		c1.3-1.6,2.8-3.2,4-4.9c2.3-3.1,4.4-6.3,5.5-10c1.2-3.8,2.8-7.4,5.2-10.5c1.3-1.7,2.7-3.6,5-4c1.5-0.3,3-0.5,4.5-0.3
		c3.4,0.3,6.6,0,9.7-1.3c2.7-1.1,3.6-4.7,1.4-6.4c-0.9-0.8-2.4-0.9-3.7-1.1c-1-0.1-2.2,0.1-3.2,0.3c-0.4,0.1-0.9,0.6-0.9,0.9
		c0,0.3,0.5,0.9,0.8,1c0.6,0.1,1.4,0.1,2-0.1c1.2-0.4,2.3,0,3.4,0.5c0.8,0.4,1,1.4,0.2,2.1c-0.7,0.6-1.5,1.2-2.3,1.4
		c-2.5,0.6-4.9,1-7.6,0.6c-4.9-0.7-8.6,1.2-11.3,5.3c-0.9,1.3-1.6,2.7-2.5,4.1c-0.2,0.3-0.6,0.5-0.8,0.8c-0.2-0.3-0.6-0.5-0.7-0.9
		c-0.6-1.8-0.9-1.9-2.7-1.4c-2.9,1-5.9,1.8-8.8,2.8c-2.4,0.8-4.8,1.6-7.1,2.4c-0.5,0.2-1.1,0.2-1.6,0.1c-4.1-0.9-8.2-0.7-12.3-0.4
		c-3.1,0.2-6.2,0.8-9.3,0.8c-1.2,0-2.5-0.7-3.6-1.3c-2.4-1.2-4.8-2.5-7.2-3.8c-1.6-0.8-1.7-1.1-0.6-2.5c3.8-4.5,7.7-9,11.5-13.5
		c3.6-4.1,7.1-8.2,10.9-12.1c3.9-4,8.1-7.7,12.2-11.5c1.4-1.3,3.2-1.3,4.9-1.6c3.6-0.5,7.2-0.6,10.9-0.2c2.3,0.2,3.5,1.5,4.4,3.4
		c0.2,0.4,0.5,0.8,0.7,1.3c0.4,1.5,1.6,2.1,2.8,2.7c4.1,1.8,8.3,3.5,12.4,5.4c2.3,1.1,5,1.7,6.6,3.9c0.7,1,1.3,2.1,1.7,3.2
		c0.3,0.8-0.1,1.7-1,1.9c-1.2,0.2-2.5,0.3-3.8,0.1c-1-0.1-1.1-0.7-0.5-1.6c0.9-1.3,1-2.2,0.2-2.5c-1.2-0.4-1.6,0.7-2.1,1.4
		c-1.7,2.4-0.2,4.6,2.2,4.9c1.3,0.1,2.7,0.2,3.9,0c3.2-0.7,3.9-3.1,2.6-6.2c-1.1-2.6-3.2-4.3-5.9-5.5c-4.9-2-9.6-4.4-14.4-6.4
		c-2-0.8-3.1-2.2-3.9-3.9c-1.5-3.3-4.4-4.2-7.6-4.2c-4,0-8,0.4-12.1,0.7c-1.9,0.1-3.4,1.5-4.7,2.7c-3.9,3.7-7.9,7.4-11.6,11.3
		c-4.2,4.4-8.2,8.9-12.2,13.5c-3.5,4-6.9,8.1-10.3,12.1c-1.1,1.3-1.2,1.4-2.8,0.6c-0.6-0.3-1.2-0.7-1.8-1c-0.3-0.1-0.8-0.3-1.1-0.2
		c-0.2,0.2-0.4,0.7-0.3,1c0.2,1.1,0.6,2.2,0.8,3.4c0.4,1.6,0.1,1.9-1.5,1.9C-115.1,370.3-120.5,370.3-125.9,370.3z M92.3,376.1
		c0.2,0,0.3,0,0.5,0c0.2,0.7,0.4,1.3,0.5,2c0.3,2.5,0.6,5,0.9,7.5c0.1,0.8,0.4,1.4,1.2,1.4c1,0,2.1-0.2,3.1-0.4
		c0.1,0,0.2-0.4,0.1-0.7c-0.2-1.6-0.4-3.2-0.6-4.8c-0.7-4.5-1.4-9.1-2-13.6c-0.1-0.9-0.3-1.6-1.4-1.8c-1.3-0.1-2.2,0.2-2.5,1.3
		c-0.7,2-1.4,4.1-2.1,6.1c-0.4,1.2-0.8,2.5-1.3,3.7c-0.1,0.4-0.6,0.6-0.9,0.9c-0.2-0.3-0.5-0.6-0.6-0.9c-0.3-0.7-0.6-1.5-0.9-2.2
		c-1-2.6-2-5.3-3-7.9c-0.4-1.2-1.4-1-2.3-0.9c-0.9,0-1.1,0.6-1.2,1.4c-0.9,5.7-1.9,11.4-2.9,17.1c-0.4,2.8,0,3.1,2.8,2.8
		c0,0,0.1,0,0.1,0c0.4-0.4,1.1-0.7,1.1-1.1c0.5-2.8,0.8-5.7,1.2-8.5c0.1-0.4,0.2-0.8,0.3-1.2c0.5,0.4,0.7,0.7,0.8,1
		c0.6,1.6,1.1,3.2,1.7,4.9c0.5,1.4,1,2.9,1.6,4.3c0.2,0.4,0.8,0.9,1.1,0.8c0.4-0.1,1-0.6,1.2-1c1.1-2.8,2-5.6,3-8.4
		C92,377.2,92.1,376.7,92.3,376.1z M23.7,404.8c-0.1,0-0.3-0.1-0.4-0.1c-0.1-0.4-0.3-0.7-0.4-1.1c-1.2-3.3-2.5-6.6-3.7-9.8
		c-0.4-1.2-1.4-1-2.3-1c-0.9,0-1.3,0.5-1.4,1.4c-0.4,2.4-0.8,4.9-1.2,7.3c-0.6,3.6-1.2,7.2-1.8,10.9c-0.1,0.9,0.3,1.4,1.2,1.5
		c2.4,0.4,3.1-0.2,3.4-2.6c0.3-2.5,0.6-5.1,1-7.6c0-0.3,0.2-0.5,0.5-1c0.3,0.6,0.5,1,0.6,1.3c1,2.9,1.9,5.8,3,8.7
		c0.2,0.5,0.8,1.1,1.3,1.3c0.3,0.1,1.1-0.5,1.3-0.9c0.9-2.5,1.7-5,2.6-7.4c0.3-0.9,0.7-1.9,1-2.8c0.1,0,0.2,0,0.3,0.1
		c0.1,0.3,0.3,0.6,0.3,0.9c0.3,2.5,0.7,5,0.9,7.5c0.2,2.3,0.6,2.8,2.9,2.7c1.4-0.1,1.7-0.5,1.5-1.9c-0.4-2.8-0.8-5.5-1.2-8.3
		c-0.4-2.9-0.8-5.8-1.2-8.7c-0.1-0.4,0-0.9-0.3-1.1c-0.4-0.4-0.9-1-1.4-1c-0.7,0-1.7,0.2-2.1,0.7c-0.6,0.8-0.8,1.9-1.2,2.9
		c-0.8,2.3-1.6,4.7-2.4,7C24.4,404,24,404.4,23.7,404.8z M18.7,378.8c-0.1,0-0.3,0-0.4,0c-1.4-1.9-2.8-3.8-4.3-5.7
		c-1.6-2.1-3.2-4.3-4.8-6.4c-0.8-1.1-1.9-1-2.9-0.7c-1,0.3-0.8,1.3-0.8,2c0,5.8,0,11.7,0,17.5c0,1.1,0.4,1.6,1.5,1.6
		c0.4,0,0.7,0,1.1,0c1.5,0,1.7-0.3,1.7-1.8c0-3.2,0-6.4,0-9.6c0-0.4,0.2-0.7,0.4-1.1c0.3,0.2,0.7,0.2,0.9,0.5
		c2.7,3.5,5.3,7.1,8,10.6c0.3,0.4,0.6,0.9,1,1c0.8,0.2,1.8,0.4,2.6,0.2c0.3-0.1,0.6-1.1,0.6-1.7c0.1-3.2,0-6.5,0-9.7
		c0-2.6,0-5.1,0-7.7c0-1.5-0.3-1.8-1.8-1.8c-0.2,0-0.5,0-0.7,0c-1.6,0-1.8,0.2-1.8,1.8c0,3.1,0,6.2,0,9.4
		C18.9,377.8,18.8,378.3,18.7,378.8z M95.2,402.9C95.2,402.9,95.2,402.8,95.2,402.9c-1.1,0-2.2-0.1-3.2,0c-1.2,0-1.5,0.4-1.5,1.8
		c0,1.1,0.5,1.6,1.6,1.6c0.6,0,1.2,0,1.8,0c0.8,0,1.1,0.4,0.8,1.2c-1,3-5.1,4.1-7.5,1.9c-2.9-2.6-2.9-7.8-0.8-10.7
		c1.2-1.6,3.6-2.9,5.7-1.7c0.8,0.5,1.6,1.1,2.3,1.8c1,1,1.9,0.8,3.6-0.6c1-0.9,0.2-1.5-0.3-2.1c-3.3-4.4-11.2-4.3-14.8,0.2
		c-2.3,2.9-2.6,6.1-2.3,9.5c0.3,2.7,1.6,4.9,3.6,6.7c2.1,1.9,4.6,2,7.3,1.9c2.2-0.1,4-1,5.5-2.6c2.1-2.2,2.4-5,2.7-7.8
		c0-0.3-0.7-0.9-1.1-1C97.4,402.8,96.3,402.9,95.2,402.9z M41.5,376.8c0,2.6,0,5.2,0,7.8c0,2.5,0.1,2.6,2.6,2.6c0.1,0,0.2,0,0.2,0
		c1,0,1.5-0.4,1.5-1.5c-0.1-1.2-0.1-2.5-0.1-3.7c0-0.4,0.3-0.8,0.4-1.2c0.3,0.3,0.7,0.5,0.9,0.8c1,1.6,1.9,3.2,2.9,4.7
		c0.2,0.4,0.7,0.8,1.2,0.9c1,0.1,2.1,0.1,3.1,0.1c0.9,0,1.2-0.6,0.6-1.4c-1.4-2-2.7-4.1-4.1-6c-0.6-0.9-0.6-1.3,0.3-1.8
		c2.6-1.6,3.1-4,2.7-6.8c-0.3-1.8-1.9-4.2-4.6-4.4c-1.8-0.1-3.6-0.3-5.5-0.4c-2-0.1-2.2,0.2-2.2,2.1C41.5,371.2,41.5,374,41.5,376.8
		z M57.9,374C57.9,374,57.9,374,57.9,374c0,1.8-0.1,3.7,0.1,5.5c0.2,1.6,0.6,3.1,1.2,4.6c0.3,0.7,0.8,1.4,1.4,1.9
		c1.6,1.3,3.5,1.6,5.5,1.6c4.5-0.2,6.6-2.6,6.9-5.9c0.5-4.6,0.3-9.3,0.4-14c0-0.4-0.5-1.2-0.9-1.3c-2.3-0.7-3.3,0.1-3.3,2.5
		c0,1.1,0,2.2,0,3.4c-0.1,2.8-0.1,5.7-0.3,8.5c-0.1,1.4-0.9,2.5-2.2,3.1c-1.2,0.5-2.3,0.1-3.1-0.8c-0.6-0.7-1-1.7-1.3-2.6
		c-0.2-0.9-0.1-1.8-0.1-2.7c0-3.2,0-6.3,0-9.5c0-1.5-0.3-1.8-1.8-1.8c-0.2,0-0.5,0-0.7,0c-1.4,0-1.7,0.2-1.7,1.6
		C57.9,369.9,57.9,372,57.9,374z M-20.3,387.1C-20.3,387.1-20.3,387.1-20.3,387.1c2,0,3.9,0,5.9,0c1.4,0,1.6-0.2,1.6-1.6
		c0-2-0.2-2.3-1.7-2.3c-1.7,0-3.4,0-5.2,0c-1.1,0-1.3-0.5-0.8-1.4c0.4-0.7,0.7-1.3,1.1-2c2.1-3.9,4.2-7.8,6.3-11.7
		c0.7-1.3,0.3-2-1.2-2c-3.5,0-7,0-10.4,0c-1.5,0-1.8,0.4-1.8,2.4c0,1.3,0.3,1.5,1.8,1.5c1.5,0,3,0,4.4,0c0.7,0,1.1,0.2,0.6,1
		c-2.6,4.7-5.1,9.5-7.6,14.2c-0.8,1.4-0.6,1.7,1,1.7C-24.2,387.1-22.2,387.1-20.3,387.1z M71,413.9C71,413.9,71,413.9,71,413.9
		c1.9,0,3.8,0,5.8,0c1.5,0,1.7-0.4,1.7-2.4c0-1.3-0.3-1.6-1.7-1.6c-1.7,0-3.4,0-5,0c-1.1,0-1.3-0.3-0.8-1.3c0.9-1.7,1.8-3.4,2.7-5.1
		c1.5-2.9,3.1-5.8,4.6-8.8c0.7-1.3,0.5-1.6-1.1-1.6c-3.6,0-7.1,0-10.7,0c-1.4,0-1.7,0.3-1.7,2.2c0,1.5,0.2,1.8,1.7,1.8
		c1.5,0,3,0,4.4,0c0.7,0,1.2,0.3,0.8,1.1c-0.7,1.3-1.4,2.7-2.2,4c-1.8,3.3-3.6,6.6-5.4,9.9c-0.6,1.2-0.2,1.8,1.1,1.8
		C67.2,413.9,69.1,413.9,71,413.9z M-9.5,376.8C-9.5,376.8-9.5,376.8-9.5,376.8c0,3,0,5.9,0,8.9c0,1,0.4,1.5,1.4,1.5
		c2.7,0,5.4,0,8.2,0c1,0,1.5-0.4,1.4-1.5c0-2-0.3-2.4-1.5-2.4c-1.2,0-2.4,0-3.6,0c-1.3,0-1.6-0.3-1.6-1.7c0-0.7,0-1.4,0-2.2
		c-0.1-0.9,0.4-1.3,1.3-1.3c1.3,0,2.6,0,3.8,0c0.9,0,1.3-0.4,1.3-1.3c0-0.4,0-0.8,0-1.2c0-1-0.5-1.5-1.5-1.4c-0.7,0-1.4,0-2.2,0
		c-2.8,0-2.8,0-2.8-2.7c0-1,0.4-1.4,1.4-1.4c1.2,0,2.4,0,3.6,0c1,0,1.8-0.1,1.8-1.4c0-2.1-0.3-2.5-1.8-2.5c-2.4,0-4.9,0-7.3,0
		c-1.6,0-1.9,0.3-1.9,1.9C-9.5,371-9.5,373.9-9.5,376.8z M37.1,403.6c0,2.8,0,5.7,0,8.5c0,1.4,0.4,1.8,1.8,1.8c2.6,0,5.1,0,7.7,0
		c1,0,1.4-0.4,1.4-1.4c0-0.4,0-0.8,0-1.2c0.1-1-0.4-1.5-1.4-1.4c-1.3,0-2.6,0-4,0c-0.9,0-1.3-0.4-1.3-1.3c0-0.8,0-1.5,0-2.3
		c0-1,0.5-1.5,1.4-1.5c1.2,0,2.3,0,3.5,0c1.2,0,1.5-0.8,1.5-1.8c0-1.3-0.3-1.8-1.5-1.9c-1.1,0-2.2,0-3.2,0c-1.4,0-1.7-0.3-1.7-1.7
		c0-0.3,0-0.6,0-1c-0.1-1.1,0.4-1.4,1.4-1.4c1.2,0,2.4,0,3.6,0c1.5,0,1.6-0.2,1.6-1.7c0-0.4,0-0.7,0-1.1c-0.1-0.8-0.5-1.2-1.3-1.2
		c-2.6,0-5.2,0-7.8,0.1c-1.4,0-1.7,0.3-1.8,1.8C37.1,397.9,37.1,400.7,37.1,403.6z M-57.7,354.6c0.3-1.9-0.3-4.2-1.3-6.3
		c-0.9-2-2.3-3.7-3.5-5.5c-0.2-0.3-0.9-0.2-1.3-0.3c-0.1,0.5-0.2,1.1-0.3,1.6c0,0.2,0.3,0.3,0.4,0.5c0.9,1.4,1.9,2.7,2.6,4.2
		c2.5,5.7,1.3,11.2-1.6,16.4c-0.4,0.8-1,0.9-1.6,0.3c-2.4-2.2-4.9-4.3-7.1-6.8c-2-2.3-2.9-5-1.8-8.2c1-2.9,2.4-5.6,4.1-8.2
		c0.4-0.6,0.9-1.4,0.1-2c-0.8-0.6-1.4,0.1-1.8,0.8c-2.3,3.4-4.1,6.9-4.8,11c-0.3,2,0.1,3.9,1,5.6c2.3,4.6,6.3,7.7,10.4,10.6
		c1.1,0.8,1.7,0.6,2.5-0.5C-59.2,363.8-57.6,359.7-57.7,354.6z M-52.1,407.3c-0.4,3.3,0.2,6.2,1.3,8.9c2.1,5.3,5.5,9.8,10.2,13.2
		c0.5,0.4,1,0.9,1.5,0.2c0.5-0.6,0.4-1.3-0.2-1.8c-0.9-0.8-1.8-1.5-2.6-2.3c-2.9-2.7-5.1-5.8-6.7-9.4c-1.3-3-1.9-6.3-1.6-9.6
		c0.1-0.8,0.5-1.1,1.3-0.8c1,0.5,2.1,0.9,3.2,1.3c3,1.2,5.6,2.9,7.5,5.5c2.2,2.9,3.2,6.3,4,9.8c0.3,1.3,0.7,1.9,1.5,1.7
		c1.2-0.3,0.8-1.2,0.6-1.9c-0.7-2.3-1.2-4.6-2.1-6.7c-1.1-2.6-2.5-5-4.8-6.8c-3.5-2.7-7.6-4.4-11.8-5.7c-0.8-0.3-1.4,0.1-1.4,1
		C-52.2,405.1-52.1,406.3-52.1,407.3z M30.2,378.4C30.2,378.4,30.2,378.4,30.2,378.4c0,2.1,0,4.2,0,6.2c0,2.4,0.1,2.5,2.6,2.5
		c0.1,0,0.2,0,0.4,0c1,0,1.4-0.5,1.4-1.5c0-4.6,0-9.2,0-13.8c0-1.5,0.2-1.7,1.7-1.7c2.2,0,2.6-0.4,2.3-2.6c-0.1-0.8-0.5-1.3-1.3-1.3
		c-3.2,0-6.5,0-9.7,0.1c-0.4,0-1.1,0.5-1.2,0.9c-0.7,2-0.1,2.9,2.1,2.9c0.1,0,0.2,0,0.4,0c1.1-0.1,1.5,0.3,1.5,1.5
		C30.1,373.9,30.2,376.2,30.2,378.4z M58.2,405.4C58.2,405.4,58.2,405.4,58.2,405.4c0-1.9,0-3.8,0-5.8c0-2.5,0-2.4,2.5-2.5
		c0.6,0,1.5-0.2,1.6-0.5c0.2-0.8,0.3-1.8,0-2.7c-0.1-0.4-1.1-0.7-1.7-0.7c-2.9-0.1-5.8,0-8.8,0c-1.6,0-1.8,0.2-1.9,1.7
		c-0.1,2.1,0,2.2,2.1,2.2c0.2,0,0.4,0,0.6,0c1.5,0,1.6,0.2,1.6,1.7c0,4.4,0,8.7,0,13.1c0,1.7,0.3,2,2.2,2c1.6,0,1.8-0.3,1.9-1.9
		C58.2,409.8,58.2,407.6,58.2,405.4z M29.9,419.4c-0.4-0.2-0.9-0.5-1.2-0.5c-0.4,0.1-0.7,0.6-0.9,1c-0.7,2-1.4,4-2.1,6
		c-0.1,0.2-0.4,0.6-0.5,0.6c-0.3-0.1-0.5-0.3-0.7-0.5c-0.2-0.2-0.2-0.5-0.3-0.8c-0.8-1.9-1.5-3.9-2.3-5.8c-0.3-0.8-0.8-0.8-1.3-0.2
		c-0.2,0.2-0.4,0.5-0.5,0.8c-0.7,1.9-1.5,3.7-2.2,5.6c-0.1,0.3-0.4,0.6-0.6,0.9c-0.3-0.2-0.6-0.4-0.9-0.7c-0.2-0.2-0.2-0.6-0.3-0.9
		c-0.6-1.7-1.2-3.5-1.9-5.2c-0.2-0.4-0.9-0.5-1.4-0.8c-0.1,0.5-0.3,1-0.2,1.4c0.3,1.1,0.7,2.1,1.1,3.1c0.8,2.2,1.6,4.5,2.5,6.7
		c0.2,0.4,0.7,0.7,1,1.1c0.2-0.4,0.6-0.7,0.7-1.1c0.8-2,1.6-4,2.4-6c0.1-0.3,0.5-0.5,0.8-0.7c0.2,0.3,0.5,0.5,0.6,0.8
		c0.3,0.7,0.6,1.5,0.9,2.2c0.6,1.5,1.2,2.9,1.9,4.4c0.1,0.2,0.5,0.5,0.7,0.5c0.2,0,0.5-0.4,0.6-0.6c1-2.8,2-5.5,3-8.3
		C29.3,421.5,29.5,420.6,29.9,419.4z M45.6,427.7c-0.5-0.5-0.8-0.7-1.1-1c-2.2-2.4-4.5-4.8-6.7-7.2c-0.3-0.3-0.9-0.5-1.3-0.7
		c-0.1,0.4-0.4,0.9-0.4,1.3c0,3.2,0,6.3,0,9.5c0,0.7,0,1.5,0.9,1.3c0.3-0.1,0.8-0.8,0.8-1.3c0.1-1.8,0-3.7,0-5.5
		c0-0.4,0.3-0.8,0.4-1.3c0.3,0.2,0.7,0.4,1,0.7c2.2,2.3,4.4,4.7,6.7,7c0.3,0.3,0.8,0.4,1.1,0.4c0.2,0,0.4-0.6,0.4-1
		c0-3.3,0-6.6,0-9.8c0-0.6-0.1-1.4-0.9-1.2c-0.3,0.1-0.7,0.8-0.7,1.2c-0.1,2,0,3.9,0,5.9C45.8,426.6,45.7,427,45.6,427.7z
		 M53.2,431.3c2.6,0.2,4.8-0.8,5.9-3.4c1.2-2.6,0.9-5.2-1-7.4c-1.7-2-4.1-1.9-6.4-1.8c-1.1,0.1-1.6,0.6-1.6,1.7c0.1,2.6,0,5.2,0,7.8
		C50.1,431.3,50.1,431.3,53.2,431.3z M88.1,425.1C88.1,425.1,88.1,425.1,88.1,425.1c0,1.5,0,3,0,4.6c0,0.8,0,1.6,1,1.6
		c1,0,1-0.9,1-1.6c0-1,0-2.1,0-3.1c0-0.9,0.4-1.2,1.3-1.2c1.1,0,2.2,0,3.2,0c0.9,0,1.3,0.3,1.3,1.3c0,1.2-0.1,2.3,0,3.5
		c0,0.4,0.6,0.8,0.9,1.2c0.4-0.4,1-0.8,1-1.2c0.1-3.3,0.1-6.6,0-9.9c0-0.4-0.6-0.8-1-1.2c-0.3,0.4-0.8,0.8-0.9,1.3
		c-0.1,0.7-0.1,1.4,0,2.1c0.1,1-0.3,1.6-1.5,1.5c-0.3,0-0.6,0-0.8,0c-3.4,0-3.4,0-3.5-3.5c0-0.7-0.1-1.5-1-1.4c-0.9,0.1-1,0.8-1,1.5
		C88.1,422,88.1,423.5,88.1,425.1z M-21.4,434.3c0.9-0.1,1.5-0.1,2.1-0.3c1.8-0.6,2.1-1.9,0.6-3.2c-1.1-1-2.3-2-3.4-3
		c-1.3-1.2-2.6-1.3-3.9-0.1c-1.7,1.7-3.3,3.6-4.9,5.4c-0.1,0.1-0.2,0.5-0.1,0.6c0.1,0.2,0.4,0.3,0.6,0.3c0.3,0,0.7-0.2,1-0.3
		c2-0.7,3.9-1,5.9,0.1C-22.9,434.1-22,434.2-21.4,434.3z M69.9,418.3c-2,0.3-2.9,0.9-3.5,2.8c-0.4,1.4,0,2.4,1.6,3.4
		c1,0.6,2,1.1,3,1.7c1.1,0.6,1.2,2,0.4,2.9c-1.1,1.3-2.4,1.1-3.8-0.4c-0.3-0.3-1-0.4-1.5-0.6c0,0.5-0.2,1.2,0.1,1.6
		c1.2,1.9,4.1,2.5,5.9,1.2c1.8-1.2,2.8-4.7-0.2-6.3c-1-0.6-2.1-1.1-3-1.7c-0.4-0.2-0.8-0.9-0.7-1.2c0.1-0.5,0.6-1.3,1-1.3
		c0.7-0.1,1.5,0.3,2.3,0.4c0.5,0.1,0.9,0.1,1.4,0.1c-0.1-0.5-0.1-1.2-0.4-1.4C71.7,419,70.8,418.7,69.9,418.3z M77.1,425.1
		c-0.4-3.2,3.6-6.4,7-4.4c0.4,0.2,1.1,0.1,1.6,0.1c-0.3-0.6-0.5-1.2-0.8-1.7c-0.1-0.2-0.4-0.2-0.6-0.3c-2.8-1.1-6.1,0-7.9,2.4
		c-1.6,2.2-1.5,5.5,0,7.6c2,2.7,5.6,3,7.9,2.2c0.5-0.2,0.9-0.6,1.3-1c0.2-0.2,0.2-0.7,0-1c-0.1-0.2-0.6-0.2-0.8-0.1
		c-0.3,0-0.5,0.2-0.8,0.3C80.6,431,77.1,428.8,77.1,425.1z M-56.2,343.1c0,2.9,3.6,5.8,6.5,5.3c1-0.2,1.6-0.6,2.1-1.5
		c0.7-1.4,0.2-2.5-0.3-3.8c-0.9-2.4-3.4-3.7-5.9-3.1C-55.4,340.4-56.2,341.5-56.2,343.1z M31.6,418.8c0,4.3,0,8.5,0,12.6
		c0.7,0,1.4,0,2.1,0c0-4.3,0-8.4,0-12.6C33,418.8,32.4,418.8,31.6,418.8z M61.6,419c0,4.1,0,8,0,12.2c0.7,0,1.4-0.1,2.1-0.1
		c0-4.1,0-8.1,0-12.1C63,419,62.4,419,61.6,419z"/>
	<path class="st0" d="M-98.2,384.9c-1.7-2.9-3.4-5.5-4.9-8.2c-1.5-2.7-2.4-5.7-3.2-9.1c0.9,0.3,1.5,0.4,2,0.7
		c4.6,2.4,9.2,4.7,13.7,7.1c0.6,0.3,1.2,1.2,1.2,1.9c-0.1,3.5-1,6.8-3.8,9.3c-0.6,0.5-1.1,1-2,0.7c-0.7-0.2-0.9,0.2-0.8,0.8
		c0.5,2.5-0.6,4.7-1.3,7c-0.3,1.1-1.3,1.8-2.5,2c-4.1,0.5-8.2,0.2-11.9-1.8c-2.6-1.4-4.4-3.5-5.4-6.4c-0.9-2.8-0.8-5.7-0.6-8.5
		c0.1-1.8,0.7-2.2,2.4-1.9c2.1,0.4,4.1,0.9,6.1,1.6c2.2,0.7,4.4,1.5,6.5,2.4c1.3,0.6,2.5,1.6,3.7,2.4
		C-98.8,384.7-98.6,384.8-98.2,384.9z"/>
	<path class="st0" d="M-22.5,405.4c1.8-1.1,3.5-2.2,5.3-3.2c3-1.9,6.1-3.8,9.1-5.7c1-0.6,1.5-0.3,2,0.8c1.9,4.5,0,8.2-2.6,11.8
		c-0.9,1.2-2,2.3-3,3.4c-0.5,0.5-1,0.6-1.5,0c-2.3-3.1-5.3-5.1-8.8-6.5c-0.1,0-0.2-0.1-0.3-0.2C-22.3,405.8-22.3,405.7-22.5,405.4z"
		/>
	<path class="st0" d="M-49.4,371.2c-0.3,1.6-1,3.2-2.2,4.7c-2.4,3-5.4,5.2-8.7,7.1c-2.2,1.3-2.3,1.3-3.3-1.1c-0.8-2.1-1.4-4.3-2-6.5
		c-0.1-0.3,0.3-1,0.6-1.1c3.3-1.1,6.6-2.1,9.9-3.1c1.3-0.4,2.6-0.9,4-1.3C-49.8,369.4-49.3,369.8-49.4,371.2z"/>
	<path class="st0" d="M-84.3,392.6c0.7,0.5,1.6,0.8,2.2,1.4c1,1.1,1.7,2.5,2.6,3.7c0.2,0.4,0.4,0.8,0.4,1.2c0.3,1.5-0.2,2-1.6,1.7
		c-1.9-0.4-3.8-0.8-5.6-1.5c-1.7-0.7-2.3-2-2.2-3.2c0.2-1.3,1.8-2.8,3.3-3.1c0.2,0,0.5-0.1,0.7-0.1
		C-84.4,392.8-84.4,392.7-84.3,392.6z"/>
	<path class="st0" d="M-50.4,379c-0.9,1.5-1.7,3.1-2.8,4.5c-1.8,2.4-3.7,4.7-5.7,6.9c-0.8,1-1.4,0.8-1.8-0.4
		c-0.3-0.9-0.6-1.7-0.8-2.6c-0.1-0.4,0.2-1.1,0.5-1.4c1.2-0.8,2.5-1.4,3.6-2.3c1.8-1.3,3.6-2.8,5.4-4.2c0.4-0.3,0.8-0.6,1.1-0.8
		C-50.6,378.8-50.5,378.9-50.4,379z"/>
	<path class="st0" d="M-64.3,427c-2.2,0.3-3.3-1.4-2.7-3.4c0.5-1.3,1.6-1.8,3.8-1.5c1,0.2,2,1.3,2,2.4C-61.3,426-62.5,427-64.3,427z
		"/>
	<path d="M92.3,376.1c-0.2,0.5-0.3,1-0.5,1.5c-1,2.8-1.9,5.6-3,8.4c-0.2,0.4-0.7,0.9-1.2,1c-0.3,0.1-1-0.4-1.1-0.8
		c-0.6-1.4-1.1-2.8-1.6-4.3c-0.6-1.6-1.1-3.2-1.7-4.8c-0.1-0.4-0.4-0.7-0.8-1c-0.1,0.4-0.3,0.8-0.3,1.2c-0.4,2.8-0.7,5.7-1.2,8.5
		c-0.1,0.4-0.7,0.8-1.1,1.1c0,0-0.1,0-0.1,0c-2.8,0.4-3.2,0-2.8-2.8c0.9-5.7,1.9-11.4,2.9-17.1c0.1-0.7,0.4-1.3,1.2-1.4
		c0.9,0,1.9-0.3,2.3,0.9c1,2.6,2,5.3,3,7.9c0.3,0.7,0.6,1.5,0.9,2.2c0.1,0.3,0.4,0.6,0.6,0.9c0.3-0.3,0.7-0.5,0.9-0.9
		c0.5-1.2,0.9-2.5,1.3-3.7c0.7-2,1.4-4.1,2.1-6.1c0.4-1.1,1.3-1.4,2.5-1.3c1.1,0.1,1.3,0.8,1.4,1.8c0.7,4.5,1.4,9.1,2,13.6
		c0.2,1.6,0.4,3.2,0.6,4.8c0,0.2-0.1,0.6-0.1,0.7c-1,0.2-2.1,0.4-3.1,0.4c-0.8,0-1.1-0.6-1.2-1.4c-0.3-2.5-0.5-5-0.9-7.5
		c-0.1-0.7-0.3-1.3-0.5-2C92.6,376.2,92.5,376.1,92.3,376.1z"/>
	<path d="M23.7,404.8c0.3-0.4,0.7-0.8,0.9-1.3c0.8-2.3,1.6-4.7,2.4-7c0.3-1,0.6-2.1,1.2-2.9c0.4-0.5,1.4-0.7,2.1-0.7
		c0.5,0,1,0.5,1.4,1c0.2,0.3,0.2,0.8,0.3,1.1c0.4,2.9,0.8,5.8,1.2,8.7c0.4,2.8,0.8,5.5,1.2,8.3c0.2,1.4-0.1,1.9-1.5,1.9
		c-2.3,0.1-2.7-0.4-2.9-2.7c-0.2-2.5-0.6-5-0.9-7.5c0-0.3-0.2-0.6-0.3-0.9c-0.1,0-0.2,0-0.3-0.1c-0.3,0.9-0.7,1.9-1,2.8
		c-0.9,2.5-1.7,5-2.6,7.4c-0.2,0.4-1,1-1.3,0.9c-0.5-0.2-1.1-0.8-1.3-1.3c-1.1-2.9-2-5.8-3-8.7c-0.1-0.4-0.3-0.7-0.6-1.3
		c-0.3,0.5-0.5,0.8-0.5,1c-0.3,2.5-0.7,5.1-1,7.6c-0.3,2.4-1,3-3.4,2.6c-0.9-0.1-1.3-0.6-1.2-1.5c0.6-3.6,1.2-7.3,1.8-10.9
		c0.4-2.4,0.8-4.9,1.2-7.3c0.1-0.8,0.5-1.3,1.4-1.4c0.9,0,1.9-0.2,2.3,1c1.2,3.3,2.5,6.6,3.7,9.8c0.1,0.4,0.3,0.7,0.4,1.1
		C23.5,404.8,23.6,404.8,23.7,404.8z"/>
	<path d="M18.7,378.8c0.1-0.5,0.2-0.9,0.2-1.4c0-3.1,0-6.2,0-9.4c0-1.6,0.2-1.8,1.8-1.8c0.2,0,0.5,0,0.7,0c1.4,0,1.7,0.3,1.8,1.8
		c0,2.6,0,5.1,0,7.7c0,3.2,0,6.5,0,9.7c0,0.6-0.3,1.6-0.6,1.7c-0.8,0.2-1.8,0-2.6-0.2c-0.4-0.1-0.7-0.6-1-1c-2.7-3.5-5.3-7.1-8-10.6
		c-0.2-0.2-0.6-0.3-0.9-0.5c-0.1,0.4-0.4,0.7-0.4,1.1c0,3.2,0,6.4,0,9.6c0,1.5-0.2,1.7-1.7,1.8c-0.4,0-0.7,0-1.1,0
		c-1.1,0-1.5-0.5-1.5-1.6c0-5.8,0-11.7,0-17.5c0-0.8-0.3-1.7,0.8-2c1.1-0.3,2.1-0.3,2.9,0.7c1.6,2.1,3.2,4.3,4.8,6.4
		c1.4,1.9,2.9,3.8,4.3,5.7C18.4,378.8,18.6,378.8,18.7,378.8z"/>
	<path d="M95.2,402.9c1.1,0,2.3-0.1,3.4,0c0.4,0.1,1.2,0.7,1.1,1c-0.3,2.8-0.6,5.6-2.7,7.8c-1.5,1.6-3.2,2.5-5.5,2.6
		c-2.6,0.1-5.2-0.1-7.3-1.9c-2-1.8-3.4-4-3.6-6.7c-0.3-3.4,0-6.7,2.3-9.5c3.5-4.5,11.4-4.6,14.8-0.2c0.5,0.6,1.3,1.3,0.3,2.1
		c-1.7,1.5-2.6,1.6-3.6,0.6c-0.7-0.7-1.5-1.3-2.3-1.8c-2.1-1.2-4.5,0-5.7,1.7c-2.1,2.9-2.1,8.1,0.8,10.7c2.4,2.2,6.5,1.1,7.5-1.9
		c0.2-0.7,0-1.2-0.8-1.2c-0.6,0-1.2,0-1.8,0c-1.1,0-1.6-0.5-1.6-1.6c0-1.3,0.3-1.8,1.5-1.8C93,402.8,94.1,402.8,95.2,402.9
		C95.2,402.8,95.2,402.9,95.2,402.9z"/>
	<path d="M41.5,376.8c0-2.8,0-5.6,0-8.4c0-2,0.2-2.2,2.2-2.1c1.8,0.1,3.6,0.3,5.5,0.4c2.7,0.2,4.3,2.6,4.6,4.4
		c0.4,2.8-0.1,5.2-2.7,6.8c-1,0.6-1,1-0.3,1.8c1.4,2,2.8,4,4.1,6c0.5,0.8,0.3,1.3-0.6,1.4c-1,0.1-2.1,0.1-3.1-0.1
		c-0.4-0.1-0.9-0.5-1.2-0.9c-1-1.5-1.9-3.2-2.9-4.7c-0.2-0.3-0.6-0.5-0.9-0.8c-0.1,0.4-0.4,0.8-0.4,1.2c0,1.2,0,2.5,0.1,3.7
		c0.1,1.1-0.4,1.5-1.5,1.5c-0.1,0-0.2,0-0.2,0c-2.5,0.1-2.6,0-2.6-2.6C41.5,382,41.5,379.4,41.5,376.8z M45.8,372.7
		C45.8,372.7,45.8,372.7,45.8,372.7c0,0.7-0.1,1.5,0.1,2.1c0.1,0.4,0.8,0.9,1.1,0.9c1.8-0.2,3-2.1,2.5-3.8c-0.3-1.2-1.7-2.1-2.9-1.9
		c-1.3,0.3-0.7,1.4-0.8,2.2C45.8,372.4,45.8,372.6,45.8,372.7z"/>
	<path d="M57.9,374c0-2,0-4.1,0-6.1c0-1.4,0.3-1.7,1.7-1.6c0.2,0,0.5,0,0.7,0c1.5,0,1.8,0.3,1.8,1.8c0,3.2,0,6.3,0,9.5
		c0,0.9-0.1,1.9,0.1,2.7c0.2,0.9,0.6,1.9,1.3,2.6c0.7,0.9,1.9,1.3,3.1,0.8c1.3-0.6,2.1-1.7,2.2-3.1c0.2-2.8,0.2-5.7,0.3-8.5
		c0-1.1,0-2.2,0-3.4c0-2.4,1-3.2,3.3-2.5c0.4,0.1,0.9,0.8,0.9,1.3c0,4.7,0.1,9.4-0.4,14c-0.3,3.4-2.5,5.7-6.9,5.9
		c-2,0.1-3.9-0.3-5.5-1.6c-0.6-0.5-1.2-1.2-1.4-1.9c-0.5-1.5-1-3-1.2-4.6C57.8,377.7,57.9,375.8,57.9,374
		C57.9,374,57.9,374,57.9,374z"/>
	<path d="M-20.3,387.1c-2,0-3.9,0-5.9,0c-1.6,0-1.8-0.3-1-1.7c2.5-4.7,5.1-9.5,7.6-14.2c0.4-0.8,0.1-1-0.6-1c-1.5,0-3,0-4.4,0
		c-1.5,0-1.8-0.3-1.8-1.5c0-2,0.2-2.4,1.8-2.4c3.5,0,7,0,10.4,0c1.5,0,1.9,0.6,1.2,2c-2.1,3.9-4.2,7.8-6.3,11.7
		c-0.4,0.7-0.7,1.3-1.1,2c-0.5,0.9-0.2,1.3,0.8,1.4c1.7,0,3.4,0,5.2,0c1.5,0,1.7,0.3,1.7,2.3c0,1.3-0.3,1.6-1.6,1.6
		C-16.4,387.1-18.3,387.1-20.3,387.1C-20.3,387.1-20.3,387.1-20.3,387.1z"/>
	<path d="M71,413.9c-1.9,0-3.8,0-5.8,0c-1.4,0-1.8-0.6-1.1-1.8c1.8-3.3,3.6-6.6,5.4-9.9c0.7-1.3,1.5-2.6,2.2-4
		c0.4-0.8-0.1-1.1-0.8-1.1c-1.5,0-3,0-4.4,0c-1.5,0-1.7-0.2-1.7-1.8c0-1.9,0.3-2.2,1.7-2.2c3.6,0,7.1,0,10.7,0
		c1.5,0,1.7,0.2,1.1,1.6c-1.5,3-3.1,5.9-4.6,8.8c-0.9,1.7-1.8,3.4-2.7,5.1c-0.5,1-0.3,1.3,0.8,1.3c1.7,0,3.4,0,5,0
		c1.4,0,1.7,0.3,1.7,1.6c0,2-0.2,2.3-1.7,2.4C74.8,413.9,72.9,413.9,71,413.9C71,413.9,71,413.9,71,413.9z"/>
	<path d="M-9.5,376.8c0-2.9,0-5.8,0-8.6c0-1.6,0.3-1.9,1.9-1.9c2.4,0,4.9,0,7.3,0c1.5,0,1.8,0.5,1.8,2.5c0,1.3-0.8,1.4-1.8,1.4
		c-1.2,0-2.4,0-3.6,0c-0.9,0-1.4,0.3-1.4,1.4c0,2.8,0,2.8,2.8,2.7c0.7,0,1.4,0,2.2,0c1,0,1.5,0.5,1.5,1.4c0,0.4,0,0.8,0,1.2
		c0,0.9-0.4,1.3-1.3,1.3c-1.3,0-2.6,0-3.8,0c-0.9,0-1.3,0.3-1.3,1.3c0,0.7,0,1.4,0,2.2c0,1.3,0.3,1.6,1.6,1.7c1.2,0,2.4,0,3.6,0
		c1.3,0,1.5,0.5,1.5,2.4c0,1-0.5,1.5-1.4,1.5c-2.7,0-5.4,0-8.2,0c-1,0-1.4-0.5-1.4-1.5C-9.5,382.7-9.5,379.7-9.5,376.8
		C-9.5,376.8-9.5,376.8-9.5,376.8z"/>
	<path d="M37.1,403.6c0-2.8,0-5.7,0-8.5c0-1.5,0.3-1.8,1.8-1.8c2.6,0,5.2,0,7.8-0.1c0.9,0,1.3,0.4,1.3,1.2c0,0.4,0,0.7,0,1.1
		c0,1.5-0.2,1.7-1.6,1.7c-1.2,0-2.4,0-3.6,0c-1,0-1.5,0.4-1.4,1.4c0,0.3,0,0.6,0,1c0,1.4,0.3,1.7,1.7,1.7c1.1,0,2.2,0,3.2,0
		c1.1,0,1.5,0.5,1.5,1.9c0,1-0.3,1.7-1.5,1.8c-1.2,0-2.3,0-3.5,0c-1,0-1.5,0.4-1.4,1.5c0,0.8,0,1.5,0,2.3c-0.1,0.9,0.4,1.3,1.3,1.3
		c1.3,0,2.6,0,4,0c1,0,1.5,0.4,1.4,1.4c0,0.4,0,0.8,0,1.2c0,0.9-0.5,1.4-1.4,1.4c-2.6,0-5.1,0-7.7,0c-1.4,0-1.8-0.4-1.8-1.8
		C37.1,409.3,37.1,406.4,37.1,403.6z"/>
	<path d="M-57.7,354.6c0.1,5.1-1.5,9.2-4.1,13c-0.8,1.1-1.4,1.3-2.5,0.5c-4.1-2.9-8-6-10.4-10.6c-0.9-1.7-1.3-3.5-1-5.6
		c0.7-4.1,2.5-7.6,4.8-11c0.4-0.6,1-1.4,1.8-0.8c0.8,0.6,0.3,1.4-0.1,2c-1.7,2.6-3.1,5.2-4.1,8.2c-1.1,3.2-0.2,5.9,1.8,8.2
		c2.1,2.4,4.7,4.5,7.1,6.8c0.7,0.6,1.2,0.5,1.6-0.3c2.9-5.2,4.1-10.7,1.6-16.4c-0.6-1.5-1.7-2.8-2.6-4.2c-0.1-0.2-0.4-0.4-0.4-0.5
		c0-0.5,0.2-1.1,0.3-1.6c0.5,0.1,1.1,0,1.3,0.3c1.3,1.8,2.6,3.6,3.5,5.5C-58.1,350.4-57.5,352.6-57.7,354.6z"/>
	<path d="M-52.1,407.3c0-0.9,0-2.1,0-3.3c0-0.8,0.6-1.2,1.4-1c4.2,1.3,8.3,2.9,11.8,5.7c2.3,1.8,3.7,4.2,4.8,6.8
		c0.9,2.2,1.5,4.5,2.1,6.7c0.2,0.7,0.6,1.7-0.6,1.9c-0.8,0.2-1.3-0.4-1.5-1.7c-0.8-3.5-1.8-6.9-4-9.8c-1.9-2.6-4.6-4.3-7.5-5.5
		c-1.1-0.4-2.1-0.9-3.2-1.3c-0.8-0.4-1.2-0.1-1.3,0.8c-0.3,3.3,0.3,6.5,1.6,9.6c1.6,3.6,3.8,6.7,6.7,9.4c0.8,0.8,1.8,1.5,2.6,2.3
		c0.6,0.5,0.7,1.2,0.2,1.8c-0.6,0.7-1,0.1-1.5-0.2c-4.7-3.4-8.1-7.8-10.2-13.2C-51.9,413.4-52.5,410.5-52.1,407.3z"/>
	<path d="M30.2,378.4c0-2.3,0-4.6,0-6.8c0-1.1-0.4-1.5-1.5-1.5c-0.1,0-0.2,0-0.4,0c-2.1,0-2.8-0.9-2.1-2.9c0.1-0.4,0.8-0.9,1.2-0.9
		c3.2-0.1,6.5-0.1,9.7-0.1c0.8,0,1.2,0.5,1.3,1.3c0.3,2.2,0,2.6-2.3,2.6c-1.5,0-1.7,0.2-1.7,1.7c0,4.6,0,9.2,0,13.8
		c0,1-0.4,1.5-1.4,1.5c-0.1,0-0.2,0-0.4,0c-2.5,0-2.6-0.1-2.6-2.5C30.2,382.6,30.2,380.5,30.2,378.4
		C30.2,378.4,30.2,378.4,30.2,378.4z"/>
	<path d="M58.2,405.4c0,2.2,0,4.4,0,6.6c0,1.6-0.3,1.9-1.9,1.9c-1.9,0-2.2-0.3-2.2-2c0-4.4,0-8.7,0-13.1c0-1.5-0.1-1.7-1.6-1.7
		c-0.2,0-0.4,0-0.6,0c-2.1,0-2.1-0.1-2.1-2.2c0.1-1.5,0.3-1.7,1.9-1.7c2.9,0,5.8,0,8.8,0c0.6,0,1.6,0.3,1.7,0.7
		c0.3,0.8,0.2,1.8,0,2.7c-0.1,0.3-1,0.5-1.6,0.5c-2.5,0.1-2.5,0-2.5,2.5C58.2,401.5,58.2,403.5,58.2,405.4
		C58.2,405.4,58.2,405.4,58.2,405.4z"/>
	<path d="M29.9,419.4c-0.4,1.2-0.7,2.1-1,2.9c-1,2.8-2,5.5-3,8.3c-0.1,0.3-0.4,0.6-0.6,0.6c-0.2,0-0.6-0.3-0.7-0.5
		c-0.7-1.4-1.3-2.9-1.9-4.4c-0.3-0.7-0.5-1.5-0.9-2.2c-0.1-0.3-0.4-0.5-0.6-0.8c-0.3,0.2-0.7,0.4-0.8,0.7c-0.8,2-1.6,4-2.4,6
		c-0.2,0.4-0.5,0.8-0.7,1.1c-0.3-0.4-0.8-0.6-1-1.1c-0.9-2.2-1.7-4.5-2.5-6.7c-0.4-1-0.8-2.1-1.1-3.1c-0.1-0.4,0.1-0.9,0.2-1.4
		c0.5,0.3,1.2,0.4,1.4,0.8c0.7,1.7,1.3,3.4,1.9,5.2c0.1,0.3,0.1,0.6,0.3,0.9c0.2,0.3,0.6,0.5,0.9,0.7c0.2-0.3,0.4-0.5,0.6-0.9
		c0.7-1.9,1.5-3.7,2.2-5.6c0.1-0.3,0.3-0.6,0.5-0.8c0.5-0.6,1-0.6,1.3,0.2c0.8,1.9,1.5,3.9,2.3,5.8c0.1,0.3,0.2,0.6,0.3,0.8
		c0.2,0.2,0.4,0.4,0.7,0.5c0.1,0,0.4-0.4,0.5-0.6c0.7-2,1.4-4,2.1-6c0.1-0.4,0.5-0.9,0.9-1C29.1,418.9,29.5,419.3,29.9,419.4z"/>
	<path d="M45.6,427.7c0.1-0.7,0.2-1.2,0.3-1.6c0-2-0.1-3.9,0-5.9c0-0.4,0.4-1.2,0.7-1.2c0.8-0.1,0.9,0.6,0.9,1.2c0,3.3,0,6.6,0,9.8
		c0,0.4-0.2,1-0.4,1c-0.4,0.1-0.9-0.1-1.1-0.4c-2.2-2.3-4.4-4.7-6.7-7c-0.3-0.3-0.7-0.5-1-0.7c-0.1,0.4-0.4,0.8-0.4,1.3
		c0,1.8,0.1,3.7,0,5.5c0,0.5-0.5,1.3-0.8,1.3c-0.9,0.1-0.9-0.7-0.9-1.3c0-3.2,0-6.3,0-9.5c0-0.4,0.2-0.9,0.4-1.3
		c0.4,0.2,1,0.4,1.3,0.7c2.3,2.4,4.5,4.8,6.7,7.2C44.8,427,45.1,427.3,45.6,427.7z"/>
	<path d="M53.2,431.3c-3.1,0-3.1,0-3.1-3c0-2.6,0-5.2,0-7.8c0-1.2,0.5-1.7,1.6-1.7c2.4-0.1,4.7-0.2,6.4,1.8c1.9,2.2,2.2,4.7,1,7.4
		C58,430.5,55.9,431.5,53.2,431.3z M52.1,425C52.1,425,52.1,425,52.1,425c0,1.2,0,2.3,0,3.5c0,1,0.4,1.4,1.4,1.3
		c2.7-0.1,4.6-2.2,4.6-4.8c0-2.7-2.1-4.6-4.7-4.7c-0.8,0-1.2,0.3-1.2,1.1C52.1,422.6,52.1,423.8,52.1,425z"/>
	<path d="M88.1,425.1c0-1.6,0-3.1,0-4.7c0-0.7,0.1-1.5,1-1.5c1-0.1,1,0.7,1,1.4c0.1,3.4,0.1,3.4,3.5,3.5c0.3,0,0.6,0,0.8,0
		c1.1,0.1,1.5-0.4,1.5-1.5c0-0.7-0.1-1.5,0-2.1c0.1-0.5,0.6-0.9,0.9-1.3c0.3,0.4,1,0.8,1,1.2c0.1,3.3,0.1,6.6,0,9.9
		c0,0.4-0.7,0.8-1,1.2c-0.3-0.4-0.8-0.8-0.9-1.2c-0.1-1.1,0-2.3,0-3.5c0-0.9-0.4-1.3-1.3-1.3c-1.1,0-2.2,0-3.2,0
		c-0.9,0-1.3,0.3-1.3,1.2c0,1,0,2.1,0,3.1c0,0.7,0.1,1.6-1,1.6c-1,0-1-0.8-1-1.6C88.1,428.1,88.1,426.6,88.1,425.1
		C88.1,425.1,88.1,425.1,88.1,425.1z"/>
	<path d="M-21.4,434.3c-0.6-0.2-1.4-0.2-2.1-0.6c-2-1.1-3.9-0.8-5.9-0.1c-0.3,0.1-0.7,0.3-1,0.3c-0.2,0-0.5-0.1-0.6-0.3
		c-0.1-0.1,0-0.5,0.1-0.6c1.6-1.8,3.2-3.7,4.9-5.4c1.3-1.3,2.6-1.1,3.9,0.1c1.1,1,2.3,2,3.4,3c1.4,1.3,1.2,2.6-0.6,3.2
		C-19.9,434.2-20.6,434.2-21.4,434.3z M-21.3,432c0.1-0.1,0.1-0.3,0.2-0.4c-0.9-0.8-1.8-1.6-2.8-2.3c-0.2-0.1-0.9,0.2-1.1,0.5
		c-0.1,0.2,0.1,0.8,0.3,1c0.5,0.4,1.1,0.7,1.6,0.9C-22.5,432-21.9,432-21.3,432z"/>
	<path d="M69.9,418.3c0.9,0.4,1.8,0.7,2.6,1.2c0.3,0.2,0.3,0.9,0.4,1.4c-0.5,0-0.9,0-1.4-0.1c-0.8-0.1-1.6-0.5-2.3-0.4
		c-0.4,0-0.9,0.8-1,1.3c-0.1,0.4,0.3,1,0.7,1.2c1,0.6,2,1.1,3,1.7c2.9,1.6,2,5,0.2,6.3c-1.8,1.3-4.7,0.7-5.9-1.2
		c-0.2-0.4-0.1-1.1-0.1-1.6c0.5,0.2,1.2,0.2,1.5,0.6c1.5,1.5,2.7,1.7,3.8,0.4c0.8-0.9,0.6-2.3-0.4-2.9c-1-0.6-2.1-1.1-3-1.7
		c-1.5-1-2-2-1.6-3.4C67,419.2,67.9,418.5,69.9,418.3z"/>
	<path d="M77.1,425.1c0,3.7,3.6,5.9,6.9,4.2c0.2-0.1,0.5-0.3,0.8-0.3c0.3,0,0.8,0,0.8,0.2c0.1,0.3,0.1,0.8,0,1
		c-0.3,0.4-0.8,0.8-1.3,1c-2.3,0.8-5.8,0.5-7.9-2.2c-1.6-2.1-1.6-5.5,0-7.6c1.8-2.5,5.1-3.5,7.9-2.4c0.2,0.1,0.5,0.1,0.6,0.3
		c0.3,0.5,0.5,1.1,0.8,1.7c-0.5,0-1.2,0.1-1.6-0.1C80.6,418.8,76.6,421.9,77.1,425.1z"/>
	<path d="M-56.2,343.1c0-1.6,0.8-2.7,2.4-3.1c2.5-0.6,5,0.7,5.9,3.1c0.5,1.2,1,2.4,0.3,3.8c-0.5,0.9-1.1,1.4-2.1,1.5
		C-52.6,348.9-56.1,346-56.2,343.1z M-52.8,342c-0.2,0.1-0.8,0.3-1,0.6c-0.2,0.5-0.2,1.4,0.1,1.7c0.9,0.8,1.9,1.5,3,2
		c0.7,0.3,1.3-0.2,1.3-1C-49.3,344-51.2,342-52.8,342z"/>
	<path d="M31.6,418.8c0.7,0,1.3,0,2.1,0c0,4.2,0,8.4,0,12.6c-0.7,0-1.3,0-2.1,0C31.6,427.2,31.6,423.1,31.6,418.8z"/>
	<path d="M61.6,419c0.7,0,1.3,0,2.1,0c0,4,0,7.9,0,12.1c-0.6,0-1.3,0.1-2.1,0.1C61.6,427,61.6,423.1,61.6,419z"/>
	<path class="st0" d="M45.8,372.7c0-0.2,0-0.3,0-0.5c0.1-0.8-0.5-1.9,0.8-2.2c1.1-0.3,2.5,0.7,2.9,1.9c0.5,1.7-0.7,3.6-2.5,3.8
		c-0.4,0-1-0.5-1.1-0.9C45.7,374.2,45.8,373.4,45.8,372.7C45.8,372.7,45.8,372.7,45.8,372.7z"/>
	<path class="st0" d="M52.1,425c0-1.2,0-2.4,0-3.6c0-0.8,0.4-1.1,1.2-1.1c2.7,0,4.7,2,4.7,4.7c0,2.7-1.9,4.7-4.6,4.8
		c-1,0-1.4-0.4-1.4-1.3C52.1,427.3,52.1,426.2,52.1,425C52.1,425,52.1,425,52.1,425z"/>
	<path class="st0" d="M-21.3,432c-0.6-0.1-1.2-0.1-1.7-0.3c-0.6-0.2-1.2-0.5-1.6-0.9c-0.2-0.2-0.5-0.9-0.3-1
		c0.2-0.3,0.9-0.6,1.1-0.5c1,0.7,1.8,1.5,2.8,2.3C-21.2,431.7-21.2,431.9-21.3,432z"/>
	<path class="st0" d="M-52.8,342c1.7,0,3.6,2,3.5,3.3c-0.1,0.8-0.7,1.3-1.3,1c-1.1-0.5-2.1-1.2-3-2c-0.3-0.3-0.3-1.2-0.1-1.7
		C-53.7,342.3-53,342.1-52.8,342z"/>
</g>
</svg>
