<?xml version="1.0" encoding="utf-8"?>
<!-- Generator: Adobe Illustrator 19.0.0, SVG Export Plug-In . SVG Version: 6.00 Build 0)  -->
<svg version="1.1" id="Ebene_1" xmlns="http://www.w3.org/2000/svg" xmlns:xlink="http://www.w3.org/1999/xlink" x="0px" y="0px"
	 viewBox="-149 359.9 297 123" style="enable-background:new -149 359.9 297 123;" xml:space="preserve">
<style type="text/css">
	.st0{fill:#FFFFFF;}
</style>
<g>
	<path d="M108.9,443.3c-1-2.1-1.8-3.8-2.9-6.1c13.1,0,25.7,0,39.2,0c-4.2,12.2-8.2,24-12.7,37.1c-1.5-2.4-2.5-4.1-3.8-6.1
		c-12.7,8.1-25.4,12.6-39.4,6.9c-13.8-5.6-21.7-17.3-29-29.6c7.4,5.3,15.2,9.8,24.7,9C94.3,453.7,101.8,449.3,108.9,443.3z"/>
	<path d="M27.3,384.1c3.3,6.2,6.8,4.3,10.7,2.1c18.7-10.4,34.2-7.9,48.5,7.9c4.3,4.8,8,10.2,11.1,16.2c-0.7-0.4-1.4-0.7-2.1-1.1
		c-14.3-9.5-28.9-8.3-42.3,2.6c-4.3,3.5,0.2,5.6,0.4,8.9c-11.9,0-23.5,0-35.1,0c-0.9,0-1.7-0.2-3.4-0.5
		C19.2,408.4,23.1,396.8,27.3,384.1z"/>
	<path d="M-81.9,392.2c-1.6,6.5-2.8,13.1-5.1,19.4c-2.5,7-8,10.5-15.5,11c-8.9,0.6-14.3-3.4-15.8-12.2c-1.6-9.4,0.2-18.5,3.8-27.2
		c3.7-9,10.4-12.3,20.3-10.6c7.5,1.3,10.5,5.5,11.4,15.6c0.1,1.3,0.1,2.5,0.2,3.8C-82.3,392.1-82.1,392.2-81.9,392.2z M-108.2,405.4
		c1.4,2.3,2.9,4.9,4.5,7.5c2.2-2,5.5-3.8,6.2-6.2c1.7-6.2,2.6-12.7,3.1-19.2c0.1-1.7-2.3-3.7-3.6-5.5c-1.8,1.3-4.5,2.3-5.1,4.1
		C-105,392-106.3,398.2-108.2,405.4z"/>
	<path d="M15.7,383.6c-2.8,1.1-5.1,2.5-7.5,2.7c-1.6,0.2-4-0.8-5-2.1c-2.6-3.3-5-3.2-6.8,0c-4.3,7.6-5.8,16-4.5,24.7
		c0.2,1.6,2.2,3.9,3.5,4.1c1.4,0.2,3.5-1.6,4.5-3.1c1.1-1.7,1.3-4,2-6.3c-2.3-0.4-4.1-0.7-5.7-0.9c-0.6-8.4-0.5-8.6,7.5-8.6
		c2.9,0,5.8,0.1,8.7,0.2c0.7,0,1.4,0.4,3,1c-1.4,5.6-2.2,11.3-4.3,16.6c-3.7,9.4-13.7,13.8-22.9,9.6c-3.2-1.4-6.5-5.3-7.4-8.6
		c-3.2-12-0.8-23.5,5.7-34c4-6.4,10.5-7.2,17.4-6.3C10.1,373.3,13.5,377.1,15.7,383.6z"/>
	<path d="M-113.8,374.1c-3.1,5.9-6.5,11.7-9.1,17.8c-1.3,3.1-1.8,6.9-1.4,10.3c0.8,6.3,2.4,12.4,3.9,19.2c-4.1,0-7.8,0-11.8,0
		c-0.7-3.7-1.5-7.6-2.3-11.4c-0.3,0-0.6,0-0.9-0.1c-0.4,1.2-0.8,2.4-1.1,3.7c-1.8,9.1-1.8,9.1-12.6,7.8c2.4-15.9,4.8-31.8,7.2-48.1
		c3.7,0,7.2,0,11.2,0c-0.4,3.4-0.7,6.6-1,9.7C-127.6,376.7-124.5,369.3-113.8,374.1z"/>
	<path d="M-34.9,414c-4.8-0.8-9-1.6-10.3,4.8c-0.3,1.3-2.9,2.7-4.7,3.1c-2.2,0.5-4.7,0.1-7.7,0.1c4.3-12.8,8.4-25,12.4-37.1
		c0.3-0.9,0.6-1.7,0.9-2.6c3.4-10,4.9-10.9,15.6-9.2c1.3,0.2,3.1,2,3.2,3.2c1,14.9,1.8,29.7,2.6,45.2c-3.9,0-7.4,0-11.2,0
		C-34.3,419.1-34.6,416.8-34.9,414z M-35.2,405.4c0-5.2,0-9.9,0-14.6c-0.4-0.1-0.7-0.1-1.1-0.2c-1.5,4.8-2.9,9.6-4.5,14.8
		C-38.5,405.4-37.1,405.4-35.2,405.4z"/>
	<path d="M-83.4,408.7c4,1.7,6,2.9,8.1,3.3c1.9,0.3,4.7,0.5,5.7-0.6c1.1-1.2,1.4-4.3,0.6-5.8c-1.4-2.9-3.9-5.2-6-7.7
		c-5.7-6.8-6.4-14.6-1.9-20.5c4-5.1,13.1-6.6,20.1-3.5c5.2,2.3,2.9,6.1,2,9.3c-1.2,4-3.7,1.6-5.9,0.7c-1.4-0.6-4.3-0.6-4.7,0.1
		c-0.8,1.4-1.1,3.9-0.3,5.3c1.6,3,4.1,5.6,6.1,8.3c5,6.8,5.1,15.4,0.3,20.6c-4.6,5-17,6.8-22.3,2.2
		C-83.6,418.6-82.7,413.8-83.4,408.7z"/>
	<path d="M68.2,439.5c-6.8-1-6.9-5.7-7.5-9.6c-1.2-7.3,1.6-13.4,7.9-17.3c7.3-4.6,14.8-4.2,22.3,0.2c-0.6,3.8-2.1,4.5-5.6,3
		c-6.4-2.7-13-1-16.9,3.8c-3.3,4-3.8,8.4-1.6,13.3C67.7,434.7,67.7,437,68.2,439.5z"/>
	<path d="M69.2,444.5c0.7-3.8,2.3-4.3,5.5-3c5.5,2.2,10.8,1.2,15.3-2.8c4.4-3.9,5.2-9.3,2.6-14.9c-0.8-1.7-0.9-3.8-1.4-6.1
		c5.3,0.9,8.7,6.3,8.2,12.4c-0.5,7.1-3.9,12.6-10.4,15.5C82.3,448.6,75.6,448.3,69.2,444.5z"/>
	<path d="M87.7,428.7c-0.1,4.2-3.7,7.5-7.9,7.3c-4.2-0.2-7.6-3.9-7.1-8.1c0.5-4.4,3.1-6.9,7.6-7C84.5,420.9,87.8,424.5,87.7,428.7z"
		/>
	<path class="st0" d="M-35.2,405.4c-1.9,0-3.3,0-5.6,0c1.6-5.3,3-10,4.5-14.8c0.4,0.1,0.7,0.1,1.1,0.2
		C-35.2,395.5-35.2,400.2-35.2,405.4z"/>
</g>
</svg>
