<?xml version="1.0" encoding="utf-8"?>
<!-- Generator: Adobe Illustrator 19.0.0, SVG Export Plug-In . SVG Version: 6.00 Build 0)  -->
<svg version="1.1" id="Ebene_1" xmlns="http://www.w3.org/2000/svg" xmlns:xlink="http://www.w3.org/1999/xlink" x="0px" y="0px"
	 viewBox="-149 359.9 297 123" style="enable-background:new -149 359.9 297 123;" xml:space="preserve">
<style type="text/css">
	.st0{fill:#141414;}
</style>
<g>
	<path class="st0" d="M-113.9,373.5c0-1.9,0.3-3.6,1-5.2s1.6-3.1,2.9-4.2c1.3-1.3,2.7-2.2,4.3-2.9c1.6-0.7,3.4-1,5.3-1
		s3.7,0.3,5.3,1c1.6,0.7,3.1,1.6,4.3,2.9c1.3,1.3,2.2,2.7,2.9,4.2c0.7,1.6,1.1,3.4,1.1,5.2c0,1.9-0.4,3.6-1.1,5.2s-1.7,3.1-2.9,4.2
		c-1.2,1.3-2.7,2.2-4.3,2.9c-1.6,0.7-3.4,1-5.3,1s-3.7-0.3-5.3-1c-1.6-0.7-3.1-1.6-4.3-2.9c-1.3-1.3-2.2-2.7-2.9-4.2
		C-113.6,377.1-113.9,375.3-113.9,373.5"/>
	<path class="st0" d="M-112.1,397.2h12.3c3.2,0,6,1.1,8.2,3.2c2.3,2.1,3.4,4.7,3.4,7.7v74.4H-112L-112.1,397.2L-112.1,397.2z"/>
	<path class="st0" d="M-46.2,462.6h26.9c6,0,10.6-1.2,13.8-3.5c3-2.1,4.5-5.8,4.5-10.9s-1.5-8.9-4.5-11.2c-2.7-2.1-7.5-3.2-14.1-3.2
		h-26.6C-46.2,433.7-46.2,462.6-46.2,462.6z M-46.2,414.9h26c5.6,0,9.6-0.9,12.2-2.9s3.8-4.9,3.8-9s-1.3-7-3.8-9
		c-2.1-1.7-6.3-2.6-12.5-2.6h-25.6L-46.2,414.9L-46.2,414.9L-46.2,414.9L-46.2,414.9z M-68,482.4v-98.7c0-3.2,1.1-5.9,3.4-8.1
		c2.3-2.3,4.9-3.4,8.1-3.4h40.4c11.4,0,20,2.3,26,7c6,5.1,9,12.1,9,20.8c0,5.6-1.2,10.3-3.5,14.1c-2.3,3.6-5.6,6.5-9.9,8.7
		c5.6,2.3,9.8,5.6,12.8,9.9c2.7,4.1,4.2,9.4,4.2,16.1c0,10.6-3.4,19-10.3,25c-7,5.8-17,8.7-29.8,8.7H-68V482.4L-68,482.4z"/>
	<path class="st0" d="M57,462.6h26.9c6,0,10.6-1.2,13.8-3.5c3-2.1,4.5-5.8,4.5-10.9s-1.5-8.9-4.5-11.2c-2.8-2.1-7.5-3.2-14.1-3.2
		H56.9L57,462.6L57,462.6L57,462.6z M57,414.9h26c5.6,0,9.6-0.9,12.2-2.9s3.8-4.9,3.8-9s-1.2-7-3.8-9c-2.1-1.7-6.3-2.6-12.5-2.6
		H57.1L57,414.9L57,414.9L57,414.9L57,414.9z M35.2,482.4v-98.7c0-3.2,1.1-5.9,3.4-8.1c2.3-2.2,4.9-3.4,8.1-3.4h40.4
		c11.4,0,20,2.3,26,7c6,5.1,9,12.1,9,20.8c0,5.6-1.2,10.3-3.5,14.1c-2.3,3.6-5.6,6.5-9.9,8.7c5.6,2.3,9.8,5.6,12.8,9.9
		c2.7,4.1,4.1,9.4,4.1,16.1c0,10.6-3.4,19-10.3,25c-7.1,5.8-17,8.7-29.8,8.7H35.2V482.4L35.2,482.4z"/>
</g>
</svg>
