<?xml version="1.0" encoding="utf-8"?>
<!-- Generator: Adobe Illustrator 21.0.0, SVG Export Plug-In . SVG Version: 6.00 Build 0)  -->
<svg version="1.1" id="Ebene_1" xmlns="http://www.w3.org/2000/svg" xmlns:xlink="http://www.w3.org/1999/xlink" x="0px" y="0px"
	 viewBox="0 0 66.5 68.5" style="enable-background:new 0 0 66.5 68.5;" xml:space="preserve">
<style type="text/css">
	.st0{clip-path:url(#SVGID_2_);fill:#1D1D1B;}
</style>
<g>
	<defs>
		<rect id="SVGID_1_" width="66.5" height="68.5"/>
	</defs>
	<clipPath id="SVGID_2_">
		<use xlink:href="#SVGID_1_"  style="overflow:visible;"/>
	</clipPath>
	<path class="st0" d="M66.5,4.4h-1.2v1.2h1.2V4.4z M66.5,1.6h-1.2v1.2h1.2V1.6z M62.6,2.9c0,0.5,0,1.2-0.4,1.6
		c-0.2,0.2-0.6,0.4-0.9,0.4s-0.7-0.1-0.9-0.4c-0.4-0.4-0.4-1.1-0.4-1.6s0-1.2,0.4-1.6C60.7,1,61,0.9,61.3,0.9S62,1,62.2,1.3
		C62.6,1.7,62.6,2.4,62.6,2.9 M63.6,2.9c0-0.9-0.1-1.6-0.7-2.2c-0.4-0.4-1-0.6-1.6-0.6c-0.6,0-1.2,0.2-1.6,0.6
		c-0.6,0.6-0.7,1.3-0.7,2.2s0.1,1.6,0.7,2.2c0.4,0.4,1,0.6,1.6,0.6c0.6,0,1.2-0.2,1.6-0.6C63.5,4.5,63.6,3.8,63.6,2.9 M57.5,0.1h-1
		v5.5h1V0.1z M53.9,2.9c0,0.5,0,1.2-0.4,1.6c-0.2,0.2-0.5,0.3-0.8,0.3h-1.1V1h1.1c0.3,0,0.6,0.1,0.8,0.3C53.9,1.7,53.9,2.4,53.9,2.9
		 M54.9,2.9c0-0.8-0.1-1.6-0.6-2.2c-0.4-0.4-0.9-0.6-1.5-0.6h-2.1v5.5h2.1c0.6,0,1.2-0.2,1.5-0.6C54.8,4.4,54.9,3.6,54.9,2.9
		 M47.6,3.7H46l0.8-2.3L47.6,3.7z M49.3,5.6l-1.9-5.5h-1.1l-1.9,5.5h1l0.4-1.1h2.2l0.4,1.1H49.3z M42.5,1.8c0,0.5-0.3,0.8-0.9,0.8
		h-1.3V1h1.3C42.2,1,42.5,1.4,42.5,1.8 M43.5,5.6l-1-2.3c0.6-0.2,1-0.8,1-1.5c0-0.9-0.6-1.7-1.9-1.7h-2.3v5.5h1V3.5h1.2l0.9,2.1
		H43.5z M38,5.6V4.7h-2.6V0.1h-1v5.5H38z M31.5,3.7h-1.6l0.8-2.3L31.5,3.7z M33.2,5.6l-1.9-5.5h-1.1l-1.9,5.5h1l0.4-1.1h2.2l0.4,1.1
		H33.2z M27.9,0.1h-1l-1.3,4.2l-1.3-4.2h-1.1L25,5.6h1.1L27.9,0.1z M21.9,0.1h-1v5.5h1V0.1z M19.6,1V0.1h-4.3V1H17v4.6h1V1H19.6z
		 M14.6,4c0-0.9-0.7-1.5-1.5-1.6c-0.4,0-0.8-0.1-1.2-0.1c-0.3-0.1-0.6-0.2-0.6-0.6c0-0.2,0.1-0.3,0.2-0.5c0.2-0.2,0.6-0.3,0.9-0.3
		c0.3,0,0.7,0.1,0.8,0.3c0.1,0.1,0.2,0.3,0.2,0.5h1c0-0.5-0.2-0.9-0.6-1.2C13.6,0.2,13,0,12.4,0c-0.6,0-1.3,0.2-1.6,0.6
		c-0.3,0.3-0.5,0.7-0.5,1.1c0,0.9,0.6,1.4,1.4,1.5c0.4,0.1,0.8,0.1,1.2,0.1c0.3,0.1,0.7,0.2,0.7,0.7c0,0.3-0.1,0.4-0.2,0.5
		c-0.2,0.2-0.6,0.3-1,0.3c-0.3,0-0.7-0.1-0.9-0.3c-0.2-0.2-0.3-0.4-0.3-0.7h-1c0,0.5,0.2,1,0.6,1.3c0.5,0.4,1.1,0.6,1.7,0.6
		c0.7,0,1.3-0.2,1.7-0.6C14.4,4.9,14.6,4.5,14.6,4z M9.1,5.6V4.7H6.2V3.2h2.6V2.3H6.2V1h2.9V0.1H5.2v5.5H9.1z M3.8,1V0.1H0v5.5h1
		V3.4h2.5V2.5H1V1H3.8z"/>
	<path class="st0" d="M57.3,42c0,13.3-10.8,24.1-24.1,24.1S9,55.3,9,42s10.8-24.1,24.1-24.1S57.3,28.7,57.3,42 M59.8,41.9
		c0-14.6-11.9-26.5-26.5-26.5S6.7,27.3,6.7,41.9s11.9,26.5,26.5,26.5S59.8,56.6,59.8,41.9"/>
	<path class="st0" d="M25.7,42.9c0.2-0.6,0.4-1.3,0.6-1.9c0,0,0,0,0,0c0.2,0.6,0.3,1.2,0.5,1.9H25.7z M25.3,43.1h1.8
		c-0.3-0.9-0.5-1.8-0.7-2.7c0-0.1-0.1-0.1-0.1-0.1c-0.1,0-0.1,0-0.2,0.1c-0.2,0.6-0.3,1.2-0.5,1.7C25.5,42.5,25.4,42.8,25.3,43.1
		 M41.5,43.1h1.8c0,0,0-0.1,0-0.1c-0.2-0.8-0.5-1.7-0.7-2.5c0-0.1,0-0.2-0.2-0.2c-0.1,0-0.1,0.1-0.2,0.2c-0.2,0.7-0.4,1.3-0.6,2
		C41.6,42.7,41.5,42.9,41.5,43.1 M52.4,44v1.8h-5.5v-7.9H49V44H52.4z M46.2,45.8H44c-0.1-0.2-0.1-0.5-0.2-0.7c0-0.1-0.1-0.2-0.1-0.4
		c0-0.1-0.1-0.1-0.2-0.1c-0.8,0-1.6,0-2.4,0c-0.1,0-0.1,0-0.2,0.1c-0.1,0.3-0.2,0.7-0.3,1h-2.1c0-0.1,0.1-0.2,0.1-0.3
		c0.9-2.5,1.7-5,2.6-7.5c0-0.1,0.1-0.1,0.2-0.1c0.6,0,1.2,0,1.9,0c0.1,0,0.1,0,0.2,0.1C44.4,40.6,45.3,43.2,46.2,45.8
		C46.2,45.7,46.2,45.8,46.2,45.8 M28,45.8c0,0-0.1-0.1-0.1-0.1c-0.1-0.3-0.2-0.6-0.3-0.9c0-0.1-0.1-0.2-0.2-0.2c-0.8,0-1.6,0-2.4,0
		c-0.1,0-0.2,0-0.2,0.1c-0.1,0.3-0.2,0.6-0.3,0.9c0,0-0.1,0.1-0.1,0.1c-0.7,0-1.3,0-2,0c0,0,0,0,0,0c0.9-2.6,1.8-5.2,2.8-7.9
		c0.7,0,1.4,0,2,0c0.1,0,0.1,0.1,0.1,0.2c0.3,0.9,0.6,1.8,0.9,2.6c0.6,1.6,1.1,3.3,1.7,4.9c0,0,0,0.1,0.1,0.2
		C29.4,45.8,28.7,45.8,28,45.8 M45.9,28.3c-0.1,0.1-0.1,0.1-0.1,0.2c-1.3,1.4-2.7,2.9-4,4.3c-1.5,1.6-2.9,3.1-4.4,4.7
		c-0.1,0.1-0.2,0.2-0.3,0.2c-0.5,0-0.9,0-1.4,0h-0.2v3.9c0,0,0,0,0,0c0-0.1-0.1-0.2-0.1-0.3c-0.6-1.2-1.2-2.3-1.8-3.5
		c-0.1-0.1-0.2-0.2-0.3-0.2c-0.7,0-1.5,0-2.2,0h-0.2V45c0,0,0,0,0,0c-0.1-0.1-0.1-0.1-0.2-0.3c-0.1,0.1-0.2,0.3-0.3,0.4
		c-0.1-0.4-0.3-0.8-0.4-1.1c-0.7-2.1-1.4-4.1-2.1-6.2c-0.1-0.1-0.1-0.2-0.3-0.2c-0.7,0-1.4,0-2.1,0c-0.1,0-0.2,0-0.2,0.2
		c-0.7,2-1.4,4-2.1,6.1c-0.2,0.7-0.5,1.4-0.7,2c0,0,0,0.1,0,0.2c0.1,0,0.1,0,0.1,0c0.8,0,1.6,0,2.4,0c0.1,0,0.2,0,0.2-0.2
		c0.1-0.3,0.2-0.6,0.3-0.9c0-0.1,0.1-0.1,0.1-0.1c0.7,0,1.4,0,2.1,0c0.1,0,0.1,0,0.2,0.1c0.1,0.3,0.2,0.6,0.2,0.9
		c0,0.1,0.1,0.2,0.2,0.2c0.4,0,0.8,0,1.2,0c0.1,0,0.1,0,0.2,0c-0.1,0.1-0.1,0.1-0.1,0.2c-0.3,0.3-0.5,0.6-0.8,0.9
		c-0.1,0.1-0.1,0.2-0.1,0.3c0,2.5,0,5,0,7.6v0.2h-8.3v-9.1H22c-0.2-0.3-0.4-0.6-0.5-0.8c-0.5-0.7-1-1.5-1.5-2.2
		c0-0.1-0.1-0.2-0.1-0.3c0-1,0-2.1,0-3.1c0-0.1,0-0.2,0.1-0.3c0.5-0.6,1-1.1,1.5-1.7c0,0,0,0,0.1-0.1h-1.6v-9.4h8.3v9.2
		c0,0,0,0,0.1,0c0,0,0-0.1,0.1-0.1c1.8-2.3,3.6-4.5,5.4-6.8c0.6-0.7,1.2-1.5,1.8-2.2c0.1-0.1,0.1-0.1,0.2-0.1c3.3,0,6.6,0,9.9,0
		H45.9z M18.5,37.9c0.8,0,1.6,0,2.4,0c0,0,0,0,0.1,0c0,0.1-0.1,0.1-0.1,0.2c-0.8,0.9-1.6,1.8-2.4,2.8c-0.1,0.1-0.1,0.1,0,0.2
		c1,1.5,2,3,3,4.5c0,0.1,0.1,0.1,0.1,0.2c-0.1,0-0.1,0-0.1,0c-0.8,0-1.6,0-2.4,0c-0.1,0-0.2,0-0.2-0.1c-0.6-1-1.2-2-1.8-3
		c0-0.1-0.1-0.1-0.1-0.2c-0.3,0.3-0.5,0.6-0.8,0.9c0,0,0,0.1,0,0.1c0,0.7,0,1.4,0,2v0.2h-2.1v-7.9h2.1v2.8c0.1,0,0.2,0,0.3-0.1
		c0.6-0.9,1.3-1.7,2-2.6C18.4,37.9,18.4,37.9,18.5,37.9 M31,37.9h0.8c0.4,0,0.8,0,1.2,0c0.1,0,0.2,0,0.3,0.2c0.7,1.3,1.4,2.7,2.1,4
		c0.1,0.2,0.2,0.2,0.3,0.2v-4.3h2v7.9c-0.1,0-0.1,0-0.2,0c-0.6,0-1.2,0-1.8,0c-0.1,0-0.2,0-0.2-0.1c-0.7-1.4-1.5-2.8-2.2-4.2
		c-0.1-0.1-0.2-0.2-0.3-0.2v4.4h-2V37.9z M31.4,46.1h1.9v-4c0,0,0,0,0,0c0,0.1,0.1,0.1,0.1,0.2c0.6,1.2,1.3,2.4,1.9,3.6
		c0.1,0.1,0.2,0.2,0.3,0.2c0.7,0,1.4,0,2.1,0h0.2v-4.6c0,0,0,0,0.1,0c0,0,0,0.1,0.1,0.1c0.4,0.5,0.7,1,1.1,1.5
		c0.1,0.1,0.1,0.2,0,0.2c-0.3,0.9-0.6,1.7-0.9,2.6c0,0,0,0,0,0.1h0.2c0.8,0,1.5,0,2.3,0c0.2,0,0.3,0,0.3-0.2c0,0,0,0,0-0.1
		c2.2,3.1,4.3,6.3,6.5,9.4h-0.2c-3.3,0-6.6,0-9.9,0c-0.1,0-0.2,0-0.3-0.2c-1.9-2.9-3.7-5.9-5.6-8.8C31.4,46.2,31.4,46.1,31.4,46.1
		 M55,42.1c0.1-12.2-9.7-21.9-21.7-22c-12.2-0.1-22,9.8-22,21.9c0,12,9.7,21.8,21.7,21.9C45.2,63.9,54.9,54.1,55,42.1"/>
</g>
</svg>
