<?xml version="1.0" encoding="utf-8"?>
<!-- Generator: Adobe Illustrator 21.0.0, SVG Export Plug-In . SVG Version: 6.00 Build 0)  -->
<svg version="1.1" id="Ebene_1" xmlns="http://www.w3.org/2000/svg" xmlns:xlink="http://www.w3.org/1999/xlink" x="0px" y="0px"
	 viewBox="0 0 146.3 37.3" style="enable-background:new 0 0 146.3 37.3;" xml:space="preserve">
<style type="text/css">
	.st0{clip-path:url(#SVGID_2_);fill:#1D1D1B;}
</style>
<g>
	<defs>
		<rect id="SVGID_1_" width="146.3" height="37.3"/>
	</defs>
	<clipPath id="SVGID_2_">
		<use xlink:href="#SVGID_1_"  style="overflow:visible;"/>
	</clipPath>
	<path class="st0" d="M142.5,35.1c0,1.3,0.9,2.1,2.1,2.1c0.6,0,1-0.1,1.2-0.2V35h-1.4v0.5h0.8v1.2c-0.1,0-0.2,0.1-0.6,0.1
		c-0.8,0-1.5-0.6-1.5-1.6c0-0.9,0.6-1.6,1.5-1.6c0.5,0,0.8,0.1,1.1,0.3l0-0.6c-0.3-0.1-0.6-0.2-1.2-0.2
		C143.4,33.1,142.5,33.9,142.5,35.1 M134.6,35.1c0,1.3,0.9,2.1,2.1,2.1c0.6,0,1-0.1,1.2-0.2V35h-1.4v0.5h0.8v1.2
		c-0.1,0-0.2,0.1-0.6,0.1c-0.8,0-1.5-0.6-1.5-1.6c0-0.9,0.6-1.6,1.5-1.6c0.5,0,0.8,0.1,1.1,0.3l0-0.6c-0.3-0.1-0.6-0.2-1.2-0.2
		C135.5,33.1,134.6,33.9,134.6,35.1 M127.5,33.1h-0.6v2.4c0,1.1,0.6,1.7,1.6,1.7c1,0,1.6-0.6,1.6-1.7v-2.4h-0.6v2.3
		c0,0.8-0.2,1.3-1,1.3c-0.7,0-1-0.5-1-1.3V33.1z M120.2,33.7h0.6c0.5,0,0.8,0.2,0.8,0.6c0,0.4-0.3,0.6-0.9,0.6h-0.5V33.7z
		 M120.6,33.1h-1v4h0.6v-1.8h0.3c0.3,0,0.5,0,0.7,0.4l0.6,1.4h0.7l-0.8-1.6c-0.1-0.2-0.2-0.3-0.4-0.4v0c0.5-0.1,0.8-0.4,0.8-0.9
		C122.2,33.3,121.4,33.1,120.6,33.1 M110.6,29.8h0.7c1.4,0,2.2,0.5,2.2,1.6c0,1-0.7,1.6-2.2,1.6h-0.8V29.8z M110.6,33.5h1.3
		c1.6,0,2.3,0.5,2.3,1.6c0,0.5-0.2,0.9-0.5,1.2c-0.3,0.3-0.9,0.4-1.5,0.4h-1.6V33.5z M109.3,30.1v7.1h0.6h0.7h1.6
		c0.8,0,1.5-0.2,1.9-0.6c0.5-0.4,0.7-0.9,0.7-1.5c0-1.1-0.6-1.7-1.8-2c0.8-0.4,1.1-1,1.1-1.8c0-0.6-0.2-1.1-0.7-1.5
		c-0.4-0.4-1.1-0.5-2-0.5h-1L109.3,30.1z M86.3,33.1h-2.3v4h2.3v-0.5h-1.7v-1.3h1.5v-0.5h-1.5v-1.2h1.7V33.1z M77.4,33.1h-1v4H77
		v-3.5h0l1.3,3.5h0.6l1.3-3.5h0v3.5h0.6v-4h-1l-1.2,3.4L77.4,33.1z M70.7,33.1h-0.6v2.4c0,1.1,0.6,1.7,1.6,1.7c1,0,1.6-0.6,1.6-1.7
		v-2.4h-0.6v2.3c0,0.8-0.2,1.3-1,1.3c-0.7,0-1-0.5-1-1.3V33.1z M64.6,35.7l0.8-2l0.8,2H64.6z M65.1,33.1l-1.7,4H64l0.4-1h2l0.4,1
		h0.6l-1.7-4H65.1z M65.6,32.8h0.5v-0.6h-0.5V32.8z M64.7,32.8h0.5v-0.6h-0.5V32.8z M55.9,29.8h1.3c0.7,0,1.2,0.1,1.5,0.4
		c0.4,0.3,0.5,0.6,0.5,1.1c0,0.5-0.2,0.9-0.5,1.1c-0.4,0.3-0.9,0.4-1.5,0.4h-1.3V29.8z M55.8,29.3l-1.2,0.8v7.1h0.7h0.6h0v-3.8H57
		c0.5,0,0.9,0.1,1.1,0.3c0.3,0.2,0.6,0.6,1.1,1.4l1.4,2.2h0.7l-1.8-2.7c-0.4-0.7-0.8-1.1-1.1-1.2c1-0.4,1.5-1,1.5-1.9
		c0-0.6-0.2-1.1-0.7-1.5c-0.4-0.4-1.1-0.6-1.9-0.6H55.8z M51.1,36.1c0,0.5-0.5,0.7-0.8,0.7c-0.3,0-0.6-0.1-0.8-0.2l-0.1,0.5
		c0.3,0.1,0.5,0.2,0.8,0.2c0.8,0,1.5-0.3,1.5-1.2c0-1.3-1.7-1.2-1.7-1.9c0-0.4,0.4-0.5,0.7-0.5c0.3,0,0.5,0.1,0.8,0.2l0.1-0.5
		c-0.3-0.1-0.6-0.1-0.9-0.1c-0.7,0-1.3,0.4-1.3,1.1C49.4,35.4,51.1,35.2,51.1,36.1 M43.2,35.1c0,1.3,0.9,2.1,2.1,2.1
		c0.6,0,1-0.1,1.2-0.2V35h-1.4v0.5H46v1.2c-0.1,0-0.2,0.1-0.6,0.1c-0.8,0-1.5-0.6-1.5-1.6c0-0.9,0.6-1.6,1.5-1.6
		c0.5,0,0.8,0.1,1.1,0.3l0-0.6c-0.3-0.1-0.6-0.2-1.2-0.2C44.1,33.1,43.2,33.9,43.2,35.1 M38,33.1h-0.8v4h0.6v-3.3h0l1.8,3.3h0.7v-4
		h-0.6v3.2h0L38,33.1z M31.6,33.1H31v2.4c0,1.1,0.6,1.7,1.6,1.7s1.6-0.6,1.6-1.7v-2.4h-0.6v2.3c0,0.8-0.2,1.3-1,1.3s-1-0.5-1-1.3
		V33.1z M24.7,35.1c0,1.3,0.8,2.1,2.1,2.1c0.6,0,1-0.1,1.2-0.2V35h-1.4v0.5h0.8v1.2c-0.1,0-0.2,0.1-0.6,0.1c-0.8,0-1.5-0.6-1.5-1.6
		c0-0.9,0.6-1.6,1.5-1.6c0.5,0,0.8,0.1,1.1,0.3l0-0.6c-0.3-0.1-0.6-0.2-1.2-0.2C25.6,33.1,24.7,33.9,24.7,35.1 M22.6,33.1h-2.3v4
		h2.3v-0.5h-1.7v-1.3h1.5v-0.5h-1.5v-1.2h1.7V33.1z M13.4,33.1h-0.6l1.2,4h0.8l0.9-3.5h0l0.9,3.5h0.7l1.2-4h-0.6l-1,3.5h0l-0.9-3.5
		h-0.8l-0.9,3.5h0L13.4,33.1z M10.4,33.1H8.2v4h2.3v-0.5H8.7v-1.3h1.5v-0.5H8.7v-1.2h1.7V33.1z M1.3,29.8h0.8c1.4,0,2.2,0.5,2.2,1.6
		c0,1-0.7,1.6-2.2,1.6H1.3V29.8z M1.3,33.5h1.4C4.2,33.5,5,34,5,35.1c0,0.5-0.2,0.9-0.5,1.2c-0.3,0.3-0.9,0.4-1.5,0.4H1.3V33.5z
		 M1.3,29.3L0,30.1v7.1h0.7h0.6H3c0.8,0,1.5-0.2,1.9-0.6c0.5-0.4,0.7-0.9,0.7-1.5c0-1.1-0.6-1.7-1.8-2c0.8-0.4,1.1-1,1.1-1.8
		c0-0.6-0.2-1.1-0.7-1.5c-0.4-0.4-1.1-0.5-2-0.5H1.3z M54.6,27.6v-0.3H37v-3.3h-0.2l0.1-0.1L1.3,0.8V0.6L0.4,0.1H0v27.5h0l1.3-0.8
		V1.2L36.7,24v3.6H37v0H54.6z M54.9,27.6h-0.3v0L54.9,27.6L54.9,27.6z M109.3,27.6v-0.2H91.8v-3.4h-0.2l0.1-0.1L55.9,0.9V0.7L54.8,0
		h-0.2v0.3l0,0.1l0,0v26.9h0.6v0.1l0.6-0.4V1.2L91.5,24v3.7h0.3v0L109.3,27.6h0.1H109.3z M146.3,23.9h-0.2l0.1-0.1l-35.6-23V0.6
		L109.7,0h-0.4v27.4h0.5l0.8-0.5V1.1L146,24v3.6h0.3V23.9z"/>
</g>
</svg>
