<?xml version="1.0" encoding="utf-8"?>
<!-- Generator: Adobe Illustrator 21.0.2, SVG Export Plug-In . SVG Version: 6.00 Build 0)  -->
<svg version="1.1" id="Ebene_1" xmlns="http://www.w3.org/2000/svg" xmlns:xlink="http://www.w3.org/1999/xlink" x="0px" y="0px"
	 viewBox="0 0 224.5 225" style="enable-background:new 0 0 224.5 225;" xml:space="preserve">
<style type="text/css">
	.st0{fill:#FFFFFF;}
</style>
<g>
	<path class="st0" d="M0.5,225c0-92.6,0-131.3,0-224c90.9,0,133-1,224-1c0,92.6-1,132.3-1,225C132.6,225,91.5,225,0.5,225z M0,112.4
		c0.2,62.2,50.1,112.1,112.3,112.1c61.4,0,112-50.7,111.8-111.9c-0.3-62-50.4-112.2-111.9-112.1C50,0.6-0.2,50.7,0,112.4z"/>
	<path d="M0,112.4C-0.2,50.7,50,0.6,112.1,0.5C173.6,0.4,223.8,50.6,224,112.6c0.3,61.2-50.3,111.9-111.8,111.9
		C50.1,224.5,0.2,174.6,0,112.4z M112.5,48c-10.9,0.4-21.4,0.4-31.8,1.1c-10.8,0.8-19.8,5.6-26.1,14.6c-4.7,6.7-6.4,14.4-6.5,22.5
		c-0.2,14-0.4,28-0.3,42c0,6.4,0.2,12.9,1.4,19.2c2.6,14.5,11.1,24.1,25.6,27.4c6.6,1.5,13.5,1.8,20.3,1.8
		c16.1,0.1,32.1,0.2,48.2-0.6c17.7-0.9,31-14.3,32.3-31.9c1.5-21,1.5-42,0-62.9c-1.3-17.6-14.5-30.7-32.1-31.9
		C133,48.3,122.5,48.3,112.5,48z"/>
	<path class="st0" d="M112.5,48c10,0.3,20.4,0.4,30.8,1.1c17.6,1.3,30.8,14.3,32.1,31.9c1.5,21,1.5,42,0,62.9
		c-1.3,17.7-14.6,31-32.3,31.9c-16,0.8-32.1,0.7-48.2,0.6c-6.8,0-13.7-0.3-20.3-1.8c-14.5-3.3-23-12.9-25.6-27.4
		c-1.1-6.3-1.3-12.8-1.4-19.2c-0.1-14,0.1-28,0.3-42c0.1-8,1.8-15.8,6.5-22.5c6.3-9,15.3-13.8,26.1-14.6
		C91.1,48.3,101.6,48.3,112.5,48z M59,112.2c0.2,0,0.4,0,0.6,0c0,8.7,0,17.3,0,26c0,1.4,0.3,2.8,0.4,4.2c1.1,12,8,19.8,19.8,21.6
		c5.8,0.9,11.8,1,17.7,1c14.7,0,29.5,0.1,44.2-0.6c13.1-0.6,21.2-9.2,22.3-22.2c0.4-5.4,0.7-10.8,0.6-16.2
		c-0.1-14.7,0-29.3-0.8-43.9c-0.6-11.7-8-19.3-19.7-21.1c-5.8-0.9-11.8-1-17.7-1c-14.7,0-29.5-0.1-44.2,0.6
		C69.2,61.2,61,69.7,60,82.8C59.4,92.6,59.3,102.4,59,112.2z"/>
	<path d="M59,112.2c0.3-9.8,0.4-19.7,1.1-29.4c0.9-13.1,9.2-21.6,22.3-22.2c14.7-0.7,29.5-0.6,44.2-0.6c5.9,0,11.9,0.1,17.7,1
		c11.7,1.8,19.1,9.4,19.7,21.1c0.8,14.6,0.7,29.3,0.8,43.9c0,5.4-0.2,10.8-0.6,16.2c-1.1,13-9.2,21.6-22.3,22.2
		c-14.7,0.7-29.5,0.6-44.2,0.6c-5.9,0-11.9-0.1-17.7-1c-11.9-1.8-18.7-9.6-19.8-21.6c-0.1-1.4-0.4-2.8-0.4-4.2c0-8.7,0-17.3,0-26
		C59.4,112.2,59.2,112.2,59,112.2z M145,112.5c0-18.2-14.9-33-33.1-33c-18.1,0-32.9,14.8-32.9,32.9c0,18.3,14.7,33.1,33,33.1
		C130.2,145.5,145,130.7,145,112.5z M154,78.2c0-4.2-3.3-7.7-7.5-7.7c-4.3-0.1-7.9,3.3-7.9,7.6c-0.1,4.2,3.6,7.9,7.8,7.8
		C150.5,85.8,154,82.4,154,78.2z"/>
	<path class="st0" d="M145,112.5c0,18.2-14.8,33-33,33c-18.2,0-33-14.8-33-33.1c0-18.1,14.8-32.9,32.9-32.9
		C130.1,79.5,145,94.2,145,112.5z M133.5,112.6c0-11.8-9.6-21.5-21.4-21.5c-11.8,0-21.5,9.7-21.5,21.5c0,11.6,9.7,21.4,21.3,21.5
		C123.6,134.1,133.4,124.3,133.5,112.6z"/>
	<path class="st0" d="M154,78.2c0,4.1-3.5,7.6-7.6,7.7c-4.2,0.1-7.8-3.6-7.8-7.8c0.1-4.2,3.6-7.7,7.9-7.6
		C150.7,70.6,154,74,154,78.2z"/>
	<path d="M133.5,112.6c0,11.7-9.9,21.5-21.6,21.4c-11.6-0.1-21.3-9.8-21.3-21.5c0-11.7,9.7-21.5,21.5-21.5
		C123.8,91.1,133.5,100.8,133.5,112.6z"/>
</g>
</svg>
