<?xml version="1.0" encoding="utf-8"?>
<!-- Generator: Adobe Illustrator 17.1.0, SVG Export Plug-In . SVG Version: 6.00 Build 0)  -->
<!DOCTYPE svg PUBLIC "-//W3C//DTD SVG 1.1//EN" "http://www.w3.org/Graphics/SVG/1.1/DTD/svg11.dtd">
<svg version="1.1" id="Ebene_1" xmlns="http://www.w3.org/2000/svg" xmlns:xlink="http://www.w3.org/1999/xlink" x="0px" y="0px"
	 viewBox="0 0 32.5 80.1" enable-background="new 0 0 32.5 80.1" xml:space="preserve">
<g>
	<path fill="#E23113" d="M23.1,42.7l2.2,3.5c0,0-2.7,1.6-1.9,5.7c0.8,4.1,3.5,3.9,3.5,3.9L21,68.7l-5-17.9L23.1,42.7z"/>
	<path fill="#E23113" d="M9.1,42.7l-2.2,3.5c0,0,2.7,1.6,1.9,5.7C8,56,5.3,55.8,5.3,55.8l5.8,12.9l5-17.9L9.1,42.7z"/>
	<path fill="#1D1D1B" d="M26.6,52.9c1.3,0,2.3-1,2.3-2.3c0-1.3-1-2.3-2.3-2.3s-2.3,1-2.3,2.3C24.3,51.9,25.3,52.9,26.6,52.9"/>
	<path fill="#1D1D1B" d="M5.5,52.9c-1.3,0-2.3-1-2.3-2.3c0-1.3,1-2.3,2.3-2.3s2.3,1,2.3,2.3C7.8,51.9,6.8,52.9,5.5,52.9"/>
</g>
<polygon fill="#E23113" points="16.1,71.7 20.9,71.1 20.9,68.8 16.3,69.1 15.8,69.1 11.2,68.8 11.2,71.1 16,71.7 "/>
<polygon fill="#1D1D1B" points="12.7,74.8 15.9,79.9 16.1,80.1 16.2,79.9 19.4,74.8 16.1,72 "/>
<polygon fill="#1D1D1B" points="20,42.7 17.9,42.7 16.1,44.4 14.2,42.7 12.1,42.7 16.1,46.5 "/>
<polygon fill="#1D1D1B" points="16.1,55.6 12.9,67.9 19,67.9 "/>
<polygon fill="#1D1D1B" points="20.7,42 21.7,42 32.5,0 "/>
<polygon fill="#1D1D1B" points="10.8,42 11.8,42 0,0 "/>
</svg>
