<?xml version="1.0" encoding="utf-8"?>
<!-- Generator: Adobe Illustrator 15.1.0, SVG Export Plug-In . SVG Version: 6.00 Build 0)  -->
<!DOCTYPE svg PUBLIC "-//W3C//DTD SVG 1.1//EN" "http://www.w3.org/Graphics/SVG/1.1/DTD/svg11.dtd">
<svg version="1.1" id="Ebene_1" xmlns="http://www.w3.org/2000/svg" xmlns:xlink="http://www.w3.org/1999/xlink" x="0px" y="0px"
	 width="595.281px" height="592.098px" viewBox="0 125.029 595.281 592.098" enable-background="new 0 125.029 595.281 592.098"
	 xml:space="preserve">
<g>
	<path fill="#005A7C" d="M371.917,383.939L70.298,681.844c0,0,14.855,10.877,38.2,4.244l102.927-101.07
		c0,0,43.505-45.627,88.072-59.422l-15.652-15.916c0,0,66.583-63.932,92.847-114.335L371.917,383.939z"/>
	<path fill="#005A7C" d="M338.228,349.453L34.486,647.624c0,0-11.672-18.039-4.775-41.383l102.927-101.07
		c0,0,46.158-42.71,61.014-87.011l15.651,15.917c0,0,64.993-65.259,115.925-90.726L338.228,349.453z"/>
	<path fill="#005A7C" d="M400.568,396.407c0,0-3.98-28.915-0.797-39.791c0,0,5.572-24.141-1.061-31.038l-3.449-3.448
		c-6.896-6.897-31.037-1.592-31.037-1.592c-10.875,2.918-39.791-1.326-39.791-1.326c-10.877-4.244-10.346,0.53-10.346,0.53
		c7.428,33.425,33.16,50.402,33.16,50.402l2.652,2.653c0,0,16.447,25.997,49.605,33.955
		C399.771,406.487,404.546,407.283,400.568,396.407 M385.978,365.104c-8.49,8.489-22.283,8.224-30.773-0.266
		c-8.488-8.488-8.223-22.283,0.266-30.771c8.488-8.489,22.283-8.224,30.771,0.266C394.732,343.087,394.732,356.881,385.978,365.104"
		/>
	<path fill="#41B9B8" d="M390.751,405.957c0,0,21.223,15.917,7.959,42.444c0,0-26.527,57.3-89.133,80.645
		C309.843,529.046,362.367,475.99,390.751,405.957"/>
	<path fill="#41B9B8" d="M314.882,328.761c0,0-15.385-21.487-42.178-8.754c0,0-57.83,25.467-82.236,87.541
		C190.468,407.549,244.32,356.085,314.882,328.761"/>
	<path fill="#005A7C" d="M416.484,535.677l0.531-37.139c0,0-10.877-11.142-21.223,6.102c0,0-33.16,40.853-72.154,41.117
		c0,0-35.548-3.183-74.278,35.017c-22.018,21.753-30.507,32.629-51.994,64.728c-0.531,0.53-0.796,1.326-1.327,1.857
		c-22.283,30.507-75.869,41.383-75.869,41.383l16.447,13.794c4.51-0.796,9.02-1.856,13.264-2.918
		c-1.857,8.224,2.387,17.509,2.387,17.509l18.569-1.857c5.836-7.958,5.571-21.222,5.306-26.793
		c23.875-13.794,37.669-31.833,37.669-31.833c75.338-74.012,128.128-85.153,128.128-85.153
		C397.916,564.858,416.484,535.677,416.484,535.677"/>
	<path fill="#005A7C" d="M185.693,300.908l37.139,0.265c0,0,10.876,11.142-6.367,21.223c0,0-41.383,32.629-42.444,71.624
		c0,0,2.387,35.548-36.343,73.747c-22.018,21.753-33.16,29.977-65.523,50.934c-0.531,0.53-1.327,0.796-1.857,1.326
		c-30.772,21.222-42.444,74.543-42.444,74.543l-13.529-16.447c0.796-4.51,1.857-9.02,3.184-13.264
		C9.285,566.715,0,562.205,0,562.205l2.122-18.569c7.958-5.836,21.222-5.306,26.793-4.774c14.06-23.61,32.364-37.139,32.364-37.139
		c75.338-74.013,87.276-126.537,87.276-126.537C156.248,318.946,185.693,300.908,185.693,300.908"/>
</g>
<polygon fill="#41B9B8" points="194.713,686.885 216.731,680.253 219.914,704.393 199.223,709.699 "/>
<polygon fill="#41B9B8" points="13.529,494.559 7.958,514.986 30.507,520.026 37.669,498.009 "/>
<g>
	<path fill="#005A7C" d="M240.075,668.315l12.733,24.141l16.978-8.489c0,0-0.265-19.896-10.611-26.262L240.075,668.315z"/>
	<path fill="#005A7C" d="M50.137,474.929l-23.875-13.265l9.02-16.978c0,0,19.896,0.796,25.997,11.142L50.137,474.929z"/>
	<path fill="#41B9B8" d="M338.494,605.445l-52.26,37.935l18.303,18.569C304.537,661.949,340.349,637.544,338.494,605.445"/>
	<path fill="#41B9B8" d="M114.6,377.572l-38.73,51.729l-18.304-18.569C57.565,410.467,82.501,375.185,114.6,377.572"/>
</g>
<polygon points="408.261,361.656 531.349,337.251 531.878,346.005 408.261,368.288 "/>
<polygon points="359.714,312.05 386.242,189.491 377.222,188.695 352.818,311.784 "/>
<polygon points="538.777,344.678 595.281,358.472 540.103,336.719 "/>
<polygon points="366.082,125.029 378.814,181.799 386.773,180.737 "/>
<g>
	<path fill="#005A7C" d="M368.205,352.902c1.855,1.856,4.773,1.856,6.365,0c1.857-1.857,1.857-4.775,0-6.367
		c-1.855-1.856-4.51-1.856-6.365,0C366.347,348.127,366.347,351.045,368.205,352.902"/>
	<path d="M322.046,373.594l-6.367,6.101l26.262,26.793l17.773-17.508l-4.775-4.775l-11.672,11.407L322.046,373.594z
		 M304.273,405.161L304.273,405.161l12.201,6.632l-5.57,5.571L304.273,405.161z M329.474,419.22l6.365-6.101l-35.016-18.305
		l-6.632,6.632l17.773,35.282l6.367-6.102l-3.713-6.632l8.488-8.224L329.474,419.22z M264.215,430.363l-6.367,6.366l35.017,18.304
		l6.632-6.632l-17.774-35.281l-6.632,6.366l14.06,24.937l0.796,1.061l0,0l-1.061-0.796L264.215,430.363z M250.421,443.891
		l-6.101,6.102l26.262,26.793l6.101-6.102L250.421,443.891z M236.626,457.421L216.2,477.316l4.775,4.775l6.897-6.897l21.752,22.019
		l6.367-6.102l-21.752-22.019l7.162-6.896L236.626,457.421z M224.159,512.598c0,1.061-0.796,2.388-2.123,3.714
		c-1.591,1.592-3.183,2.652-4.775,2.652c-1.591,0.266-2.918-0.53-4.51-2.122l-6.101,5.836v0.266
		c2.653,2.918,6.101,3.979,9.815,3.448c3.714-0.53,7.163-2.387,10.081-5.57c2.918-2.918,4.775-6.102,5.306-9.285
		c0.531-3.183-0.265-5.836-2.653-8.224c-2.387-2.387-4.775-3.448-7.693-3.183c-2.918,0.265-6.102,1.326-10.081,3.448
		c-2.653,1.326-4.51,1.857-5.836,2.122c-1.061,0.266-2.123,0-2.918-0.796c-0.796-0.796-1.062-1.856-1.062-3.183
		c0.266-1.327,0.796-2.388,2.123-3.714c1.326-1.327,2.653-1.857,3.979-1.857s2.653,0.53,3.714,1.592l6.102-5.836v-0.266
		c-2.388-2.388-5.041-3.448-8.489-3.184c-3.449,0.266-6.632,1.857-9.55,4.775s-4.775,6.102-5.306,9.284
		c-0.53,3.184,0.266,6.102,2.388,8.224c2.388,2.388,4.775,3.184,7.693,2.919c2.918-0.266,6.367-1.592,10.876-3.979
		c2.122-1.062,3.714-1.592,5.041-1.592c1.061,0,2.122,0.266,3.183,1.326C223.894,510.476,224.159,511.537,224.159,512.598
		 M190.468,523.74l-10.611,10.346l-5.571-5.836l12.468-12.203l-4.775-4.774l-18.569,18.304l26.263,26.793l18.569-18.304
		l-4.775-4.775l-12.468,12.203l-6.632-6.632l10.611-10.346L190.468,523.74z M165.002,550.003l-10.611,10.61l-6.367-6.366
		l12.733-12.468l-4.775-4.775l-18.834,18.569l26.262,26.793l6.367-6.102l-10.611-10.876l10.611-10.611L165.002,550.003z
		 M128.924,605.975c0,1.062-0.796,2.388-2.122,3.714c-1.592,1.592-3.184,2.653-4.775,2.653c-1.592,0.265-2.918-0.531-4.51-2.122
		l-6.102,5.836v0.265c2.653,2.918,6.102,3.979,9.815,3.449c3.714-0.531,7.162-2.388,10.081-5.571
		c2.918-2.918,4.775-6.102,5.305-9.284c0.531-3.184-0.265-5.836-2.652-8.224c-2.388-2.388-4.775-3.449-7.693-3.184
		s-6.101,1.326-10.081,3.448c-2.653,1.327-4.51,1.857-5.836,2.123c-1.061,0.265-2.122,0-2.918-0.796s-1.061-1.857-1.061-3.184
		c0.265-1.326,0.796-2.388,2.122-3.714s2.653-1.857,3.979-1.857c1.327,0,2.653,0.531,3.714,1.592l6.102-5.836v-0.266
		c-2.388-2.387-5.041-3.448-8.489-3.183c-3.449,0.265-6.632,1.856-9.55,4.774c-2.918,2.918-4.775,6.102-5.305,9.285
		c-0.531,3.184,0.265,6.102,2.387,8.224c2.388,2.388,4.775,3.184,7.693,2.918c2.918-0.266,6.366-1.592,10.876-3.979
		c2.123-1.061,3.979-1.592,5.041-1.592s2.122,0.266,3.183,1.327C128.659,603.853,128.924,604.915,128.924,605.975 M82.766,622.953
		L82.766,622.953l12.468,6.632l-5.571,5.571L82.766,622.953z M107.702,636.748l6.367-6.102l-35.017-18.304l-6.632,6.632
		l17.773,35.281l6.367-6.102l-3.714-6.632l8.489-8.224L107.702,636.748z M50.668,649.746c1.591-1.592,3.448-2.387,5.571-2.122
		c2.122,0.266,3.979,1.326,5.836,3.184l4.775,4.774c1.857,1.857,2.918,3.715,2.918,5.837c0.266,2.122-0.53,3.979-2.122,5.57
		l-2.918,2.918L47.75,652.664L50.668,649.746z M72.686,671.233c3.184-3.183,4.775-6.632,4.775-10.876s-1.327-7.693-4.51-11.142
		l-4.775-4.775c-3.184-3.183-6.897-4.774-10.876-4.774c-4.245,0-7.693,1.592-10.876,4.774l-9.55,9.551l26.262,26.793L72.686,671.233
		z"/>
</g>
</svg>
