<?xml version="1.0" encoding="utf-8"?>
<!-- Generator: Adobe Illustrator 15.1.0, SVG Export Plug-In . SVG Version: 6.00 Build 0)  -->
<!DOCTYPE svg PUBLIC "-//W3C//DTD SVG 1.1//EN" "http://www.w3.org/Graphics/SVG/1.1/DTD/svg11.dtd">
<svg version="1.1" id="Ebene_1" xmlns="http://www.w3.org/2000/svg" xmlns:xlink="http://www.w3.org/1999/xlink" x="0px" y="0px"
	 width="595.334px" height="591.298px" viewBox="0.137 125.236 595.334 591.298"
	 enable-background="new 0.137 125.236 595.334 591.298" xml:space="preserve">
<g>
	<path fill="#EB584E" d="M418.13,386.732c12.98,12.981,34.076,12.981,47.059,0c12.982-12.982,12.982-34.078,0-47.061
		c-12.982-12.981-34.078-12.981-47.059,0C404.876,352.384,404.876,373.479,418.13,386.732"/>
	<path fill="#EB584E" d="M461.945,383.486c-11.09,11.089-28.939,11.089-40.029,0c-11.088-11.089-11.088-28.938,0-40.027
		c11.09-11.089,28.939-11.089,40.029,0C473.033,354.277,473.033,372.397,461.945,383.486 M468.976,390.248
		c14.875-14.875,14.875-38.946,0-54.092c-14.875-14.875-38.945-14.875-54.092,0c-14.875,14.875-14.875,38.946,0,54.092
		C429.759,405.123,453.83,405.123,468.976,390.248"/>
	<path fill="#EB584E" d="M335.369,303.971c12.982,12.982,34.078,12.982,47.061,0c12.982-12.981,12.982-34.078,0-47.06
		c-12.982-12.982-34.078-12.982-47.061,0C322.386,269.893,322.386,290.99,335.369,303.971"/>
	<path fill="#EB584E" d="M379.183,300.726c-11.088,11.089-28.939,11.089-40.027,0c-11.09-11.089-11.09-28.939,0-40.028
		c11.088-11.089,28.939-11.089,40.027,0C390.273,271.787,390.273,289.637,379.183,300.726 M386.216,307.758
		c14.875-14.875,14.875-38.945,0-54.092c-14.877-14.875-38.947-14.875-54.092,0c-14.877,14.876-14.877,38.946,0,54.092
		C347.269,322.634,371.339,322.634,386.216,307.758"/>
	<path fill="#E7343C" d="M328.878,459.216c0,0-30.563,7.031-58.149,32.996c0,0-41.651,37.323-90.333,86.006
		c-35.43,35.43-61.124,59.771-61.124,59.771l-28.668,28.668c0,0,41.65-13.522,80.867-51.116L328.878,459.216z"/>
	<path fill="#E7343C" d="M259.911,388.895c0,0-7.573,30.563-34.078,57.608c0,0-37.864,40.839-87.629,88.981
		c-35.971,34.889-60.854,60.042-60.854,60.042l-29.209,28.127c0,0,14.334-41.38,52.469-80.056L259.911,388.895z"/>
	<path fill="#EB584E" d="M337.804,367.8c-3.246,3.246-3.518,8.655,0,12.171c3.244,3.516,8.654,3.516,12.17,0l7.844-19.743
		L337.804,367.8z"/>
	<path fill="#EB584E" d="M345.646,477.336c0,0,0.541-4.327,4.598-4.598c0,0,3.787,1.623,4.059,5.68c0,0,1.08,27.587-18.662,48.683
		c0,0-71.402,84.113-106.562,109.266c0,0-65.181,53.28-127.116,43.003c0,0-2.975-1.082,1.353-2.435c0,0,70.59-16.228,115.215-61.935
		l93.037-92.227C311.298,522.773,337.263,497.08,345.646,477.336"/>
	<path fill="#EB584E" d="M242.061,371.857c0,0,4.327-0.541,4.598-4.599c0,0-1.353-3.786-5.68-4.057c0,0-27.316-1.353-48.953,17.851
		c0,0-85.465,70.049-110.888,104.668c0,0-54.633,64.099-45.437,126.574c0,0,1.082,2.976,2.434-1.352
		c0,0,17.58-70.319,63.828-113.863l93.85-91.146C196.083,405.393,222.047,379.97,242.061,371.857"/>
	<path fill="#EB584E" d="M179.314,713.718c81.679-27.857,131.714-76.27,131.714-76.27l55.443-54.362
		c20.824-20.555,41.381-47.33,41.381-47.33s10.006-14.335,11.629-30.833c0,0-0.27-4.057,3.246-3.245c0,0,2.434,0.541,2.434,3.786
		c0,0,3.516,38.405-46.52,87.629l-55.984,55.174c0,0-11.09,12.17-36.783,25.152c0,0-66.262,35.7-102.504,42.732
		C176.069,717.774,179.314,713.718,179.314,713.718"/>
	<path fill="#EB584E" d="M2.705,534.133c29.209-81.138,78.433-130.361,78.433-130.361l55.444-54.633
		c20.825-20.555,48.142-40.299,48.142-40.299s14.334-9.736,30.832-11.089c0,0,4.057,0.541,3.246-3.245c0,0-0.541-2.435-3.786-2.435
		c0,0-38.405-4.327-88.44,45.167L70.86,392.141c0,0-12.441,10.818-25.694,36.512c0,0-36.782,65.722-44.625,101.692
		C-1.082,537.107,2.705,534.133,2.705,534.133"/>
	<path fill="#E7343C" d="M388.109,493.293c0,0,0.541-4.327,4.598-4.598c0,0,3.787,1.623,4.057,5.68c0,0,1.082,27.587-18.662,48.683
		c0,0-71.4,84.113-106.56,109.266c0,0-65.181,53.28-127.116,43.003c0,0-2.975-1.082,1.352-2.434c0,0,70.59-16.228,114.945-61.936
		l92.767-92.227C353.49,538.73,379.455,513.307,388.109,493.293"/>
	<path fill="#E7343C" d="M226.645,329.394c0,0,4.328-0.54,4.598-4.598c0,0-1.353-3.786-5.68-4.057c0,0-27.316-1.353-48.953,17.851
		c0,0-85.465,70.049-110.888,104.668c0,0-54.633,64.099-45.437,126.304c0,0,1.082,2.976,2.434-1.352
		c0,0,17.58-70.319,63.828-113.863l93.849-91.146C180.667,362.931,206.631,337.509,226.645,329.394"/>
	<path fill="#E7343C" d="M432.734,402.689l-12.711-50.306l29.209-27.046c0,0,2.975-32.455-8.383-44.085l-1.082-1.081
		c-11.359-11.63-43.814-9.196-43.814-9.196l-27.588,28.669l-50.035-13.523l-86.276,2.705l54.903,108.725l19.203-38.676l11.359,11.63
		l47.602-20.825l8.654-3.517l-4.057,8.385l-21.637,47.33l11.359,11.63l-37.594,20.014l106.289,55.444L432.734,402.689z
		 M336.181,336.156c-25.152,0.812-30.563-1.893-30.563-1.893c-14.064-5.95,1.893-20.285,1.893-20.285
		c4.328-5.409,20.826-4.868,20.826-4.868C343.753,308.028,347,323.445,347,323.445C348.351,336.427,336.181,336.156,336.181,336.156
		 M384.322,414.319c0,0-2.434-5.409-1.352-30.563c0,0,0-11.899,12.982-10.548c0,0,15.145,3.246,13.793,18.662
		c0,0,0.27,16.498-5.41,20.555C404.607,412.696,390.001,428.383,384.322,414.319"/>
	<path d="M281.277,409.992l27.857,28.668l6.762-6.49l-7.031-7.032l-13.253-12.171l0,0l26.235,13.253l4.598-4.328l-12.713-27.046
		h0.271l12.17,13.794l7.031,7.031l6.762-6.49l-27.857-28.669l-8.654,8.654l12.982,26.235l0,0l-25.964-13.794L281.277,409.992z
		 M241.25,449.209l27.857,28.668l6.761-6.491l-7.032-7.031l-13.252-12.171l0,0l26.234,13.253l4.598-4.328l-12.711-27.046h0.271
		l12.17,13.794l7.032,7.032l6.761-6.491l-27.857-28.669l-8.654,8.654l12.982,26.235l0,0l-25.964-13.794L241.25,449.209z
		 M228.808,476.254L228.808,476.254l12.982,7.303l-5.95,5.95L228.808,476.254z M255.313,491.13l6.761-6.491l-37.053-19.473
		l-7.032,7.031l18.662,37.594l6.761-6.49l-3.787-7.032l8.925-8.926L255.313,491.13z M190.674,508.439l4.327-4.328
		c1.352-1.352,2.705-1.893,4.057-1.893c1.353,0,2.705,0.541,3.787,1.622c1.082,1.082,1.623,2.435,1.623,3.787
		c0,1.352-0.811,2.704-2.164,3.786l-4.327,4.327L190.674,508.439z M207.442,516.282c1.353-1.353,2.705-1.894,4.328-1.894
		c1.352,0,2.705,0.812,4.057,2.164l1.623,1.623c0.811,0.812,1.893,1.623,2.975,2.704c1.082,0.812,2.164,1.353,3.246,1.082
		l6.762-6.762l-0.271-0.271c-1.082,0-1.893-0.271-3.246-0.811c-1.082-0.812-2.164-1.353-2.705-2.164l-1.893-1.894
		c-1.623-1.622-3.516-2.704-5.409-3.245s-4.057,0-6.221,1.082c0.812-2.164,1.082-4.058,0.812-5.95
		c-0.271-1.894-1.082-3.517-2.434-4.868c-2.705-2.705-5.68-3.787-8.925-3.517c-3.516,0.271-6.762,2.164-10.007,5.409l-11.089,10.818
		l27.857,28.669l6.761-6.491l-10.818-11.089L207.442,516.282z M183.371,532.51l-11.089,10.818l4.328,4.327l4.598-4.327l4.327,4.598
		c0,0.812-0.27,1.623-0.811,2.435s-1.353,1.893-2.705,2.975c-1.623,1.623-3.516,2.435-5.68,1.894
		c-2.164-0.271-4.057-1.353-5.95-3.516l-5.95-5.95c-1.893-1.894-2.975-4.058-3.246-6.221c-0.271-2.164,0.271-4.057,1.894-5.409
		c1.623-1.623,2.975-2.164,4.598-2.164s2.975,0.812,4.868,1.894l6.221-5.95v-0.271c-3.246-2.705-6.491-4.057-10.007-4.057
		c-3.516,0-7.032,1.893-10.818,5.409c-3.516,3.245-5.139,7.031-5.139,11.359c0,4.327,1.623,8.113,4.868,11.629l5.95,5.95
		c3.516,3.517,7.302,5.139,11.629,5.139c4.328,0,8.384-1.622,11.9-5.139c2.705-2.704,4.598-5.409,5.68-8.113
		c1.082-2.705,1.352-5.139,1.352-7.032L183.371,532.51z M148.211,572.538c1.894,2.163,3.246,4.327,3.516,6.49
		c0.271,2.164-0.271,4.328-2.164,5.95c-1.894,1.623-3.787,2.435-5.95,2.164s-4.327-1.623-6.491-3.786l-5.139-5.139
		c-1.893-2.164-3.246-4.328-3.516-6.491c-0.27-2.164,0.541-4.327,2.164-5.95c1.893-1.623,3.786-2.435,5.95-1.894
		c2.164,0.271,4.327,1.623,6.22,3.517L148.211,572.538z M149.834,560.908c-3.516-3.516-7.303-5.409-11.9-5.409
		s-8.655,1.623-12.17,5.139c-3.516,3.516-5.409,7.573-5.409,11.9c0,4.598,1.623,8.384,5.139,11.899l5.139,5.14
		c3.516,3.516,7.302,5.409,11.9,5.409c4.598,0,8.655-1.623,12.171-5.14c3.516-3.516,5.409-7.572,5.409-11.899
		c0-4.598-1.623-8.385-5.139-11.9L149.834,560.908z M94.661,601.747l4.327-4.327c1.353-1.353,2.705-1.894,4.057-1.894
		c1.352,0,2.705,0.541,3.787,1.623c1.082,1.082,1.623,2.435,1.623,3.786c0,1.353-0.812,2.705-2.164,3.787l-4.328,4.327
		L94.661,601.747z M111.429,609.861c1.352-1.353,2.705-1.894,4.327-1.894c1.353,0,2.705,0.812,4.057,2.164l1.623,1.622
		c0.812,0.812,1.893,1.623,2.975,2.705c1.082,0.812,2.164,1.353,3.246,1.082l6.761-6.762l-0.271-0.271
		c-0.811,0-1.893-0.271-3.245-0.812c-1.082-0.812-2.164-1.353-2.705-2.163l-1.894-1.894c-1.623-1.623-3.516-2.705-5.409-3.245
		c-1.893-0.541-4.057,0-6.22,1.081c0.811-2.163,1.082-4.057,0.811-5.95c-0.271-1.893-1.082-3.516-2.434-4.868
		c-2.705-2.704-5.68-3.786-8.925-3.516c-3.516,0.271-6.762,2.164-10.007,5.409L83.031,603.37l27.857,28.398l6.762-6.491
		l-10.818-11.089L111.429,609.861z M63.288,632.309l4.868-4.868c1.352-1.353,2.975-2.164,4.598-1.894
		c1.623,0,2.975,0.812,4.057,1.894c1.082,1.352,1.893,2.704,1.893,4.057c0,1.623-0.812,2.975-2.164,4.327l-4.868,4.868
		L63.288,632.309z M81.679,641.234c3.516-3.245,5.139-6.762,5.68-10.548c0.271-3.786-0.812-7.032-3.516-9.736
		c-2.705-2.705-5.95-4.057-9.736-3.786c-3.787,0.27-7.303,1.893-10.548,5.139l-11.63,11.358l27.857,28.669l6.761-6.491l-9.466-9.736
		L81.679,641.234z"/>
	<path d="M407.853,158.465c0,0-7.033,12.712-2.436,34.619c0,0,10.818,52.198-4.057,70.049l5.951,1.622
		c0,0,10.547-29.209,5.68-49.493c0,0-4.328-42.192-0.271-55.174C410.556,154.408,407.853,158.465,407.853,158.465"/>
	<path d="M417.318,127.903c-5.68,8.113-2.705,19.202-7.572,24.882l5.949,1.623c0,0,3.787-10.818,5.68-23.801
		C421.646,130.607,422.187,120.6,417.318,127.903"/>
	<path d="M562.013,312.627c0,0-12.711,7.031-34.617,2.434c0,0-52.199-10.818-70.049,4.057l-1.623-5.95
		c0,0,29.209-10.548,49.494-5.68c0,0,42.191,4.328,55.172,0.271C566.341,310.192,562.013,312.627,562.013,312.627"/>
	<path d="M592.845,303.43c-8.113,5.68-19.201,2.705-24.881,7.573l-1.623-5.95c0,0,10.818-3.786,23.801-5.68
		C589.871,299.103,600.148,298.292,592.845,303.43"/>
</g>
</svg>
