<?xml version="1.0" encoding="utf-8"?>
<!-- Generator: Adobe Illustrator 15.1.0, SVG Export Plug-In . SVG Version: 6.00 Build 0)  -->
<!DOCTYPE svg PUBLIC "-//W3C//DTD SVG 1.1//EN" "http://www.w3.org/Graphics/SVG/1.1/DTD/svg11.dtd">
<svg version="1.1" id="Ebene_1" xmlns="http://www.w3.org/2000/svg" xmlns:xlink="http://www.w3.org/1999/xlink" x="0px" y="0px"
	 width="595.28px" height="595.377px" viewBox="0.001 123.305 595.28 595.377"
	 enable-background="new 0.001 123.305 595.28 595.377" xml:space="preserve">
<g>
	<path fill="#FFFFFF" d="M395.615,280.223l-6.639-2.655l-12.744,1.593c0,0-19.648,8.231-6.373,20.444
		c0,0,12.215,11.417,20.977,4.779h5.045C395.88,304.385,406.236,295.092,395.615,280.223"/>
	<path d="M351.007,383.508c0,1.328-0.795,2.39-2.123,3.718c-1.859,1.858-3.451,2.654-5.045,2.92s-3.186-0.53-4.779-2.124
		l-6.373,6.372v0.266c2.922,2.921,6.373,4.249,10.355,3.452s7.436-2.655,10.621-5.842c3.186-3.186,5.045-6.372,5.576-9.823
		c0.531-3.187-0.531-6.107-2.922-8.497c-2.389-2.39-5.045-3.451-8.23-3.186c-2.92,0.266-6.637,1.593-10.621,3.717
		c-2.92,1.328-4.779,2.124-6.105,2.39c-1.328,0.266-2.391,0-3.188-0.797c-0.795-0.796-1.061-1.858-1.061-3.186
		c0.266-1.328,0.795-2.655,2.123-3.982c1.328-1.328,2.656-2.125,4.248-2.125c1.328,0,2.656,0.531,3.982,1.594l6.373-6.373v-0.265
		c-2.389-2.655-5.576-3.718-9.027-3.187s-6.904,2.124-10.09,5.311c-3.186,3.186-5.045,6.372-5.576,9.823
		c-0.531,3.452,0.266,6.373,2.656,8.763c2.389,2.39,5.045,3.451,7.965,2.92c2.92-0.53,6.904-1.858,11.418-4.248
		c2.389-1.062,3.982-1.593,5.309-1.858c1.063,0,2.391,0.266,3.188,1.327C350.744,381.384,351.273,382.18,351.007,383.508
		 M305.339,384.304l-6.371,6.372l17.789,17.789v0.266l-28.145-7.435l-6.373,6.639l28.144,27.879l6.373-6.638l-17.789-17.79v-0.266
		l28.145,7.435l6.371-6.372L305.339,384.304z M266.31,423.335l18.32,18.32c1.859,1.594,2.655,3.452,2.655,5.045
		s-0.796,3.452-2.39,5.045s-3.186,2.39-5.045,2.655c-1.593,0-3.452-0.797-5.044-2.39l-18.32-18.32l-6.373,6.638l18.32,18.32
		c3.186,3.187,6.638,4.514,10.621,4.248s7.435-2.39,10.886-5.841c3.452-3.452,5.31-7.169,5.576-10.887
		c0.266-3.982-1.062-7.434-4.249-10.62l-18.32-18.32L266.31,423.335z M202.321,488.12l28.145,27.879l6.373-6.638l-6.904-6.903
		l-13.275-11.948v-0.266l26.286,12.745l4.249-4.514l-13.01-26.286h0.266l12.213,13.275l6.903,6.903l6.373-6.638l-28.145-27.879
		l-8.497,8.497l13.276,25.755l0,0l-25.755-13.276L202.321,488.12z M186.656,504.051l18.32,18.32
		c1.858,1.594,2.655,3.452,2.655,5.045c0,1.594-0.797,3.452-2.39,5.045c-1.593,1.593-3.186,2.39-5.045,2.655
		c-1.593,0-3.452-0.797-5.044-2.39l-18.321-18.32l-6.372,6.638l18.32,18.32c3.186,3.187,6.638,4.514,10.621,4.248
		c3.982-0.266,7.434-2.39,10.886-5.841c3.452-3.452,5.311-7.169,5.576-10.887c0.265-3.982-1.063-7.434-4.249-10.62l-18.32-18.32
		L186.656,504.051z M145.501,555.56c1.593-1.858,3.717-2.39,5.841-2.39c2.125,0.266,4.249,1.328,6.107,3.187l5.045,5.045
		c1.858,1.858,2.92,3.982,3.186,6.106s-0.531,3.982-2.124,5.841l-3.186,3.187l-18.055-17.789L145.501,555.56z M169.132,577.863
		c3.186-3.186,5.045-7.168,5.045-11.417c0-4.248-1.593-8.23-5.045-11.683l-5.045-5.044c-3.452-3.452-7.169-5.045-11.683-4.779
		c-4.248,0-8.23,1.858-11.417,5.045l-10.089,10.089l28.145,27.879L169.132,577.863z M121.605,569.633l-6.373,6.372l17.79,17.79
		v0.266l-28.145-7.435l-6.372,6.638l28.145,27.879l6.372-6.638l-17.79-17.79v-0.266l28.145,7.435l6.373-6.372L121.605,569.633z
		 M82.84,608.663l18.321,18.32c1.858,1.594,2.655,3.452,2.655,5.045s-0.796,3.452-2.39,5.045c-1.593,1.593-3.186,2.39-5.044,2.655
		c-1.593,0-3.452-0.797-5.045-2.39l-18.32-18.32l-6.373,6.638l18.321,18.32c3.186,3.187,6.638,4.514,10.62,4.248
		c3.983-0.266,7.435-2.39,10.886-5.841c3.452-3.452,5.31-7.169,5.576-10.887c0.266-3.717-1.062-7.434-4.248-10.62l-18.32-18.32
		L82.84,608.663z M47.261,654.596l4.249-4.248c1.327-1.327,2.655-1.858,3.982-1.858s2.655,0.531,3.717,1.593
		c1.062,1.063,1.593,2.39,1.593,3.718c0,1.327-0.797,2.655-2.125,3.982l-4.248,4.248L47.261,654.596z M63.989,662.297
		c1.328-1.327,2.655-2.124,4.248-2.124c1.328,0,2.655,0.531,4.248,1.858l1.593,1.593c0.796,0.797,1.858,1.594,3.186,2.655
		c1.062,0.797,2.124,1.328,3.187,1.063l6.638-6.638l-0.266-0.266c-1.062,0.266-1.858-0.266-3.186-0.797
		c-1.062-0.796-2.124-1.327-2.921-2.124l-1.858-1.858c-1.593-1.593-3.452-2.655-5.31-3.187c-1.859-0.266-3.983,0-6.107,1.328
		c0.796-2.124,1.062-3.983,0.796-5.842s-1.062-3.451-2.655-4.779c-2.655-2.655-5.576-3.717-9.027-3.186
		c-3.452,0.53-6.638,2.124-9.824,5.575L36.11,656.456l27.613,27.613l6.372-6.638L59.209,666.81L63.989,662.297z"/>
	<path fill="#E7A135" d="M228.076,414.042c11.151,11.151,32.924,7.435,48.589-7.966c15.666-15.665,19.117-37.437,7.965-48.589
		c-11.151-11.151-32.923-7.434-48.589,7.966C220.376,381.118,216.924,402.89,228.076,414.042"/>
	<path fill="#E7A135" d="M141.784,495.82c9.824,9.824,29.206,6.638,43.278-7.169c13.807-13.807,16.993-33.189,7.169-43.278
		c-9.824-9.824-29.207-6.638-43.279,7.169C134.881,466.614,131.694,485.73,141.784,495.82"/>
	<path fill="#F4D236" d="M146.829,363.86c5.311,13.01,24.427,17.523,42.482,10.354c18.32-7.435,28.675-23.896,23.365-36.906
		c-5.31-13.01-24.427-17.523-42.482-10.354C151.874,334.387,141.519,350.849,146.829,363.86"/>
	<path fill="#E7A135" d="M41.951,501.396c9.293,3.186,20.444-4.779,24.958-17.79c4.514-13.01,0.531-26.285-8.762-29.472
		s-20.445,4.779-24.958,17.789C28.675,485.2,32.658,498.21,41.951,501.396"/>
	<path fill="#F4D236" d="M90.54,459.975c12.479,6.373,30.003-2.654,38.765-20.179c9.028-17.523,6.107-36.906-6.372-43.278
		c-12.479-6.373-30.003,2.654-38.765,20.179C75.14,434.221,78.061,453.603,90.54,459.975"/>
</g>
<polygon fill="#F4D236" points="143.908,529.54 101.957,487.589 67.175,522.106 79.388,594.325 "/>
<g>
	<path fill="#F4D236" d="M18.055,641.587l25.489-7.966L8.497,516.264C8.497,516.264-15.931,560.34,18.055,641.587"/>
</g>
<polygon fill="#E7A135" points="50.182,527.15 27.348,520.247 36.641,546.533 "/>
<polygon fill="#E7A135" points="61.333,560.074 38.5,553.171 47.792,579.457 "/>
<g>
	<path fill="#E7A135" d="M371.453,301.199c6.373,6.372,16.727,6.372,23.1,0c6.373-6.373,6.373-16.728,0-23.1
		c-6.373-6.373-16.727-6.373-23.1,0C365.08,284.471,365.08,294.826,371.453,301.199"/>
	<path fill="#F4D236" d="M311.181,307.837c8.23,8.23,21.771,8.23,30.004,0c8.23-8.231,8.23-21.772,0-30.003
		c-8.232-8.231-21.773-8.231-30.004,0C302.685,286.064,302.685,299.341,311.181,307.837"/>
	<path fill="#E7A135" d="M167.273,312.882c0,0-41.951,18.055-117.357,113.374C49.917,426.256,66.113,333.857,167.273,312.882"/>
</g>
<polygon fill="#E7A135" points="286.223,291.109 206.304,306.774 238.165,338.636 "/>
<rect x="442.994" y="241.746" transform="matrix(-0.7072 0.7071 -0.7071 -0.7072 955.9212 147.0527)" fill="#F4D236" width="9.029" height="59.474"/>
<rect x="426.445" y="250.425" transform="matrix(-0.7071 0.7071 -0.7071 -0.7071 939.6167 187.5837)" fill="#F4D236" width="9.027" height="75.936"/>
<g>
	<path fill="#E7A135" d="M444.734,236.148c0-7.966-2.92-15.931-9.027-22.038c-12.213-12.213-31.596-12.213-43.809,0
		c-11.418,11.417-11.949,29.737-1.594,41.951l8.23-6.903c-6.902-7.965-6.637-20.179,0.797-27.613c7.965-7.965,20.711-7.965,28.676,0
		c3.982,3.982,5.842,9.027,5.842,14.338L444.734,236.148z"/>
</g>
<polygon fill="#E7A135" points="443.671,231.9 444.734,236.148 390.304,256.061 389.773,247.3 393.224,223.137 411.015,207.738 
	435.175,220.483 "/>
<polygon points="373.843,251.548 328.173,205.88 372.25,194.463 365.611,187.825 315.164,202.693 371.187,258.717 "/>
<polygon points="387.119,123.305 369.859,186.497 376.232,192.87 391.898,128.084 "/>
<g>
	<path fill="#FFFFFF" d="M438.628,323.236l2.654,6.638l-1.594,12.745c0,0-8.23,19.647-20.443,6.372c0,0-11.418-12.214-4.779-20.976
		v-5.045C414.466,322.705,423.494,312.35,438.628,323.236"/>
	<path fill="#E7A135" d="M304.808,490.775c-11.151-11.151-7.434-32.924,7.967-48.589c15.664-15.665,37.438-19.117,48.588-7.966
		c11.152,11.152,7.436,32.924-7.965,48.59C337.732,498.21,315.96,501.927,304.808,490.775"/>
	<path fill="#E7A135" d="M223.031,577.067c-9.824-9.824-6.638-29.207,7.169-43.278c13.807-13.807,33.189-16.993,43.279-7.169
		c9.824,9.823,6.638,29.206-7.169,43.278C252.237,583.705,232.855,586.891,223.031,577.067"/>
	<path fill="#F4D236" d="M354.726,572.022c-13.01-5.311-17.525-24.427-10.355-42.482c7.434-18.32,23.896-28.675,36.906-23.365
		c13.01,5.311,17.523,24.428,10.355,42.482C384.197,566.712,367.736,577.333,354.726,572.022"/>
	<path fill="#E7A135" d="M217.189,676.635c-3.186-9.293,4.779-20.444,17.79-24.958s26.286-0.531,29.472,8.762
		c3.186,9.293-4.779,20.444-17.79,24.958S220.376,686.193,217.189,676.635"/>
	<path fill="#F4D236" d="M258.61,628.046c-6.373-12.479,2.655-30.003,20.179-38.765c17.524-9.027,36.906-6.107,43.279,6.372
		c6.371,12.479-2.656,30.003-20.18,38.765C284.364,643.445,264.982,640.524,258.61,628.046"/>
</g>
<polygon fill="#F4D236" points="189.045,574.677 231.262,616.894 196.479,651.411 124.26,639.197 "/>
<g>
	<path fill="#F4D236" d="M76.999,700.531l7.965-25.489l117.091,35.313C202.321,710.354,158.511,734.516,76.999,700.531"/>
</g>
<polygon fill="#E7A135" points="191.7,668.669 198.338,691.238 172.052,681.945 "/>
<polygon fill="#E7A135" points="158.777,657.517 165.415,680.086 139.129,670.793 "/>
<g>
	<path fill="#E7A135" d="M417.652,347.133c-6.373-6.372-6.373-16.728,0-23.1s16.729-6.372,23.1,0c6.373,6.372,6.373,16.728,0,23.1
		C434.38,353.505,424.025,353.505,417.652,347.133"/>
	<path fill="#F4D236" d="M411.015,407.67c-8.232-8.231-8.232-21.772,0-30.003c8.23-8.231,21.771-8.231,30.002,0
		c8.23,8.23,8.23,21.771,0,30.003C432.787,415.9,419.246,415.9,411.015,407.67"/>
</g>
<polygon fill="#F4D236" points="388.179,399.704 400.925,317.927 318.88,330.405 331.361,342.885 361.628,339.698 370.39,348.46 
	378.886,356.957 375.701,387.49 "/>
<g>
	<path fill="#E7A135" d="M405.705,551.312c0,0-18.055,41.951-113.375,117.356C292.33,668.669,384.728,652.472,405.705,551.312"/>
</g>
<polygon fill="#E7A135" points="427.742,432.362 411.81,512.282 379.949,480.685 "/>
<polygon fill="#E7A135" points="462.523,274.647 466.242,252.344 444.203,256.061 453.496,265.354 "/>
<g>
	<path fill="#E7A135" d="M482.437,273.851c7.965,0,15.932,2.92,22.037,9.027c12.215,12.213,12.215,31.596,0,43.81
		c-11.416,11.417-29.736,11.948-41.951,1.593l6.904-8.23c7.965,6.903,20.18,6.638,27.613-0.797c7.965-7.966,7.965-20.71,0-28.676
		c-3.982-3.982-9.027-5.841-14.338-5.841L482.437,273.851z"/>
</g>
<polygon fill="#E7A135" points="486.951,275.178 482.437,273.851 462.789,328.547 471.287,328.812 495.447,325.36 510.847,307.837 
	498.103,283.409 "/>
<polygon points="467.302,345.009 512.707,390.677 524.123,346.336 530.761,352.973 515.892,403.422 460.134,347.664 "/>
<polygon points="525.716,342.353 532.087,348.725 595.281,331.733 590.501,326.688 "/>
</svg>
