<?xml version="1.0" encoding="utf-8"?>
<!-- Generator: Adobe Illustrator 15.1.0, SVG Export Plug-In . SVG Version: 6.00 Build 0)  -->
<!DOCTYPE svg PUBLIC "-//W3C//DTD SVG 1.1//EN" "http://www.w3.org/Graphics/SVG/1.1/DTD/svg11.dtd">
<svg version="1.1" id="Ebene_1" xmlns="http://www.w3.org/2000/svg" xmlns:xlink="http://www.w3.org/1999/xlink" x="0px" y="0px"
	 width="594.557px" height="594.827px" viewBox="0 123.893 594.557 594.827" enable-background="new 0 123.893 594.557 594.827"
	 xml:space="preserve">
<g>
	<path d="M344.324,389.238l-5.396,5.397l4.316,4.317l5.396-5.397L344.324,389.238z M325.974,371.159l-5.396,5.396l14.57,14.302
		l5.398-5.396L325.974,371.159z M321.386,393.286l-8.904,8.905l-4.857-4.857l10.793-10.524l-4.047-4.048l-15.922,15.921
		l22.668,22.397l15.922-15.651l-4.049-4.047l-10.523,10.523l-5.668-5.667l8.906-8.904L321.386,393.286z M308.705,432.954
		l6.475-6.477l-19.968-4.588l-2.968-17l-6.746,6.477l3.778,13.762l-1.889,1.889l-8.905-8.635l-5.397,5.397l22.667,22.396
		l5.397-5.396l-9.175-8.905l2.429-2.429L308.705,432.954z M265.528,430.795l-5.397,5.127l14.302,14.032l0,0l-22.667-5.937
		l-5.396,5.396l22.667,22.397l5.397-5.396l-14.302-14.032l0,0l22.667,5.937l5.396-5.127L265.528,430.795z M236.385,471.811
		L236.385,471.811l10.524,5.396l-4.857,4.857L236.385,471.811z M257.973,483.144l5.397-5.396l-29.953-14.842l-5.667,5.667
		l15.111,29.684l5.397-5.397l-2.968-5.667l7.286-7.285L257.973,483.144z M208.861,494.748c1.349-1.349,2.968-2.158,4.857-1.889
		c1.619,0.27,3.508,1.079,4.857,2.429l4.048,4.048c1.619,1.619,2.429,3.238,2.698,4.857c0.27,1.619-0.54,3.238-1.889,4.587
		l-2.699,2.429l-14.572-14.302L208.861,494.748z M227.75,512.828c2.698-2.698,4.048-5.667,4.317-9.175
		c0-3.508-1.349-6.477-4.047-9.175l-4.048-4.048c-2.698-2.698-5.937-4.048-9.445-3.777c-3.508,0.27-6.746,1.349-9.444,4.048
		l-8.365,8.095l22.667,22.397L227.75,512.828z"/>
</g>
<polygon fill="#55A680" points="332.72,323.666 17.81,618.878 9.445,668.529 342.166,334.46 "/>
<g>
	<path fill="#8AC165" d="M206.162,395.715c4.048,4.317,11.064,4.587,15.112,0.539c4.317-4.047,4.317-10.793,0-15.111
		c-4.048-4.587-10.794-4.587-15.112-0.539C201.845,384.651,201.845,391.397,206.162,395.715"/>
	<path fill="#55A680" d="M177.559,418.112c4.317,4.587,11.604,4.857,16.191,0.539c4.587-4.317,4.587-11.604,0-16.19
		c-4.317-4.588-11.604-4.857-16.191-0.54S172.971,413.524,177.559,418.112"/>
	<path fill="#8AC165" d="M145.987,444.556c4.857,4.857,12.683,5.128,17.54,0.54c4.857-4.857,4.857-12.413,0.27-17.54
		c-4.857-4.857-12.683-5.127-17.54-0.54C141.399,431.604,141.399,439.7,145.987,444.556"/>
	<path fill="#55A680" d="M112.256,473.97c5.127,5.127,13.223,5.396,18.35,0.539s5.127-13.223,0-18.35s-13.223-5.396-18.35-0.539
		C107.129,460.477,107.129,468.843,112.256,473.97"/>
	<path fill="#8AC165" d="M74.208,509.32c5.397,5.667,14.302,5.937,19.969,0.539c5.667-5.396,5.667-14.302,0.27-19.968
		c-5.397-5.667-14.572-5.938-19.969-0.54C68.811,494.748,68.541,503.653,74.208,509.32"/>
	<path fill="#55A680" d="M41.556,543.591c4.857,4.856,12.413,5.127,17.271,0.539c4.857-4.587,4.857-12.413,0-17.27
		c-4.857-4.857-12.413-5.127-17.271-0.54C36.699,530.908,36.699,538.733,41.556,543.591"/>
	<path fill="#8AC165" d="M325.164,306.666c0.271,0,0.541,0.27,0.811,0.27l-7.826-9.444c0,0-32.921-18.62-51.54,14.841
		c-18.62,33.461-131.145,84.192-131.145,84.192S10.254,454.541,14.032,546.289l1.349,10.254c0,0,0.27-1.619,0.54-4.317
		c34-70.699,133.574-142.209,177.289-171.083c13.762-7.285,28.333-15.921,41.826-24.556c4.857-1.35,16.461-2.968,21.048,10.254
		L13.492,602.957v6.476l313.291-296.021l-1.348-6.477L325.164,306.666z M303.037,325.285c-4.316,4.048-11.063,3.777-15.111-0.54
		c-4.048-4.317-4.048-11.063,0-15.111c4.317-4.048,11.064-3.777,15.111,0.54C307.085,314.491,307.355,321.237,303.037,325.285"/>
	<path fill="#8AC165" d="M325.435,513.097c-4.318-4.048-4.588-11.063-0.541-15.111c4.049-4.317,10.795-4.587,15.111-0.539
		c4.318,4.047,4.588,10.793,0.541,15.111C336.498,517.145,329.751,517.145,325.435,513.097"/>
	<path fill="#55A680" d="M303.578,542.241c-4.588-4.317-5.129-11.604-0.811-16.19c4.318-4.588,11.604-4.857,16.191-0.54
		c4.586,4.317,4.857,11.604,0.809,16.19C315.451,546.289,308.433,546.558,303.578,542.241"/>
	<path fill="#8AC165" d="M277.671,573.813c-5.127-4.588-5.397-12.413-0.81-17.54s12.413-5.127,17.54-0.54
		c5.127,4.588,5.396,12.683,0.81,17.54C290.624,578.4,282.799,578.671,277.671,573.813"/>
	<path fill="#55A680" d="M248.798,608.353c-5.397-4.857-5.667-13.223-0.81-18.35c4.857-5.127,13.223-5.396,18.35-0.54
		c5.397,4.857,5.667,13.223,0.81,18.35C262.29,613.211,254.195,613.48,248.798,608.353"/>
	<path fill="#8AC165" d="M214.258,646.941c-5.667-5.396-6.207-14.302-1.08-19.969c5.397-5.666,14.302-5.937,19.969-0.539
		c5.667,5.396,6.207,14.302,0.81,19.969C229.099,652.339,219.924,652.339,214.258,646.941"/>
	<path fill="#55A680" d="M180.527,680.133c-5.127-4.588-5.397-12.413-0.81-17.271s12.413-5.127,17.271-0.27
		c5.127,4.587,5.396,12.413,0.809,17.27C193.21,684.719,185.384,684.719,180.527,680.133"/>
	<path fill="#8AC165" d="M412.595,392.476c0-0.27-0.271-0.54-0.271-0.81l9.445,7.825c0,0,19.16,32.652-13.762,51.811
		c-33.191,19.159-81.764,132.495-81.764,132.495s-55.588,126.288-147.605,124.129l-10.254-1.079c0,0,1.619-0.271,4.317-0.81
		c70.16-35.08,139.781-136.003,168.115-180.258c7.016-13.762,15.381-28.604,24.016-42.096c1.35-4.857,2.699-16.461-10.523-20.778
		l-232.068,246.1h-6.477l290.625-318.418l6.477,1.349L412.595,392.476z M394.246,414.874c-4.049,4.317-3.779,11.063,0.809,15.111
		c4.318,4.048,11.064,4.048,15.111-0.27c4.049-4.317,3.777-11.064-0.809-15.112C404.769,410.556,398.292,410.556,394.246,414.874"/>
	<path d="M562.089,295.872l-64.494,7.016c0,0-2.967,4.857-4.047,5.667c-0.809,0.81,52.35-7.017,69.891-9.715L562.089,295.872z
		 M571.263,293.443l22.668-48.843c-1.619-9.984-7.826,3.778-7.826,3.778l-17.539,41.017L571.263,293.443z"/>
	<path fill="none" stroke="#000000" stroke-width="1.208" stroke-miterlimit="10" d="M562.089,295.872l-64.494,7.016
		c0,0-2.967,4.857-4.047,5.667c-0.809,0.81,52.35-7.017,69.891-9.715L562.089,295.872z M571.263,293.443l22.668-48.843
		c-1.619-9.984-7.826,3.778-7.826,3.778l-17.539,41.017L571.263,293.443z"/>
	<path d="M422.308,156.092l-6.746,64.493c0,0-4.855,2.968-5.666,4.048c-0.809,0.81,7.016-52.351,9.715-69.891L422.308,156.092z
		 M425.007,147.186l48.842-22.667c9.984,1.619-3.777,7.825-3.777,7.825l-41.287,17.54L425.007,147.186z"/>
	<path fill="none" stroke="#000000" stroke-width="1.208" stroke-miterlimit="10" d="M422.308,156.092l-6.746,64.493
		c0,0-4.855,2.968-5.666,4.048c-0.809,0.81,7.016-52.351,9.715-69.891L422.308,156.092z M425.007,147.186l48.842-22.667
		c9.984,1.619-3.777,7.825-3.777,7.825l-41.287,17.54L425.007,147.186z"/>
</g>
<polygon fill="#8AC165" points="446.056,366.031 451.453,360.635 431.753,340.935 421.23,297.76 421.23,297.76 377.785,287.236 
	358.085,267.538 352.689,272.934 374.277,294.792 414.753,303.967 415.023,303.967 424.199,344.444 "/>
<polygon fill="#8AC165" points="381.023,337.698 381.023,337.968 369.15,334.729 354.847,363.873 354.847,363.873 384.261,349.571 
	"/>
<g>
	<path fill="#55A680" d="M437.691,434.033c0,0-10.525,235.036-130.877,277.941c0,0-53.159,6.746-80.683,6.746
		c0,0,97.955-49.651,118.732-138.431c0,0,23.746-74.208,64.764-118.193C409.626,462.096,430.404,446.446,437.691,434.033"/>
	<path fill="#55A680" d="M284.688,281.3c0,0-235.036,10.524-277.941,130.876c0,0-6.746,53.159-6.746,80.684
		c0,0,49.652-97.954,138.431-118.732c0,0,74.208-23.746,118.192-64.763C256.624,309.364,272.274,288.586,284.688,281.3"/>
	<path fill="#8AC165" d="M485.183,283.188c0,0,18.35-23.477-4.047-45.604c-22.129-22.127-45.605-4.048-45.605-4.048
		c21.588,7.286,18.35,31.303,18.35,31.303S478.167,261.601,485.183,283.188"/>
	<path fill="#55A680" d="M429.326,273.205c-6.477,6.476-16.73,6.476-23.207,0c-6.477-6.477-6.477-16.73,0-23.207
		s16.73-6.477,23.207,0C435.802,256.204,435.802,266.728,429.326,273.205 M435.261,279.141c9.715-9.715,9.715-25.636,0-35.351
		c-9.715-9.714-25.635-9.714-35.35,0c-9.715,9.715-9.715,25.636,0,35.351C409.626,288.855,425.546,289.126,435.261,279.141"/>
	<path fill="#55A680" d="M468.992,312.872c-6.477,6.477-16.73,6.477-23.207,0c-6.475-6.477-6.475-16.73,0-23.207
		c6.477-6.477,16.73-6.477,23.207,0S475.468,306.666,468.992,312.872 M475.199,319.078c9.715-9.714,9.715-25.635,0-35.35
		c-9.715-9.714-25.635-9.714-35.35,0c-9.715,9.715-9.715,25.636,0,35.35C449.564,328.793,465.484,328.793,475.199,319.078"/>
	<path fill="#55A680" d="M404.769,274.823c7.016,7.017,18.35,7.017,25.096,0c7.016-7.016,7.016-18.349,0-25.095
		c-7.016-7.017-18.35-7.017-25.096,0C398.023,256.474,398.023,267.807,404.769,274.823"/>
	<path fill="#55A680" d="M444.707,314.491c7.016,7.016,18.35,7.016,25.096,0c7.016-7.017,7.016-18.35,0-25.096
		c-7.016-7.016-18.35-7.016-25.096,0C437.691,296.411,437.691,307.474,444.707,314.491"/>
	<path fill="#55A680" d="M439.31,420.001l8.365-37.239l-34.271-34.271l-5.127-37.778l-37.777-5.127l-34.271-34.271l-37.238,8.365
		c0,0,43.445,8.096,37.508,39.397l22.398,22.667l4.857-15.381l24.285,4.587l4.588,24.287l-15.381,4.856l22.666,22.397
		C430.945,376.555,439.31,420.001,439.31,420.001"/>
	<path d="M192.67,541.162l-5.397,5.396l4.048,4.317l5.397-5.396L192.67,541.162z M190.511,539.003
		c-0.81-0.81-1.349-1.619-1.619-2.429c-0.27-0.81-0.27-1.619,0-2.698c0.54-1.889,0.81-3.777,0.54-5.667
		c-0.27-1.889-1.079-3.508-2.428-4.857c-2.159-2.158-4.587-3.237-7.016-2.968c-2.699,0.27-5.127,1.619-7.826,4.048
		c-2.429,2.429-3.778,4.857-4.047,7.285c-0.27,2.429,0.54,4.857,2.698,7.017l0,0l5.127-5.127c-0.81-0.81-1.079-1.889-1.079-2.698
		s0.54-1.619,1.079-2.429c0.81-0.81,1.889-1.35,2.699-1.35c1.079,0,1.889,0.54,2.698,1.35s1.349,1.889,1.619,2.968
		c0.27,1.08,0.27,2.159,0,3.238c-0.54,2.429-0.54,4.048-0.27,5.397c0.27,1.349,1.08,2.698,2.429,4.047L190.511,539.003z
		 M158.399,538.733l-5.397,5.396l14.302,14.572l0,0l-22.667-6.207l-5.397,5.397l22.397,22.937l5.397-5.396l-14.302-14.572l0,0
		l22.667,6.207l5.397-5.397L158.399,538.733z M140.32,575.432l-8.905,9.175l-4.857-4.857l10.524-10.794l-4.047-4.048l-15.921,16.19
		l22.397,22.938l15.921-16.19l-4.047-4.048l-10.524,10.794l-5.667-5.667l8.905-9.175L140.32,575.432z M118.732,598.638l-9.175,9.175
		l-5.397-5.396l10.794-10.794l-4.048-4.048l-15.921,16.461l22.397,22.937l5.397-5.396l-9.175-9.175l9.175-9.175L118.732,598.638z
		 M78.795,619.957l-5.397,5.396l22.397,22.938l15.111-15.382l-4.048-4.047l-9.714,9.983L78.795,619.957z M74.208,642.624
		l-8.905,9.175l-4.857-4.857l10.524-10.794l-4.048-4.048l-15.921,16.191l22.397,22.937l15.921-16.19l-4.047-4.048l-10.524,10.794
		l-5.667-5.667l8.905-9.175L74.208,642.624z M43.445,655.846l-5.397,5.396l9.444,9.715l-8.365,8.635l-9.444-9.714l-5.397,5.396
		l22.397,22.937l5.396-5.396l-9.175-9.175l8.365-8.635l9.175,9.175l5.397-5.397L43.445,655.846z"/>
</g>
<polygon fill="#55A680" points="396.134,387.349 100.922,701.99 51.271,710.355 385.339,377.635 "/>
</svg>
